M48
; DRILL file {KiCad 8.0.9-8.0.9-0~ubuntu24.04.1} date 2025-03-05T09:12:25+0100
; FORMAT={-:-/ absolute / metric / decimal}
; #@! TF.CreationDate,2025-03-05T09:12:25+01:00
; #@! TF.GenerationSoftware,Kicad,Pcbnew,8.0.9-8.0.9-0~ubuntu24.04.1
; #@! TF.FileFunction,Plated,1,4,PTH
FMAT,2
METRIC
; #@! TA.AperFunction,Plated,PTH,ViaDrill
T1C0.300
; #@! TA.AperFunction,Plated,PTH,ViaDrill
T2C0.400
; #@! TA.AperFunction,Plated,PTH,ComponentDrill
T3C0.700
; #@! TA.AperFunction,Plated,PTH,ComponentDrill
T4C0.750
; #@! TA.AperFunction,Plated,PTH,ComponentDrill
T5C0.800
; #@! TA.AperFunction,Plated,PTH,ComponentDrill
T6C0.900
; #@! TA.AperFunction,Plated,PTH,ComponentDrill
T7C1.000
%
G90
G05
T1
X41.725Y-69.015
X41.819Y-77.752
X42.62Y-44.06
X46.219Y-75.752
X46.325Y-69.015
X47.619Y-77.752
X47.925Y-66.615
X49.825Y-68.515
X49.825Y-70.015
X49.825Y-71.515
X50.925Y-72.715
X52.125Y-66.615
X54.825Y-68.015
X55.081Y-79.59
X55.825Y-70.515
X56.969Y-77.302
X57.825Y-66.815
X58.325Y-69.815
X59.32Y-39.16
X59.32Y-40.16
X59.32Y-46.16
X59.32Y-47.16
X59.325Y-65.515
X59.325Y-66.815
X59.325Y-68.015
X60.32Y-39.16
X60.32Y-40.16
X60.32Y-46.16
X60.32Y-47.16
X61.32Y-39.16
X61.32Y-40.16
X61.32Y-45.16
X61.32Y-46.16
X61.825Y-71.115
X62.32Y-39.16
X62.32Y-40.16
X62.32Y-45.16
X62.825Y-71.115
X63.32Y-39.16
X63.32Y-40.16
X63.32Y-47.16
X63.57Y-45.41
X64.32Y-39.16
X64.32Y-40.16
X64.32Y-46.16
X64.32Y-47.16
X65.32Y-47.16
X67.739Y-50.0
X67.739Y-51.5
X67.739Y-53.0
X67.739Y-54.5
X67.739Y-56.0
X67.825Y-63.015
X68.125Y-64.315
X68.125Y-65.315
X70.125Y-69.815
X70.4Y-49.347
X70.4Y-57.66
X70.725Y-72.815
X71.725Y-72.815
X72.212Y-47.76
X74.625Y-69.815
X74.625Y-70.715
X75.125Y-67.515
X75.125Y-68.515
X77.8Y-60.5
X79.3Y-55.16
X80.05Y-57.76
X80.8Y-52.26
X82.2Y-60.8
X82.3Y-48.26
X82.5Y-50.648
X83.537Y-53.21
X83.8Y-63.0
X85.825Y-66.515
X88.4Y-50.148
X88.4Y-58.66
T2
X37.0Y-44.0
X37.0Y-46.0
X37.0Y-48.0
X37.0Y-50.0
X37.0Y-66.0
X37.0Y-68.0
X40.0Y-37.0
X42.0Y-37.0
X45.0Y-55.0
X47.0Y-55.0
X48.6Y-81.9
X49.0Y-55.0
X51.0Y-51.0
X51.0Y-55.0
X52.0Y-63.0
X52.1Y-81.9
X53.0Y-51.0
X53.0Y-55.0
X54.0Y-63.0
X55.0Y-51.0
X55.0Y-55.0
X55.0Y-57.0
X55.6Y-81.9
X56.0Y-63.0
X57.0Y-51.0
X57.0Y-57.0
X57.0Y-59.0
X58.0Y-37.0
X58.0Y-63.0
X58.6Y-81.9
X59.0Y-51.0
X59.0Y-59.0
X60.0Y-37.0
X61.0Y-51.0
X61.0Y-55.0
X62.0Y-37.0
X62.1Y-74.4
X62.1Y-76.9
X62.1Y-79.4
X63.0Y-51.0
X63.0Y-55.0
X64.0Y-37.0
X65.0Y-49.0
X65.0Y-51.0
X65.0Y-53.0
X65.0Y-55.0
X65.0Y-57.0
X65.0Y-59.0
X65.1Y-74.4
X66.28Y-37.9
X67.0Y-49.0
X68.1Y-74.4
X69.0Y-37.9
X69.0Y-47.0
X69.0Y-49.0
X69.9Y-60.615
X71.6Y-37.9
X74.6Y-71.9
X77.6Y-66.5
X90.6Y-43.9
X93.1Y-43.9
X95.1Y-36.9
X95.1Y-38.9
X95.1Y-40.9
X95.1Y-42.9
X95.1Y-44.9
X95.1Y-46.9
X95.1Y-48.9
X95.1Y-50.9
T3
X83.7Y-38.165
X85.6Y-38.165
T4
X41.85Y-59.6
X41.85Y-61.6
X84.0Y-77.4
X86.0Y-77.4
X88.0Y-77.4
X90.0Y-77.4
T5
X75.21Y-39.88
X79.01Y-39.88
T6
X37.844Y-72.75
X37.844Y-75.29
X37.844Y-79.29
X37.844Y-81.83
X77.76Y-48.76
X80.3Y-48.76
X92.2Y-51.86
X92.2Y-54.4
T7
X37.6Y-54.275
X39.6Y-45.4
X39.6Y-47.94
X40.14Y-54.275
X61.325Y-64.375
X61.325Y-66.915
X63.105Y-82.165
X63.865Y-64.375
X63.865Y-66.915
X65.645Y-82.165
X68.185Y-82.165
X70.725Y-82.165
X73.265Y-82.165
X75.805Y-82.165
X77.075Y-71.475
X77.075Y-74.015
X77.075Y-76.555
X79.615Y-71.475
X79.615Y-74.015
X79.615Y-76.555
X85.06Y-70.86
X85.06Y-73.4
X87.6Y-70.86
X87.6Y-73.4
X89.785Y-38.275
X89.785Y-40.815
X92.325Y-38.275
X92.325Y-40.815
M30
