%TF.GenerationSoftware,KiCad,Pcbnew,8.0.9-8.0.9-0~ubuntu24.04.1*%
%TF.CreationDate,2025-03-05T09:12:54+01:00*%
%TF.ProjectId,SpeedometerV1,53706565-646f-46d6-9574-657256312e6b,V2*%
%TF.SameCoordinates,Original*%
%TF.FileFunction,Legend,Bot*%
%TF.FilePolarity,Positive*%
%FSLAX46Y46*%
G04 Gerber Fmt 4.6, Leading zero omitted, Abs format (unit mm)*
G04 Created by KiCad (PCBNEW 8.0.9-8.0.9-0~ubuntu24.04.1) date 2025-03-05 09:12:54*
%MOMM*%
%LPD*%
G01*
G04 APERTURE LIST*
%ADD10C,0.300000*%
%ADD11C,0.200000*%
G04 APERTURE END LIST*
D10*
G36*
X91250828Y-82558739D02*
G01*
X91198294Y-82716341D01*
X91097688Y-82816946D01*
X90991328Y-82870127D01*
X90739507Y-82933082D01*
X90562149Y-82933082D01*
X90310327Y-82870126D01*
X90203968Y-82816947D01*
X90103361Y-82716340D01*
X90050828Y-82558741D01*
X90050828Y-82375939D01*
X91250828Y-82375939D01*
X91250828Y-82558739D01*
G37*
G36*
X85992425Y-82517825D02*
G01*
X85545336Y-82368796D01*
X85992425Y-82219766D01*
X85992425Y-82517825D01*
G37*
G36*
X86420996Y-80915881D02*
G01*
X86368462Y-81073483D01*
X86267856Y-81174088D01*
X86161496Y-81227269D01*
X85909675Y-81290224D01*
X85732317Y-81290224D01*
X85480495Y-81227268D01*
X85374136Y-81174089D01*
X85273529Y-81073482D01*
X85220996Y-80915883D01*
X85220996Y-80733081D01*
X86420996Y-80733081D01*
X86420996Y-80915881D01*
G37*
G36*
X91717495Y-83827142D02*
G01*
X82339413Y-83827142D01*
X82339413Y-82053817D01*
X82508962Y-82053817D01*
X82508962Y-82112345D01*
X82531360Y-82166417D01*
X82572744Y-82207801D01*
X82626816Y-82230199D01*
X82656080Y-82233081D01*
X84006080Y-82233081D01*
X84006080Y-82797367D01*
X84008962Y-82826631D01*
X84031360Y-82880703D01*
X84072744Y-82922087D01*
X84126816Y-82944485D01*
X84185344Y-82944485D01*
X84239416Y-82922087D01*
X84280800Y-82880703D01*
X84303198Y-82826631D01*
X84306080Y-82797367D01*
X84306080Y-82350035D01*
X84922174Y-82350035D01*
X84923507Y-82368796D01*
X84922174Y-82387557D01*
X84925563Y-82397724D01*
X84926323Y-82408416D01*
X84934734Y-82425239D01*
X84940682Y-82443081D01*
X84947704Y-82451177D01*
X84952497Y-82460763D01*
X84966705Y-82473086D01*
X84979029Y-82487295D01*
X84988614Y-82492087D01*
X84996711Y-82499110D01*
X85023562Y-82511098D01*
X86523562Y-83011099D01*
X86552236Y-83017619D01*
X86610616Y-83013469D01*
X86662963Y-82987295D01*
X86701310Y-82943081D01*
X86719819Y-82887557D01*
X86715669Y-82829177D01*
X86689496Y-82776829D01*
X86645281Y-82738482D01*
X86618430Y-82726494D01*
X86292425Y-82617825D01*
X86292425Y-82492892D01*
X87337090Y-82492892D01*
X87341239Y-82551273D01*
X87367413Y-82603620D01*
X87411627Y-82641967D01*
X87438478Y-82653955D01*
X88511569Y-83011653D01*
X87438478Y-83369351D01*
X87411627Y-83381339D01*
X87367413Y-83419686D01*
X87341239Y-83472033D01*
X87337090Y-83530414D01*
X87355598Y-83585938D01*
X87393945Y-83630152D01*
X87446292Y-83656326D01*
X87504673Y-83660475D01*
X87533346Y-83653955D01*
X89033346Y-83153955D01*
X89060197Y-83141967D01*
X89068294Y-83134944D01*
X89077879Y-83130152D01*
X89090200Y-83115945D01*
X89104412Y-83103620D01*
X89109205Y-83094032D01*
X89116226Y-83085938D01*
X89122174Y-83068093D01*
X89130585Y-83051272D01*
X89131344Y-83040584D01*
X89134735Y-83030414D01*
X89133401Y-83011653D01*
X89134735Y-82992892D01*
X89131344Y-82982721D01*
X89130585Y-82972034D01*
X89122174Y-82955212D01*
X89116226Y-82937368D01*
X89109205Y-82929273D01*
X89104412Y-82919686D01*
X89090200Y-82907360D01*
X89077879Y-82893154D01*
X89068294Y-82888361D01*
X89060197Y-82881339D01*
X89033346Y-82869351D01*
X87533346Y-82369351D01*
X87504673Y-82362831D01*
X87446292Y-82366980D01*
X87393945Y-82393154D01*
X87355598Y-82437368D01*
X87337090Y-82492892D01*
X86292425Y-82492892D01*
X86292425Y-82119766D01*
X86618430Y-82011098D01*
X86645281Y-81999110D01*
X86689496Y-81960763D01*
X86715669Y-81908415D01*
X86719819Y-81850035D01*
X86701310Y-81794511D01*
X86662963Y-81750297D01*
X86610616Y-81724123D01*
X86552236Y-81719973D01*
X86523562Y-81726493D01*
X85023562Y-82226494D01*
X84996711Y-82238482D01*
X84988614Y-82245504D01*
X84979029Y-82250297D01*
X84966705Y-82264505D01*
X84952497Y-82276829D01*
X84947704Y-82286414D01*
X84940682Y-82294511D01*
X84934734Y-82312352D01*
X84926323Y-82329176D01*
X84925563Y-82339867D01*
X84922174Y-82350035D01*
X84306080Y-82350035D01*
X84306080Y-82083081D01*
X84303198Y-82053817D01*
X84280800Y-81999745D01*
X84239416Y-81958361D01*
X84185344Y-81935963D01*
X84156080Y-81933081D01*
X82656080Y-81933081D01*
X82626816Y-81935963D01*
X82572744Y-81958361D01*
X82531360Y-81999745D01*
X82508962Y-82053817D01*
X82339413Y-82053817D01*
X82339413Y-81011653D01*
X82506080Y-81011653D01*
X82506080Y-81154510D01*
X82507538Y-81169321D01*
X82507258Y-81173271D01*
X82508439Y-81178465D01*
X82508962Y-81183774D01*
X82510479Y-81187436D01*
X82513778Y-81201944D01*
X82585206Y-81416230D01*
X82597195Y-81443081D01*
X82600725Y-81447151D01*
X82602788Y-81452131D01*
X82621443Y-81474862D01*
X82692871Y-81546290D01*
X82715601Y-81564945D01*
X82769674Y-81587341D01*
X82828200Y-81587341D01*
X82882272Y-81564945D01*
X82923658Y-81523559D01*
X82946054Y-81469487D01*
X82946054Y-81410961D01*
X82923658Y-81356888D01*
X82905003Y-81334158D01*
X82858613Y-81287768D01*
X82806080Y-81130169D01*
X82806080Y-81035993D01*
X82858613Y-80878394D01*
X82959220Y-80777787D01*
X83065579Y-80724608D01*
X83317401Y-80661653D01*
X83494759Y-80661653D01*
X83746580Y-80724607D01*
X83852940Y-80777788D01*
X83953546Y-80878393D01*
X84006080Y-81035995D01*
X84006080Y-81130167D01*
X83953546Y-81287769D01*
X83907158Y-81334157D01*
X83888503Y-81356888D01*
X83866105Y-81410960D01*
X83866105Y-81469486D01*
X83888502Y-81523558D01*
X83929887Y-81564944D01*
X83983959Y-81587342D01*
X84042485Y-81587342D01*
X84096557Y-81564945D01*
X84119288Y-81546291D01*
X84190717Y-81474863D01*
X84209372Y-81452132D01*
X84211433Y-81447155D01*
X84214967Y-81443081D01*
X84226955Y-81416230D01*
X84298383Y-81201944D01*
X84301682Y-81187431D01*
X84303198Y-81183774D01*
X84303720Y-81178471D01*
X84304903Y-81173270D01*
X84304621Y-81169315D01*
X84306080Y-81154510D01*
X84306080Y-81011653D01*
X84304621Y-80996847D01*
X84304903Y-80992893D01*
X84303720Y-80987691D01*
X84303198Y-80982389D01*
X84301682Y-80978731D01*
X84298383Y-80964219D01*
X84226955Y-80749933D01*
X84214967Y-80723082D01*
X84211435Y-80719010D01*
X84209373Y-80714031D01*
X84190718Y-80691301D01*
X84082497Y-80583081D01*
X84920996Y-80583081D01*
X84920996Y-80940224D01*
X84922454Y-80955035D01*
X84922174Y-80958985D01*
X84923355Y-80964179D01*
X84923878Y-80969488D01*
X84925395Y-80973150D01*
X84928694Y-80987658D01*
X85000122Y-81201944D01*
X85012111Y-81228795D01*
X85015641Y-81232865D01*
X85017704Y-81237845D01*
X85036359Y-81260576D01*
X85179216Y-81403433D01*
X85190718Y-81412873D01*
X85193314Y-81415866D01*
X85197823Y-81418704D01*
X85201946Y-81422088D01*
X85205608Y-81423604D01*
X85218200Y-81431531D01*
X85361056Y-81502960D01*
X85363198Y-81503779D01*
X85364068Y-81504424D01*
X85376339Y-81508808D01*
X85388520Y-81513469D01*
X85389600Y-81513545D01*
X85391759Y-81514317D01*
X85677473Y-81585745D01*
X85682544Y-81586494D01*
X85684589Y-81587342D01*
X85695611Y-81588427D01*
X85706562Y-81590047D01*
X85708749Y-81589721D01*
X85713853Y-81590224D01*
X85928139Y-81590224D01*
X85933242Y-81589721D01*
X85935430Y-81590047D01*
X85946380Y-81588427D01*
X85957403Y-81587342D01*
X85959447Y-81586494D01*
X85964519Y-81585745D01*
X86250233Y-81514317D01*
X86252391Y-81513545D01*
X86253472Y-81513469D01*
X86265646Y-81508810D01*
X86277924Y-81504424D01*
X86278794Y-81503779D01*
X86280935Y-81502960D01*
X86423792Y-81431531D01*
X86436385Y-81423603D01*
X86440045Y-81422088D01*
X86444164Y-81418706D01*
X86448678Y-81415866D01*
X86451274Y-81412872D01*
X86462776Y-81403433D01*
X86605634Y-81260576D01*
X86624289Y-81237846D01*
X86626351Y-81232866D01*
X86629883Y-81228795D01*
X86641871Y-81201944D01*
X86657682Y-81154510D01*
X87335912Y-81154510D01*
X87335912Y-82083082D01*
X87337435Y-82098554D01*
X87337173Y-82102494D01*
X87338091Y-82105208D01*
X87338794Y-82112346D01*
X87348117Y-82134854D01*
X87355924Y-82157936D01*
X87359255Y-82161743D01*
X87361192Y-82166418D01*
X87378421Y-82183647D01*
X87394465Y-82201983D01*
X87398999Y-82204225D01*
X87402576Y-82207802D01*
X87425092Y-82217128D01*
X87446928Y-82227927D01*
X87451972Y-82228263D01*
X87456648Y-82230200D01*
X87481015Y-82230200D01*
X87505324Y-82231821D01*
X87510117Y-82230200D01*
X87515176Y-82230200D01*
X87537684Y-82220876D01*
X87560766Y-82213070D01*
X87566602Y-82208898D01*
X87569248Y-82207802D01*
X87572037Y-82205012D01*
X87584688Y-82195969D01*
X87935469Y-81889034D01*
X87994605Y-82007307D01*
X88002533Y-82019901D01*
X88004049Y-82023561D01*
X88007430Y-82027681D01*
X88010270Y-82032192D01*
X88013261Y-82034786D01*
X88022704Y-82046292D01*
X88094133Y-82117720D01*
X88105633Y-82127158D01*
X88108230Y-82130152D01*
X88112742Y-82132992D01*
X88116863Y-82136374D01*
X88120522Y-82137889D01*
X88133116Y-82145817D01*
X88275972Y-82217246D01*
X88303436Y-82227755D01*
X88308810Y-82228136D01*
X88313791Y-82230200D01*
X88343055Y-82233082D01*
X88700198Y-82233082D01*
X88729462Y-82230200D01*
X88734442Y-82228136D01*
X88739817Y-82227755D01*
X88744563Y-82225939D01*
X89750828Y-82225939D01*
X89750828Y-82583082D01*
X89752286Y-82597893D01*
X89752006Y-82601843D01*
X89753187Y-82607037D01*
X89753710Y-82612346D01*
X89755227Y-82616008D01*
X89758526Y-82630516D01*
X89829954Y-82844802D01*
X89841943Y-82871653D01*
X89845473Y-82875723D01*
X89847536Y-82880703D01*
X89866191Y-82903434D01*
X90009048Y-83046291D01*
X90020550Y-83055731D01*
X90023146Y-83058724D01*
X90027655Y-83061562D01*
X90031778Y-83064946D01*
X90035440Y-83066462D01*
X90048032Y-83074389D01*
X90190888Y-83145818D01*
X90193030Y-83146637D01*
X90193900Y-83147282D01*
X90206171Y-83151666D01*
X90218352Y-83156327D01*
X90219432Y-83156403D01*
X90221591Y-83157175D01*
X90507305Y-83228603D01*
X90512376Y-83229352D01*
X90514421Y-83230200D01*
X90525443Y-83231285D01*
X90536394Y-83232905D01*
X90538581Y-83232579D01*
X90543685Y-83233082D01*
X90757971Y-83233082D01*
X90763074Y-83232579D01*
X90765262Y-83232905D01*
X90776212Y-83231285D01*
X90787235Y-83230200D01*
X90789279Y-83229352D01*
X90794351Y-83228603D01*
X91080065Y-83157175D01*
X91082223Y-83156403D01*
X91083304Y-83156327D01*
X91095478Y-83151668D01*
X91107756Y-83147282D01*
X91108626Y-83146637D01*
X91110767Y-83145818D01*
X91253624Y-83074389D01*
X91266217Y-83066461D01*
X91269877Y-83064946D01*
X91273996Y-83061564D01*
X91278510Y-83058724D01*
X91281106Y-83055730D01*
X91292608Y-83046291D01*
X91435466Y-82903434D01*
X91454121Y-82880704D01*
X91456183Y-82875724D01*
X91459715Y-82871653D01*
X91471703Y-82844802D01*
X91543131Y-82630516D01*
X91546430Y-82616003D01*
X91547946Y-82612346D01*
X91548468Y-82607043D01*
X91549651Y-82601842D01*
X91549369Y-82597887D01*
X91550828Y-82583082D01*
X91550828Y-82225939D01*
X91547946Y-82196675D01*
X91525548Y-82142603D01*
X91484164Y-82101219D01*
X91430092Y-82078821D01*
X91400828Y-82075939D01*
X89900828Y-82075939D01*
X89871564Y-82078821D01*
X89817492Y-82101219D01*
X89776108Y-82142603D01*
X89753710Y-82196675D01*
X89750828Y-82225939D01*
X88744563Y-82225939D01*
X88767280Y-82217246D01*
X88910137Y-82145817D01*
X88922732Y-82137888D01*
X88926389Y-82136374D01*
X88930506Y-82132994D01*
X88935023Y-82130152D01*
X88937620Y-82127157D01*
X88949120Y-82117720D01*
X89020549Y-82046292D01*
X89029988Y-82034789D01*
X89032984Y-82032192D01*
X89035825Y-82027677D01*
X89039204Y-82023561D01*
X89040719Y-82019902D01*
X89048648Y-82007306D01*
X89120077Y-81864448D01*
X89130586Y-81836985D01*
X89130967Y-81831609D01*
X89133030Y-81826631D01*
X89135912Y-81797367D01*
X89135912Y-81368796D01*
X89133030Y-81339532D01*
X89130967Y-81334553D01*
X89130586Y-81329178D01*
X89120076Y-81301715D01*
X89048648Y-81158857D01*
X89040721Y-81146265D01*
X89039205Y-81142604D01*
X89035821Y-81138481D01*
X89032983Y-81133972D01*
X89029991Y-81131377D01*
X89020550Y-81119873D01*
X88949121Y-81048444D01*
X88926390Y-81029789D01*
X88872318Y-81007392D01*
X88813792Y-81007392D01*
X88759720Y-81029789D01*
X88718334Y-81071175D01*
X88695937Y-81125247D01*
X88695937Y-81183773D01*
X88718334Y-81237845D01*
X88736989Y-81260576D01*
X88791205Y-81314792D01*
X88835912Y-81404205D01*
X88835912Y-81761957D01*
X88791206Y-81851369D01*
X88754202Y-81888374D01*
X88664788Y-81933082D01*
X88378465Y-81933082D01*
X88289051Y-81888374D01*
X88252047Y-81851371D01*
X88207341Y-81761958D01*
X88207341Y-81583082D01*
X88205816Y-81567604D01*
X88206079Y-81563670D01*
X88205162Y-81560959D01*
X88204459Y-81553818D01*
X88195132Y-81531303D01*
X88187329Y-81508228D01*
X88183997Y-81504420D01*
X88182061Y-81499746D01*
X88164831Y-81482516D01*
X88148788Y-81464181D01*
X88144253Y-81461938D01*
X88140677Y-81458362D01*
X88118160Y-81449035D01*
X88096325Y-81438237D01*
X88091280Y-81437900D01*
X88086605Y-81435964D01*
X88062229Y-81435964D01*
X88037929Y-81434344D01*
X88033139Y-81435964D01*
X88028077Y-81435964D01*
X88005565Y-81445288D01*
X87982486Y-81453094D01*
X87976649Y-81457266D01*
X87974005Y-81458362D01*
X87971214Y-81461152D01*
X87958565Y-81470196D01*
X87635912Y-81752516D01*
X87635912Y-81154510D01*
X87633030Y-81125246D01*
X87610632Y-81071174D01*
X87569248Y-81029790D01*
X87515176Y-81007392D01*
X87456648Y-81007392D01*
X87402576Y-81029790D01*
X87361192Y-81071174D01*
X87338794Y-81125246D01*
X87335912Y-81154510D01*
X86657682Y-81154510D01*
X86713299Y-80987658D01*
X86716598Y-80973145D01*
X86718114Y-80969488D01*
X86718636Y-80964185D01*
X86719819Y-80958984D01*
X86719537Y-80955029D01*
X86720996Y-80940224D01*
X86720996Y-80583081D01*
X86718114Y-80553817D01*
X88695937Y-80553817D01*
X88695937Y-80612345D01*
X88701282Y-80625248D01*
X88718334Y-80666416D01*
X88736989Y-80689147D01*
X88808418Y-80760576D01*
X88831149Y-80779231D01*
X88885221Y-80801628D01*
X88885222Y-80801628D01*
X88943748Y-80801628D01*
X88975021Y-80788674D01*
X88997819Y-80779231D01*
X88997820Y-80779230D01*
X89020551Y-80760575D01*
X89091979Y-80689146D01*
X89110633Y-80666416D01*
X89111225Y-80664987D01*
X89751194Y-80664987D01*
X89753710Y-80674211D01*
X89753710Y-80683774D01*
X89761345Y-80702206D01*
X89766594Y-80721451D01*
X89772448Y-80729010D01*
X89776108Y-80737846D01*
X89790215Y-80751953D01*
X89802429Y-80767725D01*
X89814692Y-80776430D01*
X89817492Y-80779230D01*
X89820239Y-80780368D01*
X89826407Y-80784746D01*
X90835993Y-81361653D01*
X89900828Y-81361653D01*
X89871564Y-81364535D01*
X89817492Y-81386933D01*
X89776108Y-81428317D01*
X89753710Y-81482389D01*
X89753710Y-81540917D01*
X89776108Y-81594989D01*
X89817492Y-81636373D01*
X89871564Y-81658771D01*
X89900828Y-81661653D01*
X91400828Y-81661653D01*
X91408354Y-81660911D01*
X91411306Y-81661287D01*
X91415127Y-81660244D01*
X91430092Y-81658771D01*
X91448524Y-81651135D01*
X91467769Y-81645887D01*
X91475328Y-81640032D01*
X91484164Y-81636373D01*
X91498271Y-81622265D01*
X91514043Y-81610052D01*
X91518787Y-81601749D01*
X91525548Y-81594989D01*
X91533182Y-81576558D01*
X91543081Y-81559236D01*
X91544286Y-81549750D01*
X91547946Y-81540917D01*
X91547946Y-81520967D01*
X91550462Y-81501176D01*
X91547946Y-81491950D01*
X91547946Y-81482389D01*
X91540312Y-81463960D01*
X91535063Y-81444712D01*
X91529206Y-81437150D01*
X91525548Y-81428317D01*
X91511442Y-81414211D01*
X91499227Y-81398438D01*
X91486963Y-81389732D01*
X91484164Y-81386933D01*
X91481416Y-81385794D01*
X91475249Y-81381417D01*
X90465662Y-80804510D01*
X91400828Y-80804510D01*
X91430092Y-80801628D01*
X91484164Y-80779230D01*
X91525548Y-80737846D01*
X91547946Y-80683774D01*
X91547946Y-80625246D01*
X91525548Y-80571174D01*
X91484164Y-80529790D01*
X91430092Y-80507392D01*
X91400828Y-80504510D01*
X89900828Y-80504510D01*
X89893302Y-80505251D01*
X89890351Y-80504876D01*
X89886530Y-80505918D01*
X89871564Y-80507392D01*
X89853131Y-80515027D01*
X89833887Y-80520276D01*
X89826327Y-80526130D01*
X89817492Y-80529790D01*
X89803384Y-80543897D01*
X89787613Y-80556111D01*
X89782868Y-80564413D01*
X89776108Y-80571174D01*
X89768473Y-80589604D01*
X89758575Y-80606927D01*
X89757369Y-80616412D01*
X89753710Y-80625246D01*
X89753710Y-80645195D01*
X89751194Y-80664987D01*
X89111225Y-80664987D01*
X89127685Y-80625248D01*
X89133030Y-80612345D01*
X89133030Y-80553817D01*
X89119909Y-80522142D01*
X89110633Y-80499745D01*
X89091978Y-80477015D01*
X89020550Y-80405587D01*
X88997819Y-80386932D01*
X88943747Y-80364535D01*
X88885221Y-80364535D01*
X88831149Y-80386932D01*
X88808419Y-80405586D01*
X88736990Y-80477014D01*
X88718335Y-80499745D01*
X88718334Y-80499746D01*
X88708174Y-80524274D01*
X88695937Y-80553817D01*
X86718114Y-80553817D01*
X86695716Y-80499745D01*
X86654332Y-80458361D01*
X86600260Y-80435963D01*
X86570996Y-80433081D01*
X85070996Y-80433081D01*
X85041732Y-80435963D01*
X84987660Y-80458361D01*
X84946276Y-80499745D01*
X84923878Y-80553817D01*
X84920996Y-80583081D01*
X84082497Y-80583081D01*
X84047860Y-80548444D01*
X84036358Y-80539004D01*
X84033762Y-80536011D01*
X84029248Y-80533170D01*
X84025129Y-80529789D01*
X84021469Y-80528273D01*
X84008876Y-80520346D01*
X83866019Y-80448917D01*
X83863878Y-80448097D01*
X83863008Y-80447453D01*
X83850730Y-80443066D01*
X83838556Y-80438408D01*
X83837475Y-80438331D01*
X83835317Y-80437560D01*
X83549603Y-80366132D01*
X83544531Y-80365382D01*
X83542487Y-80364535D01*
X83531464Y-80363449D01*
X83520514Y-80361830D01*
X83518326Y-80362155D01*
X83513223Y-80361653D01*
X83298937Y-80361653D01*
X83293833Y-80362155D01*
X83291646Y-80361830D01*
X83280695Y-80363449D01*
X83269673Y-80364535D01*
X83267628Y-80365382D01*
X83262557Y-80366132D01*
X82976843Y-80437560D01*
X82974684Y-80438331D01*
X82973604Y-80438408D01*
X82961423Y-80443068D01*
X82949152Y-80447453D01*
X82948282Y-80448097D01*
X82946140Y-80448917D01*
X82803284Y-80520346D01*
X82790692Y-80528272D01*
X82787030Y-80529789D01*
X82782907Y-80533172D01*
X82778398Y-80536011D01*
X82775802Y-80539003D01*
X82764300Y-80548444D01*
X82621443Y-80691301D01*
X82602788Y-80714032D01*
X82600725Y-80719011D01*
X82597195Y-80723082D01*
X82585206Y-80749933D01*
X82513778Y-80964219D01*
X82510479Y-80978726D01*
X82508962Y-80982389D01*
X82508439Y-80987697D01*
X82507258Y-80992892D01*
X82507538Y-80996841D01*
X82506080Y-81011653D01*
X82339413Y-81011653D01*
X82339413Y-79368796D01*
X82506080Y-79368796D01*
X82506080Y-79725939D01*
X82507538Y-79740750D01*
X82507258Y-79744700D01*
X82508439Y-79749894D01*
X82508962Y-79755203D01*
X82510479Y-79758865D01*
X82513778Y-79773373D01*
X82585206Y-79987659D01*
X82597195Y-80014510D01*
X82635542Y-80058724D01*
X82687890Y-80084898D01*
X82746270Y-80089047D01*
X82801794Y-80070539D01*
X82846008Y-80032191D01*
X82872182Y-79979844D01*
X82876331Y-79921464D01*
X82869811Y-79892790D01*
X82806080Y-79701598D01*
X82806080Y-79404206D01*
X82850787Y-79314791D01*
X82887791Y-79277787D01*
X82977204Y-79233082D01*
X83049242Y-79233082D01*
X83138653Y-79277787D01*
X83175658Y-79314792D01*
X83228838Y-79421152D01*
X83296273Y-79690890D01*
X83297043Y-79693045D01*
X83297120Y-79694129D01*
X83301787Y-79706325D01*
X83306166Y-79718581D01*
X83306810Y-79719451D01*
X83307630Y-79721592D01*
X83379059Y-79864450D01*
X83386987Y-79877045D01*
X83388503Y-79880704D01*
X83391882Y-79884821D01*
X83394724Y-79889336D01*
X83397718Y-79891932D01*
X83407158Y-79903435D01*
X83478587Y-79974863D01*
X83490087Y-79984301D01*
X83492684Y-79987295D01*
X83497196Y-79990135D01*
X83501317Y-79993517D01*
X83504976Y-79995032D01*
X83517570Y-80002960D01*
X83660426Y-80074389D01*
X83687890Y-80084898D01*
X83693264Y-80085279D01*
X83698245Y-80087343D01*
X83727509Y-80090225D01*
X83870366Y-80090225D01*
X83899630Y-80087343D01*
X83904610Y-80085279D01*
X83909985Y-80084898D01*
X83937448Y-80074389D01*
X84080305Y-80002960D01*
X84092900Y-79995031D01*
X84096557Y-79993517D01*
X84100674Y-79990137D01*
X84105191Y-79987295D01*
X84107788Y-79984300D01*
X84119288Y-79974863D01*
X84190717Y-79903435D01*
X84200156Y-79891932D01*
X84203152Y-79889335D01*
X84205993Y-79884820D01*
X84209372Y-79880704D01*
X84210887Y-79877045D01*
X84218816Y-79864449D01*
X84290245Y-79721591D01*
X84300754Y-79694128D01*
X84301135Y-79688752D01*
X84303198Y-79683774D01*
X84306080Y-79654510D01*
X84306080Y-79368796D01*
X84920996Y-79368796D01*
X84920996Y-79725939D01*
X84922454Y-79740750D01*
X84922174Y-79744700D01*
X84923355Y-79749894D01*
X84923878Y-79755203D01*
X84925395Y-79758865D01*
X84928694Y-79773373D01*
X85000122Y-79987659D01*
X85012111Y-80014510D01*
X85050458Y-80058724D01*
X85102806Y-80084898D01*
X85161186Y-80089047D01*
X85216710Y-80070539D01*
X85260924Y-80032191D01*
X85287098Y-79979844D01*
X85291247Y-79921464D01*
X85284727Y-79892790D01*
X85220996Y-79701598D01*
X85220996Y-79404206D01*
X85265703Y-79314791D01*
X85302707Y-79277787D01*
X85392120Y-79233082D01*
X85464158Y-79233082D01*
X85553569Y-79277787D01*
X85590574Y-79314792D01*
X85643754Y-79421152D01*
X85711189Y-79690890D01*
X85711959Y-79693045D01*
X85712036Y-79694129D01*
X85716703Y-79706325D01*
X85721082Y-79718581D01*
X85721726Y-79719451D01*
X85722546Y-79721592D01*
X85793975Y-79864450D01*
X85801903Y-79877045D01*
X85803419Y-79880704D01*
X85806798Y-79884821D01*
X85809640Y-79889336D01*
X85812634Y-79891932D01*
X85822074Y-79903435D01*
X85893503Y-79974863D01*
X85905003Y-79984301D01*
X85907600Y-79987295D01*
X85912112Y-79990135D01*
X85916233Y-79993517D01*
X85919892Y-79995032D01*
X85932486Y-80002960D01*
X86075342Y-80074389D01*
X86102806Y-80084898D01*
X86108180Y-80085279D01*
X86113161Y-80087343D01*
X86142425Y-80090225D01*
X86285282Y-80090225D01*
X86314546Y-80087343D01*
X86319526Y-80085279D01*
X86324901Y-80084898D01*
X86352364Y-80074389D01*
X86495221Y-80002960D01*
X86507816Y-79995031D01*
X86511473Y-79993517D01*
X86515590Y-79990137D01*
X86520107Y-79987295D01*
X86522704Y-79984300D01*
X86534204Y-79974863D01*
X86605633Y-79903435D01*
X86615072Y-79891932D01*
X86618068Y-79889335D01*
X86620909Y-79884820D01*
X86624288Y-79880704D01*
X86625803Y-79877045D01*
X86633732Y-79864449D01*
X86705161Y-79721591D01*
X86715670Y-79694128D01*
X86716051Y-79688752D01*
X86718114Y-79683774D01*
X86720996Y-79654510D01*
X86720996Y-79297368D01*
X86719537Y-79282562D01*
X86719819Y-79278608D01*
X86718636Y-79273406D01*
X86718114Y-79268104D01*
X86716598Y-79264446D01*
X86713299Y-79249934D01*
X86641871Y-79035648D01*
X86631158Y-79011653D01*
X87335912Y-79011653D01*
X87335912Y-79940225D01*
X87337435Y-79955697D01*
X87337173Y-79959637D01*
X87338091Y-79962351D01*
X87338794Y-79969489D01*
X87348117Y-79991997D01*
X87355924Y-80015079D01*
X87359255Y-80018886D01*
X87361192Y-80023561D01*
X87378421Y-80040790D01*
X87394465Y-80059126D01*
X87398999Y-80061368D01*
X87402576Y-80064945D01*
X87425092Y-80074271D01*
X87446928Y-80085070D01*
X87451972Y-80085406D01*
X87456648Y-80087343D01*
X87481015Y-80087343D01*
X87505324Y-80088964D01*
X87510117Y-80087343D01*
X87515176Y-80087343D01*
X87537684Y-80078019D01*
X87560766Y-80070213D01*
X87566602Y-80066041D01*
X87569248Y-80064945D01*
X87572037Y-80062155D01*
X87584688Y-80053112D01*
X87935469Y-79746177D01*
X87994605Y-79864450D01*
X88002533Y-79877044D01*
X88004049Y-79880704D01*
X88007430Y-79884824D01*
X88010270Y-79889335D01*
X88013261Y-79891929D01*
X88022704Y-79903435D01*
X88094133Y-79974863D01*
X88105633Y-79984301D01*
X88108230Y-79987295D01*
X88112742Y-79990135D01*
X88116863Y-79993517D01*
X88120522Y-79995032D01*
X88133116Y-80002960D01*
X88275972Y-80074389D01*
X88303436Y-80084898D01*
X88308810Y-80085279D01*
X88313791Y-80087343D01*
X88343055Y-80090225D01*
X88700198Y-80090225D01*
X88729462Y-80087343D01*
X88734442Y-80085279D01*
X88739817Y-80084898D01*
X88767280Y-80074389D01*
X88910137Y-80002960D01*
X88922732Y-79995031D01*
X88926389Y-79993517D01*
X88930506Y-79990137D01*
X88935023Y-79987295D01*
X88937620Y-79984300D01*
X88949120Y-79974863D01*
X89020549Y-79903435D01*
X89029988Y-79891932D01*
X89032984Y-79889335D01*
X89035825Y-79884820D01*
X89039204Y-79880704D01*
X89040719Y-79877045D01*
X89048648Y-79864449D01*
X89120077Y-79721591D01*
X89130586Y-79694128D01*
X89130967Y-79688752D01*
X89133030Y-79683774D01*
X89135912Y-79654510D01*
X89135912Y-79583082D01*
X89750828Y-79583082D01*
X89750828Y-79797368D01*
X89753710Y-79826632D01*
X89755773Y-79831612D01*
X89756155Y-79836987D01*
X89766664Y-79864450D01*
X89838093Y-80007307D01*
X89853758Y-80032193D01*
X89897973Y-80070539D01*
X89953496Y-80089047D01*
X90011876Y-80084898D01*
X90064225Y-80058724D01*
X90102572Y-80014508D01*
X90121079Y-79958986D01*
X90116930Y-79900606D01*
X90106421Y-79873142D01*
X90050828Y-79761957D01*
X90050828Y-79607422D01*
X90103361Y-79449823D01*
X90203968Y-79349216D01*
X90310327Y-79296037D01*
X90562149Y-79233082D01*
X90739507Y-79233082D01*
X90991328Y-79296036D01*
X91097688Y-79349217D01*
X91198294Y-79449822D01*
X91250828Y-79607424D01*
X91250828Y-79701596D01*
X91198294Y-79859198D01*
X91195840Y-79861653D01*
X90907971Y-79861653D01*
X90907971Y-79725939D01*
X90905089Y-79696675D01*
X90882691Y-79642603D01*
X90841307Y-79601219D01*
X90787235Y-79578821D01*
X90728707Y-79578821D01*
X90674635Y-79601219D01*
X90633251Y-79642603D01*
X90610853Y-79696675D01*
X90607971Y-79725939D01*
X90607971Y-80011653D01*
X90610853Y-80040915D01*
X90610853Y-80040917D01*
X90633251Y-80094989D01*
X90674635Y-80136373D01*
X90728707Y-80158771D01*
X90757971Y-80161653D01*
X91257971Y-80161653D01*
X91287235Y-80158771D01*
X91341307Y-80136373D01*
X91341310Y-80136369D01*
X91364036Y-80117720D01*
X91435465Y-80046292D01*
X91454120Y-80023561D01*
X91456181Y-80018584D01*
X91459715Y-80014510D01*
X91471703Y-79987659D01*
X91543131Y-79773373D01*
X91546430Y-79758860D01*
X91547946Y-79755203D01*
X91548468Y-79749900D01*
X91549651Y-79744699D01*
X91549369Y-79740744D01*
X91550828Y-79725939D01*
X91550828Y-79583082D01*
X91549369Y-79568276D01*
X91549651Y-79564322D01*
X91548468Y-79559120D01*
X91547946Y-79553818D01*
X91546430Y-79550160D01*
X91543131Y-79535648D01*
X91471703Y-79321362D01*
X91459715Y-79294511D01*
X91456183Y-79290439D01*
X91454121Y-79285460D01*
X91435466Y-79262730D01*
X91292608Y-79119873D01*
X91281106Y-79110433D01*
X91278510Y-79107440D01*
X91273996Y-79104599D01*
X91269877Y-79101218D01*
X91266217Y-79099702D01*
X91253624Y-79091775D01*
X91110767Y-79020346D01*
X91108626Y-79019526D01*
X91107756Y-79018882D01*
X91095478Y-79014495D01*
X91083304Y-79009837D01*
X91082223Y-79009760D01*
X91080065Y-79008989D01*
X90794351Y-78937561D01*
X90789279Y-78936811D01*
X90787235Y-78935964D01*
X90776212Y-78934878D01*
X90765262Y-78933259D01*
X90763074Y-78933584D01*
X90757971Y-78933082D01*
X90543685Y-78933082D01*
X90538581Y-78933584D01*
X90536394Y-78933259D01*
X90525443Y-78934878D01*
X90514421Y-78935964D01*
X90512376Y-78936811D01*
X90507305Y-78937561D01*
X90221591Y-79008989D01*
X90219432Y-79009760D01*
X90218352Y-79009837D01*
X90206171Y-79014497D01*
X90193900Y-79018882D01*
X90193030Y-79019526D01*
X90190888Y-79020346D01*
X90048032Y-79091775D01*
X90035440Y-79099701D01*
X90031778Y-79101218D01*
X90027655Y-79104601D01*
X90023146Y-79107440D01*
X90020550Y-79110432D01*
X90009048Y-79119873D01*
X89866191Y-79262730D01*
X89847536Y-79285461D01*
X89845473Y-79290440D01*
X89841943Y-79294511D01*
X89829954Y-79321362D01*
X89758526Y-79535648D01*
X89755227Y-79550155D01*
X89753710Y-79553818D01*
X89753187Y-79559126D01*
X89752006Y-79564321D01*
X89752286Y-79568270D01*
X89750828Y-79583082D01*
X89135912Y-79583082D01*
X89135912Y-79225939D01*
X89133030Y-79196675D01*
X89130967Y-79191696D01*
X89130586Y-79186321D01*
X89120076Y-79158858D01*
X89048648Y-79016000D01*
X89040721Y-79003408D01*
X89039205Y-78999747D01*
X89035821Y-78995624D01*
X89032983Y-78991115D01*
X89029991Y-78988520D01*
X89020550Y-78977016D01*
X88949121Y-78905587D01*
X88926390Y-78886932D01*
X88872318Y-78864535D01*
X88813792Y-78864535D01*
X88759720Y-78886932D01*
X88718334Y-78928318D01*
X88695937Y-78982390D01*
X88695937Y-79040916D01*
X88718334Y-79094988D01*
X88736989Y-79117719D01*
X88791205Y-79171935D01*
X88835912Y-79261348D01*
X88835912Y-79619100D01*
X88791206Y-79708512D01*
X88754202Y-79745517D01*
X88664788Y-79790225D01*
X88378465Y-79790225D01*
X88289051Y-79745517D01*
X88252047Y-79708514D01*
X88207341Y-79619101D01*
X88207341Y-79440225D01*
X88205816Y-79424747D01*
X88206079Y-79420813D01*
X88205162Y-79418102D01*
X88204459Y-79410961D01*
X88195132Y-79388446D01*
X88187329Y-79365371D01*
X88183997Y-79361563D01*
X88182061Y-79356889D01*
X88164831Y-79339659D01*
X88148788Y-79321324D01*
X88144253Y-79319081D01*
X88140677Y-79315505D01*
X88118160Y-79306178D01*
X88096325Y-79295380D01*
X88091280Y-79295043D01*
X88086605Y-79293107D01*
X88062229Y-79293107D01*
X88037929Y-79291487D01*
X88033139Y-79293107D01*
X88028077Y-79293107D01*
X88005565Y-79302431D01*
X87982486Y-79310237D01*
X87976649Y-79314409D01*
X87974005Y-79315505D01*
X87971214Y-79318295D01*
X87958565Y-79327339D01*
X87635912Y-79609659D01*
X87635912Y-79011653D01*
X87633030Y-78982389D01*
X87610632Y-78928317D01*
X87569248Y-78886933D01*
X87515176Y-78864535D01*
X87456648Y-78864535D01*
X87402576Y-78886933D01*
X87361192Y-78928317D01*
X87338794Y-78982389D01*
X87335912Y-79011653D01*
X86631158Y-79011653D01*
X86629883Y-79008797D01*
X86591535Y-78964583D01*
X86539188Y-78938409D01*
X86480808Y-78934259D01*
X86425283Y-78952767D01*
X86381069Y-78991115D01*
X86354895Y-79043462D01*
X86350745Y-79101842D01*
X86357265Y-79130516D01*
X86420996Y-79321710D01*
X86420996Y-79619100D01*
X86376290Y-79708512D01*
X86339286Y-79745517D01*
X86249872Y-79790225D01*
X86177835Y-79790225D01*
X86088421Y-79745517D01*
X86051416Y-79708513D01*
X85998237Y-79602154D01*
X85930803Y-79332416D01*
X85930031Y-79330257D01*
X85929955Y-79329177D01*
X85925294Y-79316996D01*
X85920910Y-79304725D01*
X85920265Y-79303855D01*
X85919446Y-79301713D01*
X85848017Y-79158857D01*
X85840089Y-79146263D01*
X85838574Y-79142604D01*
X85835192Y-79138483D01*
X85832352Y-79133971D01*
X85829358Y-79131374D01*
X85819920Y-79119874D01*
X85748492Y-79048445D01*
X85736989Y-79039005D01*
X85734393Y-79036011D01*
X85729878Y-79033169D01*
X85725761Y-79029790D01*
X85722102Y-79028274D01*
X85709507Y-79020346D01*
X85566650Y-78948918D01*
X85539186Y-78938408D01*
X85533810Y-78938026D01*
X85528832Y-78935964D01*
X85499568Y-78933082D01*
X85356710Y-78933082D01*
X85327446Y-78935964D01*
X85322467Y-78938026D01*
X85317092Y-78938408D01*
X85289629Y-78948918D01*
X85146771Y-79020346D01*
X85134176Y-79028274D01*
X85130517Y-79029790D01*
X85126396Y-79033171D01*
X85121886Y-79036011D01*
X85119291Y-79039002D01*
X85107786Y-79048445D01*
X85036358Y-79119874D01*
X85026920Y-79131373D01*
X85023926Y-79133971D01*
X85021083Y-79138487D01*
X85017704Y-79142605D01*
X85016189Y-79146261D01*
X85008261Y-79158857D01*
X84936832Y-79301714D01*
X84926323Y-79329177D01*
X84925941Y-79334551D01*
X84923878Y-79339532D01*
X84920996Y-79368796D01*
X84306080Y-79368796D01*
X84306080Y-79297368D01*
X84304621Y-79282562D01*
X84304903Y-79278608D01*
X84303720Y-79273406D01*
X84303198Y-79268104D01*
X84301682Y-79264446D01*
X84298383Y-79249934D01*
X84226955Y-79035648D01*
X84214967Y-79008797D01*
X84176619Y-78964583D01*
X84124272Y-78938409D01*
X84065892Y-78934259D01*
X84010367Y-78952767D01*
X83966153Y-78991115D01*
X83939979Y-79043462D01*
X83935829Y-79101842D01*
X83942349Y-79130516D01*
X84006080Y-79321710D01*
X84006080Y-79619100D01*
X83961374Y-79708512D01*
X83924370Y-79745517D01*
X83834956Y-79790225D01*
X83762919Y-79790225D01*
X83673505Y-79745517D01*
X83636500Y-79708513D01*
X83583321Y-79602154D01*
X83515887Y-79332416D01*
X83515115Y-79330257D01*
X83515039Y-79329177D01*
X83510378Y-79316996D01*
X83505994Y-79304725D01*
X83505349Y-79303855D01*
X83504530Y-79301713D01*
X83433101Y-79158857D01*
X83425173Y-79146263D01*
X83423658Y-79142604D01*
X83420276Y-79138483D01*
X83417436Y-79133971D01*
X83414442Y-79131374D01*
X83405004Y-79119874D01*
X83333576Y-79048445D01*
X83322073Y-79039005D01*
X83319477Y-79036011D01*
X83314962Y-79033169D01*
X83310845Y-79029790D01*
X83307186Y-79028274D01*
X83294591Y-79020346D01*
X83151734Y-78948918D01*
X83124270Y-78938408D01*
X83118894Y-78938026D01*
X83113916Y-78935964D01*
X83084652Y-78933082D01*
X82941794Y-78933082D01*
X82912530Y-78935964D01*
X82907551Y-78938026D01*
X82902176Y-78938408D01*
X82874713Y-78948918D01*
X82731855Y-79020346D01*
X82719260Y-79028274D01*
X82715601Y-79029790D01*
X82711480Y-79033171D01*
X82706970Y-79036011D01*
X82704375Y-79039002D01*
X82692870Y-79048445D01*
X82621442Y-79119874D01*
X82612004Y-79131373D01*
X82609010Y-79133971D01*
X82606167Y-79138487D01*
X82602788Y-79142605D01*
X82601273Y-79146261D01*
X82593345Y-79158857D01*
X82521916Y-79301714D01*
X82511407Y-79329177D01*
X82511025Y-79334551D01*
X82508962Y-79339532D01*
X82506080Y-79368796D01*
X82339413Y-79368796D01*
X82339413Y-78697868D01*
X91717495Y-78697868D01*
X91717495Y-83827142D01*
G37*
D11*
G36*
X68267219Y-79083758D02*
G01*
X68267219Y-79227020D01*
X68237414Y-79286629D01*
X68212746Y-79311296D01*
X68153135Y-79341103D01*
X67914635Y-79341103D01*
X67855025Y-79311298D01*
X67830357Y-79286629D01*
X67800552Y-79227019D01*
X67800552Y-79083758D01*
X67809975Y-79064913D01*
X68257796Y-79064913D01*
X68267219Y-79083758D01*
G37*
G36*
X67857607Y-76288778D02*
G01*
X67822707Y-76271328D01*
X67800552Y-76227018D01*
X67800552Y-76083757D01*
X67822707Y-76039447D01*
X67867016Y-76017293D01*
X67911905Y-76017293D01*
X67857607Y-76288778D01*
G37*
G36*
X68245064Y-72420399D02*
G01*
X68267219Y-72464709D01*
X68267219Y-72655590D01*
X68257797Y-72674435D01*
X68086266Y-72674435D01*
X68086266Y-72464709D01*
X68108421Y-72420399D01*
X68152730Y-72398245D01*
X68200754Y-72398245D01*
X68245064Y-72420399D01*
G37*
G36*
X68245064Y-70944208D02*
G01*
X68267219Y-70988518D01*
X68267219Y-71179399D01*
X68257797Y-71198244D01*
X68086266Y-71198244D01*
X68086266Y-70988518D01*
X68108421Y-70944208D01*
X68152730Y-70922054D01*
X68200754Y-70922054D01*
X68245064Y-70944208D01*
G37*
G36*
X68267219Y-70091541D02*
G01*
X68232197Y-70196606D01*
X68165127Y-70263676D01*
X68094218Y-70299130D01*
X67926337Y-70341101D01*
X67808099Y-70341101D01*
X67640218Y-70299130D01*
X67569313Y-70263678D01*
X67502240Y-70196605D01*
X67467219Y-70091541D01*
X67467219Y-69969673D01*
X68267219Y-69969673D01*
X68267219Y-70091541D01*
G37*
G36*
X68909742Y-80316960D02*
G01*
X67156108Y-80316960D01*
X67156108Y-79850166D01*
X67269140Y-79850166D01*
X67269140Y-79889184D01*
X67284072Y-79925232D01*
X67311662Y-79952822D01*
X67347710Y-79967754D01*
X67367219Y-79969675D01*
X67600552Y-79969675D01*
X67600552Y-80107770D01*
X67602473Y-80127279D01*
X67617405Y-80163327D01*
X67644995Y-80190917D01*
X67681043Y-80205849D01*
X67720061Y-80205849D01*
X67756109Y-80190917D01*
X67783699Y-80163327D01*
X67798631Y-80127279D01*
X67800552Y-80107770D01*
X67800552Y-79969675D01*
X68200754Y-79969675D01*
X68245064Y-79991829D01*
X68267219Y-80036139D01*
X68267219Y-80107770D01*
X68269140Y-80127279D01*
X68284072Y-80163327D01*
X68311662Y-80190917D01*
X68347710Y-80205849D01*
X68386728Y-80205849D01*
X68422776Y-80190917D01*
X68450366Y-80163327D01*
X68465298Y-80127279D01*
X68467219Y-80107770D01*
X68467219Y-80012532D01*
X68465298Y-79993023D01*
X68463922Y-79989702D01*
X68463668Y-79986119D01*
X68456662Y-79967810D01*
X68409043Y-79872573D01*
X68406989Y-79869310D01*
X68406476Y-79867770D01*
X68404812Y-79865852D01*
X68398600Y-79855982D01*
X68389125Y-79847765D01*
X68380911Y-79838294D01*
X68371039Y-79832080D01*
X68369123Y-79830418D01*
X68367584Y-79829904D01*
X68364321Y-79827851D01*
X68269082Y-79780232D01*
X68250773Y-79773226D01*
X68247190Y-79772971D01*
X68243870Y-79771596D01*
X68224361Y-79769675D01*
X67800552Y-79769675D01*
X67800552Y-79726818D01*
X67798631Y-79707309D01*
X67783699Y-79671261D01*
X67756109Y-79643671D01*
X67720061Y-79628739D01*
X67681043Y-79628739D01*
X67644995Y-79643671D01*
X67617405Y-79671261D01*
X67602473Y-79707309D01*
X67600552Y-79726818D01*
X67600552Y-79769675D01*
X67367219Y-79769675D01*
X67347710Y-79771596D01*
X67311662Y-79786528D01*
X67284072Y-79814118D01*
X67269140Y-79850166D01*
X67156108Y-79850166D01*
X67156108Y-79060151D01*
X67600552Y-79060151D01*
X67600552Y-79250627D01*
X67602473Y-79270136D01*
X67603848Y-79273456D01*
X67604103Y-79277040D01*
X67611109Y-79295348D01*
X67658728Y-79390586D01*
X67664013Y-79398982D01*
X67665024Y-79401422D01*
X67667277Y-79404168D01*
X67669171Y-79407176D01*
X67671165Y-79408905D01*
X67677460Y-79416576D01*
X67725079Y-79464194D01*
X67732745Y-79470486D01*
X67734478Y-79472484D01*
X67737486Y-79474377D01*
X67740232Y-79476631D01*
X67742672Y-79477641D01*
X67751069Y-79482927D01*
X67846306Y-79530546D01*
X67864615Y-79537552D01*
X67868198Y-79537806D01*
X67871519Y-79539182D01*
X67891028Y-79541103D01*
X68176742Y-79541103D01*
X68196251Y-79539182D01*
X68199571Y-79537806D01*
X68203155Y-79537552D01*
X68221463Y-79530546D01*
X68316701Y-79482927D01*
X68325093Y-79477643D01*
X68327537Y-79476632D01*
X68330286Y-79474375D01*
X68333291Y-79472484D01*
X68335020Y-79470489D01*
X68342690Y-79464195D01*
X68390310Y-79416577D01*
X68396603Y-79408908D01*
X68398600Y-79407177D01*
X68400493Y-79404168D01*
X68402747Y-79401423D01*
X68403757Y-79398982D01*
X68409043Y-79390586D01*
X68456662Y-79295349D01*
X68463668Y-79277040D01*
X68463922Y-79273456D01*
X68465298Y-79270136D01*
X68467219Y-79250627D01*
X68467219Y-79064913D01*
X68700552Y-79064913D01*
X68720061Y-79062992D01*
X68756109Y-79048060D01*
X68783699Y-79020470D01*
X68798631Y-78984422D01*
X68798631Y-78945404D01*
X68783699Y-78909356D01*
X68756109Y-78881766D01*
X68720061Y-78866834D01*
X68700552Y-78864913D01*
X67700552Y-78864913D01*
X67681043Y-78866834D01*
X67644995Y-78881766D01*
X67617405Y-78909356D01*
X67602473Y-78945404D01*
X67602473Y-78984422D01*
X67613410Y-79010826D01*
X67611109Y-79015430D01*
X67604103Y-79033738D01*
X67603848Y-79037321D01*
X67602473Y-79040642D01*
X67600552Y-79060151D01*
X67156108Y-79060151D01*
X67156108Y-78040642D01*
X67602473Y-78040642D01*
X67602473Y-78079660D01*
X67617405Y-78115708D01*
X67644995Y-78143298D01*
X67681043Y-78158230D01*
X67700552Y-78160151D01*
X68200754Y-78160151D01*
X68245064Y-78182305D01*
X68267219Y-78226615D01*
X68267219Y-78322258D01*
X68237414Y-78381867D01*
X68230560Y-78388722D01*
X67700552Y-78388722D01*
X67681043Y-78390643D01*
X67644995Y-78405575D01*
X67617405Y-78433165D01*
X67602473Y-78469213D01*
X67602473Y-78508231D01*
X67617405Y-78544279D01*
X67644995Y-78571869D01*
X67681043Y-78586801D01*
X67700552Y-78588722D01*
X68367219Y-78588722D01*
X68386728Y-78586801D01*
X68422776Y-78571869D01*
X68450366Y-78544279D01*
X68465298Y-78508231D01*
X68465298Y-78469213D01*
X68450366Y-78433165D01*
X68440370Y-78423169D01*
X68456662Y-78390587D01*
X68463668Y-78372278D01*
X68463922Y-78368694D01*
X68465298Y-78365374D01*
X68467219Y-78345865D01*
X68467219Y-78203008D01*
X68465298Y-78183499D01*
X68463922Y-78180178D01*
X68463668Y-78176595D01*
X68456662Y-78158286D01*
X68409043Y-78063049D01*
X68406989Y-78059786D01*
X68406476Y-78058246D01*
X68404812Y-78056328D01*
X68398600Y-78046458D01*
X68389125Y-78038241D01*
X68380911Y-78028770D01*
X68371039Y-78022556D01*
X68369123Y-78020894D01*
X68367584Y-78020380D01*
X68364321Y-78018327D01*
X68269082Y-77970708D01*
X68250773Y-77963702D01*
X68247190Y-77963447D01*
X68243870Y-77962072D01*
X68224361Y-77960151D01*
X67700552Y-77960151D01*
X67681043Y-77962072D01*
X67644995Y-77977004D01*
X67617405Y-78004594D01*
X67602473Y-78040642D01*
X67156108Y-78040642D01*
X67156108Y-77631579D01*
X67600552Y-77631579D01*
X67600552Y-77726817D01*
X67602473Y-77746326D01*
X67617405Y-77782374D01*
X67644995Y-77809964D01*
X67681043Y-77824896D01*
X67720061Y-77824896D01*
X67756109Y-77809964D01*
X67783699Y-77782374D01*
X67798631Y-77746326D01*
X67800552Y-77726817D01*
X67800552Y-77655186D01*
X67830357Y-77595576D01*
X67855025Y-77570907D01*
X67914635Y-77541103D01*
X68367219Y-77541103D01*
X68386728Y-77539182D01*
X68422776Y-77524250D01*
X68450366Y-77496660D01*
X68465298Y-77460612D01*
X68465298Y-77421594D01*
X68450366Y-77385546D01*
X68422776Y-77357956D01*
X68386728Y-77343024D01*
X68367219Y-77341103D01*
X67700552Y-77341103D01*
X67681043Y-77343024D01*
X67644995Y-77357956D01*
X67617405Y-77385546D01*
X67602473Y-77421594D01*
X67602473Y-77460612D01*
X67617405Y-77496660D01*
X67643273Y-77522528D01*
X67611109Y-77586858D01*
X67604103Y-77605166D01*
X67603848Y-77608749D01*
X67602473Y-77612070D01*
X67600552Y-77631579D01*
X67156108Y-77631579D01*
X67156108Y-77012531D01*
X67600552Y-77012531D01*
X67600552Y-77107769D01*
X67602473Y-77127278D01*
X67617405Y-77163326D01*
X67644995Y-77190916D01*
X67681043Y-77205848D01*
X67720061Y-77205848D01*
X67756109Y-77190916D01*
X67783699Y-77163326D01*
X67798631Y-77127278D01*
X67800552Y-77107769D01*
X67800552Y-77036138D01*
X67830357Y-76976528D01*
X67855025Y-76951859D01*
X67914635Y-76922055D01*
X68367219Y-76922055D01*
X68386728Y-76920134D01*
X68422776Y-76905202D01*
X68450366Y-76877612D01*
X68465298Y-76841564D01*
X68465298Y-76802546D01*
X68450366Y-76766498D01*
X68422776Y-76738908D01*
X68386728Y-76723976D01*
X68367219Y-76722055D01*
X67700552Y-76722055D01*
X67681043Y-76723976D01*
X67644995Y-76738908D01*
X67617405Y-76766498D01*
X67602473Y-76802546D01*
X67602473Y-76841564D01*
X67617405Y-76877612D01*
X67643273Y-76903480D01*
X67611109Y-76967810D01*
X67604103Y-76986118D01*
X67603848Y-76989701D01*
X67602473Y-76993022D01*
X67600552Y-77012531D01*
X67156108Y-77012531D01*
X67156108Y-76060150D01*
X67600552Y-76060150D01*
X67600552Y-76250626D01*
X67602473Y-76270135D01*
X67603848Y-76273455D01*
X67604103Y-76277039D01*
X67611109Y-76295347D01*
X67658728Y-76390585D01*
X67660781Y-76393848D01*
X67661295Y-76395387D01*
X67662957Y-76397303D01*
X67669171Y-76407175D01*
X67678641Y-76415388D01*
X67686859Y-76424864D01*
X67696732Y-76431078D01*
X67698648Y-76432740D01*
X67700186Y-76433252D01*
X67703450Y-76435307D01*
X67798687Y-76482926D01*
X67816996Y-76489932D01*
X67820579Y-76490186D01*
X67823900Y-76491562D01*
X67843409Y-76493483D01*
X67938542Y-76493483D01*
X67938647Y-76493483D01*
X67958156Y-76491562D01*
X67967208Y-76487812D01*
X67976819Y-76485911D01*
X67985057Y-76480418D01*
X67994204Y-76476630D01*
X68001130Y-76469703D01*
X68009284Y-76464268D01*
X68014794Y-76456039D01*
X68021794Y-76449040D01*
X68025543Y-76439988D01*
X68030995Y-76431848D01*
X68036705Y-76413095D01*
X68115865Y-76017293D01*
X68200754Y-76017293D01*
X68245064Y-76039447D01*
X68267219Y-76083757D01*
X68267219Y-76227019D01*
X68230157Y-76301143D01*
X68223151Y-76319451D01*
X68220385Y-76358371D01*
X68232724Y-76395387D01*
X68258288Y-76424864D01*
X68293187Y-76442313D01*
X68332107Y-76445079D01*
X68369123Y-76432740D01*
X68398600Y-76407176D01*
X68409043Y-76390585D01*
X68456662Y-76295348D01*
X68463668Y-76277039D01*
X68463922Y-76273455D01*
X68465298Y-76270135D01*
X68467219Y-76250626D01*
X68467219Y-76060150D01*
X68465298Y-76040641D01*
X68463922Y-76037320D01*
X68463668Y-76033737D01*
X68456662Y-76015428D01*
X68409043Y-75920191D01*
X68406989Y-75916928D01*
X68406476Y-75915388D01*
X68404812Y-75913470D01*
X68398600Y-75903600D01*
X68389125Y-75895383D01*
X68380911Y-75885912D01*
X68371039Y-75879698D01*
X68369123Y-75878036D01*
X68367584Y-75877522D01*
X68364321Y-75875469D01*
X68269082Y-75827850D01*
X68250773Y-75820844D01*
X68247190Y-75820589D01*
X68243870Y-75819214D01*
X68224361Y-75817293D01*
X67843409Y-75817293D01*
X67823900Y-75819214D01*
X67820579Y-75820589D01*
X67816996Y-75820844D01*
X67798687Y-75827850D01*
X67703450Y-75875469D01*
X67700186Y-75877523D01*
X67698648Y-75878036D01*
X67696732Y-75879697D01*
X67686859Y-75885912D01*
X67678641Y-75895387D01*
X67669171Y-75903601D01*
X67662957Y-75913472D01*
X67661295Y-75915389D01*
X67660781Y-75916927D01*
X67658728Y-75920191D01*
X67611109Y-76015429D01*
X67604103Y-76033737D01*
X67603848Y-76037320D01*
X67602473Y-76040641D01*
X67600552Y-76060150D01*
X67156108Y-76060150D01*
X67156108Y-75373974D01*
X67269140Y-75373974D01*
X67269140Y-75412992D01*
X67284072Y-75449040D01*
X67311662Y-75476630D01*
X67347710Y-75491562D01*
X67367219Y-75493483D01*
X67600552Y-75493483D01*
X67600552Y-75631578D01*
X67602473Y-75651087D01*
X67617405Y-75687135D01*
X67644995Y-75714725D01*
X67681043Y-75729657D01*
X67720061Y-75729657D01*
X67756109Y-75714725D01*
X67783699Y-75687135D01*
X67798631Y-75651087D01*
X67800552Y-75631578D01*
X67800552Y-75493483D01*
X68200754Y-75493483D01*
X68245064Y-75515637D01*
X68267219Y-75559947D01*
X68267219Y-75631578D01*
X68269140Y-75651087D01*
X68284072Y-75687135D01*
X68311662Y-75714725D01*
X68347710Y-75729657D01*
X68386728Y-75729657D01*
X68422776Y-75714725D01*
X68450366Y-75687135D01*
X68465298Y-75651087D01*
X68467219Y-75631578D01*
X68467219Y-75536340D01*
X68465298Y-75516831D01*
X68463922Y-75513510D01*
X68463668Y-75509927D01*
X68456662Y-75491618D01*
X68409043Y-75396381D01*
X68406989Y-75393118D01*
X68406476Y-75391578D01*
X68404812Y-75389660D01*
X68398600Y-75379790D01*
X68389125Y-75371573D01*
X68380911Y-75362102D01*
X68371039Y-75355888D01*
X68369123Y-75354226D01*
X68367584Y-75353712D01*
X68364321Y-75351659D01*
X68269082Y-75304040D01*
X68250773Y-75297034D01*
X68247190Y-75296779D01*
X68243870Y-75295404D01*
X68224361Y-75293483D01*
X67800552Y-75293483D01*
X67800552Y-75250626D01*
X67798631Y-75231117D01*
X67783699Y-75195069D01*
X67756109Y-75167479D01*
X67720061Y-75152547D01*
X67681043Y-75152547D01*
X67644995Y-75167479D01*
X67617405Y-75195069D01*
X67602473Y-75231117D01*
X67600552Y-75250626D01*
X67600552Y-75293483D01*
X67367219Y-75293483D01*
X67347710Y-75295404D01*
X67311662Y-75310336D01*
X67284072Y-75337926D01*
X67269140Y-75373974D01*
X67156108Y-75373974D01*
X67156108Y-74631578D01*
X67600552Y-74631578D01*
X67600552Y-74774435D01*
X67602473Y-74793944D01*
X67603848Y-74797264D01*
X67604103Y-74800848D01*
X67611109Y-74819156D01*
X67658728Y-74914394D01*
X67660781Y-74917657D01*
X67661295Y-74919196D01*
X67662957Y-74921112D01*
X67669171Y-74930984D01*
X67678641Y-74939197D01*
X67686859Y-74948673D01*
X67696732Y-74954887D01*
X67698648Y-74956549D01*
X67700186Y-74957061D01*
X67703450Y-74959116D01*
X67798687Y-75006735D01*
X67816996Y-75013741D01*
X67820579Y-75013995D01*
X67823900Y-75015371D01*
X67843409Y-75017292D01*
X68367219Y-75017292D01*
X68386728Y-75015371D01*
X68422776Y-75000439D01*
X68450366Y-74972849D01*
X68465298Y-74936801D01*
X68465298Y-74897783D01*
X68450366Y-74861735D01*
X68422776Y-74834145D01*
X68386728Y-74819213D01*
X68367219Y-74817292D01*
X67867016Y-74817292D01*
X67822707Y-74795137D01*
X67800552Y-74750827D01*
X67800552Y-74655185D01*
X67830357Y-74595575D01*
X67837212Y-74588721D01*
X68367219Y-74588721D01*
X68386728Y-74586800D01*
X68422776Y-74571868D01*
X68450366Y-74544278D01*
X68465298Y-74508230D01*
X68465298Y-74469212D01*
X68450366Y-74433164D01*
X68422776Y-74405574D01*
X68386728Y-74390642D01*
X68367219Y-74388721D01*
X67700552Y-74388721D01*
X67681043Y-74390642D01*
X67644995Y-74405574D01*
X67617405Y-74433164D01*
X67602473Y-74469212D01*
X67602473Y-74508230D01*
X67617405Y-74544278D01*
X67627400Y-74554273D01*
X67611109Y-74586857D01*
X67604103Y-74605165D01*
X67603848Y-74608748D01*
X67602473Y-74612069D01*
X67600552Y-74631578D01*
X67156108Y-74631578D01*
X67156108Y-73993022D01*
X67269140Y-73993022D01*
X67269140Y-74032040D01*
X67284072Y-74068088D01*
X67296508Y-74083242D01*
X67344127Y-74130860D01*
X67359280Y-74143297D01*
X67369838Y-74147670D01*
X67395329Y-74158229D01*
X67434347Y-74158229D01*
X67470395Y-74143297D01*
X67485549Y-74130861D01*
X67533167Y-74083242D01*
X67545604Y-74068089D01*
X67556973Y-74040641D01*
X67560536Y-74032040D01*
X67560536Y-73993022D01*
X67602473Y-73993022D01*
X67602473Y-74032040D01*
X67617405Y-74068088D01*
X67644995Y-74095678D01*
X67681043Y-74110610D01*
X67700552Y-74112531D01*
X68367219Y-74112531D01*
X68386728Y-74110610D01*
X68422776Y-74095678D01*
X68450366Y-74068088D01*
X68465298Y-74032040D01*
X68465298Y-73993022D01*
X68450366Y-73956974D01*
X68422776Y-73929384D01*
X68386728Y-73914452D01*
X68367219Y-73912531D01*
X67700552Y-73912531D01*
X67681043Y-73914452D01*
X67644995Y-73929384D01*
X67617405Y-73956974D01*
X67602473Y-73993022D01*
X67560536Y-73993022D01*
X67545604Y-73956974D01*
X67545604Y-73956973D01*
X67533167Y-73941820D01*
X67485549Y-73894201D01*
X67470395Y-73881765D01*
X67434347Y-73866833D01*
X67395329Y-73866833D01*
X67369838Y-73877391D01*
X67359280Y-73881765D01*
X67344127Y-73894202D01*
X67296508Y-73941820D01*
X67284073Y-73956973D01*
X67284072Y-73956974D01*
X67269140Y-73993022D01*
X67156108Y-73993022D01*
X67156108Y-72441102D01*
X67600552Y-72441102D01*
X67600552Y-72631578D01*
X67602473Y-72651087D01*
X67603848Y-72654407D01*
X67604103Y-72657991D01*
X67611109Y-72676299D01*
X67658728Y-72771537D01*
X67660781Y-72774800D01*
X67661295Y-72776339D01*
X67662957Y-72778255D01*
X67669171Y-72788127D01*
X67678641Y-72796340D01*
X67686859Y-72805816D01*
X67696732Y-72812030D01*
X67698648Y-72813692D01*
X67700186Y-72814204D01*
X67703450Y-72816259D01*
X67798687Y-72863878D01*
X67816996Y-72870884D01*
X67820579Y-72871138D01*
X67823900Y-72872514D01*
X67843409Y-72874435D01*
X68367219Y-72874435D01*
X68386728Y-72872514D01*
X68422776Y-72857582D01*
X68450366Y-72829992D01*
X68465298Y-72793944D01*
X68465298Y-72754926D01*
X68454360Y-72728521D01*
X68456662Y-72723919D01*
X68463668Y-72705610D01*
X68463922Y-72702026D01*
X68465298Y-72698706D01*
X68467219Y-72679197D01*
X68467219Y-72441102D01*
X68465298Y-72421593D01*
X68463922Y-72418272D01*
X68463668Y-72414689D01*
X68456662Y-72396380D01*
X68409043Y-72301143D01*
X68406989Y-72297880D01*
X68406476Y-72296340D01*
X68404812Y-72294422D01*
X68398600Y-72284552D01*
X68389125Y-72276335D01*
X68380911Y-72266864D01*
X68371039Y-72260650D01*
X68369123Y-72258988D01*
X68367584Y-72258474D01*
X68364321Y-72256421D01*
X68269082Y-72208802D01*
X68250773Y-72201796D01*
X68247190Y-72201541D01*
X68243870Y-72200166D01*
X68224361Y-72198245D01*
X68129123Y-72198245D01*
X68109614Y-72200166D01*
X68106293Y-72201541D01*
X68102710Y-72201796D01*
X68084401Y-72208802D01*
X67989164Y-72256421D01*
X67985900Y-72258475D01*
X67984362Y-72258988D01*
X67982446Y-72260649D01*
X67972573Y-72266864D01*
X67964355Y-72276339D01*
X67954885Y-72284553D01*
X67948671Y-72294424D01*
X67947009Y-72296341D01*
X67946495Y-72297879D01*
X67944442Y-72301143D01*
X67896823Y-72396381D01*
X67889817Y-72414689D01*
X67889562Y-72418272D01*
X67888187Y-72421593D01*
X67886266Y-72441102D01*
X67886266Y-72655590D01*
X67876844Y-72674435D01*
X67867016Y-72674435D01*
X67822707Y-72652280D01*
X67800552Y-72607970D01*
X67800552Y-72464709D01*
X67837614Y-72390586D01*
X67844620Y-72372277D01*
X67847386Y-72333357D01*
X67835047Y-72296341D01*
X67809482Y-72266864D01*
X67774584Y-72249415D01*
X67735664Y-72246650D01*
X67698648Y-72258988D01*
X67669171Y-72284553D01*
X67658728Y-72301143D01*
X67611109Y-72396381D01*
X67604103Y-72414689D01*
X67603848Y-72418272D01*
X67602473Y-72421593D01*
X67600552Y-72441102D01*
X67156108Y-72441102D01*
X67156108Y-71754926D01*
X67269140Y-71754926D01*
X67269140Y-71793944D01*
X67284072Y-71829992D01*
X67311662Y-71857582D01*
X67347710Y-71872514D01*
X67367219Y-71874435D01*
X67600552Y-71874435D01*
X67600552Y-72012530D01*
X67602473Y-72032039D01*
X67617405Y-72068087D01*
X67644995Y-72095677D01*
X67681043Y-72110609D01*
X67720061Y-72110609D01*
X67756109Y-72095677D01*
X67783699Y-72068087D01*
X67798631Y-72032039D01*
X67800552Y-72012530D01*
X67800552Y-71874435D01*
X68200754Y-71874435D01*
X68245064Y-71896589D01*
X68267219Y-71940899D01*
X68267219Y-72012530D01*
X68269140Y-72032039D01*
X68284072Y-72068087D01*
X68311662Y-72095677D01*
X68347710Y-72110609D01*
X68386728Y-72110609D01*
X68422776Y-72095677D01*
X68450366Y-72068087D01*
X68465298Y-72032039D01*
X68467219Y-72012530D01*
X68467219Y-71917292D01*
X68465298Y-71897783D01*
X68463922Y-71894462D01*
X68463668Y-71890879D01*
X68456662Y-71872570D01*
X68409043Y-71777333D01*
X68406989Y-71774070D01*
X68406476Y-71772530D01*
X68404812Y-71770612D01*
X68398600Y-71760742D01*
X68389125Y-71752525D01*
X68380911Y-71743054D01*
X68371039Y-71736840D01*
X68369123Y-71735178D01*
X68367584Y-71734664D01*
X68364321Y-71732611D01*
X68269082Y-71684992D01*
X68250773Y-71677986D01*
X68247190Y-71677731D01*
X68243870Y-71676356D01*
X68224361Y-71674435D01*
X67800552Y-71674435D01*
X67800552Y-71631578D01*
X67798631Y-71612069D01*
X67783699Y-71576021D01*
X67756109Y-71548431D01*
X67720061Y-71533499D01*
X67681043Y-71533499D01*
X67644995Y-71548431D01*
X67617405Y-71576021D01*
X67602473Y-71612069D01*
X67600552Y-71631578D01*
X67600552Y-71674435D01*
X67367219Y-71674435D01*
X67347710Y-71676356D01*
X67311662Y-71691288D01*
X67284072Y-71718878D01*
X67269140Y-71754926D01*
X67156108Y-71754926D01*
X67156108Y-70964911D01*
X67600552Y-70964911D01*
X67600552Y-71155387D01*
X67602473Y-71174896D01*
X67603848Y-71178216D01*
X67604103Y-71181800D01*
X67611109Y-71200108D01*
X67658728Y-71295346D01*
X67660781Y-71298609D01*
X67661295Y-71300148D01*
X67662957Y-71302064D01*
X67669171Y-71311936D01*
X67678641Y-71320149D01*
X67686859Y-71329625D01*
X67696732Y-71335839D01*
X67698648Y-71337501D01*
X67700186Y-71338013D01*
X67703450Y-71340068D01*
X67798687Y-71387687D01*
X67816996Y-71394693D01*
X67820579Y-71394947D01*
X67823900Y-71396323D01*
X67843409Y-71398244D01*
X68367219Y-71398244D01*
X68386728Y-71396323D01*
X68422776Y-71381391D01*
X68450366Y-71353801D01*
X68465298Y-71317753D01*
X68465298Y-71278735D01*
X68454360Y-71252330D01*
X68456662Y-71247728D01*
X68463668Y-71229419D01*
X68463922Y-71225835D01*
X68465298Y-71222515D01*
X68467219Y-71203006D01*
X68467219Y-70964911D01*
X68465298Y-70945402D01*
X68463922Y-70942081D01*
X68463668Y-70938498D01*
X68456662Y-70920189D01*
X68409043Y-70824952D01*
X68406989Y-70821689D01*
X68406476Y-70820149D01*
X68404812Y-70818231D01*
X68398600Y-70808361D01*
X68389125Y-70800144D01*
X68380911Y-70790673D01*
X68371039Y-70784459D01*
X68369123Y-70782797D01*
X68367584Y-70782283D01*
X68364321Y-70780230D01*
X68269082Y-70732611D01*
X68250773Y-70725605D01*
X68247190Y-70725350D01*
X68243870Y-70723975D01*
X68224361Y-70722054D01*
X68129123Y-70722054D01*
X68109614Y-70723975D01*
X68106293Y-70725350D01*
X68102710Y-70725605D01*
X68084401Y-70732611D01*
X67989164Y-70780230D01*
X67985900Y-70782284D01*
X67984362Y-70782797D01*
X67982446Y-70784458D01*
X67972573Y-70790673D01*
X67964355Y-70800148D01*
X67954885Y-70808362D01*
X67948671Y-70818233D01*
X67947009Y-70820150D01*
X67946495Y-70821688D01*
X67944442Y-70824952D01*
X67896823Y-70920190D01*
X67889817Y-70938498D01*
X67889562Y-70942081D01*
X67888187Y-70945402D01*
X67886266Y-70964911D01*
X67886266Y-71179399D01*
X67876844Y-71198244D01*
X67867016Y-71198244D01*
X67822707Y-71176089D01*
X67800552Y-71131779D01*
X67800552Y-70988518D01*
X67837614Y-70914395D01*
X67844620Y-70896086D01*
X67847386Y-70857166D01*
X67835047Y-70820150D01*
X67809482Y-70790673D01*
X67774584Y-70773224D01*
X67735664Y-70770459D01*
X67698648Y-70782797D01*
X67669171Y-70808362D01*
X67658728Y-70824952D01*
X67611109Y-70920190D01*
X67604103Y-70938498D01*
X67603848Y-70942081D01*
X67602473Y-70945402D01*
X67600552Y-70964911D01*
X67156108Y-70964911D01*
X67156108Y-69869673D01*
X67267219Y-69869673D01*
X67267219Y-70107768D01*
X67268191Y-70117641D01*
X67268004Y-70120275D01*
X67268791Y-70123738D01*
X67269140Y-70127277D01*
X67270151Y-70129719D01*
X67272351Y-70139391D01*
X67319970Y-70282247D01*
X67327961Y-70300148D01*
X67330316Y-70302863D01*
X67331691Y-70306182D01*
X67344127Y-70321336D01*
X67439365Y-70416574D01*
X67447031Y-70422865D01*
X67448764Y-70424863D01*
X67451775Y-70426758D01*
X67454519Y-70429010D01*
X67456956Y-70430019D01*
X67465355Y-70435306D01*
X67560592Y-70482925D01*
X67562020Y-70483471D01*
X67562600Y-70483901D01*
X67570776Y-70486822D01*
X67578901Y-70489931D01*
X67579621Y-70489982D01*
X67581060Y-70490496D01*
X67771536Y-70538115D01*
X67774917Y-70538615D01*
X67776281Y-70539180D01*
X67783631Y-70539903D01*
X67790929Y-70540983D01*
X67792387Y-70540765D01*
X67795790Y-70541101D01*
X67938647Y-70541101D01*
X67942049Y-70540765D01*
X67943508Y-70540983D01*
X67950805Y-70539903D01*
X67958156Y-70539180D01*
X67959519Y-70538615D01*
X67962901Y-70538115D01*
X68153376Y-70490496D01*
X68154813Y-70489982D01*
X68155536Y-70489931D01*
X68163660Y-70486822D01*
X68171837Y-70483901D01*
X68172417Y-70483470D01*
X68173844Y-70482925D01*
X68269082Y-70435306D01*
X68277474Y-70430023D01*
X68279918Y-70429011D01*
X68282667Y-70426754D01*
X68285672Y-70424863D01*
X68287401Y-70422868D01*
X68295071Y-70416574D01*
X68390311Y-70321336D01*
X68402747Y-70306183D01*
X68404122Y-70302863D01*
X68406477Y-70300148D01*
X68414468Y-70282248D01*
X68462087Y-70139391D01*
X68464286Y-70129718D01*
X68465298Y-70127277D01*
X68465646Y-70123739D01*
X68466434Y-70120276D01*
X68466246Y-70117641D01*
X68467219Y-70107768D01*
X68467219Y-69869673D01*
X68465298Y-69850164D01*
X68450366Y-69814116D01*
X68422776Y-69786526D01*
X68386728Y-69771594D01*
X68367219Y-69769673D01*
X67367219Y-69769673D01*
X67347710Y-69771594D01*
X67311662Y-69786526D01*
X67284072Y-69814116D01*
X67269140Y-69850164D01*
X67267219Y-69869673D01*
X67156108Y-69869673D01*
X67156108Y-69658562D01*
X68909742Y-69658562D01*
X68909742Y-80316960D01*
G37*
G36*
X75412746Y-74166147D02*
G01*
X75437414Y-74190814D01*
X75467219Y-74250424D01*
X75467219Y-74346067D01*
X75437414Y-74405676D01*
X75412746Y-74430343D01*
X75353135Y-74460150D01*
X75114635Y-74460150D01*
X75055025Y-74430345D01*
X75030357Y-74405676D01*
X75000552Y-74346066D01*
X75000552Y-74250424D01*
X75030357Y-74190814D01*
X75055025Y-74166145D01*
X75114635Y-74136341D01*
X75353135Y-74136341D01*
X75412746Y-74166147D01*
G37*
G36*
X75445064Y-72491828D02*
G01*
X75467219Y-72536138D01*
X75467219Y-72727019D01*
X75457797Y-72745864D01*
X75286266Y-72745864D01*
X75286266Y-72536138D01*
X75308421Y-72491828D01*
X75352730Y-72469674D01*
X75400754Y-72469674D01*
X75445064Y-72491828D01*
G37*
G36*
X75445064Y-71015637D02*
G01*
X75467219Y-71059947D01*
X75467219Y-71250828D01*
X75457797Y-71269673D01*
X75286266Y-71269673D01*
X75286266Y-71059947D01*
X75308421Y-71015637D01*
X75352730Y-70993483D01*
X75400754Y-70993483D01*
X75445064Y-71015637D01*
G37*
G36*
X75412746Y-70118527D02*
G01*
X75437414Y-70143194D01*
X75467219Y-70202804D01*
X75467219Y-70346066D01*
X75457797Y-70364911D01*
X75009975Y-70364911D01*
X75000552Y-70346065D01*
X75000552Y-70202804D01*
X75030357Y-70143194D01*
X75055025Y-70118525D01*
X75114635Y-70088721D01*
X75353135Y-70088721D01*
X75412746Y-70118527D01*
G37*
G36*
X75445064Y-67444208D02*
G01*
X75467219Y-67488518D01*
X75467219Y-67679399D01*
X75457797Y-67698244D01*
X75286266Y-67698244D01*
X75286266Y-67488518D01*
X75308421Y-67444208D01*
X75352730Y-67422054D01*
X75400754Y-67422054D01*
X75445064Y-67444208D01*
G37*
G36*
X74991028Y-66727018D02*
G01*
X74961223Y-66786627D01*
X74936554Y-66811295D01*
X74876945Y-66841101D01*
X74781302Y-66841101D01*
X74721692Y-66811296D01*
X74697024Y-66786627D01*
X74667219Y-66727017D01*
X74667219Y-66469673D01*
X74991028Y-66469673D01*
X74991028Y-66727018D01*
G37*
G36*
X75778330Y-80341905D02*
G01*
X74356108Y-80341905D01*
X74356108Y-79452406D01*
X74468004Y-79452406D01*
X74470770Y-79491326D01*
X74488220Y-79526225D01*
X74517696Y-79551790D01*
X74535596Y-79559781D01*
X75250991Y-79798246D01*
X74535596Y-80036711D01*
X74517696Y-80044702D01*
X74488220Y-80070267D01*
X74470770Y-80105166D01*
X74468004Y-80144086D01*
X74480342Y-80181102D01*
X74505907Y-80210578D01*
X74540806Y-80228028D01*
X74579726Y-80230794D01*
X74598842Y-80226447D01*
X75598841Y-79893114D01*
X75616742Y-79885123D01*
X75622143Y-79880438D01*
X75628530Y-79877245D01*
X75636742Y-79867776D01*
X75646218Y-79859558D01*
X75649413Y-79853166D01*
X75654095Y-79847769D01*
X75658061Y-79835871D01*
X75663667Y-79824659D01*
X75664173Y-79817534D01*
X75666434Y-79810753D01*
X75665544Y-79798246D01*
X75666434Y-79785739D01*
X75664173Y-79778957D01*
X75663667Y-79771833D01*
X75658061Y-79760620D01*
X75654095Y-79748723D01*
X75649413Y-79743325D01*
X75646218Y-79736934D01*
X75636742Y-79728715D01*
X75628530Y-79719247D01*
X75622143Y-79716053D01*
X75616742Y-79711369D01*
X75598841Y-79703378D01*
X74598842Y-79370045D01*
X74579726Y-79365698D01*
X74540806Y-79368464D01*
X74505907Y-79385914D01*
X74480342Y-79415390D01*
X74468004Y-79452406D01*
X74356108Y-79452406D01*
X74356108Y-78560151D01*
X74467219Y-78560151D01*
X74467219Y-79179198D01*
X74468234Y-79189515D01*
X74468060Y-79192140D01*
X74468671Y-79193947D01*
X74469140Y-79198707D01*
X74475355Y-79213712D01*
X74480560Y-79229101D01*
X74482781Y-79231640D01*
X74484072Y-79234755D01*
X74495556Y-79246239D01*
X74506254Y-79258465D01*
X74509277Y-79259960D01*
X74511662Y-79262345D01*
X74526668Y-79268561D01*
X74541229Y-79275762D01*
X74544594Y-79275986D01*
X74547710Y-79277277D01*
X74563958Y-79277277D01*
X74580161Y-79278357D01*
X74583354Y-79277277D01*
X74586728Y-79277277D01*
X74601733Y-79271061D01*
X74617122Y-79265857D01*
X74621012Y-79263075D01*
X74622776Y-79262345D01*
X74624635Y-79260485D01*
X74633069Y-79254456D01*
X74866923Y-79049833D01*
X74906347Y-79128681D01*
X74911632Y-79137077D01*
X74912643Y-79139517D01*
X74914896Y-79142263D01*
X74916790Y-79145271D01*
X74918784Y-79147000D01*
X74925079Y-79154671D01*
X74972698Y-79202289D01*
X74980364Y-79208581D01*
X74982097Y-79210579D01*
X74985105Y-79212472D01*
X74987851Y-79214726D01*
X74990291Y-79215736D01*
X74998688Y-79221022D01*
X75093925Y-79268641D01*
X75112234Y-79275647D01*
X75115817Y-79275901D01*
X75119138Y-79277277D01*
X75138647Y-79279198D01*
X75376742Y-79279198D01*
X75396251Y-79277277D01*
X75399571Y-79275901D01*
X75403155Y-79275647D01*
X75421463Y-79268641D01*
X75516701Y-79221022D01*
X75525093Y-79215738D01*
X75527537Y-79214727D01*
X75530286Y-79212470D01*
X75533291Y-79210579D01*
X75535020Y-79208584D01*
X75542690Y-79202290D01*
X75590310Y-79154672D01*
X75596603Y-79147003D01*
X75598600Y-79145272D01*
X75600493Y-79142263D01*
X75602747Y-79139518D01*
X75603757Y-79137077D01*
X75609043Y-79128681D01*
X75656662Y-79033444D01*
X75663668Y-79015135D01*
X75663922Y-79011551D01*
X75665298Y-79008231D01*
X75667219Y-78988722D01*
X75667219Y-78703008D01*
X75665298Y-78683499D01*
X75663922Y-78680178D01*
X75663668Y-78676595D01*
X75656662Y-78658286D01*
X75609043Y-78563049D01*
X75603757Y-78554652D01*
X75602747Y-78552212D01*
X75600493Y-78549466D01*
X75598600Y-78546458D01*
X75596603Y-78544726D01*
X75590310Y-78537058D01*
X75542690Y-78489440D01*
X75527537Y-78477003D01*
X75491488Y-78462072D01*
X75452470Y-78462073D01*
X75416422Y-78477004D01*
X75388832Y-78504594D01*
X75373901Y-78540643D01*
X75373902Y-78579661D01*
X75388833Y-78615709D01*
X75401270Y-78630862D01*
X75437414Y-78667005D01*
X75467219Y-78726615D01*
X75467219Y-78965115D01*
X75437414Y-79024724D01*
X75412746Y-79049391D01*
X75353135Y-79079198D01*
X75162254Y-79079198D01*
X75102644Y-79049393D01*
X75077976Y-79024724D01*
X75048171Y-78965114D01*
X75048171Y-78845865D01*
X75047155Y-78835547D01*
X75047330Y-78832923D01*
X75046718Y-78831115D01*
X75046250Y-78826356D01*
X75040035Y-78811352D01*
X75034830Y-78795961D01*
X75032607Y-78793421D01*
X75031318Y-78790308D01*
X75019840Y-78778830D01*
X75009136Y-78766597D01*
X75006111Y-78765101D01*
X75003728Y-78762718D01*
X74988726Y-78756503D01*
X74974161Y-78749301D01*
X74970795Y-78749076D01*
X74967680Y-78747786D01*
X74951432Y-78747786D01*
X74935229Y-78746706D01*
X74932036Y-78747786D01*
X74928662Y-78747786D01*
X74913656Y-78754001D01*
X74898268Y-78759206D01*
X74894377Y-78761987D01*
X74892614Y-78762718D01*
X74890754Y-78764577D01*
X74882321Y-78770607D01*
X74667219Y-78958821D01*
X74667219Y-78560151D01*
X74665298Y-78540642D01*
X74650366Y-78504594D01*
X74622776Y-78477004D01*
X74586728Y-78462072D01*
X74547710Y-78462072D01*
X74511662Y-78477004D01*
X74484072Y-78504594D01*
X74469140Y-78540642D01*
X74467219Y-78560151D01*
X74356108Y-78560151D01*
X74356108Y-78159690D01*
X75373901Y-78159690D01*
X75373901Y-78198708D01*
X75375385Y-78202291D01*
X75388832Y-78234756D01*
X75388833Y-78234757D01*
X75401270Y-78249910D01*
X75448890Y-78297529D01*
X75464043Y-78309966D01*
X75489533Y-78320523D01*
X75500091Y-78324897D01*
X75500092Y-78324897D01*
X75539109Y-78324897D01*
X75560226Y-78316149D01*
X75575158Y-78309965D01*
X75575162Y-78309960D01*
X75590311Y-78297529D01*
X75637929Y-78249910D01*
X75650366Y-78234757D01*
X75661735Y-78207309D01*
X75665298Y-78198708D01*
X75665298Y-78159690D01*
X75650366Y-78123642D01*
X75650366Y-78123641D01*
X75637929Y-78108488D01*
X75590311Y-78060869D01*
X75575162Y-78048437D01*
X75575158Y-78048433D01*
X75560226Y-78042248D01*
X75539109Y-78033501D01*
X75500091Y-78033501D01*
X75489533Y-78037874D01*
X75464043Y-78048432D01*
X75448890Y-78060869D01*
X75401270Y-78108488D01*
X75388833Y-78123641D01*
X75388832Y-78123642D01*
X75378274Y-78149132D01*
X75373901Y-78159690D01*
X74356108Y-78159690D01*
X74356108Y-77131580D01*
X74467219Y-77131580D01*
X74467219Y-77750627D01*
X74468234Y-77760944D01*
X74468060Y-77763569D01*
X74468671Y-77765376D01*
X74469140Y-77770136D01*
X74475355Y-77785141D01*
X74480560Y-77800530D01*
X74482781Y-77803069D01*
X74484072Y-77806184D01*
X74495556Y-77817668D01*
X74506254Y-77829894D01*
X74509277Y-77831389D01*
X74511662Y-77833774D01*
X74526668Y-77839990D01*
X74541229Y-77847191D01*
X74544594Y-77847415D01*
X74547710Y-77848706D01*
X74563958Y-77848706D01*
X74580161Y-77849786D01*
X74583354Y-77848706D01*
X74586728Y-77848706D01*
X74601733Y-77842490D01*
X74617122Y-77837286D01*
X74621012Y-77834504D01*
X74622776Y-77833774D01*
X74624635Y-77831914D01*
X74633069Y-77825885D01*
X74866923Y-77621262D01*
X74906347Y-77700110D01*
X74911632Y-77708506D01*
X74912643Y-77710946D01*
X74914896Y-77713692D01*
X74916790Y-77716700D01*
X74918784Y-77718429D01*
X74925079Y-77726100D01*
X74972698Y-77773718D01*
X74980364Y-77780010D01*
X74982097Y-77782008D01*
X74985105Y-77783901D01*
X74987851Y-77786155D01*
X74990291Y-77787165D01*
X74998688Y-77792451D01*
X75093925Y-77840070D01*
X75112234Y-77847076D01*
X75115817Y-77847330D01*
X75119138Y-77848706D01*
X75138647Y-77850627D01*
X75376742Y-77850627D01*
X75396251Y-77848706D01*
X75399571Y-77847330D01*
X75403155Y-77847076D01*
X75421463Y-77840070D01*
X75516701Y-77792451D01*
X75525093Y-77787167D01*
X75527537Y-77786156D01*
X75530286Y-77783899D01*
X75533291Y-77782008D01*
X75535020Y-77780013D01*
X75542690Y-77773719D01*
X75590310Y-77726101D01*
X75596603Y-77718432D01*
X75598600Y-77716701D01*
X75600493Y-77713692D01*
X75602747Y-77710947D01*
X75603757Y-77708506D01*
X75609043Y-77700110D01*
X75656662Y-77604873D01*
X75663668Y-77586564D01*
X75663922Y-77582980D01*
X75665298Y-77579660D01*
X75667219Y-77560151D01*
X75667219Y-77274437D01*
X75665298Y-77254928D01*
X75663922Y-77251607D01*
X75663668Y-77248024D01*
X75656662Y-77229715D01*
X75609043Y-77134478D01*
X75603757Y-77126081D01*
X75602747Y-77123641D01*
X75600493Y-77120895D01*
X75598600Y-77117887D01*
X75596603Y-77116155D01*
X75590310Y-77108487D01*
X75542690Y-77060869D01*
X75527537Y-77048432D01*
X75491488Y-77033501D01*
X75452470Y-77033502D01*
X75416422Y-77048433D01*
X75388832Y-77076023D01*
X75373901Y-77112072D01*
X75373902Y-77151090D01*
X75388833Y-77187138D01*
X75401270Y-77202291D01*
X75437414Y-77238434D01*
X75467219Y-77298044D01*
X75467219Y-77536544D01*
X75437414Y-77596153D01*
X75412746Y-77620820D01*
X75353135Y-77650627D01*
X75162254Y-77650627D01*
X75102644Y-77620822D01*
X75077976Y-77596153D01*
X75048171Y-77536543D01*
X75048171Y-77417294D01*
X75047155Y-77406976D01*
X75047330Y-77404352D01*
X75046718Y-77402544D01*
X75046250Y-77397785D01*
X75040035Y-77382781D01*
X75034830Y-77367390D01*
X75032607Y-77364850D01*
X75031318Y-77361737D01*
X75019840Y-77350259D01*
X75009136Y-77338026D01*
X75006111Y-77336530D01*
X75003728Y-77334147D01*
X74988726Y-77327932D01*
X74974161Y-77320730D01*
X74970795Y-77320505D01*
X74967680Y-77319215D01*
X74951432Y-77319215D01*
X74935229Y-77318135D01*
X74932036Y-77319215D01*
X74928662Y-77319215D01*
X74913656Y-77325430D01*
X74898268Y-77330635D01*
X74894377Y-77333416D01*
X74892614Y-77334147D01*
X74890754Y-77336006D01*
X74882321Y-77342036D01*
X74667219Y-77530250D01*
X74667219Y-77131580D01*
X74665298Y-77112071D01*
X74650366Y-77076023D01*
X74622776Y-77048433D01*
X74586728Y-77033501D01*
X74547710Y-77033501D01*
X74511662Y-77048433D01*
X74484072Y-77076023D01*
X74469140Y-77112071D01*
X74467219Y-77131580D01*
X74356108Y-77131580D01*
X74356108Y-75873975D01*
X74469140Y-75873975D01*
X74469140Y-75912993D01*
X74484072Y-75949041D01*
X74511662Y-75976631D01*
X74547710Y-75991563D01*
X74567219Y-75993484D01*
X74800552Y-75993484D01*
X74800552Y-76131579D01*
X74802473Y-76151088D01*
X74817405Y-76187136D01*
X74844995Y-76214726D01*
X74881043Y-76229658D01*
X74920061Y-76229658D01*
X74956109Y-76214726D01*
X74983699Y-76187136D01*
X74998631Y-76151088D01*
X75000552Y-76131579D01*
X75000552Y-75993484D01*
X75400754Y-75993484D01*
X75445064Y-76015638D01*
X75467219Y-76059948D01*
X75467219Y-76131579D01*
X75469140Y-76151088D01*
X75484072Y-76187136D01*
X75511662Y-76214726D01*
X75547710Y-76229658D01*
X75586728Y-76229658D01*
X75622776Y-76214726D01*
X75650366Y-76187136D01*
X75665298Y-76151088D01*
X75667219Y-76131579D01*
X75667219Y-76036341D01*
X75665298Y-76016832D01*
X75663922Y-76013511D01*
X75663668Y-76009928D01*
X75656662Y-75991619D01*
X75609043Y-75896382D01*
X75606989Y-75893119D01*
X75606476Y-75891579D01*
X75604812Y-75889661D01*
X75598600Y-75879791D01*
X75589125Y-75871574D01*
X75580911Y-75862103D01*
X75571039Y-75855889D01*
X75569123Y-75854227D01*
X75567584Y-75853713D01*
X75564321Y-75851660D01*
X75469082Y-75804041D01*
X75450773Y-75797035D01*
X75447190Y-75796780D01*
X75443870Y-75795405D01*
X75424361Y-75793484D01*
X75000552Y-75793484D01*
X75000552Y-75750627D01*
X74998631Y-75731118D01*
X74983699Y-75695070D01*
X74956109Y-75667480D01*
X74920061Y-75652548D01*
X74881043Y-75652548D01*
X74844995Y-75667480D01*
X74817405Y-75695070D01*
X74802473Y-75731118D01*
X74800552Y-75750627D01*
X74800552Y-75793484D01*
X74567219Y-75793484D01*
X74547710Y-75795405D01*
X74511662Y-75810337D01*
X74484072Y-75837927D01*
X74469140Y-75873975D01*
X74356108Y-75873975D01*
X74356108Y-74969213D01*
X74802473Y-74969213D01*
X74802473Y-75008231D01*
X74817405Y-75044279D01*
X74844995Y-75071869D01*
X74881043Y-75086801D01*
X74900552Y-75088722D01*
X75400754Y-75088722D01*
X75445064Y-75110876D01*
X75467219Y-75155186D01*
X75467219Y-75250829D01*
X75437414Y-75310438D01*
X75430560Y-75317293D01*
X74900552Y-75317293D01*
X74881043Y-75319214D01*
X74844995Y-75334146D01*
X74817405Y-75361736D01*
X74802473Y-75397784D01*
X74802473Y-75436802D01*
X74817405Y-75472850D01*
X74844995Y-75500440D01*
X74881043Y-75515372D01*
X74900552Y-75517293D01*
X75567219Y-75517293D01*
X75586728Y-75515372D01*
X75622776Y-75500440D01*
X75650366Y-75472850D01*
X75665298Y-75436802D01*
X75665298Y-75397784D01*
X75650366Y-75361736D01*
X75640370Y-75351740D01*
X75656662Y-75319158D01*
X75663668Y-75300849D01*
X75663922Y-75297265D01*
X75665298Y-75293945D01*
X75667219Y-75274436D01*
X75667219Y-75131579D01*
X75665298Y-75112070D01*
X75663922Y-75108749D01*
X75663668Y-75105166D01*
X75656662Y-75086857D01*
X75609043Y-74991620D01*
X75606989Y-74988357D01*
X75606476Y-74986817D01*
X75604812Y-74984899D01*
X75598600Y-74975029D01*
X75589125Y-74966812D01*
X75580911Y-74957341D01*
X75571039Y-74951127D01*
X75569123Y-74949465D01*
X75567584Y-74948951D01*
X75564321Y-74946898D01*
X75469082Y-74899279D01*
X75450773Y-74892273D01*
X75447190Y-74892018D01*
X75443870Y-74890643D01*
X75424361Y-74888722D01*
X74900552Y-74888722D01*
X74881043Y-74890643D01*
X74844995Y-74905575D01*
X74817405Y-74933165D01*
X74802473Y-74969213D01*
X74356108Y-74969213D01*
X74356108Y-74226817D01*
X74800552Y-74226817D01*
X74800552Y-74369674D01*
X74802473Y-74389183D01*
X74803848Y-74392503D01*
X74804103Y-74396087D01*
X74811109Y-74414395D01*
X74858728Y-74509633D01*
X74864013Y-74518029D01*
X74865024Y-74520469D01*
X74867277Y-74523215D01*
X74869171Y-74526223D01*
X74871165Y-74527952D01*
X74877460Y-74535623D01*
X74925079Y-74583241D01*
X74932745Y-74589533D01*
X74934478Y-74591531D01*
X74937486Y-74593424D01*
X74940232Y-74595678D01*
X74942672Y-74596688D01*
X74951069Y-74601974D01*
X75046306Y-74649593D01*
X75064615Y-74656599D01*
X75068198Y-74656853D01*
X75071519Y-74658229D01*
X75091028Y-74660150D01*
X75376742Y-74660150D01*
X75396251Y-74658229D01*
X75399571Y-74656853D01*
X75403155Y-74656599D01*
X75421463Y-74649593D01*
X75516701Y-74601974D01*
X75525093Y-74596690D01*
X75527537Y-74595679D01*
X75530286Y-74593422D01*
X75533291Y-74591531D01*
X75535020Y-74589536D01*
X75542690Y-74583242D01*
X75590310Y-74535624D01*
X75596603Y-74527955D01*
X75598600Y-74526224D01*
X75600493Y-74523215D01*
X75602747Y-74520470D01*
X75603757Y-74518029D01*
X75609043Y-74509633D01*
X75656662Y-74414396D01*
X75663668Y-74396087D01*
X75663922Y-74392503D01*
X75665298Y-74389183D01*
X75667219Y-74369674D01*
X75667219Y-74226817D01*
X75665298Y-74207308D01*
X75663922Y-74203987D01*
X75663668Y-74200404D01*
X75656662Y-74182095D01*
X75609043Y-74086858D01*
X75603757Y-74078461D01*
X75602747Y-74076021D01*
X75600493Y-74073275D01*
X75598600Y-74070267D01*
X75596603Y-74068535D01*
X75590310Y-74060867D01*
X75542690Y-74013249D01*
X75535020Y-74006954D01*
X75533291Y-74004960D01*
X75530286Y-74003068D01*
X75527537Y-74000812D01*
X75525093Y-73999800D01*
X75516701Y-73994517D01*
X75421463Y-73946898D01*
X75403155Y-73939892D01*
X75399571Y-73939637D01*
X75396251Y-73938262D01*
X75376742Y-73936341D01*
X75091028Y-73936341D01*
X75071519Y-73938262D01*
X75068198Y-73939637D01*
X75064615Y-73939892D01*
X75046306Y-73946898D01*
X74951069Y-73994517D01*
X74942672Y-73999802D01*
X74940232Y-74000813D01*
X74937486Y-74003066D01*
X74934478Y-74004960D01*
X74932745Y-74006957D01*
X74925079Y-74013250D01*
X74877460Y-74060868D01*
X74871165Y-74068538D01*
X74869171Y-74070268D01*
X74867277Y-74073275D01*
X74865024Y-74076022D01*
X74864013Y-74078461D01*
X74858728Y-74086858D01*
X74811109Y-74182096D01*
X74804103Y-74200404D01*
X74803848Y-74203987D01*
X74802473Y-74207308D01*
X74800552Y-74226817D01*
X74356108Y-74226817D01*
X74356108Y-72512531D01*
X74800552Y-72512531D01*
X74800552Y-72703007D01*
X74802473Y-72722516D01*
X74803848Y-72725836D01*
X74804103Y-72729420D01*
X74811109Y-72747728D01*
X74858728Y-72842966D01*
X74860781Y-72846229D01*
X74861295Y-72847768D01*
X74862957Y-72849684D01*
X74869171Y-72859556D01*
X74878641Y-72867769D01*
X74886859Y-72877245D01*
X74896732Y-72883459D01*
X74898648Y-72885121D01*
X74900186Y-72885633D01*
X74903450Y-72887688D01*
X74998687Y-72935307D01*
X75016996Y-72942313D01*
X75020579Y-72942567D01*
X75023900Y-72943943D01*
X75043409Y-72945864D01*
X75567219Y-72945864D01*
X75586728Y-72943943D01*
X75622776Y-72929011D01*
X75650366Y-72901421D01*
X75665298Y-72865373D01*
X75665298Y-72826355D01*
X75654360Y-72799950D01*
X75656662Y-72795348D01*
X75663668Y-72777039D01*
X75663922Y-72773455D01*
X75665298Y-72770135D01*
X75667219Y-72750626D01*
X75667219Y-72512531D01*
X75665298Y-72493022D01*
X75663922Y-72489701D01*
X75663668Y-72486118D01*
X75656662Y-72467809D01*
X75609043Y-72372572D01*
X75606989Y-72369309D01*
X75606476Y-72367769D01*
X75604812Y-72365851D01*
X75598600Y-72355981D01*
X75589125Y-72347764D01*
X75580911Y-72338293D01*
X75571039Y-72332079D01*
X75569123Y-72330417D01*
X75567584Y-72329903D01*
X75564321Y-72327850D01*
X75469082Y-72280231D01*
X75450773Y-72273225D01*
X75447190Y-72272970D01*
X75443870Y-72271595D01*
X75424361Y-72269674D01*
X75329123Y-72269674D01*
X75309614Y-72271595D01*
X75306293Y-72272970D01*
X75302710Y-72273225D01*
X75284401Y-72280231D01*
X75189164Y-72327850D01*
X75185900Y-72329904D01*
X75184362Y-72330417D01*
X75182446Y-72332078D01*
X75172573Y-72338293D01*
X75164355Y-72347768D01*
X75154885Y-72355982D01*
X75148671Y-72365853D01*
X75147009Y-72367770D01*
X75146495Y-72369308D01*
X75144442Y-72372572D01*
X75096823Y-72467810D01*
X75089817Y-72486118D01*
X75089562Y-72489701D01*
X75088187Y-72493022D01*
X75086266Y-72512531D01*
X75086266Y-72727019D01*
X75076844Y-72745864D01*
X75067016Y-72745864D01*
X75022707Y-72723709D01*
X75000552Y-72679399D01*
X75000552Y-72536138D01*
X75037614Y-72462015D01*
X75044620Y-72443706D01*
X75047386Y-72404786D01*
X75035047Y-72367770D01*
X75009482Y-72338293D01*
X74974584Y-72320844D01*
X74935664Y-72318079D01*
X74898648Y-72330417D01*
X74869171Y-72355982D01*
X74858728Y-72372572D01*
X74811109Y-72467810D01*
X74804103Y-72486118D01*
X74803848Y-72489701D01*
X74802473Y-72493022D01*
X74800552Y-72512531D01*
X74356108Y-72512531D01*
X74356108Y-71826355D01*
X74469140Y-71826355D01*
X74469140Y-71865373D01*
X74484072Y-71901421D01*
X74511662Y-71929011D01*
X74547710Y-71943943D01*
X74567219Y-71945864D01*
X74800552Y-71945864D01*
X74800552Y-72083959D01*
X74802473Y-72103468D01*
X74817405Y-72139516D01*
X74844995Y-72167106D01*
X74881043Y-72182038D01*
X74920061Y-72182038D01*
X74956109Y-72167106D01*
X74983699Y-72139516D01*
X74998631Y-72103468D01*
X75000552Y-72083959D01*
X75000552Y-71945864D01*
X75400754Y-71945864D01*
X75445064Y-71968018D01*
X75467219Y-72012328D01*
X75467219Y-72083959D01*
X75469140Y-72103468D01*
X75484072Y-72139516D01*
X75511662Y-72167106D01*
X75547710Y-72182038D01*
X75586728Y-72182038D01*
X75622776Y-72167106D01*
X75650366Y-72139516D01*
X75665298Y-72103468D01*
X75667219Y-72083959D01*
X75667219Y-71988721D01*
X75665298Y-71969212D01*
X75663922Y-71965891D01*
X75663668Y-71962308D01*
X75656662Y-71943999D01*
X75609043Y-71848762D01*
X75606989Y-71845499D01*
X75606476Y-71843959D01*
X75604812Y-71842041D01*
X75598600Y-71832171D01*
X75589125Y-71823954D01*
X75580911Y-71814483D01*
X75571039Y-71808269D01*
X75569123Y-71806607D01*
X75567584Y-71806093D01*
X75564321Y-71804040D01*
X75469082Y-71756421D01*
X75450773Y-71749415D01*
X75447190Y-71749160D01*
X75443870Y-71747785D01*
X75424361Y-71745864D01*
X75000552Y-71745864D01*
X75000552Y-71703007D01*
X74998631Y-71683498D01*
X74983699Y-71647450D01*
X74956109Y-71619860D01*
X74920061Y-71604928D01*
X74881043Y-71604928D01*
X74844995Y-71619860D01*
X74817405Y-71647450D01*
X74802473Y-71683498D01*
X74800552Y-71703007D01*
X74800552Y-71745864D01*
X74567219Y-71745864D01*
X74547710Y-71747785D01*
X74511662Y-71762717D01*
X74484072Y-71790307D01*
X74469140Y-71826355D01*
X74356108Y-71826355D01*
X74356108Y-71036340D01*
X74800552Y-71036340D01*
X74800552Y-71226816D01*
X74802473Y-71246325D01*
X74803848Y-71249645D01*
X74804103Y-71253229D01*
X74811109Y-71271537D01*
X74858728Y-71366775D01*
X74860781Y-71370038D01*
X74861295Y-71371577D01*
X74862957Y-71373493D01*
X74869171Y-71383365D01*
X74878641Y-71391578D01*
X74886859Y-71401054D01*
X74896732Y-71407268D01*
X74898648Y-71408930D01*
X74900186Y-71409442D01*
X74903450Y-71411497D01*
X74998687Y-71459116D01*
X75016996Y-71466122D01*
X75020579Y-71466376D01*
X75023900Y-71467752D01*
X75043409Y-71469673D01*
X75567219Y-71469673D01*
X75586728Y-71467752D01*
X75622776Y-71452820D01*
X75650366Y-71425230D01*
X75665298Y-71389182D01*
X75665298Y-71350164D01*
X75654360Y-71323759D01*
X75656662Y-71319157D01*
X75663668Y-71300848D01*
X75663922Y-71297264D01*
X75665298Y-71293944D01*
X75667219Y-71274435D01*
X75667219Y-71036340D01*
X75665298Y-71016831D01*
X75663922Y-71013510D01*
X75663668Y-71009927D01*
X75656662Y-70991618D01*
X75609043Y-70896381D01*
X75606989Y-70893118D01*
X75606476Y-70891578D01*
X75604812Y-70889660D01*
X75598600Y-70879790D01*
X75589125Y-70871573D01*
X75580911Y-70862102D01*
X75571039Y-70855888D01*
X75569123Y-70854226D01*
X75567584Y-70853712D01*
X75564321Y-70851659D01*
X75469082Y-70804040D01*
X75450773Y-70797034D01*
X75447190Y-70796779D01*
X75443870Y-70795404D01*
X75424361Y-70793483D01*
X75329123Y-70793483D01*
X75309614Y-70795404D01*
X75306293Y-70796779D01*
X75302710Y-70797034D01*
X75284401Y-70804040D01*
X75189164Y-70851659D01*
X75185900Y-70853713D01*
X75184362Y-70854226D01*
X75182446Y-70855887D01*
X75172573Y-70862102D01*
X75164355Y-70871577D01*
X75154885Y-70879791D01*
X75148671Y-70889662D01*
X75147009Y-70891579D01*
X75146495Y-70893117D01*
X75144442Y-70896381D01*
X75096823Y-70991619D01*
X75089817Y-71009927D01*
X75089562Y-71013510D01*
X75088187Y-71016831D01*
X75086266Y-71036340D01*
X75086266Y-71250828D01*
X75076844Y-71269673D01*
X75067016Y-71269673D01*
X75022707Y-71247518D01*
X75000552Y-71203208D01*
X75000552Y-71059947D01*
X75037614Y-70985824D01*
X75044620Y-70967515D01*
X75047386Y-70928595D01*
X75035047Y-70891579D01*
X75009482Y-70862102D01*
X74974584Y-70844653D01*
X74935664Y-70841888D01*
X74898648Y-70854226D01*
X74869171Y-70879791D01*
X74858728Y-70896381D01*
X74811109Y-70991619D01*
X74804103Y-71009927D01*
X74803848Y-71013510D01*
X74802473Y-71016831D01*
X74800552Y-71036340D01*
X74356108Y-71036340D01*
X74356108Y-70445402D01*
X74469140Y-70445402D01*
X74469140Y-70484420D01*
X74484072Y-70520468D01*
X74511662Y-70548058D01*
X74547710Y-70562990D01*
X74567219Y-70564911D01*
X75567219Y-70564911D01*
X75586728Y-70562990D01*
X75622776Y-70548058D01*
X75650366Y-70520468D01*
X75665298Y-70484420D01*
X75665298Y-70445402D01*
X75654360Y-70418997D01*
X75656662Y-70414395D01*
X75663668Y-70396086D01*
X75663922Y-70392502D01*
X75665298Y-70389182D01*
X75667219Y-70369673D01*
X75667219Y-70179197D01*
X75665298Y-70159688D01*
X75663922Y-70156367D01*
X75663668Y-70152784D01*
X75656662Y-70134475D01*
X75609043Y-70039238D01*
X75603757Y-70030841D01*
X75602747Y-70028401D01*
X75600493Y-70025655D01*
X75598600Y-70022647D01*
X75596603Y-70020915D01*
X75590310Y-70013247D01*
X75542690Y-69965629D01*
X75535020Y-69959334D01*
X75533291Y-69957340D01*
X75530286Y-69955448D01*
X75527537Y-69953192D01*
X75525093Y-69952180D01*
X75516701Y-69946897D01*
X75421463Y-69899278D01*
X75403155Y-69892272D01*
X75399571Y-69892017D01*
X75396251Y-69890642D01*
X75376742Y-69888721D01*
X75091028Y-69888721D01*
X75071519Y-69890642D01*
X75068198Y-69892017D01*
X75064615Y-69892272D01*
X75046306Y-69899278D01*
X74951069Y-69946897D01*
X74942672Y-69952182D01*
X74940232Y-69953193D01*
X74937486Y-69955446D01*
X74934478Y-69957340D01*
X74932745Y-69959337D01*
X74925079Y-69965630D01*
X74877460Y-70013248D01*
X74871165Y-70020918D01*
X74869171Y-70022648D01*
X74867277Y-70025655D01*
X74865024Y-70028402D01*
X74864013Y-70030841D01*
X74858728Y-70039238D01*
X74811109Y-70134476D01*
X74804103Y-70152784D01*
X74803848Y-70156367D01*
X74802473Y-70159688D01*
X74800552Y-70179197D01*
X74800552Y-70364911D01*
X74567219Y-70364911D01*
X74547710Y-70366832D01*
X74511662Y-70381764D01*
X74484072Y-70409354D01*
X74469140Y-70445402D01*
X74356108Y-70445402D01*
X74356108Y-68731116D01*
X74469140Y-68731116D01*
X74469140Y-68770134D01*
X74484072Y-68806182D01*
X74511662Y-68833772D01*
X74547710Y-68848704D01*
X74567219Y-68850625D01*
X75400754Y-68850625D01*
X75445064Y-68872779D01*
X75477776Y-68938203D01*
X75488219Y-68954793D01*
X75517696Y-68980358D01*
X75554712Y-68992696D01*
X75593632Y-68989931D01*
X75628530Y-68972482D01*
X75654095Y-68943005D01*
X75666434Y-68905989D01*
X75663668Y-68867069D01*
X75656662Y-68848760D01*
X75609043Y-68753523D01*
X75606989Y-68750260D01*
X75606476Y-68748720D01*
X75604812Y-68746802D01*
X75598600Y-68736932D01*
X75589125Y-68728715D01*
X75580911Y-68719244D01*
X75571039Y-68713030D01*
X75569123Y-68711368D01*
X75567584Y-68710854D01*
X75564321Y-68708801D01*
X75469082Y-68661182D01*
X75450773Y-68654176D01*
X75447190Y-68653921D01*
X75443870Y-68652546D01*
X75424361Y-68650625D01*
X74567219Y-68650625D01*
X74547710Y-68652546D01*
X74511662Y-68667478D01*
X74484072Y-68695068D01*
X74469140Y-68731116D01*
X74356108Y-68731116D01*
X74356108Y-68254926D01*
X74469140Y-68254926D01*
X74469140Y-68293944D01*
X74484072Y-68329992D01*
X74496508Y-68345146D01*
X74544127Y-68392764D01*
X74559280Y-68405201D01*
X74569838Y-68409574D01*
X74595329Y-68420133D01*
X74634347Y-68420133D01*
X74670395Y-68405201D01*
X74685549Y-68392765D01*
X74733167Y-68345146D01*
X74745604Y-68329993D01*
X74756973Y-68302545D01*
X74760536Y-68293944D01*
X74760536Y-68254926D01*
X74802473Y-68254926D01*
X74802473Y-68293944D01*
X74817405Y-68329992D01*
X74844995Y-68357582D01*
X74881043Y-68372514D01*
X74900552Y-68374435D01*
X75567219Y-68374435D01*
X75586728Y-68372514D01*
X75622776Y-68357582D01*
X75650366Y-68329992D01*
X75665298Y-68293944D01*
X75665298Y-68254926D01*
X75650366Y-68218878D01*
X75622776Y-68191288D01*
X75586728Y-68176356D01*
X75567219Y-68174435D01*
X74900552Y-68174435D01*
X74881043Y-68176356D01*
X74844995Y-68191288D01*
X74817405Y-68218878D01*
X74802473Y-68254926D01*
X74760536Y-68254926D01*
X74745604Y-68218878D01*
X74745604Y-68218877D01*
X74733167Y-68203724D01*
X74685549Y-68156105D01*
X74670395Y-68143669D01*
X74634347Y-68128737D01*
X74595329Y-68128737D01*
X74569838Y-68139295D01*
X74559280Y-68143669D01*
X74544127Y-68156106D01*
X74496508Y-68203724D01*
X74484073Y-68218877D01*
X74484072Y-68218878D01*
X74469140Y-68254926D01*
X74356108Y-68254926D01*
X74356108Y-67464911D01*
X74800552Y-67464911D01*
X74800552Y-67655387D01*
X74802473Y-67674896D01*
X74803848Y-67678216D01*
X74804103Y-67681800D01*
X74811109Y-67700108D01*
X74858728Y-67795346D01*
X74860781Y-67798609D01*
X74861295Y-67800148D01*
X74862957Y-67802064D01*
X74869171Y-67811936D01*
X74878641Y-67820149D01*
X74886859Y-67829625D01*
X74896732Y-67835839D01*
X74898648Y-67837501D01*
X74900186Y-67838013D01*
X74903450Y-67840068D01*
X74998687Y-67887687D01*
X75016996Y-67894693D01*
X75020579Y-67894947D01*
X75023900Y-67896323D01*
X75043409Y-67898244D01*
X75567219Y-67898244D01*
X75586728Y-67896323D01*
X75622776Y-67881391D01*
X75650366Y-67853801D01*
X75665298Y-67817753D01*
X75665298Y-67778735D01*
X75654360Y-67752330D01*
X75656662Y-67747728D01*
X75663668Y-67729419D01*
X75663922Y-67725835D01*
X75665298Y-67722515D01*
X75667219Y-67703006D01*
X75667219Y-67464911D01*
X75665298Y-67445402D01*
X75663922Y-67442081D01*
X75663668Y-67438498D01*
X75656662Y-67420189D01*
X75609043Y-67324952D01*
X75606989Y-67321689D01*
X75606476Y-67320149D01*
X75604812Y-67318231D01*
X75598600Y-67308361D01*
X75589125Y-67300144D01*
X75580911Y-67290673D01*
X75571039Y-67284459D01*
X75569123Y-67282797D01*
X75567584Y-67282283D01*
X75564321Y-67280230D01*
X75469082Y-67232611D01*
X75450773Y-67225605D01*
X75447190Y-67225350D01*
X75443870Y-67223975D01*
X75424361Y-67222054D01*
X75329123Y-67222054D01*
X75309614Y-67223975D01*
X75306293Y-67225350D01*
X75302710Y-67225605D01*
X75284401Y-67232611D01*
X75189164Y-67280230D01*
X75185900Y-67282284D01*
X75184362Y-67282797D01*
X75182446Y-67284458D01*
X75172573Y-67290673D01*
X75164355Y-67300148D01*
X75154885Y-67308362D01*
X75148671Y-67318233D01*
X75147009Y-67320150D01*
X75146495Y-67321688D01*
X75144442Y-67324952D01*
X75096823Y-67420190D01*
X75089817Y-67438498D01*
X75089562Y-67442081D01*
X75088187Y-67445402D01*
X75086266Y-67464911D01*
X75086266Y-67679399D01*
X75076844Y-67698244D01*
X75067016Y-67698244D01*
X75022707Y-67676089D01*
X75000552Y-67631779D01*
X75000552Y-67488518D01*
X75037614Y-67414395D01*
X75044620Y-67396086D01*
X75047386Y-67357166D01*
X75035047Y-67320150D01*
X75009482Y-67290673D01*
X74974584Y-67273224D01*
X74935664Y-67270459D01*
X74898648Y-67282797D01*
X74869171Y-67308362D01*
X74858728Y-67324952D01*
X74811109Y-67420190D01*
X74804103Y-67438498D01*
X74803848Y-67442081D01*
X74802473Y-67445402D01*
X74800552Y-67464911D01*
X74356108Y-67464911D01*
X74356108Y-66369673D01*
X74467219Y-66369673D01*
X74467219Y-66750625D01*
X74469140Y-66770134D01*
X74470515Y-66773454D01*
X74470770Y-66777038D01*
X74477776Y-66795346D01*
X74525395Y-66890584D01*
X74530680Y-66898980D01*
X74531691Y-66901420D01*
X74533944Y-66904166D01*
X74535838Y-66907174D01*
X74537832Y-66908903D01*
X74544127Y-66916574D01*
X74591746Y-66964192D01*
X74599412Y-66970484D01*
X74601145Y-66972482D01*
X74604153Y-66974375D01*
X74606899Y-66976629D01*
X74609339Y-66977639D01*
X74617736Y-66982925D01*
X74712973Y-67030544D01*
X74731282Y-67037550D01*
X74734865Y-67037804D01*
X74738186Y-67039180D01*
X74757695Y-67041101D01*
X74900552Y-67041101D01*
X74920061Y-67039180D01*
X74923381Y-67037804D01*
X74926965Y-67037550D01*
X74945273Y-67030544D01*
X75040511Y-66982925D01*
X75048907Y-66977639D01*
X75051347Y-66976629D01*
X75054093Y-66974375D01*
X75057101Y-66972482D01*
X75058830Y-66970487D01*
X75066501Y-66964193D01*
X75114119Y-66916574D01*
X75120411Y-66908907D01*
X75122409Y-66907175D01*
X75124302Y-66904166D01*
X75126556Y-66901421D01*
X75127566Y-66898980D01*
X75132852Y-66890584D01*
X75180471Y-66795347D01*
X75181347Y-66793056D01*
X75509873Y-67023024D01*
X75526957Y-67032638D01*
X75565052Y-67041078D01*
X75603476Y-67034297D01*
X75636381Y-67013328D01*
X75658756Y-66981363D01*
X75667196Y-66943269D01*
X75660415Y-66904844D01*
X75639446Y-66871939D01*
X75624565Y-66859178D01*
X75191028Y-66555702D01*
X75191028Y-66469673D01*
X75567219Y-66469673D01*
X75586728Y-66467752D01*
X75622776Y-66452820D01*
X75650366Y-66425230D01*
X75665298Y-66389182D01*
X75665298Y-66350164D01*
X75650366Y-66314116D01*
X75622776Y-66286526D01*
X75586728Y-66271594D01*
X75567219Y-66269673D01*
X74567219Y-66269673D01*
X74547710Y-66271594D01*
X74511662Y-66286526D01*
X74484072Y-66314116D01*
X74469140Y-66350164D01*
X74467219Y-66369673D01*
X74356108Y-66369673D01*
X74356108Y-66158562D01*
X75778330Y-66158562D01*
X75778330Y-80341905D01*
G37*
G36*
X63167219Y-79678996D02*
G01*
X63167219Y-79822258D01*
X63137414Y-79881867D01*
X63112746Y-79906534D01*
X63053135Y-79936341D01*
X62814635Y-79936341D01*
X62755025Y-79906536D01*
X62730357Y-79881867D01*
X62700552Y-79822257D01*
X62700552Y-79678996D01*
X62709975Y-79660151D01*
X63157796Y-79660151D01*
X63167219Y-79678996D01*
G37*
G36*
X63145064Y-78729924D02*
G01*
X63167219Y-78774234D01*
X63167219Y-78965115D01*
X63157797Y-78983960D01*
X62986266Y-78983960D01*
X62986266Y-78774234D01*
X63008421Y-78729924D01*
X63052730Y-78707770D01*
X63100754Y-78707770D01*
X63145064Y-78729924D01*
G37*
G36*
X63145064Y-75253732D02*
G01*
X63167219Y-75298042D01*
X63167219Y-75488923D01*
X63157797Y-75507768D01*
X62986266Y-75507768D01*
X62986266Y-75298042D01*
X63008421Y-75253732D01*
X63052730Y-75231578D01*
X63100754Y-75231578D01*
X63145064Y-75253732D01*
G37*
G36*
X63112746Y-74356622D02*
G01*
X63137414Y-74381289D01*
X63167219Y-74440899D01*
X63167219Y-74584161D01*
X63157797Y-74603006D01*
X62709975Y-74603006D01*
X62700552Y-74584160D01*
X62700552Y-74440899D01*
X62730357Y-74381289D01*
X62755025Y-74356620D01*
X62814635Y-74326816D01*
X63053135Y-74326816D01*
X63112746Y-74356622D01*
G37*
G36*
X63145064Y-73444208D02*
G01*
X63167219Y-73488518D01*
X63167219Y-73679399D01*
X63157797Y-73698244D01*
X62986266Y-73698244D01*
X62986266Y-73488518D01*
X63008421Y-73444208D01*
X63052730Y-73422054D01*
X63100754Y-73422054D01*
X63145064Y-73444208D01*
G37*
G36*
X62691028Y-72727018D02*
G01*
X62661223Y-72786627D01*
X62636554Y-72811295D01*
X62576945Y-72841101D01*
X62481302Y-72841101D01*
X62421692Y-72811296D01*
X62397024Y-72786627D01*
X62367219Y-72727017D01*
X62367219Y-72469673D01*
X62691028Y-72469673D01*
X62691028Y-72727018D01*
G37*
G36*
X63809742Y-80247452D02*
G01*
X62056108Y-80247452D01*
X62056108Y-79655389D01*
X62500552Y-79655389D01*
X62500552Y-79845865D01*
X62502473Y-79865374D01*
X62503848Y-79868694D01*
X62504103Y-79872278D01*
X62511109Y-79890586D01*
X62558728Y-79985824D01*
X62564013Y-79994220D01*
X62565024Y-79996660D01*
X62567277Y-79999406D01*
X62569171Y-80002414D01*
X62571165Y-80004143D01*
X62577460Y-80011814D01*
X62625079Y-80059432D01*
X62632745Y-80065724D01*
X62634478Y-80067722D01*
X62637486Y-80069615D01*
X62640232Y-80071869D01*
X62642672Y-80072879D01*
X62651069Y-80078165D01*
X62746306Y-80125784D01*
X62764615Y-80132790D01*
X62768198Y-80133044D01*
X62771519Y-80134420D01*
X62791028Y-80136341D01*
X63076742Y-80136341D01*
X63096251Y-80134420D01*
X63099571Y-80133044D01*
X63103155Y-80132790D01*
X63121463Y-80125784D01*
X63216701Y-80078165D01*
X63225093Y-80072881D01*
X63227537Y-80071870D01*
X63230286Y-80069613D01*
X63233291Y-80067722D01*
X63235020Y-80065727D01*
X63242690Y-80059433D01*
X63290310Y-80011815D01*
X63296603Y-80004146D01*
X63298600Y-80002415D01*
X63300493Y-79999406D01*
X63302747Y-79996661D01*
X63303757Y-79994220D01*
X63309043Y-79985824D01*
X63356662Y-79890587D01*
X63363668Y-79872278D01*
X63363922Y-79868694D01*
X63365298Y-79865374D01*
X63367219Y-79845865D01*
X63367219Y-79660151D01*
X63600552Y-79660151D01*
X63620061Y-79658230D01*
X63656109Y-79643298D01*
X63683699Y-79615708D01*
X63698631Y-79579660D01*
X63698631Y-79540642D01*
X63683699Y-79504594D01*
X63656109Y-79477004D01*
X63620061Y-79462072D01*
X63600552Y-79460151D01*
X62600552Y-79460151D01*
X62581043Y-79462072D01*
X62544995Y-79477004D01*
X62517405Y-79504594D01*
X62502473Y-79540642D01*
X62502473Y-79579660D01*
X62513410Y-79606064D01*
X62511109Y-79610668D01*
X62504103Y-79628976D01*
X62503848Y-79632559D01*
X62502473Y-79635880D01*
X62500552Y-79655389D01*
X62056108Y-79655389D01*
X62056108Y-78750627D01*
X62500552Y-78750627D01*
X62500552Y-78941103D01*
X62502473Y-78960612D01*
X62503848Y-78963932D01*
X62504103Y-78967516D01*
X62511109Y-78985824D01*
X62558728Y-79081062D01*
X62560781Y-79084325D01*
X62561295Y-79085864D01*
X62562957Y-79087780D01*
X62569171Y-79097652D01*
X62578641Y-79105865D01*
X62586859Y-79115341D01*
X62596732Y-79121555D01*
X62598648Y-79123217D01*
X62600186Y-79123729D01*
X62603450Y-79125784D01*
X62698687Y-79173403D01*
X62716996Y-79180409D01*
X62720579Y-79180663D01*
X62723900Y-79182039D01*
X62743409Y-79183960D01*
X63267219Y-79183960D01*
X63286728Y-79182039D01*
X63322776Y-79167107D01*
X63350366Y-79139517D01*
X63365298Y-79103469D01*
X63365298Y-79064451D01*
X63354360Y-79038046D01*
X63356662Y-79033444D01*
X63363668Y-79015135D01*
X63363922Y-79011551D01*
X63365298Y-79008231D01*
X63367219Y-78988722D01*
X63367219Y-78750627D01*
X63365298Y-78731118D01*
X63363922Y-78727797D01*
X63363668Y-78724214D01*
X63356662Y-78705905D01*
X63309043Y-78610668D01*
X63306989Y-78607405D01*
X63306476Y-78605865D01*
X63304812Y-78603947D01*
X63298600Y-78594077D01*
X63289125Y-78585860D01*
X63280911Y-78576389D01*
X63271039Y-78570175D01*
X63269123Y-78568513D01*
X63267584Y-78567999D01*
X63264321Y-78565946D01*
X63169082Y-78518327D01*
X63150773Y-78511321D01*
X63147190Y-78511066D01*
X63143870Y-78509691D01*
X63124361Y-78507770D01*
X63029123Y-78507770D01*
X63009614Y-78509691D01*
X63006293Y-78511066D01*
X63002710Y-78511321D01*
X62984401Y-78518327D01*
X62889164Y-78565946D01*
X62885900Y-78568000D01*
X62884362Y-78568513D01*
X62882446Y-78570174D01*
X62872573Y-78576389D01*
X62864355Y-78585864D01*
X62854885Y-78594078D01*
X62848671Y-78603949D01*
X62847009Y-78605866D01*
X62846495Y-78607404D01*
X62844442Y-78610668D01*
X62796823Y-78705906D01*
X62789817Y-78724214D01*
X62789562Y-78727797D01*
X62788187Y-78731118D01*
X62786266Y-78750627D01*
X62786266Y-78965115D01*
X62776844Y-78983960D01*
X62767016Y-78983960D01*
X62722707Y-78961805D01*
X62700552Y-78917495D01*
X62700552Y-78774234D01*
X62737614Y-78700111D01*
X62744620Y-78681802D01*
X62747386Y-78642882D01*
X62735047Y-78605866D01*
X62709482Y-78576389D01*
X62674584Y-78558940D01*
X62635664Y-78556175D01*
X62598648Y-78568513D01*
X62569171Y-78594078D01*
X62558728Y-78610668D01*
X62511109Y-78705906D01*
X62504103Y-78724214D01*
X62503848Y-78727797D01*
X62502473Y-78731118D01*
X62500552Y-78750627D01*
X62056108Y-78750627D01*
X62056108Y-78226817D01*
X62500552Y-78226817D01*
X62500552Y-78322055D01*
X62502473Y-78341564D01*
X62517405Y-78377612D01*
X62544995Y-78405202D01*
X62581043Y-78420134D01*
X62620061Y-78420134D01*
X62656109Y-78405202D01*
X62683699Y-78377612D01*
X62698631Y-78341564D01*
X62700552Y-78322055D01*
X62700552Y-78250424D01*
X62730357Y-78190814D01*
X62755025Y-78166145D01*
X62814635Y-78136341D01*
X63267219Y-78136341D01*
X63286728Y-78134420D01*
X63322776Y-78119488D01*
X63350366Y-78091898D01*
X63365298Y-78055850D01*
X63365298Y-78016832D01*
X63350366Y-77980784D01*
X63322776Y-77953194D01*
X63286728Y-77938262D01*
X63267219Y-77936341D01*
X62600552Y-77936341D01*
X62581043Y-77938262D01*
X62544995Y-77953194D01*
X62517405Y-77980784D01*
X62502473Y-78016832D01*
X62502473Y-78055850D01*
X62517405Y-78091898D01*
X62543273Y-78117766D01*
X62511109Y-78182096D01*
X62504103Y-78200404D01*
X62503848Y-78203987D01*
X62502473Y-78207308D01*
X62500552Y-78226817D01*
X62056108Y-78226817D01*
X62056108Y-77445403D01*
X62169140Y-77445403D01*
X62169140Y-77484421D01*
X62184072Y-77520469D01*
X62211662Y-77548059D01*
X62247710Y-77562991D01*
X62267219Y-77564912D01*
X62500552Y-77564912D01*
X62500552Y-77703007D01*
X62502473Y-77722516D01*
X62517405Y-77758564D01*
X62544995Y-77786154D01*
X62581043Y-77801086D01*
X62620061Y-77801086D01*
X62656109Y-77786154D01*
X62683699Y-77758564D01*
X62698631Y-77722516D01*
X62700552Y-77703007D01*
X62700552Y-77564912D01*
X63100754Y-77564912D01*
X63145064Y-77587066D01*
X63167219Y-77631376D01*
X63167219Y-77703007D01*
X63169140Y-77722516D01*
X63184072Y-77758564D01*
X63211662Y-77786154D01*
X63247710Y-77801086D01*
X63286728Y-77801086D01*
X63322776Y-77786154D01*
X63350366Y-77758564D01*
X63365298Y-77722516D01*
X63367219Y-77703007D01*
X63367219Y-77607769D01*
X63365298Y-77588260D01*
X63363922Y-77584939D01*
X63363668Y-77581356D01*
X63356662Y-77563047D01*
X63309043Y-77467810D01*
X63306989Y-77464547D01*
X63306476Y-77463007D01*
X63304812Y-77461089D01*
X63298600Y-77451219D01*
X63289125Y-77443002D01*
X63280911Y-77433531D01*
X63271039Y-77427317D01*
X63269123Y-77425655D01*
X63267584Y-77425141D01*
X63264321Y-77423088D01*
X63169082Y-77375469D01*
X63150773Y-77368463D01*
X63147190Y-77368208D01*
X63143870Y-77366833D01*
X63124361Y-77364912D01*
X62700552Y-77364912D01*
X62700552Y-77322055D01*
X62698631Y-77302546D01*
X62683699Y-77266498D01*
X62656109Y-77238908D01*
X62620061Y-77223976D01*
X62581043Y-77223976D01*
X62544995Y-77238908D01*
X62517405Y-77266498D01*
X62502473Y-77302546D01*
X62500552Y-77322055D01*
X62500552Y-77364912D01*
X62267219Y-77364912D01*
X62247710Y-77366833D01*
X62211662Y-77381765D01*
X62184072Y-77409355D01*
X62169140Y-77445403D01*
X62056108Y-77445403D01*
X62056108Y-76274435D01*
X62500552Y-76274435D01*
X62500552Y-76369673D01*
X62502473Y-76389182D01*
X62517405Y-76425230D01*
X62544995Y-76452820D01*
X62581043Y-76467752D01*
X62620061Y-76467752D01*
X62656109Y-76452820D01*
X62683699Y-76425230D01*
X62698631Y-76389182D01*
X62700552Y-76369673D01*
X62700552Y-76298042D01*
X62730357Y-76238432D01*
X62755025Y-76213763D01*
X62814635Y-76183959D01*
X63267219Y-76183959D01*
X63286728Y-76182038D01*
X63322776Y-76167106D01*
X63350366Y-76139516D01*
X63365298Y-76103468D01*
X63365298Y-76064450D01*
X63350366Y-76028402D01*
X63322776Y-76000812D01*
X63286728Y-75985880D01*
X63267219Y-75983959D01*
X62600552Y-75983959D01*
X62581043Y-75985880D01*
X62544995Y-76000812D01*
X62517405Y-76028402D01*
X62502473Y-76064450D01*
X62502473Y-76103468D01*
X62517405Y-76139516D01*
X62543273Y-76165384D01*
X62511109Y-76229714D01*
X62504103Y-76248022D01*
X62503848Y-76251605D01*
X62502473Y-76254926D01*
X62500552Y-76274435D01*
X62056108Y-76274435D01*
X62056108Y-75274435D01*
X62500552Y-75274435D01*
X62500552Y-75464911D01*
X62502473Y-75484420D01*
X62503848Y-75487740D01*
X62504103Y-75491324D01*
X62511109Y-75509632D01*
X62558728Y-75604870D01*
X62560781Y-75608133D01*
X62561295Y-75609672D01*
X62562957Y-75611588D01*
X62569171Y-75621460D01*
X62578641Y-75629673D01*
X62586859Y-75639149D01*
X62596732Y-75645363D01*
X62598648Y-75647025D01*
X62600186Y-75647537D01*
X62603450Y-75649592D01*
X62698687Y-75697211D01*
X62716996Y-75704217D01*
X62720579Y-75704471D01*
X62723900Y-75705847D01*
X62743409Y-75707768D01*
X63267219Y-75707768D01*
X63286728Y-75705847D01*
X63322776Y-75690915D01*
X63350366Y-75663325D01*
X63365298Y-75627277D01*
X63365298Y-75588259D01*
X63354360Y-75561854D01*
X63356662Y-75557252D01*
X63363668Y-75538943D01*
X63363922Y-75535359D01*
X63365298Y-75532039D01*
X63367219Y-75512530D01*
X63367219Y-75274435D01*
X63365298Y-75254926D01*
X63363922Y-75251605D01*
X63363668Y-75248022D01*
X63356662Y-75229713D01*
X63309043Y-75134476D01*
X63306989Y-75131213D01*
X63306476Y-75129673D01*
X63304812Y-75127755D01*
X63298600Y-75117885D01*
X63289125Y-75109668D01*
X63280911Y-75100197D01*
X63271039Y-75093983D01*
X63269123Y-75092321D01*
X63267584Y-75091807D01*
X63264321Y-75089754D01*
X63169082Y-75042135D01*
X63150773Y-75035129D01*
X63147190Y-75034874D01*
X63143870Y-75033499D01*
X63124361Y-75031578D01*
X63029123Y-75031578D01*
X63009614Y-75033499D01*
X63006293Y-75034874D01*
X63002710Y-75035129D01*
X62984401Y-75042135D01*
X62889164Y-75089754D01*
X62885900Y-75091808D01*
X62884362Y-75092321D01*
X62882446Y-75093982D01*
X62872573Y-75100197D01*
X62864355Y-75109672D01*
X62854885Y-75117886D01*
X62848671Y-75127757D01*
X62847009Y-75129674D01*
X62846495Y-75131212D01*
X62844442Y-75134476D01*
X62796823Y-75229714D01*
X62789817Y-75248022D01*
X62789562Y-75251605D01*
X62788187Y-75254926D01*
X62786266Y-75274435D01*
X62786266Y-75488923D01*
X62776844Y-75507768D01*
X62767016Y-75507768D01*
X62722707Y-75485613D01*
X62700552Y-75441303D01*
X62700552Y-75298042D01*
X62737614Y-75223919D01*
X62744620Y-75205610D01*
X62747386Y-75166690D01*
X62735047Y-75129674D01*
X62709482Y-75100197D01*
X62674584Y-75082748D01*
X62635664Y-75079983D01*
X62598648Y-75092321D01*
X62569171Y-75117886D01*
X62558728Y-75134476D01*
X62511109Y-75229714D01*
X62504103Y-75248022D01*
X62503848Y-75251605D01*
X62502473Y-75254926D01*
X62500552Y-75274435D01*
X62056108Y-75274435D01*
X62056108Y-74683497D01*
X62169140Y-74683497D01*
X62169140Y-74722515D01*
X62184072Y-74758563D01*
X62211662Y-74786153D01*
X62247710Y-74801085D01*
X62267219Y-74803006D01*
X63267219Y-74803006D01*
X63286728Y-74801085D01*
X63322776Y-74786153D01*
X63350366Y-74758563D01*
X63365298Y-74722515D01*
X63365298Y-74683497D01*
X63354360Y-74657092D01*
X63356662Y-74652490D01*
X63363668Y-74634181D01*
X63363922Y-74630597D01*
X63365298Y-74627277D01*
X63367219Y-74607768D01*
X63367219Y-74417292D01*
X63365298Y-74397783D01*
X63363922Y-74394462D01*
X63363668Y-74390879D01*
X63356662Y-74372570D01*
X63309043Y-74277333D01*
X63303757Y-74268936D01*
X63302747Y-74266496D01*
X63300493Y-74263750D01*
X63298600Y-74260742D01*
X63296603Y-74259010D01*
X63290310Y-74251342D01*
X63242690Y-74203724D01*
X63235020Y-74197429D01*
X63233291Y-74195435D01*
X63230286Y-74193543D01*
X63227537Y-74191287D01*
X63225093Y-74190275D01*
X63216701Y-74184992D01*
X63121463Y-74137373D01*
X63103155Y-74130367D01*
X63099571Y-74130112D01*
X63096251Y-74128737D01*
X63076742Y-74126816D01*
X62791028Y-74126816D01*
X62771519Y-74128737D01*
X62768198Y-74130112D01*
X62764615Y-74130367D01*
X62746306Y-74137373D01*
X62651069Y-74184992D01*
X62642672Y-74190277D01*
X62640232Y-74191288D01*
X62637486Y-74193541D01*
X62634478Y-74195435D01*
X62632745Y-74197432D01*
X62625079Y-74203725D01*
X62577460Y-74251343D01*
X62571165Y-74259013D01*
X62569171Y-74260743D01*
X62567277Y-74263750D01*
X62565024Y-74266497D01*
X62564013Y-74268936D01*
X62558728Y-74277333D01*
X62511109Y-74372571D01*
X62504103Y-74390879D01*
X62503848Y-74394462D01*
X62502473Y-74397783D01*
X62500552Y-74417292D01*
X62500552Y-74603006D01*
X62267219Y-74603006D01*
X62247710Y-74604927D01*
X62211662Y-74619859D01*
X62184072Y-74647449D01*
X62169140Y-74683497D01*
X62056108Y-74683497D01*
X62056108Y-73464911D01*
X62500552Y-73464911D01*
X62500552Y-73655387D01*
X62502473Y-73674896D01*
X62503848Y-73678216D01*
X62504103Y-73681800D01*
X62511109Y-73700108D01*
X62558728Y-73795346D01*
X62560781Y-73798609D01*
X62561295Y-73800148D01*
X62562957Y-73802064D01*
X62569171Y-73811936D01*
X62578641Y-73820149D01*
X62586859Y-73829625D01*
X62596732Y-73835839D01*
X62598648Y-73837501D01*
X62600186Y-73838013D01*
X62603450Y-73840068D01*
X62698687Y-73887687D01*
X62716996Y-73894693D01*
X62720579Y-73894947D01*
X62723900Y-73896323D01*
X62743409Y-73898244D01*
X63267219Y-73898244D01*
X63286728Y-73896323D01*
X63322776Y-73881391D01*
X63350366Y-73853801D01*
X63365298Y-73817753D01*
X63365298Y-73778735D01*
X63354360Y-73752330D01*
X63356662Y-73747728D01*
X63363668Y-73729419D01*
X63363922Y-73725835D01*
X63365298Y-73722515D01*
X63367219Y-73703006D01*
X63367219Y-73464911D01*
X63365298Y-73445402D01*
X63363922Y-73442081D01*
X63363668Y-73438498D01*
X63356662Y-73420189D01*
X63309043Y-73324952D01*
X63306989Y-73321689D01*
X63306476Y-73320149D01*
X63304812Y-73318231D01*
X63298600Y-73308361D01*
X63289125Y-73300144D01*
X63280911Y-73290673D01*
X63271039Y-73284459D01*
X63269123Y-73282797D01*
X63267584Y-73282283D01*
X63264321Y-73280230D01*
X63169082Y-73232611D01*
X63150773Y-73225605D01*
X63147190Y-73225350D01*
X63143870Y-73223975D01*
X63124361Y-73222054D01*
X63029123Y-73222054D01*
X63009614Y-73223975D01*
X63006293Y-73225350D01*
X63002710Y-73225605D01*
X62984401Y-73232611D01*
X62889164Y-73280230D01*
X62885900Y-73282284D01*
X62884362Y-73282797D01*
X62882446Y-73284458D01*
X62872573Y-73290673D01*
X62864355Y-73300148D01*
X62854885Y-73308362D01*
X62848671Y-73318233D01*
X62847009Y-73320150D01*
X62846495Y-73321688D01*
X62844442Y-73324952D01*
X62796823Y-73420190D01*
X62789817Y-73438498D01*
X62789562Y-73442081D01*
X62788187Y-73445402D01*
X62786266Y-73464911D01*
X62786266Y-73679399D01*
X62776844Y-73698244D01*
X62767016Y-73698244D01*
X62722707Y-73676089D01*
X62700552Y-73631779D01*
X62700552Y-73488518D01*
X62737614Y-73414395D01*
X62744620Y-73396086D01*
X62747386Y-73357166D01*
X62735047Y-73320150D01*
X62709482Y-73290673D01*
X62674584Y-73273224D01*
X62635664Y-73270459D01*
X62598648Y-73282797D01*
X62569171Y-73308362D01*
X62558728Y-73324952D01*
X62511109Y-73420190D01*
X62504103Y-73438498D01*
X62503848Y-73442081D01*
X62502473Y-73445402D01*
X62500552Y-73464911D01*
X62056108Y-73464911D01*
X62056108Y-72369673D01*
X62167219Y-72369673D01*
X62167219Y-72750625D01*
X62169140Y-72770134D01*
X62170515Y-72773454D01*
X62170770Y-72777038D01*
X62177776Y-72795346D01*
X62225395Y-72890584D01*
X62230680Y-72898980D01*
X62231691Y-72901420D01*
X62233944Y-72904166D01*
X62235838Y-72907174D01*
X62237832Y-72908903D01*
X62244127Y-72916574D01*
X62291746Y-72964192D01*
X62299412Y-72970484D01*
X62301145Y-72972482D01*
X62304153Y-72974375D01*
X62306899Y-72976629D01*
X62309339Y-72977639D01*
X62317736Y-72982925D01*
X62412973Y-73030544D01*
X62431282Y-73037550D01*
X62434865Y-73037804D01*
X62438186Y-73039180D01*
X62457695Y-73041101D01*
X62600552Y-73041101D01*
X62620061Y-73039180D01*
X62623381Y-73037804D01*
X62626965Y-73037550D01*
X62645273Y-73030544D01*
X62740511Y-72982925D01*
X62748907Y-72977639D01*
X62751347Y-72976629D01*
X62754093Y-72974375D01*
X62757101Y-72972482D01*
X62758830Y-72970487D01*
X62766501Y-72964193D01*
X62814119Y-72916574D01*
X62820411Y-72908907D01*
X62822409Y-72907175D01*
X62824302Y-72904166D01*
X62826556Y-72901421D01*
X62827566Y-72898980D01*
X62832852Y-72890584D01*
X62880471Y-72795347D01*
X62881347Y-72793056D01*
X63209873Y-73023024D01*
X63226957Y-73032638D01*
X63265052Y-73041078D01*
X63303476Y-73034297D01*
X63336381Y-73013328D01*
X63358756Y-72981363D01*
X63367196Y-72943269D01*
X63360415Y-72904844D01*
X63339446Y-72871939D01*
X63324565Y-72859178D01*
X62891028Y-72555702D01*
X62891028Y-72469673D01*
X63267219Y-72469673D01*
X63286728Y-72467752D01*
X63322776Y-72452820D01*
X63350366Y-72425230D01*
X63365298Y-72389182D01*
X63365298Y-72350164D01*
X63350366Y-72314116D01*
X63322776Y-72286526D01*
X63286728Y-72271594D01*
X63267219Y-72269673D01*
X62267219Y-72269673D01*
X62247710Y-72271594D01*
X62211662Y-72286526D01*
X62184072Y-72314116D01*
X62169140Y-72350164D01*
X62167219Y-72369673D01*
X62056108Y-72369673D01*
X62056108Y-72158562D01*
X63809742Y-72158562D01*
X63809742Y-80247452D01*
G37*
G36*
X70767219Y-79093282D02*
G01*
X70767219Y-79236544D01*
X70737414Y-79296153D01*
X70712746Y-79320820D01*
X70653135Y-79350627D01*
X70414635Y-79350627D01*
X70355025Y-79320822D01*
X70330357Y-79296153D01*
X70300552Y-79236543D01*
X70300552Y-79093282D01*
X70309975Y-79074437D01*
X70757796Y-79074437D01*
X70767219Y-79093282D01*
G37*
G36*
X70357607Y-76298302D02*
G01*
X70322707Y-76280852D01*
X70300552Y-76236542D01*
X70300552Y-76093281D01*
X70322707Y-76048971D01*
X70367016Y-76026817D01*
X70411905Y-76026817D01*
X70357607Y-76298302D01*
G37*
G36*
X70357607Y-71012587D02*
G01*
X70322707Y-70995137D01*
X70300552Y-70950827D01*
X70300552Y-70807566D01*
X70322707Y-70763256D01*
X70367016Y-70741102D01*
X70411905Y-70741102D01*
X70357607Y-71012587D01*
G37*
G36*
X70745064Y-68953732D02*
G01*
X70767219Y-68998042D01*
X70767219Y-69188923D01*
X70757797Y-69207768D01*
X70586266Y-69207768D01*
X70586266Y-68998042D01*
X70608421Y-68953732D01*
X70652730Y-68931578D01*
X70700754Y-68931578D01*
X70745064Y-68953732D01*
G37*
G36*
X71409742Y-80326484D02*
G01*
X69656108Y-80326484D01*
X69656108Y-79859690D01*
X69769140Y-79859690D01*
X69769140Y-79898708D01*
X69784072Y-79934756D01*
X69811662Y-79962346D01*
X69847710Y-79977278D01*
X69867219Y-79979199D01*
X70100552Y-79979199D01*
X70100552Y-80117294D01*
X70102473Y-80136803D01*
X70117405Y-80172851D01*
X70144995Y-80200441D01*
X70181043Y-80215373D01*
X70220061Y-80215373D01*
X70256109Y-80200441D01*
X70283699Y-80172851D01*
X70298631Y-80136803D01*
X70300552Y-80117294D01*
X70300552Y-79979199D01*
X70700754Y-79979199D01*
X70745064Y-80001353D01*
X70767219Y-80045663D01*
X70767219Y-80117294D01*
X70769140Y-80136803D01*
X70784072Y-80172851D01*
X70811662Y-80200441D01*
X70847710Y-80215373D01*
X70886728Y-80215373D01*
X70922776Y-80200441D01*
X70950366Y-80172851D01*
X70965298Y-80136803D01*
X70967219Y-80117294D01*
X70967219Y-80022056D01*
X70965298Y-80002547D01*
X70963922Y-79999226D01*
X70963668Y-79995643D01*
X70956662Y-79977334D01*
X70909043Y-79882097D01*
X70906989Y-79878834D01*
X70906476Y-79877294D01*
X70904812Y-79875376D01*
X70898600Y-79865506D01*
X70889125Y-79857289D01*
X70880911Y-79847818D01*
X70871039Y-79841604D01*
X70869123Y-79839942D01*
X70867584Y-79839428D01*
X70864321Y-79837375D01*
X70769082Y-79789756D01*
X70750773Y-79782750D01*
X70747190Y-79782495D01*
X70743870Y-79781120D01*
X70724361Y-79779199D01*
X70300552Y-79779199D01*
X70300552Y-79736342D01*
X70298631Y-79716833D01*
X70283699Y-79680785D01*
X70256109Y-79653195D01*
X70220061Y-79638263D01*
X70181043Y-79638263D01*
X70144995Y-79653195D01*
X70117405Y-79680785D01*
X70102473Y-79716833D01*
X70100552Y-79736342D01*
X70100552Y-79779199D01*
X69867219Y-79779199D01*
X69847710Y-79781120D01*
X69811662Y-79796052D01*
X69784072Y-79823642D01*
X69769140Y-79859690D01*
X69656108Y-79859690D01*
X69656108Y-79069675D01*
X70100552Y-79069675D01*
X70100552Y-79260151D01*
X70102473Y-79279660D01*
X70103848Y-79282980D01*
X70104103Y-79286564D01*
X70111109Y-79304872D01*
X70158728Y-79400110D01*
X70164013Y-79408506D01*
X70165024Y-79410946D01*
X70167277Y-79413692D01*
X70169171Y-79416700D01*
X70171165Y-79418429D01*
X70177460Y-79426100D01*
X70225079Y-79473718D01*
X70232745Y-79480010D01*
X70234478Y-79482008D01*
X70237486Y-79483901D01*
X70240232Y-79486155D01*
X70242672Y-79487165D01*
X70251069Y-79492451D01*
X70346306Y-79540070D01*
X70364615Y-79547076D01*
X70368198Y-79547330D01*
X70371519Y-79548706D01*
X70391028Y-79550627D01*
X70676742Y-79550627D01*
X70696251Y-79548706D01*
X70699571Y-79547330D01*
X70703155Y-79547076D01*
X70721463Y-79540070D01*
X70816701Y-79492451D01*
X70825093Y-79487167D01*
X70827537Y-79486156D01*
X70830286Y-79483899D01*
X70833291Y-79482008D01*
X70835020Y-79480013D01*
X70842690Y-79473719D01*
X70890310Y-79426101D01*
X70896603Y-79418432D01*
X70898600Y-79416701D01*
X70900493Y-79413692D01*
X70902747Y-79410947D01*
X70903757Y-79408506D01*
X70909043Y-79400110D01*
X70956662Y-79304873D01*
X70963668Y-79286564D01*
X70963922Y-79282980D01*
X70965298Y-79279660D01*
X70967219Y-79260151D01*
X70967219Y-79074437D01*
X71200552Y-79074437D01*
X71220061Y-79072516D01*
X71256109Y-79057584D01*
X71283699Y-79029994D01*
X71298631Y-78993946D01*
X71298631Y-78954928D01*
X71283699Y-78918880D01*
X71256109Y-78891290D01*
X71220061Y-78876358D01*
X71200552Y-78874437D01*
X70200552Y-78874437D01*
X70181043Y-78876358D01*
X70144995Y-78891290D01*
X70117405Y-78918880D01*
X70102473Y-78954928D01*
X70102473Y-78993946D01*
X70113410Y-79020350D01*
X70111109Y-79024954D01*
X70104103Y-79043262D01*
X70103848Y-79046845D01*
X70102473Y-79050166D01*
X70100552Y-79069675D01*
X69656108Y-79069675D01*
X69656108Y-78050166D01*
X70102473Y-78050166D01*
X70102473Y-78089184D01*
X70117405Y-78125232D01*
X70144995Y-78152822D01*
X70181043Y-78167754D01*
X70200552Y-78169675D01*
X70700754Y-78169675D01*
X70745064Y-78191829D01*
X70767219Y-78236139D01*
X70767219Y-78331782D01*
X70737414Y-78391391D01*
X70730560Y-78398246D01*
X70200552Y-78398246D01*
X70181043Y-78400167D01*
X70144995Y-78415099D01*
X70117405Y-78442689D01*
X70102473Y-78478737D01*
X70102473Y-78517755D01*
X70117405Y-78553803D01*
X70144995Y-78581393D01*
X70181043Y-78596325D01*
X70200552Y-78598246D01*
X70867219Y-78598246D01*
X70886728Y-78596325D01*
X70922776Y-78581393D01*
X70950366Y-78553803D01*
X70965298Y-78517755D01*
X70965298Y-78478737D01*
X70950366Y-78442689D01*
X70940370Y-78432693D01*
X70956662Y-78400111D01*
X70963668Y-78381802D01*
X70963922Y-78378218D01*
X70965298Y-78374898D01*
X70967219Y-78355389D01*
X70967219Y-78212532D01*
X70965298Y-78193023D01*
X70963922Y-78189702D01*
X70963668Y-78186119D01*
X70956662Y-78167810D01*
X70909043Y-78072573D01*
X70906989Y-78069310D01*
X70906476Y-78067770D01*
X70904812Y-78065852D01*
X70898600Y-78055982D01*
X70889125Y-78047765D01*
X70880911Y-78038294D01*
X70871039Y-78032080D01*
X70869123Y-78030418D01*
X70867584Y-78029904D01*
X70864321Y-78027851D01*
X70769082Y-77980232D01*
X70750773Y-77973226D01*
X70747190Y-77972971D01*
X70743870Y-77971596D01*
X70724361Y-77969675D01*
X70200552Y-77969675D01*
X70181043Y-77971596D01*
X70144995Y-77986528D01*
X70117405Y-78014118D01*
X70102473Y-78050166D01*
X69656108Y-78050166D01*
X69656108Y-77641103D01*
X70100552Y-77641103D01*
X70100552Y-77736341D01*
X70102473Y-77755850D01*
X70117405Y-77791898D01*
X70144995Y-77819488D01*
X70181043Y-77834420D01*
X70220061Y-77834420D01*
X70256109Y-77819488D01*
X70283699Y-77791898D01*
X70298631Y-77755850D01*
X70300552Y-77736341D01*
X70300552Y-77664710D01*
X70330357Y-77605100D01*
X70355025Y-77580431D01*
X70414635Y-77550627D01*
X70867219Y-77550627D01*
X70886728Y-77548706D01*
X70922776Y-77533774D01*
X70950366Y-77506184D01*
X70965298Y-77470136D01*
X70965298Y-77431118D01*
X70950366Y-77395070D01*
X70922776Y-77367480D01*
X70886728Y-77352548D01*
X70867219Y-77350627D01*
X70200552Y-77350627D01*
X70181043Y-77352548D01*
X70144995Y-77367480D01*
X70117405Y-77395070D01*
X70102473Y-77431118D01*
X70102473Y-77470136D01*
X70117405Y-77506184D01*
X70143273Y-77532052D01*
X70111109Y-77596382D01*
X70104103Y-77614690D01*
X70103848Y-77618273D01*
X70102473Y-77621594D01*
X70100552Y-77641103D01*
X69656108Y-77641103D01*
X69656108Y-77022055D01*
X70100552Y-77022055D01*
X70100552Y-77117293D01*
X70102473Y-77136802D01*
X70117405Y-77172850D01*
X70144995Y-77200440D01*
X70181043Y-77215372D01*
X70220061Y-77215372D01*
X70256109Y-77200440D01*
X70283699Y-77172850D01*
X70298631Y-77136802D01*
X70300552Y-77117293D01*
X70300552Y-77045662D01*
X70330357Y-76986052D01*
X70355025Y-76961383D01*
X70414635Y-76931579D01*
X70867219Y-76931579D01*
X70886728Y-76929658D01*
X70922776Y-76914726D01*
X70950366Y-76887136D01*
X70965298Y-76851088D01*
X70965298Y-76812070D01*
X70950366Y-76776022D01*
X70922776Y-76748432D01*
X70886728Y-76733500D01*
X70867219Y-76731579D01*
X70200552Y-76731579D01*
X70181043Y-76733500D01*
X70144995Y-76748432D01*
X70117405Y-76776022D01*
X70102473Y-76812070D01*
X70102473Y-76851088D01*
X70117405Y-76887136D01*
X70143273Y-76913004D01*
X70111109Y-76977334D01*
X70104103Y-76995642D01*
X70103848Y-76999225D01*
X70102473Y-77002546D01*
X70100552Y-77022055D01*
X69656108Y-77022055D01*
X69656108Y-76069674D01*
X70100552Y-76069674D01*
X70100552Y-76260150D01*
X70102473Y-76279659D01*
X70103848Y-76282979D01*
X70104103Y-76286563D01*
X70111109Y-76304871D01*
X70158728Y-76400109D01*
X70160781Y-76403372D01*
X70161295Y-76404911D01*
X70162957Y-76406827D01*
X70169171Y-76416699D01*
X70178641Y-76424912D01*
X70186859Y-76434388D01*
X70196732Y-76440602D01*
X70198648Y-76442264D01*
X70200186Y-76442776D01*
X70203450Y-76444831D01*
X70298687Y-76492450D01*
X70316996Y-76499456D01*
X70320579Y-76499710D01*
X70323900Y-76501086D01*
X70343409Y-76503007D01*
X70438542Y-76503007D01*
X70438647Y-76503007D01*
X70458156Y-76501086D01*
X70467208Y-76497336D01*
X70476819Y-76495435D01*
X70485057Y-76489942D01*
X70494204Y-76486154D01*
X70501130Y-76479227D01*
X70509284Y-76473792D01*
X70514794Y-76465563D01*
X70521794Y-76458564D01*
X70525543Y-76449512D01*
X70530995Y-76441372D01*
X70536705Y-76422619D01*
X70615865Y-76026817D01*
X70700754Y-76026817D01*
X70745064Y-76048971D01*
X70767219Y-76093281D01*
X70767219Y-76236543D01*
X70730157Y-76310667D01*
X70723151Y-76328975D01*
X70720385Y-76367895D01*
X70732724Y-76404911D01*
X70758288Y-76434388D01*
X70793187Y-76451837D01*
X70832107Y-76454603D01*
X70869123Y-76442264D01*
X70898600Y-76416700D01*
X70909043Y-76400109D01*
X70956662Y-76304872D01*
X70963668Y-76286563D01*
X70963922Y-76282979D01*
X70965298Y-76279659D01*
X70967219Y-76260150D01*
X70967219Y-76069674D01*
X70965298Y-76050165D01*
X70963922Y-76046844D01*
X70963668Y-76043261D01*
X70956662Y-76024952D01*
X70909043Y-75929715D01*
X70906989Y-75926452D01*
X70906476Y-75924912D01*
X70904812Y-75922994D01*
X70898600Y-75913124D01*
X70889125Y-75904907D01*
X70880911Y-75895436D01*
X70871039Y-75889222D01*
X70869123Y-75887560D01*
X70867584Y-75887046D01*
X70864321Y-75884993D01*
X70769082Y-75837374D01*
X70750773Y-75830368D01*
X70747190Y-75830113D01*
X70743870Y-75828738D01*
X70724361Y-75826817D01*
X70343409Y-75826817D01*
X70323900Y-75828738D01*
X70320579Y-75830113D01*
X70316996Y-75830368D01*
X70298687Y-75837374D01*
X70203450Y-75884993D01*
X70200186Y-75887047D01*
X70198648Y-75887560D01*
X70196732Y-75889221D01*
X70186859Y-75895436D01*
X70178641Y-75904911D01*
X70169171Y-75913125D01*
X70162957Y-75922996D01*
X70161295Y-75924913D01*
X70160781Y-75926451D01*
X70158728Y-75929715D01*
X70111109Y-76024953D01*
X70104103Y-76043261D01*
X70103848Y-76046844D01*
X70102473Y-76050165D01*
X70100552Y-76069674D01*
X69656108Y-76069674D01*
X69656108Y-75383498D01*
X69769140Y-75383498D01*
X69769140Y-75422516D01*
X69784072Y-75458564D01*
X69811662Y-75486154D01*
X69847710Y-75501086D01*
X69867219Y-75503007D01*
X70100552Y-75503007D01*
X70100552Y-75641102D01*
X70102473Y-75660611D01*
X70117405Y-75696659D01*
X70144995Y-75724249D01*
X70181043Y-75739181D01*
X70220061Y-75739181D01*
X70256109Y-75724249D01*
X70283699Y-75696659D01*
X70298631Y-75660611D01*
X70300552Y-75641102D01*
X70300552Y-75503007D01*
X70700754Y-75503007D01*
X70745064Y-75525161D01*
X70767219Y-75569471D01*
X70767219Y-75641102D01*
X70769140Y-75660611D01*
X70784072Y-75696659D01*
X70811662Y-75724249D01*
X70847710Y-75739181D01*
X70886728Y-75739181D01*
X70922776Y-75724249D01*
X70950366Y-75696659D01*
X70965298Y-75660611D01*
X70967219Y-75641102D01*
X70967219Y-75545864D01*
X70965298Y-75526355D01*
X70963922Y-75523034D01*
X70963668Y-75519451D01*
X70956662Y-75501142D01*
X70909043Y-75405905D01*
X70906989Y-75402642D01*
X70906476Y-75401102D01*
X70904812Y-75399184D01*
X70898600Y-75389314D01*
X70889125Y-75381097D01*
X70880911Y-75371626D01*
X70871039Y-75365412D01*
X70869123Y-75363750D01*
X70867584Y-75363236D01*
X70864321Y-75361183D01*
X70769082Y-75313564D01*
X70750773Y-75306558D01*
X70747190Y-75306303D01*
X70743870Y-75304928D01*
X70724361Y-75303007D01*
X70300552Y-75303007D01*
X70300552Y-75260150D01*
X70298631Y-75240641D01*
X70283699Y-75204593D01*
X70256109Y-75177003D01*
X70220061Y-75162071D01*
X70181043Y-75162071D01*
X70144995Y-75177003D01*
X70117405Y-75204593D01*
X70102473Y-75240641D01*
X70100552Y-75260150D01*
X70100552Y-75303007D01*
X69867219Y-75303007D01*
X69847710Y-75304928D01*
X69811662Y-75319860D01*
X69784072Y-75347450D01*
X69769140Y-75383498D01*
X69656108Y-75383498D01*
X69656108Y-74641102D01*
X70100552Y-74641102D01*
X70100552Y-74783959D01*
X70102473Y-74803468D01*
X70103848Y-74806788D01*
X70104103Y-74810372D01*
X70111109Y-74828680D01*
X70158728Y-74923918D01*
X70160781Y-74927181D01*
X70161295Y-74928720D01*
X70162957Y-74930636D01*
X70169171Y-74940508D01*
X70178641Y-74948721D01*
X70186859Y-74958197D01*
X70196732Y-74964411D01*
X70198648Y-74966073D01*
X70200186Y-74966585D01*
X70203450Y-74968640D01*
X70298687Y-75016259D01*
X70316996Y-75023265D01*
X70320579Y-75023519D01*
X70323900Y-75024895D01*
X70343409Y-75026816D01*
X70867219Y-75026816D01*
X70886728Y-75024895D01*
X70922776Y-75009963D01*
X70950366Y-74982373D01*
X70965298Y-74946325D01*
X70965298Y-74907307D01*
X70950366Y-74871259D01*
X70922776Y-74843669D01*
X70886728Y-74828737D01*
X70867219Y-74826816D01*
X70367016Y-74826816D01*
X70322707Y-74804661D01*
X70300552Y-74760351D01*
X70300552Y-74664709D01*
X70330357Y-74605099D01*
X70337212Y-74598245D01*
X70867219Y-74598245D01*
X70886728Y-74596324D01*
X70922776Y-74581392D01*
X70950366Y-74553802D01*
X70965298Y-74517754D01*
X70965298Y-74478736D01*
X70950366Y-74442688D01*
X70922776Y-74415098D01*
X70886728Y-74400166D01*
X70867219Y-74398245D01*
X70200552Y-74398245D01*
X70181043Y-74400166D01*
X70144995Y-74415098D01*
X70117405Y-74442688D01*
X70102473Y-74478736D01*
X70102473Y-74517754D01*
X70117405Y-74553802D01*
X70127400Y-74563797D01*
X70111109Y-74596381D01*
X70104103Y-74614689D01*
X70103848Y-74618272D01*
X70102473Y-74621593D01*
X70100552Y-74641102D01*
X69656108Y-74641102D01*
X69656108Y-74002546D01*
X69769140Y-74002546D01*
X69769140Y-74041564D01*
X69784072Y-74077612D01*
X69796508Y-74092766D01*
X69844127Y-74140384D01*
X69859280Y-74152821D01*
X69869838Y-74157194D01*
X69895329Y-74167753D01*
X69934347Y-74167753D01*
X69970395Y-74152821D01*
X69985549Y-74140385D01*
X70033167Y-74092766D01*
X70045604Y-74077613D01*
X70056973Y-74050165D01*
X70060536Y-74041564D01*
X70060536Y-74002546D01*
X70102473Y-74002546D01*
X70102473Y-74041564D01*
X70117405Y-74077612D01*
X70144995Y-74105202D01*
X70181043Y-74120134D01*
X70200552Y-74122055D01*
X70867219Y-74122055D01*
X70886728Y-74120134D01*
X70922776Y-74105202D01*
X70950366Y-74077612D01*
X70965298Y-74041564D01*
X70965298Y-74002546D01*
X70950366Y-73966498D01*
X70922776Y-73938908D01*
X70886728Y-73923976D01*
X70867219Y-73922055D01*
X70200552Y-73922055D01*
X70181043Y-73923976D01*
X70144995Y-73938908D01*
X70117405Y-73966498D01*
X70102473Y-74002546D01*
X70060536Y-74002546D01*
X70045604Y-73966498D01*
X70045604Y-73966497D01*
X70033167Y-73951344D01*
X69985549Y-73903725D01*
X69970395Y-73891289D01*
X69934347Y-73876357D01*
X69895329Y-73876357D01*
X69869838Y-73886915D01*
X69859280Y-73891289D01*
X69844127Y-73903726D01*
X69796508Y-73951344D01*
X69784073Y-73966497D01*
X69784072Y-73966498D01*
X69769140Y-74002546D01*
X69656108Y-74002546D01*
X69656108Y-72403007D01*
X69767219Y-72403007D01*
X69767219Y-72641102D01*
X69769140Y-72660611D01*
X69770515Y-72663931D01*
X69770770Y-72667515D01*
X69777776Y-72685823D01*
X69825395Y-72781061D01*
X69830680Y-72789457D01*
X69831691Y-72791897D01*
X69833944Y-72794643D01*
X69835838Y-72797651D01*
X69837832Y-72799380D01*
X69844127Y-72807051D01*
X69891746Y-72854669D01*
X69899412Y-72860961D01*
X69901145Y-72862959D01*
X69904153Y-72864852D01*
X69906899Y-72867106D01*
X69909339Y-72868116D01*
X69917736Y-72873402D01*
X70012973Y-72921021D01*
X70031282Y-72928027D01*
X70034865Y-72928281D01*
X70038186Y-72929657D01*
X70057695Y-72931578D01*
X70152933Y-72931578D01*
X70162806Y-72930605D01*
X70165440Y-72930793D01*
X70168903Y-72930005D01*
X70172442Y-72929657D01*
X70174884Y-72928645D01*
X70184556Y-72926446D01*
X70327412Y-72878827D01*
X70345313Y-72870836D01*
X70348028Y-72868480D01*
X70351347Y-72867106D01*
X70366501Y-72854670D01*
X70767219Y-72453952D01*
X70767219Y-72831578D01*
X70769140Y-72851087D01*
X70784072Y-72887135D01*
X70811662Y-72914725D01*
X70847710Y-72929657D01*
X70886728Y-72929657D01*
X70922776Y-72914725D01*
X70950366Y-72887135D01*
X70965298Y-72851087D01*
X70967219Y-72831578D01*
X70967219Y-72212531D01*
X70965298Y-72193022D01*
X70950366Y-72156974D01*
X70922776Y-72129384D01*
X70886728Y-72114452D01*
X70847710Y-72114452D01*
X70811662Y-72129384D01*
X70796508Y-72141820D01*
X70241770Y-72696556D01*
X70136706Y-72731578D01*
X70081302Y-72731578D01*
X70021692Y-72701773D01*
X69997024Y-72677104D01*
X69967219Y-72617494D01*
X69967219Y-72426614D01*
X69997024Y-72367004D01*
X70033167Y-72330861D01*
X70045604Y-72315708D01*
X70060535Y-72279659D01*
X70060535Y-72240641D01*
X70045604Y-72204593D01*
X70018014Y-72177003D01*
X69981966Y-72162072D01*
X69942948Y-72162072D01*
X69906899Y-72177003D01*
X69891746Y-72189440D01*
X69844127Y-72237058D01*
X69837832Y-72244728D01*
X69835838Y-72246458D01*
X69833944Y-72249465D01*
X69831691Y-72252212D01*
X69830680Y-72254651D01*
X69825395Y-72263048D01*
X69777776Y-72358286D01*
X69770770Y-72376594D01*
X69770515Y-72380177D01*
X69769140Y-72383498D01*
X69767219Y-72403007D01*
X69656108Y-72403007D01*
X69656108Y-70783959D01*
X70100552Y-70783959D01*
X70100552Y-70974435D01*
X70102473Y-70993944D01*
X70103848Y-70997264D01*
X70104103Y-71000848D01*
X70111109Y-71019156D01*
X70158728Y-71114394D01*
X70160781Y-71117657D01*
X70161295Y-71119196D01*
X70162957Y-71121112D01*
X70169171Y-71130984D01*
X70178641Y-71139197D01*
X70186859Y-71148673D01*
X70196732Y-71154887D01*
X70198648Y-71156549D01*
X70200186Y-71157061D01*
X70203450Y-71159116D01*
X70298687Y-71206735D01*
X70316996Y-71213741D01*
X70320579Y-71213995D01*
X70323900Y-71215371D01*
X70343409Y-71217292D01*
X70438542Y-71217292D01*
X70438647Y-71217292D01*
X70458156Y-71215371D01*
X70467208Y-71211621D01*
X70476819Y-71209720D01*
X70485057Y-71204227D01*
X70494204Y-71200439D01*
X70501130Y-71193512D01*
X70509284Y-71188077D01*
X70514794Y-71179848D01*
X70521794Y-71172849D01*
X70525543Y-71163797D01*
X70530995Y-71155657D01*
X70536705Y-71136904D01*
X70615865Y-70741102D01*
X70700754Y-70741102D01*
X70745064Y-70763256D01*
X70767219Y-70807566D01*
X70767219Y-70950828D01*
X70730157Y-71024952D01*
X70723151Y-71043260D01*
X70720385Y-71082180D01*
X70732724Y-71119196D01*
X70758288Y-71148673D01*
X70793187Y-71166122D01*
X70832107Y-71168888D01*
X70869123Y-71156549D01*
X70898600Y-71130985D01*
X70909043Y-71114394D01*
X70956662Y-71019157D01*
X70963668Y-71000848D01*
X70963922Y-70997264D01*
X70965298Y-70993944D01*
X70967219Y-70974435D01*
X70967219Y-70783959D01*
X70965298Y-70764450D01*
X70963922Y-70761129D01*
X70963668Y-70757546D01*
X70956662Y-70739237D01*
X70909043Y-70644000D01*
X70906989Y-70640737D01*
X70906476Y-70639197D01*
X70904812Y-70637279D01*
X70898600Y-70627409D01*
X70889125Y-70619192D01*
X70880911Y-70609721D01*
X70871039Y-70603507D01*
X70869123Y-70601845D01*
X70867584Y-70601331D01*
X70864321Y-70599278D01*
X70769082Y-70551659D01*
X70750773Y-70544653D01*
X70747190Y-70544398D01*
X70743870Y-70543023D01*
X70724361Y-70541102D01*
X70343409Y-70541102D01*
X70323900Y-70543023D01*
X70320579Y-70544398D01*
X70316996Y-70544653D01*
X70298687Y-70551659D01*
X70203450Y-70599278D01*
X70200186Y-70601332D01*
X70198648Y-70601845D01*
X70196732Y-70603506D01*
X70186859Y-70609721D01*
X70178641Y-70619196D01*
X70169171Y-70627410D01*
X70162957Y-70637281D01*
X70161295Y-70639198D01*
X70160781Y-70640736D01*
X70158728Y-70644000D01*
X70111109Y-70739238D01*
X70104103Y-70757546D01*
X70103848Y-70761129D01*
X70102473Y-70764450D01*
X70100552Y-70783959D01*
X69656108Y-70783959D01*
X69656108Y-69926816D01*
X70100552Y-69926816D01*
X70100552Y-70069673D01*
X70102473Y-70089182D01*
X70103848Y-70092502D01*
X70104103Y-70096086D01*
X70111109Y-70114394D01*
X70158728Y-70209632D01*
X70160781Y-70212895D01*
X70161295Y-70214434D01*
X70162957Y-70216350D01*
X70169171Y-70226222D01*
X70178641Y-70234435D01*
X70186859Y-70243911D01*
X70196732Y-70250125D01*
X70198648Y-70251787D01*
X70200186Y-70252299D01*
X70203450Y-70254354D01*
X70298687Y-70301973D01*
X70316996Y-70308979D01*
X70320579Y-70309233D01*
X70323900Y-70310609D01*
X70343409Y-70312530D01*
X70867219Y-70312530D01*
X70886728Y-70310609D01*
X70922776Y-70295677D01*
X70950366Y-70268087D01*
X70965298Y-70232039D01*
X70965298Y-70193021D01*
X70950366Y-70156973D01*
X70922776Y-70129383D01*
X70886728Y-70114451D01*
X70867219Y-70112530D01*
X70367016Y-70112530D01*
X70322707Y-70090375D01*
X70300552Y-70046065D01*
X70300552Y-69950423D01*
X70330357Y-69890813D01*
X70337212Y-69883959D01*
X70867219Y-69883959D01*
X70886728Y-69882038D01*
X70922776Y-69867106D01*
X70950366Y-69839516D01*
X70965298Y-69803468D01*
X70965298Y-69764450D01*
X70950366Y-69728402D01*
X70922776Y-69700812D01*
X70886728Y-69685880D01*
X70867219Y-69683959D01*
X70200552Y-69683959D01*
X70181043Y-69685880D01*
X70144995Y-69700812D01*
X70117405Y-69728402D01*
X70102473Y-69764450D01*
X70102473Y-69803468D01*
X70117405Y-69839516D01*
X70127400Y-69849511D01*
X70111109Y-69882095D01*
X70104103Y-69900403D01*
X70103848Y-69903986D01*
X70102473Y-69907307D01*
X70100552Y-69926816D01*
X69656108Y-69926816D01*
X69656108Y-68974435D01*
X70100552Y-68974435D01*
X70100552Y-69164911D01*
X70102473Y-69184420D01*
X70103848Y-69187740D01*
X70104103Y-69191324D01*
X70111109Y-69209632D01*
X70158728Y-69304870D01*
X70160781Y-69308133D01*
X70161295Y-69309672D01*
X70162957Y-69311588D01*
X70169171Y-69321460D01*
X70178641Y-69329673D01*
X70186859Y-69339149D01*
X70196732Y-69345363D01*
X70198648Y-69347025D01*
X70200186Y-69347537D01*
X70203450Y-69349592D01*
X70298687Y-69397211D01*
X70316996Y-69404217D01*
X70320579Y-69404471D01*
X70323900Y-69405847D01*
X70343409Y-69407768D01*
X70867219Y-69407768D01*
X70886728Y-69405847D01*
X70922776Y-69390915D01*
X70950366Y-69363325D01*
X70965298Y-69327277D01*
X70965298Y-69288259D01*
X70954360Y-69261854D01*
X70956662Y-69257252D01*
X70963668Y-69238943D01*
X70963922Y-69235359D01*
X70965298Y-69232039D01*
X70967219Y-69212530D01*
X70967219Y-68974435D01*
X70965298Y-68954926D01*
X70963922Y-68951605D01*
X70963668Y-68948022D01*
X70956662Y-68929713D01*
X70909043Y-68834476D01*
X70906989Y-68831213D01*
X70906476Y-68829673D01*
X70904812Y-68827755D01*
X70898600Y-68817885D01*
X70889125Y-68809668D01*
X70880911Y-68800197D01*
X70871039Y-68793983D01*
X70869123Y-68792321D01*
X70867584Y-68791807D01*
X70864321Y-68789754D01*
X70769082Y-68742135D01*
X70750773Y-68735129D01*
X70747190Y-68734874D01*
X70743870Y-68733499D01*
X70724361Y-68731578D01*
X70629123Y-68731578D01*
X70609614Y-68733499D01*
X70606293Y-68734874D01*
X70602710Y-68735129D01*
X70584401Y-68742135D01*
X70489164Y-68789754D01*
X70485900Y-68791808D01*
X70484362Y-68792321D01*
X70482446Y-68793982D01*
X70472573Y-68800197D01*
X70464355Y-68809672D01*
X70454885Y-68817886D01*
X70448671Y-68827757D01*
X70447009Y-68829674D01*
X70446495Y-68831212D01*
X70444442Y-68834476D01*
X70396823Y-68929714D01*
X70389817Y-68948022D01*
X70389562Y-68951605D01*
X70388187Y-68954926D01*
X70386266Y-68974435D01*
X70386266Y-69188923D01*
X70376844Y-69207768D01*
X70367016Y-69207768D01*
X70322707Y-69185613D01*
X70300552Y-69141303D01*
X70300552Y-68998042D01*
X70337614Y-68923919D01*
X70344620Y-68905610D01*
X70347386Y-68866690D01*
X70335047Y-68829674D01*
X70309482Y-68800197D01*
X70274584Y-68782748D01*
X70235664Y-68779983D01*
X70198648Y-68792321D01*
X70169171Y-68817886D01*
X70158728Y-68834476D01*
X70111109Y-68929714D01*
X70104103Y-68948022D01*
X70103848Y-68951605D01*
X70102473Y-68954926D01*
X70100552Y-68974435D01*
X69656108Y-68974435D01*
X69656108Y-68050164D01*
X69769140Y-68050164D01*
X69769140Y-68089182D01*
X69784072Y-68125230D01*
X69811662Y-68152820D01*
X69847710Y-68167752D01*
X69867219Y-68169673D01*
X70767219Y-68169673D01*
X70767219Y-68545863D01*
X70769140Y-68565372D01*
X70784072Y-68601420D01*
X70811662Y-68629010D01*
X70847710Y-68643942D01*
X70886728Y-68643942D01*
X70922776Y-68629010D01*
X70950366Y-68601420D01*
X70965298Y-68565372D01*
X70967219Y-68545863D01*
X70967219Y-68069673D01*
X70965298Y-68050164D01*
X70950366Y-68014116D01*
X70922776Y-67986526D01*
X70886728Y-67971594D01*
X70867219Y-67969673D01*
X69867219Y-67969673D01*
X69847710Y-67971594D01*
X69811662Y-67986526D01*
X69784072Y-68014116D01*
X69769140Y-68050164D01*
X69656108Y-68050164D01*
X69656108Y-67858562D01*
X71409742Y-67858562D01*
X71409742Y-80326484D01*
G37*
G36*
X65667219Y-79721853D02*
G01*
X65667219Y-79865115D01*
X65637414Y-79924724D01*
X65612746Y-79949391D01*
X65553135Y-79979198D01*
X65314635Y-79979198D01*
X65255025Y-79949393D01*
X65230357Y-79924724D01*
X65200552Y-79865114D01*
X65200552Y-79721853D01*
X65209975Y-79703008D01*
X65657796Y-79703008D01*
X65667219Y-79721853D01*
G37*
G36*
X65645064Y-78772781D02*
G01*
X65667219Y-78817091D01*
X65667219Y-79007972D01*
X65657797Y-79026817D01*
X65486266Y-79026817D01*
X65486266Y-78817091D01*
X65508421Y-78772781D01*
X65552730Y-78750627D01*
X65600754Y-78750627D01*
X65645064Y-78772781D01*
G37*
G36*
X65645064Y-75296589D02*
G01*
X65667219Y-75340899D01*
X65667219Y-75531780D01*
X65657797Y-75550625D01*
X65486266Y-75550625D01*
X65486266Y-75340899D01*
X65508421Y-75296589D01*
X65552730Y-75274435D01*
X65600754Y-75274435D01*
X65645064Y-75296589D01*
G37*
G36*
X65612746Y-74399479D02*
G01*
X65637414Y-74424146D01*
X65667219Y-74483756D01*
X65667219Y-74627018D01*
X65657797Y-74645863D01*
X65209975Y-74645863D01*
X65200552Y-74627017D01*
X65200552Y-74483756D01*
X65230357Y-74424146D01*
X65255025Y-74399477D01*
X65314635Y-74369673D01*
X65553135Y-74369673D01*
X65612746Y-74399479D01*
G37*
G36*
X65645064Y-73487065D02*
G01*
X65667219Y-73531375D01*
X65667219Y-73722256D01*
X65657797Y-73741101D01*
X65486266Y-73741101D01*
X65486266Y-73531375D01*
X65508421Y-73487065D01*
X65552730Y-73464911D01*
X65600754Y-73464911D01*
X65645064Y-73487065D01*
G37*
G36*
X65612746Y-70256622D02*
G01*
X65637414Y-70281289D01*
X65667219Y-70340899D01*
X65667219Y-70484161D01*
X65657797Y-70503006D01*
X65209975Y-70503006D01*
X65200552Y-70484160D01*
X65200552Y-70340899D01*
X65230357Y-70281289D01*
X65255025Y-70256620D01*
X65314635Y-70226816D01*
X65553135Y-70226816D01*
X65612746Y-70256622D01*
G37*
G36*
X65645064Y-69344208D02*
G01*
X65667219Y-69388518D01*
X65667219Y-69579399D01*
X65657797Y-69598244D01*
X65486266Y-69598244D01*
X65486266Y-69388518D01*
X65508421Y-69344208D01*
X65552730Y-69322054D01*
X65600754Y-69322054D01*
X65645064Y-69344208D01*
G37*
G36*
X66311663Y-80290309D02*
G01*
X64558029Y-80290309D01*
X64558029Y-79698246D01*
X65000552Y-79698246D01*
X65000552Y-79888722D01*
X65002473Y-79908231D01*
X65003848Y-79911551D01*
X65004103Y-79915135D01*
X65011109Y-79933443D01*
X65058728Y-80028681D01*
X65064013Y-80037077D01*
X65065024Y-80039517D01*
X65067277Y-80042263D01*
X65069171Y-80045271D01*
X65071165Y-80047000D01*
X65077460Y-80054671D01*
X65125079Y-80102289D01*
X65132745Y-80108581D01*
X65134478Y-80110579D01*
X65137486Y-80112472D01*
X65140232Y-80114726D01*
X65142672Y-80115736D01*
X65151069Y-80121022D01*
X65246306Y-80168641D01*
X65264615Y-80175647D01*
X65268198Y-80175901D01*
X65271519Y-80177277D01*
X65291028Y-80179198D01*
X65576742Y-80179198D01*
X65596251Y-80177277D01*
X65599571Y-80175901D01*
X65603155Y-80175647D01*
X65621463Y-80168641D01*
X65716701Y-80121022D01*
X65725093Y-80115738D01*
X65727537Y-80114727D01*
X65730286Y-80112470D01*
X65733291Y-80110579D01*
X65735020Y-80108584D01*
X65742690Y-80102290D01*
X65790310Y-80054672D01*
X65796603Y-80047003D01*
X65798600Y-80045272D01*
X65800493Y-80042263D01*
X65802747Y-80039518D01*
X65803757Y-80037077D01*
X65809043Y-80028681D01*
X65856662Y-79933444D01*
X65863668Y-79915135D01*
X65863922Y-79911551D01*
X65865298Y-79908231D01*
X65867219Y-79888722D01*
X65867219Y-79703008D01*
X66100552Y-79703008D01*
X66120061Y-79701087D01*
X66156109Y-79686155D01*
X66183699Y-79658565D01*
X66198631Y-79622517D01*
X66198631Y-79583499D01*
X66183699Y-79547451D01*
X66156109Y-79519861D01*
X66120061Y-79504929D01*
X66100552Y-79503008D01*
X65100552Y-79503008D01*
X65081043Y-79504929D01*
X65044995Y-79519861D01*
X65017405Y-79547451D01*
X65002473Y-79583499D01*
X65002473Y-79622517D01*
X65013410Y-79648921D01*
X65011109Y-79653525D01*
X65004103Y-79671833D01*
X65003848Y-79675416D01*
X65002473Y-79678737D01*
X65000552Y-79698246D01*
X64558029Y-79698246D01*
X64558029Y-78793484D01*
X65000552Y-78793484D01*
X65000552Y-78983960D01*
X65002473Y-79003469D01*
X65003848Y-79006789D01*
X65004103Y-79010373D01*
X65011109Y-79028681D01*
X65058728Y-79123919D01*
X65060781Y-79127182D01*
X65061295Y-79128721D01*
X65062957Y-79130637D01*
X65069171Y-79140509D01*
X65078641Y-79148722D01*
X65086859Y-79158198D01*
X65096732Y-79164412D01*
X65098648Y-79166074D01*
X65100186Y-79166586D01*
X65103450Y-79168641D01*
X65198687Y-79216260D01*
X65216996Y-79223266D01*
X65220579Y-79223520D01*
X65223900Y-79224896D01*
X65243409Y-79226817D01*
X65767219Y-79226817D01*
X65786728Y-79224896D01*
X65822776Y-79209964D01*
X65850366Y-79182374D01*
X65865298Y-79146326D01*
X65865298Y-79107308D01*
X65854360Y-79080903D01*
X65856662Y-79076301D01*
X65863668Y-79057992D01*
X65863922Y-79054408D01*
X65865298Y-79051088D01*
X65867219Y-79031579D01*
X65867219Y-78793484D01*
X65865298Y-78773975D01*
X65863922Y-78770654D01*
X65863668Y-78767071D01*
X65856662Y-78748762D01*
X65809043Y-78653525D01*
X65806989Y-78650262D01*
X65806476Y-78648722D01*
X65804812Y-78646804D01*
X65798600Y-78636934D01*
X65789125Y-78628717D01*
X65780911Y-78619246D01*
X65771039Y-78613032D01*
X65769123Y-78611370D01*
X65767584Y-78610856D01*
X65764321Y-78608803D01*
X65669082Y-78561184D01*
X65650773Y-78554178D01*
X65647190Y-78553923D01*
X65643870Y-78552548D01*
X65624361Y-78550627D01*
X65529123Y-78550627D01*
X65509614Y-78552548D01*
X65506293Y-78553923D01*
X65502710Y-78554178D01*
X65484401Y-78561184D01*
X65389164Y-78608803D01*
X65385900Y-78610857D01*
X65384362Y-78611370D01*
X65382446Y-78613031D01*
X65372573Y-78619246D01*
X65364355Y-78628721D01*
X65354885Y-78636935D01*
X65348671Y-78646806D01*
X65347009Y-78648723D01*
X65346495Y-78650261D01*
X65344442Y-78653525D01*
X65296823Y-78748763D01*
X65289817Y-78767071D01*
X65289562Y-78770654D01*
X65288187Y-78773975D01*
X65286266Y-78793484D01*
X65286266Y-79007972D01*
X65276844Y-79026817D01*
X65267016Y-79026817D01*
X65222707Y-79004662D01*
X65200552Y-78960352D01*
X65200552Y-78817091D01*
X65237614Y-78742968D01*
X65244620Y-78724659D01*
X65247386Y-78685739D01*
X65235047Y-78648723D01*
X65209482Y-78619246D01*
X65174584Y-78601797D01*
X65135664Y-78599032D01*
X65098648Y-78611370D01*
X65069171Y-78636935D01*
X65058728Y-78653525D01*
X65011109Y-78748763D01*
X65004103Y-78767071D01*
X65003848Y-78770654D01*
X65002473Y-78773975D01*
X65000552Y-78793484D01*
X64558029Y-78793484D01*
X64558029Y-78269674D01*
X65000552Y-78269674D01*
X65000552Y-78364912D01*
X65002473Y-78384421D01*
X65017405Y-78420469D01*
X65044995Y-78448059D01*
X65081043Y-78462991D01*
X65120061Y-78462991D01*
X65156109Y-78448059D01*
X65183699Y-78420469D01*
X65198631Y-78384421D01*
X65200552Y-78364912D01*
X65200552Y-78293281D01*
X65230357Y-78233671D01*
X65255025Y-78209002D01*
X65314635Y-78179198D01*
X65767219Y-78179198D01*
X65786728Y-78177277D01*
X65822776Y-78162345D01*
X65850366Y-78134755D01*
X65865298Y-78098707D01*
X65865298Y-78059689D01*
X65850366Y-78023641D01*
X65822776Y-77996051D01*
X65786728Y-77981119D01*
X65767219Y-77979198D01*
X65100552Y-77979198D01*
X65081043Y-77981119D01*
X65044995Y-77996051D01*
X65017405Y-78023641D01*
X65002473Y-78059689D01*
X65002473Y-78098707D01*
X65017405Y-78134755D01*
X65043273Y-78160623D01*
X65011109Y-78224953D01*
X65004103Y-78243261D01*
X65003848Y-78246844D01*
X65002473Y-78250165D01*
X65000552Y-78269674D01*
X64558029Y-78269674D01*
X64558029Y-77488260D01*
X64669140Y-77488260D01*
X64669140Y-77527278D01*
X64684072Y-77563326D01*
X64711662Y-77590916D01*
X64747710Y-77605848D01*
X64767219Y-77607769D01*
X65000552Y-77607769D01*
X65000552Y-77745864D01*
X65002473Y-77765373D01*
X65017405Y-77801421D01*
X65044995Y-77829011D01*
X65081043Y-77843943D01*
X65120061Y-77843943D01*
X65156109Y-77829011D01*
X65183699Y-77801421D01*
X65198631Y-77765373D01*
X65200552Y-77745864D01*
X65200552Y-77607769D01*
X65600754Y-77607769D01*
X65645064Y-77629923D01*
X65667219Y-77674233D01*
X65667219Y-77745864D01*
X65669140Y-77765373D01*
X65684072Y-77801421D01*
X65711662Y-77829011D01*
X65747710Y-77843943D01*
X65786728Y-77843943D01*
X65822776Y-77829011D01*
X65850366Y-77801421D01*
X65865298Y-77765373D01*
X65867219Y-77745864D01*
X65867219Y-77650626D01*
X65865298Y-77631117D01*
X65863922Y-77627796D01*
X65863668Y-77624213D01*
X65856662Y-77605904D01*
X65809043Y-77510667D01*
X65806989Y-77507404D01*
X65806476Y-77505864D01*
X65804812Y-77503946D01*
X65798600Y-77494076D01*
X65789125Y-77485859D01*
X65780911Y-77476388D01*
X65771039Y-77470174D01*
X65769123Y-77468512D01*
X65767584Y-77467998D01*
X65764321Y-77465945D01*
X65669082Y-77418326D01*
X65650773Y-77411320D01*
X65647190Y-77411065D01*
X65643870Y-77409690D01*
X65624361Y-77407769D01*
X65200552Y-77407769D01*
X65200552Y-77364912D01*
X65198631Y-77345403D01*
X65183699Y-77309355D01*
X65156109Y-77281765D01*
X65120061Y-77266833D01*
X65081043Y-77266833D01*
X65044995Y-77281765D01*
X65017405Y-77309355D01*
X65002473Y-77345403D01*
X65000552Y-77364912D01*
X65000552Y-77407769D01*
X64767219Y-77407769D01*
X64747710Y-77409690D01*
X64711662Y-77424622D01*
X64684072Y-77452212D01*
X64669140Y-77488260D01*
X64558029Y-77488260D01*
X64558029Y-76317292D01*
X65000552Y-76317292D01*
X65000552Y-76412530D01*
X65002473Y-76432039D01*
X65017405Y-76468087D01*
X65044995Y-76495677D01*
X65081043Y-76510609D01*
X65120061Y-76510609D01*
X65156109Y-76495677D01*
X65183699Y-76468087D01*
X65198631Y-76432039D01*
X65200552Y-76412530D01*
X65200552Y-76340899D01*
X65230357Y-76281289D01*
X65255025Y-76256620D01*
X65314635Y-76226816D01*
X65767219Y-76226816D01*
X65786728Y-76224895D01*
X65822776Y-76209963D01*
X65850366Y-76182373D01*
X65865298Y-76146325D01*
X65865298Y-76107307D01*
X65850366Y-76071259D01*
X65822776Y-76043669D01*
X65786728Y-76028737D01*
X65767219Y-76026816D01*
X65100552Y-76026816D01*
X65081043Y-76028737D01*
X65044995Y-76043669D01*
X65017405Y-76071259D01*
X65002473Y-76107307D01*
X65002473Y-76146325D01*
X65017405Y-76182373D01*
X65043273Y-76208241D01*
X65011109Y-76272571D01*
X65004103Y-76290879D01*
X65003848Y-76294462D01*
X65002473Y-76297783D01*
X65000552Y-76317292D01*
X64558029Y-76317292D01*
X64558029Y-75317292D01*
X65000552Y-75317292D01*
X65000552Y-75507768D01*
X65002473Y-75527277D01*
X65003848Y-75530597D01*
X65004103Y-75534181D01*
X65011109Y-75552489D01*
X65058728Y-75647727D01*
X65060781Y-75650990D01*
X65061295Y-75652529D01*
X65062957Y-75654445D01*
X65069171Y-75664317D01*
X65078641Y-75672530D01*
X65086859Y-75682006D01*
X65096732Y-75688220D01*
X65098648Y-75689882D01*
X65100186Y-75690394D01*
X65103450Y-75692449D01*
X65198687Y-75740068D01*
X65216996Y-75747074D01*
X65220579Y-75747328D01*
X65223900Y-75748704D01*
X65243409Y-75750625D01*
X65767219Y-75750625D01*
X65786728Y-75748704D01*
X65822776Y-75733772D01*
X65850366Y-75706182D01*
X65865298Y-75670134D01*
X65865298Y-75631116D01*
X65854360Y-75604711D01*
X65856662Y-75600109D01*
X65863668Y-75581800D01*
X65863922Y-75578216D01*
X65865298Y-75574896D01*
X65867219Y-75555387D01*
X65867219Y-75317292D01*
X65865298Y-75297783D01*
X65863922Y-75294462D01*
X65863668Y-75290879D01*
X65856662Y-75272570D01*
X65809043Y-75177333D01*
X65806989Y-75174070D01*
X65806476Y-75172530D01*
X65804812Y-75170612D01*
X65798600Y-75160742D01*
X65789125Y-75152525D01*
X65780911Y-75143054D01*
X65771039Y-75136840D01*
X65769123Y-75135178D01*
X65767584Y-75134664D01*
X65764321Y-75132611D01*
X65669082Y-75084992D01*
X65650773Y-75077986D01*
X65647190Y-75077731D01*
X65643870Y-75076356D01*
X65624361Y-75074435D01*
X65529123Y-75074435D01*
X65509614Y-75076356D01*
X65506293Y-75077731D01*
X65502710Y-75077986D01*
X65484401Y-75084992D01*
X65389164Y-75132611D01*
X65385900Y-75134665D01*
X65384362Y-75135178D01*
X65382446Y-75136839D01*
X65372573Y-75143054D01*
X65364355Y-75152529D01*
X65354885Y-75160743D01*
X65348671Y-75170614D01*
X65347009Y-75172531D01*
X65346495Y-75174069D01*
X65344442Y-75177333D01*
X65296823Y-75272571D01*
X65289817Y-75290879D01*
X65289562Y-75294462D01*
X65288187Y-75297783D01*
X65286266Y-75317292D01*
X65286266Y-75531780D01*
X65276844Y-75550625D01*
X65267016Y-75550625D01*
X65222707Y-75528470D01*
X65200552Y-75484160D01*
X65200552Y-75340899D01*
X65237614Y-75266776D01*
X65244620Y-75248467D01*
X65247386Y-75209547D01*
X65235047Y-75172531D01*
X65209482Y-75143054D01*
X65174584Y-75125605D01*
X65135664Y-75122840D01*
X65098648Y-75135178D01*
X65069171Y-75160743D01*
X65058728Y-75177333D01*
X65011109Y-75272571D01*
X65004103Y-75290879D01*
X65003848Y-75294462D01*
X65002473Y-75297783D01*
X65000552Y-75317292D01*
X64558029Y-75317292D01*
X64558029Y-74726354D01*
X64669140Y-74726354D01*
X64669140Y-74765372D01*
X64684072Y-74801420D01*
X64711662Y-74829010D01*
X64747710Y-74843942D01*
X64767219Y-74845863D01*
X65767219Y-74845863D01*
X65786728Y-74843942D01*
X65822776Y-74829010D01*
X65850366Y-74801420D01*
X65865298Y-74765372D01*
X65865298Y-74726354D01*
X65854360Y-74699949D01*
X65856662Y-74695347D01*
X65863668Y-74677038D01*
X65863922Y-74673454D01*
X65865298Y-74670134D01*
X65867219Y-74650625D01*
X65867219Y-74460149D01*
X65865298Y-74440640D01*
X65863922Y-74437319D01*
X65863668Y-74433736D01*
X65856662Y-74415427D01*
X65809043Y-74320190D01*
X65803757Y-74311793D01*
X65802747Y-74309353D01*
X65800493Y-74306607D01*
X65798600Y-74303599D01*
X65796603Y-74301867D01*
X65790310Y-74294199D01*
X65742690Y-74246581D01*
X65735020Y-74240286D01*
X65733291Y-74238292D01*
X65730286Y-74236400D01*
X65727537Y-74234144D01*
X65725093Y-74233132D01*
X65716701Y-74227849D01*
X65621463Y-74180230D01*
X65603155Y-74173224D01*
X65599571Y-74172969D01*
X65596251Y-74171594D01*
X65576742Y-74169673D01*
X65291028Y-74169673D01*
X65271519Y-74171594D01*
X65268198Y-74172969D01*
X65264615Y-74173224D01*
X65246306Y-74180230D01*
X65151069Y-74227849D01*
X65142672Y-74233134D01*
X65140232Y-74234145D01*
X65137486Y-74236398D01*
X65134478Y-74238292D01*
X65132745Y-74240289D01*
X65125079Y-74246582D01*
X65077460Y-74294200D01*
X65071165Y-74301870D01*
X65069171Y-74303600D01*
X65067277Y-74306607D01*
X65065024Y-74309354D01*
X65064013Y-74311793D01*
X65058728Y-74320190D01*
X65011109Y-74415428D01*
X65004103Y-74433736D01*
X65003848Y-74437319D01*
X65002473Y-74440640D01*
X65000552Y-74460149D01*
X65000552Y-74645863D01*
X64767219Y-74645863D01*
X64747710Y-74647784D01*
X64711662Y-74662716D01*
X64684072Y-74690306D01*
X64669140Y-74726354D01*
X64558029Y-74726354D01*
X64558029Y-73507768D01*
X65000552Y-73507768D01*
X65000552Y-73698244D01*
X65002473Y-73717753D01*
X65003848Y-73721073D01*
X65004103Y-73724657D01*
X65011109Y-73742965D01*
X65058728Y-73838203D01*
X65060781Y-73841466D01*
X65061295Y-73843005D01*
X65062957Y-73844921D01*
X65069171Y-73854793D01*
X65078641Y-73863006D01*
X65086859Y-73872482D01*
X65096732Y-73878696D01*
X65098648Y-73880358D01*
X65100186Y-73880870D01*
X65103450Y-73882925D01*
X65198687Y-73930544D01*
X65216996Y-73937550D01*
X65220579Y-73937804D01*
X65223900Y-73939180D01*
X65243409Y-73941101D01*
X65767219Y-73941101D01*
X65786728Y-73939180D01*
X65822776Y-73924248D01*
X65850366Y-73896658D01*
X65865298Y-73860610D01*
X65865298Y-73821592D01*
X65854360Y-73795187D01*
X65856662Y-73790585D01*
X65863668Y-73772276D01*
X65863922Y-73768692D01*
X65865298Y-73765372D01*
X65867219Y-73745863D01*
X65867219Y-73507768D01*
X65865298Y-73488259D01*
X65863922Y-73484938D01*
X65863668Y-73481355D01*
X65856662Y-73463046D01*
X65809043Y-73367809D01*
X65806989Y-73364546D01*
X65806476Y-73363006D01*
X65804812Y-73361088D01*
X65798600Y-73351218D01*
X65789125Y-73343001D01*
X65780911Y-73333530D01*
X65771039Y-73327316D01*
X65769123Y-73325654D01*
X65767584Y-73325140D01*
X65764321Y-73323087D01*
X65669082Y-73275468D01*
X65650773Y-73268462D01*
X65647190Y-73268207D01*
X65643870Y-73266832D01*
X65624361Y-73264911D01*
X65529123Y-73264911D01*
X65509614Y-73266832D01*
X65506293Y-73268207D01*
X65502710Y-73268462D01*
X65484401Y-73275468D01*
X65389164Y-73323087D01*
X65385900Y-73325141D01*
X65384362Y-73325654D01*
X65382446Y-73327315D01*
X65372573Y-73333530D01*
X65364355Y-73343005D01*
X65354885Y-73351219D01*
X65348671Y-73361090D01*
X65347009Y-73363007D01*
X65346495Y-73364545D01*
X65344442Y-73367809D01*
X65296823Y-73463047D01*
X65289817Y-73481355D01*
X65289562Y-73484938D01*
X65288187Y-73488259D01*
X65286266Y-73507768D01*
X65286266Y-73722256D01*
X65276844Y-73741101D01*
X65267016Y-73741101D01*
X65222707Y-73718946D01*
X65200552Y-73674636D01*
X65200552Y-73531375D01*
X65237614Y-73457252D01*
X65244620Y-73438943D01*
X65247386Y-73400023D01*
X65235047Y-73363007D01*
X65209482Y-73333530D01*
X65174584Y-73316081D01*
X65135664Y-73313316D01*
X65098648Y-73325654D01*
X65069171Y-73351219D01*
X65058728Y-73367809D01*
X65011109Y-73463047D01*
X65004103Y-73481355D01*
X65003848Y-73484938D01*
X65002473Y-73488259D01*
X65000552Y-73507768D01*
X64558029Y-73507768D01*
X64558029Y-72983958D01*
X65000552Y-72983958D01*
X65000552Y-73079196D01*
X65002473Y-73098705D01*
X65017405Y-73134753D01*
X65044995Y-73162343D01*
X65081043Y-73177275D01*
X65120061Y-73177275D01*
X65156109Y-73162343D01*
X65183699Y-73134753D01*
X65198631Y-73098705D01*
X65200552Y-73079196D01*
X65200552Y-73007565D01*
X65230357Y-72947955D01*
X65255025Y-72923286D01*
X65314635Y-72893482D01*
X65767219Y-72893482D01*
X65786728Y-72891561D01*
X65822776Y-72876629D01*
X65850366Y-72849039D01*
X65865298Y-72812991D01*
X65865298Y-72773973D01*
X65850366Y-72737925D01*
X65822776Y-72710335D01*
X65786728Y-72695403D01*
X65767219Y-72693482D01*
X65100552Y-72693482D01*
X65081043Y-72695403D01*
X65044995Y-72710335D01*
X65017405Y-72737925D01*
X65002473Y-72773973D01*
X65002473Y-72812991D01*
X65017405Y-72849039D01*
X65043273Y-72874907D01*
X65011109Y-72939237D01*
X65004103Y-72957545D01*
X65003848Y-72961128D01*
X65002473Y-72964449D01*
X65000552Y-72983958D01*
X64558029Y-72983958D01*
X64558029Y-71535878D01*
X65573901Y-71535878D01*
X65573901Y-71574896D01*
X65575385Y-71578479D01*
X65588832Y-71610944D01*
X65588833Y-71610945D01*
X65601270Y-71626098D01*
X65648890Y-71673717D01*
X65664043Y-71686154D01*
X65689533Y-71696711D01*
X65700091Y-71701085D01*
X65700092Y-71701085D01*
X65739109Y-71701085D01*
X65760226Y-71692337D01*
X65775158Y-71686153D01*
X65775162Y-71686148D01*
X65790311Y-71673717D01*
X65837929Y-71626098D01*
X65850366Y-71610945D01*
X65861735Y-71583497D01*
X65865298Y-71574896D01*
X65865298Y-71535878D01*
X65850366Y-71499830D01*
X65850366Y-71499829D01*
X65837929Y-71484676D01*
X65790311Y-71437057D01*
X65775162Y-71424625D01*
X65775158Y-71424621D01*
X65760226Y-71418436D01*
X65739109Y-71409689D01*
X65700091Y-71409689D01*
X65689533Y-71414062D01*
X65664043Y-71424620D01*
X65648890Y-71437057D01*
X65601270Y-71484676D01*
X65588833Y-71499829D01*
X65588832Y-71499830D01*
X65578274Y-71525320D01*
X65573901Y-71535878D01*
X64558029Y-71535878D01*
X64558029Y-71059688D01*
X64669140Y-71059688D01*
X64669140Y-71098706D01*
X64684072Y-71134754D01*
X64696508Y-71149908D01*
X64744127Y-71197526D01*
X64759280Y-71209963D01*
X64769838Y-71214336D01*
X64795329Y-71224895D01*
X64834347Y-71224895D01*
X64870395Y-71209963D01*
X64885549Y-71197527D01*
X64933167Y-71149908D01*
X64945604Y-71134755D01*
X64949977Y-71124196D01*
X64960536Y-71098706D01*
X64960536Y-71059688D01*
X65002473Y-71059688D01*
X65002473Y-71098706D01*
X65017405Y-71134754D01*
X65044995Y-71162344D01*
X65081043Y-71177276D01*
X65100552Y-71179197D01*
X65957695Y-71179197D01*
X65977204Y-71177276D01*
X65980524Y-71175900D01*
X65984108Y-71175646D01*
X66002416Y-71168640D01*
X66097654Y-71121021D01*
X66100917Y-71118967D01*
X66102456Y-71118454D01*
X66104372Y-71116791D01*
X66114244Y-71110578D01*
X66122457Y-71101107D01*
X66131933Y-71092890D01*
X66138147Y-71083016D01*
X66139809Y-71081101D01*
X66140321Y-71079562D01*
X66142376Y-71076299D01*
X66189995Y-70981062D01*
X66197001Y-70962753D01*
X66197255Y-70959169D01*
X66198631Y-70955849D01*
X66200552Y-70936340D01*
X66200552Y-70888721D01*
X66198631Y-70869212D01*
X66183699Y-70833164D01*
X66156109Y-70805574D01*
X66120061Y-70790642D01*
X66081043Y-70790642D01*
X66044995Y-70805574D01*
X66017405Y-70833164D01*
X66002473Y-70869212D01*
X66000552Y-70888721D01*
X66000552Y-70912733D01*
X65978397Y-70957041D01*
X65934088Y-70979197D01*
X65100552Y-70979197D01*
X65081043Y-70981118D01*
X65044995Y-70996050D01*
X65017405Y-71023640D01*
X65002473Y-71059688D01*
X64960536Y-71059688D01*
X64949977Y-71034197D01*
X64945604Y-71023639D01*
X64933167Y-71008486D01*
X64885549Y-70960867D01*
X64870395Y-70948431D01*
X64834347Y-70933499D01*
X64795329Y-70933499D01*
X64769838Y-70944057D01*
X64759280Y-70948431D01*
X64744127Y-70960868D01*
X64696508Y-71008486D01*
X64684073Y-71023639D01*
X64684072Y-71023640D01*
X64669140Y-71059688D01*
X64558029Y-71059688D01*
X64558029Y-70583497D01*
X64669140Y-70583497D01*
X64669140Y-70622515D01*
X64684072Y-70658563D01*
X64711662Y-70686153D01*
X64747710Y-70701085D01*
X64767219Y-70703006D01*
X65767219Y-70703006D01*
X65786728Y-70701085D01*
X65822776Y-70686153D01*
X65850366Y-70658563D01*
X65865298Y-70622515D01*
X65865298Y-70583497D01*
X65854360Y-70557092D01*
X65856662Y-70552490D01*
X65863668Y-70534181D01*
X65863922Y-70530597D01*
X65865298Y-70527277D01*
X65867219Y-70507768D01*
X65867219Y-70317292D01*
X65865298Y-70297783D01*
X65863922Y-70294462D01*
X65863668Y-70290879D01*
X65856662Y-70272570D01*
X65809043Y-70177333D01*
X65803757Y-70168936D01*
X65802747Y-70166496D01*
X65800493Y-70163750D01*
X65798600Y-70160742D01*
X65796603Y-70159010D01*
X65790310Y-70151342D01*
X65742690Y-70103724D01*
X65735020Y-70097429D01*
X65733291Y-70095435D01*
X65730286Y-70093543D01*
X65727537Y-70091287D01*
X65725093Y-70090275D01*
X65716701Y-70084992D01*
X65621463Y-70037373D01*
X65603155Y-70030367D01*
X65599571Y-70030112D01*
X65596251Y-70028737D01*
X65576742Y-70026816D01*
X65291028Y-70026816D01*
X65271519Y-70028737D01*
X65268198Y-70030112D01*
X65264615Y-70030367D01*
X65246306Y-70037373D01*
X65151069Y-70084992D01*
X65142672Y-70090277D01*
X65140232Y-70091288D01*
X65137486Y-70093541D01*
X65134478Y-70095435D01*
X65132745Y-70097432D01*
X65125079Y-70103725D01*
X65077460Y-70151343D01*
X65071165Y-70159013D01*
X65069171Y-70160743D01*
X65067277Y-70163750D01*
X65065024Y-70166497D01*
X65064013Y-70168936D01*
X65058728Y-70177333D01*
X65011109Y-70272571D01*
X65004103Y-70290879D01*
X65003848Y-70294462D01*
X65002473Y-70297783D01*
X65000552Y-70317292D01*
X65000552Y-70503006D01*
X64767219Y-70503006D01*
X64747710Y-70504927D01*
X64711662Y-70519859D01*
X64684072Y-70547449D01*
X64669140Y-70583497D01*
X64558029Y-70583497D01*
X64558029Y-69364911D01*
X65000552Y-69364911D01*
X65000552Y-69555387D01*
X65002473Y-69574896D01*
X65003848Y-69578216D01*
X65004103Y-69581800D01*
X65011109Y-69600108D01*
X65058728Y-69695346D01*
X65060781Y-69698609D01*
X65061295Y-69700148D01*
X65062957Y-69702064D01*
X65069171Y-69711936D01*
X65078641Y-69720149D01*
X65086859Y-69729625D01*
X65096732Y-69735839D01*
X65098648Y-69737501D01*
X65100186Y-69738013D01*
X65103450Y-69740068D01*
X65198687Y-69787687D01*
X65216996Y-69794693D01*
X65220579Y-69794947D01*
X65223900Y-69796323D01*
X65243409Y-69798244D01*
X65767219Y-69798244D01*
X65786728Y-69796323D01*
X65822776Y-69781391D01*
X65850366Y-69753801D01*
X65865298Y-69717753D01*
X65865298Y-69678735D01*
X65854360Y-69652330D01*
X65856662Y-69647728D01*
X65863668Y-69629419D01*
X65863922Y-69625835D01*
X65865298Y-69622515D01*
X65867219Y-69603006D01*
X65867219Y-69364911D01*
X65865298Y-69345402D01*
X65863922Y-69342081D01*
X65863668Y-69338498D01*
X65856662Y-69320189D01*
X65809043Y-69224952D01*
X65806989Y-69221689D01*
X65806476Y-69220149D01*
X65804812Y-69218231D01*
X65798600Y-69208361D01*
X65789125Y-69200144D01*
X65780911Y-69190673D01*
X65771039Y-69184459D01*
X65769123Y-69182797D01*
X65767584Y-69182283D01*
X65764321Y-69180230D01*
X65669082Y-69132611D01*
X65650773Y-69125605D01*
X65647190Y-69125350D01*
X65643870Y-69123975D01*
X65624361Y-69122054D01*
X65529123Y-69122054D01*
X65509614Y-69123975D01*
X65506293Y-69125350D01*
X65502710Y-69125605D01*
X65484401Y-69132611D01*
X65389164Y-69180230D01*
X65385900Y-69182284D01*
X65384362Y-69182797D01*
X65382446Y-69184458D01*
X65372573Y-69190673D01*
X65364355Y-69200148D01*
X65354885Y-69208362D01*
X65348671Y-69218233D01*
X65347009Y-69220150D01*
X65346495Y-69221688D01*
X65344442Y-69224952D01*
X65296823Y-69320190D01*
X65289817Y-69338498D01*
X65289562Y-69342081D01*
X65288187Y-69345402D01*
X65286266Y-69364911D01*
X65286266Y-69579399D01*
X65276844Y-69598244D01*
X65267016Y-69598244D01*
X65222707Y-69576089D01*
X65200552Y-69531779D01*
X65200552Y-69388518D01*
X65237614Y-69314395D01*
X65244620Y-69296086D01*
X65247386Y-69257166D01*
X65235047Y-69220150D01*
X65209482Y-69190673D01*
X65174584Y-69173224D01*
X65135664Y-69170459D01*
X65098648Y-69182797D01*
X65069171Y-69208362D01*
X65058728Y-69224952D01*
X65011109Y-69320190D01*
X65004103Y-69338498D01*
X65003848Y-69342081D01*
X65002473Y-69345402D01*
X65000552Y-69364911D01*
X64558029Y-69364911D01*
X64558029Y-69010943D01*
X66311663Y-69010943D01*
X66311663Y-80290309D01*
G37*
G36*
X73167219Y-79093282D02*
G01*
X73167219Y-79236544D01*
X73137414Y-79296153D01*
X73112746Y-79320820D01*
X73053135Y-79350627D01*
X72814635Y-79350627D01*
X72755025Y-79320822D01*
X72730357Y-79296153D01*
X72700552Y-79236543D01*
X72700552Y-79093282D01*
X72709975Y-79074437D01*
X73157796Y-79074437D01*
X73167219Y-79093282D01*
G37*
G36*
X72757607Y-76298302D02*
G01*
X72722707Y-76280852D01*
X72700552Y-76236542D01*
X72700552Y-76093281D01*
X72722707Y-76048971D01*
X72767016Y-76026817D01*
X72811905Y-76026817D01*
X72757607Y-76298302D01*
G37*
G36*
X72757607Y-71012587D02*
G01*
X72722707Y-70995137D01*
X72700552Y-70950827D01*
X72700552Y-70807566D01*
X72722707Y-70763256D01*
X72767016Y-70741102D01*
X72811905Y-70741102D01*
X72757607Y-71012587D01*
G37*
G36*
X73145064Y-68953732D02*
G01*
X73167219Y-68998042D01*
X73167219Y-69188923D01*
X73157797Y-69207768D01*
X72986266Y-69207768D01*
X72986266Y-68998042D01*
X73008421Y-68953732D01*
X73052730Y-68931578D01*
X73100754Y-68931578D01*
X73145064Y-68953732D01*
G37*
G36*
X73809742Y-80326484D02*
G01*
X72056108Y-80326484D01*
X72056108Y-79859690D01*
X72169140Y-79859690D01*
X72169140Y-79898708D01*
X72184072Y-79934756D01*
X72211662Y-79962346D01*
X72247710Y-79977278D01*
X72267219Y-79979199D01*
X72500552Y-79979199D01*
X72500552Y-80117294D01*
X72502473Y-80136803D01*
X72517405Y-80172851D01*
X72544995Y-80200441D01*
X72581043Y-80215373D01*
X72620061Y-80215373D01*
X72656109Y-80200441D01*
X72683699Y-80172851D01*
X72698631Y-80136803D01*
X72700552Y-80117294D01*
X72700552Y-79979199D01*
X73100754Y-79979199D01*
X73145064Y-80001353D01*
X73167219Y-80045663D01*
X73167219Y-80117294D01*
X73169140Y-80136803D01*
X73184072Y-80172851D01*
X73211662Y-80200441D01*
X73247710Y-80215373D01*
X73286728Y-80215373D01*
X73322776Y-80200441D01*
X73350366Y-80172851D01*
X73365298Y-80136803D01*
X73367219Y-80117294D01*
X73367219Y-80022056D01*
X73365298Y-80002547D01*
X73363922Y-79999226D01*
X73363668Y-79995643D01*
X73356662Y-79977334D01*
X73309043Y-79882097D01*
X73306989Y-79878834D01*
X73306476Y-79877294D01*
X73304812Y-79875376D01*
X73298600Y-79865506D01*
X73289125Y-79857289D01*
X73280911Y-79847818D01*
X73271039Y-79841604D01*
X73269123Y-79839942D01*
X73267584Y-79839428D01*
X73264321Y-79837375D01*
X73169082Y-79789756D01*
X73150773Y-79782750D01*
X73147190Y-79782495D01*
X73143870Y-79781120D01*
X73124361Y-79779199D01*
X72700552Y-79779199D01*
X72700552Y-79736342D01*
X72698631Y-79716833D01*
X72683699Y-79680785D01*
X72656109Y-79653195D01*
X72620061Y-79638263D01*
X72581043Y-79638263D01*
X72544995Y-79653195D01*
X72517405Y-79680785D01*
X72502473Y-79716833D01*
X72500552Y-79736342D01*
X72500552Y-79779199D01*
X72267219Y-79779199D01*
X72247710Y-79781120D01*
X72211662Y-79796052D01*
X72184072Y-79823642D01*
X72169140Y-79859690D01*
X72056108Y-79859690D01*
X72056108Y-79069675D01*
X72500552Y-79069675D01*
X72500552Y-79260151D01*
X72502473Y-79279660D01*
X72503848Y-79282980D01*
X72504103Y-79286564D01*
X72511109Y-79304872D01*
X72558728Y-79400110D01*
X72564013Y-79408506D01*
X72565024Y-79410946D01*
X72567277Y-79413692D01*
X72569171Y-79416700D01*
X72571165Y-79418429D01*
X72577460Y-79426100D01*
X72625079Y-79473718D01*
X72632745Y-79480010D01*
X72634478Y-79482008D01*
X72637486Y-79483901D01*
X72640232Y-79486155D01*
X72642672Y-79487165D01*
X72651069Y-79492451D01*
X72746306Y-79540070D01*
X72764615Y-79547076D01*
X72768198Y-79547330D01*
X72771519Y-79548706D01*
X72791028Y-79550627D01*
X73076742Y-79550627D01*
X73096251Y-79548706D01*
X73099571Y-79547330D01*
X73103155Y-79547076D01*
X73121463Y-79540070D01*
X73216701Y-79492451D01*
X73225093Y-79487167D01*
X73227537Y-79486156D01*
X73230286Y-79483899D01*
X73233291Y-79482008D01*
X73235020Y-79480013D01*
X73242690Y-79473719D01*
X73290310Y-79426101D01*
X73296603Y-79418432D01*
X73298600Y-79416701D01*
X73300493Y-79413692D01*
X73302747Y-79410947D01*
X73303757Y-79408506D01*
X73309043Y-79400110D01*
X73356662Y-79304873D01*
X73363668Y-79286564D01*
X73363922Y-79282980D01*
X73365298Y-79279660D01*
X73367219Y-79260151D01*
X73367219Y-79074437D01*
X73600552Y-79074437D01*
X73620061Y-79072516D01*
X73656109Y-79057584D01*
X73683699Y-79029994D01*
X73698631Y-78993946D01*
X73698631Y-78954928D01*
X73683699Y-78918880D01*
X73656109Y-78891290D01*
X73620061Y-78876358D01*
X73600552Y-78874437D01*
X72600552Y-78874437D01*
X72581043Y-78876358D01*
X72544995Y-78891290D01*
X72517405Y-78918880D01*
X72502473Y-78954928D01*
X72502473Y-78993946D01*
X72513410Y-79020350D01*
X72511109Y-79024954D01*
X72504103Y-79043262D01*
X72503848Y-79046845D01*
X72502473Y-79050166D01*
X72500552Y-79069675D01*
X72056108Y-79069675D01*
X72056108Y-78050166D01*
X72502473Y-78050166D01*
X72502473Y-78089184D01*
X72517405Y-78125232D01*
X72544995Y-78152822D01*
X72581043Y-78167754D01*
X72600552Y-78169675D01*
X73100754Y-78169675D01*
X73145064Y-78191829D01*
X73167219Y-78236139D01*
X73167219Y-78331782D01*
X73137414Y-78391391D01*
X73130560Y-78398246D01*
X72600552Y-78398246D01*
X72581043Y-78400167D01*
X72544995Y-78415099D01*
X72517405Y-78442689D01*
X72502473Y-78478737D01*
X72502473Y-78517755D01*
X72517405Y-78553803D01*
X72544995Y-78581393D01*
X72581043Y-78596325D01*
X72600552Y-78598246D01*
X73267219Y-78598246D01*
X73286728Y-78596325D01*
X73322776Y-78581393D01*
X73350366Y-78553803D01*
X73365298Y-78517755D01*
X73365298Y-78478737D01*
X73350366Y-78442689D01*
X73340370Y-78432693D01*
X73356662Y-78400111D01*
X73363668Y-78381802D01*
X73363922Y-78378218D01*
X73365298Y-78374898D01*
X73367219Y-78355389D01*
X73367219Y-78212532D01*
X73365298Y-78193023D01*
X73363922Y-78189702D01*
X73363668Y-78186119D01*
X73356662Y-78167810D01*
X73309043Y-78072573D01*
X73306989Y-78069310D01*
X73306476Y-78067770D01*
X73304812Y-78065852D01*
X73298600Y-78055982D01*
X73289125Y-78047765D01*
X73280911Y-78038294D01*
X73271039Y-78032080D01*
X73269123Y-78030418D01*
X73267584Y-78029904D01*
X73264321Y-78027851D01*
X73169082Y-77980232D01*
X73150773Y-77973226D01*
X73147190Y-77972971D01*
X73143870Y-77971596D01*
X73124361Y-77969675D01*
X72600552Y-77969675D01*
X72581043Y-77971596D01*
X72544995Y-77986528D01*
X72517405Y-78014118D01*
X72502473Y-78050166D01*
X72056108Y-78050166D01*
X72056108Y-77641103D01*
X72500552Y-77641103D01*
X72500552Y-77736341D01*
X72502473Y-77755850D01*
X72517405Y-77791898D01*
X72544995Y-77819488D01*
X72581043Y-77834420D01*
X72620061Y-77834420D01*
X72656109Y-77819488D01*
X72683699Y-77791898D01*
X72698631Y-77755850D01*
X72700552Y-77736341D01*
X72700552Y-77664710D01*
X72730357Y-77605100D01*
X72755025Y-77580431D01*
X72814635Y-77550627D01*
X73267219Y-77550627D01*
X73286728Y-77548706D01*
X73322776Y-77533774D01*
X73350366Y-77506184D01*
X73365298Y-77470136D01*
X73365298Y-77431118D01*
X73350366Y-77395070D01*
X73322776Y-77367480D01*
X73286728Y-77352548D01*
X73267219Y-77350627D01*
X72600552Y-77350627D01*
X72581043Y-77352548D01*
X72544995Y-77367480D01*
X72517405Y-77395070D01*
X72502473Y-77431118D01*
X72502473Y-77470136D01*
X72517405Y-77506184D01*
X72543273Y-77532052D01*
X72511109Y-77596382D01*
X72504103Y-77614690D01*
X72503848Y-77618273D01*
X72502473Y-77621594D01*
X72500552Y-77641103D01*
X72056108Y-77641103D01*
X72056108Y-77022055D01*
X72500552Y-77022055D01*
X72500552Y-77117293D01*
X72502473Y-77136802D01*
X72517405Y-77172850D01*
X72544995Y-77200440D01*
X72581043Y-77215372D01*
X72620061Y-77215372D01*
X72656109Y-77200440D01*
X72683699Y-77172850D01*
X72698631Y-77136802D01*
X72700552Y-77117293D01*
X72700552Y-77045662D01*
X72730357Y-76986052D01*
X72755025Y-76961383D01*
X72814635Y-76931579D01*
X73267219Y-76931579D01*
X73286728Y-76929658D01*
X73322776Y-76914726D01*
X73350366Y-76887136D01*
X73365298Y-76851088D01*
X73365298Y-76812070D01*
X73350366Y-76776022D01*
X73322776Y-76748432D01*
X73286728Y-76733500D01*
X73267219Y-76731579D01*
X72600552Y-76731579D01*
X72581043Y-76733500D01*
X72544995Y-76748432D01*
X72517405Y-76776022D01*
X72502473Y-76812070D01*
X72502473Y-76851088D01*
X72517405Y-76887136D01*
X72543273Y-76913004D01*
X72511109Y-76977334D01*
X72504103Y-76995642D01*
X72503848Y-76999225D01*
X72502473Y-77002546D01*
X72500552Y-77022055D01*
X72056108Y-77022055D01*
X72056108Y-76069674D01*
X72500552Y-76069674D01*
X72500552Y-76260150D01*
X72502473Y-76279659D01*
X72503848Y-76282979D01*
X72504103Y-76286563D01*
X72511109Y-76304871D01*
X72558728Y-76400109D01*
X72560781Y-76403372D01*
X72561295Y-76404911D01*
X72562957Y-76406827D01*
X72569171Y-76416699D01*
X72578641Y-76424912D01*
X72586859Y-76434388D01*
X72596732Y-76440602D01*
X72598648Y-76442264D01*
X72600186Y-76442776D01*
X72603450Y-76444831D01*
X72698687Y-76492450D01*
X72716996Y-76499456D01*
X72720579Y-76499710D01*
X72723900Y-76501086D01*
X72743409Y-76503007D01*
X72838542Y-76503007D01*
X72838647Y-76503007D01*
X72858156Y-76501086D01*
X72867208Y-76497336D01*
X72876819Y-76495435D01*
X72885057Y-76489942D01*
X72894204Y-76486154D01*
X72901130Y-76479227D01*
X72909284Y-76473792D01*
X72914794Y-76465563D01*
X72921794Y-76458564D01*
X72925543Y-76449512D01*
X72930995Y-76441372D01*
X72936705Y-76422619D01*
X73015865Y-76026817D01*
X73100754Y-76026817D01*
X73145064Y-76048971D01*
X73167219Y-76093281D01*
X73167219Y-76236543D01*
X73130157Y-76310667D01*
X73123151Y-76328975D01*
X73120385Y-76367895D01*
X73132724Y-76404911D01*
X73158288Y-76434388D01*
X73193187Y-76451837D01*
X73232107Y-76454603D01*
X73269123Y-76442264D01*
X73298600Y-76416700D01*
X73309043Y-76400109D01*
X73356662Y-76304872D01*
X73363668Y-76286563D01*
X73363922Y-76282979D01*
X73365298Y-76279659D01*
X73367219Y-76260150D01*
X73367219Y-76069674D01*
X73365298Y-76050165D01*
X73363922Y-76046844D01*
X73363668Y-76043261D01*
X73356662Y-76024952D01*
X73309043Y-75929715D01*
X73306989Y-75926452D01*
X73306476Y-75924912D01*
X73304812Y-75922994D01*
X73298600Y-75913124D01*
X73289125Y-75904907D01*
X73280911Y-75895436D01*
X73271039Y-75889222D01*
X73269123Y-75887560D01*
X73267584Y-75887046D01*
X73264321Y-75884993D01*
X73169082Y-75837374D01*
X73150773Y-75830368D01*
X73147190Y-75830113D01*
X73143870Y-75828738D01*
X73124361Y-75826817D01*
X72743409Y-75826817D01*
X72723900Y-75828738D01*
X72720579Y-75830113D01*
X72716996Y-75830368D01*
X72698687Y-75837374D01*
X72603450Y-75884993D01*
X72600186Y-75887047D01*
X72598648Y-75887560D01*
X72596732Y-75889221D01*
X72586859Y-75895436D01*
X72578641Y-75904911D01*
X72569171Y-75913125D01*
X72562957Y-75922996D01*
X72561295Y-75924913D01*
X72560781Y-75926451D01*
X72558728Y-75929715D01*
X72511109Y-76024953D01*
X72504103Y-76043261D01*
X72503848Y-76046844D01*
X72502473Y-76050165D01*
X72500552Y-76069674D01*
X72056108Y-76069674D01*
X72056108Y-75383498D01*
X72169140Y-75383498D01*
X72169140Y-75422516D01*
X72184072Y-75458564D01*
X72211662Y-75486154D01*
X72247710Y-75501086D01*
X72267219Y-75503007D01*
X72500552Y-75503007D01*
X72500552Y-75641102D01*
X72502473Y-75660611D01*
X72517405Y-75696659D01*
X72544995Y-75724249D01*
X72581043Y-75739181D01*
X72620061Y-75739181D01*
X72656109Y-75724249D01*
X72683699Y-75696659D01*
X72698631Y-75660611D01*
X72700552Y-75641102D01*
X72700552Y-75503007D01*
X73100754Y-75503007D01*
X73145064Y-75525161D01*
X73167219Y-75569471D01*
X73167219Y-75641102D01*
X73169140Y-75660611D01*
X73184072Y-75696659D01*
X73211662Y-75724249D01*
X73247710Y-75739181D01*
X73286728Y-75739181D01*
X73322776Y-75724249D01*
X73350366Y-75696659D01*
X73365298Y-75660611D01*
X73367219Y-75641102D01*
X73367219Y-75545864D01*
X73365298Y-75526355D01*
X73363922Y-75523034D01*
X73363668Y-75519451D01*
X73356662Y-75501142D01*
X73309043Y-75405905D01*
X73306989Y-75402642D01*
X73306476Y-75401102D01*
X73304812Y-75399184D01*
X73298600Y-75389314D01*
X73289125Y-75381097D01*
X73280911Y-75371626D01*
X73271039Y-75365412D01*
X73269123Y-75363750D01*
X73267584Y-75363236D01*
X73264321Y-75361183D01*
X73169082Y-75313564D01*
X73150773Y-75306558D01*
X73147190Y-75306303D01*
X73143870Y-75304928D01*
X73124361Y-75303007D01*
X72700552Y-75303007D01*
X72700552Y-75260150D01*
X72698631Y-75240641D01*
X72683699Y-75204593D01*
X72656109Y-75177003D01*
X72620061Y-75162071D01*
X72581043Y-75162071D01*
X72544995Y-75177003D01*
X72517405Y-75204593D01*
X72502473Y-75240641D01*
X72500552Y-75260150D01*
X72500552Y-75303007D01*
X72267219Y-75303007D01*
X72247710Y-75304928D01*
X72211662Y-75319860D01*
X72184072Y-75347450D01*
X72169140Y-75383498D01*
X72056108Y-75383498D01*
X72056108Y-74641102D01*
X72500552Y-74641102D01*
X72500552Y-74783959D01*
X72502473Y-74803468D01*
X72503848Y-74806788D01*
X72504103Y-74810372D01*
X72511109Y-74828680D01*
X72558728Y-74923918D01*
X72560781Y-74927181D01*
X72561295Y-74928720D01*
X72562957Y-74930636D01*
X72569171Y-74940508D01*
X72578641Y-74948721D01*
X72586859Y-74958197D01*
X72596732Y-74964411D01*
X72598648Y-74966073D01*
X72600186Y-74966585D01*
X72603450Y-74968640D01*
X72698687Y-75016259D01*
X72716996Y-75023265D01*
X72720579Y-75023519D01*
X72723900Y-75024895D01*
X72743409Y-75026816D01*
X73267219Y-75026816D01*
X73286728Y-75024895D01*
X73322776Y-75009963D01*
X73350366Y-74982373D01*
X73365298Y-74946325D01*
X73365298Y-74907307D01*
X73350366Y-74871259D01*
X73322776Y-74843669D01*
X73286728Y-74828737D01*
X73267219Y-74826816D01*
X72767016Y-74826816D01*
X72722707Y-74804661D01*
X72700552Y-74760351D01*
X72700552Y-74664709D01*
X72730357Y-74605099D01*
X72737212Y-74598245D01*
X73267219Y-74598245D01*
X73286728Y-74596324D01*
X73322776Y-74581392D01*
X73350366Y-74553802D01*
X73365298Y-74517754D01*
X73365298Y-74478736D01*
X73350366Y-74442688D01*
X73322776Y-74415098D01*
X73286728Y-74400166D01*
X73267219Y-74398245D01*
X72600552Y-74398245D01*
X72581043Y-74400166D01*
X72544995Y-74415098D01*
X72517405Y-74442688D01*
X72502473Y-74478736D01*
X72502473Y-74517754D01*
X72517405Y-74553802D01*
X72527400Y-74563797D01*
X72511109Y-74596381D01*
X72504103Y-74614689D01*
X72503848Y-74618272D01*
X72502473Y-74621593D01*
X72500552Y-74641102D01*
X72056108Y-74641102D01*
X72056108Y-74002546D01*
X72169140Y-74002546D01*
X72169140Y-74041564D01*
X72184072Y-74077612D01*
X72196508Y-74092766D01*
X72244127Y-74140384D01*
X72259280Y-74152821D01*
X72269838Y-74157194D01*
X72295329Y-74167753D01*
X72334347Y-74167753D01*
X72370395Y-74152821D01*
X72385549Y-74140385D01*
X72433167Y-74092766D01*
X72445604Y-74077613D01*
X72456973Y-74050165D01*
X72460536Y-74041564D01*
X72460536Y-74002546D01*
X72502473Y-74002546D01*
X72502473Y-74041564D01*
X72517405Y-74077612D01*
X72544995Y-74105202D01*
X72581043Y-74120134D01*
X72600552Y-74122055D01*
X73267219Y-74122055D01*
X73286728Y-74120134D01*
X73322776Y-74105202D01*
X73350366Y-74077612D01*
X73365298Y-74041564D01*
X73365298Y-74002546D01*
X73350366Y-73966498D01*
X73322776Y-73938908D01*
X73286728Y-73923976D01*
X73267219Y-73922055D01*
X72600552Y-73922055D01*
X72581043Y-73923976D01*
X72544995Y-73938908D01*
X72517405Y-73966498D01*
X72502473Y-74002546D01*
X72460536Y-74002546D01*
X72445604Y-73966498D01*
X72445604Y-73966497D01*
X72433167Y-73951344D01*
X72385549Y-73903725D01*
X72370395Y-73891289D01*
X72334347Y-73876357D01*
X72295329Y-73876357D01*
X72269838Y-73886915D01*
X72259280Y-73891289D01*
X72244127Y-73903726D01*
X72196508Y-73951344D01*
X72184073Y-73966497D01*
X72184072Y-73966498D01*
X72169140Y-74002546D01*
X72056108Y-74002546D01*
X72056108Y-72545759D01*
X72167219Y-72545759D01*
X72169140Y-72555469D01*
X72169140Y-72565373D01*
X72172889Y-72574425D01*
X72174791Y-72584036D01*
X72180283Y-72592274D01*
X72184072Y-72601421D01*
X72190998Y-72608347D01*
X72196434Y-72616501D01*
X72204662Y-72622011D01*
X72211662Y-72629011D01*
X72220713Y-72632760D01*
X72228854Y-72638212D01*
X72238561Y-72640153D01*
X72247710Y-72643943D01*
X72267012Y-72645843D01*
X72267114Y-72645864D01*
X72267148Y-72645857D01*
X72267219Y-72645864D01*
X73167219Y-72645864D01*
X73167219Y-72831578D01*
X73169140Y-72851087D01*
X73184072Y-72887135D01*
X73211662Y-72914725D01*
X73247710Y-72929657D01*
X73286728Y-72929657D01*
X73322776Y-72914725D01*
X73350366Y-72887135D01*
X73365298Y-72851087D01*
X73367219Y-72831578D01*
X73367219Y-72260150D01*
X73365298Y-72240641D01*
X73350366Y-72204593D01*
X73322776Y-72177003D01*
X73286728Y-72162071D01*
X73247710Y-72162071D01*
X73211662Y-72177003D01*
X73184072Y-72204593D01*
X73169140Y-72240641D01*
X73167219Y-72260150D01*
X73167219Y-72445864D01*
X72556260Y-72445864D01*
X72576025Y-72426099D01*
X72582316Y-72418432D01*
X72584314Y-72416700D01*
X72586209Y-72413688D01*
X72588461Y-72410945D01*
X72589470Y-72408507D01*
X72594757Y-72400109D01*
X72642376Y-72304872D01*
X72649382Y-72286563D01*
X72652148Y-72247643D01*
X72639809Y-72210627D01*
X72614244Y-72181150D01*
X72579346Y-72163701D01*
X72540426Y-72160936D01*
X72503410Y-72173274D01*
X72473933Y-72198839D01*
X72463490Y-72215429D01*
X72423129Y-72296151D01*
X72346365Y-72372915D01*
X72211749Y-72462659D01*
X72211694Y-72462703D01*
X72211662Y-72462717D01*
X72211588Y-72462790D01*
X72196582Y-72475079D01*
X72191071Y-72483307D01*
X72184072Y-72490307D01*
X72180322Y-72499358D01*
X72174871Y-72507499D01*
X72172929Y-72517206D01*
X72169140Y-72526355D01*
X72169140Y-72536154D01*
X72167219Y-72545759D01*
X72056108Y-72545759D01*
X72056108Y-70783959D01*
X72500552Y-70783959D01*
X72500552Y-70974435D01*
X72502473Y-70993944D01*
X72503848Y-70997264D01*
X72504103Y-71000848D01*
X72511109Y-71019156D01*
X72558728Y-71114394D01*
X72560781Y-71117657D01*
X72561295Y-71119196D01*
X72562957Y-71121112D01*
X72569171Y-71130984D01*
X72578641Y-71139197D01*
X72586859Y-71148673D01*
X72596732Y-71154887D01*
X72598648Y-71156549D01*
X72600186Y-71157061D01*
X72603450Y-71159116D01*
X72698687Y-71206735D01*
X72716996Y-71213741D01*
X72720579Y-71213995D01*
X72723900Y-71215371D01*
X72743409Y-71217292D01*
X72838542Y-71217292D01*
X72838647Y-71217292D01*
X72858156Y-71215371D01*
X72867208Y-71211621D01*
X72876819Y-71209720D01*
X72885057Y-71204227D01*
X72894204Y-71200439D01*
X72901130Y-71193512D01*
X72909284Y-71188077D01*
X72914794Y-71179848D01*
X72921794Y-71172849D01*
X72925543Y-71163797D01*
X72930995Y-71155657D01*
X72936705Y-71136904D01*
X73015865Y-70741102D01*
X73100754Y-70741102D01*
X73145064Y-70763256D01*
X73167219Y-70807566D01*
X73167219Y-70950828D01*
X73130157Y-71024952D01*
X73123151Y-71043260D01*
X73120385Y-71082180D01*
X73132724Y-71119196D01*
X73158288Y-71148673D01*
X73193187Y-71166122D01*
X73232107Y-71168888D01*
X73269123Y-71156549D01*
X73298600Y-71130985D01*
X73309043Y-71114394D01*
X73356662Y-71019157D01*
X73363668Y-71000848D01*
X73363922Y-70997264D01*
X73365298Y-70993944D01*
X73367219Y-70974435D01*
X73367219Y-70783959D01*
X73365298Y-70764450D01*
X73363922Y-70761129D01*
X73363668Y-70757546D01*
X73356662Y-70739237D01*
X73309043Y-70644000D01*
X73306989Y-70640737D01*
X73306476Y-70639197D01*
X73304812Y-70637279D01*
X73298600Y-70627409D01*
X73289125Y-70619192D01*
X73280911Y-70609721D01*
X73271039Y-70603507D01*
X73269123Y-70601845D01*
X73267584Y-70601331D01*
X73264321Y-70599278D01*
X73169082Y-70551659D01*
X73150773Y-70544653D01*
X73147190Y-70544398D01*
X73143870Y-70543023D01*
X73124361Y-70541102D01*
X72743409Y-70541102D01*
X72723900Y-70543023D01*
X72720579Y-70544398D01*
X72716996Y-70544653D01*
X72698687Y-70551659D01*
X72603450Y-70599278D01*
X72600186Y-70601332D01*
X72598648Y-70601845D01*
X72596732Y-70603506D01*
X72586859Y-70609721D01*
X72578641Y-70619196D01*
X72569171Y-70627410D01*
X72562957Y-70637281D01*
X72561295Y-70639198D01*
X72560781Y-70640736D01*
X72558728Y-70644000D01*
X72511109Y-70739238D01*
X72504103Y-70757546D01*
X72503848Y-70761129D01*
X72502473Y-70764450D01*
X72500552Y-70783959D01*
X72056108Y-70783959D01*
X72056108Y-69926816D01*
X72500552Y-69926816D01*
X72500552Y-70069673D01*
X72502473Y-70089182D01*
X72503848Y-70092502D01*
X72504103Y-70096086D01*
X72511109Y-70114394D01*
X72558728Y-70209632D01*
X72560781Y-70212895D01*
X72561295Y-70214434D01*
X72562957Y-70216350D01*
X72569171Y-70226222D01*
X72578641Y-70234435D01*
X72586859Y-70243911D01*
X72596732Y-70250125D01*
X72598648Y-70251787D01*
X72600186Y-70252299D01*
X72603450Y-70254354D01*
X72698687Y-70301973D01*
X72716996Y-70308979D01*
X72720579Y-70309233D01*
X72723900Y-70310609D01*
X72743409Y-70312530D01*
X73267219Y-70312530D01*
X73286728Y-70310609D01*
X73322776Y-70295677D01*
X73350366Y-70268087D01*
X73365298Y-70232039D01*
X73365298Y-70193021D01*
X73350366Y-70156973D01*
X73322776Y-70129383D01*
X73286728Y-70114451D01*
X73267219Y-70112530D01*
X72767016Y-70112530D01*
X72722707Y-70090375D01*
X72700552Y-70046065D01*
X72700552Y-69950423D01*
X72730357Y-69890813D01*
X72737212Y-69883959D01*
X73267219Y-69883959D01*
X73286728Y-69882038D01*
X73322776Y-69867106D01*
X73350366Y-69839516D01*
X73365298Y-69803468D01*
X73365298Y-69764450D01*
X73350366Y-69728402D01*
X73322776Y-69700812D01*
X73286728Y-69685880D01*
X73267219Y-69683959D01*
X72600552Y-69683959D01*
X72581043Y-69685880D01*
X72544995Y-69700812D01*
X72517405Y-69728402D01*
X72502473Y-69764450D01*
X72502473Y-69803468D01*
X72517405Y-69839516D01*
X72527400Y-69849511D01*
X72511109Y-69882095D01*
X72504103Y-69900403D01*
X72503848Y-69903986D01*
X72502473Y-69907307D01*
X72500552Y-69926816D01*
X72056108Y-69926816D01*
X72056108Y-68974435D01*
X72500552Y-68974435D01*
X72500552Y-69164911D01*
X72502473Y-69184420D01*
X72503848Y-69187740D01*
X72504103Y-69191324D01*
X72511109Y-69209632D01*
X72558728Y-69304870D01*
X72560781Y-69308133D01*
X72561295Y-69309672D01*
X72562957Y-69311588D01*
X72569171Y-69321460D01*
X72578641Y-69329673D01*
X72586859Y-69339149D01*
X72596732Y-69345363D01*
X72598648Y-69347025D01*
X72600186Y-69347537D01*
X72603450Y-69349592D01*
X72698687Y-69397211D01*
X72716996Y-69404217D01*
X72720579Y-69404471D01*
X72723900Y-69405847D01*
X72743409Y-69407768D01*
X73267219Y-69407768D01*
X73286728Y-69405847D01*
X73322776Y-69390915D01*
X73350366Y-69363325D01*
X73365298Y-69327277D01*
X73365298Y-69288259D01*
X73354360Y-69261854D01*
X73356662Y-69257252D01*
X73363668Y-69238943D01*
X73363922Y-69235359D01*
X73365298Y-69232039D01*
X73367219Y-69212530D01*
X73367219Y-68974435D01*
X73365298Y-68954926D01*
X73363922Y-68951605D01*
X73363668Y-68948022D01*
X73356662Y-68929713D01*
X73309043Y-68834476D01*
X73306989Y-68831213D01*
X73306476Y-68829673D01*
X73304812Y-68827755D01*
X73298600Y-68817885D01*
X73289125Y-68809668D01*
X73280911Y-68800197D01*
X73271039Y-68793983D01*
X73269123Y-68792321D01*
X73267584Y-68791807D01*
X73264321Y-68789754D01*
X73169082Y-68742135D01*
X73150773Y-68735129D01*
X73147190Y-68734874D01*
X73143870Y-68733499D01*
X73124361Y-68731578D01*
X73029123Y-68731578D01*
X73009614Y-68733499D01*
X73006293Y-68734874D01*
X73002710Y-68735129D01*
X72984401Y-68742135D01*
X72889164Y-68789754D01*
X72885900Y-68791808D01*
X72884362Y-68792321D01*
X72882446Y-68793982D01*
X72872573Y-68800197D01*
X72864355Y-68809672D01*
X72854885Y-68817886D01*
X72848671Y-68827757D01*
X72847009Y-68829674D01*
X72846495Y-68831212D01*
X72844442Y-68834476D01*
X72796823Y-68929714D01*
X72789817Y-68948022D01*
X72789562Y-68951605D01*
X72788187Y-68954926D01*
X72786266Y-68974435D01*
X72786266Y-69188923D01*
X72776844Y-69207768D01*
X72767016Y-69207768D01*
X72722707Y-69185613D01*
X72700552Y-69141303D01*
X72700552Y-68998042D01*
X72737614Y-68923919D01*
X72744620Y-68905610D01*
X72747386Y-68866690D01*
X72735047Y-68829674D01*
X72709482Y-68800197D01*
X72674584Y-68782748D01*
X72635664Y-68779983D01*
X72598648Y-68792321D01*
X72569171Y-68817886D01*
X72558728Y-68834476D01*
X72511109Y-68929714D01*
X72504103Y-68948022D01*
X72503848Y-68951605D01*
X72502473Y-68954926D01*
X72500552Y-68974435D01*
X72056108Y-68974435D01*
X72056108Y-68050164D01*
X72169140Y-68050164D01*
X72169140Y-68089182D01*
X72184072Y-68125230D01*
X72211662Y-68152820D01*
X72247710Y-68167752D01*
X72267219Y-68169673D01*
X73167219Y-68169673D01*
X73167219Y-68545863D01*
X73169140Y-68565372D01*
X73184072Y-68601420D01*
X73211662Y-68629010D01*
X73247710Y-68643942D01*
X73286728Y-68643942D01*
X73322776Y-68629010D01*
X73350366Y-68601420D01*
X73365298Y-68565372D01*
X73367219Y-68545863D01*
X73367219Y-68069673D01*
X73365298Y-68050164D01*
X73350366Y-68014116D01*
X73322776Y-67986526D01*
X73286728Y-67971594D01*
X73267219Y-67969673D01*
X72267219Y-67969673D01*
X72247710Y-67971594D01*
X72211662Y-67986526D01*
X72184072Y-68014116D01*
X72169140Y-68050164D01*
X72056108Y-68050164D01*
X72056108Y-67858562D01*
X73809742Y-67858562D01*
X73809742Y-80326484D01*
G37*
M02*
