%TF.GenerationSoftware,KiCad,Pcbnew,8.0.9-8.0.9-0~ubuntu24.04.1*%
%TF.CreationDate,2025-03-05T09:12:24+01:00*%
%TF.ProjectId,SpeedometerV1,53706565-646f-46d6-9574-657256312e6b,V2*%
%TF.SameCoordinates,Original*%
%TF.FileFunction,Drillmap*%
%TF.FilePolarity,Positive*%
%FSLAX45Y45*%
G04 Gerber Fmt 4.5, Leading zero omitted, Abs format (unit mm)*
G04 Created by KiCad (PCBNEW 8.0.9-8.0.9-0~ubuntu24.04.1) date 2025-03-05 09:12:24*
%MOMM*%
%LPD*%
G01*
G04 APERTURE LIST*
%ADD10C,0.050000*%
%ADD11C,0.200000*%
%ADD12C,0.100000*%
G04 APERTURE END LIST*
D10*
X10210000Y-3540000D02*
G75*
G02*
X10310000Y-3640000I0J-100000D01*
G01*
X3510000Y-3640000D02*
G75*
G02*
X3610000Y-3540000I100000J0D01*
G01*
X10210000Y-8440000D02*
X3610000Y-8440000D01*
X3510000Y-8340000D02*
X3510000Y-3640000D01*
X3610000Y-8440000D02*
G75*
G02*
X3510000Y-8340000I0J100000D01*
G01*
X10310000Y-3640000D02*
X10310000Y-8340000D01*
X3610000Y-3540000D02*
X10210000Y-3540000D01*
X10310000Y-8340000D02*
G75*
G02*
X10210000Y-8440000I-100000J0D01*
G01*
D11*
D12*
X4157500Y-6886500D02*
X4187500Y-6916500D01*
X4187500Y-6886500D02*
X4157500Y-6916500D01*
X4166875Y-7760250D02*
X4196875Y-7790250D01*
X4196875Y-7760250D02*
X4166875Y-7790250D01*
X4247000Y-4391000D02*
X4277000Y-4421000D01*
X4277000Y-4391000D02*
X4247000Y-4421000D01*
X4606875Y-7560250D02*
X4636875Y-7590250D01*
X4636875Y-7560250D02*
X4606875Y-7590250D01*
X4617500Y-6886500D02*
X4647500Y-6916500D01*
X4647500Y-6886500D02*
X4617500Y-6916500D01*
X4746875Y-7760250D02*
X4776875Y-7790250D01*
X4776875Y-7760250D02*
X4746875Y-7790250D01*
X4777500Y-6646500D02*
X4807500Y-6676500D01*
X4807500Y-6646500D02*
X4777500Y-6676500D01*
X4967500Y-6836500D02*
X4997500Y-6866500D01*
X4997500Y-6836500D02*
X4967500Y-6866500D01*
X4967500Y-6986500D02*
X4997500Y-7016500D01*
X4997500Y-6986500D02*
X4967500Y-7016500D01*
X4967500Y-7136500D02*
X4997500Y-7166500D01*
X4997500Y-7136500D02*
X4967500Y-7166500D01*
X5077500Y-7256500D02*
X5107500Y-7286500D01*
X5107500Y-7256500D02*
X5077500Y-7286500D01*
X5197500Y-6646500D02*
X5227500Y-6676500D01*
X5227500Y-6646500D02*
X5197500Y-6676500D01*
X5467500Y-6786500D02*
X5497500Y-6816500D01*
X5497500Y-6786500D02*
X5467500Y-6816500D01*
X5493125Y-7944000D02*
X5523125Y-7974000D01*
X5523125Y-7944000D02*
X5493125Y-7974000D01*
X5567500Y-7036500D02*
X5597500Y-7066500D01*
X5597500Y-7036500D02*
X5567500Y-7066500D01*
X5681875Y-7715250D02*
X5711875Y-7745250D01*
X5711875Y-7715250D02*
X5681875Y-7745250D01*
X5767500Y-6666500D02*
X5797500Y-6696500D01*
X5797500Y-6666500D02*
X5767500Y-6696500D01*
X5817500Y-6966500D02*
X5847500Y-6996500D01*
X5847500Y-6966500D02*
X5817500Y-6996500D01*
X5917000Y-3901000D02*
X5947000Y-3931000D01*
X5947000Y-3901000D02*
X5917000Y-3931000D01*
X5917000Y-4001000D02*
X5947000Y-4031000D01*
X5947000Y-4001000D02*
X5917000Y-4031000D01*
X5917000Y-4601000D02*
X5947000Y-4631000D01*
X5947000Y-4601000D02*
X5917000Y-4631000D01*
X5917000Y-4701000D02*
X5947000Y-4731000D01*
X5947000Y-4701000D02*
X5917000Y-4731000D01*
X5917500Y-6536500D02*
X5947500Y-6566500D01*
X5947500Y-6536500D02*
X5917500Y-6566500D01*
X5917500Y-6666500D02*
X5947500Y-6696500D01*
X5947500Y-6666500D02*
X5917500Y-6696500D01*
X5917500Y-6786500D02*
X5947500Y-6816500D01*
X5947500Y-6786500D02*
X5917500Y-6816500D01*
X6017000Y-3901000D02*
X6047000Y-3931000D01*
X6047000Y-3901000D02*
X6017000Y-3931000D01*
X6017000Y-4001000D02*
X6047000Y-4031000D01*
X6047000Y-4001000D02*
X6017000Y-4031000D01*
X6017000Y-4601000D02*
X6047000Y-4631000D01*
X6047000Y-4601000D02*
X6017000Y-4631000D01*
X6017000Y-4701000D02*
X6047000Y-4731000D01*
X6047000Y-4701000D02*
X6017000Y-4731000D01*
X6117000Y-3901000D02*
X6147000Y-3931000D01*
X6147000Y-3901000D02*
X6117000Y-3931000D01*
X6117000Y-4001000D02*
X6147000Y-4031000D01*
X6147000Y-4001000D02*
X6117000Y-4031000D01*
X6117000Y-4501000D02*
X6147000Y-4531000D01*
X6147000Y-4501000D02*
X6117000Y-4531000D01*
X6117000Y-4601000D02*
X6147000Y-4631000D01*
X6147000Y-4601000D02*
X6117000Y-4631000D01*
X6167500Y-7096500D02*
X6197500Y-7126500D01*
X6197500Y-7096500D02*
X6167500Y-7126500D01*
X6217000Y-3901000D02*
X6247000Y-3931000D01*
X6247000Y-3901000D02*
X6217000Y-3931000D01*
X6217000Y-4001000D02*
X6247000Y-4031000D01*
X6247000Y-4001000D02*
X6217000Y-4031000D01*
X6217000Y-4501000D02*
X6247000Y-4531000D01*
X6247000Y-4501000D02*
X6217000Y-4531000D01*
X6267500Y-7096500D02*
X6297500Y-7126500D01*
X6297500Y-7096500D02*
X6267500Y-7126500D01*
X6317000Y-3901000D02*
X6347000Y-3931000D01*
X6347000Y-3901000D02*
X6317000Y-3931000D01*
X6317000Y-4001000D02*
X6347000Y-4031000D01*
X6347000Y-4001000D02*
X6317000Y-4031000D01*
X6317000Y-4701000D02*
X6347000Y-4731000D01*
X6347000Y-4701000D02*
X6317000Y-4731000D01*
X6342000Y-4526000D02*
X6372000Y-4556000D01*
X6372000Y-4526000D02*
X6342000Y-4556000D01*
X6417000Y-3901000D02*
X6447000Y-3931000D01*
X6447000Y-3901000D02*
X6417000Y-3931000D01*
X6417000Y-4001000D02*
X6447000Y-4031000D01*
X6447000Y-4001000D02*
X6417000Y-4031000D01*
X6417000Y-4601000D02*
X6447000Y-4631000D01*
X6447000Y-4601000D02*
X6417000Y-4631000D01*
X6417000Y-4701000D02*
X6447000Y-4731000D01*
X6447000Y-4701000D02*
X6417000Y-4731000D01*
X6517000Y-4701000D02*
X6547000Y-4731000D01*
X6547000Y-4701000D02*
X6517000Y-4731000D01*
X6758877Y-4985000D02*
X6788877Y-5015000D01*
X6788877Y-4985000D02*
X6758877Y-5015000D01*
X6758877Y-5135000D02*
X6788877Y-5165000D01*
X6788877Y-5135000D02*
X6758877Y-5165000D01*
X6758877Y-5285000D02*
X6788877Y-5315000D01*
X6788877Y-5285000D02*
X6758877Y-5315000D01*
X6758877Y-5435000D02*
X6788877Y-5465000D01*
X6788877Y-5435000D02*
X6758877Y-5465000D01*
X6758877Y-5585000D02*
X6788877Y-5615000D01*
X6788877Y-5585000D02*
X6758877Y-5615000D01*
X6767500Y-6286500D02*
X6797500Y-6316500D01*
X6797500Y-6286500D02*
X6767500Y-6316500D01*
X6797500Y-6416500D02*
X6827500Y-6446500D01*
X6827500Y-6416500D02*
X6797500Y-6446500D01*
X6797500Y-6516500D02*
X6827500Y-6546500D01*
X6827500Y-6516500D02*
X6797500Y-6546500D01*
X6997500Y-6966500D02*
X7027500Y-6996500D01*
X7027500Y-6966500D02*
X6997500Y-6996500D01*
X7025000Y-4919750D02*
X7055000Y-4949750D01*
X7055000Y-4919750D02*
X7025000Y-4949750D01*
X7025000Y-5751000D02*
X7055000Y-5781000D01*
X7055000Y-5751000D02*
X7025000Y-5781000D01*
X7057500Y-7266500D02*
X7087500Y-7296500D01*
X7087500Y-7266500D02*
X7057500Y-7296500D01*
X7157500Y-7266500D02*
X7187500Y-7296500D01*
X7187500Y-7266500D02*
X7157500Y-7296500D01*
X7206250Y-4761000D02*
X7236250Y-4791000D01*
X7236250Y-4761000D02*
X7206250Y-4791000D01*
X7447500Y-6966500D02*
X7477500Y-6996500D01*
X7477500Y-6966500D02*
X7447500Y-6996500D01*
X7447500Y-7056500D02*
X7477500Y-7086500D01*
X7477500Y-7056500D02*
X7447500Y-7086500D01*
X7497500Y-6736500D02*
X7527500Y-6766500D01*
X7527500Y-6736500D02*
X7497500Y-6766500D01*
X7497500Y-6836500D02*
X7527500Y-6866500D01*
X7527500Y-6836500D02*
X7497500Y-6866500D01*
X7765000Y-6035000D02*
X7795000Y-6065000D01*
X7795000Y-6035000D02*
X7765000Y-6065000D01*
X7915000Y-5501000D02*
X7945000Y-5531000D01*
X7945000Y-5501000D02*
X7915000Y-5531000D01*
X7990000Y-5761000D02*
X8020000Y-5791000D01*
X8020000Y-5761000D02*
X7990000Y-5791000D01*
X8065000Y-5211000D02*
X8095000Y-5241000D01*
X8095000Y-5211000D02*
X8065000Y-5241000D01*
X8205000Y-6065000D02*
X8235000Y-6095000D01*
X8235000Y-6065000D02*
X8205000Y-6095000D01*
X8215000Y-4811000D02*
X8245000Y-4841000D01*
X8245000Y-4811000D02*
X8215000Y-4841000D01*
X8235000Y-5049750D02*
X8265000Y-5079750D01*
X8265000Y-5049750D02*
X8235000Y-5079750D01*
X8338750Y-5306000D02*
X8368750Y-5336000D01*
X8368750Y-5306000D02*
X8338750Y-5336000D01*
X8365000Y-6285000D02*
X8395000Y-6315000D01*
X8395000Y-6285000D02*
X8365000Y-6315000D01*
X8567500Y-6636500D02*
X8597500Y-6666500D01*
X8597500Y-6636500D02*
X8567500Y-6666500D01*
X8825000Y-4999750D02*
X8855000Y-5029750D01*
X8855000Y-4999750D02*
X8825000Y-5029750D01*
X8825000Y-5851000D02*
X8855000Y-5881000D01*
X8855000Y-5851000D02*
X8825000Y-5881000D01*
X3720000Y-4400000D02*
G75*
G02*
X3680000Y-4400000I-20000J0D01*
G01*
X3680000Y-4400000D02*
G75*
G02*
X3720000Y-4400000I20000J0D01*
G01*
X3720000Y-4600000D02*
G75*
G02*
X3680000Y-4600000I-20000J0D01*
G01*
X3680000Y-4600000D02*
G75*
G02*
X3720000Y-4600000I20000J0D01*
G01*
X3720000Y-4800000D02*
G75*
G02*
X3680000Y-4800000I-20000J0D01*
G01*
X3680000Y-4800000D02*
G75*
G02*
X3720000Y-4800000I20000J0D01*
G01*
X3720000Y-5000000D02*
G75*
G02*
X3680000Y-5000000I-20000J0D01*
G01*
X3680000Y-5000000D02*
G75*
G02*
X3720000Y-5000000I20000J0D01*
G01*
X3720000Y-6600000D02*
G75*
G02*
X3680000Y-6600000I-20000J0D01*
G01*
X3680000Y-6600000D02*
G75*
G02*
X3720000Y-6600000I20000J0D01*
G01*
X3720000Y-6800000D02*
G75*
G02*
X3680000Y-6800000I-20000J0D01*
G01*
X3680000Y-6800000D02*
G75*
G02*
X3720000Y-6800000I20000J0D01*
G01*
X4020000Y-3700000D02*
G75*
G02*
X3980000Y-3700000I-20000J0D01*
G01*
X3980000Y-3700000D02*
G75*
G02*
X4020000Y-3700000I20000J0D01*
G01*
X4220000Y-3700000D02*
G75*
G02*
X4180000Y-3700000I-20000J0D01*
G01*
X4180000Y-3700000D02*
G75*
G02*
X4220000Y-3700000I20000J0D01*
G01*
X4520000Y-5500000D02*
G75*
G02*
X4480000Y-5500000I-20000J0D01*
G01*
X4480000Y-5500000D02*
G75*
G02*
X4520000Y-5500000I20000J0D01*
G01*
X4720000Y-5500000D02*
G75*
G02*
X4680000Y-5500000I-20000J0D01*
G01*
X4680000Y-5500000D02*
G75*
G02*
X4720000Y-5500000I20000J0D01*
G01*
X4880000Y-8190000D02*
G75*
G02*
X4840000Y-8190000I-20000J0D01*
G01*
X4840000Y-8190000D02*
G75*
G02*
X4880000Y-8190000I20000J0D01*
G01*
X4920000Y-5500000D02*
G75*
G02*
X4880000Y-5500000I-20000J0D01*
G01*
X4880000Y-5500000D02*
G75*
G02*
X4920000Y-5500000I20000J0D01*
G01*
X5120000Y-5100000D02*
G75*
G02*
X5080000Y-5100000I-20000J0D01*
G01*
X5080000Y-5100000D02*
G75*
G02*
X5120000Y-5100000I20000J0D01*
G01*
X5120000Y-5500000D02*
G75*
G02*
X5080000Y-5500000I-20000J0D01*
G01*
X5080000Y-5500000D02*
G75*
G02*
X5120000Y-5500000I20000J0D01*
G01*
X5220000Y-6300000D02*
G75*
G02*
X5180000Y-6300000I-20000J0D01*
G01*
X5180000Y-6300000D02*
G75*
G02*
X5220000Y-6300000I20000J0D01*
G01*
X5230000Y-8190000D02*
G75*
G02*
X5190000Y-8190000I-20000J0D01*
G01*
X5190000Y-8190000D02*
G75*
G02*
X5230000Y-8190000I20000J0D01*
G01*
X5320000Y-5100000D02*
G75*
G02*
X5280000Y-5100000I-20000J0D01*
G01*
X5280000Y-5100000D02*
G75*
G02*
X5320000Y-5100000I20000J0D01*
G01*
X5320000Y-5500000D02*
G75*
G02*
X5280000Y-5500000I-20000J0D01*
G01*
X5280000Y-5500000D02*
G75*
G02*
X5320000Y-5500000I20000J0D01*
G01*
X5420000Y-6300000D02*
G75*
G02*
X5380000Y-6300000I-20000J0D01*
G01*
X5380000Y-6300000D02*
G75*
G02*
X5420000Y-6300000I20000J0D01*
G01*
X5520000Y-5100000D02*
G75*
G02*
X5480000Y-5100000I-20000J0D01*
G01*
X5480000Y-5100000D02*
G75*
G02*
X5520000Y-5100000I20000J0D01*
G01*
X5520000Y-5500000D02*
G75*
G02*
X5480000Y-5500000I-20000J0D01*
G01*
X5480000Y-5500000D02*
G75*
G02*
X5520000Y-5500000I20000J0D01*
G01*
X5520000Y-5700000D02*
G75*
G02*
X5480000Y-5700000I-20000J0D01*
G01*
X5480000Y-5700000D02*
G75*
G02*
X5520000Y-5700000I20000J0D01*
G01*
X5580000Y-8190000D02*
G75*
G02*
X5540000Y-8190000I-20000J0D01*
G01*
X5540000Y-8190000D02*
G75*
G02*
X5580000Y-8190000I20000J0D01*
G01*
X5620000Y-6300000D02*
G75*
G02*
X5580000Y-6300000I-20000J0D01*
G01*
X5580000Y-6300000D02*
G75*
G02*
X5620000Y-6300000I20000J0D01*
G01*
X5720000Y-5100000D02*
G75*
G02*
X5680000Y-5100000I-20000J0D01*
G01*
X5680000Y-5100000D02*
G75*
G02*
X5720000Y-5100000I20000J0D01*
G01*
X5720000Y-5700000D02*
G75*
G02*
X5680000Y-5700000I-20000J0D01*
G01*
X5680000Y-5700000D02*
G75*
G02*
X5720000Y-5700000I20000J0D01*
G01*
X5720000Y-5900000D02*
G75*
G02*
X5680000Y-5900000I-20000J0D01*
G01*
X5680000Y-5900000D02*
G75*
G02*
X5720000Y-5900000I20000J0D01*
G01*
X5820000Y-3700000D02*
G75*
G02*
X5780000Y-3700000I-20000J0D01*
G01*
X5780000Y-3700000D02*
G75*
G02*
X5820000Y-3700000I20000J0D01*
G01*
X5820000Y-6300000D02*
G75*
G02*
X5780000Y-6300000I-20000J0D01*
G01*
X5780000Y-6300000D02*
G75*
G02*
X5820000Y-6300000I20000J0D01*
G01*
X5880000Y-8190000D02*
G75*
G02*
X5840000Y-8190000I-20000J0D01*
G01*
X5840000Y-8190000D02*
G75*
G02*
X5880000Y-8190000I20000J0D01*
G01*
X5920000Y-5100000D02*
G75*
G02*
X5880000Y-5100000I-20000J0D01*
G01*
X5880000Y-5100000D02*
G75*
G02*
X5920000Y-5100000I20000J0D01*
G01*
X5920000Y-5900000D02*
G75*
G02*
X5880000Y-5900000I-20000J0D01*
G01*
X5880000Y-5900000D02*
G75*
G02*
X5920000Y-5900000I20000J0D01*
G01*
X6020000Y-3700000D02*
G75*
G02*
X5980000Y-3700000I-20000J0D01*
G01*
X5980000Y-3700000D02*
G75*
G02*
X6020000Y-3700000I20000J0D01*
G01*
X6120000Y-5100000D02*
G75*
G02*
X6080000Y-5100000I-20000J0D01*
G01*
X6080000Y-5100000D02*
G75*
G02*
X6120000Y-5100000I20000J0D01*
G01*
X6120000Y-5500000D02*
G75*
G02*
X6080000Y-5500000I-20000J0D01*
G01*
X6080000Y-5500000D02*
G75*
G02*
X6120000Y-5500000I20000J0D01*
G01*
X6220000Y-3700000D02*
G75*
G02*
X6180000Y-3700000I-20000J0D01*
G01*
X6180000Y-3700000D02*
G75*
G02*
X6220000Y-3700000I20000J0D01*
G01*
X6230000Y-7440000D02*
G75*
G02*
X6190000Y-7440000I-20000J0D01*
G01*
X6190000Y-7440000D02*
G75*
G02*
X6230000Y-7440000I20000J0D01*
G01*
X6230000Y-7690000D02*
G75*
G02*
X6190000Y-7690000I-20000J0D01*
G01*
X6190000Y-7690000D02*
G75*
G02*
X6230000Y-7690000I20000J0D01*
G01*
X6230000Y-7940000D02*
G75*
G02*
X6190000Y-7940000I-20000J0D01*
G01*
X6190000Y-7940000D02*
G75*
G02*
X6230000Y-7940000I20000J0D01*
G01*
X6320000Y-5100000D02*
G75*
G02*
X6280000Y-5100000I-20000J0D01*
G01*
X6280000Y-5100000D02*
G75*
G02*
X6320000Y-5100000I20000J0D01*
G01*
X6320000Y-5500000D02*
G75*
G02*
X6280000Y-5500000I-20000J0D01*
G01*
X6280000Y-5500000D02*
G75*
G02*
X6320000Y-5500000I20000J0D01*
G01*
X6420000Y-3700000D02*
G75*
G02*
X6380000Y-3700000I-20000J0D01*
G01*
X6380000Y-3700000D02*
G75*
G02*
X6420000Y-3700000I20000J0D01*
G01*
X6520000Y-4900000D02*
G75*
G02*
X6480000Y-4900000I-20000J0D01*
G01*
X6480000Y-4900000D02*
G75*
G02*
X6520000Y-4900000I20000J0D01*
G01*
X6520000Y-5100000D02*
G75*
G02*
X6480000Y-5100000I-20000J0D01*
G01*
X6480000Y-5100000D02*
G75*
G02*
X6520000Y-5100000I20000J0D01*
G01*
X6520000Y-5300000D02*
G75*
G02*
X6480000Y-5300000I-20000J0D01*
G01*
X6480000Y-5300000D02*
G75*
G02*
X6520000Y-5300000I20000J0D01*
G01*
X6520000Y-5500000D02*
G75*
G02*
X6480000Y-5500000I-20000J0D01*
G01*
X6480000Y-5500000D02*
G75*
G02*
X6520000Y-5500000I20000J0D01*
G01*
X6520000Y-5700000D02*
G75*
G02*
X6480000Y-5700000I-20000J0D01*
G01*
X6480000Y-5700000D02*
G75*
G02*
X6520000Y-5700000I20000J0D01*
G01*
X6520000Y-5900000D02*
G75*
G02*
X6480000Y-5900000I-20000J0D01*
G01*
X6480000Y-5900000D02*
G75*
G02*
X6520000Y-5900000I20000J0D01*
G01*
X6530000Y-7440000D02*
G75*
G02*
X6490000Y-7440000I-20000J0D01*
G01*
X6490000Y-7440000D02*
G75*
G02*
X6530000Y-7440000I20000J0D01*
G01*
X6648000Y-3790000D02*
G75*
G02*
X6608000Y-3790000I-20000J0D01*
G01*
X6608000Y-3790000D02*
G75*
G02*
X6648000Y-3790000I20000J0D01*
G01*
X6720000Y-4900000D02*
G75*
G02*
X6680000Y-4900000I-20000J0D01*
G01*
X6680000Y-4900000D02*
G75*
G02*
X6720000Y-4900000I20000J0D01*
G01*
X6830000Y-7440000D02*
G75*
G02*
X6790000Y-7440000I-20000J0D01*
G01*
X6790000Y-7440000D02*
G75*
G02*
X6830000Y-7440000I20000J0D01*
G01*
X6920000Y-3790000D02*
G75*
G02*
X6880000Y-3790000I-20000J0D01*
G01*
X6880000Y-3790000D02*
G75*
G02*
X6920000Y-3790000I20000J0D01*
G01*
X6920000Y-4700000D02*
G75*
G02*
X6880000Y-4700000I-20000J0D01*
G01*
X6880000Y-4700000D02*
G75*
G02*
X6920000Y-4700000I20000J0D01*
G01*
X6920000Y-4900000D02*
G75*
G02*
X6880000Y-4900000I-20000J0D01*
G01*
X6880000Y-4900000D02*
G75*
G02*
X6920000Y-4900000I20000J0D01*
G01*
X7010000Y-6061500D02*
G75*
G02*
X6970000Y-6061500I-20000J0D01*
G01*
X6970000Y-6061500D02*
G75*
G02*
X7010000Y-6061500I20000J0D01*
G01*
X7180000Y-3790000D02*
G75*
G02*
X7140000Y-3790000I-20000J0D01*
G01*
X7140000Y-3790000D02*
G75*
G02*
X7180000Y-3790000I20000J0D01*
G01*
X7480000Y-7190000D02*
G75*
G02*
X7440000Y-7190000I-20000J0D01*
G01*
X7440000Y-7190000D02*
G75*
G02*
X7480000Y-7190000I20000J0D01*
G01*
X7780000Y-6650000D02*
G75*
G02*
X7740000Y-6650000I-20000J0D01*
G01*
X7740000Y-6650000D02*
G75*
G02*
X7780000Y-6650000I20000J0D01*
G01*
X9080000Y-4390000D02*
G75*
G02*
X9040000Y-4390000I-20000J0D01*
G01*
X9040000Y-4390000D02*
G75*
G02*
X9080000Y-4390000I20000J0D01*
G01*
X9330000Y-4390000D02*
G75*
G02*
X9290000Y-4390000I-20000J0D01*
G01*
X9290000Y-4390000D02*
G75*
G02*
X9330000Y-4390000I20000J0D01*
G01*
X9530000Y-3690000D02*
G75*
G02*
X9490000Y-3690000I-20000J0D01*
G01*
X9490000Y-3690000D02*
G75*
G02*
X9530000Y-3690000I20000J0D01*
G01*
X9530000Y-3890000D02*
G75*
G02*
X9490000Y-3890000I-20000J0D01*
G01*
X9490000Y-3890000D02*
G75*
G02*
X9530000Y-3890000I20000J0D01*
G01*
X9530000Y-4090000D02*
G75*
G02*
X9490000Y-4090000I-20000J0D01*
G01*
X9490000Y-4090000D02*
G75*
G02*
X9530000Y-4090000I20000J0D01*
G01*
X9530000Y-4290000D02*
G75*
G02*
X9490000Y-4290000I-20000J0D01*
G01*
X9490000Y-4290000D02*
G75*
G02*
X9530000Y-4290000I20000J0D01*
G01*
X9530000Y-4490000D02*
G75*
G02*
X9490000Y-4490000I-20000J0D01*
G01*
X9490000Y-4490000D02*
G75*
G02*
X9530000Y-4490000I20000J0D01*
G01*
X9530000Y-4690000D02*
G75*
G02*
X9490000Y-4690000I-20000J0D01*
G01*
X9490000Y-4690000D02*
G75*
G02*
X9530000Y-4690000I20000J0D01*
G01*
X9530000Y-4890000D02*
G75*
G02*
X9490000Y-4890000I-20000J0D01*
G01*
X9490000Y-4890000D02*
G75*
G02*
X9530000Y-4890000I20000J0D01*
G01*
X9530000Y-5090000D02*
G75*
G02*
X9490000Y-5090000I-20000J0D01*
G01*
X9490000Y-5090000D02*
G75*
G02*
X9530000Y-5090000I20000J0D01*
G01*
X8370000Y-3781500D02*
X8370000Y-3851500D01*
X8335000Y-3816500D02*
X8405000Y-3816500D01*
X8560000Y-3781500D02*
X8560000Y-3851500D01*
X8525000Y-3816500D02*
X8595000Y-3816500D01*
X4211517Y-5986517D02*
X4211517Y-5933483D01*
X4158483Y-5933483D01*
X4158483Y-5986517D01*
X4211517Y-5986517D01*
X4211517Y-6186517D02*
X4211517Y-6133483D01*
X4158483Y-6133483D01*
X4158483Y-6186517D01*
X4211517Y-6186517D01*
X8426517Y-7766517D02*
X8426517Y-7713483D01*
X8373483Y-7713483D01*
X8373483Y-7766517D01*
X8426517Y-7766517D01*
X8626517Y-7766517D02*
X8626517Y-7713483D01*
X8573483Y-7713483D01*
X8573483Y-7766517D01*
X8626517Y-7766517D01*
X8826517Y-7766517D02*
X8826517Y-7713483D01*
X8773483Y-7713483D01*
X8773483Y-7766517D01*
X8826517Y-7766517D01*
X9026517Y-7766517D02*
X9026517Y-7713483D01*
X8973483Y-7713483D01*
X8973483Y-7766517D01*
X9026517Y-7766517D01*
X7521000Y-4028000D02*
X7561000Y-3988000D01*
X7521000Y-3948000D01*
X7481000Y-3988000D01*
X7521000Y-4028000D01*
X7901000Y-4028000D02*
X7941000Y-3988000D01*
X7901000Y-3948000D01*
X7861000Y-3988000D01*
X7901000Y-4028000D01*
X3739375Y-7230000D02*
X3829375Y-7320000D01*
X3829375Y-7230000D02*
X3739375Y-7320000D01*
X3829375Y-7275000D02*
G75*
G02*
X3739375Y-7275000I-45000J0D01*
G01*
X3739375Y-7275000D02*
G75*
G02*
X3829375Y-7275000I45000J0D01*
G01*
X3739375Y-7484000D02*
X3829375Y-7574000D01*
X3829375Y-7484000D02*
X3739375Y-7574000D01*
X3829375Y-7529000D02*
G75*
G02*
X3739375Y-7529000I-45000J0D01*
G01*
X3739375Y-7529000D02*
G75*
G02*
X3829375Y-7529000I45000J0D01*
G01*
X3739375Y-7884000D02*
X3829375Y-7974000D01*
X3829375Y-7884000D02*
X3739375Y-7974000D01*
X3829375Y-7929000D02*
G75*
G02*
X3739375Y-7929000I-45000J0D01*
G01*
X3739375Y-7929000D02*
G75*
G02*
X3829375Y-7929000I45000J0D01*
G01*
X3739375Y-8138000D02*
X3829375Y-8228000D01*
X3829375Y-8138000D02*
X3739375Y-8228000D01*
X3829375Y-8183000D02*
G75*
G02*
X3739375Y-8183000I-45000J0D01*
G01*
X3739375Y-8183000D02*
G75*
G02*
X3829375Y-8183000I45000J0D01*
G01*
X7731000Y-4831000D02*
X7821000Y-4921000D01*
X7821000Y-4831000D02*
X7731000Y-4921000D01*
X7821000Y-4876000D02*
G75*
G02*
X7731000Y-4876000I-45000J0D01*
G01*
X7731000Y-4876000D02*
G75*
G02*
X7821000Y-4876000I45000J0D01*
G01*
X7985000Y-4831000D02*
X8075000Y-4921000D01*
X8075000Y-4831000D02*
X7985000Y-4921000D01*
X8075000Y-4876000D02*
G75*
G02*
X7985000Y-4876000I-45000J0D01*
G01*
X7985000Y-4876000D02*
G75*
G02*
X8075000Y-4876000I45000J0D01*
G01*
X9175000Y-5141000D02*
X9265000Y-5231000D01*
X9265000Y-5141000D02*
X9175000Y-5231000D01*
X9265000Y-5186000D02*
G75*
G02*
X9175000Y-5186000I-45000J0D01*
G01*
X9175000Y-5186000D02*
G75*
G02*
X9265000Y-5186000I45000J0D01*
G01*
X9175000Y-5395000D02*
X9265000Y-5485000D01*
X9265000Y-5395000D02*
X9175000Y-5485000D01*
X9265000Y-5440000D02*
G75*
G02*
X9175000Y-5440000I-45000J0D01*
G01*
X9175000Y-5440000D02*
G75*
G02*
X9265000Y-5440000I45000J0D01*
G01*
X3710000Y-5377500D02*
X3810000Y-5477500D01*
X3810000Y-5377500D02*
X3710000Y-5477500D01*
X3760000Y-5377500D02*
X3760000Y-5477500D01*
X3710000Y-5427500D02*
X3810000Y-5427500D01*
X3910000Y-4490000D02*
X4010000Y-4590000D01*
X4010000Y-4490000D02*
X3910000Y-4590000D01*
X3960000Y-4490000D02*
X3960000Y-4590000D01*
X3910000Y-4540000D02*
X4010000Y-4540000D01*
X3910000Y-4744000D02*
X4010000Y-4844000D01*
X4010000Y-4744000D02*
X3910000Y-4844000D01*
X3960000Y-4744000D02*
X3960000Y-4844000D01*
X3910000Y-4794000D02*
X4010000Y-4794000D01*
X3964000Y-5377500D02*
X4064000Y-5477500D01*
X4064000Y-5377500D02*
X3964000Y-5477500D01*
X4014000Y-5377500D02*
X4014000Y-5477500D01*
X3964000Y-5427500D02*
X4064000Y-5427500D01*
X6082500Y-6387500D02*
X6182500Y-6487500D01*
X6182500Y-6387500D02*
X6082500Y-6487500D01*
X6132500Y-6387500D02*
X6132500Y-6487500D01*
X6082500Y-6437500D02*
X6182500Y-6437500D01*
X6082500Y-6641500D02*
X6182500Y-6741500D01*
X6182500Y-6641500D02*
X6082500Y-6741500D01*
X6132500Y-6641500D02*
X6132500Y-6741500D01*
X6082500Y-6691500D02*
X6182500Y-6691500D01*
X6260500Y-8166500D02*
X6360500Y-8266500D01*
X6360500Y-8166500D02*
X6260500Y-8266500D01*
X6310500Y-8166500D02*
X6310500Y-8266500D01*
X6260500Y-8216500D02*
X6360500Y-8216500D01*
X6336500Y-6387500D02*
X6436500Y-6487500D01*
X6436500Y-6387500D02*
X6336500Y-6487500D01*
X6386500Y-6387500D02*
X6386500Y-6487500D01*
X6336500Y-6437500D02*
X6436500Y-6437500D01*
X6336500Y-6641500D02*
X6436500Y-6741500D01*
X6436500Y-6641500D02*
X6336500Y-6741500D01*
X6386500Y-6641500D02*
X6386500Y-6741500D01*
X6336500Y-6691500D02*
X6436500Y-6691500D01*
X6514500Y-8166500D02*
X6614500Y-8266500D01*
X6614500Y-8166500D02*
X6514500Y-8266500D01*
X6564500Y-8166500D02*
X6564500Y-8266500D01*
X6514500Y-8216500D02*
X6614500Y-8216500D01*
X6768500Y-8166500D02*
X6868500Y-8266500D01*
X6868500Y-8166500D02*
X6768500Y-8266500D01*
X6818500Y-8166500D02*
X6818500Y-8266500D01*
X6768500Y-8216500D02*
X6868500Y-8216500D01*
X7022500Y-8166500D02*
X7122500Y-8266500D01*
X7122500Y-8166500D02*
X7022500Y-8266500D01*
X7072500Y-8166500D02*
X7072500Y-8266500D01*
X7022500Y-8216500D02*
X7122500Y-8216500D01*
X7276500Y-8166500D02*
X7376500Y-8266500D01*
X7376500Y-8166500D02*
X7276500Y-8266500D01*
X7326500Y-8166500D02*
X7326500Y-8266500D01*
X7276500Y-8216500D02*
X7376500Y-8216500D01*
X7530500Y-8166500D02*
X7630500Y-8266500D01*
X7630500Y-8166500D02*
X7530500Y-8266500D01*
X7580500Y-8166500D02*
X7580500Y-8266500D01*
X7530500Y-8216500D02*
X7630500Y-8216500D01*
X7657500Y-7097500D02*
X7757500Y-7197500D01*
X7757500Y-7097500D02*
X7657500Y-7197500D01*
X7707500Y-7097500D02*
X7707500Y-7197500D01*
X7657500Y-7147500D02*
X7757500Y-7147500D01*
X7657500Y-7351500D02*
X7757500Y-7451500D01*
X7757500Y-7351500D02*
X7657500Y-7451500D01*
X7707500Y-7351500D02*
X7707500Y-7451500D01*
X7657500Y-7401500D02*
X7757500Y-7401500D01*
X7657500Y-7605500D02*
X7757500Y-7705500D01*
X7757500Y-7605500D02*
X7657500Y-7705500D01*
X7707500Y-7605500D02*
X7707500Y-7705500D01*
X7657500Y-7655500D02*
X7757500Y-7655500D01*
X7911500Y-7097500D02*
X8011500Y-7197500D01*
X8011500Y-7097500D02*
X7911500Y-7197500D01*
X7961500Y-7097500D02*
X7961500Y-7197500D01*
X7911500Y-7147500D02*
X8011500Y-7147500D01*
X7911500Y-7351500D02*
X8011500Y-7451500D01*
X8011500Y-7351500D02*
X7911500Y-7451500D01*
X7961500Y-7351500D02*
X7961500Y-7451500D01*
X7911500Y-7401500D02*
X8011500Y-7401500D01*
X7911500Y-7605500D02*
X8011500Y-7705500D01*
X8011500Y-7605500D02*
X7911500Y-7705500D01*
X7961500Y-7605500D02*
X7961500Y-7705500D01*
X7911500Y-7655500D02*
X8011500Y-7655500D01*
X8456000Y-7036000D02*
X8556000Y-7136000D01*
X8556000Y-7036000D02*
X8456000Y-7136000D01*
X8506000Y-7036000D02*
X8506000Y-7136000D01*
X8456000Y-7086000D02*
X8556000Y-7086000D01*
X8456000Y-7290000D02*
X8556000Y-7390000D01*
X8556000Y-7290000D02*
X8456000Y-7390000D01*
X8506000Y-7290000D02*
X8506000Y-7390000D01*
X8456000Y-7340000D02*
X8556000Y-7340000D01*
X8710000Y-7036000D02*
X8810000Y-7136000D01*
X8810000Y-7036000D02*
X8710000Y-7136000D01*
X8760000Y-7036000D02*
X8760000Y-7136000D01*
X8710000Y-7086000D02*
X8810000Y-7086000D01*
X8710000Y-7290000D02*
X8810000Y-7390000D01*
X8810000Y-7290000D02*
X8710000Y-7390000D01*
X8760000Y-7290000D02*
X8760000Y-7390000D01*
X8710000Y-7340000D02*
X8810000Y-7340000D01*
X8928500Y-3777500D02*
X9028500Y-3877500D01*
X9028500Y-3777500D02*
X8928500Y-3877500D01*
X8978500Y-3777500D02*
X8978500Y-3877500D01*
X8928500Y-3827500D02*
X9028500Y-3827500D01*
X8928500Y-4031500D02*
X9028500Y-4131500D01*
X9028500Y-4031500D02*
X8928500Y-4131500D01*
X8978500Y-4031500D02*
X8978500Y-4131500D01*
X8928500Y-4081500D02*
X9028500Y-4081500D01*
X9182500Y-3777500D02*
X9282500Y-3877500D01*
X9282500Y-3777500D02*
X9182500Y-3877500D01*
X9232500Y-3777500D02*
X9232500Y-3877500D01*
X9182500Y-3827500D02*
X9282500Y-3827500D01*
X9182500Y-4031500D02*
X9282500Y-4131500D01*
X9282500Y-4031500D02*
X9182500Y-4131500D01*
X9232500Y-4031500D02*
X9232500Y-4131500D01*
X9182500Y-4081500D02*
X9282500Y-4081500D01*
D11*
X3768277Y-8753984D02*
X3768277Y-8553984D01*
X3768277Y-8553984D02*
X3815896Y-8553984D01*
X3815896Y-8553984D02*
X3844467Y-8563508D01*
X3844467Y-8563508D02*
X3863515Y-8582555D01*
X3863515Y-8582555D02*
X3873039Y-8601603D01*
X3873039Y-8601603D02*
X3882562Y-8639698D01*
X3882562Y-8639698D02*
X3882562Y-8668270D01*
X3882562Y-8668270D02*
X3873039Y-8706365D01*
X3873039Y-8706365D02*
X3863515Y-8725412D01*
X3863515Y-8725412D02*
X3844467Y-8744460D01*
X3844467Y-8744460D02*
X3815896Y-8753984D01*
X3815896Y-8753984D02*
X3768277Y-8753984D01*
X3968277Y-8753984D02*
X3968277Y-8620650D01*
X3968277Y-8658746D02*
X3977801Y-8639698D01*
X3977801Y-8639698D02*
X3987324Y-8630174D01*
X3987324Y-8630174D02*
X4006372Y-8620650D01*
X4006372Y-8620650D02*
X4025420Y-8620650D01*
X4092086Y-8753984D02*
X4092086Y-8620650D01*
X4092086Y-8553984D02*
X4082562Y-8563508D01*
X4082562Y-8563508D02*
X4092086Y-8573031D01*
X4092086Y-8573031D02*
X4101610Y-8563508D01*
X4101610Y-8563508D02*
X4092086Y-8553984D01*
X4092086Y-8553984D02*
X4092086Y-8573031D01*
X4215896Y-8753984D02*
X4196848Y-8744460D01*
X4196848Y-8744460D02*
X4187324Y-8725412D01*
X4187324Y-8725412D02*
X4187324Y-8553984D01*
X4320658Y-8753984D02*
X4301610Y-8744460D01*
X4301610Y-8744460D02*
X4292086Y-8725412D01*
X4292086Y-8725412D02*
X4292086Y-8553984D01*
X4549229Y-8753984D02*
X4549229Y-8553984D01*
X4549229Y-8553984D02*
X4615896Y-8696841D01*
X4615896Y-8696841D02*
X4682563Y-8553984D01*
X4682563Y-8553984D02*
X4682563Y-8753984D01*
X4863515Y-8753984D02*
X4863515Y-8649222D01*
X4863515Y-8649222D02*
X4853991Y-8630174D01*
X4853991Y-8630174D02*
X4834944Y-8620650D01*
X4834944Y-8620650D02*
X4796848Y-8620650D01*
X4796848Y-8620650D02*
X4777801Y-8630174D01*
X4863515Y-8744460D02*
X4844467Y-8753984D01*
X4844467Y-8753984D02*
X4796848Y-8753984D01*
X4796848Y-8753984D02*
X4777801Y-8744460D01*
X4777801Y-8744460D02*
X4768277Y-8725412D01*
X4768277Y-8725412D02*
X4768277Y-8706365D01*
X4768277Y-8706365D02*
X4777801Y-8687317D01*
X4777801Y-8687317D02*
X4796848Y-8677793D01*
X4796848Y-8677793D02*
X4844467Y-8677793D01*
X4844467Y-8677793D02*
X4863515Y-8668270D01*
X4958753Y-8620650D02*
X4958753Y-8820650D01*
X4958753Y-8630174D02*
X4977801Y-8620650D01*
X4977801Y-8620650D02*
X5015896Y-8620650D01*
X5015896Y-8620650D02*
X5034944Y-8630174D01*
X5034944Y-8630174D02*
X5044467Y-8639698D01*
X5044467Y-8639698D02*
X5053991Y-8658746D01*
X5053991Y-8658746D02*
X5053991Y-8715889D01*
X5053991Y-8715889D02*
X5044467Y-8734936D01*
X5044467Y-8734936D02*
X5034944Y-8744460D01*
X5034944Y-8744460D02*
X5015896Y-8753984D01*
X5015896Y-8753984D02*
X4977801Y-8753984D01*
X4977801Y-8753984D02*
X4958753Y-8744460D01*
X5139705Y-8734936D02*
X5149229Y-8744460D01*
X5149229Y-8744460D02*
X5139705Y-8753984D01*
X5139705Y-8753984D02*
X5130182Y-8744460D01*
X5130182Y-8744460D02*
X5139705Y-8734936D01*
X5139705Y-8734936D02*
X5139705Y-8753984D01*
X5139705Y-8630174D02*
X5149229Y-8639698D01*
X5149229Y-8639698D02*
X5139705Y-8649222D01*
X5139705Y-8649222D02*
X5130182Y-8639698D01*
X5130182Y-8639698D02*
X5139705Y-8630174D01*
X5139705Y-8630174D02*
X5139705Y-8649222D01*
D12*
X3477500Y-9067500D02*
X3507500Y-9097500D01*
X3507500Y-9067500D02*
X3477500Y-9097500D01*
D11*
X3806372Y-8973984D02*
X3825420Y-8973984D01*
X3825420Y-8973984D02*
X3844467Y-8983508D01*
X3844467Y-8983508D02*
X3853991Y-8993031D01*
X3853991Y-8993031D02*
X3863515Y-9012079D01*
X3863515Y-9012079D02*
X3873039Y-9050174D01*
X3873039Y-9050174D02*
X3873039Y-9097793D01*
X3873039Y-9097793D02*
X3863515Y-9135889D01*
X3863515Y-9135889D02*
X3853991Y-9154936D01*
X3853991Y-9154936D02*
X3844467Y-9164460D01*
X3844467Y-9164460D02*
X3825420Y-9173984D01*
X3825420Y-9173984D02*
X3806372Y-9173984D01*
X3806372Y-9173984D02*
X3787324Y-9164460D01*
X3787324Y-9164460D02*
X3777801Y-9154936D01*
X3777801Y-9154936D02*
X3768277Y-9135889D01*
X3768277Y-9135889D02*
X3758753Y-9097793D01*
X3758753Y-9097793D02*
X3758753Y-9050174D01*
X3758753Y-9050174D02*
X3768277Y-9012079D01*
X3768277Y-9012079D02*
X3777801Y-8993031D01*
X3777801Y-8993031D02*
X3787324Y-8983508D01*
X3787324Y-8983508D02*
X3806372Y-8973984D01*
X3958753Y-9154936D02*
X3968277Y-9164460D01*
X3968277Y-9164460D02*
X3958753Y-9173984D01*
X3958753Y-9173984D02*
X3949229Y-9164460D01*
X3949229Y-9164460D02*
X3958753Y-9154936D01*
X3958753Y-9154936D02*
X3958753Y-9173984D01*
X4034943Y-8973984D02*
X4158753Y-8973984D01*
X4158753Y-8973984D02*
X4092086Y-9050174D01*
X4092086Y-9050174D02*
X4120658Y-9050174D01*
X4120658Y-9050174D02*
X4139705Y-9059698D01*
X4139705Y-9059698D02*
X4149229Y-9069222D01*
X4149229Y-9069222D02*
X4158753Y-9088270D01*
X4158753Y-9088270D02*
X4158753Y-9135889D01*
X4158753Y-9135889D02*
X4149229Y-9154936D01*
X4149229Y-9154936D02*
X4139705Y-9164460D01*
X4139705Y-9164460D02*
X4120658Y-9173984D01*
X4120658Y-9173984D02*
X4063515Y-9173984D01*
X4063515Y-9173984D02*
X4044467Y-9164460D01*
X4044467Y-9164460D02*
X4034943Y-9154936D01*
X4282563Y-8973984D02*
X4301610Y-8973984D01*
X4301610Y-8973984D02*
X4320658Y-8983508D01*
X4320658Y-8983508D02*
X4330182Y-8993031D01*
X4330182Y-8993031D02*
X4339705Y-9012079D01*
X4339705Y-9012079D02*
X4349229Y-9050174D01*
X4349229Y-9050174D02*
X4349229Y-9097793D01*
X4349229Y-9097793D02*
X4339705Y-9135889D01*
X4339705Y-9135889D02*
X4330182Y-9154936D01*
X4330182Y-9154936D02*
X4320658Y-9164460D01*
X4320658Y-9164460D02*
X4301610Y-9173984D01*
X4301610Y-9173984D02*
X4282563Y-9173984D01*
X4282563Y-9173984D02*
X4263515Y-9164460D01*
X4263515Y-9164460D02*
X4253991Y-9154936D01*
X4253991Y-9154936D02*
X4244467Y-9135889D01*
X4244467Y-9135889D02*
X4234944Y-9097793D01*
X4234944Y-9097793D02*
X4234944Y-9050174D01*
X4234944Y-9050174D02*
X4244467Y-9012079D01*
X4244467Y-9012079D02*
X4253991Y-8993031D01*
X4253991Y-8993031D02*
X4263515Y-8983508D01*
X4263515Y-8983508D02*
X4282563Y-8973984D01*
X4473039Y-8973984D02*
X4492086Y-8973984D01*
X4492086Y-8973984D02*
X4511134Y-8983508D01*
X4511134Y-8983508D02*
X4520658Y-8993031D01*
X4520658Y-8993031D02*
X4530182Y-9012079D01*
X4530182Y-9012079D02*
X4539705Y-9050174D01*
X4539705Y-9050174D02*
X4539705Y-9097793D01*
X4539705Y-9097793D02*
X4530182Y-9135889D01*
X4530182Y-9135889D02*
X4520658Y-9154936D01*
X4520658Y-9154936D02*
X4511134Y-9164460D01*
X4511134Y-9164460D02*
X4492086Y-9173984D01*
X4492086Y-9173984D02*
X4473039Y-9173984D01*
X4473039Y-9173984D02*
X4453991Y-9164460D01*
X4453991Y-9164460D02*
X4444467Y-9154936D01*
X4444467Y-9154936D02*
X4434944Y-9135889D01*
X4434944Y-9135889D02*
X4425420Y-9097793D01*
X4425420Y-9097793D02*
X4425420Y-9050174D01*
X4425420Y-9050174D02*
X4434944Y-9012079D01*
X4434944Y-9012079D02*
X4444467Y-8993031D01*
X4444467Y-8993031D02*
X4453991Y-8983508D01*
X4453991Y-8983508D02*
X4473039Y-8973984D01*
X4625420Y-9173984D02*
X4625420Y-9040650D01*
X4625420Y-9059698D02*
X4634944Y-9050174D01*
X4634944Y-9050174D02*
X4653991Y-9040650D01*
X4653991Y-9040650D02*
X4682563Y-9040650D01*
X4682563Y-9040650D02*
X4701610Y-9050174D01*
X4701610Y-9050174D02*
X4711134Y-9069222D01*
X4711134Y-9069222D02*
X4711134Y-9173984D01*
X4711134Y-9069222D02*
X4720658Y-9050174D01*
X4720658Y-9050174D02*
X4739705Y-9040650D01*
X4739705Y-9040650D02*
X4768277Y-9040650D01*
X4768277Y-9040650D02*
X4787325Y-9050174D01*
X4787325Y-9050174D02*
X4796848Y-9069222D01*
X4796848Y-9069222D02*
X4796848Y-9173984D01*
X4892086Y-9173984D02*
X4892086Y-9040650D01*
X4892086Y-9059698D02*
X4901610Y-9050174D01*
X4901610Y-9050174D02*
X4920658Y-9040650D01*
X4920658Y-9040650D02*
X4949229Y-9040650D01*
X4949229Y-9040650D02*
X4968277Y-9050174D01*
X4968277Y-9050174D02*
X4977801Y-9069222D01*
X4977801Y-9069222D02*
X4977801Y-9173984D01*
X4977801Y-9069222D02*
X4987325Y-9050174D01*
X4987325Y-9050174D02*
X5006372Y-9040650D01*
X5006372Y-9040650D02*
X5034944Y-9040650D01*
X5034944Y-9040650D02*
X5053991Y-9050174D01*
X5053991Y-9050174D02*
X5063515Y-9069222D01*
X5063515Y-9069222D02*
X5063515Y-9173984D01*
X5453991Y-8964460D02*
X5282563Y-9221603D01*
X5711134Y-8973984D02*
X5730182Y-8973984D01*
X5730182Y-8973984D02*
X5749229Y-8983508D01*
X5749229Y-8983508D02*
X5758753Y-8993031D01*
X5758753Y-8993031D02*
X5768277Y-9012079D01*
X5768277Y-9012079D02*
X5777801Y-9050174D01*
X5777801Y-9050174D02*
X5777801Y-9097793D01*
X5777801Y-9097793D02*
X5768277Y-9135889D01*
X5768277Y-9135889D02*
X5758753Y-9154936D01*
X5758753Y-9154936D02*
X5749229Y-9164460D01*
X5749229Y-9164460D02*
X5730182Y-9173984D01*
X5730182Y-9173984D02*
X5711134Y-9173984D01*
X5711134Y-9173984D02*
X5692086Y-9164460D01*
X5692086Y-9164460D02*
X5682563Y-9154936D01*
X5682563Y-9154936D02*
X5673039Y-9135889D01*
X5673039Y-9135889D02*
X5663515Y-9097793D01*
X5663515Y-9097793D02*
X5663515Y-9050174D01*
X5663515Y-9050174D02*
X5673039Y-9012079D01*
X5673039Y-9012079D02*
X5682563Y-8993031D01*
X5682563Y-8993031D02*
X5692086Y-8983508D01*
X5692086Y-8983508D02*
X5711134Y-8973984D01*
X5863515Y-9154936D02*
X5873039Y-9164460D01*
X5873039Y-9164460D02*
X5863515Y-9173984D01*
X5863515Y-9173984D02*
X5853991Y-9164460D01*
X5853991Y-9164460D02*
X5863515Y-9154936D01*
X5863515Y-9154936D02*
X5863515Y-9173984D01*
X5996848Y-8973984D02*
X6015896Y-8973984D01*
X6015896Y-8973984D02*
X6034944Y-8983508D01*
X6034944Y-8983508D02*
X6044467Y-8993031D01*
X6044467Y-8993031D02*
X6053991Y-9012079D01*
X6053991Y-9012079D02*
X6063515Y-9050174D01*
X6063515Y-9050174D02*
X6063515Y-9097793D01*
X6063515Y-9097793D02*
X6053991Y-9135889D01*
X6053991Y-9135889D02*
X6044467Y-9154936D01*
X6044467Y-9154936D02*
X6034944Y-9164460D01*
X6034944Y-9164460D02*
X6015896Y-9173984D01*
X6015896Y-9173984D02*
X5996848Y-9173984D01*
X5996848Y-9173984D02*
X5977801Y-9164460D01*
X5977801Y-9164460D02*
X5968277Y-9154936D01*
X5968277Y-9154936D02*
X5958753Y-9135889D01*
X5958753Y-9135889D02*
X5949229Y-9097793D01*
X5949229Y-9097793D02*
X5949229Y-9050174D01*
X5949229Y-9050174D02*
X5958753Y-9012079D01*
X5958753Y-9012079D02*
X5968277Y-8993031D01*
X5968277Y-8993031D02*
X5977801Y-8983508D01*
X5977801Y-8983508D02*
X5996848Y-8973984D01*
X6253991Y-9173984D02*
X6139706Y-9173984D01*
X6196848Y-9173984D02*
X6196848Y-8973984D01*
X6196848Y-8973984D02*
X6177801Y-9002555D01*
X6177801Y-9002555D02*
X6158753Y-9021603D01*
X6158753Y-9021603D02*
X6139706Y-9031127D01*
X6444467Y-9173984D02*
X6330182Y-9173984D01*
X6387325Y-9173984D02*
X6387325Y-8973984D01*
X6387325Y-8973984D02*
X6368277Y-9002555D01*
X6368277Y-9002555D02*
X6349229Y-9021603D01*
X6349229Y-9021603D02*
X6330182Y-9031127D01*
X6558753Y-9059698D02*
X6539706Y-9050174D01*
X6539706Y-9050174D02*
X6530182Y-9040650D01*
X6530182Y-9040650D02*
X6520658Y-9021603D01*
X6520658Y-9021603D02*
X6520658Y-9012079D01*
X6520658Y-9012079D02*
X6530182Y-8993031D01*
X6530182Y-8993031D02*
X6539706Y-8983508D01*
X6539706Y-8983508D02*
X6558753Y-8973984D01*
X6558753Y-8973984D02*
X6596848Y-8973984D01*
X6596848Y-8973984D02*
X6615896Y-8983508D01*
X6615896Y-8983508D02*
X6625420Y-8993031D01*
X6625420Y-8993031D02*
X6634944Y-9012079D01*
X6634944Y-9012079D02*
X6634944Y-9021603D01*
X6634944Y-9021603D02*
X6625420Y-9040650D01*
X6625420Y-9040650D02*
X6615896Y-9050174D01*
X6615896Y-9050174D02*
X6596848Y-9059698D01*
X6596848Y-9059698D02*
X6558753Y-9059698D01*
X6558753Y-9059698D02*
X6539706Y-9069222D01*
X6539706Y-9069222D02*
X6530182Y-9078746D01*
X6530182Y-9078746D02*
X6520658Y-9097793D01*
X6520658Y-9097793D02*
X6520658Y-9135889D01*
X6520658Y-9135889D02*
X6530182Y-9154936D01*
X6530182Y-9154936D02*
X6539706Y-9164460D01*
X6539706Y-9164460D02*
X6558753Y-9173984D01*
X6558753Y-9173984D02*
X6596848Y-9173984D01*
X6596848Y-9173984D02*
X6615896Y-9164460D01*
X6615896Y-9164460D02*
X6625420Y-9154936D01*
X6625420Y-9154936D02*
X6634944Y-9135889D01*
X6634944Y-9135889D02*
X6634944Y-9097793D01*
X6634944Y-9097793D02*
X6625420Y-9078746D01*
X6625420Y-9078746D02*
X6615896Y-9069222D01*
X6615896Y-9069222D02*
X6596848Y-9059698D01*
X6711134Y-8973984D02*
X6711134Y-9012079D01*
X6787325Y-8973984D02*
X6787325Y-9012079D01*
X7082563Y-9250174D02*
X7073039Y-9240650D01*
X7073039Y-9240650D02*
X7053991Y-9212079D01*
X7053991Y-9212079D02*
X7044468Y-9193031D01*
X7044468Y-9193031D02*
X7034944Y-9164460D01*
X7034944Y-9164460D02*
X7025420Y-9116841D01*
X7025420Y-9116841D02*
X7025420Y-9078746D01*
X7025420Y-9078746D02*
X7034944Y-9031127D01*
X7034944Y-9031127D02*
X7044468Y-9002555D01*
X7044468Y-9002555D02*
X7053991Y-8983508D01*
X7053991Y-8983508D02*
X7073039Y-8954936D01*
X7073039Y-8954936D02*
X7082563Y-8945412D01*
X7139706Y-8973984D02*
X7273039Y-8973984D01*
X7273039Y-8973984D02*
X7187325Y-9173984D01*
X7330182Y-8973984D02*
X7463515Y-8973984D01*
X7463515Y-8973984D02*
X7377801Y-9173984D01*
X7692087Y-9173984D02*
X7692087Y-8973984D01*
X7777801Y-9173984D02*
X7777801Y-9069222D01*
X7777801Y-9069222D02*
X7768277Y-9050174D01*
X7768277Y-9050174D02*
X7749230Y-9040650D01*
X7749230Y-9040650D02*
X7720658Y-9040650D01*
X7720658Y-9040650D02*
X7701610Y-9050174D01*
X7701610Y-9050174D02*
X7692087Y-9059698D01*
X7901610Y-9173984D02*
X7882563Y-9164460D01*
X7882563Y-9164460D02*
X7873039Y-9154936D01*
X7873039Y-9154936D02*
X7863515Y-9135889D01*
X7863515Y-9135889D02*
X7863515Y-9078746D01*
X7863515Y-9078746D02*
X7873039Y-9059698D01*
X7873039Y-9059698D02*
X7882563Y-9050174D01*
X7882563Y-9050174D02*
X7901610Y-9040650D01*
X7901610Y-9040650D02*
X7930182Y-9040650D01*
X7930182Y-9040650D02*
X7949230Y-9050174D01*
X7949230Y-9050174D02*
X7958753Y-9059698D01*
X7958753Y-9059698D02*
X7968277Y-9078746D01*
X7968277Y-9078746D02*
X7968277Y-9135889D01*
X7968277Y-9135889D02*
X7958753Y-9154936D01*
X7958753Y-9154936D02*
X7949230Y-9164460D01*
X7949230Y-9164460D02*
X7930182Y-9173984D01*
X7930182Y-9173984D02*
X7901610Y-9173984D01*
X8082563Y-9173984D02*
X8063515Y-9164460D01*
X8063515Y-9164460D02*
X8053991Y-9145412D01*
X8053991Y-9145412D02*
X8053991Y-8973984D01*
X8234944Y-9164460D02*
X8215896Y-9173984D01*
X8215896Y-9173984D02*
X8177801Y-9173984D01*
X8177801Y-9173984D02*
X8158753Y-9164460D01*
X8158753Y-9164460D02*
X8149230Y-9145412D01*
X8149230Y-9145412D02*
X8149230Y-9069222D01*
X8149230Y-9069222D02*
X8158753Y-9050174D01*
X8158753Y-9050174D02*
X8177801Y-9040650D01*
X8177801Y-9040650D02*
X8215896Y-9040650D01*
X8215896Y-9040650D02*
X8234944Y-9050174D01*
X8234944Y-9050174D02*
X8244468Y-9069222D01*
X8244468Y-9069222D02*
X8244468Y-9088270D01*
X8244468Y-9088270D02*
X8149230Y-9107317D01*
X8320658Y-9164460D02*
X8339706Y-9173984D01*
X8339706Y-9173984D02*
X8377801Y-9173984D01*
X8377801Y-9173984D02*
X8396849Y-9164460D01*
X8396849Y-9164460D02*
X8406373Y-9145412D01*
X8406373Y-9145412D02*
X8406373Y-9135889D01*
X8406373Y-9135889D02*
X8396849Y-9116841D01*
X8396849Y-9116841D02*
X8377801Y-9107317D01*
X8377801Y-9107317D02*
X8349230Y-9107317D01*
X8349230Y-9107317D02*
X8330182Y-9097793D01*
X8330182Y-9097793D02*
X8320658Y-9078746D01*
X8320658Y-9078746D02*
X8320658Y-9069222D01*
X8320658Y-9069222D02*
X8330182Y-9050174D01*
X8330182Y-9050174D02*
X8349230Y-9040650D01*
X8349230Y-9040650D02*
X8377801Y-9040650D01*
X8377801Y-9040650D02*
X8396849Y-9050174D01*
X8473039Y-9250174D02*
X8482563Y-9240650D01*
X8482563Y-9240650D02*
X8501611Y-9212079D01*
X8501611Y-9212079D02*
X8511134Y-9193031D01*
X8511134Y-9193031D02*
X8520658Y-9164460D01*
X8520658Y-9164460D02*
X8530182Y-9116841D01*
X8530182Y-9116841D02*
X8530182Y-9078746D01*
X8530182Y-9078746D02*
X8520658Y-9031127D01*
X8520658Y-9031127D02*
X8511134Y-9002555D01*
X8511134Y-9002555D02*
X8501611Y-8983508D01*
X8501611Y-8983508D02*
X8482563Y-8954936D01*
X8482563Y-8954936D02*
X8473039Y-8945412D01*
D12*
X3507500Y-9346500D02*
G75*
G02*
X3467500Y-9346500I-20000J0D01*
G01*
X3467500Y-9346500D02*
G75*
G02*
X3507500Y-9346500I20000J0D01*
G01*
D11*
X3806372Y-9237984D02*
X3825420Y-9237984D01*
X3825420Y-9237984D02*
X3844467Y-9247508D01*
X3844467Y-9247508D02*
X3853991Y-9257031D01*
X3853991Y-9257031D02*
X3863515Y-9276079D01*
X3863515Y-9276079D02*
X3873039Y-9314174D01*
X3873039Y-9314174D02*
X3873039Y-9361793D01*
X3873039Y-9361793D02*
X3863515Y-9399889D01*
X3863515Y-9399889D02*
X3853991Y-9418936D01*
X3853991Y-9418936D02*
X3844467Y-9428460D01*
X3844467Y-9428460D02*
X3825420Y-9437984D01*
X3825420Y-9437984D02*
X3806372Y-9437984D01*
X3806372Y-9437984D02*
X3787324Y-9428460D01*
X3787324Y-9428460D02*
X3777801Y-9418936D01*
X3777801Y-9418936D02*
X3768277Y-9399889D01*
X3768277Y-9399889D02*
X3758753Y-9361793D01*
X3758753Y-9361793D02*
X3758753Y-9314174D01*
X3758753Y-9314174D02*
X3768277Y-9276079D01*
X3768277Y-9276079D02*
X3777801Y-9257031D01*
X3777801Y-9257031D02*
X3787324Y-9247508D01*
X3787324Y-9247508D02*
X3806372Y-9237984D01*
X3958753Y-9418936D02*
X3968277Y-9428460D01*
X3968277Y-9428460D02*
X3958753Y-9437984D01*
X3958753Y-9437984D02*
X3949229Y-9428460D01*
X3949229Y-9428460D02*
X3958753Y-9418936D01*
X3958753Y-9418936D02*
X3958753Y-9437984D01*
X4139705Y-9304650D02*
X4139705Y-9437984D01*
X4092086Y-9228460D02*
X4044467Y-9371317D01*
X4044467Y-9371317D02*
X4168277Y-9371317D01*
X4282563Y-9237984D02*
X4301610Y-9237984D01*
X4301610Y-9237984D02*
X4320658Y-9247508D01*
X4320658Y-9247508D02*
X4330182Y-9257031D01*
X4330182Y-9257031D02*
X4339705Y-9276079D01*
X4339705Y-9276079D02*
X4349229Y-9314174D01*
X4349229Y-9314174D02*
X4349229Y-9361793D01*
X4349229Y-9361793D02*
X4339705Y-9399889D01*
X4339705Y-9399889D02*
X4330182Y-9418936D01*
X4330182Y-9418936D02*
X4320658Y-9428460D01*
X4320658Y-9428460D02*
X4301610Y-9437984D01*
X4301610Y-9437984D02*
X4282563Y-9437984D01*
X4282563Y-9437984D02*
X4263515Y-9428460D01*
X4263515Y-9428460D02*
X4253991Y-9418936D01*
X4253991Y-9418936D02*
X4244467Y-9399889D01*
X4244467Y-9399889D02*
X4234944Y-9361793D01*
X4234944Y-9361793D02*
X4234944Y-9314174D01*
X4234944Y-9314174D02*
X4244467Y-9276079D01*
X4244467Y-9276079D02*
X4253991Y-9257031D01*
X4253991Y-9257031D02*
X4263515Y-9247508D01*
X4263515Y-9247508D02*
X4282563Y-9237984D01*
X4473039Y-9237984D02*
X4492086Y-9237984D01*
X4492086Y-9237984D02*
X4511134Y-9247508D01*
X4511134Y-9247508D02*
X4520658Y-9257031D01*
X4520658Y-9257031D02*
X4530182Y-9276079D01*
X4530182Y-9276079D02*
X4539705Y-9314174D01*
X4539705Y-9314174D02*
X4539705Y-9361793D01*
X4539705Y-9361793D02*
X4530182Y-9399889D01*
X4530182Y-9399889D02*
X4520658Y-9418936D01*
X4520658Y-9418936D02*
X4511134Y-9428460D01*
X4511134Y-9428460D02*
X4492086Y-9437984D01*
X4492086Y-9437984D02*
X4473039Y-9437984D01*
X4473039Y-9437984D02*
X4453991Y-9428460D01*
X4453991Y-9428460D02*
X4444467Y-9418936D01*
X4444467Y-9418936D02*
X4434944Y-9399889D01*
X4434944Y-9399889D02*
X4425420Y-9361793D01*
X4425420Y-9361793D02*
X4425420Y-9314174D01*
X4425420Y-9314174D02*
X4434944Y-9276079D01*
X4434944Y-9276079D02*
X4444467Y-9257031D01*
X4444467Y-9257031D02*
X4453991Y-9247508D01*
X4453991Y-9247508D02*
X4473039Y-9237984D01*
X4625420Y-9437984D02*
X4625420Y-9304650D01*
X4625420Y-9323698D02*
X4634944Y-9314174D01*
X4634944Y-9314174D02*
X4653991Y-9304650D01*
X4653991Y-9304650D02*
X4682563Y-9304650D01*
X4682563Y-9304650D02*
X4701610Y-9314174D01*
X4701610Y-9314174D02*
X4711134Y-9333222D01*
X4711134Y-9333222D02*
X4711134Y-9437984D01*
X4711134Y-9333222D02*
X4720658Y-9314174D01*
X4720658Y-9314174D02*
X4739705Y-9304650D01*
X4739705Y-9304650D02*
X4768277Y-9304650D01*
X4768277Y-9304650D02*
X4787325Y-9314174D01*
X4787325Y-9314174D02*
X4796848Y-9333222D01*
X4796848Y-9333222D02*
X4796848Y-9437984D01*
X4892086Y-9437984D02*
X4892086Y-9304650D01*
X4892086Y-9323698D02*
X4901610Y-9314174D01*
X4901610Y-9314174D02*
X4920658Y-9304650D01*
X4920658Y-9304650D02*
X4949229Y-9304650D01*
X4949229Y-9304650D02*
X4968277Y-9314174D01*
X4968277Y-9314174D02*
X4977801Y-9333222D01*
X4977801Y-9333222D02*
X4977801Y-9437984D01*
X4977801Y-9333222D02*
X4987325Y-9314174D01*
X4987325Y-9314174D02*
X5006372Y-9304650D01*
X5006372Y-9304650D02*
X5034944Y-9304650D01*
X5034944Y-9304650D02*
X5053991Y-9314174D01*
X5053991Y-9314174D02*
X5063515Y-9333222D01*
X5063515Y-9333222D02*
X5063515Y-9437984D01*
X5453991Y-9228460D02*
X5282563Y-9485603D01*
X5711134Y-9237984D02*
X5730182Y-9237984D01*
X5730182Y-9237984D02*
X5749229Y-9247508D01*
X5749229Y-9247508D02*
X5758753Y-9257031D01*
X5758753Y-9257031D02*
X5768277Y-9276079D01*
X5768277Y-9276079D02*
X5777801Y-9314174D01*
X5777801Y-9314174D02*
X5777801Y-9361793D01*
X5777801Y-9361793D02*
X5768277Y-9399889D01*
X5768277Y-9399889D02*
X5758753Y-9418936D01*
X5758753Y-9418936D02*
X5749229Y-9428460D01*
X5749229Y-9428460D02*
X5730182Y-9437984D01*
X5730182Y-9437984D02*
X5711134Y-9437984D01*
X5711134Y-9437984D02*
X5692086Y-9428460D01*
X5692086Y-9428460D02*
X5682563Y-9418936D01*
X5682563Y-9418936D02*
X5673039Y-9399889D01*
X5673039Y-9399889D02*
X5663515Y-9361793D01*
X5663515Y-9361793D02*
X5663515Y-9314174D01*
X5663515Y-9314174D02*
X5673039Y-9276079D01*
X5673039Y-9276079D02*
X5682563Y-9257031D01*
X5682563Y-9257031D02*
X5692086Y-9247508D01*
X5692086Y-9247508D02*
X5711134Y-9237984D01*
X5863515Y-9418936D02*
X5873039Y-9428460D01*
X5873039Y-9428460D02*
X5863515Y-9437984D01*
X5863515Y-9437984D02*
X5853991Y-9428460D01*
X5853991Y-9428460D02*
X5863515Y-9418936D01*
X5863515Y-9418936D02*
X5863515Y-9437984D01*
X5996848Y-9237984D02*
X6015896Y-9237984D01*
X6015896Y-9237984D02*
X6034944Y-9247508D01*
X6034944Y-9247508D02*
X6044467Y-9257031D01*
X6044467Y-9257031D02*
X6053991Y-9276079D01*
X6053991Y-9276079D02*
X6063515Y-9314174D01*
X6063515Y-9314174D02*
X6063515Y-9361793D01*
X6063515Y-9361793D02*
X6053991Y-9399889D01*
X6053991Y-9399889D02*
X6044467Y-9418936D01*
X6044467Y-9418936D02*
X6034944Y-9428460D01*
X6034944Y-9428460D02*
X6015896Y-9437984D01*
X6015896Y-9437984D02*
X5996848Y-9437984D01*
X5996848Y-9437984D02*
X5977801Y-9428460D01*
X5977801Y-9428460D02*
X5968277Y-9418936D01*
X5968277Y-9418936D02*
X5958753Y-9399889D01*
X5958753Y-9399889D02*
X5949229Y-9361793D01*
X5949229Y-9361793D02*
X5949229Y-9314174D01*
X5949229Y-9314174D02*
X5958753Y-9276079D01*
X5958753Y-9276079D02*
X5968277Y-9257031D01*
X5968277Y-9257031D02*
X5977801Y-9247508D01*
X5977801Y-9247508D02*
X5996848Y-9237984D01*
X6253991Y-9437984D02*
X6139706Y-9437984D01*
X6196848Y-9437984D02*
X6196848Y-9237984D01*
X6196848Y-9237984D02*
X6177801Y-9266555D01*
X6177801Y-9266555D02*
X6158753Y-9285603D01*
X6158753Y-9285603D02*
X6139706Y-9295127D01*
X6434944Y-9237984D02*
X6339706Y-9237984D01*
X6339706Y-9237984D02*
X6330182Y-9333222D01*
X6330182Y-9333222D02*
X6339706Y-9323698D01*
X6339706Y-9323698D02*
X6358753Y-9314174D01*
X6358753Y-9314174D02*
X6406372Y-9314174D01*
X6406372Y-9314174D02*
X6425420Y-9323698D01*
X6425420Y-9323698D02*
X6434944Y-9333222D01*
X6434944Y-9333222D02*
X6444467Y-9352270D01*
X6444467Y-9352270D02*
X6444467Y-9399889D01*
X6444467Y-9399889D02*
X6434944Y-9418936D01*
X6434944Y-9418936D02*
X6425420Y-9428460D01*
X6425420Y-9428460D02*
X6406372Y-9437984D01*
X6406372Y-9437984D02*
X6358753Y-9437984D01*
X6358753Y-9437984D02*
X6339706Y-9428460D01*
X6339706Y-9428460D02*
X6330182Y-9418936D01*
X6511134Y-9237984D02*
X6644467Y-9237984D01*
X6644467Y-9237984D02*
X6558753Y-9437984D01*
X6711134Y-9237984D02*
X6711134Y-9276079D01*
X6787325Y-9237984D02*
X6787325Y-9276079D01*
X7082563Y-9514174D02*
X7073039Y-9504650D01*
X7073039Y-9504650D02*
X7053991Y-9476079D01*
X7053991Y-9476079D02*
X7044468Y-9457031D01*
X7044468Y-9457031D02*
X7034944Y-9428460D01*
X7034944Y-9428460D02*
X7025420Y-9380841D01*
X7025420Y-9380841D02*
X7025420Y-9342746D01*
X7025420Y-9342746D02*
X7034944Y-9295127D01*
X7034944Y-9295127D02*
X7044468Y-9266555D01*
X7044468Y-9266555D02*
X7053991Y-9247508D01*
X7053991Y-9247508D02*
X7073039Y-9218936D01*
X7073039Y-9218936D02*
X7082563Y-9209412D01*
X7244468Y-9237984D02*
X7206372Y-9237984D01*
X7206372Y-9237984D02*
X7187325Y-9247508D01*
X7187325Y-9247508D02*
X7177801Y-9257031D01*
X7177801Y-9257031D02*
X7158753Y-9285603D01*
X7158753Y-9285603D02*
X7149229Y-9323698D01*
X7149229Y-9323698D02*
X7149229Y-9399889D01*
X7149229Y-9399889D02*
X7158753Y-9418936D01*
X7158753Y-9418936D02*
X7168277Y-9428460D01*
X7168277Y-9428460D02*
X7187325Y-9437984D01*
X7187325Y-9437984D02*
X7225420Y-9437984D01*
X7225420Y-9437984D02*
X7244468Y-9428460D01*
X7244468Y-9428460D02*
X7253991Y-9418936D01*
X7253991Y-9418936D02*
X7263515Y-9399889D01*
X7263515Y-9399889D02*
X7263515Y-9352270D01*
X7263515Y-9352270D02*
X7253991Y-9333222D01*
X7253991Y-9333222D02*
X7244468Y-9323698D01*
X7244468Y-9323698D02*
X7225420Y-9314174D01*
X7225420Y-9314174D02*
X7187325Y-9314174D01*
X7187325Y-9314174D02*
X7168277Y-9323698D01*
X7168277Y-9323698D02*
X7158753Y-9333222D01*
X7158753Y-9333222D02*
X7149229Y-9352270D01*
X7358753Y-9437984D02*
X7396848Y-9437984D01*
X7396848Y-9437984D02*
X7415896Y-9428460D01*
X7415896Y-9428460D02*
X7425420Y-9418936D01*
X7425420Y-9418936D02*
X7444468Y-9390365D01*
X7444468Y-9390365D02*
X7453991Y-9352270D01*
X7453991Y-9352270D02*
X7453991Y-9276079D01*
X7453991Y-9276079D02*
X7444468Y-9257031D01*
X7444468Y-9257031D02*
X7434944Y-9247508D01*
X7434944Y-9247508D02*
X7415896Y-9237984D01*
X7415896Y-9237984D02*
X7377801Y-9237984D01*
X7377801Y-9237984D02*
X7358753Y-9247508D01*
X7358753Y-9247508D02*
X7349229Y-9257031D01*
X7349229Y-9257031D02*
X7339706Y-9276079D01*
X7339706Y-9276079D02*
X7339706Y-9323698D01*
X7339706Y-9323698D02*
X7349229Y-9342746D01*
X7349229Y-9342746D02*
X7358753Y-9352270D01*
X7358753Y-9352270D02*
X7377801Y-9361793D01*
X7377801Y-9361793D02*
X7415896Y-9361793D01*
X7415896Y-9361793D02*
X7434944Y-9352270D01*
X7434944Y-9352270D02*
X7444468Y-9342746D01*
X7444468Y-9342746D02*
X7453991Y-9323698D01*
X7692087Y-9437984D02*
X7692087Y-9237984D01*
X7777801Y-9437984D02*
X7777801Y-9333222D01*
X7777801Y-9333222D02*
X7768277Y-9314174D01*
X7768277Y-9314174D02*
X7749230Y-9304650D01*
X7749230Y-9304650D02*
X7720658Y-9304650D01*
X7720658Y-9304650D02*
X7701610Y-9314174D01*
X7701610Y-9314174D02*
X7692087Y-9323698D01*
X7901610Y-9437984D02*
X7882563Y-9428460D01*
X7882563Y-9428460D02*
X7873039Y-9418936D01*
X7873039Y-9418936D02*
X7863515Y-9399889D01*
X7863515Y-9399889D02*
X7863515Y-9342746D01*
X7863515Y-9342746D02*
X7873039Y-9323698D01*
X7873039Y-9323698D02*
X7882563Y-9314174D01*
X7882563Y-9314174D02*
X7901610Y-9304650D01*
X7901610Y-9304650D02*
X7930182Y-9304650D01*
X7930182Y-9304650D02*
X7949230Y-9314174D01*
X7949230Y-9314174D02*
X7958753Y-9323698D01*
X7958753Y-9323698D02*
X7968277Y-9342746D01*
X7968277Y-9342746D02*
X7968277Y-9399889D01*
X7968277Y-9399889D02*
X7958753Y-9418936D01*
X7958753Y-9418936D02*
X7949230Y-9428460D01*
X7949230Y-9428460D02*
X7930182Y-9437984D01*
X7930182Y-9437984D02*
X7901610Y-9437984D01*
X8082563Y-9437984D02*
X8063515Y-9428460D01*
X8063515Y-9428460D02*
X8053991Y-9409412D01*
X8053991Y-9409412D02*
X8053991Y-9237984D01*
X8234944Y-9428460D02*
X8215896Y-9437984D01*
X8215896Y-9437984D02*
X8177801Y-9437984D01*
X8177801Y-9437984D02*
X8158753Y-9428460D01*
X8158753Y-9428460D02*
X8149230Y-9409412D01*
X8149230Y-9409412D02*
X8149230Y-9333222D01*
X8149230Y-9333222D02*
X8158753Y-9314174D01*
X8158753Y-9314174D02*
X8177801Y-9304650D01*
X8177801Y-9304650D02*
X8215896Y-9304650D01*
X8215896Y-9304650D02*
X8234944Y-9314174D01*
X8234944Y-9314174D02*
X8244468Y-9333222D01*
X8244468Y-9333222D02*
X8244468Y-9352270D01*
X8244468Y-9352270D02*
X8149230Y-9371317D01*
X8320658Y-9428460D02*
X8339706Y-9437984D01*
X8339706Y-9437984D02*
X8377801Y-9437984D01*
X8377801Y-9437984D02*
X8396849Y-9428460D01*
X8396849Y-9428460D02*
X8406373Y-9409412D01*
X8406373Y-9409412D02*
X8406373Y-9399889D01*
X8406373Y-9399889D02*
X8396849Y-9380841D01*
X8396849Y-9380841D02*
X8377801Y-9371317D01*
X8377801Y-9371317D02*
X8349230Y-9371317D01*
X8349230Y-9371317D02*
X8330182Y-9361793D01*
X8330182Y-9361793D02*
X8320658Y-9342746D01*
X8320658Y-9342746D02*
X8320658Y-9333222D01*
X8320658Y-9333222D02*
X8330182Y-9314174D01*
X8330182Y-9314174D02*
X8349230Y-9304650D01*
X8349230Y-9304650D02*
X8377801Y-9304650D01*
X8377801Y-9304650D02*
X8396849Y-9314174D01*
X8473039Y-9514174D02*
X8482563Y-9504650D01*
X8482563Y-9504650D02*
X8501611Y-9476079D01*
X8501611Y-9476079D02*
X8511134Y-9457031D01*
X8511134Y-9457031D02*
X8520658Y-9428460D01*
X8520658Y-9428460D02*
X8530182Y-9380841D01*
X8530182Y-9380841D02*
X8530182Y-9342746D01*
X8530182Y-9342746D02*
X8520658Y-9295127D01*
X8520658Y-9295127D02*
X8511134Y-9266555D01*
X8511134Y-9266555D02*
X8501611Y-9247508D01*
X8501611Y-9247508D02*
X8482563Y-9218936D01*
X8482563Y-9218936D02*
X8473039Y-9209412D01*
D12*
X3472500Y-9575500D02*
X3472500Y-9645500D01*
X3437500Y-9610500D02*
X3507500Y-9610500D01*
D11*
X3806372Y-9501984D02*
X3825420Y-9501984D01*
X3825420Y-9501984D02*
X3844467Y-9511508D01*
X3844467Y-9511508D02*
X3853991Y-9521031D01*
X3853991Y-9521031D02*
X3863515Y-9540079D01*
X3863515Y-9540079D02*
X3873039Y-9578174D01*
X3873039Y-9578174D02*
X3873039Y-9625793D01*
X3873039Y-9625793D02*
X3863515Y-9663889D01*
X3863515Y-9663889D02*
X3853991Y-9682936D01*
X3853991Y-9682936D02*
X3844467Y-9692460D01*
X3844467Y-9692460D02*
X3825420Y-9701984D01*
X3825420Y-9701984D02*
X3806372Y-9701984D01*
X3806372Y-9701984D02*
X3787324Y-9692460D01*
X3787324Y-9692460D02*
X3777801Y-9682936D01*
X3777801Y-9682936D02*
X3768277Y-9663889D01*
X3768277Y-9663889D02*
X3758753Y-9625793D01*
X3758753Y-9625793D02*
X3758753Y-9578174D01*
X3758753Y-9578174D02*
X3768277Y-9540079D01*
X3768277Y-9540079D02*
X3777801Y-9521031D01*
X3777801Y-9521031D02*
X3787324Y-9511508D01*
X3787324Y-9511508D02*
X3806372Y-9501984D01*
X3958753Y-9682936D02*
X3968277Y-9692460D01*
X3968277Y-9692460D02*
X3958753Y-9701984D01*
X3958753Y-9701984D02*
X3949229Y-9692460D01*
X3949229Y-9692460D02*
X3958753Y-9682936D01*
X3958753Y-9682936D02*
X3958753Y-9701984D01*
X4034943Y-9501984D02*
X4168277Y-9501984D01*
X4168277Y-9501984D02*
X4082562Y-9701984D01*
X4282563Y-9501984D02*
X4301610Y-9501984D01*
X4301610Y-9501984D02*
X4320658Y-9511508D01*
X4320658Y-9511508D02*
X4330182Y-9521031D01*
X4330182Y-9521031D02*
X4339705Y-9540079D01*
X4339705Y-9540079D02*
X4349229Y-9578174D01*
X4349229Y-9578174D02*
X4349229Y-9625793D01*
X4349229Y-9625793D02*
X4339705Y-9663889D01*
X4339705Y-9663889D02*
X4330182Y-9682936D01*
X4330182Y-9682936D02*
X4320658Y-9692460D01*
X4320658Y-9692460D02*
X4301610Y-9701984D01*
X4301610Y-9701984D02*
X4282563Y-9701984D01*
X4282563Y-9701984D02*
X4263515Y-9692460D01*
X4263515Y-9692460D02*
X4253991Y-9682936D01*
X4253991Y-9682936D02*
X4244467Y-9663889D01*
X4244467Y-9663889D02*
X4234944Y-9625793D01*
X4234944Y-9625793D02*
X4234944Y-9578174D01*
X4234944Y-9578174D02*
X4244467Y-9540079D01*
X4244467Y-9540079D02*
X4253991Y-9521031D01*
X4253991Y-9521031D02*
X4263515Y-9511508D01*
X4263515Y-9511508D02*
X4282563Y-9501984D01*
X4473039Y-9501984D02*
X4492086Y-9501984D01*
X4492086Y-9501984D02*
X4511134Y-9511508D01*
X4511134Y-9511508D02*
X4520658Y-9521031D01*
X4520658Y-9521031D02*
X4530182Y-9540079D01*
X4530182Y-9540079D02*
X4539705Y-9578174D01*
X4539705Y-9578174D02*
X4539705Y-9625793D01*
X4539705Y-9625793D02*
X4530182Y-9663889D01*
X4530182Y-9663889D02*
X4520658Y-9682936D01*
X4520658Y-9682936D02*
X4511134Y-9692460D01*
X4511134Y-9692460D02*
X4492086Y-9701984D01*
X4492086Y-9701984D02*
X4473039Y-9701984D01*
X4473039Y-9701984D02*
X4453991Y-9692460D01*
X4453991Y-9692460D02*
X4444467Y-9682936D01*
X4444467Y-9682936D02*
X4434944Y-9663889D01*
X4434944Y-9663889D02*
X4425420Y-9625793D01*
X4425420Y-9625793D02*
X4425420Y-9578174D01*
X4425420Y-9578174D02*
X4434944Y-9540079D01*
X4434944Y-9540079D02*
X4444467Y-9521031D01*
X4444467Y-9521031D02*
X4453991Y-9511508D01*
X4453991Y-9511508D02*
X4473039Y-9501984D01*
X4625420Y-9701984D02*
X4625420Y-9568650D01*
X4625420Y-9587698D02*
X4634944Y-9578174D01*
X4634944Y-9578174D02*
X4653991Y-9568650D01*
X4653991Y-9568650D02*
X4682563Y-9568650D01*
X4682563Y-9568650D02*
X4701610Y-9578174D01*
X4701610Y-9578174D02*
X4711134Y-9597222D01*
X4711134Y-9597222D02*
X4711134Y-9701984D01*
X4711134Y-9597222D02*
X4720658Y-9578174D01*
X4720658Y-9578174D02*
X4739705Y-9568650D01*
X4739705Y-9568650D02*
X4768277Y-9568650D01*
X4768277Y-9568650D02*
X4787325Y-9578174D01*
X4787325Y-9578174D02*
X4796848Y-9597222D01*
X4796848Y-9597222D02*
X4796848Y-9701984D01*
X4892086Y-9701984D02*
X4892086Y-9568650D01*
X4892086Y-9587698D02*
X4901610Y-9578174D01*
X4901610Y-9578174D02*
X4920658Y-9568650D01*
X4920658Y-9568650D02*
X4949229Y-9568650D01*
X4949229Y-9568650D02*
X4968277Y-9578174D01*
X4968277Y-9578174D02*
X4977801Y-9597222D01*
X4977801Y-9597222D02*
X4977801Y-9701984D01*
X4977801Y-9597222D02*
X4987325Y-9578174D01*
X4987325Y-9578174D02*
X5006372Y-9568650D01*
X5006372Y-9568650D02*
X5034944Y-9568650D01*
X5034944Y-9568650D02*
X5053991Y-9578174D01*
X5053991Y-9578174D02*
X5063515Y-9597222D01*
X5063515Y-9597222D02*
X5063515Y-9701984D01*
X5453991Y-9492460D02*
X5282563Y-9749603D01*
X5711134Y-9501984D02*
X5730182Y-9501984D01*
X5730182Y-9501984D02*
X5749229Y-9511508D01*
X5749229Y-9511508D02*
X5758753Y-9521031D01*
X5758753Y-9521031D02*
X5768277Y-9540079D01*
X5768277Y-9540079D02*
X5777801Y-9578174D01*
X5777801Y-9578174D02*
X5777801Y-9625793D01*
X5777801Y-9625793D02*
X5768277Y-9663889D01*
X5768277Y-9663889D02*
X5758753Y-9682936D01*
X5758753Y-9682936D02*
X5749229Y-9692460D01*
X5749229Y-9692460D02*
X5730182Y-9701984D01*
X5730182Y-9701984D02*
X5711134Y-9701984D01*
X5711134Y-9701984D02*
X5692086Y-9692460D01*
X5692086Y-9692460D02*
X5682563Y-9682936D01*
X5682563Y-9682936D02*
X5673039Y-9663889D01*
X5673039Y-9663889D02*
X5663515Y-9625793D01*
X5663515Y-9625793D02*
X5663515Y-9578174D01*
X5663515Y-9578174D02*
X5673039Y-9540079D01*
X5673039Y-9540079D02*
X5682563Y-9521031D01*
X5682563Y-9521031D02*
X5692086Y-9511508D01*
X5692086Y-9511508D02*
X5711134Y-9501984D01*
X5863515Y-9682936D02*
X5873039Y-9692460D01*
X5873039Y-9692460D02*
X5863515Y-9701984D01*
X5863515Y-9701984D02*
X5853991Y-9692460D01*
X5853991Y-9692460D02*
X5863515Y-9682936D01*
X5863515Y-9682936D02*
X5863515Y-9701984D01*
X5996848Y-9501984D02*
X6015896Y-9501984D01*
X6015896Y-9501984D02*
X6034944Y-9511508D01*
X6034944Y-9511508D02*
X6044467Y-9521031D01*
X6044467Y-9521031D02*
X6053991Y-9540079D01*
X6053991Y-9540079D02*
X6063515Y-9578174D01*
X6063515Y-9578174D02*
X6063515Y-9625793D01*
X6063515Y-9625793D02*
X6053991Y-9663889D01*
X6053991Y-9663889D02*
X6044467Y-9682936D01*
X6044467Y-9682936D02*
X6034944Y-9692460D01*
X6034944Y-9692460D02*
X6015896Y-9701984D01*
X6015896Y-9701984D02*
X5996848Y-9701984D01*
X5996848Y-9701984D02*
X5977801Y-9692460D01*
X5977801Y-9692460D02*
X5968277Y-9682936D01*
X5968277Y-9682936D02*
X5958753Y-9663889D01*
X5958753Y-9663889D02*
X5949229Y-9625793D01*
X5949229Y-9625793D02*
X5949229Y-9578174D01*
X5949229Y-9578174D02*
X5958753Y-9540079D01*
X5958753Y-9540079D02*
X5968277Y-9521031D01*
X5968277Y-9521031D02*
X5977801Y-9511508D01*
X5977801Y-9511508D02*
X5996848Y-9501984D01*
X6139706Y-9521031D02*
X6149229Y-9511508D01*
X6149229Y-9511508D02*
X6168277Y-9501984D01*
X6168277Y-9501984D02*
X6215896Y-9501984D01*
X6215896Y-9501984D02*
X6234944Y-9511508D01*
X6234944Y-9511508D02*
X6244467Y-9521031D01*
X6244467Y-9521031D02*
X6253991Y-9540079D01*
X6253991Y-9540079D02*
X6253991Y-9559127D01*
X6253991Y-9559127D02*
X6244467Y-9587698D01*
X6244467Y-9587698D02*
X6130182Y-9701984D01*
X6130182Y-9701984D02*
X6253991Y-9701984D01*
X6320658Y-9501984D02*
X6453991Y-9501984D01*
X6453991Y-9501984D02*
X6368277Y-9701984D01*
X6615896Y-9501984D02*
X6577801Y-9501984D01*
X6577801Y-9501984D02*
X6558753Y-9511508D01*
X6558753Y-9511508D02*
X6549229Y-9521031D01*
X6549229Y-9521031D02*
X6530182Y-9549603D01*
X6530182Y-9549603D02*
X6520658Y-9587698D01*
X6520658Y-9587698D02*
X6520658Y-9663889D01*
X6520658Y-9663889D02*
X6530182Y-9682936D01*
X6530182Y-9682936D02*
X6539706Y-9692460D01*
X6539706Y-9692460D02*
X6558753Y-9701984D01*
X6558753Y-9701984D02*
X6596848Y-9701984D01*
X6596848Y-9701984D02*
X6615896Y-9692460D01*
X6615896Y-9692460D02*
X6625420Y-9682936D01*
X6625420Y-9682936D02*
X6634944Y-9663889D01*
X6634944Y-9663889D02*
X6634944Y-9616270D01*
X6634944Y-9616270D02*
X6625420Y-9597222D01*
X6625420Y-9597222D02*
X6615896Y-9587698D01*
X6615896Y-9587698D02*
X6596848Y-9578174D01*
X6596848Y-9578174D02*
X6558753Y-9578174D01*
X6558753Y-9578174D02*
X6539706Y-9587698D01*
X6539706Y-9587698D02*
X6530182Y-9597222D01*
X6530182Y-9597222D02*
X6520658Y-9616270D01*
X6711134Y-9501984D02*
X6711134Y-9540079D01*
X6787325Y-9501984D02*
X6787325Y-9540079D01*
X7082563Y-9778174D02*
X7073039Y-9768650D01*
X7073039Y-9768650D02*
X7053991Y-9740079D01*
X7053991Y-9740079D02*
X7044468Y-9721031D01*
X7044468Y-9721031D02*
X7034944Y-9692460D01*
X7034944Y-9692460D02*
X7025420Y-9644841D01*
X7025420Y-9644841D02*
X7025420Y-9606746D01*
X7025420Y-9606746D02*
X7034944Y-9559127D01*
X7034944Y-9559127D02*
X7044468Y-9530555D01*
X7044468Y-9530555D02*
X7053991Y-9511508D01*
X7053991Y-9511508D02*
X7073039Y-9482936D01*
X7073039Y-9482936D02*
X7082563Y-9473412D01*
X7149229Y-9521031D02*
X7158753Y-9511508D01*
X7158753Y-9511508D02*
X7177801Y-9501984D01*
X7177801Y-9501984D02*
X7225420Y-9501984D01*
X7225420Y-9501984D02*
X7244468Y-9511508D01*
X7244468Y-9511508D02*
X7253991Y-9521031D01*
X7253991Y-9521031D02*
X7263515Y-9540079D01*
X7263515Y-9540079D02*
X7263515Y-9559127D01*
X7263515Y-9559127D02*
X7253991Y-9587698D01*
X7253991Y-9587698D02*
X7139706Y-9701984D01*
X7139706Y-9701984D02*
X7263515Y-9701984D01*
X7501610Y-9701984D02*
X7501610Y-9501984D01*
X7587325Y-9701984D02*
X7587325Y-9597222D01*
X7587325Y-9597222D02*
X7577801Y-9578174D01*
X7577801Y-9578174D02*
X7558753Y-9568650D01*
X7558753Y-9568650D02*
X7530182Y-9568650D01*
X7530182Y-9568650D02*
X7511134Y-9578174D01*
X7511134Y-9578174D02*
X7501610Y-9587698D01*
X7711134Y-9701984D02*
X7692087Y-9692460D01*
X7692087Y-9692460D02*
X7682563Y-9682936D01*
X7682563Y-9682936D02*
X7673039Y-9663889D01*
X7673039Y-9663889D02*
X7673039Y-9606746D01*
X7673039Y-9606746D02*
X7682563Y-9587698D01*
X7682563Y-9587698D02*
X7692087Y-9578174D01*
X7692087Y-9578174D02*
X7711134Y-9568650D01*
X7711134Y-9568650D02*
X7739706Y-9568650D01*
X7739706Y-9568650D02*
X7758753Y-9578174D01*
X7758753Y-9578174D02*
X7768277Y-9587698D01*
X7768277Y-9587698D02*
X7777801Y-9606746D01*
X7777801Y-9606746D02*
X7777801Y-9663889D01*
X7777801Y-9663889D02*
X7768277Y-9682936D01*
X7768277Y-9682936D02*
X7758753Y-9692460D01*
X7758753Y-9692460D02*
X7739706Y-9701984D01*
X7739706Y-9701984D02*
X7711134Y-9701984D01*
X7892087Y-9701984D02*
X7873039Y-9692460D01*
X7873039Y-9692460D02*
X7863515Y-9673412D01*
X7863515Y-9673412D02*
X7863515Y-9501984D01*
X8044468Y-9692460D02*
X8025420Y-9701984D01*
X8025420Y-9701984D02*
X7987325Y-9701984D01*
X7987325Y-9701984D02*
X7968277Y-9692460D01*
X7968277Y-9692460D02*
X7958753Y-9673412D01*
X7958753Y-9673412D02*
X7958753Y-9597222D01*
X7958753Y-9597222D02*
X7968277Y-9578174D01*
X7968277Y-9578174D02*
X7987325Y-9568650D01*
X7987325Y-9568650D02*
X8025420Y-9568650D01*
X8025420Y-9568650D02*
X8044468Y-9578174D01*
X8044468Y-9578174D02*
X8053991Y-9597222D01*
X8053991Y-9597222D02*
X8053991Y-9616270D01*
X8053991Y-9616270D02*
X7958753Y-9635317D01*
X8130182Y-9692460D02*
X8149230Y-9701984D01*
X8149230Y-9701984D02*
X8187325Y-9701984D01*
X8187325Y-9701984D02*
X8206372Y-9692460D01*
X8206372Y-9692460D02*
X8215896Y-9673412D01*
X8215896Y-9673412D02*
X8215896Y-9663889D01*
X8215896Y-9663889D02*
X8206372Y-9644841D01*
X8206372Y-9644841D02*
X8187325Y-9635317D01*
X8187325Y-9635317D02*
X8158753Y-9635317D01*
X8158753Y-9635317D02*
X8139706Y-9625793D01*
X8139706Y-9625793D02*
X8130182Y-9606746D01*
X8130182Y-9606746D02*
X8130182Y-9597222D01*
X8130182Y-9597222D02*
X8139706Y-9578174D01*
X8139706Y-9578174D02*
X8158753Y-9568650D01*
X8158753Y-9568650D02*
X8187325Y-9568650D01*
X8187325Y-9568650D02*
X8206372Y-9578174D01*
X8282563Y-9778174D02*
X8292087Y-9768650D01*
X8292087Y-9768650D02*
X8311134Y-9740079D01*
X8311134Y-9740079D02*
X8320658Y-9721031D01*
X8320658Y-9721031D02*
X8330182Y-9692460D01*
X8330182Y-9692460D02*
X8339706Y-9644841D01*
X8339706Y-9644841D02*
X8339706Y-9606746D01*
X8339706Y-9606746D02*
X8330182Y-9559127D01*
X8330182Y-9559127D02*
X8320658Y-9530555D01*
X8320658Y-9530555D02*
X8311134Y-9511508D01*
X8311134Y-9511508D02*
X8292087Y-9482936D01*
X8292087Y-9482936D02*
X8282563Y-9473412D01*
D12*
X3496517Y-9901017D02*
X3496517Y-9847983D01*
X3443483Y-9847983D01*
X3443483Y-9901017D01*
X3496517Y-9901017D01*
D11*
X3806372Y-9765984D02*
X3825420Y-9765984D01*
X3825420Y-9765984D02*
X3844467Y-9775508D01*
X3844467Y-9775508D02*
X3853991Y-9785031D01*
X3853991Y-9785031D02*
X3863515Y-9804079D01*
X3863515Y-9804079D02*
X3873039Y-9842174D01*
X3873039Y-9842174D02*
X3873039Y-9889793D01*
X3873039Y-9889793D02*
X3863515Y-9927889D01*
X3863515Y-9927889D02*
X3853991Y-9946936D01*
X3853991Y-9946936D02*
X3844467Y-9956460D01*
X3844467Y-9956460D02*
X3825420Y-9965984D01*
X3825420Y-9965984D02*
X3806372Y-9965984D01*
X3806372Y-9965984D02*
X3787324Y-9956460D01*
X3787324Y-9956460D02*
X3777801Y-9946936D01*
X3777801Y-9946936D02*
X3768277Y-9927889D01*
X3768277Y-9927889D02*
X3758753Y-9889793D01*
X3758753Y-9889793D02*
X3758753Y-9842174D01*
X3758753Y-9842174D02*
X3768277Y-9804079D01*
X3768277Y-9804079D02*
X3777801Y-9785031D01*
X3777801Y-9785031D02*
X3787324Y-9775508D01*
X3787324Y-9775508D02*
X3806372Y-9765984D01*
X3958753Y-9946936D02*
X3968277Y-9956460D01*
X3968277Y-9956460D02*
X3958753Y-9965984D01*
X3958753Y-9965984D02*
X3949229Y-9956460D01*
X3949229Y-9956460D02*
X3958753Y-9946936D01*
X3958753Y-9946936D02*
X3958753Y-9965984D01*
X4034943Y-9765984D02*
X4168277Y-9765984D01*
X4168277Y-9765984D02*
X4082562Y-9965984D01*
X4339705Y-9765984D02*
X4244467Y-9765984D01*
X4244467Y-9765984D02*
X4234944Y-9861222D01*
X4234944Y-9861222D02*
X4244467Y-9851698D01*
X4244467Y-9851698D02*
X4263515Y-9842174D01*
X4263515Y-9842174D02*
X4311134Y-9842174D01*
X4311134Y-9842174D02*
X4330182Y-9851698D01*
X4330182Y-9851698D02*
X4339705Y-9861222D01*
X4339705Y-9861222D02*
X4349229Y-9880270D01*
X4349229Y-9880270D02*
X4349229Y-9927889D01*
X4349229Y-9927889D02*
X4339705Y-9946936D01*
X4339705Y-9946936D02*
X4330182Y-9956460D01*
X4330182Y-9956460D02*
X4311134Y-9965984D01*
X4311134Y-9965984D02*
X4263515Y-9965984D01*
X4263515Y-9965984D02*
X4244467Y-9956460D01*
X4244467Y-9956460D02*
X4234944Y-9946936D01*
X4473039Y-9765984D02*
X4492086Y-9765984D01*
X4492086Y-9765984D02*
X4511134Y-9775508D01*
X4511134Y-9775508D02*
X4520658Y-9785031D01*
X4520658Y-9785031D02*
X4530182Y-9804079D01*
X4530182Y-9804079D02*
X4539705Y-9842174D01*
X4539705Y-9842174D02*
X4539705Y-9889793D01*
X4539705Y-9889793D02*
X4530182Y-9927889D01*
X4530182Y-9927889D02*
X4520658Y-9946936D01*
X4520658Y-9946936D02*
X4511134Y-9956460D01*
X4511134Y-9956460D02*
X4492086Y-9965984D01*
X4492086Y-9965984D02*
X4473039Y-9965984D01*
X4473039Y-9965984D02*
X4453991Y-9956460D01*
X4453991Y-9956460D02*
X4444467Y-9946936D01*
X4444467Y-9946936D02*
X4434944Y-9927889D01*
X4434944Y-9927889D02*
X4425420Y-9889793D01*
X4425420Y-9889793D02*
X4425420Y-9842174D01*
X4425420Y-9842174D02*
X4434944Y-9804079D01*
X4434944Y-9804079D02*
X4444467Y-9785031D01*
X4444467Y-9785031D02*
X4453991Y-9775508D01*
X4453991Y-9775508D02*
X4473039Y-9765984D01*
X4625420Y-9965984D02*
X4625420Y-9832650D01*
X4625420Y-9851698D02*
X4634944Y-9842174D01*
X4634944Y-9842174D02*
X4653991Y-9832650D01*
X4653991Y-9832650D02*
X4682563Y-9832650D01*
X4682563Y-9832650D02*
X4701610Y-9842174D01*
X4701610Y-9842174D02*
X4711134Y-9861222D01*
X4711134Y-9861222D02*
X4711134Y-9965984D01*
X4711134Y-9861222D02*
X4720658Y-9842174D01*
X4720658Y-9842174D02*
X4739705Y-9832650D01*
X4739705Y-9832650D02*
X4768277Y-9832650D01*
X4768277Y-9832650D02*
X4787325Y-9842174D01*
X4787325Y-9842174D02*
X4796848Y-9861222D01*
X4796848Y-9861222D02*
X4796848Y-9965984D01*
X4892086Y-9965984D02*
X4892086Y-9832650D01*
X4892086Y-9851698D02*
X4901610Y-9842174D01*
X4901610Y-9842174D02*
X4920658Y-9832650D01*
X4920658Y-9832650D02*
X4949229Y-9832650D01*
X4949229Y-9832650D02*
X4968277Y-9842174D01*
X4968277Y-9842174D02*
X4977801Y-9861222D01*
X4977801Y-9861222D02*
X4977801Y-9965984D01*
X4977801Y-9861222D02*
X4987325Y-9842174D01*
X4987325Y-9842174D02*
X5006372Y-9832650D01*
X5006372Y-9832650D02*
X5034944Y-9832650D01*
X5034944Y-9832650D02*
X5053991Y-9842174D01*
X5053991Y-9842174D02*
X5063515Y-9861222D01*
X5063515Y-9861222D02*
X5063515Y-9965984D01*
X5453991Y-9756460D02*
X5282563Y-10013603D01*
X5711134Y-9765984D02*
X5730182Y-9765984D01*
X5730182Y-9765984D02*
X5749229Y-9775508D01*
X5749229Y-9775508D02*
X5758753Y-9785031D01*
X5758753Y-9785031D02*
X5768277Y-9804079D01*
X5768277Y-9804079D02*
X5777801Y-9842174D01*
X5777801Y-9842174D02*
X5777801Y-9889793D01*
X5777801Y-9889793D02*
X5768277Y-9927889D01*
X5768277Y-9927889D02*
X5758753Y-9946936D01*
X5758753Y-9946936D02*
X5749229Y-9956460D01*
X5749229Y-9956460D02*
X5730182Y-9965984D01*
X5730182Y-9965984D02*
X5711134Y-9965984D01*
X5711134Y-9965984D02*
X5692086Y-9956460D01*
X5692086Y-9956460D02*
X5682563Y-9946936D01*
X5682563Y-9946936D02*
X5673039Y-9927889D01*
X5673039Y-9927889D02*
X5663515Y-9889793D01*
X5663515Y-9889793D02*
X5663515Y-9842174D01*
X5663515Y-9842174D02*
X5673039Y-9804079D01*
X5673039Y-9804079D02*
X5682563Y-9785031D01*
X5682563Y-9785031D02*
X5692086Y-9775508D01*
X5692086Y-9775508D02*
X5711134Y-9765984D01*
X5863515Y-9946936D02*
X5873039Y-9956460D01*
X5873039Y-9956460D02*
X5863515Y-9965984D01*
X5863515Y-9965984D02*
X5853991Y-9956460D01*
X5853991Y-9956460D02*
X5863515Y-9946936D01*
X5863515Y-9946936D02*
X5863515Y-9965984D01*
X5996848Y-9765984D02*
X6015896Y-9765984D01*
X6015896Y-9765984D02*
X6034944Y-9775508D01*
X6034944Y-9775508D02*
X6044467Y-9785031D01*
X6044467Y-9785031D02*
X6053991Y-9804079D01*
X6053991Y-9804079D02*
X6063515Y-9842174D01*
X6063515Y-9842174D02*
X6063515Y-9889793D01*
X6063515Y-9889793D02*
X6053991Y-9927889D01*
X6053991Y-9927889D02*
X6044467Y-9946936D01*
X6044467Y-9946936D02*
X6034944Y-9956460D01*
X6034944Y-9956460D02*
X6015896Y-9965984D01*
X6015896Y-9965984D02*
X5996848Y-9965984D01*
X5996848Y-9965984D02*
X5977801Y-9956460D01*
X5977801Y-9956460D02*
X5968277Y-9946936D01*
X5968277Y-9946936D02*
X5958753Y-9927889D01*
X5958753Y-9927889D02*
X5949229Y-9889793D01*
X5949229Y-9889793D02*
X5949229Y-9842174D01*
X5949229Y-9842174D02*
X5958753Y-9804079D01*
X5958753Y-9804079D02*
X5968277Y-9785031D01*
X5968277Y-9785031D02*
X5977801Y-9775508D01*
X5977801Y-9775508D02*
X5996848Y-9765984D01*
X6139706Y-9785031D02*
X6149229Y-9775508D01*
X6149229Y-9775508D02*
X6168277Y-9765984D01*
X6168277Y-9765984D02*
X6215896Y-9765984D01*
X6215896Y-9765984D02*
X6234944Y-9775508D01*
X6234944Y-9775508D02*
X6244467Y-9785031D01*
X6244467Y-9785031D02*
X6253991Y-9804079D01*
X6253991Y-9804079D02*
X6253991Y-9823127D01*
X6253991Y-9823127D02*
X6244467Y-9851698D01*
X6244467Y-9851698D02*
X6130182Y-9965984D01*
X6130182Y-9965984D02*
X6253991Y-9965984D01*
X6349229Y-9965984D02*
X6387325Y-9965984D01*
X6387325Y-9965984D02*
X6406372Y-9956460D01*
X6406372Y-9956460D02*
X6415896Y-9946936D01*
X6415896Y-9946936D02*
X6434944Y-9918365D01*
X6434944Y-9918365D02*
X6444467Y-9880270D01*
X6444467Y-9880270D02*
X6444467Y-9804079D01*
X6444467Y-9804079D02*
X6434944Y-9785031D01*
X6434944Y-9785031D02*
X6425420Y-9775508D01*
X6425420Y-9775508D02*
X6406372Y-9765984D01*
X6406372Y-9765984D02*
X6368277Y-9765984D01*
X6368277Y-9765984D02*
X6349229Y-9775508D01*
X6349229Y-9775508D02*
X6339706Y-9785031D01*
X6339706Y-9785031D02*
X6330182Y-9804079D01*
X6330182Y-9804079D02*
X6330182Y-9851698D01*
X6330182Y-9851698D02*
X6339706Y-9870746D01*
X6339706Y-9870746D02*
X6349229Y-9880270D01*
X6349229Y-9880270D02*
X6368277Y-9889793D01*
X6368277Y-9889793D02*
X6406372Y-9889793D01*
X6406372Y-9889793D02*
X6425420Y-9880270D01*
X6425420Y-9880270D02*
X6434944Y-9870746D01*
X6434944Y-9870746D02*
X6444467Y-9851698D01*
X6625420Y-9765984D02*
X6530182Y-9765984D01*
X6530182Y-9765984D02*
X6520658Y-9861222D01*
X6520658Y-9861222D02*
X6530182Y-9851698D01*
X6530182Y-9851698D02*
X6549229Y-9842174D01*
X6549229Y-9842174D02*
X6596848Y-9842174D01*
X6596848Y-9842174D02*
X6615896Y-9851698D01*
X6615896Y-9851698D02*
X6625420Y-9861222D01*
X6625420Y-9861222D02*
X6634944Y-9880270D01*
X6634944Y-9880270D02*
X6634944Y-9927889D01*
X6634944Y-9927889D02*
X6625420Y-9946936D01*
X6625420Y-9946936D02*
X6615896Y-9956460D01*
X6615896Y-9956460D02*
X6596848Y-9965984D01*
X6596848Y-9965984D02*
X6549229Y-9965984D01*
X6549229Y-9965984D02*
X6530182Y-9956460D01*
X6530182Y-9956460D02*
X6520658Y-9946936D01*
X6711134Y-9765984D02*
X6711134Y-9804079D01*
X6787325Y-9765984D02*
X6787325Y-9804079D01*
X7082563Y-10042174D02*
X7073039Y-10032650D01*
X7073039Y-10032650D02*
X7053991Y-10004079D01*
X7053991Y-10004079D02*
X7044468Y-9985031D01*
X7044468Y-9985031D02*
X7034944Y-9956460D01*
X7034944Y-9956460D02*
X7025420Y-9908841D01*
X7025420Y-9908841D02*
X7025420Y-9870746D01*
X7025420Y-9870746D02*
X7034944Y-9823127D01*
X7034944Y-9823127D02*
X7044468Y-9794555D01*
X7044468Y-9794555D02*
X7053991Y-9775508D01*
X7053991Y-9775508D02*
X7073039Y-9746936D01*
X7073039Y-9746936D02*
X7082563Y-9737412D01*
X7244468Y-9765984D02*
X7206372Y-9765984D01*
X7206372Y-9765984D02*
X7187325Y-9775508D01*
X7187325Y-9775508D02*
X7177801Y-9785031D01*
X7177801Y-9785031D02*
X7158753Y-9813603D01*
X7158753Y-9813603D02*
X7149229Y-9851698D01*
X7149229Y-9851698D02*
X7149229Y-9927889D01*
X7149229Y-9927889D02*
X7158753Y-9946936D01*
X7158753Y-9946936D02*
X7168277Y-9956460D01*
X7168277Y-9956460D02*
X7187325Y-9965984D01*
X7187325Y-9965984D02*
X7225420Y-9965984D01*
X7225420Y-9965984D02*
X7244468Y-9956460D01*
X7244468Y-9956460D02*
X7253991Y-9946936D01*
X7253991Y-9946936D02*
X7263515Y-9927889D01*
X7263515Y-9927889D02*
X7263515Y-9880270D01*
X7263515Y-9880270D02*
X7253991Y-9861222D01*
X7253991Y-9861222D02*
X7244468Y-9851698D01*
X7244468Y-9851698D02*
X7225420Y-9842174D01*
X7225420Y-9842174D02*
X7187325Y-9842174D01*
X7187325Y-9842174D02*
X7168277Y-9851698D01*
X7168277Y-9851698D02*
X7158753Y-9861222D01*
X7158753Y-9861222D02*
X7149229Y-9880270D01*
X7501610Y-9965984D02*
X7501610Y-9765984D01*
X7587325Y-9965984D02*
X7587325Y-9861222D01*
X7587325Y-9861222D02*
X7577801Y-9842174D01*
X7577801Y-9842174D02*
X7558753Y-9832650D01*
X7558753Y-9832650D02*
X7530182Y-9832650D01*
X7530182Y-9832650D02*
X7511134Y-9842174D01*
X7511134Y-9842174D02*
X7501610Y-9851698D01*
X7711134Y-9965984D02*
X7692087Y-9956460D01*
X7692087Y-9956460D02*
X7682563Y-9946936D01*
X7682563Y-9946936D02*
X7673039Y-9927889D01*
X7673039Y-9927889D02*
X7673039Y-9870746D01*
X7673039Y-9870746D02*
X7682563Y-9851698D01*
X7682563Y-9851698D02*
X7692087Y-9842174D01*
X7692087Y-9842174D02*
X7711134Y-9832650D01*
X7711134Y-9832650D02*
X7739706Y-9832650D01*
X7739706Y-9832650D02*
X7758753Y-9842174D01*
X7758753Y-9842174D02*
X7768277Y-9851698D01*
X7768277Y-9851698D02*
X7777801Y-9870746D01*
X7777801Y-9870746D02*
X7777801Y-9927889D01*
X7777801Y-9927889D02*
X7768277Y-9946936D01*
X7768277Y-9946936D02*
X7758753Y-9956460D01*
X7758753Y-9956460D02*
X7739706Y-9965984D01*
X7739706Y-9965984D02*
X7711134Y-9965984D01*
X7892087Y-9965984D02*
X7873039Y-9956460D01*
X7873039Y-9956460D02*
X7863515Y-9937412D01*
X7863515Y-9937412D02*
X7863515Y-9765984D01*
X8044468Y-9956460D02*
X8025420Y-9965984D01*
X8025420Y-9965984D02*
X7987325Y-9965984D01*
X7987325Y-9965984D02*
X7968277Y-9956460D01*
X7968277Y-9956460D02*
X7958753Y-9937412D01*
X7958753Y-9937412D02*
X7958753Y-9861222D01*
X7958753Y-9861222D02*
X7968277Y-9842174D01*
X7968277Y-9842174D02*
X7987325Y-9832650D01*
X7987325Y-9832650D02*
X8025420Y-9832650D01*
X8025420Y-9832650D02*
X8044468Y-9842174D01*
X8044468Y-9842174D02*
X8053991Y-9861222D01*
X8053991Y-9861222D02*
X8053991Y-9880270D01*
X8053991Y-9880270D02*
X7958753Y-9899317D01*
X8130182Y-9956460D02*
X8149230Y-9965984D01*
X8149230Y-9965984D02*
X8187325Y-9965984D01*
X8187325Y-9965984D02*
X8206372Y-9956460D01*
X8206372Y-9956460D02*
X8215896Y-9937412D01*
X8215896Y-9937412D02*
X8215896Y-9927889D01*
X8215896Y-9927889D02*
X8206372Y-9908841D01*
X8206372Y-9908841D02*
X8187325Y-9899317D01*
X8187325Y-9899317D02*
X8158753Y-9899317D01*
X8158753Y-9899317D02*
X8139706Y-9889793D01*
X8139706Y-9889793D02*
X8130182Y-9870746D01*
X8130182Y-9870746D02*
X8130182Y-9861222D01*
X8130182Y-9861222D02*
X8139706Y-9842174D01*
X8139706Y-9842174D02*
X8158753Y-9832650D01*
X8158753Y-9832650D02*
X8187325Y-9832650D01*
X8187325Y-9832650D02*
X8206372Y-9842174D01*
X8282563Y-10042174D02*
X8292087Y-10032650D01*
X8292087Y-10032650D02*
X8311134Y-10004079D01*
X8311134Y-10004079D02*
X8320658Y-9985031D01*
X8320658Y-9985031D02*
X8330182Y-9956460D01*
X8330182Y-9956460D02*
X8339706Y-9908841D01*
X8339706Y-9908841D02*
X8339706Y-9870746D01*
X8339706Y-9870746D02*
X8330182Y-9823127D01*
X8330182Y-9823127D02*
X8320658Y-9794555D01*
X8320658Y-9794555D02*
X8311134Y-9775508D01*
X8311134Y-9775508D02*
X8292087Y-9746936D01*
X8292087Y-9746936D02*
X8282563Y-9737412D01*
D12*
X3467500Y-10178500D02*
X3507500Y-10138500D01*
X3467500Y-10098500D01*
X3427500Y-10138500D01*
X3467500Y-10178500D01*
D11*
X3806372Y-10029984D02*
X3825420Y-10029984D01*
X3825420Y-10029984D02*
X3844467Y-10039508D01*
X3844467Y-10039508D02*
X3853991Y-10049031D01*
X3853991Y-10049031D02*
X3863515Y-10068079D01*
X3863515Y-10068079D02*
X3873039Y-10106174D01*
X3873039Y-10106174D02*
X3873039Y-10153793D01*
X3873039Y-10153793D02*
X3863515Y-10191889D01*
X3863515Y-10191889D02*
X3853991Y-10210936D01*
X3853991Y-10210936D02*
X3844467Y-10220460D01*
X3844467Y-10220460D02*
X3825420Y-10229984D01*
X3825420Y-10229984D02*
X3806372Y-10229984D01*
X3806372Y-10229984D02*
X3787324Y-10220460D01*
X3787324Y-10220460D02*
X3777801Y-10210936D01*
X3777801Y-10210936D02*
X3768277Y-10191889D01*
X3768277Y-10191889D02*
X3758753Y-10153793D01*
X3758753Y-10153793D02*
X3758753Y-10106174D01*
X3758753Y-10106174D02*
X3768277Y-10068079D01*
X3768277Y-10068079D02*
X3777801Y-10049031D01*
X3777801Y-10049031D02*
X3787324Y-10039508D01*
X3787324Y-10039508D02*
X3806372Y-10029984D01*
X3958753Y-10210936D02*
X3968277Y-10220460D01*
X3968277Y-10220460D02*
X3958753Y-10229984D01*
X3958753Y-10229984D02*
X3949229Y-10220460D01*
X3949229Y-10220460D02*
X3958753Y-10210936D01*
X3958753Y-10210936D02*
X3958753Y-10229984D01*
X4082562Y-10115698D02*
X4063515Y-10106174D01*
X4063515Y-10106174D02*
X4053991Y-10096650D01*
X4053991Y-10096650D02*
X4044467Y-10077603D01*
X4044467Y-10077603D02*
X4044467Y-10068079D01*
X4044467Y-10068079D02*
X4053991Y-10049031D01*
X4053991Y-10049031D02*
X4063515Y-10039508D01*
X4063515Y-10039508D02*
X4082562Y-10029984D01*
X4082562Y-10029984D02*
X4120658Y-10029984D01*
X4120658Y-10029984D02*
X4139705Y-10039508D01*
X4139705Y-10039508D02*
X4149229Y-10049031D01*
X4149229Y-10049031D02*
X4158753Y-10068079D01*
X4158753Y-10068079D02*
X4158753Y-10077603D01*
X4158753Y-10077603D02*
X4149229Y-10096650D01*
X4149229Y-10096650D02*
X4139705Y-10106174D01*
X4139705Y-10106174D02*
X4120658Y-10115698D01*
X4120658Y-10115698D02*
X4082562Y-10115698D01*
X4082562Y-10115698D02*
X4063515Y-10125222D01*
X4063515Y-10125222D02*
X4053991Y-10134746D01*
X4053991Y-10134746D02*
X4044467Y-10153793D01*
X4044467Y-10153793D02*
X4044467Y-10191889D01*
X4044467Y-10191889D02*
X4053991Y-10210936D01*
X4053991Y-10210936D02*
X4063515Y-10220460D01*
X4063515Y-10220460D02*
X4082562Y-10229984D01*
X4082562Y-10229984D02*
X4120658Y-10229984D01*
X4120658Y-10229984D02*
X4139705Y-10220460D01*
X4139705Y-10220460D02*
X4149229Y-10210936D01*
X4149229Y-10210936D02*
X4158753Y-10191889D01*
X4158753Y-10191889D02*
X4158753Y-10153793D01*
X4158753Y-10153793D02*
X4149229Y-10134746D01*
X4149229Y-10134746D02*
X4139705Y-10125222D01*
X4139705Y-10125222D02*
X4120658Y-10115698D01*
X4282563Y-10029984D02*
X4301610Y-10029984D01*
X4301610Y-10029984D02*
X4320658Y-10039508D01*
X4320658Y-10039508D02*
X4330182Y-10049031D01*
X4330182Y-10049031D02*
X4339705Y-10068079D01*
X4339705Y-10068079D02*
X4349229Y-10106174D01*
X4349229Y-10106174D02*
X4349229Y-10153793D01*
X4349229Y-10153793D02*
X4339705Y-10191889D01*
X4339705Y-10191889D02*
X4330182Y-10210936D01*
X4330182Y-10210936D02*
X4320658Y-10220460D01*
X4320658Y-10220460D02*
X4301610Y-10229984D01*
X4301610Y-10229984D02*
X4282563Y-10229984D01*
X4282563Y-10229984D02*
X4263515Y-10220460D01*
X4263515Y-10220460D02*
X4253991Y-10210936D01*
X4253991Y-10210936D02*
X4244467Y-10191889D01*
X4244467Y-10191889D02*
X4234944Y-10153793D01*
X4234944Y-10153793D02*
X4234944Y-10106174D01*
X4234944Y-10106174D02*
X4244467Y-10068079D01*
X4244467Y-10068079D02*
X4253991Y-10049031D01*
X4253991Y-10049031D02*
X4263515Y-10039508D01*
X4263515Y-10039508D02*
X4282563Y-10029984D01*
X4473039Y-10029984D02*
X4492086Y-10029984D01*
X4492086Y-10029984D02*
X4511134Y-10039508D01*
X4511134Y-10039508D02*
X4520658Y-10049031D01*
X4520658Y-10049031D02*
X4530182Y-10068079D01*
X4530182Y-10068079D02*
X4539705Y-10106174D01*
X4539705Y-10106174D02*
X4539705Y-10153793D01*
X4539705Y-10153793D02*
X4530182Y-10191889D01*
X4530182Y-10191889D02*
X4520658Y-10210936D01*
X4520658Y-10210936D02*
X4511134Y-10220460D01*
X4511134Y-10220460D02*
X4492086Y-10229984D01*
X4492086Y-10229984D02*
X4473039Y-10229984D01*
X4473039Y-10229984D02*
X4453991Y-10220460D01*
X4453991Y-10220460D02*
X4444467Y-10210936D01*
X4444467Y-10210936D02*
X4434944Y-10191889D01*
X4434944Y-10191889D02*
X4425420Y-10153793D01*
X4425420Y-10153793D02*
X4425420Y-10106174D01*
X4425420Y-10106174D02*
X4434944Y-10068079D01*
X4434944Y-10068079D02*
X4444467Y-10049031D01*
X4444467Y-10049031D02*
X4453991Y-10039508D01*
X4453991Y-10039508D02*
X4473039Y-10029984D01*
X4625420Y-10229984D02*
X4625420Y-10096650D01*
X4625420Y-10115698D02*
X4634944Y-10106174D01*
X4634944Y-10106174D02*
X4653991Y-10096650D01*
X4653991Y-10096650D02*
X4682563Y-10096650D01*
X4682563Y-10096650D02*
X4701610Y-10106174D01*
X4701610Y-10106174D02*
X4711134Y-10125222D01*
X4711134Y-10125222D02*
X4711134Y-10229984D01*
X4711134Y-10125222D02*
X4720658Y-10106174D01*
X4720658Y-10106174D02*
X4739705Y-10096650D01*
X4739705Y-10096650D02*
X4768277Y-10096650D01*
X4768277Y-10096650D02*
X4787325Y-10106174D01*
X4787325Y-10106174D02*
X4796848Y-10125222D01*
X4796848Y-10125222D02*
X4796848Y-10229984D01*
X4892086Y-10229984D02*
X4892086Y-10096650D01*
X4892086Y-10115698D02*
X4901610Y-10106174D01*
X4901610Y-10106174D02*
X4920658Y-10096650D01*
X4920658Y-10096650D02*
X4949229Y-10096650D01*
X4949229Y-10096650D02*
X4968277Y-10106174D01*
X4968277Y-10106174D02*
X4977801Y-10125222D01*
X4977801Y-10125222D02*
X4977801Y-10229984D01*
X4977801Y-10125222D02*
X4987325Y-10106174D01*
X4987325Y-10106174D02*
X5006372Y-10096650D01*
X5006372Y-10096650D02*
X5034944Y-10096650D01*
X5034944Y-10096650D02*
X5053991Y-10106174D01*
X5053991Y-10106174D02*
X5063515Y-10125222D01*
X5063515Y-10125222D02*
X5063515Y-10229984D01*
X5453991Y-10020460D02*
X5282563Y-10277603D01*
X5711134Y-10029984D02*
X5730182Y-10029984D01*
X5730182Y-10029984D02*
X5749229Y-10039508D01*
X5749229Y-10039508D02*
X5758753Y-10049031D01*
X5758753Y-10049031D02*
X5768277Y-10068079D01*
X5768277Y-10068079D02*
X5777801Y-10106174D01*
X5777801Y-10106174D02*
X5777801Y-10153793D01*
X5777801Y-10153793D02*
X5768277Y-10191889D01*
X5768277Y-10191889D02*
X5758753Y-10210936D01*
X5758753Y-10210936D02*
X5749229Y-10220460D01*
X5749229Y-10220460D02*
X5730182Y-10229984D01*
X5730182Y-10229984D02*
X5711134Y-10229984D01*
X5711134Y-10229984D02*
X5692086Y-10220460D01*
X5692086Y-10220460D02*
X5682563Y-10210936D01*
X5682563Y-10210936D02*
X5673039Y-10191889D01*
X5673039Y-10191889D02*
X5663515Y-10153793D01*
X5663515Y-10153793D02*
X5663515Y-10106174D01*
X5663515Y-10106174D02*
X5673039Y-10068079D01*
X5673039Y-10068079D02*
X5682563Y-10049031D01*
X5682563Y-10049031D02*
X5692086Y-10039508D01*
X5692086Y-10039508D02*
X5711134Y-10029984D01*
X5863515Y-10210936D02*
X5873039Y-10220460D01*
X5873039Y-10220460D02*
X5863515Y-10229984D01*
X5863515Y-10229984D02*
X5853991Y-10220460D01*
X5853991Y-10220460D02*
X5863515Y-10210936D01*
X5863515Y-10210936D02*
X5863515Y-10229984D01*
X5996848Y-10029984D02*
X6015896Y-10029984D01*
X6015896Y-10029984D02*
X6034944Y-10039508D01*
X6034944Y-10039508D02*
X6044467Y-10049031D01*
X6044467Y-10049031D02*
X6053991Y-10068079D01*
X6053991Y-10068079D02*
X6063515Y-10106174D01*
X6063515Y-10106174D02*
X6063515Y-10153793D01*
X6063515Y-10153793D02*
X6053991Y-10191889D01*
X6053991Y-10191889D02*
X6044467Y-10210936D01*
X6044467Y-10210936D02*
X6034944Y-10220460D01*
X6034944Y-10220460D02*
X6015896Y-10229984D01*
X6015896Y-10229984D02*
X5996848Y-10229984D01*
X5996848Y-10229984D02*
X5977801Y-10220460D01*
X5977801Y-10220460D02*
X5968277Y-10210936D01*
X5968277Y-10210936D02*
X5958753Y-10191889D01*
X5958753Y-10191889D02*
X5949229Y-10153793D01*
X5949229Y-10153793D02*
X5949229Y-10106174D01*
X5949229Y-10106174D02*
X5958753Y-10068079D01*
X5958753Y-10068079D02*
X5968277Y-10049031D01*
X5968277Y-10049031D02*
X5977801Y-10039508D01*
X5977801Y-10039508D02*
X5996848Y-10029984D01*
X6130182Y-10029984D02*
X6253991Y-10029984D01*
X6253991Y-10029984D02*
X6187325Y-10106174D01*
X6187325Y-10106174D02*
X6215896Y-10106174D01*
X6215896Y-10106174D02*
X6234944Y-10115698D01*
X6234944Y-10115698D02*
X6244467Y-10125222D01*
X6244467Y-10125222D02*
X6253991Y-10144270D01*
X6253991Y-10144270D02*
X6253991Y-10191889D01*
X6253991Y-10191889D02*
X6244467Y-10210936D01*
X6244467Y-10210936D02*
X6234944Y-10220460D01*
X6234944Y-10220460D02*
X6215896Y-10229984D01*
X6215896Y-10229984D02*
X6158753Y-10229984D01*
X6158753Y-10229984D02*
X6139706Y-10220460D01*
X6139706Y-10220460D02*
X6130182Y-10210936D01*
X6444467Y-10229984D02*
X6330182Y-10229984D01*
X6387325Y-10229984D02*
X6387325Y-10029984D01*
X6387325Y-10029984D02*
X6368277Y-10058555D01*
X6368277Y-10058555D02*
X6349229Y-10077603D01*
X6349229Y-10077603D02*
X6330182Y-10087127D01*
X6625420Y-10029984D02*
X6530182Y-10029984D01*
X6530182Y-10029984D02*
X6520658Y-10125222D01*
X6520658Y-10125222D02*
X6530182Y-10115698D01*
X6530182Y-10115698D02*
X6549229Y-10106174D01*
X6549229Y-10106174D02*
X6596848Y-10106174D01*
X6596848Y-10106174D02*
X6615896Y-10115698D01*
X6615896Y-10115698D02*
X6625420Y-10125222D01*
X6625420Y-10125222D02*
X6634944Y-10144270D01*
X6634944Y-10144270D02*
X6634944Y-10191889D01*
X6634944Y-10191889D02*
X6625420Y-10210936D01*
X6625420Y-10210936D02*
X6615896Y-10220460D01*
X6615896Y-10220460D02*
X6596848Y-10229984D01*
X6596848Y-10229984D02*
X6549229Y-10229984D01*
X6549229Y-10229984D02*
X6530182Y-10220460D01*
X6530182Y-10220460D02*
X6520658Y-10210936D01*
X6711134Y-10029984D02*
X6711134Y-10068079D01*
X6787325Y-10029984D02*
X6787325Y-10068079D01*
X7082563Y-10306174D02*
X7073039Y-10296650D01*
X7073039Y-10296650D02*
X7053991Y-10268079D01*
X7053991Y-10268079D02*
X7044468Y-10249031D01*
X7044468Y-10249031D02*
X7034944Y-10220460D01*
X7034944Y-10220460D02*
X7025420Y-10172841D01*
X7025420Y-10172841D02*
X7025420Y-10134746D01*
X7025420Y-10134746D02*
X7034944Y-10087127D01*
X7034944Y-10087127D02*
X7044468Y-10058555D01*
X7044468Y-10058555D02*
X7053991Y-10039508D01*
X7053991Y-10039508D02*
X7073039Y-10010936D01*
X7073039Y-10010936D02*
X7082563Y-10001412D01*
X7149229Y-10049031D02*
X7158753Y-10039508D01*
X7158753Y-10039508D02*
X7177801Y-10029984D01*
X7177801Y-10029984D02*
X7225420Y-10029984D01*
X7225420Y-10029984D02*
X7244468Y-10039508D01*
X7244468Y-10039508D02*
X7253991Y-10049031D01*
X7253991Y-10049031D02*
X7263515Y-10068079D01*
X7263515Y-10068079D02*
X7263515Y-10087127D01*
X7263515Y-10087127D02*
X7253991Y-10115698D01*
X7253991Y-10115698D02*
X7139706Y-10229984D01*
X7139706Y-10229984D02*
X7263515Y-10229984D01*
X7501610Y-10229984D02*
X7501610Y-10029984D01*
X7587325Y-10229984D02*
X7587325Y-10125222D01*
X7587325Y-10125222D02*
X7577801Y-10106174D01*
X7577801Y-10106174D02*
X7558753Y-10096650D01*
X7558753Y-10096650D02*
X7530182Y-10096650D01*
X7530182Y-10096650D02*
X7511134Y-10106174D01*
X7511134Y-10106174D02*
X7501610Y-10115698D01*
X7711134Y-10229984D02*
X7692087Y-10220460D01*
X7692087Y-10220460D02*
X7682563Y-10210936D01*
X7682563Y-10210936D02*
X7673039Y-10191889D01*
X7673039Y-10191889D02*
X7673039Y-10134746D01*
X7673039Y-10134746D02*
X7682563Y-10115698D01*
X7682563Y-10115698D02*
X7692087Y-10106174D01*
X7692087Y-10106174D02*
X7711134Y-10096650D01*
X7711134Y-10096650D02*
X7739706Y-10096650D01*
X7739706Y-10096650D02*
X7758753Y-10106174D01*
X7758753Y-10106174D02*
X7768277Y-10115698D01*
X7768277Y-10115698D02*
X7777801Y-10134746D01*
X7777801Y-10134746D02*
X7777801Y-10191889D01*
X7777801Y-10191889D02*
X7768277Y-10210936D01*
X7768277Y-10210936D02*
X7758753Y-10220460D01*
X7758753Y-10220460D02*
X7739706Y-10229984D01*
X7739706Y-10229984D02*
X7711134Y-10229984D01*
X7892087Y-10229984D02*
X7873039Y-10220460D01*
X7873039Y-10220460D02*
X7863515Y-10201412D01*
X7863515Y-10201412D02*
X7863515Y-10029984D01*
X8044468Y-10220460D02*
X8025420Y-10229984D01*
X8025420Y-10229984D02*
X7987325Y-10229984D01*
X7987325Y-10229984D02*
X7968277Y-10220460D01*
X7968277Y-10220460D02*
X7958753Y-10201412D01*
X7958753Y-10201412D02*
X7958753Y-10125222D01*
X7958753Y-10125222D02*
X7968277Y-10106174D01*
X7968277Y-10106174D02*
X7987325Y-10096650D01*
X7987325Y-10096650D02*
X8025420Y-10096650D01*
X8025420Y-10096650D02*
X8044468Y-10106174D01*
X8044468Y-10106174D02*
X8053991Y-10125222D01*
X8053991Y-10125222D02*
X8053991Y-10144270D01*
X8053991Y-10144270D02*
X7958753Y-10163317D01*
X8130182Y-10220460D02*
X8149230Y-10229984D01*
X8149230Y-10229984D02*
X8187325Y-10229984D01*
X8187325Y-10229984D02*
X8206372Y-10220460D01*
X8206372Y-10220460D02*
X8215896Y-10201412D01*
X8215896Y-10201412D02*
X8215896Y-10191889D01*
X8215896Y-10191889D02*
X8206372Y-10172841D01*
X8206372Y-10172841D02*
X8187325Y-10163317D01*
X8187325Y-10163317D02*
X8158753Y-10163317D01*
X8158753Y-10163317D02*
X8139706Y-10153793D01*
X8139706Y-10153793D02*
X8130182Y-10134746D01*
X8130182Y-10134746D02*
X8130182Y-10125222D01*
X8130182Y-10125222D02*
X8139706Y-10106174D01*
X8139706Y-10106174D02*
X8158753Y-10096650D01*
X8158753Y-10096650D02*
X8187325Y-10096650D01*
X8187325Y-10096650D02*
X8206372Y-10106174D01*
X8282563Y-10306174D02*
X8292087Y-10296650D01*
X8292087Y-10296650D02*
X8311134Y-10268079D01*
X8311134Y-10268079D02*
X8320658Y-10249031D01*
X8320658Y-10249031D02*
X8330182Y-10220460D01*
X8330182Y-10220460D02*
X8339706Y-10172841D01*
X8339706Y-10172841D02*
X8339706Y-10134746D01*
X8339706Y-10134746D02*
X8330182Y-10087127D01*
X8330182Y-10087127D02*
X8320658Y-10058555D01*
X8320658Y-10058555D02*
X8311134Y-10039508D01*
X8311134Y-10039508D02*
X8292087Y-10010936D01*
X8292087Y-10010936D02*
X8282563Y-10001412D01*
D12*
X3417500Y-10357500D02*
X3507500Y-10447500D01*
X3507500Y-10357500D02*
X3417500Y-10447500D01*
X3507500Y-10402500D02*
G75*
G02*
X3417500Y-10402500I-45000J0D01*
G01*
X3417500Y-10402500D02*
G75*
G02*
X3507500Y-10402500I45000J0D01*
G01*
D11*
X3806372Y-10293984D02*
X3825420Y-10293984D01*
X3825420Y-10293984D02*
X3844467Y-10303508D01*
X3844467Y-10303508D02*
X3853991Y-10313031D01*
X3853991Y-10313031D02*
X3863515Y-10332079D01*
X3863515Y-10332079D02*
X3873039Y-10370174D01*
X3873039Y-10370174D02*
X3873039Y-10417793D01*
X3873039Y-10417793D02*
X3863515Y-10455889D01*
X3863515Y-10455889D02*
X3853991Y-10474936D01*
X3853991Y-10474936D02*
X3844467Y-10484460D01*
X3844467Y-10484460D02*
X3825420Y-10493984D01*
X3825420Y-10493984D02*
X3806372Y-10493984D01*
X3806372Y-10493984D02*
X3787324Y-10484460D01*
X3787324Y-10484460D02*
X3777801Y-10474936D01*
X3777801Y-10474936D02*
X3768277Y-10455889D01*
X3768277Y-10455889D02*
X3758753Y-10417793D01*
X3758753Y-10417793D02*
X3758753Y-10370174D01*
X3758753Y-10370174D02*
X3768277Y-10332079D01*
X3768277Y-10332079D02*
X3777801Y-10313031D01*
X3777801Y-10313031D02*
X3787324Y-10303508D01*
X3787324Y-10303508D02*
X3806372Y-10293984D01*
X3958753Y-10474936D02*
X3968277Y-10484460D01*
X3968277Y-10484460D02*
X3958753Y-10493984D01*
X3958753Y-10493984D02*
X3949229Y-10484460D01*
X3949229Y-10484460D02*
X3958753Y-10474936D01*
X3958753Y-10474936D02*
X3958753Y-10493984D01*
X4063515Y-10493984D02*
X4101610Y-10493984D01*
X4101610Y-10493984D02*
X4120658Y-10484460D01*
X4120658Y-10484460D02*
X4130182Y-10474936D01*
X4130182Y-10474936D02*
X4149229Y-10446365D01*
X4149229Y-10446365D02*
X4158753Y-10408270D01*
X4158753Y-10408270D02*
X4158753Y-10332079D01*
X4158753Y-10332079D02*
X4149229Y-10313031D01*
X4149229Y-10313031D02*
X4139705Y-10303508D01*
X4139705Y-10303508D02*
X4120658Y-10293984D01*
X4120658Y-10293984D02*
X4082562Y-10293984D01*
X4082562Y-10293984D02*
X4063515Y-10303508D01*
X4063515Y-10303508D02*
X4053991Y-10313031D01*
X4053991Y-10313031D02*
X4044467Y-10332079D01*
X4044467Y-10332079D02*
X4044467Y-10379698D01*
X4044467Y-10379698D02*
X4053991Y-10398746D01*
X4053991Y-10398746D02*
X4063515Y-10408270D01*
X4063515Y-10408270D02*
X4082562Y-10417793D01*
X4082562Y-10417793D02*
X4120658Y-10417793D01*
X4120658Y-10417793D02*
X4139705Y-10408270D01*
X4139705Y-10408270D02*
X4149229Y-10398746D01*
X4149229Y-10398746D02*
X4158753Y-10379698D01*
X4282563Y-10293984D02*
X4301610Y-10293984D01*
X4301610Y-10293984D02*
X4320658Y-10303508D01*
X4320658Y-10303508D02*
X4330182Y-10313031D01*
X4330182Y-10313031D02*
X4339705Y-10332079D01*
X4339705Y-10332079D02*
X4349229Y-10370174D01*
X4349229Y-10370174D02*
X4349229Y-10417793D01*
X4349229Y-10417793D02*
X4339705Y-10455889D01*
X4339705Y-10455889D02*
X4330182Y-10474936D01*
X4330182Y-10474936D02*
X4320658Y-10484460D01*
X4320658Y-10484460D02*
X4301610Y-10493984D01*
X4301610Y-10493984D02*
X4282563Y-10493984D01*
X4282563Y-10493984D02*
X4263515Y-10484460D01*
X4263515Y-10484460D02*
X4253991Y-10474936D01*
X4253991Y-10474936D02*
X4244467Y-10455889D01*
X4244467Y-10455889D02*
X4234944Y-10417793D01*
X4234944Y-10417793D02*
X4234944Y-10370174D01*
X4234944Y-10370174D02*
X4244467Y-10332079D01*
X4244467Y-10332079D02*
X4253991Y-10313031D01*
X4253991Y-10313031D02*
X4263515Y-10303508D01*
X4263515Y-10303508D02*
X4282563Y-10293984D01*
X4473039Y-10293984D02*
X4492086Y-10293984D01*
X4492086Y-10293984D02*
X4511134Y-10303508D01*
X4511134Y-10303508D02*
X4520658Y-10313031D01*
X4520658Y-10313031D02*
X4530182Y-10332079D01*
X4530182Y-10332079D02*
X4539705Y-10370174D01*
X4539705Y-10370174D02*
X4539705Y-10417793D01*
X4539705Y-10417793D02*
X4530182Y-10455889D01*
X4530182Y-10455889D02*
X4520658Y-10474936D01*
X4520658Y-10474936D02*
X4511134Y-10484460D01*
X4511134Y-10484460D02*
X4492086Y-10493984D01*
X4492086Y-10493984D02*
X4473039Y-10493984D01*
X4473039Y-10493984D02*
X4453991Y-10484460D01*
X4453991Y-10484460D02*
X4444467Y-10474936D01*
X4444467Y-10474936D02*
X4434944Y-10455889D01*
X4434944Y-10455889D02*
X4425420Y-10417793D01*
X4425420Y-10417793D02*
X4425420Y-10370174D01*
X4425420Y-10370174D02*
X4434944Y-10332079D01*
X4434944Y-10332079D02*
X4444467Y-10313031D01*
X4444467Y-10313031D02*
X4453991Y-10303508D01*
X4453991Y-10303508D02*
X4473039Y-10293984D01*
X4625420Y-10493984D02*
X4625420Y-10360650D01*
X4625420Y-10379698D02*
X4634944Y-10370174D01*
X4634944Y-10370174D02*
X4653991Y-10360650D01*
X4653991Y-10360650D02*
X4682563Y-10360650D01*
X4682563Y-10360650D02*
X4701610Y-10370174D01*
X4701610Y-10370174D02*
X4711134Y-10389222D01*
X4711134Y-10389222D02*
X4711134Y-10493984D01*
X4711134Y-10389222D02*
X4720658Y-10370174D01*
X4720658Y-10370174D02*
X4739705Y-10360650D01*
X4739705Y-10360650D02*
X4768277Y-10360650D01*
X4768277Y-10360650D02*
X4787325Y-10370174D01*
X4787325Y-10370174D02*
X4796848Y-10389222D01*
X4796848Y-10389222D02*
X4796848Y-10493984D01*
X4892086Y-10493984D02*
X4892086Y-10360650D01*
X4892086Y-10379698D02*
X4901610Y-10370174D01*
X4901610Y-10370174D02*
X4920658Y-10360650D01*
X4920658Y-10360650D02*
X4949229Y-10360650D01*
X4949229Y-10360650D02*
X4968277Y-10370174D01*
X4968277Y-10370174D02*
X4977801Y-10389222D01*
X4977801Y-10389222D02*
X4977801Y-10493984D01*
X4977801Y-10389222D02*
X4987325Y-10370174D01*
X4987325Y-10370174D02*
X5006372Y-10360650D01*
X5006372Y-10360650D02*
X5034944Y-10360650D01*
X5034944Y-10360650D02*
X5053991Y-10370174D01*
X5053991Y-10370174D02*
X5063515Y-10389222D01*
X5063515Y-10389222D02*
X5063515Y-10493984D01*
X5453991Y-10284460D02*
X5282563Y-10541603D01*
X5711134Y-10293984D02*
X5730182Y-10293984D01*
X5730182Y-10293984D02*
X5749229Y-10303508D01*
X5749229Y-10303508D02*
X5758753Y-10313031D01*
X5758753Y-10313031D02*
X5768277Y-10332079D01*
X5768277Y-10332079D02*
X5777801Y-10370174D01*
X5777801Y-10370174D02*
X5777801Y-10417793D01*
X5777801Y-10417793D02*
X5768277Y-10455889D01*
X5768277Y-10455889D02*
X5758753Y-10474936D01*
X5758753Y-10474936D02*
X5749229Y-10484460D01*
X5749229Y-10484460D02*
X5730182Y-10493984D01*
X5730182Y-10493984D02*
X5711134Y-10493984D01*
X5711134Y-10493984D02*
X5692086Y-10484460D01*
X5692086Y-10484460D02*
X5682563Y-10474936D01*
X5682563Y-10474936D02*
X5673039Y-10455889D01*
X5673039Y-10455889D02*
X5663515Y-10417793D01*
X5663515Y-10417793D02*
X5663515Y-10370174D01*
X5663515Y-10370174D02*
X5673039Y-10332079D01*
X5673039Y-10332079D02*
X5682563Y-10313031D01*
X5682563Y-10313031D02*
X5692086Y-10303508D01*
X5692086Y-10303508D02*
X5711134Y-10293984D01*
X5863515Y-10474936D02*
X5873039Y-10484460D01*
X5873039Y-10484460D02*
X5863515Y-10493984D01*
X5863515Y-10493984D02*
X5853991Y-10484460D01*
X5853991Y-10484460D02*
X5863515Y-10474936D01*
X5863515Y-10474936D02*
X5863515Y-10493984D01*
X5996848Y-10293984D02*
X6015896Y-10293984D01*
X6015896Y-10293984D02*
X6034944Y-10303508D01*
X6034944Y-10303508D02*
X6044467Y-10313031D01*
X6044467Y-10313031D02*
X6053991Y-10332079D01*
X6053991Y-10332079D02*
X6063515Y-10370174D01*
X6063515Y-10370174D02*
X6063515Y-10417793D01*
X6063515Y-10417793D02*
X6053991Y-10455889D01*
X6053991Y-10455889D02*
X6044467Y-10474936D01*
X6044467Y-10474936D02*
X6034944Y-10484460D01*
X6034944Y-10484460D02*
X6015896Y-10493984D01*
X6015896Y-10493984D02*
X5996848Y-10493984D01*
X5996848Y-10493984D02*
X5977801Y-10484460D01*
X5977801Y-10484460D02*
X5968277Y-10474936D01*
X5968277Y-10474936D02*
X5958753Y-10455889D01*
X5958753Y-10455889D02*
X5949229Y-10417793D01*
X5949229Y-10417793D02*
X5949229Y-10370174D01*
X5949229Y-10370174D02*
X5958753Y-10332079D01*
X5958753Y-10332079D02*
X5968277Y-10313031D01*
X5968277Y-10313031D02*
X5977801Y-10303508D01*
X5977801Y-10303508D02*
X5996848Y-10293984D01*
X6130182Y-10293984D02*
X6253991Y-10293984D01*
X6253991Y-10293984D02*
X6187325Y-10370174D01*
X6187325Y-10370174D02*
X6215896Y-10370174D01*
X6215896Y-10370174D02*
X6234944Y-10379698D01*
X6234944Y-10379698D02*
X6244467Y-10389222D01*
X6244467Y-10389222D02*
X6253991Y-10408270D01*
X6253991Y-10408270D02*
X6253991Y-10455889D01*
X6253991Y-10455889D02*
X6244467Y-10474936D01*
X6244467Y-10474936D02*
X6234944Y-10484460D01*
X6234944Y-10484460D02*
X6215896Y-10493984D01*
X6215896Y-10493984D02*
X6158753Y-10493984D01*
X6158753Y-10493984D02*
X6139706Y-10484460D01*
X6139706Y-10484460D02*
X6130182Y-10474936D01*
X6434944Y-10293984D02*
X6339706Y-10293984D01*
X6339706Y-10293984D02*
X6330182Y-10389222D01*
X6330182Y-10389222D02*
X6339706Y-10379698D01*
X6339706Y-10379698D02*
X6358753Y-10370174D01*
X6358753Y-10370174D02*
X6406372Y-10370174D01*
X6406372Y-10370174D02*
X6425420Y-10379698D01*
X6425420Y-10379698D02*
X6434944Y-10389222D01*
X6434944Y-10389222D02*
X6444467Y-10408270D01*
X6444467Y-10408270D02*
X6444467Y-10455889D01*
X6444467Y-10455889D02*
X6434944Y-10474936D01*
X6434944Y-10474936D02*
X6425420Y-10484460D01*
X6425420Y-10484460D02*
X6406372Y-10493984D01*
X6406372Y-10493984D02*
X6358753Y-10493984D01*
X6358753Y-10493984D02*
X6339706Y-10484460D01*
X6339706Y-10484460D02*
X6330182Y-10474936D01*
X6615896Y-10360650D02*
X6615896Y-10493984D01*
X6568277Y-10284460D02*
X6520658Y-10427317D01*
X6520658Y-10427317D02*
X6644467Y-10427317D01*
X6711134Y-10293984D02*
X6711134Y-10332079D01*
X6787325Y-10293984D02*
X6787325Y-10332079D01*
X7082563Y-10570174D02*
X7073039Y-10560650D01*
X7073039Y-10560650D02*
X7053991Y-10532079D01*
X7053991Y-10532079D02*
X7044468Y-10513031D01*
X7044468Y-10513031D02*
X7034944Y-10484460D01*
X7034944Y-10484460D02*
X7025420Y-10436841D01*
X7025420Y-10436841D02*
X7025420Y-10398746D01*
X7025420Y-10398746D02*
X7034944Y-10351127D01*
X7034944Y-10351127D02*
X7044468Y-10322555D01*
X7044468Y-10322555D02*
X7053991Y-10303508D01*
X7053991Y-10303508D02*
X7073039Y-10274936D01*
X7073039Y-10274936D02*
X7082563Y-10265412D01*
X7187325Y-10379698D02*
X7168277Y-10370174D01*
X7168277Y-10370174D02*
X7158753Y-10360650D01*
X7158753Y-10360650D02*
X7149229Y-10341603D01*
X7149229Y-10341603D02*
X7149229Y-10332079D01*
X7149229Y-10332079D02*
X7158753Y-10313031D01*
X7158753Y-10313031D02*
X7168277Y-10303508D01*
X7168277Y-10303508D02*
X7187325Y-10293984D01*
X7187325Y-10293984D02*
X7225420Y-10293984D01*
X7225420Y-10293984D02*
X7244468Y-10303508D01*
X7244468Y-10303508D02*
X7253991Y-10313031D01*
X7253991Y-10313031D02*
X7263515Y-10332079D01*
X7263515Y-10332079D02*
X7263515Y-10341603D01*
X7263515Y-10341603D02*
X7253991Y-10360650D01*
X7253991Y-10360650D02*
X7244468Y-10370174D01*
X7244468Y-10370174D02*
X7225420Y-10379698D01*
X7225420Y-10379698D02*
X7187325Y-10379698D01*
X7187325Y-10379698D02*
X7168277Y-10389222D01*
X7168277Y-10389222D02*
X7158753Y-10398746D01*
X7158753Y-10398746D02*
X7149229Y-10417793D01*
X7149229Y-10417793D02*
X7149229Y-10455889D01*
X7149229Y-10455889D02*
X7158753Y-10474936D01*
X7158753Y-10474936D02*
X7168277Y-10484460D01*
X7168277Y-10484460D02*
X7187325Y-10493984D01*
X7187325Y-10493984D02*
X7225420Y-10493984D01*
X7225420Y-10493984D02*
X7244468Y-10484460D01*
X7244468Y-10484460D02*
X7253991Y-10474936D01*
X7253991Y-10474936D02*
X7263515Y-10455889D01*
X7263515Y-10455889D02*
X7263515Y-10417793D01*
X7263515Y-10417793D02*
X7253991Y-10398746D01*
X7253991Y-10398746D02*
X7244468Y-10389222D01*
X7244468Y-10389222D02*
X7225420Y-10379698D01*
X7501610Y-10493984D02*
X7501610Y-10293984D01*
X7587325Y-10493984D02*
X7587325Y-10389222D01*
X7587325Y-10389222D02*
X7577801Y-10370174D01*
X7577801Y-10370174D02*
X7558753Y-10360650D01*
X7558753Y-10360650D02*
X7530182Y-10360650D01*
X7530182Y-10360650D02*
X7511134Y-10370174D01*
X7511134Y-10370174D02*
X7501610Y-10379698D01*
X7711134Y-10493984D02*
X7692087Y-10484460D01*
X7692087Y-10484460D02*
X7682563Y-10474936D01*
X7682563Y-10474936D02*
X7673039Y-10455889D01*
X7673039Y-10455889D02*
X7673039Y-10398746D01*
X7673039Y-10398746D02*
X7682563Y-10379698D01*
X7682563Y-10379698D02*
X7692087Y-10370174D01*
X7692087Y-10370174D02*
X7711134Y-10360650D01*
X7711134Y-10360650D02*
X7739706Y-10360650D01*
X7739706Y-10360650D02*
X7758753Y-10370174D01*
X7758753Y-10370174D02*
X7768277Y-10379698D01*
X7768277Y-10379698D02*
X7777801Y-10398746D01*
X7777801Y-10398746D02*
X7777801Y-10455889D01*
X7777801Y-10455889D02*
X7768277Y-10474936D01*
X7768277Y-10474936D02*
X7758753Y-10484460D01*
X7758753Y-10484460D02*
X7739706Y-10493984D01*
X7739706Y-10493984D02*
X7711134Y-10493984D01*
X7892087Y-10493984D02*
X7873039Y-10484460D01*
X7873039Y-10484460D02*
X7863515Y-10465412D01*
X7863515Y-10465412D02*
X7863515Y-10293984D01*
X8044468Y-10484460D02*
X8025420Y-10493984D01*
X8025420Y-10493984D02*
X7987325Y-10493984D01*
X7987325Y-10493984D02*
X7968277Y-10484460D01*
X7968277Y-10484460D02*
X7958753Y-10465412D01*
X7958753Y-10465412D02*
X7958753Y-10389222D01*
X7958753Y-10389222D02*
X7968277Y-10370174D01*
X7968277Y-10370174D02*
X7987325Y-10360650D01*
X7987325Y-10360650D02*
X8025420Y-10360650D01*
X8025420Y-10360650D02*
X8044468Y-10370174D01*
X8044468Y-10370174D02*
X8053991Y-10389222D01*
X8053991Y-10389222D02*
X8053991Y-10408270D01*
X8053991Y-10408270D02*
X7958753Y-10427317D01*
X8130182Y-10484460D02*
X8149230Y-10493984D01*
X8149230Y-10493984D02*
X8187325Y-10493984D01*
X8187325Y-10493984D02*
X8206372Y-10484460D01*
X8206372Y-10484460D02*
X8215896Y-10465412D01*
X8215896Y-10465412D02*
X8215896Y-10455889D01*
X8215896Y-10455889D02*
X8206372Y-10436841D01*
X8206372Y-10436841D02*
X8187325Y-10427317D01*
X8187325Y-10427317D02*
X8158753Y-10427317D01*
X8158753Y-10427317D02*
X8139706Y-10417793D01*
X8139706Y-10417793D02*
X8130182Y-10398746D01*
X8130182Y-10398746D02*
X8130182Y-10389222D01*
X8130182Y-10389222D02*
X8139706Y-10370174D01*
X8139706Y-10370174D02*
X8158753Y-10360650D01*
X8158753Y-10360650D02*
X8187325Y-10360650D01*
X8187325Y-10360650D02*
X8206372Y-10370174D01*
X8282563Y-10570174D02*
X8292087Y-10560650D01*
X8292087Y-10560650D02*
X8311134Y-10532079D01*
X8311134Y-10532079D02*
X8320658Y-10513031D01*
X8320658Y-10513031D02*
X8330182Y-10484460D01*
X8330182Y-10484460D02*
X8339706Y-10436841D01*
X8339706Y-10436841D02*
X8339706Y-10398746D01*
X8339706Y-10398746D02*
X8330182Y-10351127D01*
X8330182Y-10351127D02*
X8320658Y-10322555D01*
X8320658Y-10322555D02*
X8311134Y-10303508D01*
X8311134Y-10303508D02*
X8292087Y-10274936D01*
X8292087Y-10274936D02*
X8282563Y-10265412D01*
D12*
X3407500Y-10616500D02*
X3507500Y-10716500D01*
X3507500Y-10616500D02*
X3407500Y-10716500D01*
X3457500Y-10616500D02*
X3457500Y-10716500D01*
X3407500Y-10666500D02*
X3507500Y-10666500D01*
D11*
X3873039Y-10757984D02*
X3758753Y-10757984D01*
X3815896Y-10757984D02*
X3815896Y-10557984D01*
X3815896Y-10557984D02*
X3796848Y-10586555D01*
X3796848Y-10586555D02*
X3777801Y-10605603D01*
X3777801Y-10605603D02*
X3758753Y-10615127D01*
X3958753Y-10738936D02*
X3968277Y-10748460D01*
X3968277Y-10748460D02*
X3958753Y-10757984D01*
X3958753Y-10757984D02*
X3949229Y-10748460D01*
X3949229Y-10748460D02*
X3958753Y-10738936D01*
X3958753Y-10738936D02*
X3958753Y-10757984D01*
X4092086Y-10557984D02*
X4111134Y-10557984D01*
X4111134Y-10557984D02*
X4130182Y-10567508D01*
X4130182Y-10567508D02*
X4139705Y-10577031D01*
X4139705Y-10577031D02*
X4149229Y-10596079D01*
X4149229Y-10596079D02*
X4158753Y-10634174D01*
X4158753Y-10634174D02*
X4158753Y-10681793D01*
X4158753Y-10681793D02*
X4149229Y-10719889D01*
X4149229Y-10719889D02*
X4139705Y-10738936D01*
X4139705Y-10738936D02*
X4130182Y-10748460D01*
X4130182Y-10748460D02*
X4111134Y-10757984D01*
X4111134Y-10757984D02*
X4092086Y-10757984D01*
X4092086Y-10757984D02*
X4073039Y-10748460D01*
X4073039Y-10748460D02*
X4063515Y-10738936D01*
X4063515Y-10738936D02*
X4053991Y-10719889D01*
X4053991Y-10719889D02*
X4044467Y-10681793D01*
X4044467Y-10681793D02*
X4044467Y-10634174D01*
X4044467Y-10634174D02*
X4053991Y-10596079D01*
X4053991Y-10596079D02*
X4063515Y-10577031D01*
X4063515Y-10577031D02*
X4073039Y-10567508D01*
X4073039Y-10567508D02*
X4092086Y-10557984D01*
X4282563Y-10557984D02*
X4301610Y-10557984D01*
X4301610Y-10557984D02*
X4320658Y-10567508D01*
X4320658Y-10567508D02*
X4330182Y-10577031D01*
X4330182Y-10577031D02*
X4339705Y-10596079D01*
X4339705Y-10596079D02*
X4349229Y-10634174D01*
X4349229Y-10634174D02*
X4349229Y-10681793D01*
X4349229Y-10681793D02*
X4339705Y-10719889D01*
X4339705Y-10719889D02*
X4330182Y-10738936D01*
X4330182Y-10738936D02*
X4320658Y-10748460D01*
X4320658Y-10748460D02*
X4301610Y-10757984D01*
X4301610Y-10757984D02*
X4282563Y-10757984D01*
X4282563Y-10757984D02*
X4263515Y-10748460D01*
X4263515Y-10748460D02*
X4253991Y-10738936D01*
X4253991Y-10738936D02*
X4244467Y-10719889D01*
X4244467Y-10719889D02*
X4234944Y-10681793D01*
X4234944Y-10681793D02*
X4234944Y-10634174D01*
X4234944Y-10634174D02*
X4244467Y-10596079D01*
X4244467Y-10596079D02*
X4253991Y-10577031D01*
X4253991Y-10577031D02*
X4263515Y-10567508D01*
X4263515Y-10567508D02*
X4282563Y-10557984D01*
X4473039Y-10557984D02*
X4492086Y-10557984D01*
X4492086Y-10557984D02*
X4511134Y-10567508D01*
X4511134Y-10567508D02*
X4520658Y-10577031D01*
X4520658Y-10577031D02*
X4530182Y-10596079D01*
X4530182Y-10596079D02*
X4539705Y-10634174D01*
X4539705Y-10634174D02*
X4539705Y-10681793D01*
X4539705Y-10681793D02*
X4530182Y-10719889D01*
X4530182Y-10719889D02*
X4520658Y-10738936D01*
X4520658Y-10738936D02*
X4511134Y-10748460D01*
X4511134Y-10748460D02*
X4492086Y-10757984D01*
X4492086Y-10757984D02*
X4473039Y-10757984D01*
X4473039Y-10757984D02*
X4453991Y-10748460D01*
X4453991Y-10748460D02*
X4444467Y-10738936D01*
X4444467Y-10738936D02*
X4434944Y-10719889D01*
X4434944Y-10719889D02*
X4425420Y-10681793D01*
X4425420Y-10681793D02*
X4425420Y-10634174D01*
X4425420Y-10634174D02*
X4434944Y-10596079D01*
X4434944Y-10596079D02*
X4444467Y-10577031D01*
X4444467Y-10577031D02*
X4453991Y-10567508D01*
X4453991Y-10567508D02*
X4473039Y-10557984D01*
X4625420Y-10757984D02*
X4625420Y-10624650D01*
X4625420Y-10643698D02*
X4634944Y-10634174D01*
X4634944Y-10634174D02*
X4653991Y-10624650D01*
X4653991Y-10624650D02*
X4682563Y-10624650D01*
X4682563Y-10624650D02*
X4701610Y-10634174D01*
X4701610Y-10634174D02*
X4711134Y-10653222D01*
X4711134Y-10653222D02*
X4711134Y-10757984D01*
X4711134Y-10653222D02*
X4720658Y-10634174D01*
X4720658Y-10634174D02*
X4739705Y-10624650D01*
X4739705Y-10624650D02*
X4768277Y-10624650D01*
X4768277Y-10624650D02*
X4787325Y-10634174D01*
X4787325Y-10634174D02*
X4796848Y-10653222D01*
X4796848Y-10653222D02*
X4796848Y-10757984D01*
X4892086Y-10757984D02*
X4892086Y-10624650D01*
X4892086Y-10643698D02*
X4901610Y-10634174D01*
X4901610Y-10634174D02*
X4920658Y-10624650D01*
X4920658Y-10624650D02*
X4949229Y-10624650D01*
X4949229Y-10624650D02*
X4968277Y-10634174D01*
X4968277Y-10634174D02*
X4977801Y-10653222D01*
X4977801Y-10653222D02*
X4977801Y-10757984D01*
X4977801Y-10653222D02*
X4987325Y-10634174D01*
X4987325Y-10634174D02*
X5006372Y-10624650D01*
X5006372Y-10624650D02*
X5034944Y-10624650D01*
X5034944Y-10624650D02*
X5053991Y-10634174D01*
X5053991Y-10634174D02*
X5063515Y-10653222D01*
X5063515Y-10653222D02*
X5063515Y-10757984D01*
X5453991Y-10548460D02*
X5282563Y-10805603D01*
X5711134Y-10557984D02*
X5730182Y-10557984D01*
X5730182Y-10557984D02*
X5749229Y-10567508D01*
X5749229Y-10567508D02*
X5758753Y-10577031D01*
X5758753Y-10577031D02*
X5768277Y-10596079D01*
X5768277Y-10596079D02*
X5777801Y-10634174D01*
X5777801Y-10634174D02*
X5777801Y-10681793D01*
X5777801Y-10681793D02*
X5768277Y-10719889D01*
X5768277Y-10719889D02*
X5758753Y-10738936D01*
X5758753Y-10738936D02*
X5749229Y-10748460D01*
X5749229Y-10748460D02*
X5730182Y-10757984D01*
X5730182Y-10757984D02*
X5711134Y-10757984D01*
X5711134Y-10757984D02*
X5692086Y-10748460D01*
X5692086Y-10748460D02*
X5682563Y-10738936D01*
X5682563Y-10738936D02*
X5673039Y-10719889D01*
X5673039Y-10719889D02*
X5663515Y-10681793D01*
X5663515Y-10681793D02*
X5663515Y-10634174D01*
X5663515Y-10634174D02*
X5673039Y-10596079D01*
X5673039Y-10596079D02*
X5682563Y-10577031D01*
X5682563Y-10577031D02*
X5692086Y-10567508D01*
X5692086Y-10567508D02*
X5711134Y-10557984D01*
X5863515Y-10738936D02*
X5873039Y-10748460D01*
X5873039Y-10748460D02*
X5863515Y-10757984D01*
X5863515Y-10757984D02*
X5853991Y-10748460D01*
X5853991Y-10748460D02*
X5863515Y-10738936D01*
X5863515Y-10738936D02*
X5863515Y-10757984D01*
X5996848Y-10557984D02*
X6015896Y-10557984D01*
X6015896Y-10557984D02*
X6034944Y-10567508D01*
X6034944Y-10567508D02*
X6044467Y-10577031D01*
X6044467Y-10577031D02*
X6053991Y-10596079D01*
X6053991Y-10596079D02*
X6063515Y-10634174D01*
X6063515Y-10634174D02*
X6063515Y-10681793D01*
X6063515Y-10681793D02*
X6053991Y-10719889D01*
X6053991Y-10719889D02*
X6044467Y-10738936D01*
X6044467Y-10738936D02*
X6034944Y-10748460D01*
X6034944Y-10748460D02*
X6015896Y-10757984D01*
X6015896Y-10757984D02*
X5996848Y-10757984D01*
X5996848Y-10757984D02*
X5977801Y-10748460D01*
X5977801Y-10748460D02*
X5968277Y-10738936D01*
X5968277Y-10738936D02*
X5958753Y-10719889D01*
X5958753Y-10719889D02*
X5949229Y-10681793D01*
X5949229Y-10681793D02*
X5949229Y-10634174D01*
X5949229Y-10634174D02*
X5958753Y-10596079D01*
X5958753Y-10596079D02*
X5968277Y-10577031D01*
X5968277Y-10577031D02*
X5977801Y-10567508D01*
X5977801Y-10567508D02*
X5996848Y-10557984D01*
X6130182Y-10557984D02*
X6253991Y-10557984D01*
X6253991Y-10557984D02*
X6187325Y-10634174D01*
X6187325Y-10634174D02*
X6215896Y-10634174D01*
X6215896Y-10634174D02*
X6234944Y-10643698D01*
X6234944Y-10643698D02*
X6244467Y-10653222D01*
X6244467Y-10653222D02*
X6253991Y-10672270D01*
X6253991Y-10672270D02*
X6253991Y-10719889D01*
X6253991Y-10719889D02*
X6244467Y-10738936D01*
X6244467Y-10738936D02*
X6234944Y-10748460D01*
X6234944Y-10748460D02*
X6215896Y-10757984D01*
X6215896Y-10757984D02*
X6158753Y-10757984D01*
X6158753Y-10757984D02*
X6139706Y-10748460D01*
X6139706Y-10748460D02*
X6130182Y-10738936D01*
X6349229Y-10757984D02*
X6387325Y-10757984D01*
X6387325Y-10757984D02*
X6406372Y-10748460D01*
X6406372Y-10748460D02*
X6415896Y-10738936D01*
X6415896Y-10738936D02*
X6434944Y-10710365D01*
X6434944Y-10710365D02*
X6444467Y-10672270D01*
X6444467Y-10672270D02*
X6444467Y-10596079D01*
X6444467Y-10596079D02*
X6434944Y-10577031D01*
X6434944Y-10577031D02*
X6425420Y-10567508D01*
X6425420Y-10567508D02*
X6406372Y-10557984D01*
X6406372Y-10557984D02*
X6368277Y-10557984D01*
X6368277Y-10557984D02*
X6349229Y-10567508D01*
X6349229Y-10567508D02*
X6339706Y-10577031D01*
X6339706Y-10577031D02*
X6330182Y-10596079D01*
X6330182Y-10596079D02*
X6330182Y-10643698D01*
X6330182Y-10643698D02*
X6339706Y-10662746D01*
X6339706Y-10662746D02*
X6349229Y-10672270D01*
X6349229Y-10672270D02*
X6368277Y-10681793D01*
X6368277Y-10681793D02*
X6406372Y-10681793D01*
X6406372Y-10681793D02*
X6425420Y-10672270D01*
X6425420Y-10672270D02*
X6434944Y-10662746D01*
X6434944Y-10662746D02*
X6444467Y-10643698D01*
X6615896Y-10624650D02*
X6615896Y-10757984D01*
X6568277Y-10548460D02*
X6520658Y-10691317D01*
X6520658Y-10691317D02*
X6644467Y-10691317D01*
X6711134Y-10557984D02*
X6711134Y-10596079D01*
X6787325Y-10557984D02*
X6787325Y-10596079D01*
X7082563Y-10834174D02*
X7073039Y-10824650D01*
X7073039Y-10824650D02*
X7053991Y-10796079D01*
X7053991Y-10796079D02*
X7044468Y-10777031D01*
X7044468Y-10777031D02*
X7034944Y-10748460D01*
X7034944Y-10748460D02*
X7025420Y-10700841D01*
X7025420Y-10700841D02*
X7025420Y-10662746D01*
X7025420Y-10662746D02*
X7034944Y-10615127D01*
X7034944Y-10615127D02*
X7044468Y-10586555D01*
X7044468Y-10586555D02*
X7053991Y-10567508D01*
X7053991Y-10567508D02*
X7073039Y-10538936D01*
X7073039Y-10538936D02*
X7082563Y-10529412D01*
X7149229Y-10577031D02*
X7158753Y-10567508D01*
X7158753Y-10567508D02*
X7177801Y-10557984D01*
X7177801Y-10557984D02*
X7225420Y-10557984D01*
X7225420Y-10557984D02*
X7244468Y-10567508D01*
X7244468Y-10567508D02*
X7253991Y-10577031D01*
X7253991Y-10577031D02*
X7263515Y-10596079D01*
X7263515Y-10596079D02*
X7263515Y-10615127D01*
X7263515Y-10615127D02*
X7253991Y-10643698D01*
X7253991Y-10643698D02*
X7139706Y-10757984D01*
X7139706Y-10757984D02*
X7263515Y-10757984D01*
X7377801Y-10643698D02*
X7358753Y-10634174D01*
X7358753Y-10634174D02*
X7349229Y-10624650D01*
X7349229Y-10624650D02*
X7339706Y-10605603D01*
X7339706Y-10605603D02*
X7339706Y-10596079D01*
X7339706Y-10596079D02*
X7349229Y-10577031D01*
X7349229Y-10577031D02*
X7358753Y-10567508D01*
X7358753Y-10567508D02*
X7377801Y-10557984D01*
X7377801Y-10557984D02*
X7415896Y-10557984D01*
X7415896Y-10557984D02*
X7434944Y-10567508D01*
X7434944Y-10567508D02*
X7444468Y-10577031D01*
X7444468Y-10577031D02*
X7453991Y-10596079D01*
X7453991Y-10596079D02*
X7453991Y-10605603D01*
X7453991Y-10605603D02*
X7444468Y-10624650D01*
X7444468Y-10624650D02*
X7434944Y-10634174D01*
X7434944Y-10634174D02*
X7415896Y-10643698D01*
X7415896Y-10643698D02*
X7377801Y-10643698D01*
X7377801Y-10643698D02*
X7358753Y-10653222D01*
X7358753Y-10653222D02*
X7349229Y-10662746D01*
X7349229Y-10662746D02*
X7339706Y-10681793D01*
X7339706Y-10681793D02*
X7339706Y-10719889D01*
X7339706Y-10719889D02*
X7349229Y-10738936D01*
X7349229Y-10738936D02*
X7358753Y-10748460D01*
X7358753Y-10748460D02*
X7377801Y-10757984D01*
X7377801Y-10757984D02*
X7415896Y-10757984D01*
X7415896Y-10757984D02*
X7434944Y-10748460D01*
X7434944Y-10748460D02*
X7444468Y-10738936D01*
X7444468Y-10738936D02*
X7453991Y-10719889D01*
X7453991Y-10719889D02*
X7453991Y-10681793D01*
X7453991Y-10681793D02*
X7444468Y-10662746D01*
X7444468Y-10662746D02*
X7434944Y-10653222D01*
X7434944Y-10653222D02*
X7415896Y-10643698D01*
X7692087Y-10757984D02*
X7692087Y-10557984D01*
X7777801Y-10757984D02*
X7777801Y-10653222D01*
X7777801Y-10653222D02*
X7768277Y-10634174D01*
X7768277Y-10634174D02*
X7749230Y-10624650D01*
X7749230Y-10624650D02*
X7720658Y-10624650D01*
X7720658Y-10624650D02*
X7701610Y-10634174D01*
X7701610Y-10634174D02*
X7692087Y-10643698D01*
X7901610Y-10757984D02*
X7882563Y-10748460D01*
X7882563Y-10748460D02*
X7873039Y-10738936D01*
X7873039Y-10738936D02*
X7863515Y-10719889D01*
X7863515Y-10719889D02*
X7863515Y-10662746D01*
X7863515Y-10662746D02*
X7873039Y-10643698D01*
X7873039Y-10643698D02*
X7882563Y-10634174D01*
X7882563Y-10634174D02*
X7901610Y-10624650D01*
X7901610Y-10624650D02*
X7930182Y-10624650D01*
X7930182Y-10624650D02*
X7949230Y-10634174D01*
X7949230Y-10634174D02*
X7958753Y-10643698D01*
X7958753Y-10643698D02*
X7968277Y-10662746D01*
X7968277Y-10662746D02*
X7968277Y-10719889D01*
X7968277Y-10719889D02*
X7958753Y-10738936D01*
X7958753Y-10738936D02*
X7949230Y-10748460D01*
X7949230Y-10748460D02*
X7930182Y-10757984D01*
X7930182Y-10757984D02*
X7901610Y-10757984D01*
X8082563Y-10757984D02*
X8063515Y-10748460D01*
X8063515Y-10748460D02*
X8053991Y-10729412D01*
X8053991Y-10729412D02*
X8053991Y-10557984D01*
X8234944Y-10748460D02*
X8215896Y-10757984D01*
X8215896Y-10757984D02*
X8177801Y-10757984D01*
X8177801Y-10757984D02*
X8158753Y-10748460D01*
X8158753Y-10748460D02*
X8149230Y-10729412D01*
X8149230Y-10729412D02*
X8149230Y-10653222D01*
X8149230Y-10653222D02*
X8158753Y-10634174D01*
X8158753Y-10634174D02*
X8177801Y-10624650D01*
X8177801Y-10624650D02*
X8215896Y-10624650D01*
X8215896Y-10624650D02*
X8234944Y-10634174D01*
X8234944Y-10634174D02*
X8244468Y-10653222D01*
X8244468Y-10653222D02*
X8244468Y-10672270D01*
X8244468Y-10672270D02*
X8149230Y-10691317D01*
X8320658Y-10748460D02*
X8339706Y-10757984D01*
X8339706Y-10757984D02*
X8377801Y-10757984D01*
X8377801Y-10757984D02*
X8396849Y-10748460D01*
X8396849Y-10748460D02*
X8406373Y-10729412D01*
X8406373Y-10729412D02*
X8406373Y-10719889D01*
X8406373Y-10719889D02*
X8396849Y-10700841D01*
X8396849Y-10700841D02*
X8377801Y-10691317D01*
X8377801Y-10691317D02*
X8349230Y-10691317D01*
X8349230Y-10691317D02*
X8330182Y-10681793D01*
X8330182Y-10681793D02*
X8320658Y-10662746D01*
X8320658Y-10662746D02*
X8320658Y-10653222D01*
X8320658Y-10653222D02*
X8330182Y-10634174D01*
X8330182Y-10634174D02*
X8349230Y-10624650D01*
X8349230Y-10624650D02*
X8377801Y-10624650D01*
X8377801Y-10624650D02*
X8396849Y-10634174D01*
X8473039Y-10834174D02*
X8482563Y-10824650D01*
X8482563Y-10824650D02*
X8501611Y-10796079D01*
X8501611Y-10796079D02*
X8511134Y-10777031D01*
X8511134Y-10777031D02*
X8520658Y-10748460D01*
X8520658Y-10748460D02*
X8530182Y-10700841D01*
X8530182Y-10700841D02*
X8530182Y-10662746D01*
X8530182Y-10662746D02*
X8520658Y-10615127D01*
X8520658Y-10615127D02*
X8511134Y-10586555D01*
X8511134Y-10586555D02*
X8501611Y-10567508D01*
X8501611Y-10567508D02*
X8482563Y-10538936D01*
X8482563Y-10538936D02*
X8473039Y-10529412D01*
M02*
