%TF.GenerationSoftware,KiCad,Pcbnew,8.0.9-8.0.9-0~ubuntu24.04.1*%
%TF.CreationDate,2025-03-05T09:12:54+01:00*%
%TF.ProjectId,SpeedometerV1,53706565-646f-46d6-9574-657256312e6b,V2*%
%TF.SameCoordinates,Original*%
%TF.FileFunction,Copper,L4,Bot*%
%TF.FilePolarity,Positive*%
%FSLAX46Y46*%
G04 Gerber Fmt 4.6, Leading zero omitted, Abs format (unit mm)*
G04 Created by KiCad (PCBNEW 8.0.9-8.0.9-0~ubuntu24.04.1) date 2025-03-05 09:12:54*
%MOMM*%
%LPD*%
G01*
G04 APERTURE LIST*
G04 Aperture macros list*
%AMRoundRect*
0 Rectangle with rounded corners*
0 $1 Rounding radius*
0 $2 $3 $4 $5 $6 $7 $8 $9 X,Y pos of 4 corners*
0 Add a 4 corners polygon primitive as box body*
4,1,4,$2,$3,$4,$5,$6,$7,$8,$9,$2,$3,0*
0 Add four circle primitives for the rounded corners*
1,1,$1+$1,$2,$3*
1,1,$1+$1,$4,$5*
1,1,$1+$1,$6,$7*
1,1,$1+$1,$8,$9*
0 Add four rect primitives between the rounded corners*
20,1,$1+$1,$2,$3,$4,$5,0*
20,1,$1+$1,$4,$5,$6,$7,0*
20,1,$1+$1,$6,$7,$8,$9,0*
20,1,$1+$1,$8,$9,$2,$3,0*%
G04 Aperture macros list end*
%TA.AperFunction,ComponentPad*%
%ADD10R,1.800000X1.800000*%
%TD*%
%TA.AperFunction,ComponentPad*%
%ADD11C,1.800000*%
%TD*%
%TA.AperFunction,ComponentPad*%
%ADD12R,1.700000X1.700000*%
%TD*%
%TA.AperFunction,ComponentPad*%
%ADD13O,1.700000X1.700000*%
%TD*%
%TA.AperFunction,ComponentPad*%
%ADD14C,1.400000*%
%TD*%
%TA.AperFunction,ComponentPad*%
%ADD15O,1.400000X1.400000*%
%TD*%
%TA.AperFunction,ComponentPad*%
%ADD16R,1.600000X1.600000*%
%TD*%
%TA.AperFunction,ComponentPad*%
%ADD17C,1.600000*%
%TD*%
%TA.AperFunction,ComponentPad*%
%ADD18RoundRect,0.250000X-0.350000X-0.625000X0.350000X-0.625000X0.350000X0.625000X-0.350000X0.625000X0*%
%TD*%
%TA.AperFunction,ComponentPad*%
%ADD19O,1.200000X1.750000*%
%TD*%
%TA.AperFunction,ComponentPad*%
%ADD20RoundRect,0.250000X-0.625000X0.350000X-0.625000X-0.350000X0.625000X-0.350000X0.625000X0.350000X0*%
%TD*%
%TA.AperFunction,ComponentPad*%
%ADD21O,1.750000X1.200000*%
%TD*%
%TA.AperFunction,ViaPad*%
%ADD22C,1.000000*%
%TD*%
%TA.AperFunction,ViaPad*%
%ADD23C,0.600000*%
%TD*%
%TA.AperFunction,Conductor*%
%ADD24C,0.400000*%
%TD*%
%TA.AperFunction,Conductor*%
%ADD25C,1.000000*%
%TD*%
%TA.AperFunction,Conductor*%
%ADD26C,0.600000*%
%TD*%
G04 APERTURE END LIST*
D10*
%TO.P,Q4,1,C*%
%TO.N,+3.3V*%
X37843750Y-79290000D03*
D11*
%TO.P,Q4,2,E*%
%TO.N,Net-(Q4-E)*%
X37843750Y-81830000D03*
%TD*%
D12*
%TO.P,J6,1,Pin_1*%
%TO.N,/I2C_SDA*%
X87600000Y-70860000D03*
D13*
%TO.P,J6,2,Pin_2*%
%TO.N,+3.3V*%
X87600000Y-73400000D03*
%TO.P,J6,3,Pin_3*%
%TO.N,/I2C_SCL*%
X85060000Y-70860000D03*
%TO.P,J6,4,Pin_4*%
%TO.N,GND*%
X85060000Y-73400000D03*
%TD*%
D12*
%TO.P,J2,1,Pin_1*%
%TO.N,+3.3V*%
X39600000Y-47940000D03*
D13*
%TO.P,J2,2,Pin_2*%
%TO.N,/BUCK_3.3V*%
X39600000Y-45400000D03*
%TD*%
D14*
%TO.P,TH1,1*%
%TO.N,VRAIL*%
X85600000Y-38165000D03*
D15*
%TO.P,TH1,2*%
%TO.N,Net-(JP1-B)*%
X83700000Y-38165000D03*
%TD*%
D12*
%TO.P,J8,1,Pin_1*%
%TO.N,+3.3V*%
X79615000Y-76555000D03*
D13*
%TO.P,J8,2,Pin_2*%
%TO.N,/SWD_SWCLK*%
X77075000Y-76555000D03*
%TO.P,J8,3,Pin_3*%
%TO.N,GND*%
X79615000Y-74015000D03*
%TO.P,J8,4,Pin_4*%
%TO.N,/SWD_SWDIO*%
X77075000Y-74015000D03*
%TO.P,J8,5,Pin_5*%
%TO.N,unconnected-(J8-Pin_5-Pad5)*%
X79615000Y-71475000D03*
%TO.P,J8,6,Pin_6*%
%TO.N,/SWD_NRST*%
X77075000Y-71475000D03*
%TD*%
D16*
%TO.P,C2,1*%
%TO.N,/VRAIL_CAP*%
X75210000Y-39880000D03*
D17*
%TO.P,C2,2*%
%TO.N,GND*%
X79010000Y-39880000D03*
%TD*%
D18*
%TO.P,J9,1,Pin_1*%
%TO.N,/I2C_SCL*%
X84000000Y-77400000D03*
D19*
%TO.P,J9,2,Pin_2*%
%TO.N,/I2C_SDA*%
X86000000Y-77400000D03*
%TO.P,J9,3,Pin_3*%
%TO.N,+3.3V*%
X88000000Y-77400000D03*
%TO.P,J9,4,Pin_4*%
%TO.N,GND*%
X90000000Y-77400000D03*
%TD*%
D10*
%TO.P,Q1,1,C*%
%TO.N,+3.3V*%
X92200000Y-54400000D03*
D11*
%TO.P,Q1,2,E*%
%TO.N,Net-(Q1-E)*%
X92200000Y-51860000D03*
%TD*%
D10*
%TO.P,Q2,1,C*%
%TO.N,+3.3V*%
X37843750Y-72750000D03*
D11*
%TO.P,Q2,2,E*%
%TO.N,Net-(Q2-E)*%
X37843750Y-75290000D03*
%TD*%
D10*
%TO.P,Q3,1,C*%
%TO.N,+3.3V*%
X80300000Y-48760000D03*
D11*
%TO.P,Q3,2,E*%
%TO.N,Net-(Q3-E)*%
X77760000Y-48760000D03*
%TD*%
D12*
%TO.P,J1,1,Pin_1*%
%TO.N,VRAIL*%
X92325000Y-38275000D03*
D13*
%TO.P,J1,2,Pin_2*%
%TO.N,GND*%
X92325000Y-40815000D03*
%TO.P,J1,3,Pin_3*%
%TO.N,VRAIL*%
X89785000Y-38275000D03*
%TO.P,J1,4,Pin_4*%
%TO.N,GND*%
X89785000Y-40815000D03*
%TD*%
D20*
%TO.P,J4,1,Pin_1*%
%TO.N,+3.3V*%
X41850000Y-59600000D03*
D21*
%TO.P,J4,2,Pin_2*%
%TO.N,GND*%
X41850000Y-61600000D03*
%TD*%
D12*
%TO.P,J5,1,Pin_1*%
%TO.N,+3.3V*%
X40140000Y-54275000D03*
D13*
%TO.P,J5,2,Pin_2*%
%TO.N,GND*%
X37600000Y-54275000D03*
%TD*%
D12*
%TO.P,J3,1,Pin_1*%
%TO.N,/IO_SPEEDOMETER_LED*%
X63105000Y-82165000D03*
D13*
%TO.P,J3,2,Pin_2*%
%TO.N,/IO_Poti_Speed*%
X65645000Y-82165000D03*
%TO.P,J3,3,Pin_3*%
%TO.N,/INT_LANE_DATA*%
X68185000Y-82165000D03*
%TO.P,J3,4,Pin_4*%
%TO.N,/INT_SPEED_LANE2*%
X70725000Y-82165000D03*
%TO.P,J3,5,Pin_5*%
%TO.N,/INT_SPEED_LANE1*%
X73265000Y-82165000D03*
%TO.P,J3,6,Pin_6*%
%TO.N,/IO_POWER_RAIL_DATA*%
X75805000Y-82165000D03*
%TD*%
D12*
%TO.P,J7,1,Pin_1*%
%TO.N,/COMP_AOUT2*%
X61325000Y-64375000D03*
D13*
%TO.P,J7,2,Pin_2*%
%TO.N,/COMP_AOUT1*%
X63865000Y-64375000D03*
%TO.P,J7,3,Pin_3*%
%TO.N,/COMP_BOUT2*%
X61325000Y-66915000D03*
%TO.P,J7,4,Pin_4*%
%TO.N,/COMP_BOUT1*%
X63865000Y-66915000D03*
%TD*%
D22*
%TO.N,GND*%
X55000000Y-55000000D03*
D23*
X61320000Y-39160000D03*
X70400000Y-49347500D03*
D22*
X95100000Y-50900000D03*
X56000000Y-63000000D03*
X90600000Y-43900000D03*
D23*
X64320000Y-40160000D03*
D22*
X65000000Y-49000000D03*
D23*
X62320000Y-45160000D03*
D22*
X74600000Y-71900000D03*
D23*
X59320000Y-47160000D03*
D22*
X55000000Y-51000000D03*
D23*
X61320000Y-40160000D03*
X88400000Y-50147500D03*
X56968750Y-77302500D03*
X65320000Y-47160000D03*
D22*
X51000000Y-55000000D03*
X55000000Y-57000000D03*
X53000000Y-51000000D03*
D23*
X62320000Y-39160000D03*
D22*
X71600000Y-37900000D03*
X58000000Y-37000000D03*
D23*
X59325000Y-65515000D03*
D22*
X95100000Y-48900000D03*
D23*
X82500000Y-50647500D03*
D22*
X61000000Y-55000000D03*
X53000000Y-55000000D03*
X60000000Y-37000000D03*
X65100000Y-74400000D03*
X95100000Y-38900000D03*
D23*
X83800000Y-63000000D03*
X70725000Y-72815000D03*
D22*
X67000000Y-49000000D03*
X47000000Y-55000000D03*
X37000000Y-68000000D03*
X65000000Y-57000000D03*
D23*
X59320000Y-46160000D03*
D22*
X51000000Y-51000000D03*
D23*
X64320000Y-47160000D03*
X49825000Y-71515000D03*
X55081250Y-79590000D03*
X75125000Y-67515000D03*
D22*
X63000000Y-55000000D03*
D23*
X46218750Y-75752500D03*
X60320000Y-40160000D03*
X41818750Y-77752500D03*
D22*
X95100000Y-46900000D03*
D23*
X67738775Y-56000000D03*
D22*
X57000000Y-57000000D03*
D23*
X59320000Y-40160000D03*
X67825000Y-63015000D03*
D22*
X59000000Y-51000000D03*
D23*
X47618750Y-77752500D03*
X60320000Y-47160000D03*
D22*
X65000000Y-59000000D03*
D23*
X70125000Y-69815000D03*
D22*
X57000000Y-51000000D03*
X69000000Y-47000000D03*
D23*
X59325000Y-66815000D03*
D22*
X95100000Y-42900000D03*
D23*
X61320000Y-46160000D03*
X57825000Y-66815000D03*
X59320000Y-39160000D03*
X60320000Y-46160000D03*
D22*
X62100000Y-74400000D03*
D23*
X46325000Y-69015000D03*
D22*
X58600000Y-81900000D03*
X37000000Y-50000000D03*
D23*
X64320000Y-46160000D03*
D22*
X61000000Y-51000000D03*
D23*
X64320000Y-39160000D03*
X67738775Y-50000000D03*
D22*
X62000000Y-37000000D03*
X93100000Y-43900000D03*
D23*
X82300000Y-48260000D03*
X67738775Y-51500000D03*
X62320000Y-40160000D03*
X60320000Y-39160000D03*
D22*
X69000000Y-49000000D03*
D23*
X55825000Y-70515000D03*
X62825000Y-71115000D03*
X72212500Y-47760000D03*
D22*
X95100000Y-44900000D03*
D23*
X63320000Y-39160000D03*
D22*
X62100000Y-79400000D03*
X65000000Y-55000000D03*
X64000000Y-37000000D03*
X95100000Y-36900000D03*
D23*
X54825000Y-68015000D03*
D22*
X37000000Y-44000000D03*
X37000000Y-66000000D03*
D23*
X59325000Y-68015000D03*
D22*
X45000000Y-55000000D03*
X57000000Y-59000000D03*
D23*
X67738775Y-53000000D03*
X68125000Y-65315000D03*
D22*
X95100000Y-40900000D03*
X52000000Y-63000000D03*
X42000000Y-37000000D03*
X54000000Y-63000000D03*
X48600000Y-81900000D03*
D23*
X80800000Y-52260000D03*
X83537500Y-53210000D03*
X71725000Y-72815000D03*
X63320000Y-40160000D03*
D22*
X52100000Y-81900000D03*
D23*
X80050000Y-57760000D03*
X63320000Y-47160000D03*
X85825000Y-66515000D03*
D22*
X37000000Y-48000000D03*
X37000000Y-46000000D03*
X63000000Y-51000000D03*
D23*
X49825000Y-68515000D03*
D22*
X40000000Y-37000000D03*
X59000000Y-59000000D03*
X66280000Y-37900000D03*
D23*
X74625000Y-70715000D03*
D22*
X65000000Y-53000000D03*
X69000000Y-37900000D03*
X58000000Y-63000000D03*
D23*
X49825000Y-70015000D03*
D22*
X62100000Y-76900000D03*
X68100000Y-74400000D03*
D23*
X67738775Y-54500000D03*
X61320000Y-45160000D03*
D22*
X65000000Y-51000000D03*
X55600000Y-81900000D03*
X49000000Y-55000000D03*
D23*
%TO.N,/BUCK_3.3V*%
X63570000Y-45410000D03*
X42620000Y-44060000D03*
%TO.N,+3.3V*%
X82200000Y-60800000D03*
X77800000Y-60500000D03*
X88400000Y-58660000D03*
D22*
X69900000Y-60615000D03*
D23*
X70400000Y-57660000D03*
X41725000Y-69015000D03*
X58325000Y-69815000D03*
X50925000Y-72715000D03*
X52125000Y-66615000D03*
X47925000Y-66615000D03*
X79300000Y-55160000D03*
%TO.N,/I2C_SDA*%
X75125000Y-68515000D03*
%TO.N,/I2C_SCL*%
X74625000Y-69815000D03*
%TO.N,/COMP_BOUT2*%
X61825000Y-71115000D03*
%TO.N,/COMP_AOUT1*%
X68125000Y-64315000D03*
D22*
%TO.N,VRAIL*%
X77600000Y-66500000D03*
%TD*%
D24*
%TO.N,/BUCK_3.3V*%
X59920000Y-49060000D02*
X63570000Y-45410000D01*
X42620000Y-44060000D02*
X42620000Y-46060000D01*
X45620000Y-49060000D02*
X59920000Y-49060000D01*
X42620000Y-46060000D02*
X45620000Y-49060000D01*
D25*
%TO.N,+3.3V*%
X71600000Y-58915000D02*
X69900000Y-60615000D01*
X44035000Y-68215000D02*
X41850000Y-68215000D01*
D26*
X55125000Y-66615000D02*
X52125000Y-66615000D01*
X76040000Y-60500000D02*
X73000000Y-57460000D01*
X41725000Y-69015000D02*
X41725000Y-68340000D01*
D25*
X73000000Y-57460000D02*
X75400000Y-55060000D01*
D26*
X58325000Y-69815000D02*
X56525000Y-68015000D01*
D25*
X40140000Y-54275000D02*
X40140000Y-57890000D01*
X88000000Y-78800000D02*
X88000000Y-77400000D01*
D26*
X82200000Y-60800000D02*
X81140000Y-60800000D01*
D25*
X78400000Y-52060000D02*
X80300000Y-50160000D01*
X39600000Y-47940000D02*
X39600000Y-48900000D01*
X61100000Y-57600000D02*
X61100000Y-60600000D01*
X41850000Y-51150000D02*
X40140000Y-52860000D01*
X37843750Y-68956250D02*
X38585000Y-68215000D01*
X41850000Y-51150000D02*
X43100000Y-52400000D01*
X80800000Y-80200000D02*
X86600000Y-80200000D01*
X51650000Y-60600000D02*
X46975000Y-65275000D01*
X40140000Y-57890000D02*
X41850000Y-59600000D01*
X69900000Y-60615000D02*
X69885000Y-60600000D01*
X39900000Y-77233750D02*
X37843750Y-79290000D01*
X40140000Y-52860000D02*
X40140000Y-54275000D01*
D26*
X79300000Y-55160000D02*
X79300000Y-52960000D01*
D25*
X75400000Y-55060000D02*
X78400000Y-52060000D01*
X38585000Y-68215000D02*
X39900000Y-68215000D01*
D26*
X70400000Y-57660000D02*
X71600000Y-58860000D01*
D25*
X43100000Y-52400000D02*
X55900000Y-52400000D01*
D26*
X77800000Y-60500000D02*
X76040000Y-60500000D01*
X81140000Y-60800000D02*
X75400000Y-55060000D01*
D25*
X39900000Y-68215000D02*
X39900000Y-77233750D01*
D26*
X86260000Y-60800000D02*
X88400000Y-58660000D01*
X82200000Y-60800000D02*
X86260000Y-60800000D01*
D24*
X88325000Y-76815000D02*
X88325000Y-78015000D01*
D25*
X71600000Y-58860000D02*
X71600000Y-58915000D01*
D26*
X41725000Y-68340000D02*
X41850000Y-68215000D01*
X52125000Y-66615000D02*
X47925000Y-66615000D01*
X47925000Y-66615000D02*
X47925000Y-66225000D01*
D25*
X64100000Y-60600000D02*
X61100000Y-60600000D01*
X55900000Y-52400000D02*
X61100000Y-57600000D01*
X71600000Y-58860000D02*
X73000000Y-57460000D01*
D26*
X56525000Y-68015000D02*
X55125000Y-66615000D01*
D25*
X37843750Y-72750000D02*
X37843750Y-68956250D01*
X61100000Y-60600000D02*
X51650000Y-60600000D01*
D24*
X50925000Y-72715000D02*
X51825000Y-72715000D01*
D25*
X79615000Y-76555000D02*
X79615000Y-79015000D01*
X41850000Y-68215000D02*
X39900000Y-68215000D01*
X80300000Y-50160000D02*
X80300000Y-48760000D01*
D24*
X51825000Y-72715000D02*
X56525000Y-68015000D01*
D26*
X79300000Y-52960000D02*
X78400000Y-52060000D01*
D25*
X86600000Y-80200000D02*
X88000000Y-78800000D01*
X39600000Y-48900000D02*
X41850000Y-51150000D01*
X69885000Y-60600000D02*
X64100000Y-60600000D01*
X79615000Y-79015000D02*
X80800000Y-80200000D01*
X46975000Y-65275000D02*
X44035000Y-68215000D01*
D26*
X47925000Y-66225000D02*
X46975000Y-65275000D01*
D24*
%TO.N,/I2C_SDA*%
X75125000Y-68515000D02*
X85255000Y-68515000D01*
X85255000Y-68515000D02*
X87600000Y-70860000D01*
%TO.N,/I2C_SCL*%
X84015000Y-69815000D02*
X85060000Y-70860000D01*
X74625000Y-69815000D02*
X84015000Y-69815000D01*
%TO.N,/COMP_BOUT2*%
X61325000Y-70315000D02*
X61325000Y-66915000D01*
X61825000Y-71115000D02*
X61825000Y-70815000D01*
X61825000Y-70815000D02*
X61325000Y-70315000D01*
%TO.N,/COMP_AOUT1*%
X68065000Y-64375000D02*
X63865000Y-64375000D01*
X68125000Y-64315000D02*
X68065000Y-64375000D01*
D26*
%TO.N,VRAIL*%
X89900000Y-47600000D02*
X86600000Y-44300000D01*
X89900000Y-59300000D02*
X89900000Y-47600000D01*
X82700000Y-66500000D02*
X89900000Y-59300000D01*
X86600000Y-40430000D02*
X85600000Y-39430000D01*
X85600000Y-39430000D02*
X85600000Y-38165000D01*
X77600000Y-66500000D02*
X82700000Y-66500000D01*
X86600000Y-44300000D02*
X86600000Y-40430000D01*
%TD*%
%TA.AperFunction,Conductor*%
%TO.N,GND*%
G36*
X102106922Y-35901280D02*
G01*
X102197266Y-35911459D01*
X102224331Y-35917636D01*
X102303540Y-35945352D01*
X102328553Y-35957398D01*
X102399606Y-36002043D01*
X102421313Y-36019355D01*
X102480644Y-36078686D01*
X102497957Y-36100395D01*
X102542600Y-36171444D01*
X102554648Y-36196462D01*
X102582362Y-36275666D01*
X102588540Y-36302735D01*
X102598720Y-36393076D01*
X102599500Y-36406961D01*
X102599500Y-83393038D01*
X102598720Y-83406923D01*
X102588540Y-83497264D01*
X102582362Y-83524333D01*
X102554648Y-83603537D01*
X102542600Y-83628555D01*
X102497957Y-83699604D01*
X102480644Y-83721313D01*
X102421313Y-83780644D01*
X102399604Y-83797957D01*
X102328555Y-83842600D01*
X102303537Y-83854648D01*
X102224333Y-83882362D01*
X102197264Y-83888540D01*
X102117075Y-83897576D01*
X102106921Y-83898720D01*
X102093038Y-83899500D01*
X36106962Y-83899500D01*
X36093078Y-83898720D01*
X36080553Y-83897308D01*
X36002735Y-83888540D01*
X35975666Y-83882362D01*
X35896462Y-83854648D01*
X35871444Y-83842600D01*
X35800395Y-83797957D01*
X35778686Y-83780644D01*
X35719355Y-83721313D01*
X35702042Y-83699604D01*
X35657399Y-83628555D01*
X35645351Y-83603537D01*
X35617637Y-83524333D01*
X35611459Y-83497263D01*
X35601280Y-83406922D01*
X35600500Y-83393038D01*
X35600500Y-81829999D01*
X36738535Y-81829999D01*
X36738535Y-81830000D01*
X36757352Y-82033082D01*
X36813167Y-82229247D01*
X36813172Y-82229260D01*
X36904077Y-82411821D01*
X37026987Y-82574581D01*
X37177708Y-82711980D01*
X37177710Y-82711982D01*
X37241454Y-82751450D01*
X37351113Y-82819348D01*
X37541294Y-82893024D01*
X37741774Y-82930500D01*
X37741776Y-82930500D01*
X37945724Y-82930500D01*
X37945726Y-82930500D01*
X38146206Y-82893024D01*
X38336387Y-82819348D01*
X38509791Y-82711981D01*
X38660514Y-82574579D01*
X38783423Y-82411821D01*
X38874332Y-82229250D01*
X38930147Y-82033083D01*
X38948965Y-81830000D01*
X38930147Y-81626917D01*
X38874332Y-81430750D01*
X38806860Y-81295247D01*
X62054500Y-81295247D01*
X62054500Y-83034752D01*
X62066131Y-83093229D01*
X62066132Y-83093230D01*
X62110447Y-83159552D01*
X62176769Y-83203867D01*
X62176770Y-83203868D01*
X62235247Y-83215499D01*
X62235250Y-83215500D01*
X62235252Y-83215500D01*
X63974750Y-83215500D01*
X63974751Y-83215499D01*
X63989568Y-83212552D01*
X64033229Y-83203868D01*
X64033229Y-83203867D01*
X64033231Y-83203867D01*
X64099552Y-83159552D01*
X64143867Y-83093231D01*
X64143867Y-83093229D01*
X64143868Y-83093229D01*
X64155499Y-83034752D01*
X64155500Y-83034750D01*
X64155500Y-82165000D01*
X64589417Y-82165000D01*
X64609699Y-82370932D01*
X64609700Y-82370934D01*
X64669768Y-82568954D01*
X64767315Y-82751450D01*
X64767317Y-82751452D01*
X64898589Y-82911410D01*
X64921851Y-82930500D01*
X65058550Y-83042685D01*
X65241046Y-83140232D01*
X65439066Y-83200300D01*
X65439065Y-83200300D01*
X65457529Y-83202118D01*
X65645000Y-83220583D01*
X65850934Y-83200300D01*
X66048954Y-83140232D01*
X66231450Y-83042685D01*
X66391410Y-82911410D01*
X66522685Y-82751450D01*
X66620232Y-82568954D01*
X66680300Y-82370934D01*
X66700583Y-82165000D01*
X67129417Y-82165000D01*
X67149699Y-82370932D01*
X67149700Y-82370934D01*
X67209768Y-82568954D01*
X67307315Y-82751450D01*
X67307317Y-82751452D01*
X67438589Y-82911410D01*
X67461851Y-82930500D01*
X67598550Y-83042685D01*
X67781046Y-83140232D01*
X67979066Y-83200300D01*
X67979065Y-83200300D01*
X67997529Y-83202118D01*
X68185000Y-83220583D01*
X68390934Y-83200300D01*
X68588954Y-83140232D01*
X68771450Y-83042685D01*
X68931410Y-82911410D01*
X69062685Y-82751450D01*
X69160232Y-82568954D01*
X69220300Y-82370934D01*
X69240583Y-82165000D01*
X69669417Y-82165000D01*
X69689699Y-82370932D01*
X69689700Y-82370934D01*
X69749768Y-82568954D01*
X69847315Y-82751450D01*
X69847317Y-82751452D01*
X69978589Y-82911410D01*
X70001851Y-82930500D01*
X70138550Y-83042685D01*
X70321046Y-83140232D01*
X70519066Y-83200300D01*
X70519065Y-83200300D01*
X70537529Y-83202118D01*
X70725000Y-83220583D01*
X70930934Y-83200300D01*
X71128954Y-83140232D01*
X71311450Y-83042685D01*
X71471410Y-82911410D01*
X71602685Y-82751450D01*
X71700232Y-82568954D01*
X71760300Y-82370934D01*
X71780583Y-82165000D01*
X72209417Y-82165000D01*
X72229699Y-82370932D01*
X72229700Y-82370934D01*
X72289768Y-82568954D01*
X72387315Y-82751450D01*
X72387317Y-82751452D01*
X72518589Y-82911410D01*
X72541851Y-82930500D01*
X72678550Y-83042685D01*
X72861046Y-83140232D01*
X73059066Y-83200300D01*
X73059065Y-83200300D01*
X73077529Y-83202118D01*
X73265000Y-83220583D01*
X73470934Y-83200300D01*
X73668954Y-83140232D01*
X73851450Y-83042685D01*
X74011410Y-82911410D01*
X74142685Y-82751450D01*
X74240232Y-82568954D01*
X74300300Y-82370934D01*
X74320583Y-82165000D01*
X74749417Y-82165000D01*
X74769699Y-82370932D01*
X74769700Y-82370934D01*
X74829768Y-82568954D01*
X74927315Y-82751450D01*
X74927317Y-82751452D01*
X75058589Y-82911410D01*
X75081851Y-82930500D01*
X75218550Y-83042685D01*
X75401046Y-83140232D01*
X75599066Y-83200300D01*
X75599065Y-83200300D01*
X75617529Y-83202118D01*
X75805000Y-83220583D01*
X76010934Y-83200300D01*
X76208954Y-83140232D01*
X76391450Y-83042685D01*
X76551410Y-82911410D01*
X76682685Y-82751450D01*
X76780232Y-82568954D01*
X76840300Y-82370934D01*
X76860583Y-82165000D01*
X76840300Y-81959066D01*
X76780232Y-81761046D01*
X76682685Y-81578550D01*
X76630702Y-81515209D01*
X76551410Y-81418589D01*
X76401121Y-81295252D01*
X76391450Y-81287315D01*
X76208954Y-81189768D01*
X76010934Y-81129700D01*
X76010932Y-81129699D01*
X76010934Y-81129699D01*
X75805000Y-81109417D01*
X75599067Y-81129699D01*
X75401043Y-81189769D01*
X75313114Y-81236769D01*
X75218550Y-81287315D01*
X75218548Y-81287316D01*
X75218547Y-81287317D01*
X75058589Y-81418589D01*
X74927317Y-81578547D01*
X74829769Y-81761043D01*
X74769699Y-81959067D01*
X74749417Y-82165000D01*
X74320583Y-82165000D01*
X74300300Y-81959066D01*
X74240232Y-81761046D01*
X74142685Y-81578550D01*
X74090702Y-81515209D01*
X74011410Y-81418589D01*
X73861121Y-81295252D01*
X73851450Y-81287315D01*
X73668954Y-81189768D01*
X73470934Y-81129700D01*
X73470932Y-81129699D01*
X73470934Y-81129699D01*
X73265000Y-81109417D01*
X73059067Y-81129699D01*
X72861043Y-81189769D01*
X72773114Y-81236769D01*
X72678550Y-81287315D01*
X72678548Y-81287316D01*
X72678547Y-81287317D01*
X72518589Y-81418589D01*
X72387317Y-81578547D01*
X72289769Y-81761043D01*
X72229699Y-81959067D01*
X72209417Y-82165000D01*
X71780583Y-82165000D01*
X71760300Y-81959066D01*
X71700232Y-81761046D01*
X71602685Y-81578550D01*
X71550702Y-81515209D01*
X71471410Y-81418589D01*
X71321121Y-81295252D01*
X71311450Y-81287315D01*
X71128954Y-81189768D01*
X70930934Y-81129700D01*
X70930932Y-81129699D01*
X70930934Y-81129699D01*
X70725000Y-81109417D01*
X70519067Y-81129699D01*
X70321043Y-81189769D01*
X70233114Y-81236769D01*
X70138550Y-81287315D01*
X70138548Y-81287316D01*
X70138547Y-81287317D01*
X69978589Y-81418589D01*
X69847317Y-81578547D01*
X69749769Y-81761043D01*
X69689699Y-81959067D01*
X69669417Y-82165000D01*
X69240583Y-82165000D01*
X69220300Y-81959066D01*
X69160232Y-81761046D01*
X69062685Y-81578550D01*
X69010702Y-81515209D01*
X68931410Y-81418589D01*
X68781121Y-81295252D01*
X68771450Y-81287315D01*
X68588954Y-81189768D01*
X68390934Y-81129700D01*
X68390932Y-81129699D01*
X68390934Y-81129699D01*
X68185000Y-81109417D01*
X67979067Y-81129699D01*
X67781043Y-81189769D01*
X67693114Y-81236769D01*
X67598550Y-81287315D01*
X67598548Y-81287316D01*
X67598547Y-81287317D01*
X67438589Y-81418589D01*
X67307317Y-81578547D01*
X67209769Y-81761043D01*
X67149699Y-81959067D01*
X67129417Y-82165000D01*
X66700583Y-82165000D01*
X66680300Y-81959066D01*
X66620232Y-81761046D01*
X66522685Y-81578550D01*
X66470702Y-81515209D01*
X66391410Y-81418589D01*
X66241121Y-81295252D01*
X66231450Y-81287315D01*
X66048954Y-81189768D01*
X65850934Y-81129700D01*
X65850932Y-81129699D01*
X65850934Y-81129699D01*
X65645000Y-81109417D01*
X65439067Y-81129699D01*
X65241043Y-81189769D01*
X65153114Y-81236769D01*
X65058550Y-81287315D01*
X65058548Y-81287316D01*
X65058547Y-81287317D01*
X64898589Y-81418589D01*
X64767317Y-81578547D01*
X64669769Y-81761043D01*
X64609699Y-81959067D01*
X64589417Y-82165000D01*
X64155500Y-82165000D01*
X64155500Y-81295249D01*
X64155499Y-81295247D01*
X64143868Y-81236770D01*
X64143867Y-81236769D01*
X64099552Y-81170447D01*
X64033230Y-81126132D01*
X64033229Y-81126131D01*
X63974752Y-81114500D01*
X63974748Y-81114500D01*
X62235252Y-81114500D01*
X62235247Y-81114500D01*
X62176770Y-81126131D01*
X62176769Y-81126132D01*
X62110447Y-81170447D01*
X62066132Y-81236769D01*
X62066131Y-81236770D01*
X62054500Y-81295247D01*
X38806860Y-81295247D01*
X38783423Y-81248179D01*
X38691258Y-81126133D01*
X38660512Y-81085418D01*
X38509791Y-80948019D01*
X38509789Y-80948017D01*
X38336392Y-80840655D01*
X38336385Y-80840651D01*
X38241296Y-80803814D01*
X38146206Y-80766976D01*
X37945726Y-80729500D01*
X37741774Y-80729500D01*
X37541294Y-80766976D01*
X37541291Y-80766976D01*
X37541291Y-80766977D01*
X37351114Y-80840651D01*
X37351107Y-80840655D01*
X37177710Y-80948017D01*
X37177708Y-80948019D01*
X37026987Y-81085418D01*
X36904077Y-81248178D01*
X36813172Y-81430739D01*
X36813167Y-81430752D01*
X36757352Y-81626917D01*
X36738535Y-81829999D01*
X35600500Y-81829999D01*
X35600500Y-75289999D01*
X36738535Y-75289999D01*
X36738535Y-75290000D01*
X36757352Y-75493082D01*
X36813167Y-75689247D01*
X36813172Y-75689260D01*
X36904077Y-75871821D01*
X37026987Y-76034581D01*
X37177708Y-76171980D01*
X37177710Y-76171982D01*
X37276891Y-76233392D01*
X37351113Y-76279348D01*
X37541294Y-76353024D01*
X37741774Y-76390500D01*
X37741776Y-76390500D01*
X37945724Y-76390500D01*
X37945726Y-76390500D01*
X38146206Y-76353024D01*
X38336387Y-76279348D01*
X38509791Y-76171981D01*
X38660514Y-76034579D01*
X38783423Y-75871821D01*
X38874332Y-75689250D01*
X38930147Y-75493083D01*
X38948965Y-75290000D01*
X38933753Y-75125838D01*
X38930147Y-75086917D01*
X38874332Y-74890750D01*
X38783423Y-74708179D01*
X38660514Y-74545421D01*
X38660512Y-74545418D01*
X38509791Y-74408019D01*
X38509789Y-74408017D01*
X38336392Y-74300655D01*
X38336385Y-74300651D01*
X38241296Y-74263814D01*
X38146206Y-74226976D01*
X37945726Y-74189500D01*
X37741774Y-74189500D01*
X37541294Y-74226976D01*
X37541291Y-74226976D01*
X37541291Y-74226977D01*
X37351114Y-74300651D01*
X37351107Y-74300655D01*
X37177710Y-74408017D01*
X37177708Y-74408019D01*
X37026987Y-74545418D01*
X36904077Y-74708178D01*
X36813172Y-74890739D01*
X36813167Y-74890752D01*
X36757352Y-75086917D01*
X36738535Y-75289999D01*
X35600500Y-75289999D01*
X35600500Y-71836569D01*
X36741639Y-71836569D01*
X36741640Y-71837355D01*
X36743250Y-71856507D01*
X36743250Y-73669752D01*
X36754881Y-73728229D01*
X36754882Y-73728230D01*
X36799197Y-73794552D01*
X36865519Y-73838867D01*
X36865520Y-73838868D01*
X36923997Y-73850499D01*
X36924000Y-73850500D01*
X36924002Y-73850500D01*
X38763500Y-73850500D01*
X38763501Y-73850499D01*
X38778318Y-73847552D01*
X38821979Y-73838868D01*
X38821979Y-73838867D01*
X38821981Y-73838867D01*
X38888302Y-73794552D01*
X38932617Y-73728231D01*
X38932617Y-73728229D01*
X38932618Y-73728229D01*
X38944249Y-73669752D01*
X38944250Y-73669750D01*
X38944250Y-71830257D01*
X38944006Y-71827781D01*
X38943508Y-71820569D01*
X38943479Y-71819872D01*
X38943480Y-71819864D01*
X38942123Y-71811013D01*
X38941590Y-71809547D01*
X38936521Y-71791397D01*
X38935891Y-71788231D01*
X38932617Y-71771769D01*
X38930533Y-71768650D01*
X38917083Y-71742088D01*
X38914748Y-71735661D01*
X38914749Y-71735661D01*
X38912083Y-71731262D01*
X38912039Y-71731187D01*
X38845551Y-71621483D01*
X38841258Y-71613797D01*
X38837470Y-71606410D01*
X38770781Y-71476367D01*
X38767819Y-71470171D01*
X38694514Y-71305237D01*
X38692385Y-71300146D01*
X38680197Y-71269066D01*
X38617227Y-71108492D01*
X38615688Y-71104346D01*
X38561041Y-70948599D01*
X38551243Y-70920674D01*
X38544250Y-70879620D01*
X38544250Y-69297769D01*
X38563935Y-69230730D01*
X38580569Y-69210088D01*
X38838838Y-68951819D01*
X38900161Y-68918334D01*
X38926519Y-68915500D01*
X39075500Y-68915500D01*
X39142539Y-68935185D01*
X39188294Y-68987989D01*
X39199500Y-69039500D01*
X39199500Y-76892230D01*
X39179815Y-76959269D01*
X39163181Y-76979911D01*
X38918741Y-77224350D01*
X38895582Y-77241206D01*
X38896100Y-77242012D01*
X38890968Y-77245307D01*
X38594372Y-77479807D01*
X38589488Y-77483477D01*
X38292084Y-77695676D01*
X38286635Y-77699350D01*
X37990782Y-77887619D01*
X37984733Y-77891231D01*
X37690521Y-78055763D01*
X37683846Y-78059235D01*
X37439155Y-78177198D01*
X37385307Y-78189500D01*
X36923997Y-78189500D01*
X36865520Y-78201131D01*
X36865519Y-78201132D01*
X36799197Y-78245447D01*
X36754882Y-78311769D01*
X36754881Y-78311770D01*
X36743250Y-78370247D01*
X36743250Y-80209752D01*
X36754881Y-80268229D01*
X36754882Y-80268230D01*
X36799197Y-80334552D01*
X36865519Y-80378867D01*
X36865520Y-80378868D01*
X36923997Y-80390499D01*
X36924000Y-80390500D01*
X36924002Y-80390500D01*
X38763500Y-80390500D01*
X38763501Y-80390499D01*
X38778318Y-80387552D01*
X38821979Y-80378868D01*
X38821979Y-80378867D01*
X38821981Y-80378867D01*
X38888302Y-80334552D01*
X38932617Y-80268231D01*
X38932617Y-80268229D01*
X38932618Y-80268229D01*
X38944249Y-80209752D01*
X38944250Y-80209750D01*
X38944250Y-79756670D01*
X38959659Y-79696803D01*
X39000489Y-79622743D01*
X39119366Y-79407114D01*
X39121164Y-79403966D01*
X39313908Y-79077719D01*
X39316005Y-79074299D01*
X39507827Y-78772864D01*
X39510321Y-78769099D01*
X39701023Y-78492542D01*
X39703998Y-78488411D01*
X39891794Y-78238837D01*
X39891796Y-78238832D01*
X39894473Y-78234606D01*
X39895292Y-78235124D01*
X39912008Y-78212397D01*
X40444114Y-77680293D01*
X40520775Y-77565561D01*
X40573580Y-77438078D01*
X40600500Y-77302744D01*
X40600500Y-77164756D01*
X40600500Y-76555000D01*
X76019417Y-76555000D01*
X76039699Y-76760932D01*
X76042551Y-76770333D01*
X76099768Y-76958954D01*
X76197315Y-77141450D01*
X76197317Y-77141452D01*
X76328589Y-77301410D01*
X76425209Y-77380702D01*
X76488550Y-77432685D01*
X76671046Y-77530232D01*
X76869066Y-77590300D01*
X76869065Y-77590300D01*
X76887529Y-77592118D01*
X77075000Y-77610583D01*
X77280934Y-77590300D01*
X77478954Y-77530232D01*
X77661450Y-77432685D01*
X77669766Y-77425860D01*
X78563929Y-77425860D01*
X78564890Y-77434758D01*
X78564890Y-77434760D01*
X78564891Y-77434762D01*
X78567267Y-77442336D01*
X78570565Y-77455244D01*
X78571120Y-77458028D01*
X78576133Y-77483233D01*
X78580502Y-77493779D01*
X78586253Y-77505791D01*
X78586517Y-77505679D01*
X78588900Y-77511280D01*
X78588902Y-77511286D01*
X78588903Y-77511287D01*
X78588906Y-77511294D01*
X78649858Y-77622750D01*
X78653295Y-77629519D01*
X78715594Y-77762125D01*
X78718024Y-77767640D01*
X78782516Y-77924268D01*
X78784282Y-77928810D01*
X78850204Y-78108683D01*
X78851524Y-78112473D01*
X78872948Y-78177353D01*
X78906416Y-78278712D01*
X78908247Y-78284255D01*
X78914500Y-78323133D01*
X78914500Y-78946006D01*
X78914500Y-79083994D01*
X78914500Y-79083996D01*
X78914499Y-79083996D01*
X78941418Y-79219322D01*
X78941421Y-79219332D01*
X78994222Y-79346807D01*
X79070887Y-79461545D01*
X80353454Y-80744112D01*
X80468192Y-80820777D01*
X80595667Y-80873578D01*
X80595672Y-80873580D01*
X80595676Y-80873580D01*
X80595677Y-80873581D01*
X80731003Y-80900500D01*
X80731006Y-80900500D01*
X86668996Y-80900500D01*
X86760040Y-80882389D01*
X86804328Y-80873580D01*
X86883826Y-80840651D01*
X86931807Y-80820777D01*
X86931808Y-80820776D01*
X86931811Y-80820775D01*
X87046543Y-80744114D01*
X88544114Y-79246543D01*
X88620775Y-79131811D01*
X88673580Y-79004328D01*
X88700500Y-78868994D01*
X88700500Y-78731006D01*
X88700500Y-78177353D01*
X88704725Y-78145260D01*
X88725500Y-78067727D01*
X88725500Y-78039960D01*
X88734939Y-77992508D01*
X88763204Y-77924268D01*
X88769737Y-77908497D01*
X88798550Y-77763646D01*
X89100000Y-77763646D01*
X89134584Y-77937512D01*
X89134586Y-77937520D01*
X89202428Y-78101307D01*
X89202433Y-78101316D01*
X89300923Y-78248716D01*
X89300926Y-78248720D01*
X89426279Y-78374073D01*
X89426287Y-78374079D01*
X89573688Y-78472569D01*
X89573691Y-78472571D01*
X89699999Y-78524889D01*
X89700000Y-78524889D01*
X90300000Y-78524889D01*
X90426308Y-78472571D01*
X90426311Y-78472569D01*
X90573712Y-78374079D01*
X90573720Y-78374073D01*
X90669081Y-78278712D01*
X97749500Y-78278712D01*
X97749500Y-78521288D01*
X97781162Y-78761789D01*
X97783618Y-78770954D01*
X97843947Y-78996104D01*
X97900159Y-79131811D01*
X97936776Y-79220212D01*
X98058064Y-79430289D01*
X98058066Y-79430292D01*
X98058067Y-79430293D01*
X98205733Y-79622736D01*
X98205739Y-79622743D01*
X98377256Y-79794260D01*
X98377262Y-79794265D01*
X98569711Y-79941936D01*
X98779788Y-80063224D01*
X99003900Y-80156054D01*
X99238211Y-80218838D01*
X99418586Y-80242584D01*
X99478711Y-80250500D01*
X99478712Y-80250500D01*
X99721289Y-80250500D01*
X99769388Y-80244167D01*
X99961789Y-80218838D01*
X100196100Y-80156054D01*
X100420212Y-80063224D01*
X100630289Y-79941936D01*
X100822738Y-79794265D01*
X100994265Y-79622738D01*
X101141936Y-79430289D01*
X101263224Y-79220212D01*
X101356054Y-78996100D01*
X101418838Y-78761789D01*
X101450500Y-78521288D01*
X101450500Y-78278712D01*
X101445124Y-78237880D01*
X101428616Y-78112483D01*
X101418838Y-78038211D01*
X101356054Y-77803900D01*
X101263224Y-77579788D01*
X101141936Y-77369711D01*
X100994265Y-77177262D01*
X100994260Y-77177256D01*
X100822743Y-77005739D01*
X100822736Y-77005733D01*
X100630293Y-76858067D01*
X100630292Y-76858066D01*
X100630289Y-76858064D01*
X100435889Y-76745827D01*
X100420214Y-76736777D01*
X100420205Y-76736773D01*
X100196104Y-76643947D01*
X99961785Y-76581161D01*
X99721289Y-76549500D01*
X99721288Y-76549500D01*
X99478712Y-76549500D01*
X99478711Y-76549500D01*
X99238214Y-76581161D01*
X99003895Y-76643947D01*
X98779794Y-76736773D01*
X98779785Y-76736777D01*
X98569706Y-76858067D01*
X98377263Y-77005733D01*
X98377256Y-77005739D01*
X98205739Y-77177256D01*
X98205733Y-77177263D01*
X98058067Y-77369706D01*
X97936777Y-77579785D01*
X97936773Y-77579794D01*
X97843947Y-77803895D01*
X97781161Y-78038214D01*
X97753879Y-78245447D01*
X97749500Y-78278712D01*
X90669081Y-78278712D01*
X90699073Y-78248720D01*
X90699076Y-78248716D01*
X90797566Y-78101316D01*
X90797571Y-78101307D01*
X90865413Y-77937520D01*
X90865415Y-77937512D01*
X90899999Y-77763646D01*
X90900000Y-77763643D01*
X90900000Y-77700000D01*
X90300000Y-77700000D01*
X90300000Y-78524889D01*
X89700000Y-78524889D01*
X89700000Y-77700000D01*
X89100000Y-77700000D01*
X89100000Y-77763646D01*
X88798550Y-77763646D01*
X88800500Y-77753842D01*
X88800500Y-77350630D01*
X89625000Y-77350630D01*
X89625000Y-77449370D01*
X89650556Y-77544745D01*
X89699925Y-77630255D01*
X89769745Y-77700075D01*
X89855255Y-77749444D01*
X89950630Y-77775000D01*
X90049370Y-77775000D01*
X90144745Y-77749444D01*
X90230255Y-77700075D01*
X90300075Y-77630255D01*
X90349444Y-77544745D01*
X90375000Y-77449370D01*
X90375000Y-77350630D01*
X90349444Y-77255255D01*
X90300075Y-77169745D01*
X90230330Y-77100000D01*
X90300000Y-77100000D01*
X90900000Y-77100000D01*
X90900000Y-77036357D01*
X90899999Y-77036353D01*
X90865415Y-76862487D01*
X90865413Y-76862479D01*
X90797571Y-76698692D01*
X90797566Y-76698683D01*
X90699076Y-76551283D01*
X90699073Y-76551279D01*
X90573720Y-76425926D01*
X90573716Y-76425923D01*
X90426316Y-76327433D01*
X90426306Y-76327428D01*
X90300000Y-76275110D01*
X90300000Y-77100000D01*
X90230330Y-77100000D01*
X90230255Y-77099925D01*
X90144745Y-77050556D01*
X90049370Y-77025000D01*
X89950630Y-77025000D01*
X89855255Y-77050556D01*
X89769745Y-77099925D01*
X89699925Y-77169745D01*
X89650556Y-77255255D01*
X89625000Y-77350630D01*
X88800500Y-77350630D01*
X88800500Y-77046158D01*
X88800500Y-77046155D01*
X88800499Y-77046153D01*
X88798550Y-77036353D01*
X89100000Y-77036353D01*
X89100000Y-77100000D01*
X89700000Y-77100000D01*
X89700000Y-76275110D01*
X89699999Y-76275110D01*
X89573693Y-76327428D01*
X89573683Y-76327433D01*
X89426283Y-76425923D01*
X89426279Y-76425926D01*
X89300926Y-76551279D01*
X89300923Y-76551283D01*
X89202433Y-76698683D01*
X89202428Y-76698692D01*
X89134586Y-76862479D01*
X89134584Y-76862487D01*
X89100000Y-77036353D01*
X88798550Y-77036353D01*
X88769739Y-76891511D01*
X88769736Y-76891501D01*
X88755887Y-76858067D01*
X88734939Y-76807492D01*
X88727522Y-76770206D01*
X88726561Y-76770333D01*
X88725500Y-76762280D01*
X88725500Y-76762273D01*
X88698207Y-76660413D01*
X88645480Y-76569087D01*
X88570913Y-76494520D01*
X88479589Y-76441794D01*
X88479588Y-76441793D01*
X88382127Y-76415679D01*
X88366769Y-76410465D01*
X88233498Y-76355263D01*
X88233488Y-76355260D01*
X88078845Y-76324500D01*
X88078842Y-76324500D01*
X87921158Y-76324500D01*
X87921155Y-76324500D01*
X87766510Y-76355261D01*
X87766498Y-76355264D01*
X87620827Y-76415602D01*
X87620814Y-76415609D01*
X87489711Y-76503210D01*
X87489707Y-76503213D01*
X87378213Y-76614707D01*
X87378210Y-76614711D01*
X87290609Y-76745814D01*
X87290602Y-76745827D01*
X87230264Y-76891498D01*
X87230261Y-76891510D01*
X87199500Y-77046153D01*
X87199500Y-77753846D01*
X87230261Y-77908489D01*
X87230264Y-77908501D01*
X87290061Y-78052864D01*
X87299500Y-78100316D01*
X87299500Y-78458481D01*
X87279815Y-78525520D01*
X87263181Y-78546162D01*
X86346162Y-79463181D01*
X86284839Y-79496666D01*
X86258481Y-79499500D01*
X81141519Y-79499500D01*
X81074480Y-79479815D01*
X81053838Y-79463181D01*
X80351819Y-78761162D01*
X80318334Y-78699839D01*
X80315500Y-78673481D01*
X80315500Y-78323133D01*
X80321752Y-78284256D01*
X80336748Y-78238837D01*
X80378479Y-78112447D01*
X80379769Y-78108743D01*
X80445721Y-77928789D01*
X80447482Y-77924265D01*
X80461084Y-77891231D01*
X80511974Y-77767640D01*
X80514382Y-77762170D01*
X80576725Y-77629467D01*
X80580134Y-77622755D01*
X80641096Y-77511287D01*
X80644816Y-77501848D01*
X80651226Y-77489605D01*
X80653865Y-77483233D01*
X80653867Y-77483231D01*
X80653867Y-77483228D01*
X80654574Y-77481523D01*
X80658744Y-77467338D01*
X80658687Y-77467320D01*
X80659370Y-77465208D01*
X80659695Y-77464103D01*
X80659880Y-77463635D01*
X80661315Y-77458028D01*
X80667402Y-77418710D01*
X80667241Y-77417758D01*
X80665500Y-77397055D01*
X80665500Y-76720730D01*
X83199500Y-76720730D01*
X83199500Y-78079269D01*
X83202353Y-78109699D01*
X83202353Y-78109701D01*
X83246242Y-78235124D01*
X83247207Y-78237882D01*
X83327850Y-78347150D01*
X83437118Y-78427793D01*
X83479845Y-78442744D01*
X83565299Y-78472646D01*
X83595730Y-78475500D01*
X83595734Y-78475500D01*
X84404270Y-78475500D01*
X84434699Y-78472646D01*
X84434701Y-78472646D01*
X84498790Y-78450219D01*
X84562882Y-78427793D01*
X84672150Y-78347150D01*
X84752793Y-78237882D01*
X84785203Y-78145260D01*
X84797646Y-78109701D01*
X84797646Y-78109699D01*
X84800500Y-78079269D01*
X84800500Y-77046153D01*
X85199500Y-77046153D01*
X85199500Y-77753846D01*
X85230261Y-77908489D01*
X85230264Y-77908501D01*
X85290602Y-78054172D01*
X85290609Y-78054185D01*
X85378210Y-78185288D01*
X85378213Y-78185292D01*
X85489707Y-78296786D01*
X85489711Y-78296789D01*
X85620814Y-78384390D01*
X85620827Y-78384397D01*
X85725596Y-78427793D01*
X85766503Y-78444737D01*
X85906423Y-78472569D01*
X85921153Y-78475499D01*
X85921156Y-78475500D01*
X85921158Y-78475500D01*
X86078844Y-78475500D01*
X86078845Y-78475499D01*
X86233497Y-78444737D01*
X86379179Y-78384394D01*
X86510289Y-78296789D01*
X86621789Y-78185289D01*
X86709394Y-78054179D01*
X86769737Y-77908497D01*
X86800500Y-77753842D01*
X86800500Y-77046158D01*
X86800500Y-77046155D01*
X86800499Y-77046153D01*
X86792459Y-77005733D01*
X86769737Y-76891503D01*
X86757715Y-76862479D01*
X86709397Y-76745827D01*
X86709390Y-76745814D01*
X86621789Y-76614711D01*
X86621786Y-76614707D01*
X86510292Y-76503213D01*
X86510288Y-76503210D01*
X86379185Y-76415609D01*
X86379172Y-76415602D01*
X86233501Y-76355264D01*
X86233489Y-76355261D01*
X86078845Y-76324500D01*
X86078842Y-76324500D01*
X85921158Y-76324500D01*
X85921155Y-76324500D01*
X85766510Y-76355261D01*
X85766498Y-76355264D01*
X85620827Y-76415602D01*
X85620814Y-76415609D01*
X85489711Y-76503210D01*
X85489707Y-76503213D01*
X85378213Y-76614707D01*
X85378210Y-76614711D01*
X85290609Y-76745814D01*
X85290602Y-76745827D01*
X85230264Y-76891498D01*
X85230261Y-76891510D01*
X85199500Y-77046153D01*
X84800500Y-77046153D01*
X84800500Y-76720730D01*
X84797646Y-76690300D01*
X84797646Y-76690298D01*
X84759456Y-76581161D01*
X84752793Y-76562118D01*
X84672150Y-76452850D01*
X84562882Y-76372207D01*
X84562880Y-76372206D01*
X84434700Y-76327353D01*
X84404270Y-76324500D01*
X84404266Y-76324500D01*
X83595734Y-76324500D01*
X83595730Y-76324500D01*
X83565300Y-76327353D01*
X83565298Y-76327353D01*
X83437119Y-76372206D01*
X83437117Y-76372207D01*
X83327850Y-76452850D01*
X83247207Y-76562117D01*
X83247206Y-76562119D01*
X83202353Y-76690298D01*
X83202353Y-76690300D01*
X83199500Y-76720730D01*
X80665500Y-76720730D01*
X80665500Y-75685249D01*
X80665499Y-75685247D01*
X80653868Y-75626770D01*
X80653867Y-75626769D01*
X80609552Y-75560447D01*
X80543230Y-75516132D01*
X80543229Y-75516131D01*
X80484752Y-75504500D01*
X80484748Y-75504500D01*
X78745252Y-75504500D01*
X78745247Y-75504500D01*
X78686770Y-75516131D01*
X78686769Y-75516132D01*
X78620447Y-75560447D01*
X78576132Y-75626769D01*
X78576131Y-75626770D01*
X78564500Y-75685247D01*
X78564500Y-77413745D01*
X78563941Y-77423309D01*
X78563929Y-77425860D01*
X77669766Y-77425860D01*
X77821410Y-77301410D01*
X77952685Y-77141450D01*
X78050232Y-76958954D01*
X78110300Y-76760934D01*
X78130583Y-76555000D01*
X78110300Y-76349066D01*
X78050232Y-76151046D01*
X77952685Y-75968550D01*
X77873302Y-75871821D01*
X77821410Y-75808589D01*
X77671121Y-75685252D01*
X77661450Y-75677315D01*
X77478954Y-75579768D01*
X77280934Y-75519700D01*
X77280932Y-75519699D01*
X77280934Y-75519699D01*
X77075000Y-75499417D01*
X76869067Y-75519699D01*
X76671043Y-75579769D01*
X76583114Y-75626769D01*
X76488550Y-75677315D01*
X76488548Y-75677316D01*
X76488547Y-75677317D01*
X76328589Y-75808589D01*
X76197317Y-75968547D01*
X76099769Y-76151043D01*
X76039699Y-76349067D01*
X76019417Y-76555000D01*
X40600500Y-76555000D01*
X40600500Y-74015000D01*
X76019417Y-74015000D01*
X76039699Y-74220932D01*
X76041533Y-74226977D01*
X76099768Y-74418954D01*
X76197315Y-74601450D01*
X76197317Y-74601452D01*
X76328589Y-74761410D01*
X76367169Y-74793071D01*
X76488550Y-74892685D01*
X76671046Y-74990232D01*
X76869066Y-75050300D01*
X76869065Y-75050300D01*
X76887529Y-75052118D01*
X77075000Y-75070583D01*
X77280934Y-75050300D01*
X77478954Y-74990232D01*
X77661450Y-74892685D01*
X77821410Y-74761410D01*
X77952685Y-74601450D01*
X78050232Y-74418954D01*
X78110300Y-74220934D01*
X78130583Y-74015000D01*
X78110300Y-73809066D01*
X78081765Y-73714999D01*
X78504713Y-73714999D01*
X78504714Y-73715000D01*
X79210856Y-73715000D01*
X79149075Y-73822007D01*
X79115000Y-73949174D01*
X79115000Y-74080826D01*
X79149075Y-74207993D01*
X79210856Y-74315000D01*
X78504714Y-74315000D01*
X78538062Y-74432205D01*
X78538067Y-74432218D01*
X78633061Y-74622991D01*
X78761500Y-74793071D01*
X78919000Y-74936651D01*
X78919002Y-74936653D01*
X79100201Y-75048846D01*
X79100207Y-75048849D01*
X79298941Y-75125838D01*
X79315000Y-75128840D01*
X79315000Y-74419144D01*
X79422007Y-74480925D01*
X79549174Y-74515000D01*
X79680826Y-74515000D01*
X79807993Y-74480925D01*
X79915000Y-74419144D01*
X79915000Y-75128839D01*
X79931058Y-75125838D01*
X80129792Y-75048849D01*
X80129798Y-75048846D01*
X80310997Y-74936653D01*
X80310999Y-74936651D01*
X80468499Y-74793071D01*
X80596938Y-74622991D01*
X80691932Y-74432218D01*
X80691937Y-74432205D01*
X80725286Y-74315000D01*
X80019144Y-74315000D01*
X80080925Y-74207993D01*
X80115000Y-74080826D01*
X80115000Y-73949174D01*
X80080925Y-73822007D01*
X80019144Y-73715000D01*
X80725286Y-73715000D01*
X80725286Y-73714999D01*
X80691937Y-73597794D01*
X80691932Y-73597781D01*
X80596938Y-73407008D01*
X80468499Y-73236928D01*
X80318295Y-73099999D01*
X83949713Y-73099999D01*
X83949714Y-73100000D01*
X84655856Y-73100000D01*
X84594075Y-73207007D01*
X84560000Y-73334174D01*
X84560000Y-73465826D01*
X84594075Y-73592993D01*
X84655856Y-73700000D01*
X83949714Y-73700000D01*
X83983062Y-73817205D01*
X83983067Y-73817218D01*
X84078061Y-74007991D01*
X84206500Y-74178071D01*
X84364000Y-74321651D01*
X84364002Y-74321653D01*
X84545201Y-74433846D01*
X84545207Y-74433849D01*
X84743941Y-74510838D01*
X84760000Y-74513840D01*
X84760000Y-73804144D01*
X84867007Y-73865925D01*
X84994174Y-73900000D01*
X85125826Y-73900000D01*
X85252993Y-73865925D01*
X85360000Y-73804144D01*
X85360000Y-74513839D01*
X85376058Y-74510838D01*
X85574792Y-74433849D01*
X85574798Y-74433846D01*
X85755997Y-74321653D01*
X85755999Y-74321651D01*
X85913499Y-74178071D01*
X86041938Y-74007991D01*
X86136932Y-73817218D01*
X86136937Y-73817205D01*
X86170286Y-73700000D01*
X85464144Y-73700000D01*
X85525925Y-73592993D01*
X85560000Y-73465826D01*
X85560000Y-73400000D01*
X86544417Y-73400000D01*
X86564699Y-73605932D01*
X86584058Y-73669750D01*
X86624768Y-73803954D01*
X86722315Y-73986450D01*
X86722317Y-73986452D01*
X86853589Y-74146410D01*
X86944396Y-74220932D01*
X87013550Y-74277685D01*
X87196046Y-74375232D01*
X87394066Y-74435300D01*
X87394065Y-74435300D01*
X87412529Y-74437118D01*
X87600000Y-74455583D01*
X87805934Y-74435300D01*
X88003954Y-74375232D01*
X88186450Y-74277685D01*
X88346410Y-74146410D01*
X88477685Y-73986450D01*
X88575232Y-73803954D01*
X88635300Y-73605934D01*
X88655583Y-73400000D01*
X88635300Y-73194066D01*
X88575232Y-72996046D01*
X88477685Y-72813550D01*
X88396808Y-72715000D01*
X88346410Y-72653589D01*
X88228677Y-72556969D01*
X88186450Y-72522315D01*
X88003954Y-72424768D01*
X87805934Y-72364700D01*
X87805932Y-72364699D01*
X87805934Y-72364699D01*
X87600000Y-72344417D01*
X87394067Y-72364699D01*
X87196043Y-72424769D01*
X87095809Y-72478346D01*
X87013550Y-72522315D01*
X87013548Y-72522316D01*
X87013547Y-72522317D01*
X86853589Y-72653589D01*
X86722317Y-72813547D01*
X86624769Y-72996043D01*
X86564699Y-73194067D01*
X86544417Y-73400000D01*
X85560000Y-73400000D01*
X85560000Y-73334174D01*
X85525925Y-73207007D01*
X85464144Y-73100000D01*
X86170286Y-73100000D01*
X86170286Y-73099999D01*
X86136937Y-72982794D01*
X86136932Y-72982781D01*
X86041938Y-72792008D01*
X85913499Y-72621928D01*
X85755999Y-72478348D01*
X85755997Y-72478346D01*
X85574798Y-72366153D01*
X85574792Y-72366151D01*
X85376060Y-72289162D01*
X85360000Y-72286159D01*
X85360000Y-72995855D01*
X85252993Y-72934075D01*
X85125826Y-72900000D01*
X84994174Y-72900000D01*
X84867007Y-72934075D01*
X84760000Y-72995855D01*
X84760000Y-72286159D01*
X84743939Y-72289162D01*
X84545207Y-72366151D01*
X84545201Y-72366153D01*
X84364002Y-72478346D01*
X84364000Y-72478348D01*
X84206500Y-72621928D01*
X84078061Y-72792008D01*
X83983067Y-72982781D01*
X83983062Y-72982794D01*
X83949713Y-73099999D01*
X80318295Y-73099999D01*
X80310999Y-73093348D01*
X80310997Y-73093346D01*
X80129798Y-72981153D01*
X80129792Y-72981151D01*
X79931060Y-72904162D01*
X79915000Y-72901159D01*
X79915000Y-73610855D01*
X79807993Y-73549075D01*
X79680826Y-73515000D01*
X79549174Y-73515000D01*
X79422007Y-73549075D01*
X79315000Y-73610855D01*
X79315000Y-72901159D01*
X79298939Y-72904162D01*
X79100207Y-72981151D01*
X79100201Y-72981153D01*
X78919002Y-73093346D01*
X78919000Y-73093348D01*
X78761500Y-73236928D01*
X78633061Y-73407008D01*
X78538067Y-73597781D01*
X78538062Y-73597794D01*
X78504713Y-73714999D01*
X78081765Y-73714999D01*
X78050232Y-73611046D01*
X77952685Y-73428550D01*
X77875233Y-73334174D01*
X77821410Y-73268589D01*
X77668154Y-73142817D01*
X77661450Y-73137315D01*
X77478954Y-73039768D01*
X77280934Y-72979700D01*
X77280932Y-72979699D01*
X77280934Y-72979699D01*
X77075000Y-72959417D01*
X76869067Y-72979699D01*
X76671043Y-73039769D01*
X76580424Y-73088207D01*
X76488550Y-73137315D01*
X76488548Y-73137316D01*
X76488547Y-73137317D01*
X76328589Y-73268589D01*
X76197317Y-73428547D01*
X76197315Y-73428550D01*
X76158643Y-73500898D01*
X76099769Y-73611043D01*
X76039699Y-73809067D01*
X76019417Y-74015000D01*
X40600500Y-74015000D01*
X40600500Y-69039500D01*
X40620185Y-68972461D01*
X40672989Y-68926706D01*
X40724500Y-68915500D01*
X41097600Y-68915500D01*
X41164639Y-68935185D01*
X41210394Y-68987989D01*
X41220337Y-69021850D01*
X41223237Y-69042017D01*
X41224500Y-69059667D01*
X41224500Y-69080894D01*
X41231923Y-69108596D01*
X41234885Y-69123037D01*
X41239835Y-69157456D01*
X41239837Y-69157464D01*
X41248069Y-69175489D01*
X41255050Y-69194907D01*
X41258607Y-69208183D01*
X41258610Y-69208190D01*
X41276681Y-69239491D01*
X41282086Y-69249974D01*
X41299623Y-69288373D01*
X41307694Y-69297687D01*
X41321368Y-69316890D01*
X41324497Y-69322310D01*
X41324501Y-69322315D01*
X41355322Y-69353136D01*
X41361354Y-69359615D01*
X41393870Y-69397141D01*
X41393874Y-69397145D01*
X41397928Y-69399750D01*
X41413211Y-69412066D01*
X41417684Y-69415498D01*
X41417686Y-69415500D01*
X41461887Y-69441019D01*
X41466871Y-69444056D01*
X41514947Y-69474953D01*
X41514950Y-69474954D01*
X41514952Y-69474955D01*
X41515994Y-69475431D01*
X41525621Y-69478827D01*
X41531811Y-69481390D01*
X41531814Y-69481392D01*
X41588246Y-69496512D01*
X41588261Y-69496516D01*
X41591098Y-69497312D01*
X41653039Y-69515500D01*
X41796963Y-69515500D01*
X41796963Y-69515499D01*
X41849117Y-69500185D01*
X41858902Y-69497312D01*
X41861681Y-69496531D01*
X41918186Y-69481392D01*
X41918189Y-69481389D01*
X41924367Y-69478832D01*
X41933996Y-69475434D01*
X41935045Y-69474955D01*
X41935053Y-69474953D01*
X41983087Y-69444082D01*
X41988102Y-69441025D01*
X42032314Y-69415500D01*
X42032321Y-69415492D01*
X42036828Y-69412035D01*
X42052067Y-69399752D01*
X42056128Y-69397143D01*
X42088653Y-69359605D01*
X42094673Y-69353140D01*
X42100292Y-69347521D01*
X42125500Y-69322314D01*
X42128628Y-69316894D01*
X42142306Y-69297687D01*
X42150377Y-69288373D01*
X42167912Y-69249974D01*
X42173311Y-69239502D01*
X42191392Y-69208186D01*
X42194952Y-69194898D01*
X42201934Y-69175479D01*
X42210164Y-69157459D01*
X42210163Y-69157459D01*
X42210165Y-69157457D01*
X42215111Y-69123053D01*
X42218074Y-69108606D01*
X42220658Y-69098963D01*
X42225500Y-69080892D01*
X42225500Y-69059667D01*
X42226763Y-69042017D01*
X42229663Y-69021850D01*
X42258689Y-68958295D01*
X42317468Y-68920522D01*
X42352400Y-68915500D01*
X44103996Y-68915500D01*
X44195040Y-68897389D01*
X44239328Y-68888580D01*
X44303069Y-68862177D01*
X44366807Y-68835777D01*
X44366808Y-68835776D01*
X44366811Y-68835775D01*
X44481543Y-68759114D01*
X47028740Y-66211915D01*
X47090063Y-66178431D01*
X47159755Y-66183415D01*
X47204102Y-66211916D01*
X47388181Y-66395995D01*
X47421666Y-66457318D01*
X47424500Y-66483676D01*
X47424500Y-66570331D01*
X47423238Y-66587977D01*
X47419353Y-66614999D01*
X47423238Y-66642020D01*
X47424500Y-66659667D01*
X47424500Y-66680894D01*
X47431923Y-66708596D01*
X47434885Y-66723037D01*
X47439835Y-66757456D01*
X47439837Y-66757464D01*
X47448069Y-66775489D01*
X47455050Y-66794907D01*
X47458607Y-66808183D01*
X47458610Y-66808190D01*
X47476681Y-66839491D01*
X47482086Y-66849974D01*
X47499623Y-66888373D01*
X47507694Y-66897687D01*
X47521368Y-66916890D01*
X47524497Y-66922310D01*
X47524501Y-66922315D01*
X47555322Y-66953136D01*
X47561354Y-66959615D01*
X47593870Y-66997141D01*
X47593874Y-66997145D01*
X47597928Y-66999750D01*
X47613211Y-67012066D01*
X47617684Y-67015498D01*
X47617686Y-67015500D01*
X47661887Y-67041019D01*
X47666871Y-67044056D01*
X47714947Y-67074953D01*
X47714950Y-67074954D01*
X47714952Y-67074955D01*
X47715994Y-67075431D01*
X47725621Y-67078827D01*
X47731811Y-67081390D01*
X47731814Y-67081392D01*
X47788261Y-67096516D01*
X47791098Y-67097312D01*
X47853039Y-67115500D01*
X47859108Y-67115500D01*
X47990892Y-67115500D01*
X52053039Y-67115500D01*
X52059108Y-67115500D01*
X54866324Y-67115500D01*
X54933363Y-67135185D01*
X54954005Y-67151819D01*
X55800215Y-67998029D01*
X55833700Y-68059352D01*
X55828716Y-68129044D01*
X55800215Y-68173391D01*
X51695426Y-72278181D01*
X51634103Y-72311666D01*
X51607745Y-72314500D01*
X51572844Y-72314500D01*
X51544519Y-72310044D01*
X51544320Y-72310963D01*
X51538364Y-72309669D01*
X51356414Y-72288529D01*
X51333661Y-72283689D01*
X51210617Y-72245148D01*
X51210613Y-72245147D01*
X51192035Y-72240269D01*
X51189900Y-72239814D01*
X51170792Y-72236674D01*
X51170763Y-72236669D01*
X51081687Y-72226321D01*
X51018591Y-72218990D01*
X50997973Y-72214797D01*
X50996962Y-72214500D01*
X50996961Y-72214500D01*
X50987117Y-72214500D01*
X50972807Y-72213671D01*
X50961748Y-72212386D01*
X50961739Y-72212385D01*
X50961720Y-72212383D01*
X50953828Y-72211693D01*
X50950074Y-72211365D01*
X50949089Y-72211307D01*
X50948762Y-72211288D01*
X50948761Y-72211288D01*
X50943939Y-72212092D01*
X50939636Y-72212810D01*
X50919236Y-72214500D01*
X50853036Y-72214500D01*
X50714949Y-72255045D01*
X50593873Y-72332856D01*
X50499623Y-72441626D01*
X50499622Y-72441628D01*
X50439834Y-72572543D01*
X50419353Y-72715000D01*
X50439834Y-72857456D01*
X50486399Y-72959417D01*
X50499623Y-72988373D01*
X50593872Y-73097143D01*
X50714947Y-73174953D01*
X50714950Y-73174954D01*
X50714949Y-73174954D01*
X50780044Y-73194067D01*
X50852027Y-73215203D01*
X50853036Y-73215499D01*
X50853038Y-73215500D01*
X50853039Y-73215500D01*
X50930555Y-73215500D01*
X50940547Y-73215902D01*
X50961722Y-73217615D01*
X50972791Y-73216328D01*
X50987101Y-73215500D01*
X50996957Y-73215500D01*
X50996961Y-73215500D01*
X50997979Y-73215200D01*
X51018597Y-73211006D01*
X51170763Y-73193328D01*
X51189830Y-73190198D01*
X51191977Y-73189741D01*
X51210620Y-73184849D01*
X51333661Y-73146307D01*
X51356412Y-73141469D01*
X51538367Y-73120329D01*
X51543462Y-73119300D01*
X51543532Y-73119647D01*
X51572637Y-73115500D01*
X51877725Y-73115500D01*
X51877727Y-73115500D01*
X51979588Y-73088207D01*
X52070913Y-73035480D01*
X56366608Y-68739783D01*
X56427931Y-68706299D01*
X56497623Y-68711283D01*
X56541970Y-68739784D01*
X57955322Y-70153136D01*
X57961354Y-70159615D01*
X57993870Y-70197141D01*
X57993874Y-70197145D01*
X57997928Y-70199750D01*
X58013205Y-70212061D01*
X58017688Y-70215501D01*
X58035847Y-70225984D01*
X58061868Y-70241008D01*
X58066899Y-70244074D01*
X58114947Y-70274953D01*
X58114950Y-70274954D01*
X58115991Y-70275429D01*
X58125637Y-70278832D01*
X58131807Y-70281388D01*
X58131814Y-70281392D01*
X58188308Y-70296529D01*
X58191112Y-70297316D01*
X58215161Y-70304378D01*
X58253038Y-70315500D01*
X58253039Y-70315500D01*
X58396963Y-70315500D01*
X58396963Y-70315499D01*
X58435226Y-70304263D01*
X58458902Y-70297312D01*
X58461660Y-70296536D01*
X58518186Y-70281392D01*
X58518188Y-70281391D01*
X58524350Y-70278838D01*
X58534005Y-70275431D01*
X58535047Y-70274954D01*
X58535053Y-70274953D01*
X58583112Y-70244066D01*
X58588141Y-70241002D01*
X58604476Y-70231571D01*
X58632314Y-70215499D01*
X58632317Y-70215495D01*
X58636813Y-70212046D01*
X58652069Y-70199750D01*
X58656128Y-70197143D01*
X58688659Y-70159597D01*
X58694665Y-70153146D01*
X58725499Y-70122314D01*
X58728624Y-70116899D01*
X58742301Y-70097692D01*
X58750377Y-70088373D01*
X58767913Y-70049972D01*
X58773318Y-70039489D01*
X58791392Y-70008186D01*
X58794952Y-69994898D01*
X58801934Y-69975479D01*
X58810164Y-69957459D01*
X58810163Y-69957459D01*
X58810165Y-69957457D01*
X58815111Y-69923053D01*
X58818074Y-69908606D01*
X58824461Y-69884768D01*
X58825500Y-69880892D01*
X58825500Y-69859667D01*
X58826762Y-69842020D01*
X58830647Y-69814999D01*
X58826762Y-69787977D01*
X58825500Y-69770331D01*
X58825500Y-69749109D01*
X58825500Y-69749107D01*
X58818071Y-69721382D01*
X58815111Y-69706946D01*
X58810165Y-69672545D01*
X58810165Y-69672543D01*
X58801928Y-69654509D01*
X58794949Y-69635091D01*
X58791391Y-69621810D01*
X58773319Y-69590510D01*
X58767911Y-69580020D01*
X58750380Y-69541633D01*
X58750377Y-69541628D01*
X58750377Y-69541627D01*
X58742303Y-69532310D01*
X58728627Y-69513103D01*
X58725498Y-69507684D01*
X58694677Y-69476863D01*
X58688659Y-69470401D01*
X58656128Y-69432857D01*
X58656125Y-69432854D01*
X58652066Y-69430246D01*
X58631428Y-69413614D01*
X56132814Y-66915000D01*
X60269417Y-66915000D01*
X60289699Y-67120932D01*
X60349766Y-67318948D01*
X60349768Y-67318954D01*
X60355232Y-67329177D01*
X60361409Y-67342605D01*
X60362158Y-67344528D01*
X60362159Y-67344531D01*
X60526743Y-67668861D01*
X60533323Y-67680824D01*
X60533332Y-67680840D01*
X60534122Y-67682170D01*
X60541568Y-67693795D01*
X60698184Y-67921139D01*
X60699533Y-67923139D01*
X60767976Y-68026751D01*
X60767977Y-68026752D01*
X60808881Y-68088675D01*
X60821729Y-68114040D01*
X60883749Y-68281879D01*
X60890915Y-68313507D01*
X60919385Y-68623180D01*
X60920166Y-68626056D01*
X60924500Y-68658553D01*
X60924500Y-70367726D01*
X60951793Y-70469589D01*
X60969218Y-70499769D01*
X61004520Y-70560913D01*
X61288346Y-70844738D01*
X61305018Y-70865442D01*
X61306223Y-70867318D01*
X61315354Y-70881547D01*
X61334994Y-70948599D01*
X61334333Y-70961302D01*
X61332031Y-70983510D01*
X61332031Y-70983512D01*
X61321931Y-71080927D01*
X61321118Y-71091337D01*
X61320697Y-71099364D01*
X61320276Y-71099341D01*
X61319721Y-71112439D01*
X61319353Y-71115000D01*
X61339834Y-71257456D01*
X61361660Y-71305247D01*
X61399623Y-71388373D01*
X61493872Y-71497143D01*
X61614947Y-71574953D01*
X61614950Y-71574954D01*
X61614949Y-71574954D01*
X61753036Y-71615499D01*
X61753038Y-71615500D01*
X61753039Y-71615500D01*
X61896962Y-71615500D01*
X61896962Y-71615499D01*
X62035053Y-71574953D01*
X62156128Y-71497143D01*
X62250377Y-71388373D01*
X62310165Y-71257457D01*
X62330647Y-71115000D01*
X62310165Y-70972543D01*
X62296970Y-70943650D01*
X62288416Y-70917648D01*
X62286526Y-70908655D01*
X62231441Y-70779642D01*
X62225706Y-70763041D01*
X62217618Y-70732856D01*
X62217618Y-70732857D01*
X62198207Y-70660412D01*
X62158893Y-70592319D01*
X62145480Y-70569087D01*
X62070913Y-70494520D01*
X62070912Y-70494519D01*
X62066582Y-70490189D01*
X62066571Y-70490179D01*
X62009362Y-70432970D01*
X62006578Y-70430095D01*
X61912478Y-70329716D01*
X61911725Y-70328927D01*
X61910026Y-70327145D01*
X61909762Y-70326874D01*
X61909763Y-70326874D01*
X61899231Y-70319722D01*
X61881216Y-70304823D01*
X61761819Y-70185426D01*
X61728334Y-70124103D01*
X61725500Y-70097745D01*
X61725500Y-69815000D01*
X74119353Y-69815000D01*
X74139834Y-69957456D01*
X74199622Y-70088371D01*
X74199623Y-70088373D01*
X74293872Y-70197143D01*
X74414947Y-70274953D01*
X74414950Y-70274954D01*
X74414949Y-70274954D01*
X74515164Y-70304379D01*
X74544957Y-70313127D01*
X74553036Y-70315499D01*
X74553038Y-70315500D01*
X74553039Y-70315500D01*
X74615281Y-70315500D01*
X74630999Y-70316500D01*
X74635444Y-70317067D01*
X74651681Y-70319143D01*
X74788251Y-70309674D01*
X74804838Y-70307845D01*
X74806718Y-70307560D01*
X74823154Y-70304378D01*
X74926749Y-70279910D01*
X74935399Y-70277668D01*
X74936365Y-70277395D01*
X74944676Y-70274855D01*
X75020772Y-70249829D01*
X75030984Y-70246949D01*
X75096108Y-70231569D01*
X75116016Y-70228549D01*
X75216703Y-70221568D01*
X75228323Y-70220763D01*
X75234087Y-70219302D01*
X75264557Y-70215500D01*
X76772213Y-70215500D01*
X76839252Y-70235185D01*
X76885007Y-70287989D01*
X76894951Y-70357147D01*
X76865926Y-70420703D01*
X76808208Y-70458160D01*
X76770534Y-70469589D01*
X76671043Y-70499769D01*
X76560898Y-70558643D01*
X76488550Y-70597315D01*
X76488548Y-70597316D01*
X76488547Y-70597317D01*
X76328589Y-70728589D01*
X76197917Y-70887816D01*
X76197315Y-70888550D01*
X76190797Y-70900744D01*
X76099769Y-71071043D01*
X76099768Y-71071045D01*
X76099768Y-71071046D01*
X76093615Y-71091331D01*
X76039699Y-71269067D01*
X76019417Y-71475000D01*
X76039699Y-71680932D01*
X76061257Y-71751999D01*
X76099768Y-71878954D01*
X76197315Y-72061450D01*
X76197317Y-72061452D01*
X76328589Y-72221410D01*
X76425209Y-72300702D01*
X76488550Y-72352685D01*
X76671046Y-72450232D01*
X76869066Y-72510300D01*
X76869065Y-72510300D01*
X76887529Y-72512118D01*
X77075000Y-72530583D01*
X77280934Y-72510300D01*
X77478954Y-72450232D01*
X77661450Y-72352685D01*
X77821410Y-72221410D01*
X77952685Y-72061450D01*
X78050232Y-71878954D01*
X78110300Y-71680934D01*
X78130583Y-71475000D01*
X78110300Y-71269066D01*
X78050232Y-71071046D01*
X77952685Y-70888550D01*
X77858215Y-70773437D01*
X77821410Y-70728589D01*
X77661452Y-70597317D01*
X77661453Y-70597317D01*
X77661450Y-70597315D01*
X77478954Y-70499768D01*
X77341791Y-70458160D01*
X77283353Y-70419863D01*
X77254897Y-70356051D01*
X77265457Y-70286984D01*
X77311681Y-70234590D01*
X77377787Y-70215500D01*
X79312213Y-70215500D01*
X79379252Y-70235185D01*
X79425007Y-70287989D01*
X79434951Y-70357147D01*
X79405926Y-70420703D01*
X79348208Y-70458160D01*
X79310534Y-70469589D01*
X79211043Y-70499769D01*
X79100898Y-70558643D01*
X79028550Y-70597315D01*
X79028548Y-70597316D01*
X79028547Y-70597317D01*
X78868589Y-70728589D01*
X78737917Y-70887816D01*
X78737315Y-70888550D01*
X78730797Y-70900744D01*
X78639769Y-71071043D01*
X78639768Y-71071045D01*
X78639768Y-71071046D01*
X78633615Y-71091331D01*
X78579699Y-71269067D01*
X78559417Y-71475000D01*
X78579699Y-71680932D01*
X78601257Y-71751999D01*
X78639768Y-71878954D01*
X78737315Y-72061450D01*
X78737317Y-72061452D01*
X78868589Y-72221410D01*
X78965209Y-72300702D01*
X79028550Y-72352685D01*
X79211046Y-72450232D01*
X79409066Y-72510300D01*
X79409065Y-72510300D01*
X79427529Y-72512118D01*
X79615000Y-72530583D01*
X79820934Y-72510300D01*
X80018954Y-72450232D01*
X80201450Y-72352685D01*
X80361410Y-72221410D01*
X80492685Y-72061450D01*
X80590232Y-71878954D01*
X80650300Y-71680934D01*
X80670583Y-71475000D01*
X80650300Y-71269066D01*
X80590232Y-71071046D01*
X80492685Y-70888550D01*
X80398215Y-70773437D01*
X80361410Y-70728589D01*
X80201452Y-70597317D01*
X80201453Y-70597317D01*
X80201450Y-70597315D01*
X80018954Y-70499768D01*
X79881791Y-70458160D01*
X79823353Y-70419863D01*
X79794897Y-70356051D01*
X79805457Y-70286984D01*
X79851681Y-70234590D01*
X79917787Y-70215500D01*
X83732820Y-70215500D01*
X83762100Y-70219006D01*
X83847873Y-70239851D01*
X83906270Y-70272663D01*
X83931674Y-70298067D01*
X83965159Y-70359390D01*
X83967744Y-70377897D01*
X83977289Y-70528356D01*
X83977481Y-70532459D01*
X83986904Y-70844068D01*
X83986906Y-70844111D01*
X83988603Y-70864949D01*
X83988607Y-70864983D01*
X83988916Y-70867310D01*
X83988917Y-70867318D01*
X83992703Y-70887790D01*
X83992708Y-70887816D01*
X84003378Y-70932676D01*
X84003381Y-70932685D01*
X84015420Y-70983299D01*
X84018189Y-70999837D01*
X84024700Y-71065934D01*
X84075182Y-71232356D01*
X84075913Y-71234859D01*
X84076015Y-71235226D01*
X84076269Y-71236008D01*
X84076927Y-71238106D01*
X84082797Y-71257456D01*
X84084769Y-71263957D01*
X84105484Y-71302711D01*
X84182315Y-71446450D01*
X84216969Y-71488677D01*
X84313589Y-71606410D01*
X84331966Y-71621491D01*
X84473550Y-71737685D01*
X84656046Y-71835232D01*
X84854066Y-71895300D01*
X84854065Y-71895300D01*
X84872529Y-71897118D01*
X85060000Y-71915583D01*
X85265934Y-71895300D01*
X85463954Y-71835232D01*
X85646450Y-71737685D01*
X85806410Y-71606410D01*
X85937685Y-71446450D01*
X86035232Y-71263954D01*
X86095300Y-71065934D01*
X86115583Y-70860000D01*
X86107057Y-70773436D01*
X86120076Y-70704791D01*
X86168141Y-70654081D01*
X86235991Y-70637406D01*
X86302086Y-70660062D01*
X86345440Y-70714854D01*
X86345593Y-70715236D01*
X86405474Y-70864983D01*
X86408668Y-70872969D01*
X86410129Y-70876807D01*
X86493226Y-71106435D01*
X86542100Y-71241491D01*
X86549500Y-71283686D01*
X86549500Y-71729752D01*
X86561131Y-71788229D01*
X86561132Y-71788230D01*
X86605447Y-71854552D01*
X86671769Y-71898867D01*
X86671770Y-71898868D01*
X86730247Y-71910499D01*
X86730250Y-71910500D01*
X86730252Y-71910500D01*
X88469750Y-71910500D01*
X88469751Y-71910499D01*
X88484568Y-71907552D01*
X88528229Y-71898868D01*
X88528229Y-71898867D01*
X88528231Y-71898867D01*
X88594552Y-71854552D01*
X88638867Y-71788231D01*
X88638867Y-71788229D01*
X88638868Y-71788229D01*
X88649324Y-71735658D01*
X88650500Y-71729748D01*
X88650500Y-69990252D01*
X88650500Y-69990249D01*
X88650499Y-69990247D01*
X88638868Y-69931770D01*
X88638867Y-69931769D01*
X88594552Y-69865447D01*
X88528230Y-69821132D01*
X88528229Y-69821131D01*
X88469752Y-69809500D01*
X88469748Y-69809500D01*
X88010222Y-69809500D01*
X87984493Y-69806801D01*
X87680003Y-69742216D01*
X87666931Y-69738688D01*
X87367667Y-69640093D01*
X87355883Y-69635533D01*
X87052963Y-69500185D01*
X87042620Y-69494971D01*
X86735827Y-69321892D01*
X86726923Y-69316360D01*
X86718276Y-69310467D01*
X86414119Y-69103182D01*
X86414116Y-69103180D01*
X86410287Y-69100571D01*
X86410719Y-69099936D01*
X86391822Y-69085429D01*
X85500915Y-68194522D01*
X85500913Y-68194520D01*
X85455250Y-68168156D01*
X85409589Y-68141793D01*
X85358657Y-68128146D01*
X85307727Y-68114500D01*
X85307726Y-68114500D01*
X75764240Y-68114500D01*
X75731694Y-68110153D01*
X75728323Y-68109236D01*
X75728321Y-68109235D01*
X75728318Y-68109235D01*
X75616027Y-68101450D01*
X75596102Y-68098427D01*
X75530991Y-68083049D01*
X75520756Y-68080163D01*
X75444681Y-68055145D01*
X75436379Y-68052608D01*
X75435400Y-68052331D01*
X75426731Y-68050083D01*
X75416019Y-68047552D01*
X75416019Y-68047553D01*
X75415985Y-68047545D01*
X75415885Y-68047521D01*
X75323148Y-68025619D01*
X75306681Y-68022432D01*
X75304855Y-68022155D01*
X75288253Y-68020325D01*
X75151690Y-68010856D01*
X75144755Y-68010492D01*
X75144033Y-68010466D01*
X75144031Y-68010467D01*
X75132279Y-68012567D01*
X75110468Y-68014500D01*
X75053036Y-68014500D01*
X74914949Y-68055045D01*
X74793873Y-68132856D01*
X74699623Y-68241626D01*
X74699622Y-68241628D01*
X74639834Y-68372543D01*
X74619353Y-68515000D01*
X74639834Y-68657456D01*
X74677433Y-68739784D01*
X74699623Y-68788373D01*
X74793872Y-68897143D01*
X74914947Y-68974953D01*
X74914950Y-68974954D01*
X74914949Y-68974954D01*
X75015164Y-69004379D01*
X75051336Y-69015000D01*
X75053036Y-69015499D01*
X75053038Y-69015500D01*
X75053039Y-69015500D01*
X75115281Y-69015500D01*
X75130999Y-69016500D01*
X75135444Y-69017067D01*
X75151681Y-69019143D01*
X75288251Y-69009674D01*
X75304838Y-69007845D01*
X75306718Y-69007560D01*
X75323154Y-69004378D01*
X75426749Y-68979910D01*
X75435399Y-68977668D01*
X75436365Y-68977395D01*
X75444676Y-68974855D01*
X75520772Y-68949829D01*
X75530984Y-68946949D01*
X75596108Y-68931569D01*
X75616016Y-68928549D01*
X75716703Y-68921568D01*
X75728323Y-68920763D01*
X75734087Y-68919302D01*
X75764557Y-68915500D01*
X85037745Y-68915500D01*
X85104784Y-68935185D01*
X85125426Y-68951819D01*
X85822208Y-69648601D01*
X85841612Y-69673762D01*
X85973582Y-69899804D01*
X85977127Y-69906315D01*
X85985484Y-69922822D01*
X85985487Y-69922829D01*
X86015468Y-69982057D01*
X86028183Y-70050760D01*
X86001735Y-70115431D01*
X85944522Y-70155536D01*
X85874709Y-70158344D01*
X85814461Y-70122962D01*
X85808988Y-70116732D01*
X85806410Y-70113590D01*
X85806408Y-70113588D01*
X85806407Y-70113587D01*
X85710434Y-70034825D01*
X85646450Y-69982315D01*
X85492084Y-69899804D01*
X85463760Y-69884664D01*
X85462169Y-69883980D01*
X85340092Y-69829507D01*
X85092438Y-69718998D01*
X85089843Y-69717804D01*
X84821159Y-69590412D01*
X84813138Y-69586817D01*
X84812239Y-69586437D01*
X84804150Y-69583215D01*
X84752532Y-69563914D01*
X84752531Y-69563913D01*
X84563815Y-69493348D01*
X84546704Y-69487792D01*
X84544739Y-69487247D01*
X84527192Y-69483205D01*
X84241309Y-69430426D01*
X84227037Y-69428306D01*
X84225400Y-69428122D01*
X84211063Y-69427012D01*
X84196125Y-69426379D01*
X84109950Y-69422732D01*
X84083107Y-69418620D01*
X84067729Y-69414500D01*
X84067727Y-69414500D01*
X83917995Y-69414500D01*
X83912753Y-69414389D01*
X83908919Y-69414226D01*
X83813734Y-69410199D01*
X83811243Y-69410123D01*
X83808713Y-69410046D01*
X83808302Y-69410039D01*
X83808293Y-69410040D01*
X83796191Y-69412333D01*
X83773111Y-69414500D01*
X75264240Y-69414500D01*
X75231694Y-69410153D01*
X75231301Y-69410046D01*
X75228323Y-69409236D01*
X75228321Y-69409235D01*
X75228318Y-69409235D01*
X75116027Y-69401450D01*
X75096102Y-69398427D01*
X75030991Y-69383049D01*
X75020756Y-69380163D01*
X74944681Y-69355145D01*
X74936379Y-69352608D01*
X74935400Y-69352331D01*
X74926731Y-69350083D01*
X74916019Y-69347552D01*
X74916019Y-69347553D01*
X74915985Y-69347545D01*
X74915885Y-69347521D01*
X74823148Y-69325619D01*
X74806681Y-69322432D01*
X74804855Y-69322155D01*
X74788253Y-69320325D01*
X74651690Y-69310856D01*
X74644755Y-69310492D01*
X74644033Y-69310466D01*
X74644031Y-69310467D01*
X74632279Y-69312567D01*
X74610468Y-69314500D01*
X74553036Y-69314500D01*
X74414949Y-69355045D01*
X74293873Y-69432856D01*
X74199623Y-69541626D01*
X74199622Y-69541628D01*
X74139834Y-69672543D01*
X74119353Y-69815000D01*
X61725500Y-69815000D01*
X61725500Y-68658427D01*
X61729736Y-68629219D01*
X61729464Y-68629167D01*
X61730607Y-68623217D01*
X61730610Y-68623198D01*
X61730612Y-68623189D01*
X61730614Y-68623183D01*
X61759082Y-68313503D01*
X61766245Y-68281885D01*
X61828269Y-68114036D01*
X61841116Y-68088675D01*
X61843075Y-68085710D01*
X61950471Y-67923124D01*
X61951737Y-67921246D01*
X62108432Y-67693793D01*
X62115868Y-67682183D01*
X62116666Y-67680840D01*
X62123255Y-67668862D01*
X62287840Y-67344532D01*
X62291171Y-67337653D01*
X62291543Y-67336847D01*
X62291544Y-67336841D01*
X62294353Y-67330758D01*
X62294632Y-67330887D01*
X62297910Y-67323298D01*
X62298389Y-67322401D01*
X62300232Y-67318954D01*
X62360300Y-67120934D01*
X62380583Y-66915000D01*
X62809417Y-66915000D01*
X62829699Y-67120932D01*
X62853836Y-67200500D01*
X62889768Y-67318954D01*
X62987315Y-67501450D01*
X62987317Y-67501452D01*
X63118589Y-67661410D01*
X63158051Y-67693795D01*
X63278550Y-67792685D01*
X63461046Y-67890232D01*
X63659066Y-67950300D01*
X63659065Y-67950300D01*
X63677529Y-67952118D01*
X63865000Y-67970583D01*
X64070934Y-67950300D01*
X64268954Y-67890232D01*
X64451450Y-67792685D01*
X64611410Y-67661410D01*
X64742685Y-67501450D01*
X64840232Y-67318954D01*
X64900300Y-67120934D01*
X64920583Y-66915000D01*
X64900300Y-66709066D01*
X64840232Y-66511046D01*
X64834328Y-66500000D01*
X76894355Y-66500000D01*
X76914859Y-66668869D01*
X76914860Y-66668874D01*
X76975182Y-66827931D01*
X77016903Y-66888373D01*
X77071817Y-66967929D01*
X77177505Y-67061560D01*
X77199150Y-67080736D01*
X77349773Y-67159789D01*
X77349775Y-67159790D01*
X77514944Y-67200500D01*
X77685056Y-67200500D01*
X77850225Y-67159790D01*
X78000852Y-67080734D01*
X78056218Y-67031683D01*
X78119451Y-67001963D01*
X78138445Y-67000500D01*
X82765890Y-67000500D01*
X82765892Y-67000500D01*
X82893186Y-66966392D01*
X83007314Y-66900500D01*
X90300500Y-59607314D01*
X90366392Y-59493186D01*
X90400500Y-59365892D01*
X90400500Y-59234107D01*
X90400500Y-53480247D01*
X91099500Y-53480247D01*
X91099500Y-55319752D01*
X91111131Y-55378229D01*
X91111132Y-55378230D01*
X91155447Y-55444552D01*
X91221769Y-55488867D01*
X91221770Y-55488868D01*
X91280247Y-55500499D01*
X91280250Y-55500500D01*
X91280252Y-55500500D01*
X93119750Y-55500500D01*
X93119751Y-55500499D01*
X93134568Y-55497552D01*
X93178229Y-55488868D01*
X93178229Y-55488867D01*
X93178231Y-55488867D01*
X93244552Y-55444552D01*
X93288867Y-55378231D01*
X93288867Y-55378229D01*
X93288868Y-55378229D01*
X93298480Y-55329903D01*
X93300500Y-55319748D01*
X93300500Y-53480252D01*
X93300500Y-53480249D01*
X93300499Y-53480247D01*
X93288868Y-53421770D01*
X93288867Y-53421769D01*
X93244552Y-53355447D01*
X93178230Y-53311132D01*
X93178229Y-53311131D01*
X93119752Y-53299500D01*
X93119748Y-53299500D01*
X91280252Y-53299500D01*
X91280247Y-53299500D01*
X91221770Y-53311131D01*
X91221769Y-53311132D01*
X91155447Y-53355447D01*
X91111132Y-53421769D01*
X91111131Y-53421770D01*
X91099500Y-53480247D01*
X90400500Y-53480247D01*
X90400500Y-51859999D01*
X91094785Y-51859999D01*
X91094785Y-51860000D01*
X91113602Y-52063082D01*
X91169417Y-52259247D01*
X91169422Y-52259260D01*
X91260327Y-52441821D01*
X91383237Y-52604581D01*
X91533958Y-52741980D01*
X91533960Y-52741982D01*
X91574067Y-52766815D01*
X91707363Y-52849348D01*
X91897544Y-52923024D01*
X92098024Y-52960500D01*
X92098026Y-52960500D01*
X92301974Y-52960500D01*
X92301976Y-52960500D01*
X92502456Y-52923024D01*
X92692637Y-52849348D01*
X92866041Y-52741981D01*
X93016764Y-52604579D01*
X93139673Y-52441821D01*
X93230582Y-52259250D01*
X93286397Y-52063083D01*
X93305215Y-51860000D01*
X93286397Y-51656917D01*
X93230582Y-51460750D01*
X93139673Y-51278179D01*
X93042877Y-51150000D01*
X93016762Y-51115418D01*
X92866041Y-50978019D01*
X92866039Y-50978017D01*
X92692642Y-50870655D01*
X92692635Y-50870651D01*
X92597546Y-50833814D01*
X92502456Y-50796976D01*
X92301976Y-50759500D01*
X92098024Y-50759500D01*
X91897544Y-50796976D01*
X91897541Y-50796976D01*
X91897541Y-50796977D01*
X91707364Y-50870651D01*
X91707357Y-50870655D01*
X91533960Y-50978017D01*
X91533958Y-50978019D01*
X91383237Y-51115418D01*
X91260327Y-51278178D01*
X91169422Y-51460739D01*
X91169417Y-51460752D01*
X91113602Y-51656917D01*
X91094785Y-51859999D01*
X90400500Y-51859999D01*
X90400500Y-47534108D01*
X90366392Y-47406814D01*
X90300500Y-47292686D01*
X90207314Y-47199500D01*
X87136819Y-44129005D01*
X87103334Y-44067682D01*
X87100500Y-44041324D01*
X87100500Y-43278711D01*
X97749500Y-43278711D01*
X97749500Y-43521288D01*
X97781161Y-43761785D01*
X97843947Y-43996104D01*
X97885626Y-44096725D01*
X97936776Y-44220212D01*
X98058064Y-44430289D01*
X98058066Y-44430292D01*
X98058067Y-44430293D01*
X98205733Y-44622736D01*
X98205739Y-44622743D01*
X98377256Y-44794260D01*
X98377262Y-44794265D01*
X98569711Y-44941936D01*
X98779788Y-45063224D01*
X99003900Y-45156054D01*
X99238211Y-45218838D01*
X99418586Y-45242584D01*
X99478711Y-45250500D01*
X99478712Y-45250500D01*
X99721289Y-45250500D01*
X99769388Y-45244167D01*
X99961789Y-45218838D01*
X100196100Y-45156054D01*
X100420212Y-45063224D01*
X100630289Y-44941936D01*
X100822738Y-44794265D01*
X100994265Y-44622738D01*
X101141936Y-44430289D01*
X101263224Y-44220212D01*
X101356054Y-43996100D01*
X101418838Y-43761789D01*
X101450500Y-43521288D01*
X101450500Y-43278712D01*
X101418838Y-43038211D01*
X101356054Y-42803900D01*
X101263224Y-42579788D01*
X101141936Y-42369711D01*
X100994265Y-42177262D01*
X100994260Y-42177256D01*
X100822743Y-42005739D01*
X100822736Y-42005733D01*
X100630293Y-41858067D01*
X100630292Y-41858066D01*
X100630289Y-41858064D01*
X100420212Y-41736776D01*
X100419910Y-41736651D01*
X100196104Y-41643947D01*
X100078944Y-41612554D01*
X99961789Y-41581162D01*
X99961788Y-41581161D01*
X99961785Y-41581161D01*
X99721289Y-41549500D01*
X99721288Y-41549500D01*
X99478712Y-41549500D01*
X99478711Y-41549500D01*
X99238214Y-41581161D01*
X99003895Y-41643947D01*
X98779794Y-41736773D01*
X98779785Y-41736777D01*
X98569706Y-41858067D01*
X98377263Y-42005733D01*
X98377256Y-42005739D01*
X98205739Y-42177256D01*
X98205733Y-42177263D01*
X98058067Y-42369706D01*
X97936777Y-42579785D01*
X97936773Y-42579794D01*
X97843947Y-42803895D01*
X97781161Y-43038214D01*
X97749500Y-43278711D01*
X87100500Y-43278711D01*
X87100500Y-40514999D01*
X88674713Y-40514999D01*
X88674714Y-40515000D01*
X89380856Y-40515000D01*
X89319075Y-40622007D01*
X89285000Y-40749174D01*
X89285000Y-40880826D01*
X89319075Y-41007993D01*
X89380856Y-41115000D01*
X88674714Y-41115000D01*
X88708062Y-41232205D01*
X88708067Y-41232218D01*
X88803061Y-41422991D01*
X88931500Y-41593071D01*
X89089000Y-41736651D01*
X89089002Y-41736653D01*
X89270201Y-41848846D01*
X89270207Y-41848849D01*
X89468941Y-41925838D01*
X89485000Y-41928840D01*
X89485000Y-41219144D01*
X89592007Y-41280925D01*
X89719174Y-41315000D01*
X89850826Y-41315000D01*
X89977993Y-41280925D01*
X90085000Y-41219144D01*
X90085000Y-41928839D01*
X90101058Y-41925838D01*
X90299792Y-41848849D01*
X90299798Y-41848846D01*
X90480997Y-41736653D01*
X90480999Y-41736651D01*
X90638499Y-41593071D01*
X90766938Y-41422991D01*
X90861932Y-41232218D01*
X90861937Y-41232205D01*
X90895286Y-41115000D01*
X90189144Y-41115000D01*
X90250925Y-41007993D01*
X90285000Y-40880826D01*
X90285000Y-40749174D01*
X90250925Y-40622007D01*
X90189144Y-40515000D01*
X90895286Y-40515000D01*
X90895286Y-40514999D01*
X91214713Y-40514999D01*
X91214714Y-40515000D01*
X91920856Y-40515000D01*
X91859075Y-40622007D01*
X91825000Y-40749174D01*
X91825000Y-40880826D01*
X91859075Y-41007993D01*
X91920856Y-41115000D01*
X91214714Y-41115000D01*
X91248062Y-41232205D01*
X91248067Y-41232218D01*
X91343061Y-41422991D01*
X91471500Y-41593071D01*
X91629000Y-41736651D01*
X91629002Y-41736653D01*
X91810201Y-41848846D01*
X91810207Y-41848849D01*
X92008941Y-41925838D01*
X92025000Y-41928840D01*
X92025000Y-41219144D01*
X92132007Y-41280925D01*
X92259174Y-41315000D01*
X92390826Y-41315000D01*
X92517993Y-41280925D01*
X92625000Y-41219144D01*
X92625000Y-41928839D01*
X92641058Y-41925838D01*
X92839792Y-41848849D01*
X92839798Y-41848846D01*
X93020997Y-41736653D01*
X93020999Y-41736651D01*
X93178499Y-41593071D01*
X93306938Y-41422991D01*
X93401932Y-41232218D01*
X93401937Y-41232205D01*
X93435286Y-41115000D01*
X92729144Y-41115000D01*
X92790925Y-41007993D01*
X92825000Y-40880826D01*
X92825000Y-40749174D01*
X92790925Y-40622007D01*
X92729144Y-40515000D01*
X93435286Y-40515000D01*
X93435286Y-40514999D01*
X93401937Y-40397794D01*
X93401932Y-40397781D01*
X93306938Y-40207008D01*
X93178499Y-40036928D01*
X93020999Y-39893348D01*
X93020997Y-39893346D01*
X92839798Y-39781153D01*
X92839792Y-39781151D01*
X92641060Y-39704162D01*
X92625000Y-39701159D01*
X92625000Y-40410855D01*
X92517993Y-40349075D01*
X92390826Y-40315000D01*
X92259174Y-40315000D01*
X92132007Y-40349075D01*
X92025000Y-40410855D01*
X92025000Y-39701159D01*
X92008939Y-39704162D01*
X91810207Y-39781151D01*
X91810201Y-39781153D01*
X91629002Y-39893346D01*
X91629000Y-39893348D01*
X91471500Y-40036928D01*
X91343061Y-40207008D01*
X91248067Y-40397781D01*
X91248062Y-40397794D01*
X91214713Y-40514999D01*
X90895286Y-40514999D01*
X90861937Y-40397794D01*
X90861932Y-40397781D01*
X90766938Y-40207008D01*
X90638499Y-40036928D01*
X90480999Y-39893348D01*
X90480997Y-39893346D01*
X90299798Y-39781153D01*
X90299792Y-39781151D01*
X90101060Y-39704162D01*
X90085000Y-39701159D01*
X90085000Y-40410855D01*
X89977993Y-40349075D01*
X89850826Y-40315000D01*
X89719174Y-40315000D01*
X89592007Y-40349075D01*
X89485000Y-40410855D01*
X89485000Y-39701159D01*
X89468939Y-39704162D01*
X89270207Y-39781151D01*
X89270201Y-39781153D01*
X89089002Y-39893346D01*
X89089000Y-39893348D01*
X88931500Y-40036928D01*
X88803061Y-40207008D01*
X88708067Y-40397781D01*
X88708062Y-40397794D01*
X88674713Y-40514999D01*
X87100500Y-40514999D01*
X87100500Y-40364110D01*
X87100500Y-40364108D01*
X87066392Y-40236814D01*
X87000500Y-40122686D01*
X86907314Y-40029500D01*
X86136819Y-39259005D01*
X86103334Y-39197682D01*
X86100500Y-39171324D01*
X86100500Y-39026043D01*
X86120185Y-38959004D01*
X86132096Y-38943353D01*
X86262495Y-38797650D01*
X86269985Y-38788443D01*
X86274694Y-38782656D01*
X86274702Y-38782645D01*
X86276007Y-38780877D01*
X86286722Y-38764836D01*
X86311019Y-38724479D01*
X86325098Y-38705471D01*
X86332533Y-38697216D01*
X86427179Y-38533284D01*
X86485674Y-38353256D01*
X86493899Y-38275000D01*
X88729417Y-38275000D01*
X88749699Y-38480932D01*
X88762372Y-38522708D01*
X88809768Y-38678954D01*
X88907315Y-38861450D01*
X88931674Y-38891132D01*
X89038589Y-39021410D01*
X89100301Y-39072055D01*
X89198550Y-39152685D01*
X89381046Y-39250232D01*
X89579066Y-39310300D01*
X89579065Y-39310300D01*
X89597529Y-39312118D01*
X89785000Y-39330583D01*
X89990934Y-39310300D01*
X90188954Y-39250232D01*
X90371450Y-39152685D01*
X90531410Y-39021410D01*
X90662685Y-38861450D01*
X90760232Y-38678954D01*
X90820300Y-38480934D01*
X90840583Y-38275000D01*
X90820300Y-38069066D01*
X90760232Y-37871046D01*
X90662685Y-37688550D01*
X90610702Y-37625209D01*
X90531410Y-37528589D01*
X90381121Y-37405252D01*
X90381115Y-37405247D01*
X91274500Y-37405247D01*
X91274500Y-39144752D01*
X91286131Y-39203229D01*
X91286132Y-39203230D01*
X91330447Y-39269552D01*
X91396769Y-39313867D01*
X91396770Y-39313868D01*
X91455247Y-39325499D01*
X91455250Y-39325500D01*
X91455252Y-39325500D01*
X93194750Y-39325500D01*
X93194751Y-39325499D01*
X93209568Y-39322552D01*
X93253229Y-39313868D01*
X93253229Y-39313867D01*
X93253231Y-39313867D01*
X93319552Y-39269552D01*
X93363867Y-39203231D01*
X93363867Y-39203229D01*
X93363868Y-39203229D01*
X93375499Y-39144752D01*
X93375500Y-39144750D01*
X93375500Y-37405249D01*
X93375499Y-37405247D01*
X93363868Y-37346770D01*
X93363867Y-37346769D01*
X93319552Y-37280447D01*
X93253230Y-37236132D01*
X93253229Y-37236131D01*
X93194752Y-37224500D01*
X93194748Y-37224500D01*
X91455252Y-37224500D01*
X91455247Y-37224500D01*
X91396770Y-37236131D01*
X91396769Y-37236132D01*
X91330447Y-37280447D01*
X91286132Y-37346769D01*
X91286131Y-37346770D01*
X91274500Y-37405247D01*
X90381115Y-37405247D01*
X90371450Y-37397315D01*
X90188954Y-37299768D01*
X89990934Y-37239700D01*
X89990932Y-37239699D01*
X89990934Y-37239699D01*
X89785000Y-37219417D01*
X89579067Y-37239699D01*
X89381043Y-37299769D01*
X89293114Y-37346769D01*
X89198550Y-37397315D01*
X89198548Y-37397316D01*
X89198547Y-37397317D01*
X89038589Y-37528589D01*
X88907317Y-37688547D01*
X88809769Y-37871043D01*
X88749699Y-38069067D01*
X88729417Y-38275000D01*
X86493899Y-38275000D01*
X86505460Y-38165000D01*
X86485674Y-37976744D01*
X86427179Y-37796716D01*
X86332533Y-37632784D01*
X86205871Y-37492112D01*
X86205870Y-37492111D01*
X86052734Y-37380851D01*
X86052729Y-37380848D01*
X85879807Y-37303857D01*
X85879802Y-37303855D01*
X85734001Y-37272865D01*
X85694646Y-37264500D01*
X85505354Y-37264500D01*
X85472897Y-37271398D01*
X85320197Y-37303855D01*
X85320192Y-37303857D01*
X85147270Y-37380848D01*
X85147265Y-37380851D01*
X84994129Y-37492111D01*
X84867466Y-37632785D01*
X84772821Y-37796715D01*
X84772820Y-37796717D01*
X84767931Y-37811766D01*
X84728492Y-37869440D01*
X84664133Y-37896638D01*
X84595287Y-37884723D01*
X84543812Y-37837478D01*
X84532069Y-37811766D01*
X84527179Y-37796717D01*
X84527178Y-37796715D01*
X84464729Y-37688550D01*
X84432533Y-37632784D01*
X84305871Y-37492112D01*
X84305870Y-37492111D01*
X84152734Y-37380851D01*
X84152729Y-37380848D01*
X83979807Y-37303857D01*
X83979802Y-37303855D01*
X83834001Y-37272865D01*
X83794646Y-37264500D01*
X83605354Y-37264500D01*
X83572897Y-37271398D01*
X83420197Y-37303855D01*
X83420192Y-37303857D01*
X83247270Y-37380848D01*
X83247265Y-37380851D01*
X83094129Y-37492111D01*
X82967466Y-37632785D01*
X82872821Y-37796715D01*
X82872818Y-37796722D01*
X82840354Y-37896638D01*
X82814326Y-37976744D01*
X82794540Y-38165000D01*
X82814326Y-38353256D01*
X82814327Y-38353259D01*
X82872818Y-38533277D01*
X82872820Y-38533281D01*
X82872821Y-38533284D01*
X82967467Y-38697216D01*
X83079671Y-38821831D01*
X83094129Y-38837888D01*
X83247265Y-38949148D01*
X83247270Y-38949151D01*
X83420192Y-39026142D01*
X83420197Y-39026144D01*
X83605354Y-39065500D01*
X83605355Y-39065500D01*
X83794644Y-39065500D01*
X83794646Y-39065500D01*
X83979803Y-39026144D01*
X84152730Y-38949151D01*
X84305871Y-38837888D01*
X84432533Y-38697216D01*
X84527179Y-38533284D01*
X84530615Y-38522706D01*
X84570052Y-38465032D01*
X84634410Y-38437833D01*
X84703256Y-38449746D01*
X84754733Y-38496989D01*
X84766365Y-38522363D01*
X84769947Y-38533277D01*
X84862085Y-38814106D01*
X84866124Y-38829824D01*
X84910486Y-39065500D01*
X84910892Y-39067655D01*
X84911193Y-39069219D01*
X84911226Y-39069386D01*
X84911235Y-39069433D01*
X84911766Y-39072055D01*
X84939326Y-39203230D01*
X84957878Y-39291535D01*
X84964018Y-39314221D01*
X84964019Y-39314224D01*
X84964860Y-39316750D01*
X84973524Y-39338530D01*
X84973527Y-39338536D01*
X84998500Y-39392179D01*
X84998501Y-39392180D01*
X85075934Y-39558506D01*
X85088697Y-39581843D01*
X85088708Y-39581862D01*
X85090317Y-39584398D01*
X85090319Y-39584402D01*
X85105986Y-39605886D01*
X85106003Y-39605908D01*
X85106010Y-39605917D01*
X85106019Y-39605928D01*
X85106020Y-39605929D01*
X85156523Y-39666509D01*
X85168665Y-39683908D01*
X85180359Y-39704162D01*
X85199500Y-39737314D01*
X85199502Y-39737316D01*
X85292031Y-39829845D01*
X85299592Y-39838122D01*
X85317287Y-39859347D01*
X85323507Y-39866469D01*
X85324216Y-39867244D01*
X85332785Y-39873249D01*
X85349298Y-39887112D01*
X86063181Y-40600995D01*
X86096666Y-40662318D01*
X86099500Y-40688676D01*
X86099500Y-44365891D01*
X86133608Y-44493187D01*
X86150427Y-44522317D01*
X86199500Y-44607314D01*
X86199502Y-44607316D01*
X89363181Y-47770995D01*
X89396666Y-47832318D01*
X89399500Y-47858676D01*
X89399500Y-59041324D01*
X89379815Y-59108363D01*
X89363181Y-59129005D01*
X82529005Y-65963181D01*
X82467682Y-65996666D01*
X82441324Y-65999500D01*
X78138445Y-65999500D01*
X78071406Y-65979815D01*
X78056218Y-65968316D01*
X78023994Y-65939768D01*
X78000852Y-65919266D01*
X78000850Y-65919265D01*
X78000849Y-65919264D01*
X77850226Y-65840210D01*
X77685056Y-65799500D01*
X77514944Y-65799500D01*
X77349773Y-65840210D01*
X77199150Y-65919263D01*
X77071816Y-66032072D01*
X76975182Y-66172068D01*
X76914860Y-66331125D01*
X76914859Y-66331130D01*
X76894355Y-66500000D01*
X64834328Y-66500000D01*
X64742685Y-66328550D01*
X64649089Y-66214502D01*
X64611410Y-66168589D01*
X64457172Y-66042011D01*
X64451450Y-66037315D01*
X64268954Y-65939768D01*
X64070934Y-65879700D01*
X64070932Y-65879699D01*
X64070934Y-65879699D01*
X63865000Y-65859417D01*
X63659067Y-65879699D01*
X63461043Y-65939769D01*
X63386124Y-65979815D01*
X63278550Y-66037315D01*
X63278548Y-66037316D01*
X63278547Y-66037317D01*
X63118589Y-66168589D01*
X62987317Y-66328547D01*
X62889769Y-66511043D01*
X62829699Y-66709067D01*
X62809417Y-66915000D01*
X62380583Y-66915000D01*
X62360300Y-66709066D01*
X62300232Y-66511046D01*
X62202685Y-66328550D01*
X62109089Y-66214502D01*
X62071410Y-66168589D01*
X61917172Y-66042011D01*
X61911450Y-66037315D01*
X61728954Y-65939768D01*
X61530934Y-65879700D01*
X61530932Y-65879699D01*
X61530934Y-65879699D01*
X61325000Y-65859417D01*
X61119067Y-65879699D01*
X60921043Y-65939769D01*
X60846124Y-65979815D01*
X60738550Y-66037315D01*
X60738548Y-66037316D01*
X60738547Y-66037317D01*
X60578589Y-66168589D01*
X60447317Y-66328547D01*
X60349769Y-66511043D01*
X60289699Y-66709067D01*
X60269417Y-66915000D01*
X56132814Y-66915000D01*
X55432316Y-66214502D01*
X55432314Y-66214500D01*
X55369841Y-66178431D01*
X55318187Y-66148608D01*
X55254539Y-66131554D01*
X55190892Y-66114500D01*
X55190891Y-66114500D01*
X48508496Y-66114500D01*
X48441457Y-66094815D01*
X48395702Y-66042011D01*
X48393936Y-66037954D01*
X48391394Y-66031817D01*
X48354731Y-65968316D01*
X48325500Y-65917686D01*
X48232314Y-65824500D01*
X47911916Y-65504102D01*
X47878431Y-65442779D01*
X47883415Y-65373087D01*
X47911916Y-65328740D01*
X49735409Y-63505247D01*
X60274500Y-63505247D01*
X60274500Y-65244752D01*
X60286131Y-65303229D01*
X60286132Y-65303230D01*
X60330447Y-65369552D01*
X60396769Y-65413867D01*
X60396770Y-65413868D01*
X60455247Y-65425499D01*
X60455250Y-65425500D01*
X60455252Y-65425500D01*
X62194750Y-65425500D01*
X62194751Y-65425499D01*
X62209568Y-65422552D01*
X62253229Y-65413868D01*
X62253229Y-65413867D01*
X62253231Y-65413867D01*
X62319552Y-65369552D01*
X62363867Y-65303231D01*
X62363867Y-65303229D01*
X62363868Y-65303229D01*
X62375499Y-65244752D01*
X62375500Y-65244750D01*
X62375500Y-64375000D01*
X62809417Y-64375000D01*
X62829699Y-64580932D01*
X62859734Y-64679944D01*
X62889768Y-64778954D01*
X62987315Y-64961450D01*
X62987317Y-64961452D01*
X63118589Y-65121410D01*
X63215209Y-65200702D01*
X63278550Y-65252685D01*
X63461046Y-65350232D01*
X63659066Y-65410300D01*
X63659065Y-65410300D01*
X63677529Y-65412118D01*
X63865000Y-65430583D01*
X64070934Y-65410300D01*
X64268954Y-65350232D01*
X64279173Y-65344768D01*
X64292640Y-65338576D01*
X64294520Y-65337843D01*
X64294532Y-65337840D01*
X64618862Y-65173255D01*
X64630840Y-65166666D01*
X64632183Y-65165868D01*
X64643793Y-65158432D01*
X64871246Y-65001737D01*
X64873124Y-65000471D01*
X65038677Y-64891114D01*
X65064036Y-64878269D01*
X65231885Y-64816245D01*
X65263503Y-64809082D01*
X65470820Y-64790024D01*
X65573176Y-64780615D01*
X65573177Y-64780614D01*
X65573183Y-64780614D01*
X65576061Y-64779832D01*
X65608551Y-64775500D01*
X67501825Y-64775500D01*
X67531760Y-64779167D01*
X67538312Y-64780798D01*
X67732243Y-64790024D01*
X67741905Y-64790865D01*
X67789750Y-64796921D01*
X67880741Y-64808439D01*
X67880775Y-64808442D01*
X67880778Y-64808443D01*
X67888645Y-64809286D01*
X67889558Y-64809366D01*
X67897729Y-64809918D01*
X68103017Y-64819686D01*
X68107618Y-64819853D01*
X68108135Y-64819866D01*
X68117999Y-64818049D01*
X68120714Y-64817550D01*
X68143167Y-64815500D01*
X68196962Y-64815500D01*
X68196962Y-64815499D01*
X68335053Y-64774953D01*
X68456128Y-64697143D01*
X68550377Y-64588373D01*
X68610165Y-64457457D01*
X68630647Y-64315000D01*
X68610165Y-64172543D01*
X68550377Y-64041627D01*
X68456128Y-63932857D01*
X68335053Y-63855047D01*
X68335051Y-63855046D01*
X68335049Y-63855045D01*
X68335050Y-63855045D01*
X68196963Y-63814500D01*
X68196961Y-63814500D01*
X68053039Y-63814500D01*
X68053036Y-63814500D01*
X67914949Y-63855045D01*
X67909309Y-63857620D01*
X67904880Y-63860041D01*
X67821985Y-63898012D01*
X67767022Y-63923189D01*
X67758212Y-63926822D01*
X67689949Y-63951941D01*
X67657071Y-63959171D01*
X67531214Y-63969296D01*
X67526853Y-63970441D01*
X67495386Y-63974500D01*
X65608430Y-63974500D01*
X65579215Y-63970264D01*
X65579164Y-63970535D01*
X65573271Y-63969402D01*
X65573212Y-63969394D01*
X65573184Y-63969385D01*
X65573178Y-63969384D01*
X65263507Y-63940915D01*
X65231879Y-63933749D01*
X65064040Y-63871729D01*
X65038674Y-63858880D01*
X64981973Y-63821425D01*
X64981971Y-63821424D01*
X64873140Y-63749534D01*
X64871139Y-63748184D01*
X64643795Y-63591568D01*
X64643792Y-63591566D01*
X64632183Y-63584130D01*
X64630840Y-63583332D01*
X64618861Y-63576743D01*
X64462340Y-63497315D01*
X64294556Y-63412171D01*
X64292557Y-63411203D01*
X64287653Y-63408828D01*
X64286847Y-63408456D01*
X64280776Y-63405654D01*
X64280903Y-63405378D01*
X64273314Y-63402098D01*
X64268954Y-63399768D01*
X64205260Y-63380447D01*
X64070934Y-63339700D01*
X64070932Y-63339699D01*
X64070934Y-63339699D01*
X63865000Y-63319417D01*
X63659067Y-63339699D01*
X63461043Y-63399769D01*
X63373114Y-63446769D01*
X63278550Y-63497315D01*
X63278548Y-63497316D01*
X63278547Y-63497317D01*
X63118589Y-63628589D01*
X63019334Y-63749534D01*
X62987315Y-63788550D01*
X62969743Y-63821425D01*
X62889769Y-63971043D01*
X62829699Y-64169067D01*
X62809417Y-64375000D01*
X62375500Y-64375000D01*
X62375500Y-63505249D01*
X62375499Y-63505247D01*
X62363868Y-63446770D01*
X62363867Y-63446769D01*
X62319552Y-63380447D01*
X62253230Y-63336132D01*
X62253229Y-63336131D01*
X62194752Y-63324500D01*
X62194748Y-63324500D01*
X60455252Y-63324500D01*
X60455247Y-63324500D01*
X60396770Y-63336131D01*
X60396769Y-63336132D01*
X60330447Y-63380447D01*
X60286132Y-63446769D01*
X60286131Y-63446770D01*
X60274500Y-63505247D01*
X49735409Y-63505247D01*
X51903837Y-61336819D01*
X51965160Y-61303334D01*
X51991518Y-61300500D01*
X61031007Y-61300500D01*
X64031007Y-61300500D01*
X69739029Y-61300500D01*
X69768704Y-61304103D01*
X69814944Y-61315500D01*
X69985058Y-61315500D01*
X69985058Y-61315499D01*
X70049522Y-61299610D01*
X70054960Y-61298399D01*
X70104328Y-61288580D01*
X70110429Y-61286052D01*
X70128212Y-61280215D01*
X70150217Y-61274792D01*
X70150217Y-61274791D01*
X70150225Y-61274790D01*
X70192449Y-61252628D01*
X70202606Y-61247871D01*
X70231811Y-61235775D01*
X70252913Y-61221674D01*
X70264166Y-61214988D01*
X70300852Y-61195734D01*
X70322510Y-61176545D01*
X70335833Y-61166269D01*
X70346543Y-61159114D01*
X70377738Y-61127917D01*
X70383141Y-61122831D01*
X70428183Y-61082929D01*
X70433943Y-61074582D01*
X70448302Y-61057353D01*
X72144114Y-59361543D01*
X72220775Y-59246811D01*
X72223303Y-59240706D01*
X72250184Y-59200471D01*
X73053742Y-58396913D01*
X73115063Y-58363430D01*
X73184755Y-58368414D01*
X73229099Y-58396913D01*
X74439500Y-59607313D01*
X75635159Y-60802972D01*
X75635169Y-60802983D01*
X75639499Y-60807313D01*
X75639500Y-60807314D01*
X75732686Y-60900500D01*
X75831521Y-60957563D01*
X75841574Y-60963367D01*
X75846814Y-60966392D01*
X75974107Y-61000500D01*
X75974108Y-61000500D01*
X75974109Y-61000500D01*
X77871963Y-61000500D01*
X77871963Y-61000499D01*
X77910226Y-60989263D01*
X77933902Y-60982312D01*
X77936681Y-60981531D01*
X77993186Y-60966392D01*
X77993189Y-60966389D01*
X77999367Y-60963832D01*
X78008996Y-60960434D01*
X78010045Y-60959955D01*
X78010053Y-60959953D01*
X78058087Y-60929082D01*
X78063102Y-60926025D01*
X78107314Y-60900500D01*
X78107321Y-60900492D01*
X78111828Y-60897035D01*
X78127067Y-60884752D01*
X78131128Y-60882143D01*
X78163653Y-60844605D01*
X78169673Y-60838140D01*
X78200500Y-60807314D01*
X78203628Y-60801894D01*
X78217304Y-60782688D01*
X78225377Y-60773373D01*
X78242912Y-60734974D01*
X78248311Y-60724502D01*
X78266392Y-60693186D01*
X78269952Y-60679898D01*
X78276934Y-60660479D01*
X78285164Y-60642459D01*
X78285163Y-60642459D01*
X78285165Y-60642457D01*
X78290111Y-60608053D01*
X78293074Y-60593606D01*
X78294263Y-60589165D01*
X78300500Y-60565892D01*
X78300500Y-60544667D01*
X78301762Y-60527020D01*
X78305647Y-60499999D01*
X78301762Y-60472977D01*
X78300500Y-60455331D01*
X78300500Y-60434110D01*
X78300500Y-60434108D01*
X78293073Y-60406390D01*
X78290111Y-60391946D01*
X78285165Y-60357545D01*
X78285165Y-60357543D01*
X78276928Y-60339509D01*
X78269949Y-60320091D01*
X78266392Y-60306814D01*
X78248316Y-60275506D01*
X78242911Y-60265020D01*
X78225380Y-60226633D01*
X78225379Y-60226631D01*
X78225377Y-60226627D01*
X78225372Y-60226621D01*
X78217306Y-60217312D01*
X78203628Y-60198104D01*
X78200499Y-60192685D01*
X78169677Y-60161863D01*
X78163659Y-60155401D01*
X78131128Y-60117857D01*
X78131125Y-60117854D01*
X78127066Y-60115246D01*
X78111793Y-60102937D01*
X78107318Y-60099504D01*
X78107314Y-60099500D01*
X78095404Y-60092623D01*
X78063121Y-60073984D01*
X78058085Y-60070915D01*
X78034702Y-60055888D01*
X78010053Y-60040047D01*
X78010051Y-60040046D01*
X78010049Y-60040045D01*
X78009004Y-60039567D01*
X77999375Y-60036171D01*
X77993192Y-60033610D01*
X77993187Y-60033608D01*
X77993186Y-60033608D01*
X77936701Y-60018473D01*
X77933862Y-60017675D01*
X77871963Y-59999500D01*
X77871961Y-59999500D01*
X77865892Y-59999500D01*
X76298675Y-59999500D01*
X76231636Y-59979815D01*
X76210994Y-59963181D01*
X75050166Y-58802353D01*
X73936913Y-57689099D01*
X73903430Y-57627779D01*
X73908414Y-57558087D01*
X73936913Y-57513742D01*
X75453740Y-55996916D01*
X75515063Y-55963431D01*
X75584755Y-55968415D01*
X75629102Y-55996916D01*
X80832686Y-61200500D01*
X80946814Y-61266392D01*
X81074108Y-61300500D01*
X81074110Y-61300500D01*
X86325890Y-61300500D01*
X86325892Y-61300500D01*
X86453186Y-61266392D01*
X86567314Y-61200500D01*
X88706431Y-59061381D01*
X88727068Y-59044751D01*
X88731128Y-59042143D01*
X88763653Y-59004605D01*
X88769673Y-58998140D01*
X88800500Y-58967314D01*
X88803628Y-58961894D01*
X88817304Y-58942688D01*
X88825377Y-58933373D01*
X88842912Y-58894974D01*
X88848311Y-58884502D01*
X88866392Y-58853186D01*
X88869952Y-58839898D01*
X88876934Y-58820479D01*
X88885164Y-58802459D01*
X88885163Y-58802459D01*
X88885165Y-58802457D01*
X88890111Y-58768053D01*
X88893074Y-58753606D01*
X88895091Y-58746078D01*
X88900500Y-58725892D01*
X88900500Y-58704667D01*
X88901762Y-58687020D01*
X88905647Y-58659999D01*
X88901762Y-58632977D01*
X88900500Y-58615331D01*
X88900500Y-58594110D01*
X88900500Y-58594108D01*
X88893073Y-58566390D01*
X88890111Y-58551946D01*
X88885165Y-58517545D01*
X88885165Y-58517543D01*
X88876928Y-58499509D01*
X88869949Y-58480091D01*
X88866392Y-58466814D01*
X88848316Y-58435506D01*
X88842911Y-58425020D01*
X88825380Y-58386633D01*
X88825379Y-58386631D01*
X88825377Y-58386627D01*
X88825372Y-58386621D01*
X88817306Y-58377312D01*
X88803628Y-58358104D01*
X88800499Y-58352685D01*
X88769677Y-58321863D01*
X88763659Y-58315401D01*
X88731128Y-58277857D01*
X88731125Y-58277854D01*
X88727066Y-58275246D01*
X88711793Y-58262937D01*
X88707318Y-58259504D01*
X88707314Y-58259500D01*
X88695404Y-58252623D01*
X88663121Y-58233984D01*
X88658085Y-58230915D01*
X88643919Y-58221811D01*
X88610053Y-58200047D01*
X88610051Y-58200046D01*
X88610049Y-58200045D01*
X88609004Y-58199567D01*
X88599375Y-58196171D01*
X88593192Y-58193610D01*
X88593187Y-58193608D01*
X88593186Y-58193608D01*
X88536701Y-58178473D01*
X88533862Y-58177675D01*
X88471963Y-58159500D01*
X88471961Y-58159500D01*
X88328039Y-58159500D01*
X88266145Y-58177673D01*
X88263307Y-58178469D01*
X88206817Y-58193606D01*
X88200609Y-58196177D01*
X88190985Y-58199572D01*
X88189949Y-58200045D01*
X88141915Y-58230914D01*
X88136880Y-58233983D01*
X88092689Y-58259497D01*
X88088266Y-58262892D01*
X88072945Y-58275238D01*
X88068877Y-58277852D01*
X88068867Y-58277861D01*
X88036348Y-58315390D01*
X88030317Y-58321867D01*
X86089005Y-60263181D01*
X86027682Y-60296666D01*
X86001324Y-60299500D01*
X81398676Y-60299500D01*
X81331637Y-60279815D01*
X81310995Y-60263181D01*
X76336916Y-55289102D01*
X76303431Y-55227779D01*
X76308415Y-55158087D01*
X76336916Y-55113740D01*
X77368649Y-54082007D01*
X78453742Y-52996913D01*
X78515063Y-52963430D01*
X78584755Y-52968414D01*
X78629100Y-52996913D01*
X78677129Y-53044942D01*
X78763181Y-53130994D01*
X78796666Y-53192317D01*
X78799500Y-53218675D01*
X78799500Y-55115331D01*
X78798238Y-55132977D01*
X78797086Y-55140991D01*
X78794353Y-55160000D01*
X78797751Y-55183635D01*
X78798238Y-55187020D01*
X78799500Y-55204667D01*
X78799500Y-55225894D01*
X78806923Y-55253596D01*
X78809885Y-55268037D01*
X78814835Y-55302456D01*
X78814837Y-55302464D01*
X78823069Y-55320489D01*
X78830050Y-55339907D01*
X78833607Y-55353183D01*
X78833610Y-55353190D01*
X78851681Y-55384491D01*
X78857086Y-55394974D01*
X78874623Y-55433373D01*
X78882694Y-55442687D01*
X78896368Y-55461890D01*
X78899497Y-55467310D01*
X78899501Y-55467315D01*
X78930322Y-55498136D01*
X78936354Y-55504615D01*
X78968870Y-55542141D01*
X78968874Y-55542145D01*
X78972928Y-55544750D01*
X78988211Y-55557066D01*
X78992684Y-55560498D01*
X78992686Y-55560500D01*
X79036887Y-55586019D01*
X79041871Y-55589056D01*
X79089947Y-55619953D01*
X79089950Y-55619954D01*
X79089952Y-55619955D01*
X79090994Y-55620431D01*
X79100621Y-55623827D01*
X79106811Y-55626390D01*
X79106814Y-55626392D01*
X79163246Y-55641512D01*
X79163261Y-55641516D01*
X79166098Y-55642312D01*
X79228039Y-55660500D01*
X79371963Y-55660500D01*
X79371963Y-55660499D01*
X79419608Y-55646509D01*
X79433902Y-55642312D01*
X79436681Y-55641531D01*
X79493186Y-55626392D01*
X79493189Y-55626389D01*
X79499367Y-55623832D01*
X79508996Y-55620434D01*
X79510045Y-55619955D01*
X79510053Y-55619953D01*
X79558087Y-55589082D01*
X79563102Y-55586025D01*
X79607314Y-55560500D01*
X79607321Y-55560492D01*
X79611828Y-55557035D01*
X79627067Y-55544752D01*
X79631128Y-55542143D01*
X79663653Y-55504605D01*
X79669673Y-55498140D01*
X79682954Y-55484859D01*
X79700500Y-55467314D01*
X79703628Y-55461894D01*
X79717306Y-55442687D01*
X79725377Y-55433373D01*
X79742912Y-55394974D01*
X79748311Y-55384502D01*
X79766392Y-55353186D01*
X79769952Y-55339898D01*
X79776934Y-55320479D01*
X79785164Y-55302459D01*
X79785163Y-55302459D01*
X79785165Y-55302457D01*
X79790111Y-55268053D01*
X79793074Y-55253606D01*
X79799052Y-55231294D01*
X79800500Y-55225892D01*
X79800500Y-55204667D01*
X79801762Y-55187020D01*
X79802249Y-55183635D01*
X79805647Y-55160000D01*
X79802914Y-55140991D01*
X79801762Y-55132977D01*
X79800500Y-55115331D01*
X79800500Y-52894109D01*
X79800500Y-52894108D01*
X79792820Y-52865447D01*
X79766392Y-52766814D01*
X79762747Y-52760500D01*
X79700500Y-52652686D01*
X79607314Y-52559500D01*
X79607313Y-52559499D01*
X79602983Y-52555169D01*
X79602972Y-52555159D01*
X79461267Y-52413454D01*
X79336914Y-52289100D01*
X79303430Y-52227779D01*
X79308414Y-52158087D01*
X79336913Y-52113742D01*
X80844114Y-50606543D01*
X80920775Y-50491811D01*
X80973580Y-50364328D01*
X81000500Y-50228994D01*
X81000500Y-50129672D01*
X81020185Y-50062633D01*
X81021953Y-50059958D01*
X81087917Y-49962926D01*
X81092231Y-49956970D01*
X81129509Y-49908611D01*
X81186027Y-49867533D01*
X81215567Y-49860912D01*
X81219741Y-49860500D01*
X81219748Y-49860500D01*
X81243205Y-49855834D01*
X81278229Y-49848868D01*
X81278229Y-49848867D01*
X81278231Y-49848867D01*
X81344552Y-49804552D01*
X81388867Y-49738231D01*
X81388867Y-49738229D01*
X81388868Y-49738229D01*
X81400499Y-49679752D01*
X81400500Y-49679750D01*
X81400500Y-47840249D01*
X81400499Y-47840247D01*
X81388868Y-47781770D01*
X81388867Y-47781769D01*
X81344552Y-47715447D01*
X81278230Y-47671132D01*
X81278229Y-47671131D01*
X81219752Y-47659500D01*
X81219748Y-47659500D01*
X79380252Y-47659500D01*
X79380247Y-47659500D01*
X79321770Y-47671131D01*
X79321769Y-47671132D01*
X79255447Y-47715447D01*
X79211132Y-47781769D01*
X79211131Y-47781770D01*
X79199500Y-47840247D01*
X79199500Y-49679752D01*
X79211131Y-49738228D01*
X79211132Y-49738230D01*
X79211133Y-49738231D01*
X79255086Y-49804011D01*
X79256880Y-49806776D01*
X79258673Y-49809623D01*
X79290161Y-49842850D01*
X79299579Y-49854043D01*
X79330572Y-49895631D01*
X79331821Y-49897306D01*
X79338062Y-49906517D01*
X79372371Y-49962390D01*
X79390677Y-50029819D01*
X79369622Y-50096441D01*
X79354384Y-50114957D01*
X77953457Y-51515886D01*
X72553457Y-56915886D01*
X71546259Y-57923083D01*
X71484936Y-57956568D01*
X71415244Y-57951584D01*
X71370897Y-57923083D01*
X70769678Y-57321864D01*
X70763645Y-57315384D01*
X70731132Y-57277861D01*
X70731125Y-57277854D01*
X70727066Y-57275246D01*
X70711793Y-57262937D01*
X70707318Y-57259504D01*
X70707314Y-57259500D01*
X70695404Y-57252623D01*
X70663121Y-57233984D01*
X70658085Y-57230915D01*
X70657879Y-57230782D01*
X70610053Y-57200047D01*
X70610051Y-57200046D01*
X70610049Y-57200045D01*
X70609004Y-57199567D01*
X70599375Y-57196171D01*
X70593192Y-57193610D01*
X70593187Y-57193608D01*
X70593186Y-57193608D01*
X70536701Y-57178473D01*
X70533862Y-57177675D01*
X70471963Y-57159500D01*
X70471961Y-57159500D01*
X70328039Y-57159500D01*
X70266145Y-57177673D01*
X70263307Y-57178469D01*
X70206817Y-57193606D01*
X70200609Y-57196177D01*
X70190985Y-57199572D01*
X70189949Y-57200045D01*
X70141915Y-57230914D01*
X70136880Y-57233983D01*
X70092689Y-57259497D01*
X70088266Y-57262892D01*
X70072945Y-57275238D01*
X70068877Y-57277852D01*
X70068868Y-57277860D01*
X70036355Y-57315383D01*
X70030324Y-57321860D01*
X69999498Y-57352686D01*
X69996364Y-57358115D01*
X69982701Y-57377303D01*
X69974623Y-57386626D01*
X69974623Y-57386627D01*
X69957088Y-57425019D01*
X69951687Y-57435495D01*
X69933607Y-57466813D01*
X69933606Y-57466816D01*
X69930046Y-57480103D01*
X69923069Y-57499511D01*
X69914835Y-57517541D01*
X69909886Y-57551956D01*
X69906925Y-57566394D01*
X69899500Y-57594105D01*
X69899500Y-57615331D01*
X69898238Y-57632977D01*
X69894353Y-57659999D01*
X69898238Y-57687020D01*
X69899500Y-57704667D01*
X69899500Y-57725894D01*
X69906923Y-57753596D01*
X69909885Y-57768037D01*
X69914835Y-57802456D01*
X69914837Y-57802464D01*
X69923069Y-57820489D01*
X69930050Y-57839907D01*
X69933607Y-57853183D01*
X69933610Y-57853190D01*
X69951681Y-57884491D01*
X69957086Y-57894974D01*
X69974623Y-57933373D01*
X69982694Y-57942687D01*
X69996368Y-57961890D01*
X69999497Y-57967310D01*
X69999500Y-57967314D01*
X70030327Y-57998141D01*
X70036360Y-58004621D01*
X70068871Y-58042142D01*
X70068874Y-58042145D01*
X70072928Y-58044750D01*
X70093571Y-58061385D01*
X70690583Y-58658397D01*
X70724068Y-58719720D01*
X70719084Y-58789412D01*
X70690583Y-58833759D01*
X69661162Y-59863181D01*
X69599839Y-59896666D01*
X69573481Y-59899500D01*
X61924500Y-59899500D01*
X61857461Y-59879815D01*
X61811706Y-59827011D01*
X61800500Y-59775500D01*
X61800500Y-57531004D01*
X61773581Y-57395677D01*
X61773580Y-57395676D01*
X61773580Y-57395672D01*
X61773578Y-57395667D01*
X61720778Y-57268195D01*
X61720776Y-57268191D01*
X61720775Y-57268189D01*
X61675244Y-57200047D01*
X61644114Y-57153457D01*
X61644112Y-57153454D01*
X56346545Y-51855887D01*
X56231807Y-51779222D01*
X56104332Y-51726421D01*
X56104322Y-51726418D01*
X55968996Y-51699500D01*
X55968994Y-51699500D01*
X55968993Y-51699500D01*
X43441519Y-51699500D01*
X43374480Y-51679815D01*
X43353838Y-51663181D01*
X40715392Y-49024735D01*
X40681907Y-48963412D01*
X40679112Y-48940177D01*
X40677299Y-48868231D01*
X40676883Y-48851700D01*
X40675921Y-48809752D01*
X40672025Y-48639815D01*
X40671538Y-48618587D01*
X40671601Y-48618354D01*
X40671533Y-48618356D01*
X40666186Y-48364381D01*
X40666185Y-48364271D01*
X40660823Y-48088458D01*
X40658061Y-47935581D01*
X40655711Y-47805515D01*
X40654868Y-47790261D01*
X40654707Y-47788524D01*
X40654314Y-47784679D01*
X40654312Y-47784674D01*
X40653455Y-47780816D01*
X40650500Y-47753905D01*
X40650500Y-47070249D01*
X40650499Y-47070247D01*
X40638868Y-47011770D01*
X40638867Y-47011769D01*
X40594552Y-46945447D01*
X40528230Y-46901132D01*
X40528229Y-46901131D01*
X40469752Y-46889500D01*
X40469748Y-46889500D01*
X38730252Y-46889500D01*
X38730247Y-46889500D01*
X38671770Y-46901131D01*
X38671769Y-46901132D01*
X38605447Y-46945447D01*
X38561132Y-47011769D01*
X38561131Y-47011770D01*
X38549500Y-47070247D01*
X38549500Y-48809752D01*
X38561131Y-48868229D01*
X38561132Y-48868230D01*
X38605447Y-48934552D01*
X38671769Y-48978867D01*
X38671770Y-48978868D01*
X38730247Y-48990499D01*
X38730250Y-48990500D01*
X38730252Y-48990500D01*
X38802014Y-48990500D01*
X38869053Y-49010185D01*
X38914808Y-49062989D01*
X38923631Y-49090309D01*
X38926418Y-49104320D01*
X38926421Y-49104332D01*
X38979222Y-49231807D01*
X39055887Y-49346545D01*
X39055888Y-49346546D01*
X39592668Y-49883325D01*
X39601475Y-49893121D01*
X39601944Y-49893702D01*
X39603501Y-49895631D01*
X39610178Y-49903491D01*
X39610762Y-49903905D01*
X39610791Y-49903926D01*
X39626719Y-49917376D01*
X40771661Y-51062318D01*
X40805146Y-51123641D01*
X40800162Y-51193333D01*
X40771661Y-51237680D01*
X39595887Y-52413454D01*
X39519223Y-52528192D01*
X39466421Y-52655668D01*
X39466421Y-52655669D01*
X39466420Y-52655672D01*
X39453163Y-52722321D01*
X39453163Y-52722322D01*
X39439500Y-52791005D01*
X39439500Y-52922245D01*
X39422296Y-52985258D01*
X39335949Y-53131602D01*
X39332736Y-53136754D01*
X39304223Y-53180082D01*
X39250927Y-53225263D01*
X39224831Y-53233534D01*
X39211770Y-53236131D01*
X39211769Y-53236132D01*
X39145447Y-53280447D01*
X39101132Y-53346769D01*
X39101131Y-53346770D01*
X39089500Y-53405247D01*
X39089500Y-55133745D01*
X39088941Y-55143309D01*
X39088929Y-55145860D01*
X39089890Y-55154758D01*
X39089890Y-55154760D01*
X39089891Y-55154762D01*
X39092267Y-55162336D01*
X39095565Y-55175244D01*
X39096120Y-55178028D01*
X39101133Y-55203233D01*
X39105502Y-55213779D01*
X39111253Y-55225791D01*
X39111517Y-55225679D01*
X39113900Y-55231280D01*
X39113902Y-55231286D01*
X39113903Y-55231287D01*
X39113906Y-55231294D01*
X39174858Y-55342750D01*
X39178295Y-55349519D01*
X39240594Y-55482125D01*
X39243024Y-55487640D01*
X39307516Y-55644268D01*
X39309282Y-55648810D01*
X39375204Y-55828683D01*
X39376524Y-55832473D01*
X39401871Y-55909235D01*
X39430823Y-55996916D01*
X39433247Y-56004255D01*
X39439500Y-56043133D01*
X39439500Y-57821006D01*
X39439500Y-57958994D01*
X39439500Y-57958996D01*
X39439499Y-57958996D01*
X39466418Y-58094322D01*
X39466421Y-58094332D01*
X39519222Y-58221807D01*
X39595887Y-58336545D01*
X39595888Y-58336546D01*
X40301928Y-59042585D01*
X40322206Y-59069267D01*
X40323505Y-59071567D01*
X40323512Y-59071576D01*
X40414336Y-59177107D01*
X40416302Y-59179449D01*
X40511875Y-59296201D01*
X40513675Y-59298452D01*
X40583606Y-59388051D01*
X40583609Y-59388056D01*
X40590126Y-59396406D01*
X40590127Y-59396408D01*
X40604935Y-59415381D01*
X40609659Y-59421433D01*
X40611309Y-59423596D01*
X40665626Y-59496430D01*
X40665630Y-59496435D01*
X40707656Y-59552790D01*
X40709169Y-59554864D01*
X40746618Y-59607314D01*
X40751416Y-59614033D01*
X40774352Y-59680031D01*
X40774500Y-59686088D01*
X40774500Y-60004269D01*
X40777353Y-60034699D01*
X40777353Y-60034701D01*
X40820755Y-60158732D01*
X40822207Y-60162882D01*
X40902850Y-60272150D01*
X41012118Y-60352793D01*
X41054845Y-60367744D01*
X41140299Y-60397646D01*
X41170730Y-60400500D01*
X41170734Y-60400500D01*
X42529270Y-60400500D01*
X42559699Y-60397646D01*
X42559701Y-60397646D01*
X42623790Y-60375219D01*
X42687882Y-60352793D01*
X42797150Y-60272150D01*
X42877793Y-60162882D01*
X42920775Y-60040047D01*
X42922646Y-60034701D01*
X42922646Y-60034699D01*
X42925500Y-60004269D01*
X42925500Y-59195730D01*
X42922646Y-59165300D01*
X42922646Y-59165298D01*
X42879550Y-59042140D01*
X42877793Y-59037118D01*
X42797150Y-58927850D01*
X42687882Y-58847207D01*
X42687880Y-58847206D01*
X42559700Y-58802353D01*
X42529270Y-58799500D01*
X42529266Y-58799500D01*
X42218341Y-58799500D01*
X42151302Y-58779815D01*
X42142023Y-58773232D01*
X42043697Y-58696450D01*
X42041763Y-58694909D01*
X42032066Y-58687020D01*
X41862984Y-58549469D01*
X41861195Y-58547985D01*
X41682091Y-58396434D01*
X41680334Y-58394919D01*
X41597200Y-58321863D01*
X41500985Y-58237311D01*
X41499379Y-58235874D01*
X41326383Y-58078200D01*
X41326285Y-58078110D01*
X41326040Y-58077886D01*
X41326035Y-58077883D01*
X41318561Y-58073253D01*
X41296176Y-58055519D01*
X40876819Y-57636162D01*
X40843334Y-57574839D01*
X40840500Y-57548481D01*
X40840500Y-56043133D01*
X40846752Y-56004256D01*
X40860231Y-55963431D01*
X40903479Y-55832447D01*
X40904769Y-55828743D01*
X40970721Y-55648789D01*
X40972482Y-55644265D01*
X41036974Y-55487640D01*
X41039382Y-55482170D01*
X41101725Y-55349467D01*
X41105134Y-55342755D01*
X41166096Y-55231287D01*
X41169816Y-55221848D01*
X41176226Y-55209605D01*
X41178865Y-55203233D01*
X41178867Y-55203231D01*
X41178867Y-55203228D01*
X41179574Y-55201523D01*
X41183744Y-55187338D01*
X41183687Y-55187320D01*
X41184370Y-55185208D01*
X41184695Y-55184103D01*
X41184880Y-55183635D01*
X41186315Y-55178028D01*
X41192402Y-55138710D01*
X41192241Y-55137758D01*
X41190500Y-55117055D01*
X41190500Y-53405249D01*
X41190499Y-53405247D01*
X41178868Y-53346770D01*
X41178867Y-53346769D01*
X41134554Y-53280450D01*
X41125918Y-53271815D01*
X41126835Y-53270897D01*
X41121960Y-53266312D01*
X41120938Y-53267263D01*
X41116796Y-53262806D01*
X41116791Y-53262799D01*
X41082910Y-53232846D01*
X41071746Y-53221628D01*
X41037392Y-53182389D01*
X41029778Y-53172772D01*
X41002540Y-53134631D01*
X40979599Y-53068635D01*
X40995979Y-53000712D01*
X41015765Y-52974890D01*
X41762319Y-52228336D01*
X41823641Y-52194853D01*
X41893333Y-52199837D01*
X41937680Y-52228338D01*
X42653454Y-52944112D01*
X42768192Y-53020777D01*
X42895667Y-53073578D01*
X42895672Y-53073580D01*
X42895676Y-53073580D01*
X42895677Y-53073581D01*
X43031003Y-53100500D01*
X43031006Y-53100500D01*
X43031007Y-53100500D01*
X55558481Y-53100500D01*
X55625520Y-53120185D01*
X55646162Y-53136819D01*
X60363181Y-57853838D01*
X60396666Y-57915161D01*
X60399500Y-57941519D01*
X60399500Y-59775500D01*
X60379815Y-59842539D01*
X60327011Y-59888294D01*
X60275500Y-59899500D01*
X51581003Y-59899500D01*
X51472590Y-59921065D01*
X51472589Y-59921065D01*
X51459131Y-59923742D01*
X51445673Y-59926419D01*
X51445671Y-59926420D01*
X51392866Y-59948292D01*
X51392864Y-59948293D01*
X51392863Y-59948292D01*
X51318191Y-59979223D01*
X51280708Y-60004269D01*
X51236800Y-60033608D01*
X51232964Y-60036171D01*
X51203454Y-60055888D01*
X46511015Y-64748327D01*
X43781162Y-67478181D01*
X43719839Y-67511666D01*
X43693481Y-67514500D01*
X38516004Y-67514500D01*
X38380677Y-67541418D01*
X38380667Y-67541421D01*
X38253192Y-67594222D01*
X38138454Y-67670887D01*
X37299637Y-68509704D01*
X37222972Y-68624442D01*
X37170171Y-68751917D01*
X37170171Y-68751919D01*
X37170170Y-68751922D01*
X37152551Y-68840500D01*
X37152551Y-68840501D01*
X37143250Y-68887256D01*
X37143250Y-70879619D01*
X37136256Y-70920674D01*
X37071822Y-71104309D01*
X37070257Y-71108525D01*
X36995108Y-71300156D01*
X36992979Y-71305247D01*
X36919678Y-71470171D01*
X36916703Y-71476392D01*
X36846234Y-71613806D01*
X36841942Y-71621491D01*
X36772763Y-71735638D01*
X36772760Y-71735644D01*
X36765676Y-71751999D01*
X36754999Y-71771595D01*
X36754884Y-71771766D01*
X36754416Y-71772895D01*
X36751703Y-71782757D01*
X36751727Y-71782764D01*
X36748897Y-71792886D01*
X36741639Y-71836569D01*
X35600500Y-71836569D01*
X35600500Y-61900000D01*
X40725111Y-61900000D01*
X40777428Y-62026308D01*
X40777430Y-62026311D01*
X40875920Y-62173712D01*
X40875926Y-62173720D01*
X41001279Y-62299073D01*
X41001283Y-62299076D01*
X41148683Y-62397566D01*
X41148692Y-62397571D01*
X41312479Y-62465413D01*
X41312487Y-62465415D01*
X41486353Y-62499999D01*
X41486357Y-62500000D01*
X41550000Y-62500000D01*
X42150000Y-62500000D01*
X42213643Y-62500000D01*
X42213646Y-62499999D01*
X42387512Y-62465415D01*
X42387520Y-62465413D01*
X42551307Y-62397571D01*
X42551316Y-62397566D01*
X42698716Y-62299076D01*
X42698720Y-62299073D01*
X42824073Y-62173720D01*
X42824079Y-62173712D01*
X42922569Y-62026311D01*
X42922571Y-62026308D01*
X42974889Y-61900000D01*
X42150000Y-61900000D01*
X42150000Y-62500000D01*
X41550000Y-62500000D01*
X41550000Y-61900000D01*
X40725111Y-61900000D01*
X35600500Y-61900000D01*
X35600500Y-61550630D01*
X41475000Y-61550630D01*
X41475000Y-61649370D01*
X41500556Y-61744745D01*
X41549925Y-61830255D01*
X41619745Y-61900075D01*
X41705255Y-61949444D01*
X41800630Y-61975000D01*
X41899370Y-61975000D01*
X41994745Y-61949444D01*
X42080255Y-61900075D01*
X42150075Y-61830255D01*
X42199444Y-61744745D01*
X42225000Y-61649370D01*
X42225000Y-61550630D01*
X42199444Y-61455255D01*
X42150075Y-61369745D01*
X42080330Y-61300000D01*
X42150000Y-61300000D01*
X42974889Y-61300000D01*
X42974889Y-61299999D01*
X42922571Y-61173691D01*
X42922569Y-61173688D01*
X42824079Y-61026287D01*
X42824073Y-61026279D01*
X42698720Y-60900926D01*
X42698716Y-60900923D01*
X42551316Y-60802433D01*
X42551307Y-60802428D01*
X42387520Y-60734586D01*
X42387512Y-60734584D01*
X42213646Y-60700000D01*
X42150000Y-60700000D01*
X42150000Y-61300000D01*
X42080330Y-61300000D01*
X42080255Y-61299925D01*
X41994745Y-61250556D01*
X41899370Y-61225000D01*
X41800630Y-61225000D01*
X41705255Y-61250556D01*
X41619745Y-61299925D01*
X41549925Y-61369745D01*
X41500556Y-61455255D01*
X41475000Y-61550630D01*
X35600500Y-61550630D01*
X35600500Y-61299999D01*
X40725110Y-61299999D01*
X40725111Y-61300000D01*
X41550000Y-61300000D01*
X41550000Y-60700000D01*
X41486353Y-60700000D01*
X41312487Y-60734584D01*
X41312479Y-60734586D01*
X41148692Y-60802428D01*
X41148683Y-60802433D01*
X41001283Y-60900923D01*
X41001279Y-60900926D01*
X40875926Y-61026279D01*
X40875920Y-61026287D01*
X40777430Y-61173688D01*
X40777428Y-61173691D01*
X40725110Y-61299999D01*
X35600500Y-61299999D01*
X35600500Y-53974999D01*
X36489713Y-53974999D01*
X36489714Y-53975000D01*
X37195856Y-53975000D01*
X37134075Y-54082007D01*
X37100000Y-54209174D01*
X37100000Y-54340826D01*
X37134075Y-54467993D01*
X37195856Y-54575000D01*
X36489714Y-54575000D01*
X36523062Y-54692205D01*
X36523067Y-54692218D01*
X36618061Y-54882991D01*
X36746500Y-55053071D01*
X36904000Y-55196651D01*
X36904002Y-55196653D01*
X37085201Y-55308846D01*
X37085207Y-55308849D01*
X37283941Y-55385838D01*
X37300000Y-55388840D01*
X37300000Y-54679144D01*
X37407007Y-54740925D01*
X37534174Y-54775000D01*
X37665826Y-54775000D01*
X37792993Y-54740925D01*
X37900000Y-54679144D01*
X37900000Y-55388839D01*
X37916058Y-55385838D01*
X38114792Y-55308849D01*
X38114798Y-55308846D01*
X38295997Y-55196653D01*
X38295999Y-55196651D01*
X38453499Y-55053071D01*
X38581938Y-54882991D01*
X38676932Y-54692218D01*
X38676937Y-54692205D01*
X38710286Y-54575000D01*
X38004144Y-54575000D01*
X38065925Y-54467993D01*
X38100000Y-54340826D01*
X38100000Y-54209174D01*
X38065925Y-54082007D01*
X38004144Y-53975000D01*
X38710286Y-53975000D01*
X38710286Y-53974999D01*
X38676937Y-53857794D01*
X38676932Y-53857781D01*
X38581938Y-53667008D01*
X38453499Y-53496928D01*
X38295999Y-53353348D01*
X38295997Y-53353346D01*
X38114798Y-53241153D01*
X38114792Y-53241151D01*
X37916060Y-53164162D01*
X37900000Y-53161159D01*
X37900000Y-53870855D01*
X37792993Y-53809075D01*
X37665826Y-53775000D01*
X37534174Y-53775000D01*
X37407007Y-53809075D01*
X37300000Y-53870855D01*
X37300000Y-53161159D01*
X37283939Y-53164162D01*
X37085207Y-53241151D01*
X37085201Y-53241153D01*
X36904002Y-53353346D01*
X36904000Y-53353348D01*
X36746500Y-53496928D01*
X36618061Y-53667008D01*
X36523067Y-53857781D01*
X36523062Y-53857794D01*
X36489713Y-53974999D01*
X35600500Y-53974999D01*
X35600500Y-45400000D01*
X38544417Y-45400000D01*
X38564699Y-45605932D01*
X38564700Y-45605934D01*
X38624768Y-45803954D01*
X38722315Y-45986450D01*
X38739404Y-46007273D01*
X38853589Y-46146410D01*
X38936667Y-46214589D01*
X39013550Y-46277685D01*
X39196046Y-46375232D01*
X39394066Y-46435300D01*
X39394065Y-46435300D01*
X39412529Y-46437118D01*
X39600000Y-46455583D01*
X39805934Y-46435300D01*
X40003954Y-46375232D01*
X40186450Y-46277685D01*
X40346410Y-46146410D01*
X40477685Y-45986450D01*
X40575232Y-45803954D01*
X40635300Y-45605934D01*
X40655583Y-45400000D01*
X40635300Y-45194066D01*
X40575232Y-44996046D01*
X40477685Y-44813550D01*
X40390766Y-44707638D01*
X40346410Y-44653589D01*
X40186452Y-44522317D01*
X40186453Y-44522317D01*
X40186450Y-44522315D01*
X40003954Y-44424768D01*
X39805934Y-44364700D01*
X39805932Y-44364699D01*
X39805934Y-44364699D01*
X39600000Y-44344417D01*
X39394067Y-44364699D01*
X39196043Y-44424769D01*
X39093076Y-44479807D01*
X39013550Y-44522315D01*
X39013548Y-44522316D01*
X39013547Y-44522317D01*
X38853589Y-44653589D01*
X38722317Y-44813547D01*
X38624769Y-44996043D01*
X38564699Y-45194067D01*
X38544417Y-45400000D01*
X35600500Y-45400000D01*
X35600500Y-44060000D01*
X42114353Y-44060000D01*
X42116213Y-44072939D01*
X42116763Y-44090632D01*
X42117277Y-44090623D01*
X42117384Y-44096713D01*
X42117384Y-44096715D01*
X42117384Y-44096720D01*
X42117385Y-44096725D01*
X42141669Y-44305756D01*
X42141675Y-44305798D01*
X42144816Y-44324912D01*
X42145258Y-44326984D01*
X42145271Y-44327043D01*
X42148334Y-44338710D01*
X42150147Y-44345613D01*
X42150148Y-44345617D01*
X42188689Y-44468661D01*
X42193529Y-44491414D01*
X42214669Y-44673361D01*
X42215698Y-44678452D01*
X42215350Y-44678522D01*
X42219500Y-44707638D01*
X42219500Y-46112726D01*
X42246793Y-46214589D01*
X42273156Y-46260250D01*
X42299520Y-46305913D01*
X43799122Y-47805515D01*
X45295179Y-49301571D01*
X45295189Y-49301582D01*
X45299519Y-49305912D01*
X45299520Y-49305913D01*
X45374087Y-49380480D01*
X45465413Y-49433207D01*
X45567273Y-49460501D01*
X45567275Y-49460501D01*
X45680323Y-49460501D01*
X45680339Y-49460500D01*
X59972725Y-49460500D01*
X59972727Y-49460500D01*
X60074588Y-49433207D01*
X60165913Y-49380480D01*
X60786393Y-48759999D01*
X76654785Y-48759999D01*
X76654785Y-48760000D01*
X76673602Y-48963082D01*
X76729417Y-49159247D01*
X76729422Y-49159260D01*
X76820327Y-49341821D01*
X76943237Y-49504581D01*
X77093958Y-49641980D01*
X77093960Y-49641982D01*
X77154955Y-49679748D01*
X77267363Y-49749348D01*
X77457544Y-49823024D01*
X77658024Y-49860500D01*
X77658026Y-49860500D01*
X77861974Y-49860500D01*
X77861976Y-49860500D01*
X78062456Y-49823024D01*
X78252637Y-49749348D01*
X78426041Y-49641981D01*
X78576764Y-49504579D01*
X78699673Y-49341821D01*
X78790582Y-49159250D01*
X78846397Y-48963083D01*
X78865215Y-48760000D01*
X78854078Y-48639815D01*
X78846397Y-48556917D01*
X78791615Y-48364381D01*
X78790582Y-48360750D01*
X78699673Y-48178179D01*
X78576764Y-48015421D01*
X78576762Y-48015418D01*
X78426041Y-47878019D01*
X78426039Y-47878017D01*
X78252642Y-47770655D01*
X78252635Y-47770651D01*
X78110135Y-47715447D01*
X78062456Y-47696976D01*
X77861976Y-47659500D01*
X77658024Y-47659500D01*
X77457544Y-47696976D01*
X77457541Y-47696976D01*
X77457541Y-47696977D01*
X77267364Y-47770651D01*
X77267357Y-47770655D01*
X77093960Y-47878017D01*
X77093958Y-47878019D01*
X76943237Y-48015418D01*
X76820327Y-48178178D01*
X76729422Y-48360739D01*
X76729417Y-48360752D01*
X76673602Y-48556917D01*
X76654785Y-48759999D01*
X60786393Y-48759999D01*
X63395101Y-46151289D01*
X63418275Y-46134419D01*
X63417765Y-46133626D01*
X63422886Y-46130331D01*
X63422896Y-46130326D01*
X63566506Y-46016610D01*
X63586006Y-46003951D01*
X63700269Y-45944197D01*
X63716922Y-45934466D01*
X63718763Y-45933271D01*
X63734446Y-45922010D01*
X63882172Y-45805036D01*
X63892094Y-45797947D01*
X63901128Y-45792143D01*
X63902938Y-45790053D01*
X63904813Y-45788144D01*
X63904774Y-45788109D01*
X63909276Y-45783067D01*
X63909279Y-45783065D01*
X63909281Y-45783061D01*
X63911052Y-45781079D01*
X63914419Y-45776803D01*
X63995377Y-45683373D01*
X64055165Y-45552457D01*
X64075647Y-45410000D01*
X64055165Y-45267543D01*
X63995377Y-45136627D01*
X63901128Y-45027857D01*
X63780053Y-44950047D01*
X63780051Y-44950046D01*
X63780049Y-44950045D01*
X63780050Y-44950045D01*
X63641963Y-44909500D01*
X63641961Y-44909500D01*
X63498039Y-44909500D01*
X63498036Y-44909500D01*
X63359949Y-44950045D01*
X63238872Y-45027856D01*
X63238871Y-45027857D01*
X63212188Y-45058650D01*
X63198810Y-45071905D01*
X63188630Y-45080561D01*
X63057981Y-45245558D01*
X63046696Y-45261278D01*
X63045516Y-45263097D01*
X63045506Y-45263114D01*
X63035809Y-45279712D01*
X63035805Y-45279720D01*
X62976052Y-45393979D01*
X62963386Y-45413491D01*
X62849669Y-45557106D01*
X62846801Y-45561429D01*
X62846506Y-45561233D01*
X62828850Y-45584756D01*
X59790426Y-48623181D01*
X59729103Y-48656666D01*
X59702745Y-48659500D01*
X45837254Y-48659500D01*
X45770215Y-48639815D01*
X45749573Y-48623181D01*
X43056819Y-45930426D01*
X43023334Y-45869103D01*
X43020500Y-45842745D01*
X43020500Y-44707840D01*
X43024956Y-44679511D01*
X43024038Y-44679312D01*
X43025328Y-44673370D01*
X43025327Y-44673370D01*
X43025329Y-44673367D01*
X43046469Y-44491402D01*
X43051310Y-44468655D01*
X43089841Y-44345648D01*
X43089846Y-44345628D01*
X43089849Y-44345620D01*
X43094741Y-44326977D01*
X43095198Y-44324830D01*
X43098328Y-44305763D01*
X43122615Y-44096722D01*
X43123150Y-44090632D01*
X43123625Y-44085214D01*
X43124117Y-44076949D01*
X43124461Y-44076969D01*
X43125033Y-44064265D01*
X43125647Y-44060000D01*
X43105165Y-43917543D01*
X43045377Y-43786627D01*
X42951128Y-43677857D01*
X42830053Y-43600047D01*
X42830051Y-43600046D01*
X42830049Y-43600045D01*
X42830050Y-43600045D01*
X42691963Y-43559500D01*
X42691961Y-43559500D01*
X42548039Y-43559500D01*
X42548036Y-43559500D01*
X42409949Y-43600045D01*
X42288873Y-43677856D01*
X42194623Y-43786626D01*
X42194622Y-43786628D01*
X42134834Y-43917543D01*
X42114353Y-44060000D01*
X35600500Y-44060000D01*
X35600500Y-39060247D01*
X74209500Y-39060247D01*
X74209500Y-40699752D01*
X74221131Y-40758229D01*
X74221132Y-40758230D01*
X74265447Y-40824552D01*
X74331769Y-40868867D01*
X74331770Y-40868868D01*
X74390247Y-40880499D01*
X74390250Y-40880500D01*
X74390252Y-40880500D01*
X76029750Y-40880500D01*
X76029751Y-40880499D01*
X76044568Y-40877552D01*
X76088229Y-40868868D01*
X76088229Y-40868867D01*
X76088231Y-40868867D01*
X76129517Y-40841280D01*
X78472981Y-40841280D01*
X78472982Y-40841281D01*
X78517581Y-40868895D01*
X78517588Y-40868899D01*
X78707678Y-40942539D01*
X78908072Y-40980000D01*
X79111928Y-40980000D01*
X79312322Y-40942539D01*
X79502412Y-40868899D01*
X79502422Y-40868894D01*
X79547016Y-40841282D01*
X79547017Y-40841280D01*
X79010001Y-40304264D01*
X79010000Y-40304264D01*
X78472981Y-40841280D01*
X76129517Y-40841280D01*
X76154552Y-40824552D01*
X76198867Y-40758231D01*
X76198867Y-40758229D01*
X76198868Y-40758229D01*
X76210499Y-40699752D01*
X76210500Y-40699750D01*
X76210500Y-39879999D01*
X77905287Y-39879999D01*
X77905287Y-39880000D01*
X77924096Y-40082989D01*
X77924097Y-40082992D01*
X77979881Y-40279056D01*
X77979889Y-40279076D01*
X78048623Y-40417112D01*
X78585736Y-39880000D01*
X78585736Y-39879999D01*
X78533076Y-39827339D01*
X78610000Y-39827339D01*
X78610000Y-39932661D01*
X78637259Y-40034394D01*
X78689920Y-40125606D01*
X78764394Y-40200080D01*
X78855606Y-40252741D01*
X78957339Y-40280000D01*
X79062661Y-40280000D01*
X79164394Y-40252741D01*
X79255606Y-40200080D01*
X79330080Y-40125606D01*
X79382741Y-40034394D01*
X79410000Y-39932661D01*
X79410000Y-39879999D01*
X79434264Y-39879999D01*
X79434264Y-39880000D01*
X79971376Y-40417112D01*
X80040109Y-40279078D01*
X80040115Y-40279063D01*
X80095902Y-40082991D01*
X80095903Y-40082989D01*
X80114713Y-39880000D01*
X80114713Y-39879999D01*
X80095903Y-39677010D01*
X80095902Y-39677007D01*
X80040116Y-39480936D01*
X80040113Y-39480930D01*
X79971375Y-39342886D01*
X79434264Y-39879999D01*
X79410000Y-39879999D01*
X79410000Y-39827339D01*
X79382741Y-39725606D01*
X79330080Y-39634394D01*
X79255606Y-39559920D01*
X79164394Y-39507259D01*
X79062661Y-39480000D01*
X78957339Y-39480000D01*
X78855606Y-39507259D01*
X78764394Y-39559920D01*
X78689920Y-39634394D01*
X78637259Y-39725606D01*
X78610000Y-39827339D01*
X78533076Y-39827339D01*
X78048623Y-39342886D01*
X77979886Y-39480932D01*
X77979881Y-39480943D01*
X77924097Y-39677007D01*
X77924096Y-39677010D01*
X77905287Y-39879999D01*
X76210500Y-39879999D01*
X76210500Y-39060249D01*
X76210499Y-39060247D01*
X76198868Y-39001770D01*
X76198867Y-39001769D01*
X76154552Y-38935447D01*
X76129514Y-38918717D01*
X78472982Y-38918717D01*
X78472982Y-38918718D01*
X79010000Y-39455736D01*
X79010001Y-39455736D01*
X79547017Y-38918718D01*
X79502412Y-38891101D01*
X79502409Y-38891099D01*
X79312321Y-38817460D01*
X79111928Y-38780000D01*
X78908072Y-38780000D01*
X78707678Y-38817460D01*
X78517584Y-38891102D01*
X78472982Y-38918717D01*
X76129514Y-38918717D01*
X76088230Y-38891132D01*
X76088229Y-38891131D01*
X76029752Y-38879500D01*
X76029748Y-38879500D01*
X74390252Y-38879500D01*
X74390247Y-38879500D01*
X74331770Y-38891131D01*
X74331769Y-38891132D01*
X74265447Y-38935447D01*
X74221132Y-39001769D01*
X74221131Y-39001770D01*
X74209500Y-39060247D01*
X35600500Y-39060247D01*
X35600500Y-36406961D01*
X35601280Y-36393077D01*
X35601280Y-36393076D01*
X35611459Y-36302731D01*
X35617635Y-36275670D01*
X35645353Y-36196456D01*
X35657396Y-36171450D01*
X35702046Y-36100389D01*
X35719351Y-36078690D01*
X35778690Y-36019351D01*
X35800389Y-36002046D01*
X35871450Y-35957396D01*
X35896456Y-35945353D01*
X35975670Y-35917635D01*
X36002733Y-35911459D01*
X36065419Y-35904396D01*
X36093079Y-35901280D01*
X36106962Y-35900500D01*
X36165892Y-35900500D01*
X102034108Y-35900500D01*
X102093038Y-35900500D01*
X102106922Y-35901280D01*
G37*
%TD.AperFunction*%
%TD*%
%TA.AperFunction,Conductor*%
%TO.N,/BUCK_3.3V*%
G36*
X63366174Y-45206224D02*
G01*
X63367157Y-45207096D01*
X63534292Y-45373120D01*
X63570707Y-45409293D01*
X63772903Y-45612841D01*
X63776302Y-45621126D01*
X63772848Y-45629388D01*
X63771865Y-45630260D01*
X63606877Y-45760900D01*
X63605036Y-45762095D01*
X63463273Y-45836232D01*
X63295326Y-45969217D01*
X63286713Y-45971666D01*
X63279790Y-45968317D01*
X63011682Y-45700209D01*
X63008255Y-45691936D01*
X63010780Y-45684675D01*
X63143767Y-45516724D01*
X63217908Y-45374952D01*
X63219092Y-45373127D01*
X63349740Y-45208132D01*
X63357561Y-45203775D01*
X63366174Y-45206224D01*
G37*
%TD.AperFunction*%
%TD*%
%TA.AperFunction,Conductor*%
%TO.N,/BUCK_3.3V*%
G36*
X42906905Y-44059956D02*
G01*
X42915167Y-44063410D01*
X42918566Y-44071695D01*
X42918488Y-44073006D01*
X42894201Y-44282047D01*
X42893744Y-44284194D01*
X42845925Y-44436858D01*
X42821202Y-44649651D01*
X42816844Y-44657473D01*
X42809581Y-44660000D01*
X42430419Y-44660000D01*
X42422146Y-44656573D01*
X42418797Y-44649650D01*
X42394074Y-44436858D01*
X42346252Y-44284185D01*
X42345798Y-44282056D01*
X42321511Y-44073005D01*
X42323960Y-44064393D01*
X42331783Y-44060034D01*
X42333087Y-44059956D01*
X42620000Y-44059000D01*
X42906905Y-44059956D01*
G37*
%TD.AperFunction*%
%TD*%
%TA.AperFunction,Conductor*%
%TO.N,+3.3V*%
G36*
X40148266Y-54282276D02*
G01*
X40983810Y-55118803D01*
X40987232Y-55127077D01*
X40985797Y-55132684D01*
X40920013Y-55252972D01*
X40919999Y-55252999D01*
X40849995Y-55402008D01*
X40779992Y-55572019D01*
X40710002Y-55762990D01*
X40642652Y-55966968D01*
X40636804Y-55973750D01*
X40631542Y-55975000D01*
X39648458Y-55975000D01*
X39640185Y-55971573D01*
X39637348Y-55966968D01*
X39569996Y-55762990D01*
X39500006Y-55572019D01*
X39500005Y-55572018D01*
X39499999Y-55572000D01*
X39430000Y-55401999D01*
X39360000Y-55252999D01*
X39294201Y-55132683D01*
X39293239Y-55123781D01*
X39296186Y-55118806D01*
X40131723Y-54282286D01*
X40139993Y-54278855D01*
X40148266Y-54282276D01*
G37*
%TD.AperFunction*%
%TD*%
%TA.AperFunction,Conductor*%
%TO.N,+3.3V*%
G36*
X40445327Y-47799903D02*
G01*
X40450084Y-47807490D01*
X40450245Y-47809227D01*
X40452595Y-47939293D01*
X40455362Y-48092452D01*
X40460724Y-48368265D01*
X40460724Y-48368275D01*
X40460723Y-48368275D01*
X40466087Y-48623067D01*
X40471448Y-48856877D01*
X40476685Y-49064686D01*
X40473468Y-49073043D01*
X40473262Y-49073254D01*
X39779956Y-49766560D01*
X39771683Y-49769987D01*
X39763410Y-49766560D01*
X39761853Y-49764631D01*
X39615411Y-49537449D01*
X39461117Y-49319087D01*
X39306823Y-49121724D01*
X39152529Y-48945362D01*
X39005158Y-48796970D01*
X39001761Y-48788686D01*
X39003904Y-48781977D01*
X39596484Y-47943267D01*
X39604055Y-47938488D01*
X40436601Y-47797901D01*
X40445327Y-47799903D01*
G37*
%TD.AperFunction*%
%TD*%
%TA.AperFunction,Conductor*%
%TO.N,+3.3V*%
G36*
X41187545Y-58229707D02*
G01*
X41187955Y-58230081D01*
X41363137Y-58389746D01*
X41546985Y-58551309D01*
X41730832Y-58706873D01*
X41730846Y-58706884D01*
X41730868Y-58706903D01*
X41914651Y-58856413D01*
X41914669Y-58856427D01*
X41914680Y-58856436D01*
X42091524Y-58994531D01*
X42095935Y-59002323D01*
X42095139Y-59008214D01*
X41853794Y-59593223D01*
X41847471Y-59599564D01*
X41842615Y-59600455D01*
X40980792Y-59573707D01*
X40972629Y-59570026D01*
X40971633Y-59568812D01*
X40874437Y-59432681D01*
X40842343Y-59389645D01*
X40773873Y-59297832D01*
X40752125Y-59269968D01*
X40673298Y-59168970D01*
X40572756Y-59046148D01*
X40479264Y-58937518D01*
X40476465Y-58929012D01*
X40479858Y-58921614D01*
X41171392Y-58230080D01*
X41179664Y-58226654D01*
X41187545Y-58229707D01*
G37*
%TD.AperFunction*%
%TD*%
%TA.AperFunction,Conductor*%
%TO.N,+3.3V*%
G36*
X39033954Y-77407413D02*
G01*
X39726512Y-78099971D01*
X39729939Y-78108244D01*
X39727588Y-78115279D01*
X39535706Y-78370287D01*
X39337716Y-78657414D01*
X39139723Y-78968546D01*
X38941747Y-79303650D01*
X38748798Y-79653634D01*
X38741803Y-79659224D01*
X38734085Y-79658799D01*
X37847534Y-79292562D01*
X37841196Y-79286236D01*
X37841187Y-79286215D01*
X37709954Y-78968538D01*
X37475175Y-78400208D01*
X37475184Y-78391254D01*
X37480908Y-78385203D01*
X37782084Y-78240010D01*
X38093211Y-78066020D01*
X38404338Y-77868030D01*
X38715465Y-77646040D01*
X39018425Y-77406507D01*
X39027040Y-77404065D01*
X39033954Y-77407413D01*
G37*
%TD.AperFunction*%
%TD*%
%TA.AperFunction,Conductor*%
%TO.N,+3.3V*%
G36*
X39996487Y-52314510D02*
G01*
X39999956Y-52316905D01*
X40693808Y-53010757D01*
X40695908Y-53013618D01*
X40754063Y-53125071D01*
X40754074Y-53125090D01*
X40813045Y-53222887D01*
X40813046Y-53222888D01*
X40872031Y-53305482D01*
X40931015Y-53372853D01*
X40980678Y-53416759D01*
X40984607Y-53424805D01*
X40981695Y-53433273D01*
X40981202Y-53433797D01*
X40148101Y-54266898D01*
X40139828Y-54270325D01*
X40131555Y-54266898D01*
X40131053Y-54266364D01*
X39394965Y-53431703D01*
X39392063Y-53423231D01*
X39393966Y-53417534D01*
X39508837Y-53242984D01*
X39628621Y-53039968D01*
X39748405Y-52815953D01*
X39868189Y-52570937D01*
X39981015Y-52320373D01*
X39987536Y-52314238D01*
X39996487Y-52314510D01*
G37*
%TD.AperFunction*%
%TD*%
%TA.AperFunction,Conductor*%
%TO.N,+3.3V*%
G36*
X38343729Y-70953427D02*
G01*
X38346496Y-70957826D01*
X38423750Y-71178004D01*
X38503743Y-71381986D01*
X38503747Y-71381995D01*
X38503749Y-71382000D01*
X38583750Y-71562000D01*
X38663750Y-71718000D01*
X38735496Y-71836380D01*
X38738996Y-71842156D01*
X38740353Y-71851007D01*
X38737268Y-71856489D01*
X37852028Y-72742712D01*
X37843756Y-72746143D01*
X37835481Y-72742721D01*
X37835472Y-72742712D01*
X37391930Y-72298677D01*
X36950230Y-71856487D01*
X36946809Y-71848214D01*
X36948502Y-71842158D01*
X37023749Y-71718000D01*
X37103749Y-71562000D01*
X37183750Y-71382000D01*
X37263750Y-71178000D01*
X37341004Y-70957825D01*
X37346977Y-70951154D01*
X37352044Y-70950000D01*
X38335456Y-70950000D01*
X38343729Y-70953427D01*
G37*
%TD.AperFunction*%
%TD*%
%TA.AperFunction,Conductor*%
%TO.N,+3.3V*%
G36*
X50938004Y-72416510D02*
G01*
X51147056Y-72440798D01*
X51149185Y-72441252D01*
X51301858Y-72489074D01*
X51514651Y-72513797D01*
X51522473Y-72518156D01*
X51525000Y-72525419D01*
X51525000Y-72904580D01*
X51521573Y-72912853D01*
X51514650Y-72916202D01*
X51301857Y-72940925D01*
X51149194Y-72988744D01*
X51147047Y-72989201D01*
X50938006Y-73013488D01*
X50929393Y-73011039D01*
X50925034Y-73003216D01*
X50924956Y-73001905D01*
X50924913Y-72989074D01*
X50924000Y-72715000D01*
X50924956Y-72428093D01*
X50928410Y-72419832D01*
X50936695Y-72416433D01*
X50938004Y-72416510D01*
G37*
%TD.AperFunction*%
%TD*%
%TA.AperFunction,Conductor*%
%TO.N,+3.3V*%
G36*
X79623266Y-76562276D02*
G01*
X80458810Y-77398803D01*
X80462232Y-77407077D01*
X80460797Y-77412684D01*
X80395013Y-77532972D01*
X80394999Y-77532999D01*
X80324995Y-77682008D01*
X80254992Y-77852019D01*
X80185002Y-78042990D01*
X80117652Y-78246968D01*
X80111804Y-78253750D01*
X80106542Y-78255000D01*
X79123458Y-78255000D01*
X79115185Y-78251573D01*
X79112348Y-78246968D01*
X79044996Y-78042990D01*
X78975006Y-77852019D01*
X78975005Y-77852018D01*
X78974999Y-77852000D01*
X78905000Y-77681999D01*
X78835000Y-77532999D01*
X78769201Y-77412683D01*
X78768239Y-77403781D01*
X78771186Y-77398806D01*
X79606723Y-76562286D01*
X79614993Y-76558855D01*
X79623266Y-76562276D01*
G37*
%TD.AperFunction*%
%TD*%
%TA.AperFunction,Conductor*%
%TO.N,+3.3V*%
G36*
X80308255Y-48768290D02*
G01*
X80308909Y-48769001D01*
X80842637Y-49400734D01*
X81055586Y-49652785D01*
X81058308Y-49661316D01*
X81055916Y-49667479D01*
X80923485Y-49839281D01*
X80785295Y-50042555D01*
X80785287Y-50042567D01*
X80647096Y-50269840D01*
X80508897Y-50521126D01*
X80377980Y-50781913D01*
X80371206Y-50787770D01*
X80362275Y-50787120D01*
X80359251Y-50784937D01*
X79665106Y-50090792D01*
X79662726Y-50087357D01*
X79642380Y-50042558D01*
X79610883Y-49973206D01*
X79558162Y-49872235D01*
X79558156Y-49872225D01*
X79558148Y-49872211D01*
X79505445Y-49786383D01*
X79505437Y-49786371D01*
X79452724Y-49715637D01*
X79452718Y-49715629D01*
X79407834Y-49668267D01*
X79404630Y-49659905D01*
X79408052Y-49651947D01*
X80291710Y-48768289D01*
X80299982Y-48764863D01*
X80308255Y-48768290D01*
G37*
%TD.AperFunction*%
%TD*%
%TA.AperFunction,Conductor*%
%TO.N,/I2C_SDA*%
G36*
X75137453Y-68215863D02*
G01*
X75274047Y-68225334D01*
X75275908Y-68225616D01*
X75369460Y-68247711D01*
X75379512Y-68250086D01*
X75380478Y-68250359D01*
X75469994Y-68279797D01*
X75469997Y-68279797D01*
X75470004Y-68279800D01*
X75575008Y-68304600D01*
X75714110Y-68314244D01*
X75722126Y-68318235D01*
X75725000Y-68325916D01*
X75725000Y-68704083D01*
X75721573Y-68712356D01*
X75714109Y-68715755D01*
X75575009Y-68725399D01*
X75469995Y-68750202D01*
X75469994Y-68750202D01*
X75380478Y-68779640D01*
X75379512Y-68779913D01*
X75275917Y-68804381D01*
X75274037Y-68804666D01*
X75137467Y-68814135D01*
X75128977Y-68811289D01*
X75124986Y-68803272D01*
X75124958Y-68802502D01*
X75124882Y-68779800D01*
X75124000Y-68515000D01*
X75124958Y-68227496D01*
X75128412Y-68219235D01*
X75136697Y-68215836D01*
X75137453Y-68215863D01*
G37*
%TD.AperFunction*%
%TD*%
%TA.AperFunction,Conductor*%
%TO.N,/I2C_SDA*%
G36*
X86298389Y-69272996D02*
G01*
X86622711Y-69494024D01*
X86622719Y-69494029D01*
X86955048Y-69681515D01*
X86955073Y-69681528D01*
X87287396Y-69830013D01*
X87287398Y-69830013D01*
X87287401Y-69830015D01*
X87619741Y-69939507D01*
X87938329Y-70007082D01*
X87945710Y-70012151D01*
X87947345Y-70020955D01*
X87946714Y-70022994D01*
X87602562Y-70856215D01*
X87596236Y-70862553D01*
X87596215Y-70862562D01*
X86761306Y-71207412D01*
X86752351Y-71207403D01*
X86746025Y-71201065D01*
X86745837Y-71200579D01*
X86601509Y-70801746D01*
X86601421Y-70801526D01*
X86453015Y-70430401D01*
X86304522Y-70098061D01*
X86304516Y-70098049D01*
X86304514Y-70098044D01*
X86168833Y-69830013D01*
X86156030Y-69804721D01*
X86012087Y-69558172D01*
X86010875Y-69549300D01*
X86013916Y-69544002D01*
X86283528Y-69274390D01*
X86291800Y-69270964D01*
X86298389Y-69272996D01*
G37*
%TD.AperFunction*%
%TD*%
%TA.AperFunction,Conductor*%
%TO.N,/I2C_SCL*%
G36*
X83805046Y-69615515D02*
G01*
X84202375Y-69632328D01*
X84203998Y-69632511D01*
X84489886Y-69685292D01*
X84491850Y-69685836D01*
X84680560Y-69756399D01*
X84732197Y-69775708D01*
X84733105Y-69776092D01*
X85005218Y-69905110D01*
X85256352Y-70017171D01*
X85374892Y-70070066D01*
X85381050Y-70076567D01*
X85380938Y-70085217D01*
X85062853Y-70855511D01*
X85056528Y-70861850D01*
X85056512Y-70861856D01*
X84287381Y-71180035D01*
X84278426Y-71180031D01*
X84272097Y-71173697D01*
X84271528Y-71171939D01*
X84204980Y-70892179D01*
X84192625Y-70840237D01*
X84192312Y-70837883D01*
X84182722Y-70520781D01*
X84166089Y-70258565D01*
X84105020Y-70153426D01*
X84062711Y-70080583D01*
X83801789Y-70017171D01*
X83794559Y-70011887D01*
X83792852Y-70005802D01*
X83792852Y-69627206D01*
X83796279Y-69618933D01*
X83804552Y-69615506D01*
X83805046Y-69615515D01*
G37*
%TD.AperFunction*%
%TD*%
%TA.AperFunction,Conductor*%
%TO.N,/I2C_SCL*%
G36*
X74637453Y-69515863D02*
G01*
X74774047Y-69525334D01*
X74775908Y-69525616D01*
X74869460Y-69547711D01*
X74879512Y-69550086D01*
X74880478Y-69550359D01*
X74969994Y-69579797D01*
X74969997Y-69579797D01*
X74970004Y-69579800D01*
X75075008Y-69604600D01*
X75214110Y-69614244D01*
X75222126Y-69618235D01*
X75225000Y-69625916D01*
X75225000Y-70004083D01*
X75221573Y-70012356D01*
X75214109Y-70015755D01*
X75075009Y-70025399D01*
X74969995Y-70050202D01*
X74969994Y-70050202D01*
X74880478Y-70079640D01*
X74879512Y-70079913D01*
X74775917Y-70104381D01*
X74774037Y-70104666D01*
X74637467Y-70114135D01*
X74628977Y-70111289D01*
X74624986Y-70103272D01*
X74624958Y-70102502D01*
X74624882Y-70079800D01*
X74624000Y-69815000D01*
X74624958Y-69527496D01*
X74628412Y-69519235D01*
X74636697Y-69515836D01*
X74637453Y-69515863D01*
G37*
%TD.AperFunction*%
%TD*%
%TA.AperFunction,Conductor*%
%TO.N,/COMP_BOUT2*%
G36*
X61329484Y-66915863D02*
G01*
X62098642Y-67235438D01*
X62104966Y-67241776D01*
X62104957Y-67250731D01*
X62104585Y-67251537D01*
X61940000Y-67575867D01*
X61939202Y-67577210D01*
X61780755Y-67807209D01*
X61648689Y-68007141D01*
X61648688Y-68007143D01*
X61558424Y-68251416D01*
X61525977Y-68604371D01*
X61521807Y-68612296D01*
X61514326Y-68615000D01*
X61135674Y-68615000D01*
X61127401Y-68611573D01*
X61124023Y-68604371D01*
X61091574Y-68251416D01*
X61091574Y-68251415D01*
X61001311Y-68007143D01*
X60939444Y-67913486D01*
X60869242Y-67807209D01*
X60710796Y-67577210D01*
X60709998Y-67575867D01*
X60545414Y-67251537D01*
X60544726Y-67242608D01*
X60550552Y-67235809D01*
X60551334Y-67235447D01*
X61320511Y-66915864D01*
X61329466Y-66915856D01*
X61329484Y-66915863D01*
G37*
%TD.AperFunction*%
%TD*%
%TA.AperFunction,Conductor*%
%TO.N,/COMP_BOUT2*%
G36*
X61762291Y-70469991D02*
G01*
X61762554Y-70470262D01*
X61917206Y-70635233D01*
X61918581Y-70637016D01*
X62007336Y-70778467D01*
X62008185Y-70780092D01*
X62097533Y-70989350D01*
X62097630Y-70998304D01*
X62091367Y-71004704D01*
X62091284Y-71004740D01*
X61827883Y-71114797D01*
X61823344Y-71115701D01*
X61537945Y-71115030D01*
X61529680Y-71111584D01*
X61526273Y-71103302D01*
X61526335Y-71102123D01*
X61536435Y-71004704D01*
X61540543Y-70965082D01*
X61544187Y-70857638D01*
X61476534Y-70752218D01*
X61474951Y-70743406D01*
X61478107Y-70737629D01*
X61745746Y-70469990D01*
X61754018Y-70466564D01*
X61762291Y-70469991D01*
G37*
%TD.AperFunction*%
%TD*%
%TA.AperFunction,Conductor*%
%TO.N,/COMP_AOUT1*%
G36*
X64200731Y-63595042D02*
G01*
X64201537Y-63595414D01*
X64525867Y-63759998D01*
X64527210Y-63760796D01*
X64757209Y-63919242D01*
X64863486Y-63989444D01*
X64957143Y-64051311D01*
X65201415Y-64141574D01*
X65554372Y-64174023D01*
X65562296Y-64178192D01*
X65565000Y-64185673D01*
X65565000Y-64564326D01*
X65561573Y-64572599D01*
X65554371Y-64575977D01*
X65201416Y-64608424D01*
X64957143Y-64698688D01*
X64957141Y-64698689D01*
X64757209Y-64830755D01*
X64527210Y-64989202D01*
X64525867Y-64990000D01*
X64201537Y-65154585D01*
X64192608Y-65155273D01*
X64185809Y-65149447D01*
X64185443Y-65148655D01*
X63865864Y-64379488D01*
X63865856Y-64370534D01*
X63865865Y-64370511D01*
X63947097Y-64175000D01*
X64185438Y-63601356D01*
X64191776Y-63595033D01*
X64200731Y-63595042D01*
G37*
%TD.AperFunction*%
%TD*%
%TA.AperFunction,Conductor*%
%TO.N,/COMP_AOUT1*%
G36*
X68014701Y-64048639D02*
G01*
X68014860Y-64049001D01*
X68125088Y-64312817D01*
X68125992Y-64317367D01*
X68125040Y-64602770D01*
X68121586Y-64611032D01*
X68113301Y-64614431D01*
X68112784Y-64614418D01*
X67907496Y-64604650D01*
X67906583Y-64604570D01*
X67754891Y-64585370D01*
X67548079Y-64575530D01*
X67539978Y-64571714D01*
X67536935Y-64563843D01*
X67536935Y-64185796D01*
X67540362Y-64177523D01*
X67547696Y-64174134D01*
X67718547Y-64160390D01*
X67841084Y-64115299D01*
X67999194Y-64042874D01*
X68008140Y-64042545D01*
X68014701Y-64048639D01*
G37*
%TD.AperFunction*%
%TD*%
%TA.AperFunction,Conductor*%
%TO.N,VRAIL*%
G36*
X86072019Y-38360404D02*
G01*
X86234169Y-38427673D01*
X86240498Y-38434009D01*
X86240493Y-38442963D01*
X86239709Y-38444515D01*
X86110669Y-38658837D01*
X86109364Y-38660605D01*
X85953284Y-38835005D01*
X85953279Y-38835011D01*
X85830863Y-38984824D01*
X85830862Y-38984825D01*
X85797433Y-39135507D01*
X85902709Y-39305448D01*
X85904153Y-39314285D01*
X85901036Y-39319882D01*
X85492385Y-39728533D01*
X85484112Y-39731960D01*
X85475839Y-39728533D01*
X85475130Y-39727758D01*
X85377955Y-39611195D01*
X85263854Y-39474328D01*
X85262234Y-39471774D01*
X85184801Y-39305448D01*
X85159828Y-39251805D01*
X85158988Y-39249283D01*
X85112888Y-39029856D01*
X85112846Y-39029642D01*
X85064084Y-38770585D01*
X85064083Y-38770584D01*
X85064082Y-38770575D01*
X84956660Y-38443167D01*
X84957337Y-38434240D01*
X84963283Y-38428720D01*
X85594807Y-38166157D01*
X85603760Y-38166146D01*
X86072019Y-38360404D01*
G37*
%TD.AperFunction*%
%TD*%
M02*
