%TF.GenerationSoftware,KiCad,Pcbnew,8.0.9-8.0.9-0~ubuntu24.04.1*%
%TF.CreationDate,2025-03-05T09:12:54+01:00*%
%TF.ProjectId,SpeedometerV1,53706565-646f-46d6-9574-657256312e6b,V2*%
%TF.SameCoordinates,Original*%
%TF.FileFunction,Soldermask,Bot*%
%TF.FilePolarity,Negative*%
%FSLAX46Y46*%
G04 Gerber Fmt 4.6, Leading zero omitted, Abs format (unit mm)*
G04 Created by KiCad (PCBNEW 8.0.9-8.0.9-0~ubuntu24.04.1) date 2025-03-05 09:12:54*
%MOMM*%
%LPD*%
G01*
G04 APERTURE LIST*
G04 Aperture macros list*
%AMRoundRect*
0 Rectangle with rounded corners*
0 $1 Rounding radius*
0 $2 $3 $4 $5 $6 $7 $8 $9 X,Y pos of 4 corners*
0 Add a 4 corners polygon primitive as box body*
4,1,4,$2,$3,$4,$5,$6,$7,$8,$9,$2,$3,0*
0 Add four circle primitives for the rounded corners*
1,1,$1+$1,$2,$3*
1,1,$1+$1,$4,$5*
1,1,$1+$1,$6,$7*
1,1,$1+$1,$8,$9*
0 Add four rect primitives between the rounded corners*
20,1,$1+$1,$2,$3,$4,$5,0*
20,1,$1+$1,$4,$5,$6,$7,0*
20,1,$1+$1,$6,$7,$8,$9,0*
20,1,$1+$1,$8,$9,$2,$3,0*%
G04 Aperture macros list end*
%ADD10R,1.800000X1.800000*%
%ADD11C,1.800000*%
%ADD12R,1.700000X1.700000*%
%ADD13O,1.700000X1.700000*%
%ADD14C,3.200000*%
%ADD15C,1.400000*%
%ADD16O,1.400000X1.400000*%
%ADD17R,1.600000X1.600000*%
%ADD18C,1.600000*%
%ADD19RoundRect,0.250000X-0.350000X-0.625000X0.350000X-0.625000X0.350000X0.625000X-0.350000X0.625000X0*%
%ADD20O,1.200000X1.750000*%
%ADD21RoundRect,0.250000X-0.625000X0.350000X-0.625000X-0.350000X0.625000X-0.350000X0.625000X0.350000X0*%
%ADD22O,1.750000X1.200000*%
G04 APERTURE END LIST*
D10*
%TO.C,Q4*%
X37843750Y-79290000D03*
D11*
X37843750Y-81830000D03*
%TD*%
D12*
%TO.C,J6*%
X87600000Y-70860000D03*
D13*
X87600000Y-73400000D03*
X85060000Y-70860000D03*
X85060000Y-73400000D03*
%TD*%
D12*
%TO.C,J2*%
X39600000Y-47940000D03*
D13*
X39600000Y-45400000D03*
%TD*%
D14*
%TO.C,H1*%
X99600000Y-78400000D03*
%TD*%
%TO.C,H2*%
X99600000Y-43400000D03*
%TD*%
D15*
%TO.C,TH1*%
X85600000Y-38165000D03*
D16*
X83700000Y-38165000D03*
%TD*%
D12*
%TO.C,J8*%
X79615000Y-76555000D03*
D13*
X77075000Y-76555000D03*
X79615000Y-74015000D03*
X77075000Y-74015000D03*
X79615000Y-71475000D03*
X77075000Y-71475000D03*
%TD*%
D17*
%TO.C,C2*%
X75210000Y-39880000D03*
D18*
X79010000Y-39880000D03*
%TD*%
D19*
%TO.C,J9*%
X84000000Y-77400000D03*
D20*
X86000000Y-77400000D03*
X88000000Y-77400000D03*
X90000000Y-77400000D03*
%TD*%
D10*
%TO.C,Q1*%
X92200000Y-54400000D03*
D11*
X92200000Y-51860000D03*
%TD*%
D10*
%TO.C,Q2*%
X37843750Y-72750000D03*
D11*
X37843750Y-75290000D03*
%TD*%
D10*
%TO.C,Q3*%
X80300000Y-48760000D03*
D11*
X77760000Y-48760000D03*
%TD*%
D12*
%TO.C,J1*%
X92325000Y-38275000D03*
D13*
X92325000Y-40815000D03*
X89785000Y-38275000D03*
X89785000Y-40815000D03*
%TD*%
D21*
%TO.C,J4*%
X41850000Y-59600000D03*
D22*
X41850000Y-61600000D03*
%TD*%
D12*
%TO.C,J5*%
X40140000Y-54275000D03*
D13*
X37600000Y-54275000D03*
%TD*%
D12*
%TO.C,J3*%
X63105000Y-82165000D03*
D13*
X65645000Y-82165000D03*
X68185000Y-82165000D03*
X70725000Y-82165000D03*
X73265000Y-82165000D03*
X75805000Y-82165000D03*
%TD*%
D12*
%TO.C,J7*%
X61325000Y-64375000D03*
D13*
X63865000Y-64375000D03*
X61325000Y-66915000D03*
X63865000Y-66915000D03*
%TD*%
M02*
