%TF.GenerationSoftware,KiCad,Pcbnew,8.0.9-8.0.9-0~ubuntu24.04.1*%
%TF.CreationDate,2025-03-05T09:12:24+01:00*%
%TF.ProjectId,SpeedometerV1,53706565-646f-46d6-9574-657256312e6b,V2*%
%TF.SameCoordinates,Original*%
%TF.FileFunction,Drillmap*%
%TF.FilePolarity,Positive*%
%FSLAX45Y45*%
G04 Gerber Fmt 4.5, Leading zero omitted, Abs format (unit mm)*
G04 Created by KiCad (PCBNEW 8.0.9-8.0.9-0~ubuntu24.04.1) date 2025-03-05 09:12:24*
%MOMM*%
%LPD*%
G01*
G04 APERTURE LIST*
%ADD10C,0.050000*%
%ADD11C,0.200000*%
%ADD12C,0.320000*%
G04 APERTURE END LIST*
D10*
X10210000Y-3540000D02*
G75*
G02*
X10310000Y-3640000I0J-100000D01*
G01*
X3510000Y-3640000D02*
G75*
G02*
X3610000Y-3540000I100000J0D01*
G01*
X10210000Y-8440000D02*
X3610000Y-8440000D01*
X3510000Y-8340000D02*
X3510000Y-3640000D01*
X3610000Y-8440000D02*
G75*
G02*
X3510000Y-8340000I0J100000D01*
G01*
X10310000Y-3640000D02*
X10310000Y-8340000D01*
X3610000Y-3540000D02*
X10210000Y-3540000D01*
X10310000Y-8340000D02*
G75*
G02*
X10210000Y-8440000I-100000J0D01*
G01*
D11*
D12*
X9800000Y-4180000D02*
X10120000Y-4500000D01*
X10120000Y-4180000D02*
X9800000Y-4500000D01*
X9800000Y-7680000D02*
X10120000Y-8000000D01*
X10120000Y-7680000D02*
X9800000Y-8000000D01*
D11*
X3768277Y-8753984D02*
X3768277Y-8553984D01*
X3768277Y-8553984D02*
X3815896Y-8553984D01*
X3815896Y-8553984D02*
X3844467Y-8563508D01*
X3844467Y-8563508D02*
X3863515Y-8582555D01*
X3863515Y-8582555D02*
X3873039Y-8601603D01*
X3873039Y-8601603D02*
X3882562Y-8639698D01*
X3882562Y-8639698D02*
X3882562Y-8668270D01*
X3882562Y-8668270D02*
X3873039Y-8706365D01*
X3873039Y-8706365D02*
X3863515Y-8725412D01*
X3863515Y-8725412D02*
X3844467Y-8744460D01*
X3844467Y-8744460D02*
X3815896Y-8753984D01*
X3815896Y-8753984D02*
X3768277Y-8753984D01*
X3968277Y-8753984D02*
X3968277Y-8620650D01*
X3968277Y-8658746D02*
X3977801Y-8639698D01*
X3977801Y-8639698D02*
X3987324Y-8630174D01*
X3987324Y-8630174D02*
X4006372Y-8620650D01*
X4006372Y-8620650D02*
X4025420Y-8620650D01*
X4092086Y-8753984D02*
X4092086Y-8620650D01*
X4092086Y-8553984D02*
X4082562Y-8563508D01*
X4082562Y-8563508D02*
X4092086Y-8573031D01*
X4092086Y-8573031D02*
X4101610Y-8563508D01*
X4101610Y-8563508D02*
X4092086Y-8553984D01*
X4092086Y-8553984D02*
X4092086Y-8573031D01*
X4215896Y-8753984D02*
X4196848Y-8744460D01*
X4196848Y-8744460D02*
X4187324Y-8725412D01*
X4187324Y-8725412D02*
X4187324Y-8553984D01*
X4320658Y-8753984D02*
X4301610Y-8744460D01*
X4301610Y-8744460D02*
X4292086Y-8725412D01*
X4292086Y-8725412D02*
X4292086Y-8553984D01*
X4549229Y-8753984D02*
X4549229Y-8553984D01*
X4549229Y-8553984D02*
X4615896Y-8696841D01*
X4615896Y-8696841D02*
X4682563Y-8553984D01*
X4682563Y-8553984D02*
X4682563Y-8753984D01*
X4863515Y-8753984D02*
X4863515Y-8649222D01*
X4863515Y-8649222D02*
X4853991Y-8630174D01*
X4853991Y-8630174D02*
X4834944Y-8620650D01*
X4834944Y-8620650D02*
X4796848Y-8620650D01*
X4796848Y-8620650D02*
X4777801Y-8630174D01*
X4863515Y-8744460D02*
X4844467Y-8753984D01*
X4844467Y-8753984D02*
X4796848Y-8753984D01*
X4796848Y-8753984D02*
X4777801Y-8744460D01*
X4777801Y-8744460D02*
X4768277Y-8725412D01*
X4768277Y-8725412D02*
X4768277Y-8706365D01*
X4768277Y-8706365D02*
X4777801Y-8687317D01*
X4777801Y-8687317D02*
X4796848Y-8677793D01*
X4796848Y-8677793D02*
X4844467Y-8677793D01*
X4844467Y-8677793D02*
X4863515Y-8668270D01*
X4958753Y-8620650D02*
X4958753Y-8820650D01*
X4958753Y-8630174D02*
X4977801Y-8620650D01*
X4977801Y-8620650D02*
X5015896Y-8620650D01*
X5015896Y-8620650D02*
X5034944Y-8630174D01*
X5034944Y-8630174D02*
X5044467Y-8639698D01*
X5044467Y-8639698D02*
X5053991Y-8658746D01*
X5053991Y-8658746D02*
X5053991Y-8715889D01*
X5053991Y-8715889D02*
X5044467Y-8734936D01*
X5044467Y-8734936D02*
X5034944Y-8744460D01*
X5034944Y-8744460D02*
X5015896Y-8753984D01*
X5015896Y-8753984D02*
X4977801Y-8753984D01*
X4977801Y-8753984D02*
X4958753Y-8744460D01*
X5139705Y-8734936D02*
X5149229Y-8744460D01*
X5149229Y-8744460D02*
X5139705Y-8753984D01*
X5139705Y-8753984D02*
X5130182Y-8744460D01*
X5130182Y-8744460D02*
X5139705Y-8734936D01*
X5139705Y-8734936D02*
X5139705Y-8753984D01*
X5139705Y-8630174D02*
X5149229Y-8639698D01*
X5149229Y-8639698D02*
X5139705Y-8649222D01*
X5139705Y-8649222D02*
X5130182Y-8639698D01*
X5130182Y-8639698D02*
X5139705Y-8630174D01*
X5139705Y-8630174D02*
X5139705Y-8649222D01*
X3307500Y-8982500D02*
X3507500Y-9182500D01*
X3507500Y-8982500D02*
X3307500Y-9182500D01*
X3749229Y-8973984D02*
X3873039Y-8973984D01*
X3873039Y-8973984D02*
X3806372Y-9050174D01*
X3806372Y-9050174D02*
X3834943Y-9050174D01*
X3834943Y-9050174D02*
X3853991Y-9059698D01*
X3853991Y-9059698D02*
X3863515Y-9069222D01*
X3863515Y-9069222D02*
X3873039Y-9088270D01*
X3873039Y-9088270D02*
X3873039Y-9135889D01*
X3873039Y-9135889D02*
X3863515Y-9154936D01*
X3863515Y-9154936D02*
X3853991Y-9164460D01*
X3853991Y-9164460D02*
X3834943Y-9173984D01*
X3834943Y-9173984D02*
X3777801Y-9173984D01*
X3777801Y-9173984D02*
X3758753Y-9164460D01*
X3758753Y-9164460D02*
X3749229Y-9154936D01*
X3958753Y-9154936D02*
X3968277Y-9164460D01*
X3968277Y-9164460D02*
X3958753Y-9173984D01*
X3958753Y-9173984D02*
X3949229Y-9164460D01*
X3949229Y-9164460D02*
X3958753Y-9154936D01*
X3958753Y-9154936D02*
X3958753Y-9173984D01*
X4044467Y-8993031D02*
X4053991Y-8983508D01*
X4053991Y-8983508D02*
X4073039Y-8973984D01*
X4073039Y-8973984D02*
X4120658Y-8973984D01*
X4120658Y-8973984D02*
X4139705Y-8983508D01*
X4139705Y-8983508D02*
X4149229Y-8993031D01*
X4149229Y-8993031D02*
X4158753Y-9012079D01*
X4158753Y-9012079D02*
X4158753Y-9031127D01*
X4158753Y-9031127D02*
X4149229Y-9059698D01*
X4149229Y-9059698D02*
X4034943Y-9173984D01*
X4034943Y-9173984D02*
X4158753Y-9173984D01*
X4282563Y-8973984D02*
X4301610Y-8973984D01*
X4301610Y-8973984D02*
X4320658Y-8983508D01*
X4320658Y-8983508D02*
X4330182Y-8993031D01*
X4330182Y-8993031D02*
X4339705Y-9012079D01*
X4339705Y-9012079D02*
X4349229Y-9050174D01*
X4349229Y-9050174D02*
X4349229Y-9097793D01*
X4349229Y-9097793D02*
X4339705Y-9135889D01*
X4339705Y-9135889D02*
X4330182Y-9154936D01*
X4330182Y-9154936D02*
X4320658Y-9164460D01*
X4320658Y-9164460D02*
X4301610Y-9173984D01*
X4301610Y-9173984D02*
X4282563Y-9173984D01*
X4282563Y-9173984D02*
X4263515Y-9164460D01*
X4263515Y-9164460D02*
X4253991Y-9154936D01*
X4253991Y-9154936D02*
X4244467Y-9135889D01*
X4244467Y-9135889D02*
X4234944Y-9097793D01*
X4234944Y-9097793D02*
X4234944Y-9050174D01*
X4234944Y-9050174D02*
X4244467Y-9012079D01*
X4244467Y-9012079D02*
X4253991Y-8993031D01*
X4253991Y-8993031D02*
X4263515Y-8983508D01*
X4263515Y-8983508D02*
X4282563Y-8973984D01*
X4473039Y-8973984D02*
X4492086Y-8973984D01*
X4492086Y-8973984D02*
X4511134Y-8983508D01*
X4511134Y-8983508D02*
X4520658Y-8993031D01*
X4520658Y-8993031D02*
X4530182Y-9012079D01*
X4530182Y-9012079D02*
X4539705Y-9050174D01*
X4539705Y-9050174D02*
X4539705Y-9097793D01*
X4539705Y-9097793D02*
X4530182Y-9135889D01*
X4530182Y-9135889D02*
X4520658Y-9154936D01*
X4520658Y-9154936D02*
X4511134Y-9164460D01*
X4511134Y-9164460D02*
X4492086Y-9173984D01*
X4492086Y-9173984D02*
X4473039Y-9173984D01*
X4473039Y-9173984D02*
X4453991Y-9164460D01*
X4453991Y-9164460D02*
X4444467Y-9154936D01*
X4444467Y-9154936D02*
X4434944Y-9135889D01*
X4434944Y-9135889D02*
X4425420Y-9097793D01*
X4425420Y-9097793D02*
X4425420Y-9050174D01*
X4425420Y-9050174D02*
X4434944Y-9012079D01*
X4434944Y-9012079D02*
X4444467Y-8993031D01*
X4444467Y-8993031D02*
X4453991Y-8983508D01*
X4453991Y-8983508D02*
X4473039Y-8973984D01*
X4625420Y-9173984D02*
X4625420Y-9040650D01*
X4625420Y-9059698D02*
X4634944Y-9050174D01*
X4634944Y-9050174D02*
X4653991Y-9040650D01*
X4653991Y-9040650D02*
X4682563Y-9040650D01*
X4682563Y-9040650D02*
X4701610Y-9050174D01*
X4701610Y-9050174D02*
X4711134Y-9069222D01*
X4711134Y-9069222D02*
X4711134Y-9173984D01*
X4711134Y-9069222D02*
X4720658Y-9050174D01*
X4720658Y-9050174D02*
X4739705Y-9040650D01*
X4739705Y-9040650D02*
X4768277Y-9040650D01*
X4768277Y-9040650D02*
X4787325Y-9050174D01*
X4787325Y-9050174D02*
X4796848Y-9069222D01*
X4796848Y-9069222D02*
X4796848Y-9173984D01*
X4892086Y-9173984D02*
X4892086Y-9040650D01*
X4892086Y-9059698D02*
X4901610Y-9050174D01*
X4901610Y-9050174D02*
X4920658Y-9040650D01*
X4920658Y-9040650D02*
X4949229Y-9040650D01*
X4949229Y-9040650D02*
X4968277Y-9050174D01*
X4968277Y-9050174D02*
X4977801Y-9069222D01*
X4977801Y-9069222D02*
X4977801Y-9173984D01*
X4977801Y-9069222D02*
X4987325Y-9050174D01*
X4987325Y-9050174D02*
X5006372Y-9040650D01*
X5006372Y-9040650D02*
X5034944Y-9040650D01*
X5034944Y-9040650D02*
X5053991Y-9050174D01*
X5053991Y-9050174D02*
X5063515Y-9069222D01*
X5063515Y-9069222D02*
X5063515Y-9173984D01*
X5453991Y-8964460D02*
X5282563Y-9221603D01*
X5711134Y-8973984D02*
X5730182Y-8973984D01*
X5730182Y-8973984D02*
X5749229Y-8983508D01*
X5749229Y-8983508D02*
X5758753Y-8993031D01*
X5758753Y-8993031D02*
X5768277Y-9012079D01*
X5768277Y-9012079D02*
X5777801Y-9050174D01*
X5777801Y-9050174D02*
X5777801Y-9097793D01*
X5777801Y-9097793D02*
X5768277Y-9135889D01*
X5768277Y-9135889D02*
X5758753Y-9154936D01*
X5758753Y-9154936D02*
X5749229Y-9164460D01*
X5749229Y-9164460D02*
X5730182Y-9173984D01*
X5730182Y-9173984D02*
X5711134Y-9173984D01*
X5711134Y-9173984D02*
X5692086Y-9164460D01*
X5692086Y-9164460D02*
X5682563Y-9154936D01*
X5682563Y-9154936D02*
X5673039Y-9135889D01*
X5673039Y-9135889D02*
X5663515Y-9097793D01*
X5663515Y-9097793D02*
X5663515Y-9050174D01*
X5663515Y-9050174D02*
X5673039Y-9012079D01*
X5673039Y-9012079D02*
X5682563Y-8993031D01*
X5682563Y-8993031D02*
X5692086Y-8983508D01*
X5692086Y-8983508D02*
X5711134Y-8973984D01*
X5863515Y-9154936D02*
X5873039Y-9164460D01*
X5873039Y-9164460D02*
X5863515Y-9173984D01*
X5863515Y-9173984D02*
X5853991Y-9164460D01*
X5853991Y-9164460D02*
X5863515Y-9154936D01*
X5863515Y-9154936D02*
X5863515Y-9173984D01*
X6063515Y-9173984D02*
X5949229Y-9173984D01*
X6006372Y-9173984D02*
X6006372Y-8973984D01*
X6006372Y-8973984D02*
X5987325Y-9002555D01*
X5987325Y-9002555D02*
X5968277Y-9021603D01*
X5968277Y-9021603D02*
X5949229Y-9031127D01*
X6139706Y-8993031D02*
X6149229Y-8983508D01*
X6149229Y-8983508D02*
X6168277Y-8973984D01*
X6168277Y-8973984D02*
X6215896Y-8973984D01*
X6215896Y-8973984D02*
X6234944Y-8983508D01*
X6234944Y-8983508D02*
X6244467Y-8993031D01*
X6244467Y-8993031D02*
X6253991Y-9012079D01*
X6253991Y-9012079D02*
X6253991Y-9031127D01*
X6253991Y-9031127D02*
X6244467Y-9059698D01*
X6244467Y-9059698D02*
X6130182Y-9173984D01*
X6130182Y-9173984D02*
X6253991Y-9173984D01*
X6425420Y-8973984D02*
X6387325Y-8973984D01*
X6387325Y-8973984D02*
X6368277Y-8983508D01*
X6368277Y-8983508D02*
X6358753Y-8993031D01*
X6358753Y-8993031D02*
X6339706Y-9021603D01*
X6339706Y-9021603D02*
X6330182Y-9059698D01*
X6330182Y-9059698D02*
X6330182Y-9135889D01*
X6330182Y-9135889D02*
X6339706Y-9154936D01*
X6339706Y-9154936D02*
X6349229Y-9164460D01*
X6349229Y-9164460D02*
X6368277Y-9173984D01*
X6368277Y-9173984D02*
X6406372Y-9173984D01*
X6406372Y-9173984D02*
X6425420Y-9164460D01*
X6425420Y-9164460D02*
X6434944Y-9154936D01*
X6434944Y-9154936D02*
X6444467Y-9135889D01*
X6444467Y-9135889D02*
X6444467Y-9088270D01*
X6444467Y-9088270D02*
X6434944Y-9069222D01*
X6434944Y-9069222D02*
X6425420Y-9059698D01*
X6425420Y-9059698D02*
X6406372Y-9050174D01*
X6406372Y-9050174D02*
X6368277Y-9050174D01*
X6368277Y-9050174D02*
X6349229Y-9059698D01*
X6349229Y-9059698D02*
X6339706Y-9069222D01*
X6339706Y-9069222D02*
X6330182Y-9088270D01*
X6568277Y-8973984D02*
X6587325Y-8973984D01*
X6587325Y-8973984D02*
X6606372Y-8983508D01*
X6606372Y-8983508D02*
X6615896Y-8993031D01*
X6615896Y-8993031D02*
X6625420Y-9012079D01*
X6625420Y-9012079D02*
X6634944Y-9050174D01*
X6634944Y-9050174D02*
X6634944Y-9097793D01*
X6634944Y-9097793D02*
X6625420Y-9135889D01*
X6625420Y-9135889D02*
X6615896Y-9154936D01*
X6615896Y-9154936D02*
X6606372Y-9164460D01*
X6606372Y-9164460D02*
X6587325Y-9173984D01*
X6587325Y-9173984D02*
X6568277Y-9173984D01*
X6568277Y-9173984D02*
X6549229Y-9164460D01*
X6549229Y-9164460D02*
X6539706Y-9154936D01*
X6539706Y-9154936D02*
X6530182Y-9135889D01*
X6530182Y-9135889D02*
X6520658Y-9097793D01*
X6520658Y-9097793D02*
X6520658Y-9050174D01*
X6520658Y-9050174D02*
X6530182Y-9012079D01*
X6530182Y-9012079D02*
X6539706Y-8993031D01*
X6539706Y-8993031D02*
X6549229Y-8983508D01*
X6549229Y-8983508D02*
X6568277Y-8973984D01*
X6711134Y-8973984D02*
X6711134Y-9012079D01*
X6787325Y-8973984D02*
X6787325Y-9012079D01*
X7082563Y-9250174D02*
X7073039Y-9240650D01*
X7073039Y-9240650D02*
X7053991Y-9212079D01*
X7053991Y-9212079D02*
X7044468Y-9193031D01*
X7044468Y-9193031D02*
X7034944Y-9164460D01*
X7034944Y-9164460D02*
X7025420Y-9116841D01*
X7025420Y-9116841D02*
X7025420Y-9078746D01*
X7025420Y-9078746D02*
X7034944Y-9031127D01*
X7034944Y-9031127D02*
X7044468Y-9002555D01*
X7044468Y-9002555D02*
X7053991Y-8983508D01*
X7053991Y-8983508D02*
X7073039Y-8954936D01*
X7073039Y-8954936D02*
X7082563Y-8945412D01*
X7149229Y-8993031D02*
X7158753Y-8983508D01*
X7158753Y-8983508D02*
X7177801Y-8973984D01*
X7177801Y-8973984D02*
X7225420Y-8973984D01*
X7225420Y-8973984D02*
X7244468Y-8983508D01*
X7244468Y-8983508D02*
X7253991Y-8993031D01*
X7253991Y-8993031D02*
X7263515Y-9012079D01*
X7263515Y-9012079D02*
X7263515Y-9031127D01*
X7263515Y-9031127D02*
X7253991Y-9059698D01*
X7253991Y-9059698D02*
X7139706Y-9173984D01*
X7139706Y-9173984D02*
X7263515Y-9173984D01*
X7501610Y-9173984D02*
X7501610Y-8973984D01*
X7587325Y-9173984D02*
X7587325Y-9069222D01*
X7587325Y-9069222D02*
X7577801Y-9050174D01*
X7577801Y-9050174D02*
X7558753Y-9040650D01*
X7558753Y-9040650D02*
X7530182Y-9040650D01*
X7530182Y-9040650D02*
X7511134Y-9050174D01*
X7511134Y-9050174D02*
X7501610Y-9059698D01*
X7711134Y-9173984D02*
X7692087Y-9164460D01*
X7692087Y-9164460D02*
X7682563Y-9154936D01*
X7682563Y-9154936D02*
X7673039Y-9135889D01*
X7673039Y-9135889D02*
X7673039Y-9078746D01*
X7673039Y-9078746D02*
X7682563Y-9059698D01*
X7682563Y-9059698D02*
X7692087Y-9050174D01*
X7692087Y-9050174D02*
X7711134Y-9040650D01*
X7711134Y-9040650D02*
X7739706Y-9040650D01*
X7739706Y-9040650D02*
X7758753Y-9050174D01*
X7758753Y-9050174D02*
X7768277Y-9059698D01*
X7768277Y-9059698D02*
X7777801Y-9078746D01*
X7777801Y-9078746D02*
X7777801Y-9135889D01*
X7777801Y-9135889D02*
X7768277Y-9154936D01*
X7768277Y-9154936D02*
X7758753Y-9164460D01*
X7758753Y-9164460D02*
X7739706Y-9173984D01*
X7739706Y-9173984D02*
X7711134Y-9173984D01*
X7892087Y-9173984D02*
X7873039Y-9164460D01*
X7873039Y-9164460D02*
X7863515Y-9145412D01*
X7863515Y-9145412D02*
X7863515Y-8973984D01*
X8044468Y-9164460D02*
X8025420Y-9173984D01*
X8025420Y-9173984D02*
X7987325Y-9173984D01*
X7987325Y-9173984D02*
X7968277Y-9164460D01*
X7968277Y-9164460D02*
X7958753Y-9145412D01*
X7958753Y-9145412D02*
X7958753Y-9069222D01*
X7958753Y-9069222D02*
X7968277Y-9050174D01*
X7968277Y-9050174D02*
X7987325Y-9040650D01*
X7987325Y-9040650D02*
X8025420Y-9040650D01*
X8025420Y-9040650D02*
X8044468Y-9050174D01*
X8044468Y-9050174D02*
X8053991Y-9069222D01*
X8053991Y-9069222D02*
X8053991Y-9088270D01*
X8053991Y-9088270D02*
X7958753Y-9107317D01*
X8130182Y-9164460D02*
X8149230Y-9173984D01*
X8149230Y-9173984D02*
X8187325Y-9173984D01*
X8187325Y-9173984D02*
X8206372Y-9164460D01*
X8206372Y-9164460D02*
X8215896Y-9145412D01*
X8215896Y-9145412D02*
X8215896Y-9135889D01*
X8215896Y-9135889D02*
X8206372Y-9116841D01*
X8206372Y-9116841D02*
X8187325Y-9107317D01*
X8187325Y-9107317D02*
X8158753Y-9107317D01*
X8158753Y-9107317D02*
X8139706Y-9097793D01*
X8139706Y-9097793D02*
X8130182Y-9078746D01*
X8130182Y-9078746D02*
X8130182Y-9069222D01*
X8130182Y-9069222D02*
X8139706Y-9050174D01*
X8139706Y-9050174D02*
X8158753Y-9040650D01*
X8158753Y-9040650D02*
X8187325Y-9040650D01*
X8187325Y-9040650D02*
X8206372Y-9050174D01*
X8282563Y-9250174D02*
X8292087Y-9240650D01*
X8292087Y-9240650D02*
X8311134Y-9212079D01*
X8311134Y-9212079D02*
X8320658Y-9193031D01*
X8320658Y-9193031D02*
X8330182Y-9164460D01*
X8330182Y-9164460D02*
X8339706Y-9116841D01*
X8339706Y-9116841D02*
X8339706Y-9078746D01*
X8339706Y-9078746D02*
X8330182Y-9031127D01*
X8330182Y-9031127D02*
X8320658Y-9002555D01*
X8320658Y-9002555D02*
X8311134Y-8983508D01*
X8311134Y-8983508D02*
X8292087Y-8954936D01*
X8292087Y-8954936D02*
X8282563Y-8945412D01*
X8644468Y-9250174D02*
X8634944Y-9240650D01*
X8634944Y-9240650D02*
X8615896Y-9212079D01*
X8615896Y-9212079D02*
X8606373Y-9193031D01*
X8606373Y-9193031D02*
X8596849Y-9164460D01*
X8596849Y-9164460D02*
X8587325Y-9116841D01*
X8587325Y-9116841D02*
X8587325Y-9078746D01*
X8587325Y-9078746D02*
X8596849Y-9031127D01*
X8596849Y-9031127D02*
X8606373Y-9002555D01*
X8606373Y-9002555D02*
X8615896Y-8983508D01*
X8615896Y-8983508D02*
X8634944Y-8954936D01*
X8634944Y-8954936D02*
X8644468Y-8945412D01*
X8720658Y-9040650D02*
X8720658Y-9173984D01*
X8720658Y-9059698D02*
X8730182Y-9050174D01*
X8730182Y-9050174D02*
X8749230Y-9040650D01*
X8749230Y-9040650D02*
X8777801Y-9040650D01*
X8777801Y-9040650D02*
X8796849Y-9050174D01*
X8796849Y-9050174D02*
X8806373Y-9069222D01*
X8806373Y-9069222D02*
X8806373Y-9173984D01*
X8930182Y-9173984D02*
X8911134Y-9164460D01*
X8911134Y-9164460D02*
X8901611Y-9154936D01*
X8901611Y-9154936D02*
X8892087Y-9135889D01*
X8892087Y-9135889D02*
X8892087Y-9078746D01*
X8892087Y-9078746D02*
X8901611Y-9059698D01*
X8901611Y-9059698D02*
X8911134Y-9050174D01*
X8911134Y-9050174D02*
X8930182Y-9040650D01*
X8930182Y-9040650D02*
X8958754Y-9040650D01*
X8958754Y-9040650D02*
X8977801Y-9050174D01*
X8977801Y-9050174D02*
X8987325Y-9059698D01*
X8987325Y-9059698D02*
X8996849Y-9078746D01*
X8996849Y-9078746D02*
X8996849Y-9135889D01*
X8996849Y-9135889D02*
X8987325Y-9154936D01*
X8987325Y-9154936D02*
X8977801Y-9164460D01*
X8977801Y-9164460D02*
X8958754Y-9173984D01*
X8958754Y-9173984D02*
X8930182Y-9173984D01*
X9053992Y-9040650D02*
X9130182Y-9040650D01*
X9082563Y-8973984D02*
X9082563Y-9145412D01*
X9082563Y-9145412D02*
X9092087Y-9164460D01*
X9092087Y-9164460D02*
X9111134Y-9173984D01*
X9111134Y-9173984D02*
X9130182Y-9173984D01*
X9349230Y-9040650D02*
X9349230Y-9240650D01*
X9349230Y-9050174D02*
X9368277Y-9040650D01*
X9368277Y-9040650D02*
X9406373Y-9040650D01*
X9406373Y-9040650D02*
X9425420Y-9050174D01*
X9425420Y-9050174D02*
X9434944Y-9059698D01*
X9434944Y-9059698D02*
X9444468Y-9078746D01*
X9444468Y-9078746D02*
X9444468Y-9135889D01*
X9444468Y-9135889D02*
X9434944Y-9154936D01*
X9434944Y-9154936D02*
X9425420Y-9164460D01*
X9425420Y-9164460D02*
X9406373Y-9173984D01*
X9406373Y-9173984D02*
X9368277Y-9173984D01*
X9368277Y-9173984D02*
X9349230Y-9164460D01*
X9558754Y-9173984D02*
X9539706Y-9164460D01*
X9539706Y-9164460D02*
X9530182Y-9145412D01*
X9530182Y-9145412D02*
X9530182Y-8973984D01*
X9720658Y-9173984D02*
X9720658Y-9069222D01*
X9720658Y-9069222D02*
X9711135Y-9050174D01*
X9711135Y-9050174D02*
X9692087Y-9040650D01*
X9692087Y-9040650D02*
X9653992Y-9040650D01*
X9653992Y-9040650D02*
X9634944Y-9050174D01*
X9720658Y-9164460D02*
X9701611Y-9173984D01*
X9701611Y-9173984D02*
X9653992Y-9173984D01*
X9653992Y-9173984D02*
X9634944Y-9164460D01*
X9634944Y-9164460D02*
X9625420Y-9145412D01*
X9625420Y-9145412D02*
X9625420Y-9126365D01*
X9625420Y-9126365D02*
X9634944Y-9107317D01*
X9634944Y-9107317D02*
X9653992Y-9097793D01*
X9653992Y-9097793D02*
X9701611Y-9097793D01*
X9701611Y-9097793D02*
X9720658Y-9088270D01*
X9787325Y-9040650D02*
X9863515Y-9040650D01*
X9815896Y-8973984D02*
X9815896Y-9145412D01*
X9815896Y-9145412D02*
X9825420Y-9164460D01*
X9825420Y-9164460D02*
X9844468Y-9173984D01*
X9844468Y-9173984D02*
X9863515Y-9173984D01*
X10006373Y-9164460D02*
X9987325Y-9173984D01*
X9987325Y-9173984D02*
X9949230Y-9173984D01*
X9949230Y-9173984D02*
X9930182Y-9164460D01*
X9930182Y-9164460D02*
X9920658Y-9145412D01*
X9920658Y-9145412D02*
X9920658Y-9069222D01*
X9920658Y-9069222D02*
X9930182Y-9050174D01*
X9930182Y-9050174D02*
X9949230Y-9040650D01*
X9949230Y-9040650D02*
X9987325Y-9040650D01*
X9987325Y-9040650D02*
X10006373Y-9050174D01*
X10006373Y-9050174D02*
X10015896Y-9069222D01*
X10015896Y-9069222D02*
X10015896Y-9088270D01*
X10015896Y-9088270D02*
X9920658Y-9107317D01*
X10187325Y-9173984D02*
X10187325Y-8973984D01*
X10187325Y-9164460D02*
X10168277Y-9173984D01*
X10168277Y-9173984D02*
X10130182Y-9173984D01*
X10130182Y-9173984D02*
X10111135Y-9164460D01*
X10111135Y-9164460D02*
X10101611Y-9154936D01*
X10101611Y-9154936D02*
X10092087Y-9135889D01*
X10092087Y-9135889D02*
X10092087Y-9078746D01*
X10092087Y-9078746D02*
X10101611Y-9059698D01*
X10101611Y-9059698D02*
X10111135Y-9050174D01*
X10111135Y-9050174D02*
X10130182Y-9040650D01*
X10130182Y-9040650D02*
X10168277Y-9040650D01*
X10168277Y-9040650D02*
X10187325Y-9050174D01*
X10263516Y-9250174D02*
X10273039Y-9240650D01*
X10273039Y-9240650D02*
X10292087Y-9212079D01*
X10292087Y-9212079D02*
X10301611Y-9193031D01*
X10301611Y-9193031D02*
X10311135Y-9164460D01*
X10311135Y-9164460D02*
X10320658Y-9116841D01*
X10320658Y-9116841D02*
X10320658Y-9078746D01*
X10320658Y-9078746D02*
X10311135Y-9031127D01*
X10311135Y-9031127D02*
X10301611Y-9002555D01*
X10301611Y-9002555D02*
X10292087Y-8983508D01*
X10292087Y-8983508D02*
X10273039Y-8954936D01*
X10273039Y-8954936D02*
X10263516Y-8945412D01*
M02*
