%TF.GenerationSoftware,KiCad,Pcbnew,8.0.9-8.0.9-0~ubuntu24.04.1*%
%TF.CreationDate,2025-04-13T18:37:49+02:00*%
%TF.ProjectId,FastLapLights5V,46617374-4c61-4704-9c69-676874733556,MK4*%
%TF.SameCoordinates,Original*%
%TF.FileFunction,Copper,L2,Inr*%
%TF.FilePolarity,Positive*%
%FSLAX46Y46*%
G04 Gerber Fmt 4.6, Leading zero omitted, Abs format (unit mm)*
G04 Created by KiCad (PCBNEW 8.0.9-8.0.9-0~ubuntu24.04.1) date 2025-04-13 18:37:49*
%MOMM*%
%LPD*%
G01*
G04 APERTURE LIST*
%TA.AperFunction,ComponentPad*%
%ADD10R,1.700000X1.700000*%
%TD*%
%TA.AperFunction,ComponentPad*%
%ADD11O,1.700000X1.700000*%
%TD*%
%TA.AperFunction,ViaPad*%
%ADD12C,1.000000*%
%TD*%
%TA.AperFunction,ViaPad*%
%ADD13C,0.700000*%
%TD*%
%TA.AperFunction,ViaPad*%
%ADD14C,0.600000*%
%TD*%
G04 APERTURE END LIST*
D10*
%TO.N,+5V*%
%TO.C,J4*%
X44860000Y-116620000D03*
D11*
%TO.N,/START_LIGHTS_5V*%
X47400000Y-116620000D03*
%TO.N,/TRACK_LIGHTS_G*%
X44860000Y-119160000D03*
%TO.N,/TRACK_LIGHTS_R*%
X47400000Y-119160000D03*
%TO.N,/IO_POWER_RAIL_INT*%
X44860000Y-121700000D03*
%TO.N,/IO_POWER_RAIL_DATA*%
X47400000Y-121700000D03*
%TO.N,GND*%
X44860000Y-124240000D03*
%TO.N,+3.3V*%
X47400000Y-124240000D03*
%TD*%
D10*
%TO.N,VRAIL*%
%TO.C,J1*%
X45000000Y-89125000D03*
D11*
%TO.N,GND*%
X45000000Y-91665000D03*
%TD*%
D10*
%TO.N,/I2C_SDA*%
%TO.C,J3*%
X67500000Y-124600000D03*
D11*
%TO.N,/I2C_SCL*%
X67500000Y-122060000D03*
%TD*%
D10*
%TO.N,GND*%
%TO.C,J2*%
X66740000Y-115760000D03*
D11*
%TO.N,/SWD_SWCLK*%
X66740000Y-118300000D03*
%TO.N,+3.3V*%
X64200000Y-115760000D03*
%TO.N,/SWD_SWDIO*%
X64200000Y-118300000D03*
%TO.N,+3.3V*%
X61660000Y-115760000D03*
%TO.N,/SWD_NRST*%
X61660000Y-118300000D03*
%TD*%
D12*
%TO.N,GND*%
X53400000Y-117000000D03*
X45000000Y-107300000D03*
X54300000Y-98300000D03*
X64000000Y-104200000D03*
X45000000Y-93800000D03*
X68500000Y-104200000D03*
X50600000Y-125300000D03*
X50200000Y-107625000D03*
X62500000Y-104200000D03*
X61000000Y-113200000D03*
X57100000Y-91875000D03*
X61500000Y-108700000D03*
X55925000Y-90700000D03*
X54200000Y-121900000D03*
X61500000Y-110200000D03*
X67000000Y-104200000D03*
X52025000Y-110200000D03*
X56200000Y-120900000D03*
X54825000Y-111950000D03*
D13*
X55300000Y-117500000D03*
D12*
X65500000Y-104200000D03*
X56225000Y-96450000D03*
X64000000Y-113200000D03*
X68500000Y-113200000D03*
X53100000Y-114000000D03*
X56050000Y-100750000D03*
X62500000Y-113200000D03*
D14*
X48900000Y-122200000D03*
D12*
X55700000Y-123200000D03*
X59500000Y-118700000D03*
X58800000Y-112600000D03*
X57000000Y-109375000D03*
X59500000Y-117200000D03*
X46600000Y-107400000D03*
X50900000Y-119700000D03*
X58200000Y-103900000D03*
X67000000Y-113200000D03*
X65500000Y-113200000D03*
X61000000Y-104200000D03*
X61500000Y-107200000D03*
%TO.N,+3.3V*%
X66112792Y-120200000D03*
%TO.N,/I2C_SDA*%
X57800000Y-120900000D03*
%TO.N,/I2C_SCL*%
X59200000Y-121000000D03*
%TO.N,VRAIL*%
X47100000Y-110600000D03*
%TO.N,/IO_POWER_RAIL_DATA*%
X45600000Y-111200000D03*
%TO.N,/VRAIL_CAP*%
X53075000Y-99350000D03*
X57000000Y-104850000D03*
D14*
%TO.N,/IO_POWER_RAIL_INT*%
X53000000Y-120900000D03*
D12*
%TO.N,+5V*%
X51900000Y-94700000D03*
X50500000Y-118500000D03*
X48625000Y-110300000D03*
X59500000Y-102450000D03*
X54845000Y-107395000D03*
%TO.N,Net-(JP1-A)*%
X64500000Y-125300000D03*
%TO.N,Net-(JP1-B)*%
X59800000Y-124900000D03*
%TD*%
%TA.AperFunction,Conductor*%
%TO.N,GND*%
G36*
X69242539Y-87220185D02*
G01*
X69288294Y-87272989D01*
X69299500Y-87324500D01*
X69299500Y-126075500D01*
X69279815Y-126142539D01*
X69227011Y-126188294D01*
X69175500Y-126199500D01*
X64794808Y-126199500D01*
X64727769Y-126179815D01*
X64682014Y-126127011D01*
X64672070Y-126057853D01*
X64701095Y-125994297D01*
X64744101Y-125964261D01*
X64743584Y-125963276D01*
X64900849Y-125880736D01*
X64900850Y-125880734D01*
X64900852Y-125880734D01*
X65028183Y-125767929D01*
X65124818Y-125627930D01*
X65185140Y-125468872D01*
X65205645Y-125300000D01*
X65185140Y-125131128D01*
X65124818Y-124972070D01*
X65028183Y-124832071D01*
X64914244Y-124731130D01*
X64900849Y-124719263D01*
X64750226Y-124640210D01*
X64585056Y-124599500D01*
X64414944Y-124599500D01*
X64249773Y-124640210D01*
X64099150Y-124719263D01*
X63971816Y-124832072D01*
X63875182Y-124972068D01*
X63814860Y-125131125D01*
X63814859Y-125131130D01*
X63794355Y-125300000D01*
X63814859Y-125468869D01*
X63814860Y-125468874D01*
X63875182Y-125627931D01*
X63890760Y-125650499D01*
X63971817Y-125767929D01*
X64077505Y-125861560D01*
X64099150Y-125880736D01*
X64256416Y-125963276D01*
X64255749Y-125964544D01*
X64304866Y-126001736D01*
X64328923Y-126067334D01*
X64313696Y-126135524D01*
X64264020Y-126184657D01*
X64205192Y-126199500D01*
X43124500Y-126199500D01*
X43057461Y-126179815D01*
X43011706Y-126127011D01*
X43000500Y-126075500D01*
X43000500Y-123989999D01*
X43735487Y-123989999D01*
X43735488Y-123990000D01*
X44426988Y-123990000D01*
X44394075Y-124047007D01*
X44360000Y-124174174D01*
X44360000Y-124305826D01*
X44394075Y-124432993D01*
X44426988Y-124490000D01*
X43735488Y-124490000D01*
X43783062Y-124657205D01*
X43783067Y-124657218D01*
X43878061Y-124847991D01*
X44006500Y-125018071D01*
X44164000Y-125161651D01*
X44164002Y-125161653D01*
X44345201Y-125273846D01*
X44345207Y-125273849D01*
X44543941Y-125350838D01*
X44610000Y-125363186D01*
X44610000Y-124673012D01*
X44667007Y-124705925D01*
X44794174Y-124740000D01*
X44925826Y-124740000D01*
X45052993Y-124705925D01*
X45110000Y-124673012D01*
X45110000Y-125363185D01*
X45176058Y-125350838D01*
X45374792Y-125273849D01*
X45374798Y-125273846D01*
X45555997Y-125161653D01*
X45555999Y-125161651D01*
X45713499Y-125018071D01*
X45841938Y-124847991D01*
X45936932Y-124657218D01*
X45936937Y-124657205D01*
X45984512Y-124490000D01*
X45293012Y-124490000D01*
X45325925Y-124432993D01*
X45360000Y-124305826D01*
X45360000Y-124240000D01*
X46344417Y-124240000D01*
X46364699Y-124445932D01*
X46364700Y-124445934D01*
X46424768Y-124643954D01*
X46522315Y-124826450D01*
X46522317Y-124826452D01*
X46653589Y-124986410D01*
X46692169Y-125018071D01*
X46813550Y-125117685D01*
X46996046Y-125215232D01*
X47194066Y-125275300D01*
X47194065Y-125275300D01*
X47212529Y-125277118D01*
X47400000Y-125295583D01*
X47605934Y-125275300D01*
X47803954Y-125215232D01*
X47986450Y-125117685D01*
X48146410Y-124986410D01*
X48217324Y-124900000D01*
X59094355Y-124900000D01*
X59114859Y-125068869D01*
X59114860Y-125068874D01*
X59175182Y-125227931D01*
X59207879Y-125275300D01*
X59271817Y-125367929D01*
X59377505Y-125461560D01*
X59399150Y-125480736D01*
X59549773Y-125559789D01*
X59549775Y-125559790D01*
X59714944Y-125600500D01*
X59885056Y-125600500D01*
X60050225Y-125559790D01*
X60129692Y-125518081D01*
X60200849Y-125480736D01*
X60200850Y-125480734D01*
X60200852Y-125480734D01*
X60328183Y-125367929D01*
X60424818Y-125227930D01*
X60485140Y-125068872D01*
X60505645Y-124900000D01*
X60485140Y-124731128D01*
X60480641Y-124719266D01*
X60424817Y-124572068D01*
X60368169Y-124490000D01*
X60328183Y-124432071D01*
X60200852Y-124319266D01*
X60200849Y-124319263D01*
X60050226Y-124240210D01*
X59885056Y-124199500D01*
X59714944Y-124199500D01*
X59549773Y-124240210D01*
X59399150Y-124319263D01*
X59271816Y-124432072D01*
X59175182Y-124572068D01*
X59114860Y-124731125D01*
X59114859Y-124731130D01*
X59094355Y-124900000D01*
X48217324Y-124900000D01*
X48277685Y-124826450D01*
X48375232Y-124643954D01*
X48435300Y-124445934D01*
X48455583Y-124240000D01*
X48435300Y-124034066D01*
X48375232Y-123836046D01*
X48318681Y-123730247D01*
X66449500Y-123730247D01*
X66449500Y-125469752D01*
X66461131Y-125528229D01*
X66461132Y-125528230D01*
X66505447Y-125594552D01*
X66571769Y-125638867D01*
X66571770Y-125638868D01*
X66630247Y-125650499D01*
X66630250Y-125650500D01*
X66630252Y-125650500D01*
X68369750Y-125650500D01*
X68369751Y-125650499D01*
X68384568Y-125647552D01*
X68428229Y-125638868D01*
X68428229Y-125638867D01*
X68428231Y-125638867D01*
X68494552Y-125594552D01*
X68538867Y-125528231D01*
X68538867Y-125528229D01*
X68538868Y-125528229D01*
X68550499Y-125469752D01*
X68550500Y-125469750D01*
X68550500Y-123730249D01*
X68550499Y-123730247D01*
X68538868Y-123671770D01*
X68538867Y-123671769D01*
X68494552Y-123605447D01*
X68428230Y-123561132D01*
X68428229Y-123561131D01*
X68369752Y-123549500D01*
X68369748Y-123549500D01*
X66630252Y-123549500D01*
X66630247Y-123549500D01*
X66571770Y-123561131D01*
X66571769Y-123561132D01*
X66505447Y-123605447D01*
X66461132Y-123671769D01*
X66461131Y-123671770D01*
X66449500Y-123730247D01*
X48318681Y-123730247D01*
X48277685Y-123653550D01*
X48192294Y-123549500D01*
X48146410Y-123493589D01*
X47986452Y-123362317D01*
X47986453Y-123362317D01*
X47986450Y-123362315D01*
X47803954Y-123264768D01*
X47605934Y-123204700D01*
X47605932Y-123204699D01*
X47605934Y-123204699D01*
X47400000Y-123184417D01*
X47194067Y-123204699D01*
X46996043Y-123264769D01*
X46895809Y-123318346D01*
X46813550Y-123362315D01*
X46813548Y-123362316D01*
X46813547Y-123362317D01*
X46653589Y-123493589D01*
X46522317Y-123653547D01*
X46424769Y-123836043D01*
X46364699Y-124034067D01*
X46344417Y-124240000D01*
X45360000Y-124240000D01*
X45360000Y-124174174D01*
X45325925Y-124047007D01*
X45293012Y-123990000D01*
X45984512Y-123990000D01*
X45984512Y-123989999D01*
X45936937Y-123822794D01*
X45936932Y-123822781D01*
X45841938Y-123632008D01*
X45713499Y-123461928D01*
X45555999Y-123318348D01*
X45555997Y-123318346D01*
X45374798Y-123206153D01*
X45374789Y-123206149D01*
X45176063Y-123129163D01*
X45176058Y-123129162D01*
X45110000Y-123116813D01*
X45110000Y-123806988D01*
X45052993Y-123774075D01*
X44925826Y-123740000D01*
X44794174Y-123740000D01*
X44667007Y-123774075D01*
X44610000Y-123806988D01*
X44610000Y-123116813D01*
X44543941Y-123129162D01*
X44543936Y-123129163D01*
X44345210Y-123206149D01*
X44345201Y-123206153D01*
X44164002Y-123318346D01*
X44164000Y-123318348D01*
X44006500Y-123461928D01*
X43878061Y-123632008D01*
X43783067Y-123822781D01*
X43783062Y-123822794D01*
X43735487Y-123989999D01*
X43000500Y-123989999D01*
X43000500Y-121700000D01*
X43804417Y-121700000D01*
X43824699Y-121905932D01*
X43824700Y-121905934D01*
X43884768Y-122103954D01*
X43982315Y-122286450D01*
X43982317Y-122286452D01*
X44113589Y-122446410D01*
X44210209Y-122525702D01*
X44273550Y-122577685D01*
X44456046Y-122675232D01*
X44654066Y-122735300D01*
X44654065Y-122735300D01*
X44672529Y-122737118D01*
X44860000Y-122755583D01*
X45065934Y-122735300D01*
X45263954Y-122675232D01*
X45446450Y-122577685D01*
X45606410Y-122446410D01*
X45737685Y-122286450D01*
X45835232Y-122103954D01*
X45895300Y-121905934D01*
X45915583Y-121700000D01*
X46344417Y-121700000D01*
X46364699Y-121905932D01*
X46364700Y-121905934D01*
X46424768Y-122103954D01*
X46522315Y-122286450D01*
X46522317Y-122286452D01*
X46653589Y-122446410D01*
X46750209Y-122525702D01*
X46813550Y-122577685D01*
X46996046Y-122675232D01*
X47194066Y-122735300D01*
X47194065Y-122735300D01*
X47212529Y-122737118D01*
X47400000Y-122755583D01*
X47605934Y-122735300D01*
X47803954Y-122675232D01*
X47986450Y-122577685D01*
X48146410Y-122446410D01*
X48277685Y-122286450D01*
X48375232Y-122103954D01*
X48388565Y-122060000D01*
X66444417Y-122060000D01*
X66464699Y-122265932D01*
X66464700Y-122265934D01*
X66524768Y-122463954D01*
X66622315Y-122646450D01*
X66622317Y-122646452D01*
X66753589Y-122806410D01*
X66850209Y-122885702D01*
X66913550Y-122937685D01*
X67096046Y-123035232D01*
X67294066Y-123095300D01*
X67294065Y-123095300D01*
X67312529Y-123097118D01*
X67500000Y-123115583D01*
X67705934Y-123095300D01*
X67903954Y-123035232D01*
X68086450Y-122937685D01*
X68246410Y-122806410D01*
X68377685Y-122646450D01*
X68475232Y-122463954D01*
X68535300Y-122265934D01*
X68555583Y-122060000D01*
X68535300Y-121854066D01*
X68475232Y-121656046D01*
X68377685Y-121473550D01*
X68284459Y-121359953D01*
X68246410Y-121313589D01*
X68086452Y-121182317D01*
X68086453Y-121182317D01*
X68086450Y-121182315D01*
X67903954Y-121084768D01*
X67705934Y-121024700D01*
X67705932Y-121024699D01*
X67705934Y-121024699D01*
X67500000Y-121004417D01*
X67294067Y-121024699D01*
X67096043Y-121084769D01*
X67042199Y-121113550D01*
X66913550Y-121182315D01*
X66913548Y-121182316D01*
X66913547Y-121182317D01*
X66753589Y-121313589D01*
X66622317Y-121473547D01*
X66622315Y-121473550D01*
X66583643Y-121545898D01*
X66524769Y-121656043D01*
X66464699Y-121854067D01*
X66444417Y-122060000D01*
X48388565Y-122060000D01*
X48435300Y-121905934D01*
X48455583Y-121700000D01*
X48435300Y-121494066D01*
X48375232Y-121296046D01*
X48277685Y-121113550D01*
X48204768Y-121024700D01*
X48146410Y-120953589D01*
X48081111Y-120900000D01*
X52494353Y-120900000D01*
X52514834Y-121042456D01*
X52526897Y-121068869D01*
X52574623Y-121173373D01*
X52668872Y-121282143D01*
X52789947Y-121359953D01*
X52789950Y-121359954D01*
X52789949Y-121359954D01*
X52928036Y-121400499D01*
X52928038Y-121400500D01*
X52928039Y-121400500D01*
X53071962Y-121400500D01*
X53071962Y-121400499D01*
X53210053Y-121359953D01*
X53331128Y-121282143D01*
X53425377Y-121173373D01*
X53485165Y-121042457D01*
X53505647Y-120900000D01*
X57094355Y-120900000D01*
X57114859Y-121068869D01*
X57114860Y-121068874D01*
X57175182Y-121227931D01*
X57212603Y-121282143D01*
X57271817Y-121367929D01*
X57377505Y-121461560D01*
X57399150Y-121480736D01*
X57549773Y-121559789D01*
X57549775Y-121559790D01*
X57714944Y-121600500D01*
X57885056Y-121600500D01*
X58050225Y-121559790D01*
X58129692Y-121518081D01*
X58200849Y-121480736D01*
X58200850Y-121480734D01*
X58200852Y-121480734D01*
X58328183Y-121367929D01*
X58363899Y-121316185D01*
X58418179Y-121272197D01*
X58487627Y-121264537D01*
X58550192Y-121295640D01*
X58570447Y-121322083D01*
X58570921Y-121321757D01*
X58575182Y-121327930D01*
X58671817Y-121467929D01*
X58775506Y-121559789D01*
X58799150Y-121580736D01*
X58942636Y-121656043D01*
X58949775Y-121659790D01*
X59114944Y-121700500D01*
X59285056Y-121700500D01*
X59450225Y-121659790D01*
X59529692Y-121618081D01*
X59600849Y-121580736D01*
X59600850Y-121580734D01*
X59600852Y-121580734D01*
X59728183Y-121467929D01*
X59824818Y-121327930D01*
X59885140Y-121168872D01*
X59905645Y-121000000D01*
X59885140Y-120831128D01*
X59881798Y-120822317D01*
X59824817Y-120672068D01*
X59759827Y-120577915D01*
X59728183Y-120532071D01*
X59600852Y-120419266D01*
X59600849Y-120419263D01*
X59450226Y-120340210D01*
X59285056Y-120299500D01*
X59114944Y-120299500D01*
X58949773Y-120340210D01*
X58799150Y-120419263D01*
X58671815Y-120532072D01*
X58636101Y-120583813D01*
X58581818Y-120627803D01*
X58512369Y-120635462D01*
X58449805Y-120604358D01*
X58429553Y-120577915D01*
X58429079Y-120578243D01*
X58387397Y-120517857D01*
X58328183Y-120432071D01*
X58200852Y-120319266D01*
X58200849Y-120319263D01*
X58050226Y-120240210D01*
X57887085Y-120200000D01*
X65407147Y-120200000D01*
X65427651Y-120368869D01*
X65427652Y-120368874D01*
X65487974Y-120527931D01*
X65540729Y-120604358D01*
X65584609Y-120667929D01*
X65685763Y-120757543D01*
X65711942Y-120780736D01*
X65862565Y-120859789D01*
X65862567Y-120859790D01*
X66027736Y-120900500D01*
X66197848Y-120900500D01*
X66363017Y-120859790D01*
X66442484Y-120818081D01*
X66513641Y-120780736D01*
X66513642Y-120780734D01*
X66513644Y-120780734D01*
X66640975Y-120667929D01*
X66737610Y-120527930D01*
X66797932Y-120368872D01*
X66818437Y-120200000D01*
X66797932Y-120031128D01*
X66737610Y-119872070D01*
X66640975Y-119732071D01*
X66513644Y-119619266D01*
X66513641Y-119619263D01*
X66363287Y-119540351D01*
X66356210Y-119533503D01*
X66353223Y-119534352D01*
X66324655Y-119530754D01*
X66197849Y-119499500D01*
X66197848Y-119499500D01*
X66027736Y-119499500D01*
X65862565Y-119540210D01*
X65711942Y-119619263D01*
X65584608Y-119732072D01*
X65487974Y-119872068D01*
X65427652Y-120031125D01*
X65427651Y-120031130D01*
X65407147Y-120200000D01*
X57887085Y-120200000D01*
X57885056Y-120199500D01*
X57714944Y-120199500D01*
X57549773Y-120240210D01*
X57399150Y-120319263D01*
X57271816Y-120432072D01*
X57175182Y-120572068D01*
X57114860Y-120731125D01*
X57114859Y-120731130D01*
X57094355Y-120900000D01*
X53505647Y-120900000D01*
X53485165Y-120757543D01*
X53425377Y-120626627D01*
X53331128Y-120517857D01*
X53210053Y-120440047D01*
X53210051Y-120440046D01*
X53210049Y-120440045D01*
X53210050Y-120440045D01*
X53071963Y-120399500D01*
X53071961Y-120399500D01*
X52928039Y-120399500D01*
X52928036Y-120399500D01*
X52789949Y-120440045D01*
X52668873Y-120517856D01*
X52574623Y-120626626D01*
X52574622Y-120626628D01*
X52514834Y-120757543D01*
X52494353Y-120900000D01*
X48081111Y-120900000D01*
X47997191Y-120831130D01*
X47986450Y-120822315D01*
X47803954Y-120724768D01*
X47605934Y-120664700D01*
X47605932Y-120664699D01*
X47605934Y-120664699D01*
X47400000Y-120644417D01*
X47194067Y-120664699D01*
X46996043Y-120724769D01*
X46891342Y-120780734D01*
X46813550Y-120822315D01*
X46813548Y-120822316D01*
X46813547Y-120822317D01*
X46653589Y-120953589D01*
X46522317Y-121113547D01*
X46522315Y-121113550D01*
X46490340Y-121173371D01*
X46424769Y-121296043D01*
X46364699Y-121494067D01*
X46344417Y-121700000D01*
X45915583Y-121700000D01*
X45895300Y-121494066D01*
X45835232Y-121296046D01*
X45737685Y-121113550D01*
X45664768Y-121024700D01*
X45606410Y-120953589D01*
X45457191Y-120831130D01*
X45446450Y-120822315D01*
X45263954Y-120724768D01*
X45065934Y-120664700D01*
X45065932Y-120664699D01*
X45065934Y-120664699D01*
X44860000Y-120644417D01*
X44654067Y-120664699D01*
X44456043Y-120724769D01*
X44351342Y-120780734D01*
X44273550Y-120822315D01*
X44273548Y-120822316D01*
X44273547Y-120822317D01*
X44113589Y-120953589D01*
X43982317Y-121113547D01*
X43982315Y-121113550D01*
X43950340Y-121173371D01*
X43884769Y-121296043D01*
X43824699Y-121494067D01*
X43804417Y-121700000D01*
X43000500Y-121700000D01*
X43000500Y-119160000D01*
X43804417Y-119160000D01*
X43824699Y-119365932D01*
X43824700Y-119365934D01*
X43884768Y-119563954D01*
X43982315Y-119746450D01*
X43982317Y-119746452D01*
X44113589Y-119906410D01*
X44210209Y-119985702D01*
X44273550Y-120037685D01*
X44456046Y-120135232D01*
X44654066Y-120195300D01*
X44654065Y-120195300D01*
X44672529Y-120197118D01*
X44860000Y-120215583D01*
X45065934Y-120195300D01*
X45263954Y-120135232D01*
X45446450Y-120037685D01*
X45606410Y-119906410D01*
X45737685Y-119746450D01*
X45835232Y-119563954D01*
X45895300Y-119365934D01*
X45915583Y-119160000D01*
X46344417Y-119160000D01*
X46364699Y-119365932D01*
X46364700Y-119365934D01*
X46424768Y-119563954D01*
X46522315Y-119746450D01*
X46522317Y-119746452D01*
X46653589Y-119906410D01*
X46750209Y-119985702D01*
X46813550Y-120037685D01*
X46996046Y-120135232D01*
X47194066Y-120195300D01*
X47194065Y-120195300D01*
X47212529Y-120197118D01*
X47400000Y-120215583D01*
X47605934Y-120195300D01*
X47803954Y-120135232D01*
X47986450Y-120037685D01*
X48146410Y-119906410D01*
X48277685Y-119746450D01*
X48375232Y-119563954D01*
X48435300Y-119365934D01*
X48455583Y-119160000D01*
X48435300Y-118954066D01*
X48375232Y-118756046D01*
X48277685Y-118573550D01*
X48222193Y-118505932D01*
X48217325Y-118500000D01*
X49794355Y-118500000D01*
X49814859Y-118668869D01*
X49814860Y-118668874D01*
X49875182Y-118827931D01*
X49915577Y-118886452D01*
X49971817Y-118967929D01*
X50060404Y-119046410D01*
X50099150Y-119080736D01*
X50249773Y-119159789D01*
X50249775Y-119159790D01*
X50414944Y-119200500D01*
X50585056Y-119200500D01*
X50750225Y-119159790D01*
X50829692Y-119118081D01*
X50900849Y-119080736D01*
X50900850Y-119080734D01*
X50900852Y-119080734D01*
X51028183Y-118967929D01*
X51124818Y-118827930D01*
X51185140Y-118668872D01*
X51205645Y-118500000D01*
X51185140Y-118331128D01*
X51173335Y-118300000D01*
X60604417Y-118300000D01*
X60624699Y-118505932D01*
X60624700Y-118505934D01*
X60684768Y-118703954D01*
X60782315Y-118886450D01*
X60782317Y-118886452D01*
X60913589Y-119046410D01*
X61010209Y-119125702D01*
X61073550Y-119177685D01*
X61256046Y-119275232D01*
X61454066Y-119335300D01*
X61454065Y-119335300D01*
X61472529Y-119337118D01*
X61660000Y-119355583D01*
X61865934Y-119335300D01*
X62063954Y-119275232D01*
X62246450Y-119177685D01*
X62406410Y-119046410D01*
X62537685Y-118886450D01*
X62635232Y-118703954D01*
X62695300Y-118505934D01*
X62715583Y-118300000D01*
X63144417Y-118300000D01*
X63164699Y-118505932D01*
X63164700Y-118505934D01*
X63224768Y-118703954D01*
X63322315Y-118886450D01*
X63322317Y-118886452D01*
X63453589Y-119046410D01*
X63550209Y-119125702D01*
X63613550Y-119177685D01*
X63796046Y-119275232D01*
X63994066Y-119335300D01*
X63994065Y-119335300D01*
X64012529Y-119337118D01*
X64200000Y-119355583D01*
X64405934Y-119335300D01*
X64603954Y-119275232D01*
X64786450Y-119177685D01*
X64946410Y-119046410D01*
X65077685Y-118886450D01*
X65175232Y-118703954D01*
X65235300Y-118505934D01*
X65255583Y-118300000D01*
X65684417Y-118300000D01*
X65704699Y-118505932D01*
X65704700Y-118505934D01*
X65764768Y-118703954D01*
X65862315Y-118886450D01*
X65862317Y-118886452D01*
X65993589Y-119046410D01*
X66090209Y-119125702D01*
X66153550Y-119177685D01*
X66336046Y-119275232D01*
X66390324Y-119291697D01*
X66420071Y-119311191D01*
X66445272Y-119308971D01*
X66456890Y-119311889D01*
X66534066Y-119335300D01*
X66740000Y-119355583D01*
X66945934Y-119335300D01*
X67143954Y-119275232D01*
X67326450Y-119177685D01*
X67486410Y-119046410D01*
X67617685Y-118886450D01*
X67715232Y-118703954D01*
X67775300Y-118505934D01*
X67795583Y-118300000D01*
X67775300Y-118094066D01*
X67715232Y-117896046D01*
X67617685Y-117713550D01*
X67520583Y-117595230D01*
X67486410Y-117553589D01*
X67326452Y-117422317D01*
X67326453Y-117422317D01*
X67326450Y-117422315D01*
X67143954Y-117324768D01*
X66945934Y-117264700D01*
X66945932Y-117264699D01*
X66945934Y-117264699D01*
X66740000Y-117244417D01*
X66534067Y-117264699D01*
X66336043Y-117324769D01*
X66258140Y-117366410D01*
X66153550Y-117422315D01*
X66153548Y-117422316D01*
X66153547Y-117422317D01*
X65993589Y-117553589D01*
X65862317Y-117713547D01*
X65764769Y-117896043D01*
X65704699Y-118094067D01*
X65684417Y-118300000D01*
X65255583Y-118300000D01*
X65235300Y-118094066D01*
X65175232Y-117896046D01*
X65077685Y-117713550D01*
X64980583Y-117595230D01*
X64946410Y-117553589D01*
X64786452Y-117422317D01*
X64786453Y-117422317D01*
X64786450Y-117422315D01*
X64603954Y-117324768D01*
X64405934Y-117264700D01*
X64405932Y-117264699D01*
X64405934Y-117264699D01*
X64200000Y-117244417D01*
X63994067Y-117264699D01*
X63796043Y-117324769D01*
X63718140Y-117366410D01*
X63613550Y-117422315D01*
X63613548Y-117422316D01*
X63613547Y-117422317D01*
X63453589Y-117553589D01*
X63322317Y-117713547D01*
X63224769Y-117896043D01*
X63164699Y-118094067D01*
X63144417Y-118300000D01*
X62715583Y-118300000D01*
X62695300Y-118094066D01*
X62635232Y-117896046D01*
X62537685Y-117713550D01*
X62440583Y-117595230D01*
X62406410Y-117553589D01*
X62246452Y-117422317D01*
X62246453Y-117422317D01*
X62246450Y-117422315D01*
X62063954Y-117324768D01*
X61865934Y-117264700D01*
X61865932Y-117264699D01*
X61865934Y-117264699D01*
X61660000Y-117244417D01*
X61454067Y-117264699D01*
X61256043Y-117324769D01*
X61178140Y-117366410D01*
X61073550Y-117422315D01*
X61073548Y-117422316D01*
X61073547Y-117422317D01*
X60913589Y-117553589D01*
X60782317Y-117713547D01*
X60684769Y-117896043D01*
X60624699Y-118094067D01*
X60604417Y-118300000D01*
X51173335Y-118300000D01*
X51124818Y-118172070D01*
X51028183Y-118032071D01*
X50900852Y-117919266D01*
X50900849Y-117919263D01*
X50750226Y-117840210D01*
X50585056Y-117799500D01*
X50414944Y-117799500D01*
X50249773Y-117840210D01*
X50099150Y-117919263D01*
X49971816Y-118032072D01*
X49875182Y-118172068D01*
X49814860Y-118331125D01*
X49814859Y-118331130D01*
X49794355Y-118500000D01*
X48217325Y-118500000D01*
X48146410Y-118413589D01*
X47986452Y-118282317D01*
X47986453Y-118282317D01*
X47986450Y-118282315D01*
X47803954Y-118184768D01*
X47605934Y-118124700D01*
X47605932Y-118124699D01*
X47605934Y-118124699D01*
X47400000Y-118104417D01*
X47194067Y-118124699D01*
X46996043Y-118184769D01*
X46885898Y-118243643D01*
X46813550Y-118282315D01*
X46813548Y-118282316D01*
X46813547Y-118282317D01*
X46653589Y-118413589D01*
X46522317Y-118573547D01*
X46424769Y-118756043D01*
X46364699Y-118954067D01*
X46344417Y-119160000D01*
X45915583Y-119160000D01*
X45895300Y-118954066D01*
X45835232Y-118756046D01*
X45737685Y-118573550D01*
X45682193Y-118505932D01*
X45606410Y-118413589D01*
X45446452Y-118282317D01*
X45446453Y-118282317D01*
X45446450Y-118282315D01*
X45263954Y-118184768D01*
X45065934Y-118124700D01*
X45065932Y-118124699D01*
X45065934Y-118124699D01*
X44860000Y-118104417D01*
X44654067Y-118124699D01*
X44456043Y-118184769D01*
X44345898Y-118243643D01*
X44273550Y-118282315D01*
X44273548Y-118282316D01*
X44273547Y-118282317D01*
X44113589Y-118413589D01*
X43982317Y-118573547D01*
X43884769Y-118756043D01*
X43824699Y-118954067D01*
X43804417Y-119160000D01*
X43000500Y-119160000D01*
X43000500Y-115750247D01*
X43809500Y-115750247D01*
X43809500Y-117489752D01*
X43821131Y-117548229D01*
X43821132Y-117548230D01*
X43865447Y-117614552D01*
X43931769Y-117658867D01*
X43931770Y-117658868D01*
X43990247Y-117670499D01*
X43990250Y-117670500D01*
X43990252Y-117670500D01*
X45729750Y-117670500D01*
X45729751Y-117670499D01*
X45744568Y-117667552D01*
X45788229Y-117658868D01*
X45788229Y-117658867D01*
X45788231Y-117658867D01*
X45854552Y-117614552D01*
X45898867Y-117548231D01*
X45898867Y-117548229D01*
X45898868Y-117548229D01*
X45910499Y-117489752D01*
X45910500Y-117489750D01*
X45910500Y-116620000D01*
X46344417Y-116620000D01*
X46364699Y-116825932D01*
X46394734Y-116924944D01*
X46424768Y-117023954D01*
X46522315Y-117206450D01*
X46522317Y-117206452D01*
X46653589Y-117366410D01*
X46721711Y-117422315D01*
X46813550Y-117497685D01*
X46996046Y-117595232D01*
X47194066Y-117655300D01*
X47194065Y-117655300D01*
X47212529Y-117657118D01*
X47400000Y-117675583D01*
X47605934Y-117655300D01*
X47803954Y-117595232D01*
X47986450Y-117497685D01*
X48146410Y-117366410D01*
X48277685Y-117206450D01*
X48375232Y-117023954D01*
X48435300Y-116825934D01*
X48455583Y-116620000D01*
X48435300Y-116414066D01*
X48375232Y-116216046D01*
X48277685Y-116033550D01*
X48211574Y-115952993D01*
X48146410Y-115873589D01*
X48007999Y-115760000D01*
X60604417Y-115760000D01*
X60624699Y-115965932D01*
X60624700Y-115965934D01*
X60684768Y-116163954D01*
X60782315Y-116346450D01*
X60782317Y-116346452D01*
X60913589Y-116506410D01*
X61010209Y-116585702D01*
X61073550Y-116637685D01*
X61256046Y-116735232D01*
X61454066Y-116795300D01*
X61454065Y-116795300D01*
X61472529Y-116797118D01*
X61660000Y-116815583D01*
X61865934Y-116795300D01*
X62063954Y-116735232D01*
X62246450Y-116637685D01*
X62406410Y-116506410D01*
X62537685Y-116346450D01*
X62635232Y-116163954D01*
X62695300Y-115965934D01*
X62715583Y-115760000D01*
X63144417Y-115760000D01*
X63164699Y-115965932D01*
X63164700Y-115965934D01*
X63224768Y-116163954D01*
X63322315Y-116346450D01*
X63322317Y-116346452D01*
X63453589Y-116506410D01*
X63550209Y-116585702D01*
X63613550Y-116637685D01*
X63796046Y-116735232D01*
X63994066Y-116795300D01*
X63994065Y-116795300D01*
X64012529Y-116797118D01*
X64200000Y-116815583D01*
X64405934Y-116795300D01*
X64603954Y-116735232D01*
X64786450Y-116637685D01*
X64946410Y-116506410D01*
X65077685Y-116346450D01*
X65175232Y-116163954D01*
X65235300Y-115965934D01*
X65255583Y-115760000D01*
X65235300Y-115554066D01*
X65175232Y-115356046D01*
X65077685Y-115173550D01*
X65025702Y-115110209D01*
X64946410Y-115013589D01*
X64786452Y-114882317D01*
X64786453Y-114882317D01*
X64786450Y-114882315D01*
X64754440Y-114865205D01*
X65590000Y-114865205D01*
X65590000Y-115510000D01*
X66306988Y-115510000D01*
X66274075Y-115567007D01*
X66240000Y-115694174D01*
X66240000Y-115825826D01*
X66274075Y-115952993D01*
X66306988Y-116010000D01*
X65590001Y-116010000D01*
X65590001Y-116654785D01*
X65590002Y-116654808D01*
X65592908Y-116679869D01*
X65592909Y-116679873D01*
X65638211Y-116782474D01*
X65638214Y-116782479D01*
X65717520Y-116861785D01*
X65717525Y-116861788D01*
X65820123Y-116907089D01*
X65845206Y-116909999D01*
X66489999Y-116909999D01*
X66490000Y-116909998D01*
X66490000Y-116193012D01*
X66547007Y-116225925D01*
X66674174Y-116260000D01*
X66805826Y-116260000D01*
X66932993Y-116225925D01*
X66990000Y-116193012D01*
X66990000Y-116909999D01*
X67634786Y-116909999D01*
X67634808Y-116909997D01*
X67659869Y-116907091D01*
X67659873Y-116907090D01*
X67762474Y-116861788D01*
X67762479Y-116861785D01*
X67841785Y-116782479D01*
X67841788Y-116782474D01*
X67887089Y-116679877D01*
X67887089Y-116679875D01*
X67889999Y-116654794D01*
X67890000Y-116654791D01*
X67890000Y-116010000D01*
X67173012Y-116010000D01*
X67205925Y-115952993D01*
X67240000Y-115825826D01*
X67240000Y-115694174D01*
X67205925Y-115567007D01*
X67173012Y-115510000D01*
X67889999Y-115510000D01*
X67889999Y-114865214D01*
X67889997Y-114865191D01*
X67887091Y-114840130D01*
X67887090Y-114840126D01*
X67841788Y-114737525D01*
X67841785Y-114737520D01*
X67762479Y-114658214D01*
X67762474Y-114658211D01*
X67659876Y-114612910D01*
X67634794Y-114610000D01*
X66990000Y-114610000D01*
X66990000Y-115326988D01*
X66932993Y-115294075D01*
X66805826Y-115260000D01*
X66674174Y-115260000D01*
X66547007Y-115294075D01*
X66490000Y-115326988D01*
X66490000Y-114610000D01*
X65845214Y-114610000D01*
X65845191Y-114610002D01*
X65820130Y-114612908D01*
X65820126Y-114612909D01*
X65717525Y-114658211D01*
X65717520Y-114658214D01*
X65638214Y-114737520D01*
X65638211Y-114737525D01*
X65592910Y-114840122D01*
X65592910Y-114840124D01*
X65590000Y-114865205D01*
X64754440Y-114865205D01*
X64603954Y-114784768D01*
X64405934Y-114724700D01*
X64405932Y-114724699D01*
X64405934Y-114724699D01*
X64200000Y-114704417D01*
X63994067Y-114724699D01*
X63796043Y-114784769D01*
X63692487Y-114840122D01*
X63613550Y-114882315D01*
X63613548Y-114882316D01*
X63613547Y-114882317D01*
X63453589Y-115013589D01*
X63322317Y-115173547D01*
X63224769Y-115356043D01*
X63164699Y-115554067D01*
X63144417Y-115760000D01*
X62715583Y-115760000D01*
X62695300Y-115554066D01*
X62635232Y-115356046D01*
X62537685Y-115173550D01*
X62485702Y-115110209D01*
X62406410Y-115013589D01*
X62246452Y-114882317D01*
X62246453Y-114882317D01*
X62246450Y-114882315D01*
X62063954Y-114784768D01*
X61865934Y-114724700D01*
X61865932Y-114724699D01*
X61865934Y-114724699D01*
X61660000Y-114704417D01*
X61454067Y-114724699D01*
X61256043Y-114784769D01*
X61152487Y-114840122D01*
X61073550Y-114882315D01*
X61073548Y-114882316D01*
X61073547Y-114882317D01*
X60913589Y-115013589D01*
X60782317Y-115173547D01*
X60684769Y-115356043D01*
X60624699Y-115554067D01*
X60604417Y-115760000D01*
X48007999Y-115760000D01*
X47996121Y-115750252D01*
X47986450Y-115742315D01*
X47803954Y-115644768D01*
X47605934Y-115584700D01*
X47605932Y-115584699D01*
X47605934Y-115584699D01*
X47400000Y-115564417D01*
X47194067Y-115584699D01*
X46996043Y-115644769D01*
X46908114Y-115691769D01*
X46813550Y-115742315D01*
X46813548Y-115742316D01*
X46813547Y-115742317D01*
X46653589Y-115873589D01*
X46522317Y-116033547D01*
X46424769Y-116216043D01*
X46364699Y-116414067D01*
X46344417Y-116620000D01*
X45910500Y-116620000D01*
X45910500Y-115750249D01*
X45910499Y-115750247D01*
X45898868Y-115691770D01*
X45898867Y-115691769D01*
X45854552Y-115625447D01*
X45788230Y-115581132D01*
X45788229Y-115581131D01*
X45729752Y-115569500D01*
X45729748Y-115569500D01*
X43990252Y-115569500D01*
X43990247Y-115569500D01*
X43931770Y-115581131D01*
X43931769Y-115581132D01*
X43865447Y-115625447D01*
X43821132Y-115691769D01*
X43821131Y-115691770D01*
X43809500Y-115750247D01*
X43000500Y-115750247D01*
X43000500Y-111200000D01*
X44894355Y-111200000D01*
X44914859Y-111368869D01*
X44914860Y-111368874D01*
X44975182Y-111527931D01*
X45037475Y-111618177D01*
X45071817Y-111667929D01*
X45177505Y-111761560D01*
X45199150Y-111780736D01*
X45349773Y-111859789D01*
X45349775Y-111859790D01*
X45514944Y-111900500D01*
X45685056Y-111900500D01*
X45850225Y-111859790D01*
X45929692Y-111818081D01*
X46000849Y-111780736D01*
X46000850Y-111780734D01*
X46000852Y-111780734D01*
X46128183Y-111667929D01*
X46224818Y-111527930D01*
X46285140Y-111368872D01*
X46305645Y-111200000D01*
X46290008Y-111071223D01*
X46301468Y-111002304D01*
X46348371Y-110950518D01*
X46415827Y-110932310D01*
X46482418Y-110953462D01*
X46515153Y-110985839D01*
X46571815Y-111067927D01*
X46699150Y-111180736D01*
X46849773Y-111259789D01*
X46849775Y-111259790D01*
X47014944Y-111300500D01*
X47185056Y-111300500D01*
X47350225Y-111259790D01*
X47464144Y-111200000D01*
X47500849Y-111180736D01*
X47500850Y-111180734D01*
X47500852Y-111180734D01*
X47628183Y-111067929D01*
X47724818Y-110927930D01*
X47785140Y-110768872D01*
X47792451Y-110708653D01*
X47820072Y-110644478D01*
X47878006Y-110605420D01*
X47947858Y-110603885D01*
X48007453Y-110640358D01*
X48017596Y-110653160D01*
X48096815Y-110767927D01*
X48096816Y-110767928D01*
X48096817Y-110767929D01*
X48097884Y-110768874D01*
X48224150Y-110880736D01*
X48357109Y-110950518D01*
X48374775Y-110959790D01*
X48539944Y-111000500D01*
X48710056Y-111000500D01*
X48875225Y-110959790D01*
X48954692Y-110918081D01*
X49025849Y-110880736D01*
X49025850Y-110880734D01*
X49025852Y-110880734D01*
X49153183Y-110767929D01*
X49249818Y-110627930D01*
X49310140Y-110468872D01*
X49330645Y-110300000D01*
X49310140Y-110131128D01*
X49249818Y-109972070D01*
X49227826Y-109940210D01*
X49199726Y-109899500D01*
X49153183Y-109832071D01*
X49025852Y-109719266D01*
X49025849Y-109719263D01*
X48875226Y-109640210D01*
X48710056Y-109599500D01*
X48539944Y-109599500D01*
X48374773Y-109640210D01*
X48224150Y-109719263D01*
X48096816Y-109832072D01*
X48000182Y-109972068D01*
X47939860Y-110131125D01*
X47939859Y-110131131D01*
X47932548Y-110191345D01*
X47904926Y-110255523D01*
X47846991Y-110294579D01*
X47777139Y-110296114D01*
X47717545Y-110259639D01*
X47707402Y-110246839D01*
X47628183Y-110132071D01*
X47500852Y-110019266D01*
X47500849Y-110019263D01*
X47350226Y-109940210D01*
X47185056Y-109899500D01*
X47014944Y-109899500D01*
X46849773Y-109940210D01*
X46699150Y-110019263D01*
X46582638Y-110122484D01*
X46572882Y-110131128D01*
X46571816Y-110132072D01*
X46475182Y-110272068D01*
X46414860Y-110431125D01*
X46414859Y-110431130D01*
X46406558Y-110499500D01*
X46394355Y-110600000D01*
X46399756Y-110644478D01*
X46409991Y-110728772D01*
X46398531Y-110797696D01*
X46351627Y-110849482D01*
X46284171Y-110867689D01*
X46217580Y-110846537D01*
X46184845Y-110814160D01*
X46128183Y-110732071D01*
X46000852Y-110619266D01*
X46000849Y-110619263D01*
X45850226Y-110540210D01*
X45685056Y-110499500D01*
X45514944Y-110499500D01*
X45349773Y-110540210D01*
X45199150Y-110619263D01*
X45071816Y-110732072D01*
X44975182Y-110872068D01*
X44914860Y-111031125D01*
X44914859Y-111031130D01*
X44894355Y-111200000D01*
X43000500Y-111200000D01*
X43000500Y-107395000D01*
X54139355Y-107395000D01*
X54159859Y-107563869D01*
X54159860Y-107563874D01*
X54220182Y-107722931D01*
X54282475Y-107813177D01*
X54316817Y-107862929D01*
X54422505Y-107956560D01*
X54444150Y-107975736D01*
X54594773Y-108054789D01*
X54594775Y-108054790D01*
X54759944Y-108095500D01*
X54930056Y-108095500D01*
X55095225Y-108054790D01*
X55174692Y-108013081D01*
X55245849Y-107975736D01*
X55245850Y-107975734D01*
X55245852Y-107975734D01*
X55373183Y-107862929D01*
X55469818Y-107722930D01*
X55530140Y-107563872D01*
X55550645Y-107395000D01*
X55530140Y-107226128D01*
X55469818Y-107067070D01*
X55373183Y-106927071D01*
X55245852Y-106814266D01*
X55245849Y-106814263D01*
X55095226Y-106735210D01*
X54930056Y-106694500D01*
X54759944Y-106694500D01*
X54594773Y-106735210D01*
X54444150Y-106814263D01*
X54316816Y-106927072D01*
X54220182Y-107067068D01*
X54159860Y-107226125D01*
X54159859Y-107226130D01*
X54139355Y-107395000D01*
X43000500Y-107395000D01*
X43000500Y-104850000D01*
X56294355Y-104850000D01*
X56314859Y-105018869D01*
X56314860Y-105018874D01*
X56375182Y-105177931D01*
X56437475Y-105268177D01*
X56471817Y-105317929D01*
X56577505Y-105411560D01*
X56599150Y-105430736D01*
X56749773Y-105509789D01*
X56749775Y-105509790D01*
X56914944Y-105550500D01*
X57085056Y-105550500D01*
X57250225Y-105509790D01*
X57329692Y-105468081D01*
X57400849Y-105430736D01*
X57400850Y-105430734D01*
X57400852Y-105430734D01*
X57528183Y-105317929D01*
X57624818Y-105177930D01*
X57685140Y-105018872D01*
X57705645Y-104850000D01*
X57685140Y-104681128D01*
X57624818Y-104522070D01*
X57528183Y-104382071D01*
X57400852Y-104269266D01*
X57400849Y-104269263D01*
X57250226Y-104190210D01*
X57085056Y-104149500D01*
X56914944Y-104149500D01*
X56749773Y-104190210D01*
X56599150Y-104269263D01*
X56471816Y-104382072D01*
X56375182Y-104522068D01*
X56314860Y-104681125D01*
X56314859Y-104681130D01*
X56294355Y-104850000D01*
X43000500Y-104850000D01*
X43000500Y-102450000D01*
X58794355Y-102450000D01*
X58814859Y-102618869D01*
X58814860Y-102618874D01*
X58875182Y-102777931D01*
X58937475Y-102868177D01*
X58971817Y-102917929D01*
X59077505Y-103011560D01*
X59099150Y-103030736D01*
X59249773Y-103109789D01*
X59249775Y-103109790D01*
X59414944Y-103150500D01*
X59585056Y-103150500D01*
X59750225Y-103109790D01*
X59829692Y-103068081D01*
X59900849Y-103030736D01*
X59900850Y-103030734D01*
X59900852Y-103030734D01*
X60028183Y-102917929D01*
X60124818Y-102777930D01*
X60185140Y-102618872D01*
X60205645Y-102450000D01*
X60185140Y-102281128D01*
X60124818Y-102122070D01*
X60028183Y-101982071D01*
X59900852Y-101869266D01*
X59900849Y-101869263D01*
X59750226Y-101790210D01*
X59585056Y-101749500D01*
X59414944Y-101749500D01*
X59249773Y-101790210D01*
X59099150Y-101869263D01*
X58971816Y-101982072D01*
X58875182Y-102122068D01*
X58814860Y-102281125D01*
X58814859Y-102281130D01*
X58794355Y-102450000D01*
X43000500Y-102450000D01*
X43000500Y-99350000D01*
X52369355Y-99350000D01*
X52389859Y-99518869D01*
X52389860Y-99518874D01*
X52450182Y-99677931D01*
X52512475Y-99768177D01*
X52546817Y-99817929D01*
X52652505Y-99911560D01*
X52674150Y-99930736D01*
X52824773Y-100009789D01*
X52824775Y-100009790D01*
X52989944Y-100050500D01*
X53160056Y-100050500D01*
X53325225Y-100009790D01*
X53404692Y-99968081D01*
X53475849Y-99930736D01*
X53475850Y-99930734D01*
X53475852Y-99930734D01*
X53603183Y-99817929D01*
X53699818Y-99677930D01*
X53760140Y-99518872D01*
X53780645Y-99350000D01*
X53760140Y-99181128D01*
X53699818Y-99022070D01*
X53603183Y-98882071D01*
X53475852Y-98769266D01*
X53475849Y-98769263D01*
X53325226Y-98690210D01*
X53160056Y-98649500D01*
X52989944Y-98649500D01*
X52824773Y-98690210D01*
X52674150Y-98769263D01*
X52546816Y-98882072D01*
X52450182Y-99022068D01*
X52389860Y-99181125D01*
X52389859Y-99181130D01*
X52369355Y-99350000D01*
X43000500Y-99350000D01*
X43000500Y-94700000D01*
X51194355Y-94700000D01*
X51214859Y-94868869D01*
X51214860Y-94868874D01*
X51275182Y-95027931D01*
X51337475Y-95118177D01*
X51371817Y-95167929D01*
X51477505Y-95261560D01*
X51499150Y-95280736D01*
X51649773Y-95359789D01*
X51649775Y-95359790D01*
X51814944Y-95400500D01*
X51985056Y-95400500D01*
X52150225Y-95359790D01*
X52229692Y-95318081D01*
X52300849Y-95280736D01*
X52300850Y-95280734D01*
X52300852Y-95280734D01*
X52428183Y-95167929D01*
X52524818Y-95027930D01*
X52585140Y-94868872D01*
X52605645Y-94700000D01*
X52585140Y-94531128D01*
X52524818Y-94372070D01*
X52428183Y-94232071D01*
X52300852Y-94119266D01*
X52300849Y-94119263D01*
X52150226Y-94040210D01*
X51985056Y-93999500D01*
X51814944Y-93999500D01*
X51649773Y-94040210D01*
X51499150Y-94119263D01*
X51371816Y-94232072D01*
X51275182Y-94372068D01*
X51214860Y-94531125D01*
X51214859Y-94531130D01*
X51194355Y-94700000D01*
X43000500Y-94700000D01*
X43000500Y-91414999D01*
X43875487Y-91414999D01*
X43875488Y-91415000D01*
X44566988Y-91415000D01*
X44534075Y-91472007D01*
X44500000Y-91599174D01*
X44500000Y-91730826D01*
X44534075Y-91857993D01*
X44566988Y-91915000D01*
X43875488Y-91915000D01*
X43923062Y-92082205D01*
X43923067Y-92082218D01*
X44018061Y-92272991D01*
X44146500Y-92443071D01*
X44304000Y-92586651D01*
X44304002Y-92586653D01*
X44485201Y-92698846D01*
X44485207Y-92698849D01*
X44683941Y-92775838D01*
X44750000Y-92788186D01*
X44750000Y-92098012D01*
X44807007Y-92130925D01*
X44934174Y-92165000D01*
X45065826Y-92165000D01*
X45192993Y-92130925D01*
X45250000Y-92098012D01*
X45250000Y-92788185D01*
X45316058Y-92775838D01*
X45514792Y-92698849D01*
X45514798Y-92698846D01*
X45695997Y-92586653D01*
X45695999Y-92586651D01*
X45853499Y-92443071D01*
X45981938Y-92272991D01*
X46076932Y-92082218D01*
X46076937Y-92082205D01*
X46124512Y-91915000D01*
X45433012Y-91915000D01*
X45465925Y-91857993D01*
X45500000Y-91730826D01*
X45500000Y-91599174D01*
X45465925Y-91472007D01*
X45433012Y-91415000D01*
X46124512Y-91415000D01*
X46124512Y-91414999D01*
X46076937Y-91247794D01*
X46076932Y-91247781D01*
X45981938Y-91057008D01*
X45853499Y-90886928D01*
X45695999Y-90743348D01*
X45695997Y-90743346D01*
X45514798Y-90631153D01*
X45514789Y-90631149D01*
X45316063Y-90554163D01*
X45316058Y-90554162D01*
X45250000Y-90541813D01*
X45250000Y-91231988D01*
X45192993Y-91199075D01*
X45065826Y-91165000D01*
X44934174Y-91165000D01*
X44807007Y-91199075D01*
X44750000Y-91231988D01*
X44750000Y-90541813D01*
X44683941Y-90554162D01*
X44683936Y-90554163D01*
X44485210Y-90631149D01*
X44485201Y-90631153D01*
X44304002Y-90743346D01*
X44304000Y-90743348D01*
X44146500Y-90886928D01*
X44018061Y-91057008D01*
X43923067Y-91247781D01*
X43923062Y-91247794D01*
X43875487Y-91414999D01*
X43000500Y-91414999D01*
X43000500Y-88255247D01*
X43949500Y-88255247D01*
X43949500Y-89994752D01*
X43961131Y-90053229D01*
X43961132Y-90053230D01*
X44005447Y-90119552D01*
X44071769Y-90163867D01*
X44071770Y-90163868D01*
X44130247Y-90175499D01*
X44130250Y-90175500D01*
X44130252Y-90175500D01*
X45869750Y-90175500D01*
X45869751Y-90175499D01*
X45884568Y-90172552D01*
X45928229Y-90163868D01*
X45928229Y-90163867D01*
X45928231Y-90163867D01*
X45994552Y-90119552D01*
X46038867Y-90053231D01*
X46038867Y-90053229D01*
X46038868Y-90053229D01*
X46050499Y-89994752D01*
X46050500Y-89994750D01*
X46050500Y-88255249D01*
X46050499Y-88255247D01*
X46038868Y-88196770D01*
X46038867Y-88196769D01*
X45994552Y-88130447D01*
X45928230Y-88086132D01*
X45928229Y-88086131D01*
X45869752Y-88074500D01*
X45869748Y-88074500D01*
X44130252Y-88074500D01*
X44130247Y-88074500D01*
X44071770Y-88086131D01*
X44071769Y-88086132D01*
X44005447Y-88130447D01*
X43961132Y-88196769D01*
X43961131Y-88196770D01*
X43949500Y-88255247D01*
X43000500Y-88255247D01*
X43000500Y-87324500D01*
X43020185Y-87257461D01*
X43072989Y-87211706D01*
X43124500Y-87200500D01*
X69175500Y-87200500D01*
X69242539Y-87220185D01*
G37*
%TD.AperFunction*%
%TD*%
M02*
