M48
; DRILL file {KiCad 8.0.9-8.0.9-0~ubuntu24.04.1} date 2025-04-14T22:12:53+0200
; FORMAT={-:-/ absolute / metric / decimal}
; #@! TF.CreationDate,2025-04-14T22:12:53+02:00
; #@! TF.GenerationSoftware,Kicad,Pcbnew,8.0.9-8.0.9-0~ubuntu24.04.1
; #@! TF.FileFunction,Plated,1,4,PTH
FMAT,2
METRIC
; #@! TA.AperFunction,Plated,PTH,ViaDrill
T1C0.300
; #@! TA.AperFunction,Plated,PTH,ViaDrill
T2C0.400
; #@! TA.AperFunction,Plated,PTH,ComponentDrill
T3C1.000
%
G90
G05
T1
X52.225Y-121.075
T2
X43.6Y-109.1
X45.0Y-93.8
X45.6Y-111.2
X47.0Y-107.3
X47.1Y-110.6
X48.625Y-110.3
X50.2Y-107.625
X50.5Y-118.5
X50.5Y-124.1
X51.5Y-119.3
X52.025Y-110.2
X52.05Y-93.3
X52.4Y-114.0
X53.2Y-116.7
X53.5Y-120.8
X53.8Y-98.45
X54.2Y-92.9
X54.4Y-106.2
X54.825Y-111.95
X55.226Y-117.206
X55.9Y-88.9
X56.0Y-121.9
X56.2Y-120.4
X57.4Y-121.0
X57.6Y-111.45
X58.0Y-113.2
X59.4Y-116.3
X59.55Y-124.25
X59.962Y-92.375
X61.15Y-105.85
X63.0Y-120.7
X64.0Y-88.7
X66.0Y-88.7
X66.0Y-109.7
T3
X44.86Y-115.7
X44.86Y-118.24
X44.86Y-120.78
X44.86Y-123.32
X45.0Y-89.125
X45.0Y-91.665
X47.4Y-115.7
X47.4Y-118.24
X47.4Y-120.78
X47.4Y-123.32
X60.91Y-108.91
X60.91Y-111.45
X60.91Y-113.99
X60.96Y-117.6
X63.45Y-108.91
X63.45Y-111.45
X63.45Y-113.99
X63.5Y-117.6
M30
