%TF.GenerationSoftware,KiCad,Pcbnew,8.0.9-8.0.9-0~ubuntu24.04.1*%
%TF.CreationDate,2025-10-14T09:48:11+02:00*%
%TF.ProjectId,FastLapLights5V,46617374-4c61-4704-9c69-676874733556,MK7*%
%TF.SameCoordinates,Original*%
%TF.FileFunction,Copper,L2,Inr*%
%TF.FilePolarity,Positive*%
%FSLAX46Y46*%
G04 Gerber Fmt 4.6, Leading zero omitted, Abs format (unit mm)*
G04 Created by KiCad (PCBNEW 8.0.9-8.0.9-0~ubuntu24.04.1) date 2025-10-14 09:48:11*
%MOMM*%
%LPD*%
G01*
G04 APERTURE LIST*
%TA.AperFunction,ComponentPad*%
%ADD10R,1.700000X1.700000*%
%TD*%
%TA.AperFunction,ComponentPad*%
%ADD11O,1.700000X1.700000*%
%TD*%
%TA.AperFunction,ViaPad*%
%ADD12C,1.000000*%
%TD*%
%TA.AperFunction,ViaPad*%
%ADD13C,0.600000*%
%TD*%
%TA.AperFunction,ViaPad*%
%ADD14C,0.700000*%
%TD*%
G04 APERTURE END LIST*
D10*
%TO.N,+5V*%
%TO.C,J4*%
X44860000Y-115700000D03*
D11*
%TO.N,/START_LIGHTS_5V*%
X47400000Y-115700000D03*
%TO.N,/TRACK_LIGHTS_G*%
X44860000Y-118240000D03*
%TO.N,/TRACK_LIGHTS_R*%
X47400000Y-118240000D03*
%TO.N,/SW_RACE_MODE*%
X44860000Y-120780000D03*
%TO.N,/IO_POWER_RAIL_DATA*%
X47400000Y-120780000D03*
%TO.N,GND*%
X44860000Y-123320000D03*
%TO.N,+3.3V*%
X47400000Y-123320000D03*
%TD*%
D10*
%TO.N,VRAIL*%
%TO.C,J1*%
X45000000Y-89125000D03*
D11*
%TO.N,GND*%
X45000000Y-91665000D03*
%TD*%
D10*
%TO.N,/UART_TX*%
%TO.C,J3*%
X63500000Y-117600000D03*
D11*
%TO.N,/UART_RX*%
X60960000Y-117600000D03*
%TD*%
D10*
%TO.N,GND*%
%TO.C,J2*%
X60910000Y-108910000D03*
D11*
%TO.N,/SWD_SWCLK*%
X63450000Y-108910000D03*
%TO.N,+3.3V*%
X60910000Y-111450000D03*
%TO.N,/SWD_SWDIO*%
X63450000Y-111450000D03*
%TO.N,+3.3V*%
X60910000Y-113990000D03*
%TO.N,/SWD_NRST*%
X63450000Y-113990000D03*
%TD*%
D12*
%TO.N,GND*%
X53200000Y-116700000D03*
X45000000Y-93800000D03*
X50500000Y-124100000D03*
X50200000Y-107625000D03*
X63000000Y-120700000D03*
X53800000Y-98450000D03*
X59962500Y-92375000D03*
X64000000Y-88700000D03*
X52025000Y-110200000D03*
X57400000Y-121000000D03*
D13*
X56700000Y-125700000D03*
D12*
X54825000Y-111950000D03*
D14*
X55225686Y-117205686D03*
D12*
X54200000Y-92900000D03*
X52400000Y-114000000D03*
X58000000Y-113200000D03*
X52050000Y-93300000D03*
X59400000Y-116300000D03*
X56200000Y-120400000D03*
X47000000Y-107300000D03*
X66000000Y-88700000D03*
X66000000Y-109700000D03*
X51500000Y-119300000D03*
X43600000Y-109100000D03*
D13*
%TO.N,/TRACK_LIGHTS_R*%
X50200000Y-120500000D03*
D12*
%TO.N,+3.3V*%
X57600000Y-111450000D03*
D13*
%TO.N,/SWD_NRST*%
X55650000Y-121350000D03*
D12*
%TO.N,VRAIL*%
X47100000Y-110600000D03*
%TO.N,/IO_POWER_RAIL_DATA*%
X45600000Y-111200000D03*
D13*
%TO.N,/SW_RACE_MODE*%
X52400000Y-120900000D03*
D12*
%TO.N,+5V*%
X55900000Y-88900000D03*
X50500000Y-118500000D03*
X61150000Y-105850000D03*
X48625000Y-110300000D03*
X54400000Y-106200000D03*
D13*
%TO.N,/SJ1_1*%
X56300000Y-123100000D03*
%TO.N,/SJ2_1*%
X53500000Y-120800000D03*
%TD*%
%TA.AperFunction,Conductor*%
%TO.N,GND*%
G36*
X66942539Y-87720185D02*
G01*
X66988294Y-87772989D01*
X66999500Y-87824500D01*
X66999500Y-126575500D01*
X66979815Y-126642539D01*
X66927011Y-126688294D01*
X66875500Y-126699500D01*
X43124500Y-126699500D01*
X43057461Y-126679815D01*
X43011706Y-126627011D01*
X43000500Y-126575500D01*
X43000500Y-123069999D01*
X43735487Y-123069999D01*
X43735488Y-123070000D01*
X44426988Y-123070000D01*
X44394075Y-123127007D01*
X44360000Y-123254174D01*
X44360000Y-123385826D01*
X44394075Y-123512993D01*
X44426988Y-123570000D01*
X43735488Y-123570000D01*
X43783062Y-123737205D01*
X43783067Y-123737218D01*
X43878061Y-123927991D01*
X44006500Y-124098071D01*
X44164000Y-124241651D01*
X44164002Y-124241653D01*
X44345201Y-124353846D01*
X44345207Y-124353849D01*
X44543941Y-124430838D01*
X44610000Y-124443186D01*
X44610000Y-123753012D01*
X44667007Y-123785925D01*
X44794174Y-123820000D01*
X44925826Y-123820000D01*
X45052993Y-123785925D01*
X45110000Y-123753012D01*
X45110000Y-124443185D01*
X45176058Y-124430838D01*
X45374792Y-124353849D01*
X45374798Y-124353846D01*
X45555997Y-124241653D01*
X45555999Y-124241651D01*
X45713499Y-124098071D01*
X45841938Y-123927991D01*
X45936932Y-123737218D01*
X45936937Y-123737205D01*
X45984512Y-123570000D01*
X45293012Y-123570000D01*
X45325925Y-123512993D01*
X45360000Y-123385826D01*
X45360000Y-123320000D01*
X46344417Y-123320000D01*
X46364699Y-123525932D01*
X46378067Y-123570000D01*
X46424768Y-123723954D01*
X46522315Y-123906450D01*
X46522317Y-123906452D01*
X46653589Y-124066410D01*
X46692169Y-124098071D01*
X46813550Y-124197685D01*
X46996046Y-124295232D01*
X47194066Y-124355300D01*
X47194065Y-124355300D01*
X47212529Y-124357118D01*
X47400000Y-124375583D01*
X47605934Y-124355300D01*
X47803954Y-124295232D01*
X47986450Y-124197685D01*
X48146410Y-124066410D01*
X48277685Y-123906450D01*
X48375232Y-123723954D01*
X48435300Y-123525934D01*
X48455583Y-123320000D01*
X48435300Y-123114066D01*
X48431033Y-123100000D01*
X55794353Y-123100000D01*
X55814834Y-123242456D01*
X55820186Y-123254174D01*
X55874623Y-123373373D01*
X55968872Y-123482143D01*
X56089947Y-123559953D01*
X56089950Y-123559954D01*
X56089949Y-123559954D01*
X56228036Y-123600499D01*
X56228038Y-123600500D01*
X56228039Y-123600500D01*
X56371962Y-123600500D01*
X56371962Y-123600499D01*
X56510053Y-123559953D01*
X56631128Y-123482143D01*
X56725377Y-123373373D01*
X56785165Y-123242457D01*
X56805647Y-123100000D01*
X56785165Y-122957543D01*
X56725377Y-122826627D01*
X56631128Y-122717857D01*
X56510053Y-122640047D01*
X56510051Y-122640046D01*
X56510049Y-122640045D01*
X56510050Y-122640045D01*
X56371963Y-122599500D01*
X56371961Y-122599500D01*
X56228039Y-122599500D01*
X56228036Y-122599500D01*
X56089949Y-122640045D01*
X55968873Y-122717856D01*
X55874623Y-122826626D01*
X55874622Y-122826628D01*
X55814834Y-122957543D01*
X55794353Y-123100000D01*
X48431033Y-123100000D01*
X48375232Y-122916046D01*
X48277685Y-122733550D01*
X48167674Y-122599500D01*
X48146410Y-122573589D01*
X47986452Y-122442317D01*
X47986453Y-122442317D01*
X47986450Y-122442315D01*
X47803954Y-122344768D01*
X47605934Y-122284700D01*
X47605932Y-122284699D01*
X47605934Y-122284699D01*
X47400000Y-122264417D01*
X47194067Y-122284699D01*
X46996043Y-122344769D01*
X46895809Y-122398346D01*
X46813550Y-122442315D01*
X46813548Y-122442316D01*
X46813547Y-122442317D01*
X46653589Y-122573589D01*
X46522317Y-122733547D01*
X46424769Y-122916043D01*
X46364699Y-123114067D01*
X46344417Y-123320000D01*
X45360000Y-123320000D01*
X45360000Y-123254174D01*
X45325925Y-123127007D01*
X45293012Y-123070000D01*
X45984512Y-123070000D01*
X45984512Y-123069999D01*
X45936937Y-122902794D01*
X45936932Y-122902781D01*
X45841938Y-122712008D01*
X45713499Y-122541928D01*
X45555999Y-122398348D01*
X45555997Y-122398346D01*
X45374798Y-122286153D01*
X45374789Y-122286149D01*
X45176063Y-122209163D01*
X45176058Y-122209162D01*
X45110000Y-122196813D01*
X45110000Y-122886988D01*
X45052993Y-122854075D01*
X44925826Y-122820000D01*
X44794174Y-122820000D01*
X44667007Y-122854075D01*
X44610000Y-122886988D01*
X44610000Y-122196813D01*
X44543941Y-122209162D01*
X44543936Y-122209163D01*
X44345210Y-122286149D01*
X44345201Y-122286153D01*
X44164002Y-122398346D01*
X44164000Y-122398348D01*
X44006500Y-122541928D01*
X43878061Y-122712008D01*
X43783067Y-122902781D01*
X43783062Y-122902794D01*
X43735487Y-123069999D01*
X43000500Y-123069999D01*
X43000500Y-120780000D01*
X43804417Y-120780000D01*
X43824699Y-120985932D01*
X43841846Y-121042457D01*
X43884768Y-121183954D01*
X43982315Y-121366450D01*
X43982317Y-121366452D01*
X44113589Y-121526410D01*
X44210209Y-121605702D01*
X44273550Y-121657685D01*
X44456046Y-121755232D01*
X44654066Y-121815300D01*
X44654065Y-121815300D01*
X44672529Y-121817118D01*
X44860000Y-121835583D01*
X45065934Y-121815300D01*
X45263954Y-121755232D01*
X45446450Y-121657685D01*
X45606410Y-121526410D01*
X45737685Y-121366450D01*
X45835232Y-121183954D01*
X45895300Y-120985934D01*
X45915583Y-120780000D01*
X46344417Y-120780000D01*
X46364699Y-120985932D01*
X46381846Y-121042457D01*
X46424768Y-121183954D01*
X46522315Y-121366450D01*
X46522317Y-121366452D01*
X46653589Y-121526410D01*
X46750209Y-121605702D01*
X46813550Y-121657685D01*
X46996046Y-121755232D01*
X47194066Y-121815300D01*
X47194065Y-121815300D01*
X47212529Y-121817118D01*
X47400000Y-121835583D01*
X47605934Y-121815300D01*
X47803954Y-121755232D01*
X47986450Y-121657685D01*
X48146410Y-121526410D01*
X48277685Y-121366450D01*
X48375232Y-121183954D01*
X48435300Y-120985934D01*
X48455583Y-120780000D01*
X48435300Y-120574066D01*
X48412833Y-120500000D01*
X49694353Y-120500000D01*
X49714834Y-120642456D01*
X49774622Y-120773371D01*
X49774623Y-120773373D01*
X49868872Y-120882143D01*
X49989947Y-120959953D01*
X49989950Y-120959954D01*
X49989949Y-120959954D01*
X50128036Y-121000499D01*
X50128038Y-121000500D01*
X50128039Y-121000500D01*
X50271962Y-121000500D01*
X50271962Y-121000499D01*
X50410053Y-120959953D01*
X50503342Y-120900000D01*
X51894353Y-120900000D01*
X51914834Y-121042456D01*
X51938721Y-121094760D01*
X51974623Y-121173373D01*
X52068872Y-121282143D01*
X52189947Y-121359953D01*
X52189950Y-121359954D01*
X52189949Y-121359954D01*
X52328036Y-121400499D01*
X52328038Y-121400500D01*
X52328039Y-121400500D01*
X52471962Y-121400500D01*
X52471962Y-121400499D01*
X52610053Y-121359953D01*
X52625540Y-121350000D01*
X55144353Y-121350000D01*
X55164834Y-121492456D01*
X55180341Y-121526410D01*
X55224623Y-121623373D01*
X55318872Y-121732143D01*
X55439947Y-121809953D01*
X55439950Y-121809954D01*
X55439949Y-121809954D01*
X55578036Y-121850499D01*
X55578038Y-121850500D01*
X55578039Y-121850500D01*
X55721962Y-121850500D01*
X55721962Y-121850499D01*
X55860053Y-121809953D01*
X55981128Y-121732143D01*
X56075377Y-121623373D01*
X56135165Y-121492457D01*
X56155647Y-121350000D01*
X56135165Y-121207543D01*
X56075377Y-121076627D01*
X55981128Y-120967857D01*
X55860053Y-120890047D01*
X55860051Y-120890046D01*
X55860049Y-120890045D01*
X55860050Y-120890045D01*
X55721963Y-120849500D01*
X55721961Y-120849500D01*
X55578039Y-120849500D01*
X55578036Y-120849500D01*
X55439949Y-120890045D01*
X55318873Y-120967856D01*
X55224623Y-121076626D01*
X55224622Y-121076628D01*
X55164834Y-121207543D01*
X55144353Y-121350000D01*
X52625540Y-121350000D01*
X52731128Y-121282143D01*
X52825377Y-121173373D01*
X52861280Y-121094755D01*
X52907032Y-121041956D01*
X52974071Y-121022271D01*
X53041111Y-121041955D01*
X53067216Y-121068055D01*
X53068815Y-121066670D01*
X53074622Y-121073372D01*
X53074623Y-121073373D01*
X53168872Y-121182143D01*
X53289947Y-121259953D01*
X53289950Y-121259954D01*
X53289949Y-121259954D01*
X53428036Y-121300499D01*
X53428038Y-121300500D01*
X53428039Y-121300500D01*
X53571962Y-121300500D01*
X53571962Y-121300499D01*
X53710053Y-121259953D01*
X53831128Y-121182143D01*
X53925377Y-121073373D01*
X53985165Y-120942457D01*
X54005647Y-120800000D01*
X53985165Y-120657543D01*
X53925377Y-120526627D01*
X53831128Y-120417857D01*
X53710053Y-120340047D01*
X53710051Y-120340046D01*
X53710049Y-120340045D01*
X53710050Y-120340045D01*
X53571963Y-120299500D01*
X53571961Y-120299500D01*
X53428039Y-120299500D01*
X53428036Y-120299500D01*
X53289949Y-120340045D01*
X53168873Y-120417856D01*
X53074623Y-120526626D01*
X53074622Y-120526628D01*
X53038721Y-120605240D01*
X52992966Y-120658044D01*
X52925926Y-120677728D01*
X52858887Y-120658043D01*
X52832786Y-120631942D01*
X52831185Y-120633330D01*
X52806845Y-120605240D01*
X52731128Y-120517857D01*
X52610053Y-120440047D01*
X52610051Y-120440046D01*
X52610049Y-120440045D01*
X52610050Y-120440045D01*
X52471963Y-120399500D01*
X52471961Y-120399500D01*
X52328039Y-120399500D01*
X52328036Y-120399500D01*
X52189949Y-120440045D01*
X52068873Y-120517856D01*
X51974623Y-120626626D01*
X51974622Y-120626628D01*
X51914834Y-120757543D01*
X51894353Y-120900000D01*
X50503342Y-120900000D01*
X50531128Y-120882143D01*
X50625377Y-120773373D01*
X50685165Y-120642457D01*
X50705647Y-120500000D01*
X50685165Y-120357543D01*
X50625377Y-120226627D01*
X50531128Y-120117857D01*
X50410053Y-120040047D01*
X50410051Y-120040046D01*
X50410049Y-120040045D01*
X50410050Y-120040045D01*
X50271963Y-119999500D01*
X50271961Y-119999500D01*
X50128039Y-119999500D01*
X50128036Y-119999500D01*
X49989949Y-120040045D01*
X49868873Y-120117856D01*
X49774623Y-120226626D01*
X49774622Y-120226628D01*
X49714834Y-120357543D01*
X49694353Y-120500000D01*
X48412833Y-120500000D01*
X48375232Y-120376046D01*
X48277685Y-120193550D01*
X48215565Y-120117856D01*
X48146410Y-120033589D01*
X47986452Y-119902317D01*
X47986453Y-119902317D01*
X47986450Y-119902315D01*
X47803954Y-119804768D01*
X47605934Y-119744700D01*
X47605932Y-119744699D01*
X47605934Y-119744699D01*
X47400000Y-119724417D01*
X47194067Y-119744699D01*
X46996043Y-119804769D01*
X46885898Y-119863643D01*
X46813550Y-119902315D01*
X46813548Y-119902316D01*
X46813547Y-119902317D01*
X46653589Y-120033589D01*
X46522317Y-120193547D01*
X46522315Y-120193550D01*
X46483643Y-120265898D01*
X46424769Y-120376043D01*
X46364699Y-120574067D01*
X46344417Y-120780000D01*
X45915583Y-120780000D01*
X45895300Y-120574066D01*
X45835232Y-120376046D01*
X45737685Y-120193550D01*
X45675565Y-120117856D01*
X45606410Y-120033589D01*
X45446452Y-119902317D01*
X45446453Y-119902317D01*
X45446450Y-119902315D01*
X45263954Y-119804768D01*
X45065934Y-119744700D01*
X45065932Y-119744699D01*
X45065934Y-119744699D01*
X44860000Y-119724417D01*
X44654067Y-119744699D01*
X44456043Y-119804769D01*
X44345898Y-119863643D01*
X44273550Y-119902315D01*
X44273548Y-119902316D01*
X44273547Y-119902317D01*
X44113589Y-120033589D01*
X43982317Y-120193547D01*
X43982315Y-120193550D01*
X43943643Y-120265898D01*
X43884769Y-120376043D01*
X43824699Y-120574067D01*
X43804417Y-120780000D01*
X43000500Y-120780000D01*
X43000500Y-118240000D01*
X43804417Y-118240000D01*
X43824699Y-118445932D01*
X43849664Y-118528229D01*
X43884768Y-118643954D01*
X43982315Y-118826450D01*
X44016969Y-118868677D01*
X44113589Y-118986410D01*
X44210209Y-119065702D01*
X44273550Y-119117685D01*
X44456046Y-119215232D01*
X44654066Y-119275300D01*
X44654065Y-119275300D01*
X44672529Y-119277118D01*
X44860000Y-119295583D01*
X45065934Y-119275300D01*
X45263954Y-119215232D01*
X45446450Y-119117685D01*
X45606410Y-118986410D01*
X45737685Y-118826450D01*
X45835232Y-118643954D01*
X45895300Y-118445934D01*
X45915583Y-118240000D01*
X46344417Y-118240000D01*
X46364699Y-118445932D01*
X46389664Y-118528229D01*
X46424768Y-118643954D01*
X46522315Y-118826450D01*
X46556969Y-118868677D01*
X46653589Y-118986410D01*
X46750209Y-119065702D01*
X46813550Y-119117685D01*
X46996046Y-119215232D01*
X47194066Y-119275300D01*
X47194065Y-119275300D01*
X47212529Y-119277118D01*
X47400000Y-119295583D01*
X47605934Y-119275300D01*
X47803954Y-119215232D01*
X47986450Y-119117685D01*
X48146410Y-118986410D01*
X48277685Y-118826450D01*
X48375232Y-118643954D01*
X48418899Y-118500000D01*
X49794355Y-118500000D01*
X49814859Y-118668869D01*
X49814860Y-118668874D01*
X49875182Y-118827931D01*
X49937475Y-118918177D01*
X49971817Y-118967929D01*
X50077505Y-119061560D01*
X50099150Y-119080736D01*
X50249773Y-119159789D01*
X50249775Y-119159790D01*
X50414944Y-119200500D01*
X50585056Y-119200500D01*
X50750225Y-119159790D01*
X50830454Y-119117682D01*
X50900849Y-119080736D01*
X50900850Y-119080734D01*
X50900852Y-119080734D01*
X51028183Y-118967929D01*
X51124818Y-118827930D01*
X51185140Y-118668872D01*
X51205645Y-118500000D01*
X51185140Y-118331128D01*
X51124818Y-118172070D01*
X51028183Y-118032071D01*
X50900852Y-117919266D01*
X50900849Y-117919263D01*
X50750226Y-117840210D01*
X50585056Y-117799500D01*
X50414944Y-117799500D01*
X50249773Y-117840210D01*
X50099150Y-117919263D01*
X49971816Y-118032072D01*
X49875182Y-118172068D01*
X49814860Y-118331125D01*
X49814859Y-118331130D01*
X49794355Y-118500000D01*
X48418899Y-118500000D01*
X48435300Y-118445934D01*
X48455583Y-118240000D01*
X48435300Y-118034066D01*
X48375232Y-117836046D01*
X48277685Y-117653550D01*
X48233737Y-117600000D01*
X59904417Y-117600000D01*
X59924699Y-117805932D01*
X59924700Y-117805934D01*
X59984768Y-118003954D01*
X60082315Y-118186450D01*
X60082317Y-118186452D01*
X60213589Y-118346410D01*
X60310209Y-118425702D01*
X60373550Y-118477685D01*
X60556046Y-118575232D01*
X60754066Y-118635300D01*
X60754065Y-118635300D01*
X60772529Y-118637118D01*
X60960000Y-118655583D01*
X61165934Y-118635300D01*
X61363954Y-118575232D01*
X61546450Y-118477685D01*
X61706410Y-118346410D01*
X61837685Y-118186450D01*
X61935232Y-118003954D01*
X61995300Y-117805934D01*
X62015583Y-117600000D01*
X61995300Y-117394066D01*
X61935232Y-117196046D01*
X61837685Y-117013550D01*
X61785702Y-116950209D01*
X61706410Y-116853589D01*
X61580794Y-116750500D01*
X61556115Y-116730247D01*
X62449500Y-116730247D01*
X62449500Y-118469752D01*
X62461131Y-118528229D01*
X62461132Y-118528230D01*
X62505447Y-118594552D01*
X62571769Y-118638867D01*
X62571770Y-118638868D01*
X62630247Y-118650499D01*
X62630250Y-118650500D01*
X62630252Y-118650500D01*
X64369750Y-118650500D01*
X64369751Y-118650499D01*
X64384568Y-118647552D01*
X64428229Y-118638868D01*
X64428229Y-118638867D01*
X64428231Y-118638867D01*
X64494552Y-118594552D01*
X64538867Y-118528231D01*
X64538867Y-118528229D01*
X64538868Y-118528229D01*
X64550499Y-118469752D01*
X64550500Y-118469750D01*
X64550500Y-116730249D01*
X64550499Y-116730247D01*
X64538868Y-116671770D01*
X64538867Y-116671769D01*
X64494552Y-116605447D01*
X64428230Y-116561132D01*
X64428229Y-116561131D01*
X64369752Y-116549500D01*
X64369748Y-116549500D01*
X62630252Y-116549500D01*
X62630247Y-116549500D01*
X62571770Y-116561131D01*
X62571769Y-116561132D01*
X62505447Y-116605447D01*
X62461132Y-116671769D01*
X62461131Y-116671770D01*
X62449500Y-116730247D01*
X61556115Y-116730247D01*
X61546450Y-116722315D01*
X61363954Y-116624768D01*
X61165934Y-116564700D01*
X61165932Y-116564699D01*
X61165934Y-116564699D01*
X60960000Y-116544417D01*
X60754067Y-116564699D01*
X60556043Y-116624769D01*
X60468114Y-116671769D01*
X60373550Y-116722315D01*
X60373548Y-116722316D01*
X60373547Y-116722317D01*
X60213589Y-116853589D01*
X60082317Y-117013547D01*
X59984769Y-117196043D01*
X59924699Y-117394067D01*
X59904417Y-117600000D01*
X48233737Y-117600000D01*
X48225702Y-117590209D01*
X48146410Y-117493589D01*
X47986452Y-117362317D01*
X47986453Y-117362317D01*
X47986450Y-117362315D01*
X47803954Y-117264768D01*
X47605934Y-117204700D01*
X47605932Y-117204699D01*
X47605934Y-117204699D01*
X47400000Y-117184417D01*
X47194067Y-117204699D01*
X46996043Y-117264769D01*
X46885898Y-117323643D01*
X46813550Y-117362315D01*
X46813548Y-117362316D01*
X46813547Y-117362317D01*
X46653589Y-117493589D01*
X46522317Y-117653547D01*
X46424769Y-117836043D01*
X46364699Y-118034067D01*
X46344417Y-118240000D01*
X45915583Y-118240000D01*
X45895300Y-118034066D01*
X45835232Y-117836046D01*
X45737685Y-117653550D01*
X45685702Y-117590209D01*
X45606410Y-117493589D01*
X45446452Y-117362317D01*
X45446453Y-117362317D01*
X45446450Y-117362315D01*
X45263954Y-117264768D01*
X45065934Y-117204700D01*
X45065932Y-117204699D01*
X45065934Y-117204699D01*
X44860000Y-117184417D01*
X44654067Y-117204699D01*
X44456043Y-117264769D01*
X44345898Y-117323643D01*
X44273550Y-117362315D01*
X44273548Y-117362316D01*
X44273547Y-117362317D01*
X44113589Y-117493589D01*
X43982317Y-117653547D01*
X43884769Y-117836043D01*
X43824699Y-118034067D01*
X43804417Y-118240000D01*
X43000500Y-118240000D01*
X43000500Y-114830247D01*
X43809500Y-114830247D01*
X43809500Y-116569752D01*
X43821131Y-116628229D01*
X43821132Y-116628230D01*
X43865447Y-116694552D01*
X43931769Y-116738867D01*
X43931770Y-116738868D01*
X43990247Y-116750499D01*
X43990250Y-116750500D01*
X43990252Y-116750500D01*
X45729750Y-116750500D01*
X45729751Y-116750499D01*
X45744568Y-116747552D01*
X45788229Y-116738868D01*
X45788229Y-116738867D01*
X45788231Y-116738867D01*
X45854552Y-116694552D01*
X45898867Y-116628231D01*
X45898867Y-116628229D01*
X45898868Y-116628229D01*
X45910499Y-116569752D01*
X45910500Y-116569750D01*
X45910500Y-115700000D01*
X46344417Y-115700000D01*
X46364699Y-115905932D01*
X46364700Y-115905934D01*
X46424768Y-116103954D01*
X46522315Y-116286450D01*
X46522317Y-116286452D01*
X46653589Y-116446410D01*
X46750209Y-116525702D01*
X46813550Y-116577685D01*
X46996046Y-116675232D01*
X47194066Y-116735300D01*
X47194065Y-116735300D01*
X47212529Y-116737118D01*
X47400000Y-116755583D01*
X47605934Y-116735300D01*
X47803954Y-116675232D01*
X47986450Y-116577685D01*
X48146410Y-116446410D01*
X48277685Y-116286450D01*
X48375232Y-116103954D01*
X48435300Y-115905934D01*
X48455583Y-115700000D01*
X48435300Y-115494066D01*
X48375232Y-115296046D01*
X48277685Y-115113550D01*
X48205261Y-115025300D01*
X48146410Y-114953589D01*
X47996121Y-114830252D01*
X47986450Y-114822315D01*
X47803954Y-114724768D01*
X47605934Y-114664700D01*
X47605932Y-114664699D01*
X47605934Y-114664699D01*
X47400000Y-114644417D01*
X47194067Y-114664699D01*
X46996043Y-114724769D01*
X46908114Y-114771769D01*
X46813550Y-114822315D01*
X46813548Y-114822316D01*
X46813547Y-114822317D01*
X46653589Y-114953589D01*
X46522317Y-115113547D01*
X46424769Y-115296043D01*
X46364699Y-115494067D01*
X46344417Y-115700000D01*
X45910500Y-115700000D01*
X45910500Y-114830249D01*
X45910499Y-114830247D01*
X45898868Y-114771770D01*
X45898867Y-114771769D01*
X45854552Y-114705447D01*
X45788230Y-114661132D01*
X45788229Y-114661131D01*
X45729752Y-114649500D01*
X45729748Y-114649500D01*
X43990252Y-114649500D01*
X43990247Y-114649500D01*
X43931770Y-114661131D01*
X43931769Y-114661132D01*
X43865447Y-114705447D01*
X43821132Y-114771769D01*
X43821131Y-114771770D01*
X43809500Y-114830247D01*
X43000500Y-114830247D01*
X43000500Y-113990000D01*
X59854417Y-113990000D01*
X59874699Y-114195932D01*
X59874700Y-114195934D01*
X59934768Y-114393954D01*
X60032315Y-114576450D01*
X60032317Y-114576452D01*
X60163589Y-114736410D01*
X60260209Y-114815702D01*
X60323550Y-114867685D01*
X60506046Y-114965232D01*
X60704066Y-115025300D01*
X60704065Y-115025300D01*
X60722529Y-115027118D01*
X60910000Y-115045583D01*
X61115934Y-115025300D01*
X61313954Y-114965232D01*
X61496450Y-114867685D01*
X61656410Y-114736410D01*
X61787685Y-114576450D01*
X61885232Y-114393954D01*
X61945300Y-114195934D01*
X61965583Y-113990000D01*
X62394417Y-113990000D01*
X62414699Y-114195932D01*
X62414700Y-114195934D01*
X62474768Y-114393954D01*
X62572315Y-114576450D01*
X62572317Y-114576452D01*
X62703589Y-114736410D01*
X62800209Y-114815702D01*
X62863550Y-114867685D01*
X63046046Y-114965232D01*
X63244066Y-115025300D01*
X63244065Y-115025300D01*
X63262529Y-115027118D01*
X63450000Y-115045583D01*
X63655934Y-115025300D01*
X63853954Y-114965232D01*
X64036450Y-114867685D01*
X64196410Y-114736410D01*
X64327685Y-114576450D01*
X64425232Y-114393954D01*
X64485300Y-114195934D01*
X64505583Y-113990000D01*
X64485300Y-113784066D01*
X64425232Y-113586046D01*
X64327685Y-113403550D01*
X64275702Y-113340209D01*
X64196410Y-113243589D01*
X64036452Y-113112317D01*
X64036453Y-113112317D01*
X64036450Y-113112315D01*
X63853954Y-113014768D01*
X63655934Y-112954700D01*
X63655932Y-112954699D01*
X63655934Y-112954699D01*
X63450000Y-112934417D01*
X63244067Y-112954699D01*
X63046043Y-113014769D01*
X62935898Y-113073643D01*
X62863550Y-113112315D01*
X62863548Y-113112316D01*
X62863547Y-113112317D01*
X62703589Y-113243589D01*
X62572317Y-113403547D01*
X62474769Y-113586043D01*
X62414699Y-113784067D01*
X62394417Y-113990000D01*
X61965583Y-113990000D01*
X61945300Y-113784066D01*
X61885232Y-113586046D01*
X61787685Y-113403550D01*
X61735702Y-113340209D01*
X61656410Y-113243589D01*
X61496452Y-113112317D01*
X61496453Y-113112317D01*
X61496450Y-113112315D01*
X61313954Y-113014768D01*
X61115934Y-112954700D01*
X61115932Y-112954699D01*
X61115934Y-112954699D01*
X60910000Y-112934417D01*
X60704067Y-112954699D01*
X60506043Y-113014769D01*
X60395898Y-113073643D01*
X60323550Y-113112315D01*
X60323548Y-113112316D01*
X60323547Y-113112317D01*
X60163589Y-113243589D01*
X60032317Y-113403547D01*
X59934769Y-113586043D01*
X59874699Y-113784067D01*
X59854417Y-113990000D01*
X43000500Y-113990000D01*
X43000500Y-111200000D01*
X44894355Y-111200000D01*
X44914859Y-111368869D01*
X44914860Y-111368874D01*
X44975182Y-111527931D01*
X45037475Y-111618177D01*
X45071817Y-111667929D01*
X45177505Y-111761560D01*
X45199150Y-111780736D01*
X45338659Y-111853956D01*
X45349775Y-111859790D01*
X45514944Y-111900500D01*
X45685056Y-111900500D01*
X45850225Y-111859790D01*
X45929692Y-111818081D01*
X46000849Y-111780736D01*
X46000850Y-111780734D01*
X46000852Y-111780734D01*
X46128183Y-111667929D01*
X46224818Y-111527930D01*
X46254373Y-111450000D01*
X56894355Y-111450000D01*
X56914859Y-111618869D01*
X56914860Y-111618874D01*
X56975182Y-111777931D01*
X57027658Y-111853954D01*
X57071817Y-111917929D01*
X57177505Y-112011560D01*
X57199150Y-112030736D01*
X57349773Y-112109789D01*
X57349775Y-112109790D01*
X57514944Y-112150500D01*
X57685056Y-112150500D01*
X57850225Y-112109790D01*
X57929692Y-112068081D01*
X58000849Y-112030736D01*
X58000850Y-112030734D01*
X58000852Y-112030734D01*
X58128183Y-111917929D01*
X58224818Y-111777930D01*
X58285140Y-111618872D01*
X58305645Y-111450000D01*
X59854417Y-111450000D01*
X59874699Y-111655932D01*
X59904734Y-111754944D01*
X59934768Y-111853954D01*
X60032315Y-112036450D01*
X60032317Y-112036452D01*
X60163589Y-112196410D01*
X60260209Y-112275702D01*
X60323550Y-112327685D01*
X60506046Y-112425232D01*
X60704066Y-112485300D01*
X60704065Y-112485300D01*
X60722529Y-112487118D01*
X60910000Y-112505583D01*
X61115934Y-112485300D01*
X61313954Y-112425232D01*
X61496450Y-112327685D01*
X61656410Y-112196410D01*
X61787685Y-112036450D01*
X61885232Y-111853954D01*
X61945300Y-111655934D01*
X61965583Y-111450000D01*
X62394417Y-111450000D01*
X62414699Y-111655932D01*
X62444734Y-111754944D01*
X62474768Y-111853954D01*
X62572315Y-112036450D01*
X62572317Y-112036452D01*
X62703589Y-112196410D01*
X62800209Y-112275702D01*
X62863550Y-112327685D01*
X63046046Y-112425232D01*
X63244066Y-112485300D01*
X63244065Y-112485300D01*
X63262529Y-112487118D01*
X63450000Y-112505583D01*
X63655934Y-112485300D01*
X63853954Y-112425232D01*
X64036450Y-112327685D01*
X64196410Y-112196410D01*
X64327685Y-112036450D01*
X64425232Y-111853954D01*
X64485300Y-111655934D01*
X64505583Y-111450000D01*
X64485300Y-111244066D01*
X64425232Y-111046046D01*
X64327685Y-110863550D01*
X64249987Y-110768874D01*
X64196410Y-110703589D01*
X64036452Y-110572317D01*
X64036453Y-110572317D01*
X64036450Y-110572315D01*
X63853954Y-110474768D01*
X63655934Y-110414700D01*
X63655932Y-110414699D01*
X63655934Y-110414699D01*
X63450000Y-110394417D01*
X63244067Y-110414699D01*
X63046043Y-110474769D01*
X62935898Y-110533643D01*
X62863550Y-110572315D01*
X62863548Y-110572316D01*
X62863547Y-110572317D01*
X62703589Y-110703589D01*
X62586277Y-110846537D01*
X62572315Y-110863550D01*
X62569260Y-110869266D01*
X62474769Y-111046043D01*
X62414699Y-111244067D01*
X62394417Y-111450000D01*
X61965583Y-111450000D01*
X61945300Y-111244066D01*
X61885232Y-111046046D01*
X61787685Y-110863550D01*
X61709987Y-110768874D01*
X61656410Y-110703589D01*
X61496452Y-110572317D01*
X61496453Y-110572317D01*
X61496450Y-110572315D01*
X61313954Y-110474768D01*
X61115934Y-110414700D01*
X61115932Y-110414699D01*
X61115934Y-110414699D01*
X60910000Y-110394417D01*
X60704067Y-110414699D01*
X60506043Y-110474769D01*
X60395898Y-110533643D01*
X60323550Y-110572315D01*
X60323548Y-110572316D01*
X60323547Y-110572317D01*
X60163589Y-110703589D01*
X60046277Y-110846537D01*
X60032315Y-110863550D01*
X60029260Y-110869266D01*
X59934769Y-111046043D01*
X59874699Y-111244067D01*
X59854417Y-111450000D01*
X58305645Y-111450000D01*
X58285140Y-111281128D01*
X58224818Y-111122070D01*
X58128183Y-110982071D01*
X58000852Y-110869266D01*
X58000849Y-110869263D01*
X57850226Y-110790210D01*
X57685056Y-110749500D01*
X57514944Y-110749500D01*
X57349773Y-110790210D01*
X57199150Y-110869263D01*
X57071816Y-110982072D01*
X56975182Y-111122068D01*
X56914860Y-111281125D01*
X56914859Y-111281130D01*
X56894355Y-111450000D01*
X46254373Y-111450000D01*
X46285140Y-111368872D01*
X46305645Y-111200000D01*
X46290008Y-111071223D01*
X46301468Y-111002304D01*
X46348371Y-110950518D01*
X46415827Y-110932310D01*
X46482418Y-110953462D01*
X46515153Y-110985839D01*
X46571815Y-111067927D01*
X46699150Y-111180736D01*
X46849773Y-111259789D01*
X46849775Y-111259790D01*
X47014944Y-111300500D01*
X47185056Y-111300500D01*
X47350225Y-111259790D01*
X47464144Y-111200000D01*
X47500849Y-111180736D01*
X47500850Y-111180734D01*
X47500852Y-111180734D01*
X47628183Y-111067929D01*
X47724818Y-110927930D01*
X47785140Y-110768872D01*
X47792451Y-110708653D01*
X47820072Y-110644478D01*
X47878006Y-110605420D01*
X47947858Y-110603885D01*
X48007453Y-110640358D01*
X48017596Y-110653160D01*
X48096815Y-110767927D01*
X48096816Y-110767928D01*
X48096817Y-110767929D01*
X48097884Y-110768874D01*
X48224150Y-110880736D01*
X48357109Y-110950518D01*
X48374775Y-110959790D01*
X48539944Y-111000500D01*
X48710056Y-111000500D01*
X48875225Y-110959790D01*
X48954692Y-110918081D01*
X49025849Y-110880736D01*
X49025850Y-110880734D01*
X49025852Y-110880734D01*
X49153183Y-110767929D01*
X49249818Y-110627930D01*
X49310140Y-110468872D01*
X49330645Y-110300000D01*
X49310140Y-110131128D01*
X49249818Y-109972070D01*
X49245340Y-109965583D01*
X49199726Y-109899500D01*
X49153183Y-109832071D01*
X49025852Y-109719266D01*
X49025849Y-109719263D01*
X48875226Y-109640210D01*
X48710056Y-109599500D01*
X48539944Y-109599500D01*
X48374773Y-109640210D01*
X48224150Y-109719263D01*
X48096816Y-109832072D01*
X48000182Y-109972068D01*
X47939860Y-110131125D01*
X47939859Y-110131131D01*
X47932548Y-110191345D01*
X47904926Y-110255523D01*
X47846991Y-110294579D01*
X47777139Y-110296114D01*
X47717545Y-110259639D01*
X47707402Y-110246839D01*
X47628183Y-110132071D01*
X47500852Y-110019266D01*
X47500849Y-110019263D01*
X47350226Y-109940210D01*
X47185056Y-109899500D01*
X47014944Y-109899500D01*
X46849773Y-109940210D01*
X46699150Y-110019263D01*
X46582638Y-110122484D01*
X46572882Y-110131128D01*
X46571816Y-110132072D01*
X46475182Y-110272068D01*
X46414860Y-110431125D01*
X46414859Y-110431130D01*
X46397716Y-110572317D01*
X46394355Y-110600000D01*
X46399756Y-110644478D01*
X46409991Y-110728772D01*
X46398531Y-110797696D01*
X46351627Y-110849482D01*
X46284171Y-110867689D01*
X46217580Y-110846537D01*
X46184845Y-110814160D01*
X46128183Y-110732071D01*
X46000852Y-110619266D01*
X46000849Y-110619263D01*
X45850226Y-110540210D01*
X45685056Y-110499500D01*
X45514944Y-110499500D01*
X45349773Y-110540210D01*
X45199150Y-110619263D01*
X45071816Y-110732072D01*
X44975182Y-110872068D01*
X44914860Y-111031125D01*
X44914859Y-111031130D01*
X44894355Y-111200000D01*
X43000500Y-111200000D01*
X43000500Y-108015205D01*
X59760000Y-108015205D01*
X59760000Y-108660000D01*
X60476988Y-108660000D01*
X60444075Y-108717007D01*
X60410000Y-108844174D01*
X60410000Y-108975826D01*
X60444075Y-109102993D01*
X60476988Y-109160000D01*
X59760001Y-109160000D01*
X59760001Y-109804785D01*
X59760002Y-109804808D01*
X59762908Y-109829869D01*
X59762909Y-109829873D01*
X59808211Y-109932474D01*
X59808214Y-109932479D01*
X59887520Y-110011785D01*
X59887525Y-110011788D01*
X59990123Y-110057089D01*
X60015206Y-110059999D01*
X60659999Y-110059999D01*
X60660000Y-110059998D01*
X60660000Y-109343012D01*
X60717007Y-109375925D01*
X60844174Y-109410000D01*
X60975826Y-109410000D01*
X61102993Y-109375925D01*
X61160000Y-109343012D01*
X61160000Y-110059999D01*
X61804786Y-110059999D01*
X61804808Y-110059997D01*
X61829869Y-110057091D01*
X61829873Y-110057090D01*
X61932474Y-110011788D01*
X61932479Y-110011785D01*
X62011785Y-109932479D01*
X62011788Y-109932474D01*
X62057089Y-109829877D01*
X62057089Y-109829875D01*
X62059999Y-109804794D01*
X62060000Y-109804791D01*
X62060000Y-109160000D01*
X61343012Y-109160000D01*
X61375925Y-109102993D01*
X61410000Y-108975826D01*
X61410000Y-108910000D01*
X62394417Y-108910000D01*
X62414699Y-109115932D01*
X62414700Y-109115934D01*
X62474768Y-109313954D01*
X62572315Y-109496450D01*
X62572317Y-109496452D01*
X62703589Y-109656410D01*
X62780177Y-109719263D01*
X62863550Y-109787685D01*
X63046046Y-109885232D01*
X63244066Y-109945300D01*
X63244065Y-109945300D01*
X63262529Y-109947118D01*
X63450000Y-109965583D01*
X63655934Y-109945300D01*
X63853954Y-109885232D01*
X64036450Y-109787685D01*
X64196410Y-109656410D01*
X64327685Y-109496450D01*
X64425232Y-109313954D01*
X64485300Y-109115934D01*
X64505583Y-108910000D01*
X64485300Y-108704066D01*
X64425232Y-108506046D01*
X64327685Y-108323550D01*
X64275702Y-108260209D01*
X64196410Y-108163589D01*
X64036452Y-108032317D01*
X64036453Y-108032317D01*
X64036450Y-108032315D01*
X63853954Y-107934768D01*
X63655934Y-107874700D01*
X63655932Y-107874699D01*
X63655934Y-107874699D01*
X63450000Y-107854417D01*
X63244067Y-107874699D01*
X63046043Y-107934769D01*
X62942487Y-107990122D01*
X62863550Y-108032315D01*
X62863548Y-108032316D01*
X62863547Y-108032317D01*
X62703589Y-108163589D01*
X62572317Y-108323547D01*
X62474769Y-108506043D01*
X62414699Y-108704067D01*
X62394417Y-108910000D01*
X61410000Y-108910000D01*
X61410000Y-108844174D01*
X61375925Y-108717007D01*
X61343012Y-108660000D01*
X62059999Y-108660000D01*
X62059999Y-108015214D01*
X62059997Y-108015191D01*
X62057091Y-107990130D01*
X62057090Y-107990126D01*
X62011788Y-107887525D01*
X62011785Y-107887520D01*
X61932479Y-107808214D01*
X61932474Y-107808211D01*
X61829876Y-107762910D01*
X61804794Y-107760000D01*
X61160000Y-107760000D01*
X61160000Y-108476988D01*
X61102993Y-108444075D01*
X60975826Y-108410000D01*
X60844174Y-108410000D01*
X60717007Y-108444075D01*
X60660000Y-108476988D01*
X60660000Y-107760000D01*
X60015214Y-107760000D01*
X60015191Y-107760002D01*
X59990130Y-107762908D01*
X59990126Y-107762909D01*
X59887525Y-107808211D01*
X59887520Y-107808214D01*
X59808214Y-107887520D01*
X59808211Y-107887525D01*
X59762910Y-107990122D01*
X59762910Y-107990124D01*
X59760000Y-108015205D01*
X43000500Y-108015205D01*
X43000500Y-106200000D01*
X53694355Y-106200000D01*
X53714859Y-106368869D01*
X53714860Y-106368874D01*
X53775182Y-106527931D01*
X53790761Y-106550500D01*
X53871817Y-106667929D01*
X53977505Y-106761560D01*
X53999150Y-106780736D01*
X54149773Y-106859789D01*
X54149775Y-106859790D01*
X54314944Y-106900500D01*
X54485056Y-106900500D01*
X54650225Y-106859790D01*
X54729692Y-106818081D01*
X54800849Y-106780736D01*
X54800850Y-106780734D01*
X54800852Y-106780734D01*
X54928183Y-106667929D01*
X55024818Y-106527930D01*
X55085140Y-106368872D01*
X55105645Y-106200000D01*
X55085140Y-106031128D01*
X55024818Y-105872070D01*
X55009584Y-105850000D01*
X60444355Y-105850000D01*
X60464859Y-106018869D01*
X60464860Y-106018874D01*
X60525182Y-106177931D01*
X60587475Y-106268177D01*
X60621817Y-106317929D01*
X60727505Y-106411560D01*
X60749150Y-106430736D01*
X60899773Y-106509789D01*
X60899775Y-106509790D01*
X61064944Y-106550500D01*
X61235056Y-106550500D01*
X61400225Y-106509790D01*
X61479692Y-106468081D01*
X61550849Y-106430736D01*
X61550850Y-106430734D01*
X61550852Y-106430734D01*
X61678183Y-106317929D01*
X61774818Y-106177930D01*
X61835140Y-106018872D01*
X61855645Y-105850000D01*
X61835140Y-105681128D01*
X61774818Y-105522070D01*
X61678183Y-105382071D01*
X61550852Y-105269266D01*
X61550849Y-105269263D01*
X61400226Y-105190210D01*
X61235056Y-105149500D01*
X61064944Y-105149500D01*
X60899773Y-105190210D01*
X60749150Y-105269263D01*
X60621816Y-105382072D01*
X60525182Y-105522068D01*
X60464860Y-105681125D01*
X60464859Y-105681130D01*
X60444355Y-105850000D01*
X55009584Y-105850000D01*
X54928183Y-105732071D01*
X54800852Y-105619266D01*
X54800849Y-105619263D01*
X54650226Y-105540210D01*
X54485056Y-105499500D01*
X54314944Y-105499500D01*
X54149773Y-105540210D01*
X53999150Y-105619263D01*
X53871816Y-105732072D01*
X53775182Y-105872068D01*
X53714860Y-106031125D01*
X53714859Y-106031130D01*
X53694355Y-106200000D01*
X43000500Y-106200000D01*
X43000500Y-91414999D01*
X43875487Y-91414999D01*
X43875488Y-91415000D01*
X44566988Y-91415000D01*
X44534075Y-91472007D01*
X44500000Y-91599174D01*
X44500000Y-91730826D01*
X44534075Y-91857993D01*
X44566988Y-91915000D01*
X43875488Y-91915000D01*
X43923062Y-92082205D01*
X43923067Y-92082218D01*
X44018061Y-92272991D01*
X44146500Y-92443071D01*
X44304000Y-92586651D01*
X44304002Y-92586653D01*
X44485201Y-92698846D01*
X44485207Y-92698849D01*
X44683941Y-92775838D01*
X44750000Y-92788186D01*
X44750000Y-92098012D01*
X44807007Y-92130925D01*
X44934174Y-92165000D01*
X45065826Y-92165000D01*
X45192993Y-92130925D01*
X45250000Y-92098012D01*
X45250000Y-92788185D01*
X45316058Y-92775838D01*
X45514792Y-92698849D01*
X45514798Y-92698846D01*
X45695997Y-92586653D01*
X45695999Y-92586651D01*
X45853499Y-92443071D01*
X45981938Y-92272991D01*
X46076932Y-92082218D01*
X46076937Y-92082205D01*
X46124512Y-91915000D01*
X45433012Y-91915000D01*
X45465925Y-91857993D01*
X45500000Y-91730826D01*
X45500000Y-91599174D01*
X45465925Y-91472007D01*
X45433012Y-91415000D01*
X46124512Y-91415000D01*
X46124512Y-91414999D01*
X46076937Y-91247794D01*
X46076932Y-91247781D01*
X45981938Y-91057008D01*
X45853499Y-90886928D01*
X45695999Y-90743348D01*
X45695997Y-90743346D01*
X45514798Y-90631153D01*
X45514789Y-90631149D01*
X45316063Y-90554163D01*
X45316058Y-90554162D01*
X45250000Y-90541813D01*
X45250000Y-91231988D01*
X45192993Y-91199075D01*
X45065826Y-91165000D01*
X44934174Y-91165000D01*
X44807007Y-91199075D01*
X44750000Y-91231988D01*
X44750000Y-90541813D01*
X44683941Y-90554162D01*
X44683936Y-90554163D01*
X44485210Y-90631149D01*
X44485201Y-90631153D01*
X44304002Y-90743346D01*
X44304000Y-90743348D01*
X44146500Y-90886928D01*
X44018061Y-91057008D01*
X43923067Y-91247781D01*
X43923062Y-91247794D01*
X43875487Y-91414999D01*
X43000500Y-91414999D01*
X43000500Y-88255247D01*
X43949500Y-88255247D01*
X43949500Y-89994752D01*
X43961131Y-90053229D01*
X43961132Y-90053230D01*
X44005447Y-90119552D01*
X44071769Y-90163867D01*
X44071770Y-90163868D01*
X44130247Y-90175499D01*
X44130250Y-90175500D01*
X44130252Y-90175500D01*
X45869750Y-90175500D01*
X45869751Y-90175499D01*
X45884568Y-90172552D01*
X45928229Y-90163868D01*
X45928229Y-90163867D01*
X45928231Y-90163867D01*
X45994552Y-90119552D01*
X46038867Y-90053231D01*
X46038867Y-90053229D01*
X46038868Y-90053229D01*
X46050499Y-89994752D01*
X46050500Y-89994750D01*
X46050500Y-88900000D01*
X55194355Y-88900000D01*
X55214859Y-89068869D01*
X55214860Y-89068874D01*
X55275182Y-89227931D01*
X55337475Y-89318177D01*
X55371817Y-89367929D01*
X55477505Y-89461560D01*
X55499150Y-89480736D01*
X55649773Y-89559789D01*
X55649775Y-89559790D01*
X55814944Y-89600500D01*
X55985056Y-89600500D01*
X56150225Y-89559790D01*
X56229692Y-89518081D01*
X56300849Y-89480736D01*
X56300850Y-89480734D01*
X56300852Y-89480734D01*
X56428183Y-89367929D01*
X56524818Y-89227930D01*
X56585140Y-89068872D01*
X56605645Y-88900000D01*
X56585140Y-88731128D01*
X56524818Y-88572070D01*
X56428183Y-88432071D01*
X56300852Y-88319266D01*
X56300849Y-88319263D01*
X56150226Y-88240210D01*
X55985056Y-88199500D01*
X55814944Y-88199500D01*
X55649773Y-88240210D01*
X55499150Y-88319263D01*
X55371816Y-88432072D01*
X55275182Y-88572068D01*
X55214860Y-88731125D01*
X55214859Y-88731130D01*
X55194355Y-88900000D01*
X46050500Y-88900000D01*
X46050500Y-88255249D01*
X46050499Y-88255247D01*
X46038868Y-88196770D01*
X46038867Y-88196769D01*
X45994552Y-88130447D01*
X45928230Y-88086132D01*
X45928229Y-88086131D01*
X45869752Y-88074500D01*
X45869748Y-88074500D01*
X44130252Y-88074500D01*
X44130247Y-88074500D01*
X44071770Y-88086131D01*
X44071769Y-88086132D01*
X44005447Y-88130447D01*
X43961132Y-88196769D01*
X43961131Y-88196770D01*
X43949500Y-88255247D01*
X43000500Y-88255247D01*
X43000500Y-87824500D01*
X43020185Y-87757461D01*
X43072989Y-87711706D01*
X43124500Y-87700500D01*
X66875500Y-87700500D01*
X66942539Y-87720185D01*
G37*
%TD.AperFunction*%
%TD*%
M02*
