M48
; DRILL file {KiCad 8.0.9-8.0.9-0~ubuntu24.04.1} date 2025-04-13T18:37:46+0200
; FORMAT={-:-/ absolute / metric / decimal}
; #@! TF.CreationDate,2025-04-13T18:37:46+02:00
; #@! TF.GenerationSoftware,Kicad,Pcbnew,8.0.9-8.0.9-0~ubuntu24.04.1
; #@! TF.FileFunction,Plated,1,4,PTH
FMAT,2
METRIC
; #@! TA.AperFunction,Plated,PTH,ViaDrill
T1C0.300
; #@! TA.AperFunction,Plated,PTH,ViaDrill
T2C0.400
; #@! TA.AperFunction,Plated,PTH,ComponentDrill
T3C1.000
%
G90
G05
T1
X48.9Y-122.2
X53.0Y-120.9
T2
X45.0Y-93.8
X45.0Y-107.3
X45.6Y-111.2
X46.6Y-107.4
X47.1Y-110.6
X48.625Y-110.3
X50.2Y-107.625
X50.5Y-118.5
X50.6Y-125.3
X50.9Y-119.7
X51.9Y-94.7
X52.025Y-110.2
X53.075Y-99.35
X53.1Y-114.0
X53.4Y-117.0
X54.2Y-121.9
X54.3Y-98.3
X54.825Y-111.95
X54.845Y-107.395
X55.3Y-117.5
X55.7Y-123.2
X55.925Y-90.7
X56.05Y-100.75
X56.2Y-120.9
X56.225Y-96.45
X57.0Y-104.85
X57.0Y-109.375
X57.1Y-91.875
X57.8Y-120.9
X58.2Y-103.9
X58.8Y-112.6
X59.2Y-121.0
X59.5Y-102.45
X59.5Y-117.2
X59.5Y-118.7
X59.8Y-124.9
X61.0Y-104.2
X61.0Y-113.2
X61.5Y-107.2
X61.5Y-108.7
X61.5Y-110.2
X62.5Y-104.2
X62.5Y-113.2
X64.0Y-104.2
X64.0Y-113.2
X64.5Y-125.3
X65.5Y-104.2
X65.5Y-113.2
X66.113Y-120.2
X67.0Y-104.2
X67.0Y-113.2
X68.5Y-104.2
X68.5Y-113.2
T3
X44.86Y-116.62
X44.86Y-119.16
X44.86Y-121.7
X44.86Y-124.24
X45.0Y-89.125
X45.0Y-91.665
X47.4Y-116.62
X47.4Y-119.16
X47.4Y-121.7
X47.4Y-124.24
X61.66Y-115.76
X61.66Y-118.3
X64.2Y-115.76
X64.2Y-118.3
X66.74Y-115.76
X66.74Y-118.3
X67.5Y-122.06
X67.5Y-124.6
M30
