%TF.GenerationSoftware,KiCad,Pcbnew,8.0.9-8.0.9-0~ubuntu24.04.1*%
%TF.CreationDate,2025-05-15T11:11:22+02:00*%
%TF.ProjectId,FastLapLights5V,46617374-4c61-4704-9c69-676874733556,MK6*%
%TF.SameCoordinates,Original*%
%TF.FileFunction,Drillmap*%
%TF.FilePolarity,Positive*%
%FSLAX45Y45*%
G04 Gerber Fmt 4.5, Leading zero omitted, Abs format (unit mm)*
G04 Created by KiCad (PCBNEW 8.0.9-8.0.9-0~ubuntu24.04.1) date 2025-05-15 11:11:22*
%MOMM*%
%LPD*%
G01*
G04 APERTURE LIST*
%ADD10C,0.050000*%
%ADD11C,0.200000*%
%ADD12C,0.100000*%
G04 APERTURE END LIST*
D10*
X4250000Y-8720000D02*
X6750000Y-8720000D01*
X6750000Y-12640000D01*
X4250000Y-12640000D01*
X4250000Y-8720000D01*
D11*
D12*
X5207491Y-12092509D02*
X5237491Y-12122509D01*
X5237491Y-12092509D02*
X5207491Y-12122509D01*
X5335000Y-12065000D02*
X5365000Y-12095000D01*
X5365000Y-12065000D02*
X5335000Y-12095000D01*
X5550000Y-12120000D02*
X5580000Y-12150000D01*
X5580000Y-12120000D02*
X5550000Y-12150000D01*
X5615000Y-12295000D02*
X5645000Y-12325000D01*
X5645000Y-12295000D02*
X5615000Y-12325000D01*
X4380000Y-10910000D02*
G75*
G02*
X4340000Y-10910000I-20000J0D01*
G01*
X4340000Y-10910000D02*
G75*
G02*
X4380000Y-10910000I20000J0D01*
G01*
X4520000Y-9380000D02*
G75*
G02*
X4480000Y-9380000I-20000J0D01*
G01*
X4480000Y-9380000D02*
G75*
G02*
X4520000Y-9380000I20000J0D01*
G01*
X4580000Y-11120000D02*
G75*
G02*
X4540000Y-11120000I-20000J0D01*
G01*
X4540000Y-11120000D02*
G75*
G02*
X4580000Y-11120000I20000J0D01*
G01*
X4720000Y-10730000D02*
G75*
G02*
X4680000Y-10730000I-20000J0D01*
G01*
X4680000Y-10730000D02*
G75*
G02*
X4720000Y-10730000I20000J0D01*
G01*
X4730000Y-11060000D02*
G75*
G02*
X4690000Y-11060000I-20000J0D01*
G01*
X4690000Y-11060000D02*
G75*
G02*
X4730000Y-11060000I20000J0D01*
G01*
X4882500Y-11030000D02*
G75*
G02*
X4842500Y-11030000I-20000J0D01*
G01*
X4842500Y-11030000D02*
G75*
G02*
X4882500Y-11030000I20000J0D01*
G01*
X5040000Y-10762500D02*
G75*
G02*
X5000000Y-10762500I-20000J0D01*
G01*
X5000000Y-10762500D02*
G75*
G02*
X5040000Y-10762500I20000J0D01*
G01*
X5070000Y-11850000D02*
G75*
G02*
X5030000Y-11850000I-20000J0D01*
G01*
X5030000Y-11850000D02*
G75*
G02*
X5070000Y-11850000I20000J0D01*
G01*
X5070000Y-12410000D02*
G75*
G02*
X5030000Y-12410000I-20000J0D01*
G01*
X5030000Y-12410000D02*
G75*
G02*
X5070000Y-12410000I20000J0D01*
G01*
X5170000Y-11930000D02*
G75*
G02*
X5130000Y-11930000I-20000J0D01*
G01*
X5130000Y-11930000D02*
G75*
G02*
X5170000Y-11930000I20000J0D01*
G01*
X5222500Y-11020000D02*
G75*
G02*
X5182500Y-11020000I-20000J0D01*
G01*
X5182500Y-11020000D02*
G75*
G02*
X5222500Y-11020000I20000J0D01*
G01*
X5225000Y-9330000D02*
G75*
G02*
X5185000Y-9330000I-20000J0D01*
G01*
X5185000Y-9330000D02*
G75*
G02*
X5225000Y-9330000I20000J0D01*
G01*
X5260000Y-11400000D02*
G75*
G02*
X5220000Y-11400000I-20000J0D01*
G01*
X5220000Y-11400000D02*
G75*
G02*
X5260000Y-11400000I20000J0D01*
G01*
X5340000Y-11670000D02*
G75*
G02*
X5300000Y-11670000I-20000J0D01*
G01*
X5300000Y-11670000D02*
G75*
G02*
X5340000Y-11670000I20000J0D01*
G01*
X5400000Y-9845000D02*
G75*
G02*
X5360000Y-9845000I-20000J0D01*
G01*
X5360000Y-9845000D02*
G75*
G02*
X5400000Y-9845000I20000J0D01*
G01*
X5440000Y-9290000D02*
G75*
G02*
X5400000Y-9290000I-20000J0D01*
G01*
X5400000Y-9290000D02*
G75*
G02*
X5440000Y-9290000I20000J0D01*
G01*
X5460000Y-10620000D02*
G75*
G02*
X5420000Y-10620000I-20000J0D01*
G01*
X5420000Y-10620000D02*
G75*
G02*
X5460000Y-10620000I20000J0D01*
G01*
X5502500Y-11195000D02*
G75*
G02*
X5462500Y-11195000I-20000J0D01*
G01*
X5462500Y-11195000D02*
G75*
G02*
X5502500Y-11195000I20000J0D01*
G01*
X5542569Y-11720569D02*
G75*
G02*
X5502569Y-11720569I-20000J0D01*
G01*
X5502569Y-11720569D02*
G75*
G02*
X5542569Y-11720569I20000J0D01*
G01*
X5610000Y-8890000D02*
G75*
G02*
X5570000Y-8890000I-20000J0D01*
G01*
X5570000Y-8890000D02*
G75*
G02*
X5610000Y-8890000I20000J0D01*
G01*
X5640000Y-12040000D02*
G75*
G02*
X5600000Y-12040000I-20000J0D01*
G01*
X5600000Y-12040000D02*
G75*
G02*
X5640000Y-12040000I20000J0D01*
G01*
X5760000Y-12100000D02*
G75*
G02*
X5720000Y-12100000I-20000J0D01*
G01*
X5720000Y-12100000D02*
G75*
G02*
X5760000Y-12100000I20000J0D01*
G01*
X5780000Y-11145000D02*
G75*
G02*
X5740000Y-11145000I-20000J0D01*
G01*
X5740000Y-11145000D02*
G75*
G02*
X5780000Y-11145000I20000J0D01*
G01*
X5820000Y-11320000D02*
G75*
G02*
X5780000Y-11320000I-20000J0D01*
G01*
X5780000Y-11320000D02*
G75*
G02*
X5820000Y-11320000I20000J0D01*
G01*
X5960000Y-11630000D02*
G75*
G02*
X5920000Y-11630000I-20000J0D01*
G01*
X5920000Y-11630000D02*
G75*
G02*
X5960000Y-11630000I20000J0D01*
G01*
X6016250Y-9237500D02*
G75*
G02*
X5976250Y-9237500I-20000J0D01*
G01*
X5976250Y-9237500D02*
G75*
G02*
X6016250Y-9237500I20000J0D01*
G01*
X6135000Y-10585000D02*
G75*
G02*
X6095000Y-10585000I-20000J0D01*
G01*
X6095000Y-10585000D02*
G75*
G02*
X6135000Y-10585000I20000J0D01*
G01*
X6320000Y-12070000D02*
G75*
G02*
X6280000Y-12070000I-20000J0D01*
G01*
X6280000Y-12070000D02*
G75*
G02*
X6320000Y-12070000I20000J0D01*
G01*
X6420000Y-8870000D02*
G75*
G02*
X6380000Y-8870000I-20000J0D01*
G01*
X6380000Y-8870000D02*
G75*
G02*
X6420000Y-8870000I20000J0D01*
G01*
X6620000Y-8870000D02*
G75*
G02*
X6580000Y-8870000I-20000J0D01*
G01*
X6580000Y-8870000D02*
G75*
G02*
X6620000Y-8870000I20000J0D01*
G01*
X6620000Y-10970000D02*
G75*
G02*
X6580000Y-10970000I-20000J0D01*
G01*
X6580000Y-10970000D02*
G75*
G02*
X6620000Y-10970000I20000J0D01*
G01*
X4486000Y-11520000D02*
X4486000Y-11620000D01*
X4436000Y-11570000D02*
X4536000Y-11570000D01*
X4486000Y-11774000D02*
X4486000Y-11874000D01*
X4436000Y-11824000D02*
X4536000Y-11824000D01*
X4486000Y-12028000D02*
X4486000Y-12128000D01*
X4436000Y-12078000D02*
X4536000Y-12078000D01*
X4486000Y-12282000D02*
X4486000Y-12382000D01*
X4436000Y-12332000D02*
X4536000Y-12332000D01*
X4500000Y-8862500D02*
X4500000Y-8962500D01*
X4450000Y-8912500D02*
X4550000Y-8912500D01*
X4500000Y-9116500D02*
X4500000Y-9216500D01*
X4450000Y-9166500D02*
X4550000Y-9166500D01*
X4740000Y-11520000D02*
X4740000Y-11620000D01*
X4690000Y-11570000D02*
X4790000Y-11570000D01*
X4740000Y-11774000D02*
X4740000Y-11874000D01*
X4690000Y-11824000D02*
X4790000Y-11824000D01*
X4740000Y-12028000D02*
X4740000Y-12128000D01*
X4690000Y-12078000D02*
X4790000Y-12078000D01*
X4740000Y-12282000D02*
X4740000Y-12382000D01*
X4690000Y-12332000D02*
X4790000Y-12332000D01*
X6091000Y-10841000D02*
X6091000Y-10941000D01*
X6041000Y-10891000D02*
X6141000Y-10891000D01*
X6091000Y-11095000D02*
X6091000Y-11195000D01*
X6041000Y-11145000D02*
X6141000Y-11145000D01*
X6091000Y-11349000D02*
X6091000Y-11449000D01*
X6041000Y-11399000D02*
X6141000Y-11399000D01*
X6096000Y-11710000D02*
X6096000Y-11810000D01*
X6046000Y-11760000D02*
X6146000Y-11760000D01*
X6345000Y-10841000D02*
X6345000Y-10941000D01*
X6295000Y-10891000D02*
X6395000Y-10891000D01*
X6345000Y-11095000D02*
X6345000Y-11195000D01*
X6295000Y-11145000D02*
X6395000Y-11145000D01*
X6345000Y-11349000D02*
X6345000Y-11449000D01*
X6295000Y-11399000D02*
X6395000Y-11399000D01*
X6350000Y-11710000D02*
X6350000Y-11810000D01*
X6300000Y-11760000D02*
X6400000Y-11760000D01*
D11*
X4508277Y-12953984D02*
X4508277Y-12753984D01*
X4508277Y-12753984D02*
X4555896Y-12753984D01*
X4555896Y-12753984D02*
X4584467Y-12763508D01*
X4584467Y-12763508D02*
X4603515Y-12782555D01*
X4603515Y-12782555D02*
X4613039Y-12801603D01*
X4613039Y-12801603D02*
X4622563Y-12839698D01*
X4622563Y-12839698D02*
X4622563Y-12868269D01*
X4622563Y-12868269D02*
X4613039Y-12906365D01*
X4613039Y-12906365D02*
X4603515Y-12925412D01*
X4603515Y-12925412D02*
X4584467Y-12944460D01*
X4584467Y-12944460D02*
X4555896Y-12953984D01*
X4555896Y-12953984D02*
X4508277Y-12953984D01*
X4708277Y-12953984D02*
X4708277Y-12820650D01*
X4708277Y-12858746D02*
X4717801Y-12839698D01*
X4717801Y-12839698D02*
X4727324Y-12830174D01*
X4727324Y-12830174D02*
X4746372Y-12820650D01*
X4746372Y-12820650D02*
X4765420Y-12820650D01*
X4832086Y-12953984D02*
X4832086Y-12820650D01*
X4832086Y-12753984D02*
X4822563Y-12763508D01*
X4822563Y-12763508D02*
X4832086Y-12773031D01*
X4832086Y-12773031D02*
X4841610Y-12763508D01*
X4841610Y-12763508D02*
X4832086Y-12753984D01*
X4832086Y-12753984D02*
X4832086Y-12773031D01*
X4955896Y-12953984D02*
X4936848Y-12944460D01*
X4936848Y-12944460D02*
X4927324Y-12925412D01*
X4927324Y-12925412D02*
X4927324Y-12753984D01*
X5060658Y-12953984D02*
X5041610Y-12944460D01*
X5041610Y-12944460D02*
X5032086Y-12925412D01*
X5032086Y-12925412D02*
X5032086Y-12753984D01*
X5289229Y-12953984D02*
X5289229Y-12753984D01*
X5289229Y-12753984D02*
X5355896Y-12896841D01*
X5355896Y-12896841D02*
X5422563Y-12753984D01*
X5422563Y-12753984D02*
X5422563Y-12953984D01*
X5603515Y-12953984D02*
X5603515Y-12849222D01*
X5603515Y-12849222D02*
X5593991Y-12830174D01*
X5593991Y-12830174D02*
X5574944Y-12820650D01*
X5574944Y-12820650D02*
X5536848Y-12820650D01*
X5536848Y-12820650D02*
X5517801Y-12830174D01*
X5603515Y-12944460D02*
X5584467Y-12953984D01*
X5584467Y-12953984D02*
X5536848Y-12953984D01*
X5536848Y-12953984D02*
X5517801Y-12944460D01*
X5517801Y-12944460D02*
X5508277Y-12925412D01*
X5508277Y-12925412D02*
X5508277Y-12906365D01*
X5508277Y-12906365D02*
X5517801Y-12887317D01*
X5517801Y-12887317D02*
X5536848Y-12877793D01*
X5536848Y-12877793D02*
X5584467Y-12877793D01*
X5584467Y-12877793D02*
X5603515Y-12868269D01*
X5698753Y-12820650D02*
X5698753Y-13020650D01*
X5698753Y-12830174D02*
X5717801Y-12820650D01*
X5717801Y-12820650D02*
X5755896Y-12820650D01*
X5755896Y-12820650D02*
X5774943Y-12830174D01*
X5774943Y-12830174D02*
X5784467Y-12839698D01*
X5784467Y-12839698D02*
X5793991Y-12858746D01*
X5793991Y-12858746D02*
X5793991Y-12915888D01*
X5793991Y-12915888D02*
X5784467Y-12934936D01*
X5784467Y-12934936D02*
X5774943Y-12944460D01*
X5774943Y-12944460D02*
X5755896Y-12953984D01*
X5755896Y-12953984D02*
X5717801Y-12953984D01*
X5717801Y-12953984D02*
X5698753Y-12944460D01*
X5879705Y-12934936D02*
X5889229Y-12944460D01*
X5889229Y-12944460D02*
X5879705Y-12953984D01*
X5879705Y-12953984D02*
X5870182Y-12944460D01*
X5870182Y-12944460D02*
X5879705Y-12934936D01*
X5879705Y-12934936D02*
X5879705Y-12953984D01*
X5879705Y-12830174D02*
X5889229Y-12839698D01*
X5889229Y-12839698D02*
X5879705Y-12849222D01*
X5879705Y-12849222D02*
X5870182Y-12839698D01*
X5870182Y-12839698D02*
X5879705Y-12830174D01*
X5879705Y-12830174D02*
X5879705Y-12849222D01*
D12*
X4217500Y-13267500D02*
X4247500Y-13297500D01*
X4247500Y-13267500D02*
X4217500Y-13297500D01*
D11*
X4546372Y-13173984D02*
X4565420Y-13173984D01*
X4565420Y-13173984D02*
X4584467Y-13183508D01*
X4584467Y-13183508D02*
X4593991Y-13193031D01*
X4593991Y-13193031D02*
X4603515Y-13212079D01*
X4603515Y-13212079D02*
X4613039Y-13250174D01*
X4613039Y-13250174D02*
X4613039Y-13297793D01*
X4613039Y-13297793D02*
X4603515Y-13335888D01*
X4603515Y-13335888D02*
X4593991Y-13354936D01*
X4593991Y-13354936D02*
X4584467Y-13364460D01*
X4584467Y-13364460D02*
X4565420Y-13373984D01*
X4565420Y-13373984D02*
X4546372Y-13373984D01*
X4546372Y-13373984D02*
X4527324Y-13364460D01*
X4527324Y-13364460D02*
X4517801Y-13354936D01*
X4517801Y-13354936D02*
X4508277Y-13335888D01*
X4508277Y-13335888D02*
X4498753Y-13297793D01*
X4498753Y-13297793D02*
X4498753Y-13250174D01*
X4498753Y-13250174D02*
X4508277Y-13212079D01*
X4508277Y-13212079D02*
X4517801Y-13193031D01*
X4517801Y-13193031D02*
X4527324Y-13183508D01*
X4527324Y-13183508D02*
X4546372Y-13173984D01*
X4698753Y-13354936D02*
X4708277Y-13364460D01*
X4708277Y-13364460D02*
X4698753Y-13373984D01*
X4698753Y-13373984D02*
X4689229Y-13364460D01*
X4689229Y-13364460D02*
X4698753Y-13354936D01*
X4698753Y-13354936D02*
X4698753Y-13373984D01*
X4774944Y-13173984D02*
X4898753Y-13173984D01*
X4898753Y-13173984D02*
X4832086Y-13250174D01*
X4832086Y-13250174D02*
X4860658Y-13250174D01*
X4860658Y-13250174D02*
X4879705Y-13259698D01*
X4879705Y-13259698D02*
X4889229Y-13269222D01*
X4889229Y-13269222D02*
X4898753Y-13288269D01*
X4898753Y-13288269D02*
X4898753Y-13335888D01*
X4898753Y-13335888D02*
X4889229Y-13354936D01*
X4889229Y-13354936D02*
X4879705Y-13364460D01*
X4879705Y-13364460D02*
X4860658Y-13373984D01*
X4860658Y-13373984D02*
X4803515Y-13373984D01*
X4803515Y-13373984D02*
X4784467Y-13364460D01*
X4784467Y-13364460D02*
X4774944Y-13354936D01*
X5022563Y-13173984D02*
X5041610Y-13173984D01*
X5041610Y-13173984D02*
X5060658Y-13183508D01*
X5060658Y-13183508D02*
X5070182Y-13193031D01*
X5070182Y-13193031D02*
X5079705Y-13212079D01*
X5079705Y-13212079D02*
X5089229Y-13250174D01*
X5089229Y-13250174D02*
X5089229Y-13297793D01*
X5089229Y-13297793D02*
X5079705Y-13335888D01*
X5079705Y-13335888D02*
X5070182Y-13354936D01*
X5070182Y-13354936D02*
X5060658Y-13364460D01*
X5060658Y-13364460D02*
X5041610Y-13373984D01*
X5041610Y-13373984D02*
X5022563Y-13373984D01*
X5022563Y-13373984D02*
X5003515Y-13364460D01*
X5003515Y-13364460D02*
X4993991Y-13354936D01*
X4993991Y-13354936D02*
X4984467Y-13335888D01*
X4984467Y-13335888D02*
X4974944Y-13297793D01*
X4974944Y-13297793D02*
X4974944Y-13250174D01*
X4974944Y-13250174D02*
X4984467Y-13212079D01*
X4984467Y-13212079D02*
X4993991Y-13193031D01*
X4993991Y-13193031D02*
X5003515Y-13183508D01*
X5003515Y-13183508D02*
X5022563Y-13173984D01*
X5213039Y-13173984D02*
X5232086Y-13173984D01*
X5232086Y-13173984D02*
X5251134Y-13183508D01*
X5251134Y-13183508D02*
X5260658Y-13193031D01*
X5260658Y-13193031D02*
X5270182Y-13212079D01*
X5270182Y-13212079D02*
X5279705Y-13250174D01*
X5279705Y-13250174D02*
X5279705Y-13297793D01*
X5279705Y-13297793D02*
X5270182Y-13335888D01*
X5270182Y-13335888D02*
X5260658Y-13354936D01*
X5260658Y-13354936D02*
X5251134Y-13364460D01*
X5251134Y-13364460D02*
X5232086Y-13373984D01*
X5232086Y-13373984D02*
X5213039Y-13373984D01*
X5213039Y-13373984D02*
X5193991Y-13364460D01*
X5193991Y-13364460D02*
X5184467Y-13354936D01*
X5184467Y-13354936D02*
X5174944Y-13335888D01*
X5174944Y-13335888D02*
X5165420Y-13297793D01*
X5165420Y-13297793D02*
X5165420Y-13250174D01*
X5165420Y-13250174D02*
X5174944Y-13212079D01*
X5174944Y-13212079D02*
X5184467Y-13193031D01*
X5184467Y-13193031D02*
X5193991Y-13183508D01*
X5193991Y-13183508D02*
X5213039Y-13173984D01*
X5365420Y-13373984D02*
X5365420Y-13240650D01*
X5365420Y-13259698D02*
X5374944Y-13250174D01*
X5374944Y-13250174D02*
X5393991Y-13240650D01*
X5393991Y-13240650D02*
X5422563Y-13240650D01*
X5422563Y-13240650D02*
X5441610Y-13250174D01*
X5441610Y-13250174D02*
X5451134Y-13269222D01*
X5451134Y-13269222D02*
X5451134Y-13373984D01*
X5451134Y-13269222D02*
X5460658Y-13250174D01*
X5460658Y-13250174D02*
X5479705Y-13240650D01*
X5479705Y-13240650D02*
X5508277Y-13240650D01*
X5508277Y-13240650D02*
X5527325Y-13250174D01*
X5527325Y-13250174D02*
X5536848Y-13269222D01*
X5536848Y-13269222D02*
X5536848Y-13373984D01*
X5632086Y-13373984D02*
X5632086Y-13240650D01*
X5632086Y-13259698D02*
X5641610Y-13250174D01*
X5641610Y-13250174D02*
X5660658Y-13240650D01*
X5660658Y-13240650D02*
X5689229Y-13240650D01*
X5689229Y-13240650D02*
X5708277Y-13250174D01*
X5708277Y-13250174D02*
X5717801Y-13269222D01*
X5717801Y-13269222D02*
X5717801Y-13373984D01*
X5717801Y-13269222D02*
X5727324Y-13250174D01*
X5727324Y-13250174D02*
X5746372Y-13240650D01*
X5746372Y-13240650D02*
X5774943Y-13240650D01*
X5774943Y-13240650D02*
X5793991Y-13250174D01*
X5793991Y-13250174D02*
X5803515Y-13269222D01*
X5803515Y-13269222D02*
X5803515Y-13373984D01*
X6193991Y-13164460D02*
X6022563Y-13421603D01*
X6451134Y-13173984D02*
X6470182Y-13173984D01*
X6470182Y-13173984D02*
X6489229Y-13183508D01*
X6489229Y-13183508D02*
X6498753Y-13193031D01*
X6498753Y-13193031D02*
X6508277Y-13212079D01*
X6508277Y-13212079D02*
X6517801Y-13250174D01*
X6517801Y-13250174D02*
X6517801Y-13297793D01*
X6517801Y-13297793D02*
X6508277Y-13335888D01*
X6508277Y-13335888D02*
X6498753Y-13354936D01*
X6498753Y-13354936D02*
X6489229Y-13364460D01*
X6489229Y-13364460D02*
X6470182Y-13373984D01*
X6470182Y-13373984D02*
X6451134Y-13373984D01*
X6451134Y-13373984D02*
X6432086Y-13364460D01*
X6432086Y-13364460D02*
X6422563Y-13354936D01*
X6422563Y-13354936D02*
X6413039Y-13335888D01*
X6413039Y-13335888D02*
X6403515Y-13297793D01*
X6403515Y-13297793D02*
X6403515Y-13250174D01*
X6403515Y-13250174D02*
X6413039Y-13212079D01*
X6413039Y-13212079D02*
X6422563Y-13193031D01*
X6422563Y-13193031D02*
X6432086Y-13183508D01*
X6432086Y-13183508D02*
X6451134Y-13173984D01*
X6603515Y-13354936D02*
X6613039Y-13364460D01*
X6613039Y-13364460D02*
X6603515Y-13373984D01*
X6603515Y-13373984D02*
X6593991Y-13364460D01*
X6593991Y-13364460D02*
X6603515Y-13354936D01*
X6603515Y-13354936D02*
X6603515Y-13373984D01*
X6736848Y-13173984D02*
X6755896Y-13173984D01*
X6755896Y-13173984D02*
X6774944Y-13183508D01*
X6774944Y-13183508D02*
X6784467Y-13193031D01*
X6784467Y-13193031D02*
X6793991Y-13212079D01*
X6793991Y-13212079D02*
X6803515Y-13250174D01*
X6803515Y-13250174D02*
X6803515Y-13297793D01*
X6803515Y-13297793D02*
X6793991Y-13335888D01*
X6793991Y-13335888D02*
X6784467Y-13354936D01*
X6784467Y-13354936D02*
X6774944Y-13364460D01*
X6774944Y-13364460D02*
X6755896Y-13373984D01*
X6755896Y-13373984D02*
X6736848Y-13373984D01*
X6736848Y-13373984D02*
X6717801Y-13364460D01*
X6717801Y-13364460D02*
X6708277Y-13354936D01*
X6708277Y-13354936D02*
X6698753Y-13335888D01*
X6698753Y-13335888D02*
X6689229Y-13297793D01*
X6689229Y-13297793D02*
X6689229Y-13250174D01*
X6689229Y-13250174D02*
X6698753Y-13212079D01*
X6698753Y-13212079D02*
X6708277Y-13193031D01*
X6708277Y-13193031D02*
X6717801Y-13183508D01*
X6717801Y-13183508D02*
X6736848Y-13173984D01*
X6993991Y-13373984D02*
X6879706Y-13373984D01*
X6936848Y-13373984D02*
X6936848Y-13173984D01*
X6936848Y-13173984D02*
X6917801Y-13202555D01*
X6917801Y-13202555D02*
X6898753Y-13221603D01*
X6898753Y-13221603D02*
X6879706Y-13231127D01*
X7184467Y-13373984D02*
X7070182Y-13373984D01*
X7127325Y-13373984D02*
X7127325Y-13173984D01*
X7127325Y-13173984D02*
X7108277Y-13202555D01*
X7108277Y-13202555D02*
X7089229Y-13221603D01*
X7089229Y-13221603D02*
X7070182Y-13231127D01*
X7298753Y-13259698D02*
X7279706Y-13250174D01*
X7279706Y-13250174D02*
X7270182Y-13240650D01*
X7270182Y-13240650D02*
X7260658Y-13221603D01*
X7260658Y-13221603D02*
X7260658Y-13212079D01*
X7260658Y-13212079D02*
X7270182Y-13193031D01*
X7270182Y-13193031D02*
X7279706Y-13183508D01*
X7279706Y-13183508D02*
X7298753Y-13173984D01*
X7298753Y-13173984D02*
X7336848Y-13173984D01*
X7336848Y-13173984D02*
X7355896Y-13183508D01*
X7355896Y-13183508D02*
X7365420Y-13193031D01*
X7365420Y-13193031D02*
X7374944Y-13212079D01*
X7374944Y-13212079D02*
X7374944Y-13221603D01*
X7374944Y-13221603D02*
X7365420Y-13240650D01*
X7365420Y-13240650D02*
X7355896Y-13250174D01*
X7355896Y-13250174D02*
X7336848Y-13259698D01*
X7336848Y-13259698D02*
X7298753Y-13259698D01*
X7298753Y-13259698D02*
X7279706Y-13269222D01*
X7279706Y-13269222D02*
X7270182Y-13278746D01*
X7270182Y-13278746D02*
X7260658Y-13297793D01*
X7260658Y-13297793D02*
X7260658Y-13335888D01*
X7260658Y-13335888D02*
X7270182Y-13354936D01*
X7270182Y-13354936D02*
X7279706Y-13364460D01*
X7279706Y-13364460D02*
X7298753Y-13373984D01*
X7298753Y-13373984D02*
X7336848Y-13373984D01*
X7336848Y-13373984D02*
X7355896Y-13364460D01*
X7355896Y-13364460D02*
X7365420Y-13354936D01*
X7365420Y-13354936D02*
X7374944Y-13335888D01*
X7374944Y-13335888D02*
X7374944Y-13297793D01*
X7374944Y-13297793D02*
X7365420Y-13278746D01*
X7365420Y-13278746D02*
X7355896Y-13269222D01*
X7355896Y-13269222D02*
X7336848Y-13259698D01*
X7451134Y-13173984D02*
X7451134Y-13212079D01*
X7527325Y-13173984D02*
X7527325Y-13212079D01*
X7822563Y-13450174D02*
X7813039Y-13440650D01*
X7813039Y-13440650D02*
X7793991Y-13412079D01*
X7793991Y-13412079D02*
X7784468Y-13393031D01*
X7784468Y-13393031D02*
X7774944Y-13364460D01*
X7774944Y-13364460D02*
X7765420Y-13316841D01*
X7765420Y-13316841D02*
X7765420Y-13278746D01*
X7765420Y-13278746D02*
X7774944Y-13231127D01*
X7774944Y-13231127D02*
X7784468Y-13202555D01*
X7784468Y-13202555D02*
X7793991Y-13183508D01*
X7793991Y-13183508D02*
X7813039Y-13154936D01*
X7813039Y-13154936D02*
X7822563Y-13145412D01*
X7984468Y-13240650D02*
X7984468Y-13373984D01*
X7936848Y-13164460D02*
X7889229Y-13307317D01*
X7889229Y-13307317D02*
X8013039Y-13307317D01*
X8241610Y-13373984D02*
X8241610Y-13173984D01*
X8327325Y-13373984D02*
X8327325Y-13269222D01*
X8327325Y-13269222D02*
X8317801Y-13250174D01*
X8317801Y-13250174D02*
X8298753Y-13240650D01*
X8298753Y-13240650D02*
X8270182Y-13240650D01*
X8270182Y-13240650D02*
X8251134Y-13250174D01*
X8251134Y-13250174D02*
X8241610Y-13259698D01*
X8451134Y-13373984D02*
X8432087Y-13364460D01*
X8432087Y-13364460D02*
X8422563Y-13354936D01*
X8422563Y-13354936D02*
X8413039Y-13335888D01*
X8413039Y-13335888D02*
X8413039Y-13278746D01*
X8413039Y-13278746D02*
X8422563Y-13259698D01*
X8422563Y-13259698D02*
X8432087Y-13250174D01*
X8432087Y-13250174D02*
X8451134Y-13240650D01*
X8451134Y-13240650D02*
X8479706Y-13240650D01*
X8479706Y-13240650D02*
X8498753Y-13250174D01*
X8498753Y-13250174D02*
X8508277Y-13259698D01*
X8508277Y-13259698D02*
X8517801Y-13278746D01*
X8517801Y-13278746D02*
X8517801Y-13335888D01*
X8517801Y-13335888D02*
X8508277Y-13354936D01*
X8508277Y-13354936D02*
X8498753Y-13364460D01*
X8498753Y-13364460D02*
X8479706Y-13373984D01*
X8479706Y-13373984D02*
X8451134Y-13373984D01*
X8632087Y-13373984D02*
X8613039Y-13364460D01*
X8613039Y-13364460D02*
X8603515Y-13345412D01*
X8603515Y-13345412D02*
X8603515Y-13173984D01*
X8784468Y-13364460D02*
X8765420Y-13373984D01*
X8765420Y-13373984D02*
X8727325Y-13373984D01*
X8727325Y-13373984D02*
X8708277Y-13364460D01*
X8708277Y-13364460D02*
X8698753Y-13345412D01*
X8698753Y-13345412D02*
X8698753Y-13269222D01*
X8698753Y-13269222D02*
X8708277Y-13250174D01*
X8708277Y-13250174D02*
X8727325Y-13240650D01*
X8727325Y-13240650D02*
X8765420Y-13240650D01*
X8765420Y-13240650D02*
X8784468Y-13250174D01*
X8784468Y-13250174D02*
X8793992Y-13269222D01*
X8793992Y-13269222D02*
X8793992Y-13288269D01*
X8793992Y-13288269D02*
X8698753Y-13307317D01*
X8870182Y-13364460D02*
X8889230Y-13373984D01*
X8889230Y-13373984D02*
X8927325Y-13373984D01*
X8927325Y-13373984D02*
X8946373Y-13364460D01*
X8946373Y-13364460D02*
X8955896Y-13345412D01*
X8955896Y-13345412D02*
X8955896Y-13335888D01*
X8955896Y-13335888D02*
X8946373Y-13316841D01*
X8946373Y-13316841D02*
X8927325Y-13307317D01*
X8927325Y-13307317D02*
X8898753Y-13307317D01*
X8898753Y-13307317D02*
X8879706Y-13297793D01*
X8879706Y-13297793D02*
X8870182Y-13278746D01*
X8870182Y-13278746D02*
X8870182Y-13269222D01*
X8870182Y-13269222D02*
X8879706Y-13250174D01*
X8879706Y-13250174D02*
X8898753Y-13240650D01*
X8898753Y-13240650D02*
X8927325Y-13240650D01*
X8927325Y-13240650D02*
X8946373Y-13250174D01*
X9022563Y-13450174D02*
X9032087Y-13440650D01*
X9032087Y-13440650D02*
X9051134Y-13412079D01*
X9051134Y-13412079D02*
X9060658Y-13393031D01*
X9060658Y-13393031D02*
X9070182Y-13364460D01*
X9070182Y-13364460D02*
X9079706Y-13316841D01*
X9079706Y-13316841D02*
X9079706Y-13278746D01*
X9079706Y-13278746D02*
X9070182Y-13231127D01*
X9070182Y-13231127D02*
X9060658Y-13202555D01*
X9060658Y-13202555D02*
X9051134Y-13183508D01*
X9051134Y-13183508D02*
X9032087Y-13154936D01*
X9032087Y-13154936D02*
X9022563Y-13145412D01*
D12*
X4247500Y-13546500D02*
G75*
G02*
X4207500Y-13546500I-20000J0D01*
G01*
X4207500Y-13546500D02*
G75*
G02*
X4247500Y-13546500I20000J0D01*
G01*
D11*
X4546372Y-13437984D02*
X4565420Y-13437984D01*
X4565420Y-13437984D02*
X4584467Y-13447508D01*
X4584467Y-13447508D02*
X4593991Y-13457031D01*
X4593991Y-13457031D02*
X4603515Y-13476079D01*
X4603515Y-13476079D02*
X4613039Y-13514174D01*
X4613039Y-13514174D02*
X4613039Y-13561793D01*
X4613039Y-13561793D02*
X4603515Y-13599888D01*
X4603515Y-13599888D02*
X4593991Y-13618936D01*
X4593991Y-13618936D02*
X4584467Y-13628460D01*
X4584467Y-13628460D02*
X4565420Y-13637984D01*
X4565420Y-13637984D02*
X4546372Y-13637984D01*
X4546372Y-13637984D02*
X4527324Y-13628460D01*
X4527324Y-13628460D02*
X4517801Y-13618936D01*
X4517801Y-13618936D02*
X4508277Y-13599888D01*
X4508277Y-13599888D02*
X4498753Y-13561793D01*
X4498753Y-13561793D02*
X4498753Y-13514174D01*
X4498753Y-13514174D02*
X4508277Y-13476079D01*
X4508277Y-13476079D02*
X4517801Y-13457031D01*
X4517801Y-13457031D02*
X4527324Y-13447508D01*
X4527324Y-13447508D02*
X4546372Y-13437984D01*
X4698753Y-13618936D02*
X4708277Y-13628460D01*
X4708277Y-13628460D02*
X4698753Y-13637984D01*
X4698753Y-13637984D02*
X4689229Y-13628460D01*
X4689229Y-13628460D02*
X4698753Y-13618936D01*
X4698753Y-13618936D02*
X4698753Y-13637984D01*
X4879705Y-13504650D02*
X4879705Y-13637984D01*
X4832086Y-13428460D02*
X4784467Y-13571317D01*
X4784467Y-13571317D02*
X4908277Y-13571317D01*
X5022563Y-13437984D02*
X5041610Y-13437984D01*
X5041610Y-13437984D02*
X5060658Y-13447508D01*
X5060658Y-13447508D02*
X5070182Y-13457031D01*
X5070182Y-13457031D02*
X5079705Y-13476079D01*
X5079705Y-13476079D02*
X5089229Y-13514174D01*
X5089229Y-13514174D02*
X5089229Y-13561793D01*
X5089229Y-13561793D02*
X5079705Y-13599888D01*
X5079705Y-13599888D02*
X5070182Y-13618936D01*
X5070182Y-13618936D02*
X5060658Y-13628460D01*
X5060658Y-13628460D02*
X5041610Y-13637984D01*
X5041610Y-13637984D02*
X5022563Y-13637984D01*
X5022563Y-13637984D02*
X5003515Y-13628460D01*
X5003515Y-13628460D02*
X4993991Y-13618936D01*
X4993991Y-13618936D02*
X4984467Y-13599888D01*
X4984467Y-13599888D02*
X4974944Y-13561793D01*
X4974944Y-13561793D02*
X4974944Y-13514174D01*
X4974944Y-13514174D02*
X4984467Y-13476079D01*
X4984467Y-13476079D02*
X4993991Y-13457031D01*
X4993991Y-13457031D02*
X5003515Y-13447508D01*
X5003515Y-13447508D02*
X5022563Y-13437984D01*
X5213039Y-13437984D02*
X5232086Y-13437984D01*
X5232086Y-13437984D02*
X5251134Y-13447508D01*
X5251134Y-13447508D02*
X5260658Y-13457031D01*
X5260658Y-13457031D02*
X5270182Y-13476079D01*
X5270182Y-13476079D02*
X5279705Y-13514174D01*
X5279705Y-13514174D02*
X5279705Y-13561793D01*
X5279705Y-13561793D02*
X5270182Y-13599888D01*
X5270182Y-13599888D02*
X5260658Y-13618936D01*
X5260658Y-13618936D02*
X5251134Y-13628460D01*
X5251134Y-13628460D02*
X5232086Y-13637984D01*
X5232086Y-13637984D02*
X5213039Y-13637984D01*
X5213039Y-13637984D02*
X5193991Y-13628460D01*
X5193991Y-13628460D02*
X5184467Y-13618936D01*
X5184467Y-13618936D02*
X5174944Y-13599888D01*
X5174944Y-13599888D02*
X5165420Y-13561793D01*
X5165420Y-13561793D02*
X5165420Y-13514174D01*
X5165420Y-13514174D02*
X5174944Y-13476079D01*
X5174944Y-13476079D02*
X5184467Y-13457031D01*
X5184467Y-13457031D02*
X5193991Y-13447508D01*
X5193991Y-13447508D02*
X5213039Y-13437984D01*
X5365420Y-13637984D02*
X5365420Y-13504650D01*
X5365420Y-13523698D02*
X5374944Y-13514174D01*
X5374944Y-13514174D02*
X5393991Y-13504650D01*
X5393991Y-13504650D02*
X5422563Y-13504650D01*
X5422563Y-13504650D02*
X5441610Y-13514174D01*
X5441610Y-13514174D02*
X5451134Y-13533222D01*
X5451134Y-13533222D02*
X5451134Y-13637984D01*
X5451134Y-13533222D02*
X5460658Y-13514174D01*
X5460658Y-13514174D02*
X5479705Y-13504650D01*
X5479705Y-13504650D02*
X5508277Y-13504650D01*
X5508277Y-13504650D02*
X5527325Y-13514174D01*
X5527325Y-13514174D02*
X5536848Y-13533222D01*
X5536848Y-13533222D02*
X5536848Y-13637984D01*
X5632086Y-13637984D02*
X5632086Y-13504650D01*
X5632086Y-13523698D02*
X5641610Y-13514174D01*
X5641610Y-13514174D02*
X5660658Y-13504650D01*
X5660658Y-13504650D02*
X5689229Y-13504650D01*
X5689229Y-13504650D02*
X5708277Y-13514174D01*
X5708277Y-13514174D02*
X5717801Y-13533222D01*
X5717801Y-13533222D02*
X5717801Y-13637984D01*
X5717801Y-13533222D02*
X5727324Y-13514174D01*
X5727324Y-13514174D02*
X5746372Y-13504650D01*
X5746372Y-13504650D02*
X5774943Y-13504650D01*
X5774943Y-13504650D02*
X5793991Y-13514174D01*
X5793991Y-13514174D02*
X5803515Y-13533222D01*
X5803515Y-13533222D02*
X5803515Y-13637984D01*
X6193991Y-13428460D02*
X6022563Y-13685603D01*
X6451134Y-13437984D02*
X6470182Y-13437984D01*
X6470182Y-13437984D02*
X6489229Y-13447508D01*
X6489229Y-13447508D02*
X6498753Y-13457031D01*
X6498753Y-13457031D02*
X6508277Y-13476079D01*
X6508277Y-13476079D02*
X6517801Y-13514174D01*
X6517801Y-13514174D02*
X6517801Y-13561793D01*
X6517801Y-13561793D02*
X6508277Y-13599888D01*
X6508277Y-13599888D02*
X6498753Y-13618936D01*
X6498753Y-13618936D02*
X6489229Y-13628460D01*
X6489229Y-13628460D02*
X6470182Y-13637984D01*
X6470182Y-13637984D02*
X6451134Y-13637984D01*
X6451134Y-13637984D02*
X6432086Y-13628460D01*
X6432086Y-13628460D02*
X6422563Y-13618936D01*
X6422563Y-13618936D02*
X6413039Y-13599888D01*
X6413039Y-13599888D02*
X6403515Y-13561793D01*
X6403515Y-13561793D02*
X6403515Y-13514174D01*
X6403515Y-13514174D02*
X6413039Y-13476079D01*
X6413039Y-13476079D02*
X6422563Y-13457031D01*
X6422563Y-13457031D02*
X6432086Y-13447508D01*
X6432086Y-13447508D02*
X6451134Y-13437984D01*
X6603515Y-13618936D02*
X6613039Y-13628460D01*
X6613039Y-13628460D02*
X6603515Y-13637984D01*
X6603515Y-13637984D02*
X6593991Y-13628460D01*
X6593991Y-13628460D02*
X6603515Y-13618936D01*
X6603515Y-13618936D02*
X6603515Y-13637984D01*
X6736848Y-13437984D02*
X6755896Y-13437984D01*
X6755896Y-13437984D02*
X6774944Y-13447508D01*
X6774944Y-13447508D02*
X6784467Y-13457031D01*
X6784467Y-13457031D02*
X6793991Y-13476079D01*
X6793991Y-13476079D02*
X6803515Y-13514174D01*
X6803515Y-13514174D02*
X6803515Y-13561793D01*
X6803515Y-13561793D02*
X6793991Y-13599888D01*
X6793991Y-13599888D02*
X6784467Y-13618936D01*
X6784467Y-13618936D02*
X6774944Y-13628460D01*
X6774944Y-13628460D02*
X6755896Y-13637984D01*
X6755896Y-13637984D02*
X6736848Y-13637984D01*
X6736848Y-13637984D02*
X6717801Y-13628460D01*
X6717801Y-13628460D02*
X6708277Y-13618936D01*
X6708277Y-13618936D02*
X6698753Y-13599888D01*
X6698753Y-13599888D02*
X6689229Y-13561793D01*
X6689229Y-13561793D02*
X6689229Y-13514174D01*
X6689229Y-13514174D02*
X6698753Y-13476079D01*
X6698753Y-13476079D02*
X6708277Y-13457031D01*
X6708277Y-13457031D02*
X6717801Y-13447508D01*
X6717801Y-13447508D02*
X6736848Y-13437984D01*
X6993991Y-13637984D02*
X6879706Y-13637984D01*
X6936848Y-13637984D02*
X6936848Y-13437984D01*
X6936848Y-13437984D02*
X6917801Y-13466555D01*
X6917801Y-13466555D02*
X6898753Y-13485603D01*
X6898753Y-13485603D02*
X6879706Y-13495127D01*
X7174944Y-13437984D02*
X7079706Y-13437984D01*
X7079706Y-13437984D02*
X7070182Y-13533222D01*
X7070182Y-13533222D02*
X7079706Y-13523698D01*
X7079706Y-13523698D02*
X7098753Y-13514174D01*
X7098753Y-13514174D02*
X7146372Y-13514174D01*
X7146372Y-13514174D02*
X7165420Y-13523698D01*
X7165420Y-13523698D02*
X7174944Y-13533222D01*
X7174944Y-13533222D02*
X7184467Y-13552269D01*
X7184467Y-13552269D02*
X7184467Y-13599888D01*
X7184467Y-13599888D02*
X7174944Y-13618936D01*
X7174944Y-13618936D02*
X7165420Y-13628460D01*
X7165420Y-13628460D02*
X7146372Y-13637984D01*
X7146372Y-13637984D02*
X7098753Y-13637984D01*
X7098753Y-13637984D02*
X7079706Y-13628460D01*
X7079706Y-13628460D02*
X7070182Y-13618936D01*
X7251134Y-13437984D02*
X7384467Y-13437984D01*
X7384467Y-13437984D02*
X7298753Y-13637984D01*
X7451134Y-13437984D02*
X7451134Y-13476079D01*
X7527325Y-13437984D02*
X7527325Y-13476079D01*
X7822563Y-13714174D02*
X7813039Y-13704650D01*
X7813039Y-13704650D02*
X7793991Y-13676079D01*
X7793991Y-13676079D02*
X7784468Y-13657031D01*
X7784468Y-13657031D02*
X7774944Y-13628460D01*
X7774944Y-13628460D02*
X7765420Y-13580841D01*
X7765420Y-13580841D02*
X7765420Y-13542746D01*
X7765420Y-13542746D02*
X7774944Y-13495127D01*
X7774944Y-13495127D02*
X7784468Y-13466555D01*
X7784468Y-13466555D02*
X7793991Y-13447508D01*
X7793991Y-13447508D02*
X7813039Y-13418936D01*
X7813039Y-13418936D02*
X7822563Y-13409412D01*
X7879706Y-13437984D02*
X8003515Y-13437984D01*
X8003515Y-13437984D02*
X7936848Y-13514174D01*
X7936848Y-13514174D02*
X7965420Y-13514174D01*
X7965420Y-13514174D02*
X7984468Y-13523698D01*
X7984468Y-13523698D02*
X7993991Y-13533222D01*
X7993991Y-13533222D02*
X8003515Y-13552269D01*
X8003515Y-13552269D02*
X8003515Y-13599888D01*
X8003515Y-13599888D02*
X7993991Y-13618936D01*
X7993991Y-13618936D02*
X7984468Y-13628460D01*
X7984468Y-13628460D02*
X7965420Y-13637984D01*
X7965420Y-13637984D02*
X7908277Y-13637984D01*
X7908277Y-13637984D02*
X7889229Y-13628460D01*
X7889229Y-13628460D02*
X7879706Y-13618936D01*
X8193991Y-13637984D02*
X8079706Y-13637984D01*
X8136848Y-13637984D02*
X8136848Y-13437984D01*
X8136848Y-13437984D02*
X8117801Y-13466555D01*
X8117801Y-13466555D02*
X8098753Y-13485603D01*
X8098753Y-13485603D02*
X8079706Y-13495127D01*
X8432087Y-13637984D02*
X8432087Y-13437984D01*
X8517801Y-13637984D02*
X8517801Y-13533222D01*
X8517801Y-13533222D02*
X8508277Y-13514174D01*
X8508277Y-13514174D02*
X8489230Y-13504650D01*
X8489230Y-13504650D02*
X8460658Y-13504650D01*
X8460658Y-13504650D02*
X8441611Y-13514174D01*
X8441611Y-13514174D02*
X8432087Y-13523698D01*
X8641611Y-13637984D02*
X8622563Y-13628460D01*
X8622563Y-13628460D02*
X8613039Y-13618936D01*
X8613039Y-13618936D02*
X8603515Y-13599888D01*
X8603515Y-13599888D02*
X8603515Y-13542746D01*
X8603515Y-13542746D02*
X8613039Y-13523698D01*
X8613039Y-13523698D02*
X8622563Y-13514174D01*
X8622563Y-13514174D02*
X8641611Y-13504650D01*
X8641611Y-13504650D02*
X8670182Y-13504650D01*
X8670182Y-13504650D02*
X8689230Y-13514174D01*
X8689230Y-13514174D02*
X8698753Y-13523698D01*
X8698753Y-13523698D02*
X8708277Y-13542746D01*
X8708277Y-13542746D02*
X8708277Y-13599888D01*
X8708277Y-13599888D02*
X8698753Y-13618936D01*
X8698753Y-13618936D02*
X8689230Y-13628460D01*
X8689230Y-13628460D02*
X8670182Y-13637984D01*
X8670182Y-13637984D02*
X8641611Y-13637984D01*
X8822563Y-13637984D02*
X8803515Y-13628460D01*
X8803515Y-13628460D02*
X8793992Y-13609412D01*
X8793992Y-13609412D02*
X8793992Y-13437984D01*
X8974944Y-13628460D02*
X8955896Y-13637984D01*
X8955896Y-13637984D02*
X8917801Y-13637984D01*
X8917801Y-13637984D02*
X8898753Y-13628460D01*
X8898753Y-13628460D02*
X8889230Y-13609412D01*
X8889230Y-13609412D02*
X8889230Y-13533222D01*
X8889230Y-13533222D02*
X8898753Y-13514174D01*
X8898753Y-13514174D02*
X8917801Y-13504650D01*
X8917801Y-13504650D02*
X8955896Y-13504650D01*
X8955896Y-13504650D02*
X8974944Y-13514174D01*
X8974944Y-13514174D02*
X8984468Y-13533222D01*
X8984468Y-13533222D02*
X8984468Y-13552269D01*
X8984468Y-13552269D02*
X8889230Y-13571317D01*
X9060658Y-13628460D02*
X9079706Y-13637984D01*
X9079706Y-13637984D02*
X9117801Y-13637984D01*
X9117801Y-13637984D02*
X9136849Y-13628460D01*
X9136849Y-13628460D02*
X9146373Y-13609412D01*
X9146373Y-13609412D02*
X9146373Y-13599888D01*
X9146373Y-13599888D02*
X9136849Y-13580841D01*
X9136849Y-13580841D02*
X9117801Y-13571317D01*
X9117801Y-13571317D02*
X9089230Y-13571317D01*
X9089230Y-13571317D02*
X9070182Y-13561793D01*
X9070182Y-13561793D02*
X9060658Y-13542746D01*
X9060658Y-13542746D02*
X9060658Y-13533222D01*
X9060658Y-13533222D02*
X9070182Y-13514174D01*
X9070182Y-13514174D02*
X9089230Y-13504650D01*
X9089230Y-13504650D02*
X9117801Y-13504650D01*
X9117801Y-13504650D02*
X9136849Y-13514174D01*
X9213039Y-13714174D02*
X9222563Y-13704650D01*
X9222563Y-13704650D02*
X9241611Y-13676079D01*
X9241611Y-13676079D02*
X9251134Y-13657031D01*
X9251134Y-13657031D02*
X9260658Y-13628460D01*
X9260658Y-13628460D02*
X9270182Y-13580841D01*
X9270182Y-13580841D02*
X9270182Y-13542746D01*
X9270182Y-13542746D02*
X9260658Y-13495127D01*
X9260658Y-13495127D02*
X9251134Y-13466555D01*
X9251134Y-13466555D02*
X9241611Y-13447508D01*
X9241611Y-13447508D02*
X9222563Y-13418936D01*
X9222563Y-13418936D02*
X9213039Y-13409412D01*
D12*
X4197500Y-13760500D02*
X4197500Y-13860500D01*
X4147500Y-13810500D02*
X4247500Y-13810500D01*
D11*
X4613039Y-13901984D02*
X4498753Y-13901984D01*
X4555896Y-13901984D02*
X4555896Y-13701984D01*
X4555896Y-13701984D02*
X4536848Y-13730555D01*
X4536848Y-13730555D02*
X4517801Y-13749603D01*
X4517801Y-13749603D02*
X4498753Y-13759127D01*
X4698753Y-13882936D02*
X4708277Y-13892460D01*
X4708277Y-13892460D02*
X4698753Y-13901984D01*
X4698753Y-13901984D02*
X4689229Y-13892460D01*
X4689229Y-13892460D02*
X4698753Y-13882936D01*
X4698753Y-13882936D02*
X4698753Y-13901984D01*
X4832086Y-13701984D02*
X4851134Y-13701984D01*
X4851134Y-13701984D02*
X4870182Y-13711508D01*
X4870182Y-13711508D02*
X4879705Y-13721031D01*
X4879705Y-13721031D02*
X4889229Y-13740079D01*
X4889229Y-13740079D02*
X4898753Y-13778174D01*
X4898753Y-13778174D02*
X4898753Y-13825793D01*
X4898753Y-13825793D02*
X4889229Y-13863888D01*
X4889229Y-13863888D02*
X4879705Y-13882936D01*
X4879705Y-13882936D02*
X4870182Y-13892460D01*
X4870182Y-13892460D02*
X4851134Y-13901984D01*
X4851134Y-13901984D02*
X4832086Y-13901984D01*
X4832086Y-13901984D02*
X4813039Y-13892460D01*
X4813039Y-13892460D02*
X4803515Y-13882936D01*
X4803515Y-13882936D02*
X4793991Y-13863888D01*
X4793991Y-13863888D02*
X4784467Y-13825793D01*
X4784467Y-13825793D02*
X4784467Y-13778174D01*
X4784467Y-13778174D02*
X4793991Y-13740079D01*
X4793991Y-13740079D02*
X4803515Y-13721031D01*
X4803515Y-13721031D02*
X4813039Y-13711508D01*
X4813039Y-13711508D02*
X4832086Y-13701984D01*
X5022563Y-13701984D02*
X5041610Y-13701984D01*
X5041610Y-13701984D02*
X5060658Y-13711508D01*
X5060658Y-13711508D02*
X5070182Y-13721031D01*
X5070182Y-13721031D02*
X5079705Y-13740079D01*
X5079705Y-13740079D02*
X5089229Y-13778174D01*
X5089229Y-13778174D02*
X5089229Y-13825793D01*
X5089229Y-13825793D02*
X5079705Y-13863888D01*
X5079705Y-13863888D02*
X5070182Y-13882936D01*
X5070182Y-13882936D02*
X5060658Y-13892460D01*
X5060658Y-13892460D02*
X5041610Y-13901984D01*
X5041610Y-13901984D02*
X5022563Y-13901984D01*
X5022563Y-13901984D02*
X5003515Y-13892460D01*
X5003515Y-13892460D02*
X4993991Y-13882936D01*
X4993991Y-13882936D02*
X4984467Y-13863888D01*
X4984467Y-13863888D02*
X4974944Y-13825793D01*
X4974944Y-13825793D02*
X4974944Y-13778174D01*
X4974944Y-13778174D02*
X4984467Y-13740079D01*
X4984467Y-13740079D02*
X4993991Y-13721031D01*
X4993991Y-13721031D02*
X5003515Y-13711508D01*
X5003515Y-13711508D02*
X5022563Y-13701984D01*
X5213039Y-13701984D02*
X5232086Y-13701984D01*
X5232086Y-13701984D02*
X5251134Y-13711508D01*
X5251134Y-13711508D02*
X5260658Y-13721031D01*
X5260658Y-13721031D02*
X5270182Y-13740079D01*
X5270182Y-13740079D02*
X5279705Y-13778174D01*
X5279705Y-13778174D02*
X5279705Y-13825793D01*
X5279705Y-13825793D02*
X5270182Y-13863888D01*
X5270182Y-13863888D02*
X5260658Y-13882936D01*
X5260658Y-13882936D02*
X5251134Y-13892460D01*
X5251134Y-13892460D02*
X5232086Y-13901984D01*
X5232086Y-13901984D02*
X5213039Y-13901984D01*
X5213039Y-13901984D02*
X5193991Y-13892460D01*
X5193991Y-13892460D02*
X5184467Y-13882936D01*
X5184467Y-13882936D02*
X5174944Y-13863888D01*
X5174944Y-13863888D02*
X5165420Y-13825793D01*
X5165420Y-13825793D02*
X5165420Y-13778174D01*
X5165420Y-13778174D02*
X5174944Y-13740079D01*
X5174944Y-13740079D02*
X5184467Y-13721031D01*
X5184467Y-13721031D02*
X5193991Y-13711508D01*
X5193991Y-13711508D02*
X5213039Y-13701984D01*
X5365420Y-13901984D02*
X5365420Y-13768650D01*
X5365420Y-13787698D02*
X5374944Y-13778174D01*
X5374944Y-13778174D02*
X5393991Y-13768650D01*
X5393991Y-13768650D02*
X5422563Y-13768650D01*
X5422563Y-13768650D02*
X5441610Y-13778174D01*
X5441610Y-13778174D02*
X5451134Y-13797222D01*
X5451134Y-13797222D02*
X5451134Y-13901984D01*
X5451134Y-13797222D02*
X5460658Y-13778174D01*
X5460658Y-13778174D02*
X5479705Y-13768650D01*
X5479705Y-13768650D02*
X5508277Y-13768650D01*
X5508277Y-13768650D02*
X5527325Y-13778174D01*
X5527325Y-13778174D02*
X5536848Y-13797222D01*
X5536848Y-13797222D02*
X5536848Y-13901984D01*
X5632086Y-13901984D02*
X5632086Y-13768650D01*
X5632086Y-13787698D02*
X5641610Y-13778174D01*
X5641610Y-13778174D02*
X5660658Y-13768650D01*
X5660658Y-13768650D02*
X5689229Y-13768650D01*
X5689229Y-13768650D02*
X5708277Y-13778174D01*
X5708277Y-13778174D02*
X5717801Y-13797222D01*
X5717801Y-13797222D02*
X5717801Y-13901984D01*
X5717801Y-13797222D02*
X5727324Y-13778174D01*
X5727324Y-13778174D02*
X5746372Y-13768650D01*
X5746372Y-13768650D02*
X5774943Y-13768650D01*
X5774943Y-13768650D02*
X5793991Y-13778174D01*
X5793991Y-13778174D02*
X5803515Y-13797222D01*
X5803515Y-13797222D02*
X5803515Y-13901984D01*
X6193991Y-13692460D02*
X6022563Y-13949603D01*
X6451134Y-13701984D02*
X6470182Y-13701984D01*
X6470182Y-13701984D02*
X6489229Y-13711508D01*
X6489229Y-13711508D02*
X6498753Y-13721031D01*
X6498753Y-13721031D02*
X6508277Y-13740079D01*
X6508277Y-13740079D02*
X6517801Y-13778174D01*
X6517801Y-13778174D02*
X6517801Y-13825793D01*
X6517801Y-13825793D02*
X6508277Y-13863888D01*
X6508277Y-13863888D02*
X6498753Y-13882936D01*
X6498753Y-13882936D02*
X6489229Y-13892460D01*
X6489229Y-13892460D02*
X6470182Y-13901984D01*
X6470182Y-13901984D02*
X6451134Y-13901984D01*
X6451134Y-13901984D02*
X6432086Y-13892460D01*
X6432086Y-13892460D02*
X6422563Y-13882936D01*
X6422563Y-13882936D02*
X6413039Y-13863888D01*
X6413039Y-13863888D02*
X6403515Y-13825793D01*
X6403515Y-13825793D02*
X6403515Y-13778174D01*
X6403515Y-13778174D02*
X6413039Y-13740079D01*
X6413039Y-13740079D02*
X6422563Y-13721031D01*
X6422563Y-13721031D02*
X6432086Y-13711508D01*
X6432086Y-13711508D02*
X6451134Y-13701984D01*
X6603515Y-13882936D02*
X6613039Y-13892460D01*
X6613039Y-13892460D02*
X6603515Y-13901984D01*
X6603515Y-13901984D02*
X6593991Y-13892460D01*
X6593991Y-13892460D02*
X6603515Y-13882936D01*
X6603515Y-13882936D02*
X6603515Y-13901984D01*
X6736848Y-13701984D02*
X6755896Y-13701984D01*
X6755896Y-13701984D02*
X6774944Y-13711508D01*
X6774944Y-13711508D02*
X6784467Y-13721031D01*
X6784467Y-13721031D02*
X6793991Y-13740079D01*
X6793991Y-13740079D02*
X6803515Y-13778174D01*
X6803515Y-13778174D02*
X6803515Y-13825793D01*
X6803515Y-13825793D02*
X6793991Y-13863888D01*
X6793991Y-13863888D02*
X6784467Y-13882936D01*
X6784467Y-13882936D02*
X6774944Y-13892460D01*
X6774944Y-13892460D02*
X6755896Y-13901984D01*
X6755896Y-13901984D02*
X6736848Y-13901984D01*
X6736848Y-13901984D02*
X6717801Y-13892460D01*
X6717801Y-13892460D02*
X6708277Y-13882936D01*
X6708277Y-13882936D02*
X6698753Y-13863888D01*
X6698753Y-13863888D02*
X6689229Y-13825793D01*
X6689229Y-13825793D02*
X6689229Y-13778174D01*
X6689229Y-13778174D02*
X6698753Y-13740079D01*
X6698753Y-13740079D02*
X6708277Y-13721031D01*
X6708277Y-13721031D02*
X6717801Y-13711508D01*
X6717801Y-13711508D02*
X6736848Y-13701984D01*
X6870182Y-13701984D02*
X6993991Y-13701984D01*
X6993991Y-13701984D02*
X6927325Y-13778174D01*
X6927325Y-13778174D02*
X6955896Y-13778174D01*
X6955896Y-13778174D02*
X6974944Y-13787698D01*
X6974944Y-13787698D02*
X6984467Y-13797222D01*
X6984467Y-13797222D02*
X6993991Y-13816269D01*
X6993991Y-13816269D02*
X6993991Y-13863888D01*
X6993991Y-13863888D02*
X6984467Y-13882936D01*
X6984467Y-13882936D02*
X6974944Y-13892460D01*
X6974944Y-13892460D02*
X6955896Y-13901984D01*
X6955896Y-13901984D02*
X6898753Y-13901984D01*
X6898753Y-13901984D02*
X6879706Y-13892460D01*
X6879706Y-13892460D02*
X6870182Y-13882936D01*
X7089229Y-13901984D02*
X7127325Y-13901984D01*
X7127325Y-13901984D02*
X7146372Y-13892460D01*
X7146372Y-13892460D02*
X7155896Y-13882936D01*
X7155896Y-13882936D02*
X7174944Y-13854365D01*
X7174944Y-13854365D02*
X7184467Y-13816269D01*
X7184467Y-13816269D02*
X7184467Y-13740079D01*
X7184467Y-13740079D02*
X7174944Y-13721031D01*
X7174944Y-13721031D02*
X7165420Y-13711508D01*
X7165420Y-13711508D02*
X7146372Y-13701984D01*
X7146372Y-13701984D02*
X7108277Y-13701984D01*
X7108277Y-13701984D02*
X7089229Y-13711508D01*
X7089229Y-13711508D02*
X7079706Y-13721031D01*
X7079706Y-13721031D02*
X7070182Y-13740079D01*
X7070182Y-13740079D02*
X7070182Y-13787698D01*
X7070182Y-13787698D02*
X7079706Y-13806746D01*
X7079706Y-13806746D02*
X7089229Y-13816269D01*
X7089229Y-13816269D02*
X7108277Y-13825793D01*
X7108277Y-13825793D02*
X7146372Y-13825793D01*
X7146372Y-13825793D02*
X7165420Y-13816269D01*
X7165420Y-13816269D02*
X7174944Y-13806746D01*
X7174944Y-13806746D02*
X7184467Y-13787698D01*
X7355896Y-13768650D02*
X7355896Y-13901984D01*
X7308277Y-13692460D02*
X7260658Y-13835317D01*
X7260658Y-13835317D02*
X7384467Y-13835317D01*
X7451134Y-13701984D02*
X7451134Y-13740079D01*
X7527325Y-13701984D02*
X7527325Y-13740079D01*
X7822563Y-13978174D02*
X7813039Y-13968650D01*
X7813039Y-13968650D02*
X7793991Y-13940079D01*
X7793991Y-13940079D02*
X7784468Y-13921031D01*
X7784468Y-13921031D02*
X7774944Y-13892460D01*
X7774944Y-13892460D02*
X7765420Y-13844841D01*
X7765420Y-13844841D02*
X7765420Y-13806746D01*
X7765420Y-13806746D02*
X7774944Y-13759127D01*
X7774944Y-13759127D02*
X7784468Y-13730555D01*
X7784468Y-13730555D02*
X7793991Y-13711508D01*
X7793991Y-13711508D02*
X7813039Y-13682936D01*
X7813039Y-13682936D02*
X7822563Y-13673412D01*
X8003515Y-13901984D02*
X7889229Y-13901984D01*
X7946372Y-13901984D02*
X7946372Y-13701984D01*
X7946372Y-13701984D02*
X7927325Y-13730555D01*
X7927325Y-13730555D02*
X7908277Y-13749603D01*
X7908277Y-13749603D02*
X7889229Y-13759127D01*
X8117801Y-13787698D02*
X8098753Y-13778174D01*
X8098753Y-13778174D02*
X8089229Y-13768650D01*
X8089229Y-13768650D02*
X8079706Y-13749603D01*
X8079706Y-13749603D02*
X8079706Y-13740079D01*
X8079706Y-13740079D02*
X8089229Y-13721031D01*
X8089229Y-13721031D02*
X8098753Y-13711508D01*
X8098753Y-13711508D02*
X8117801Y-13701984D01*
X8117801Y-13701984D02*
X8155896Y-13701984D01*
X8155896Y-13701984D02*
X8174944Y-13711508D01*
X8174944Y-13711508D02*
X8184468Y-13721031D01*
X8184468Y-13721031D02*
X8193991Y-13740079D01*
X8193991Y-13740079D02*
X8193991Y-13749603D01*
X8193991Y-13749603D02*
X8184468Y-13768650D01*
X8184468Y-13768650D02*
X8174944Y-13778174D01*
X8174944Y-13778174D02*
X8155896Y-13787698D01*
X8155896Y-13787698D02*
X8117801Y-13787698D01*
X8117801Y-13787698D02*
X8098753Y-13797222D01*
X8098753Y-13797222D02*
X8089229Y-13806746D01*
X8089229Y-13806746D02*
X8079706Y-13825793D01*
X8079706Y-13825793D02*
X8079706Y-13863888D01*
X8079706Y-13863888D02*
X8089229Y-13882936D01*
X8089229Y-13882936D02*
X8098753Y-13892460D01*
X8098753Y-13892460D02*
X8117801Y-13901984D01*
X8117801Y-13901984D02*
X8155896Y-13901984D01*
X8155896Y-13901984D02*
X8174944Y-13892460D01*
X8174944Y-13892460D02*
X8184468Y-13882936D01*
X8184468Y-13882936D02*
X8193991Y-13863888D01*
X8193991Y-13863888D02*
X8193991Y-13825793D01*
X8193991Y-13825793D02*
X8184468Y-13806746D01*
X8184468Y-13806746D02*
X8174944Y-13797222D01*
X8174944Y-13797222D02*
X8155896Y-13787698D01*
X8432087Y-13901984D02*
X8432087Y-13701984D01*
X8517801Y-13901984D02*
X8517801Y-13797222D01*
X8517801Y-13797222D02*
X8508277Y-13778174D01*
X8508277Y-13778174D02*
X8489230Y-13768650D01*
X8489230Y-13768650D02*
X8460658Y-13768650D01*
X8460658Y-13768650D02*
X8441611Y-13778174D01*
X8441611Y-13778174D02*
X8432087Y-13787698D01*
X8641611Y-13901984D02*
X8622563Y-13892460D01*
X8622563Y-13892460D02*
X8613039Y-13882936D01*
X8613039Y-13882936D02*
X8603515Y-13863888D01*
X8603515Y-13863888D02*
X8603515Y-13806746D01*
X8603515Y-13806746D02*
X8613039Y-13787698D01*
X8613039Y-13787698D02*
X8622563Y-13778174D01*
X8622563Y-13778174D02*
X8641611Y-13768650D01*
X8641611Y-13768650D02*
X8670182Y-13768650D01*
X8670182Y-13768650D02*
X8689230Y-13778174D01*
X8689230Y-13778174D02*
X8698753Y-13787698D01*
X8698753Y-13787698D02*
X8708277Y-13806746D01*
X8708277Y-13806746D02*
X8708277Y-13863888D01*
X8708277Y-13863888D02*
X8698753Y-13882936D01*
X8698753Y-13882936D02*
X8689230Y-13892460D01*
X8689230Y-13892460D02*
X8670182Y-13901984D01*
X8670182Y-13901984D02*
X8641611Y-13901984D01*
X8822563Y-13901984D02*
X8803515Y-13892460D01*
X8803515Y-13892460D02*
X8793992Y-13873412D01*
X8793992Y-13873412D02*
X8793992Y-13701984D01*
X8974944Y-13892460D02*
X8955896Y-13901984D01*
X8955896Y-13901984D02*
X8917801Y-13901984D01*
X8917801Y-13901984D02*
X8898753Y-13892460D01*
X8898753Y-13892460D02*
X8889230Y-13873412D01*
X8889230Y-13873412D02*
X8889230Y-13797222D01*
X8889230Y-13797222D02*
X8898753Y-13778174D01*
X8898753Y-13778174D02*
X8917801Y-13768650D01*
X8917801Y-13768650D02*
X8955896Y-13768650D01*
X8955896Y-13768650D02*
X8974944Y-13778174D01*
X8974944Y-13778174D02*
X8984468Y-13797222D01*
X8984468Y-13797222D02*
X8984468Y-13816269D01*
X8984468Y-13816269D02*
X8889230Y-13835317D01*
X9060658Y-13892460D02*
X9079706Y-13901984D01*
X9079706Y-13901984D02*
X9117801Y-13901984D01*
X9117801Y-13901984D02*
X9136849Y-13892460D01*
X9136849Y-13892460D02*
X9146373Y-13873412D01*
X9146373Y-13873412D02*
X9146373Y-13863888D01*
X9146373Y-13863888D02*
X9136849Y-13844841D01*
X9136849Y-13844841D02*
X9117801Y-13835317D01*
X9117801Y-13835317D02*
X9089230Y-13835317D01*
X9089230Y-13835317D02*
X9070182Y-13825793D01*
X9070182Y-13825793D02*
X9060658Y-13806746D01*
X9060658Y-13806746D02*
X9060658Y-13797222D01*
X9060658Y-13797222D02*
X9070182Y-13778174D01*
X9070182Y-13778174D02*
X9089230Y-13768650D01*
X9089230Y-13768650D02*
X9117801Y-13768650D01*
X9117801Y-13768650D02*
X9136849Y-13778174D01*
X9213039Y-13978174D02*
X9222563Y-13968650D01*
X9222563Y-13968650D02*
X9241611Y-13940079D01*
X9241611Y-13940079D02*
X9251134Y-13921031D01*
X9251134Y-13921031D02*
X9260658Y-13892460D01*
X9260658Y-13892460D02*
X9270182Y-13844841D01*
X9270182Y-13844841D02*
X9270182Y-13806746D01*
X9270182Y-13806746D02*
X9260658Y-13759127D01*
X9260658Y-13759127D02*
X9251134Y-13730555D01*
X9251134Y-13730555D02*
X9241611Y-13711508D01*
X9241611Y-13711508D02*
X9222563Y-13682936D01*
X9222563Y-13682936D02*
X9213039Y-13673412D01*
M02*
