%TF.GenerationSoftware,KiCad,Pcbnew,8.0.9-8.0.9-0~ubuntu24.04.1*%
%TF.CreationDate,2025-04-14T22:12:55+02:00*%
%TF.ProjectId,FastLapLights5V,46617374-4c61-4704-9c69-676874733556,MK6*%
%TF.SameCoordinates,Original*%
%TF.FileFunction,Copper,L4,Bot*%
%TF.FilePolarity,Positive*%
%FSLAX46Y46*%
G04 Gerber Fmt 4.6, Leading zero omitted, Abs format (unit mm)*
G04 Created by KiCad (PCBNEW 8.0.9-8.0.9-0~ubuntu24.04.1) date 2025-04-14 22:12:55*
%MOMM*%
%LPD*%
G01*
G04 APERTURE LIST*
G04 Aperture macros list*
%AMFreePoly0*
4,1,19,0.500000,-0.750000,0.000000,-0.750000,0.000000,-0.744911,-0.071157,-0.744911,-0.207708,-0.704816,-0.327430,-0.627875,-0.420627,-0.520320,-0.479746,-0.390866,-0.500000,-0.250000,-0.500000,0.250000,-0.479746,0.390866,-0.420627,0.520320,-0.327430,0.627875,-0.207708,0.704816,-0.071157,0.744911,0.000000,0.744911,0.000000,0.750000,0.500000,0.750000,0.500000,-0.750000,0.500000,-0.750000,
$1*%
%AMFreePoly1*
4,1,19,0.000000,0.744911,0.071157,0.744911,0.207708,0.704816,0.327430,0.627875,0.420627,0.520320,0.479746,0.390866,0.500000,0.250000,0.500000,-0.250000,0.479746,-0.390866,0.420627,-0.520320,0.327430,-0.627875,0.207708,-0.704816,0.071157,-0.744911,0.000000,-0.744911,0.000000,-0.750000,-0.500000,-0.750000,-0.500000,0.750000,0.000000,0.750000,0.000000,0.744911,0.000000,0.744911,
$1*%
G04 Aperture macros list end*
%TA.AperFunction,ComponentPad*%
%ADD10R,1.700000X1.700000*%
%TD*%
%TA.AperFunction,ComponentPad*%
%ADD11O,1.700000X1.700000*%
%TD*%
%TA.AperFunction,SMDPad,CuDef*%
%ADD12FreePoly0,180.000000*%
%TD*%
%TA.AperFunction,SMDPad,CuDef*%
%ADD13FreePoly1,180.000000*%
%TD*%
%TA.AperFunction,ViaPad*%
%ADD14C,1.000000*%
%TD*%
%TA.AperFunction,ViaPad*%
%ADD15C,0.700000*%
%TD*%
%TA.AperFunction,ViaPad*%
%ADD16C,0.600000*%
%TD*%
%TA.AperFunction,Conductor*%
%ADD17C,0.400000*%
%TD*%
%TA.AperFunction,Conductor*%
%ADD18C,0.700000*%
%TD*%
%TA.AperFunction,Conductor*%
%ADD19C,0.800000*%
%TD*%
%TA.AperFunction,Conductor*%
%ADD20C,0.600000*%
%TD*%
%TA.AperFunction,Conductor*%
%ADD21C,0.200000*%
%TD*%
G04 APERTURE END LIST*
D10*
%TO.P,J4,1,Pin_1*%
%TO.N,+5V*%
X44860000Y-115700000D03*
D11*
%TO.P,J4,2,Pin_2*%
%TO.N,/START_LIGHTS_5V*%
X47400000Y-115700000D03*
%TO.P,J4,3,Pin_3*%
%TO.N,/TRACK_LIGHTS_G*%
X44860000Y-118240000D03*
%TO.P,J4,4,Pin_4*%
%TO.N,/TRACK_LIGHTS_R*%
X47400000Y-118240000D03*
%TO.P,J4,5,Pin_5*%
%TO.N,/IO_POWER_RAIL_INT*%
X44860000Y-120780000D03*
%TO.P,J4,6,Pin_6*%
%TO.N,/IO_POWER_RAIL_DATA*%
X47400000Y-120780000D03*
%TO.P,J4,7,Pin_7*%
%TO.N,GND*%
X44860000Y-123320000D03*
%TO.P,J4,8,Pin_8*%
%TO.N,+3.3V*%
X47400000Y-123320000D03*
%TD*%
D10*
%TO.P,J1,1,Pin_1*%
%TO.N,VRAIL*%
X45000000Y-89125000D03*
D11*
%TO.P,J1,2,Pin_2*%
%TO.N,GND*%
X45000000Y-91665000D03*
%TD*%
D10*
%TO.P,J3,1,Pin_1*%
%TO.N,/I2C_SDA*%
X63500000Y-117600000D03*
D11*
%TO.P,J3,2,Pin_2*%
%TO.N,/I2C_SCL*%
X60960000Y-117600000D03*
%TD*%
D10*
%TO.P,J2,1,Pin_1*%
%TO.N,GND*%
X60910000Y-108910000D03*
D11*
%TO.P,J2,2,Pin_2*%
%TO.N,/SWD_SWCLK*%
X63450000Y-108910000D03*
%TO.P,J2,3,Pin_3*%
%TO.N,+3.3V*%
X60910000Y-111450000D03*
%TO.P,J2,4,Pin_4*%
%TO.N,/SWD_SWDIO*%
X63450000Y-111450000D03*
%TO.P,J2,5,Pin_5*%
%TO.N,+3.3V*%
X60910000Y-113990000D03*
%TO.P,J2,6,Pin_6*%
%TO.N,/SWD_NRST*%
X63450000Y-113990000D03*
%TD*%
D12*
%TO.P,JP1,1,A*%
%TO.N,GND*%
X62550000Y-124100000D03*
D13*
%TO.P,JP1,2,B*%
%TO.N,Net-(JP1-B)*%
X61250000Y-124100000D03*
%TD*%
D14*
%TO.N,GND*%
X53200000Y-116700000D03*
X45000000Y-93800000D03*
X50500000Y-124100000D03*
X50200000Y-107625000D03*
X63000000Y-120700000D03*
X53800000Y-98450000D03*
X59962500Y-92375000D03*
X64000000Y-88700000D03*
X52025000Y-110200000D03*
X57400000Y-121000000D03*
X54825000Y-111950000D03*
D15*
X55225686Y-117205686D03*
D14*
X54200000Y-92900000D03*
X52400000Y-114000000D03*
X58000000Y-113200000D03*
X52050000Y-93300000D03*
X59400000Y-116300000D03*
X56200000Y-120400000D03*
X47000000Y-107300000D03*
X66000000Y-88700000D03*
X66000000Y-109700000D03*
X51500000Y-119300000D03*
X43600000Y-109100000D03*
%TO.N,/TRACK_LIGHTS_R*%
X53500000Y-120800000D03*
%TO.N,+3.3V*%
X57600000Y-111450000D03*
%TO.N,/SWD_NRST*%
X56000000Y-121900000D03*
%TO.N,VRAIL*%
X47100000Y-110600000D03*
%TO.N,/IO_POWER_RAIL_DATA*%
X45600000Y-111200000D03*
D16*
%TO.N,/IO_POWER_RAIL_INT*%
X52224914Y-121075086D03*
D14*
%TO.N,+5V*%
X55900000Y-88900000D03*
X50500000Y-118500000D03*
X61150000Y-105850000D03*
X48625000Y-110300000D03*
X54400000Y-106200000D03*
%TO.N,Net-(JP1-B)*%
X59550000Y-124250000D03*
%TD*%
D17*
%TO.N,/TRACK_LIGHTS_R*%
X49460000Y-120300000D02*
X47400000Y-118240000D01*
X53500000Y-120800000D02*
X53000000Y-120300000D01*
X53000000Y-120300000D02*
X49460000Y-120300000D01*
D18*
%TO.N,+3.3V*%
X54800000Y-119400000D02*
X56600000Y-117600000D01*
X53350000Y-123050000D02*
X53950000Y-122450000D01*
X47670000Y-123050000D02*
X53350000Y-123050000D01*
X47400000Y-123320000D02*
X47670000Y-123050000D01*
X54800000Y-121600000D02*
X54800000Y-119400000D01*
X53950000Y-122450000D02*
X54800000Y-121600000D01*
X56600000Y-112450000D02*
X57600000Y-111450000D01*
X56600000Y-117600000D02*
X56600000Y-112450000D01*
D17*
%TO.N,/SWD_NRST*%
X64800000Y-115340000D02*
X63450000Y-113990000D01*
X63200000Y-121900000D02*
X64800000Y-120300000D01*
X64800000Y-120300000D02*
X64800000Y-115340000D01*
X56000000Y-121900000D02*
X63200000Y-121900000D01*
D19*
%TO.N,VRAIL*%
X43550000Y-90575000D02*
X45000000Y-89125000D01*
X43550000Y-107050000D02*
X43550000Y-90575000D01*
X47100000Y-110600000D02*
X43550000Y-107050000D01*
D17*
%TO.N,/IO_POWER_RAIL_DATA*%
X44352233Y-119500000D02*
X46120000Y-119500000D01*
X46120000Y-119500000D02*
X47400000Y-120780000D01*
X43400000Y-114400000D02*
X43400000Y-118547767D01*
X43400000Y-118547767D02*
X44352233Y-119500000D01*
X45600000Y-111200000D02*
X45600000Y-112200000D01*
X45600000Y-112200000D02*
X43400000Y-114400000D01*
X45872793Y-111200000D02*
X45600000Y-111200000D01*
%TO.N,/IO_POWER_RAIL_INT*%
X46110000Y-122030000D02*
X44860000Y-120780000D01*
X51270000Y-122030000D02*
X46110000Y-122030000D01*
X52224914Y-121075086D02*
X51270000Y-122030000D01*
D20*
%TO.N,+5V*%
X49400000Y-117400000D02*
X49400000Y-112600000D01*
X54400000Y-110700000D02*
X52800000Y-112300000D01*
X52800000Y-112300000D02*
X49700000Y-112300000D01*
D18*
X61150000Y-105850000D02*
X56150000Y-105850000D01*
D20*
X48625000Y-111225000D02*
X48625000Y-110300000D01*
D18*
X55000000Y-104700000D02*
X55000000Y-94074876D01*
D20*
X55900000Y-88900000D02*
X55900000Y-93100000D01*
X55900000Y-93100000D02*
X55000000Y-94000000D01*
X50500000Y-118500000D02*
X49400000Y-117400000D01*
D18*
X55000000Y-94074876D02*
X55037438Y-94037438D01*
D20*
X49700000Y-112300000D02*
X48625000Y-111225000D01*
D18*
X56150000Y-105850000D02*
X55000000Y-104700000D01*
D20*
X49400000Y-112600000D02*
X49700000Y-112300000D01*
X54400000Y-106200000D02*
X54400000Y-110700000D01*
D21*
%TO.N,GND*%
X62750000Y-123900000D02*
X62550000Y-124100000D01*
%TO.N,Net-(JP1-B)*%
X59700000Y-124100000D02*
X61250000Y-124100000D01*
X59550000Y-124250000D02*
X59700000Y-124100000D01*
%TD*%
%TA.AperFunction,Conductor*%
%TO.N,GND*%
G36*
X66942539Y-87720185D02*
G01*
X66988294Y-87772989D01*
X66999500Y-87824500D01*
X66999500Y-125775500D01*
X66979815Y-125842539D01*
X66927011Y-125888294D01*
X66875500Y-125899500D01*
X43124500Y-125899500D01*
X43057461Y-125879815D01*
X43011706Y-125827011D01*
X43000500Y-125775500D01*
X43000500Y-123069999D01*
X43735487Y-123069999D01*
X43735488Y-123070000D01*
X44426988Y-123070000D01*
X44394075Y-123127007D01*
X44360000Y-123254174D01*
X44360000Y-123385826D01*
X44394075Y-123512993D01*
X44426988Y-123570000D01*
X43735488Y-123570000D01*
X43783062Y-123737205D01*
X43783067Y-123737218D01*
X43878061Y-123927991D01*
X44006500Y-124098071D01*
X44164000Y-124241651D01*
X44164002Y-124241653D01*
X44345201Y-124353846D01*
X44345207Y-124353849D01*
X44543941Y-124430838D01*
X44610000Y-124443186D01*
X44610000Y-123753012D01*
X44667007Y-123785925D01*
X44794174Y-123820000D01*
X44925826Y-123820000D01*
X45052993Y-123785925D01*
X45110000Y-123753012D01*
X45110000Y-124443185D01*
X45176058Y-124430838D01*
X45374792Y-124353849D01*
X45374798Y-124353846D01*
X45555997Y-124241653D01*
X45555999Y-124241651D01*
X45713499Y-124098071D01*
X45841938Y-123927991D01*
X45936932Y-123737218D01*
X45936937Y-123737205D01*
X45984512Y-123570000D01*
X45293012Y-123570000D01*
X45325925Y-123512993D01*
X45360000Y-123385826D01*
X45360000Y-123254174D01*
X45325925Y-123127007D01*
X45293012Y-123070000D01*
X45984512Y-123070000D01*
X45984512Y-123069999D01*
X45936937Y-122902794D01*
X45936932Y-122902781D01*
X45841938Y-122712008D01*
X45710046Y-122537356D01*
X45711754Y-122536065D01*
X45685267Y-122481769D01*
X45685358Y-122480995D01*
X45641424Y-122471438D01*
X45617313Y-122454243D01*
X45555999Y-122398348D01*
X45555997Y-122398346D01*
X45374798Y-122286153D01*
X45374789Y-122286149D01*
X45176063Y-122209163D01*
X45176058Y-122209162D01*
X45110000Y-122196813D01*
X45110000Y-122886988D01*
X45052993Y-122854075D01*
X44925826Y-122820000D01*
X44794174Y-122820000D01*
X44667007Y-122854075D01*
X44610000Y-122886988D01*
X44610000Y-122196813D01*
X44543941Y-122209162D01*
X44543936Y-122209163D01*
X44345210Y-122286149D01*
X44345201Y-122286153D01*
X44164002Y-122398346D01*
X44164000Y-122398348D01*
X44006500Y-122541928D01*
X43878061Y-122712008D01*
X43783067Y-122902781D01*
X43783062Y-122902794D01*
X43735487Y-123069999D01*
X43000500Y-123069999D01*
X43000500Y-119014022D01*
X43020185Y-118946983D01*
X43072989Y-118901228D01*
X43142147Y-118891284D01*
X43205703Y-118920309D01*
X43212181Y-118926341D01*
X44106320Y-119820480D01*
X44107860Y-119821369D01*
X44108898Y-119822457D01*
X44112769Y-119825428D01*
X44112305Y-119826031D01*
X44156078Y-119871934D01*
X44169303Y-119940541D01*
X44143337Y-120005406D01*
X44124532Y-120024608D01*
X44113592Y-120033586D01*
X44001292Y-120170426D01*
X43982315Y-120193550D01*
X43957659Y-120239678D01*
X43884769Y-120376043D01*
X43884768Y-120376045D01*
X43884768Y-120376046D01*
X43883245Y-120381067D01*
X43824699Y-120574067D01*
X43804417Y-120780000D01*
X43824699Y-120985932D01*
X43824700Y-120985934D01*
X43884768Y-121183954D01*
X43982315Y-121366450D01*
X43991289Y-121377385D01*
X44113589Y-121526410D01*
X44165720Y-121569192D01*
X44273550Y-121657685D01*
X44456046Y-121755232D01*
X44654066Y-121815300D01*
X44654065Y-121815300D01*
X44672529Y-121817118D01*
X44860000Y-121835583D01*
X45065934Y-121815300D01*
X45196581Y-121775668D01*
X45266447Y-121775046D01*
X45320256Y-121806649D01*
X45788532Y-122274925D01*
X45822017Y-122336248D01*
X45821645Y-122341438D01*
X45869516Y-122353615D01*
X45955408Y-122403205D01*
X45955409Y-122403205D01*
X45955412Y-122403207D01*
X46057273Y-122430500D01*
X46508845Y-122430500D01*
X46575884Y-122450185D01*
X46621639Y-122502989D01*
X46631583Y-122572147D01*
X46604698Y-122633165D01*
X46522317Y-122733546D01*
X46424769Y-122916043D01*
X46364699Y-123114067D01*
X46344417Y-123320000D01*
X46364699Y-123525932D01*
X46371851Y-123549508D01*
X46424768Y-123723954D01*
X46522315Y-123906450D01*
X46535134Y-123922070D01*
X46653589Y-124066410D01*
X46671526Y-124081130D01*
X46813550Y-124197685D01*
X46996046Y-124295232D01*
X47194066Y-124355300D01*
X47194065Y-124355300D01*
X47212529Y-124357118D01*
X47400000Y-124375583D01*
X47605934Y-124355300D01*
X47803954Y-124295232D01*
X47888576Y-124250000D01*
X58844355Y-124250000D01*
X58864859Y-124418869D01*
X58864860Y-124418874D01*
X58925182Y-124577931D01*
X58987475Y-124668177D01*
X59021817Y-124717929D01*
X59127505Y-124811560D01*
X59149150Y-124830736D01*
X59299773Y-124909789D01*
X59299775Y-124909790D01*
X59464944Y-124950500D01*
X59635056Y-124950500D01*
X59800225Y-124909790D01*
X59883030Y-124866330D01*
X59950849Y-124830736D01*
X59950850Y-124830734D01*
X59950852Y-124830734D01*
X60078183Y-124717929D01*
X60174818Y-124577930D01*
X60211757Y-124480529D01*
X60253935Y-124424826D01*
X60319532Y-124400769D01*
X60327699Y-124400500D01*
X60437059Y-124400500D01*
X60504098Y-124420185D01*
X60549853Y-124472989D01*
X60559797Y-124506853D01*
X60561910Y-124521556D01*
X60561912Y-124521561D01*
X60578393Y-124577689D01*
X60638112Y-124708456D01*
X60638121Y-124708472D01*
X60669738Y-124757668D01*
X60669749Y-124757684D01*
X60741929Y-124840983D01*
X60763895Y-124866334D01*
X60808100Y-124904638D01*
X60808101Y-124904639D01*
X60929049Y-124982368D01*
X60929051Y-124982368D01*
X60929055Y-124982371D01*
X60982260Y-125006669D01*
X61120215Y-125047176D01*
X61178111Y-125055500D01*
X61178114Y-125055500D01*
X61750003Y-125055500D01*
X61750003Y-125055499D01*
X61795728Y-125050348D01*
X61878127Y-125010666D01*
X61935149Y-124939163D01*
X61955500Y-124850000D01*
X61955500Y-124409328D01*
X61956762Y-124391681D01*
X61958550Y-124379246D01*
X61958550Y-124320755D01*
X61956761Y-124308318D01*
X61955500Y-124290673D01*
X61955500Y-123909327D01*
X61956762Y-123891680D01*
X61958550Y-123879245D01*
X61958550Y-123820754D01*
X61956762Y-123808317D01*
X61955500Y-123790671D01*
X61955500Y-123349997D01*
X61955499Y-123349995D01*
X61953659Y-123333666D01*
X61950348Y-123304272D01*
X61946056Y-123295360D01*
X61910666Y-123221873D01*
X61839163Y-123164851D01*
X61750004Y-123144500D01*
X61750000Y-123144500D01*
X61178111Y-123144500D01*
X61178109Y-123144500D01*
X61120222Y-123152822D01*
X61120210Y-123152825D01*
X60982260Y-123193331D01*
X60929055Y-123217629D01*
X60929049Y-123217631D01*
X60808101Y-123295360D01*
X60808100Y-123295361D01*
X60763892Y-123333669D01*
X60669749Y-123442315D01*
X60669738Y-123442331D01*
X60638121Y-123491527D01*
X60638112Y-123491543D01*
X60578393Y-123622310D01*
X60561912Y-123678438D01*
X60561910Y-123678443D01*
X60559797Y-123693147D01*
X60530772Y-123756703D01*
X60471994Y-123794477D01*
X60437059Y-123799500D01*
X60144883Y-123799500D01*
X60077844Y-123779815D01*
X60062656Y-123768315D01*
X59950852Y-123669266D01*
X59950850Y-123669264D01*
X59800226Y-123590210D01*
X59635056Y-123549500D01*
X59464944Y-123549500D01*
X59299773Y-123590210D01*
X59149150Y-123669263D01*
X59021816Y-123782072D01*
X58925182Y-123922068D01*
X58864860Y-124081125D01*
X58864859Y-124081130D01*
X58844355Y-124250000D01*
X47888576Y-124250000D01*
X47986450Y-124197685D01*
X48146410Y-124066410D01*
X48277685Y-123906450D01*
X48375232Y-123723954D01*
X48385986Y-123688504D01*
X48424283Y-123630066D01*
X48488095Y-123601609D01*
X48504646Y-123600500D01*
X53422472Y-123600500D01*
X53422474Y-123600500D01*
X53422475Y-123600500D01*
X53562485Y-123562984D01*
X53585840Y-123549500D01*
X53688015Y-123490510D01*
X54390510Y-122788015D01*
X54390510Y-122788014D01*
X55122822Y-122055701D01*
X55184143Y-122022218D01*
X55253835Y-122027202D01*
X55309768Y-122069074D01*
X55326443Y-122099414D01*
X55375181Y-122227928D01*
X55375182Y-122227931D01*
X55437475Y-122318177D01*
X55471817Y-122367929D01*
X55555782Y-122442315D01*
X55599150Y-122480736D01*
X55715742Y-122541928D01*
X55749775Y-122559790D01*
X55914944Y-122600500D01*
X56085056Y-122600500D01*
X56250225Y-122559790D01*
X56365097Y-122499500D01*
X56400849Y-122480736D01*
X56400850Y-122480734D01*
X56400852Y-122480734D01*
X56528183Y-122367929D01*
X56537756Y-122354059D01*
X56592039Y-122310070D01*
X56639806Y-122300500D01*
X63252725Y-122300500D01*
X63252727Y-122300500D01*
X63354588Y-122273207D01*
X63445913Y-122220480D01*
X65035703Y-120630687D01*
X65035708Y-120630684D01*
X65045911Y-120620480D01*
X65045913Y-120620480D01*
X65120480Y-120545913D01*
X65173207Y-120454587D01*
X65200501Y-120352727D01*
X65200501Y-120247273D01*
X65200501Y-120239678D01*
X65200500Y-120239660D01*
X65200500Y-115287275D01*
X65200500Y-115287273D01*
X65173207Y-115185413D01*
X65120480Y-115094087D01*
X65045913Y-115019520D01*
X64476649Y-114450256D01*
X64443164Y-114388933D01*
X64445669Y-114326580D01*
X64485300Y-114195934D01*
X64505583Y-113990000D01*
X64485300Y-113784066D01*
X64425232Y-113586046D01*
X64327685Y-113403550D01*
X64275702Y-113340209D01*
X64196410Y-113243589D01*
X64036452Y-113112317D01*
X64036453Y-113112317D01*
X64036450Y-113112315D01*
X63853954Y-113014768D01*
X63655934Y-112954700D01*
X63655932Y-112954699D01*
X63655934Y-112954699D01*
X63450000Y-112934417D01*
X63244067Y-112954699D01*
X63046043Y-113014769D01*
X62935898Y-113073643D01*
X62863550Y-113112315D01*
X62863548Y-113112316D01*
X62863547Y-113112317D01*
X62703589Y-113243589D01*
X62572317Y-113403547D01*
X62474769Y-113586043D01*
X62414699Y-113784067D01*
X62394417Y-113990000D01*
X62414699Y-114195932D01*
X62414700Y-114195934D01*
X62474768Y-114393954D01*
X62572315Y-114576450D01*
X62606969Y-114618677D01*
X62703589Y-114736410D01*
X62800209Y-114815702D01*
X62863550Y-114867685D01*
X63046046Y-114965232D01*
X63244066Y-115025300D01*
X63244065Y-115025300D01*
X63262529Y-115027118D01*
X63450000Y-115045583D01*
X63655934Y-115025300D01*
X63786581Y-114985668D01*
X63856447Y-114985046D01*
X63910256Y-115016649D01*
X64363181Y-115469574D01*
X64396666Y-115530897D01*
X64399500Y-115557255D01*
X64399500Y-116425500D01*
X64379815Y-116492539D01*
X64327011Y-116538294D01*
X64275500Y-116549500D01*
X62630247Y-116549500D01*
X62571770Y-116561131D01*
X62571769Y-116561132D01*
X62505447Y-116605447D01*
X62461132Y-116671769D01*
X62461131Y-116671770D01*
X62449500Y-116730247D01*
X62449500Y-118469752D01*
X62461131Y-118528229D01*
X62461132Y-118528230D01*
X62505447Y-118594552D01*
X62571769Y-118638867D01*
X62571770Y-118638868D01*
X62630247Y-118650499D01*
X62630250Y-118650500D01*
X64275500Y-118650500D01*
X64342539Y-118670185D01*
X64388294Y-118722989D01*
X64399500Y-118774500D01*
X64399500Y-120082745D01*
X64379815Y-120149784D01*
X64363181Y-120170426D01*
X63070426Y-121463181D01*
X63009103Y-121496666D01*
X62982745Y-121499500D01*
X56639806Y-121499500D01*
X56572767Y-121479815D01*
X56537756Y-121445940D01*
X56528183Y-121432071D01*
X56400849Y-121319263D01*
X56250226Y-121240210D01*
X56085056Y-121199500D01*
X55914944Y-121199500D01*
X55749773Y-121240210D01*
X55599150Y-121319263D01*
X55556727Y-121356848D01*
X55493494Y-121386569D01*
X55424230Y-121377385D01*
X55370927Y-121332213D01*
X55350507Y-121265394D01*
X55350500Y-121264032D01*
X55350500Y-119679387D01*
X55370185Y-119612348D01*
X55386819Y-119591706D01*
X56204025Y-118774500D01*
X57040510Y-117938015D01*
X57112984Y-117812485D01*
X57121738Y-117779815D01*
X57126624Y-117761583D01*
X57141164Y-117707316D01*
X57150500Y-117672475D01*
X57150500Y-117600000D01*
X59904417Y-117600000D01*
X59924699Y-117805932D01*
X59926687Y-117812485D01*
X59984768Y-118003954D01*
X60082315Y-118186450D01*
X60082317Y-118186452D01*
X60213589Y-118346410D01*
X60310209Y-118425702D01*
X60373550Y-118477685D01*
X60556046Y-118575232D01*
X60754066Y-118635300D01*
X60754065Y-118635300D01*
X60772529Y-118637118D01*
X60960000Y-118655583D01*
X61165934Y-118635300D01*
X61363954Y-118575232D01*
X61546450Y-118477685D01*
X61706410Y-118346410D01*
X61837685Y-118186450D01*
X61935232Y-118003954D01*
X61995300Y-117805934D01*
X62015583Y-117600000D01*
X61995300Y-117394066D01*
X61935232Y-117196046D01*
X61837685Y-117013550D01*
X61785702Y-116950209D01*
X61706410Y-116853589D01*
X61580794Y-116750500D01*
X61546450Y-116722315D01*
X61363954Y-116624768D01*
X61165934Y-116564700D01*
X61165932Y-116564699D01*
X61165934Y-116564699D01*
X60960000Y-116544417D01*
X60754067Y-116564699D01*
X60556043Y-116624769D01*
X60468114Y-116671769D01*
X60373550Y-116722315D01*
X60373548Y-116722316D01*
X60373547Y-116722317D01*
X60213589Y-116853589D01*
X60082317Y-117013547D01*
X59984769Y-117196043D01*
X59924699Y-117394067D01*
X59904417Y-117600000D01*
X57150500Y-117600000D01*
X57150500Y-113990000D01*
X59854417Y-113990000D01*
X59874699Y-114195932D01*
X59874700Y-114195934D01*
X59934768Y-114393954D01*
X60032315Y-114576450D01*
X60066969Y-114618677D01*
X60163589Y-114736410D01*
X60260209Y-114815702D01*
X60323550Y-114867685D01*
X60506046Y-114965232D01*
X60704066Y-115025300D01*
X60704065Y-115025300D01*
X60722529Y-115027118D01*
X60910000Y-115045583D01*
X61115934Y-115025300D01*
X61313954Y-114965232D01*
X61496450Y-114867685D01*
X61656410Y-114736410D01*
X61787685Y-114576450D01*
X61885232Y-114393954D01*
X61945300Y-114195934D01*
X61965583Y-113990000D01*
X61945300Y-113784066D01*
X61885232Y-113586046D01*
X61787685Y-113403550D01*
X61735702Y-113340209D01*
X61656410Y-113243589D01*
X61496452Y-113112317D01*
X61496453Y-113112317D01*
X61496450Y-113112315D01*
X61313954Y-113014768D01*
X61115934Y-112954700D01*
X61115932Y-112954699D01*
X61115934Y-112954699D01*
X60910000Y-112934417D01*
X60704067Y-112954699D01*
X60506043Y-113014769D01*
X60395898Y-113073643D01*
X60323550Y-113112315D01*
X60323548Y-113112316D01*
X60323547Y-113112317D01*
X60163589Y-113243589D01*
X60032317Y-113403547D01*
X59934769Y-113586043D01*
X59874699Y-113784067D01*
X59854417Y-113990000D01*
X57150500Y-113990000D01*
X57150500Y-112729386D01*
X57170185Y-112662347D01*
X57186819Y-112641705D01*
X57403294Y-112425230D01*
X57651282Y-112177241D01*
X57709284Y-112144528D01*
X57850225Y-112109790D01*
X57964556Y-112049784D01*
X58000849Y-112030736D01*
X58000850Y-112030734D01*
X58000852Y-112030734D01*
X58128183Y-111917929D01*
X58224818Y-111777930D01*
X58285140Y-111618872D01*
X58305645Y-111450000D01*
X59854417Y-111450000D01*
X59874699Y-111655932D01*
X59901425Y-111744037D01*
X59934768Y-111853954D01*
X60032315Y-112036450D01*
X60032317Y-112036452D01*
X60163589Y-112196410D01*
X60232213Y-112252727D01*
X60323550Y-112327685D01*
X60506046Y-112425232D01*
X60704066Y-112485300D01*
X60704065Y-112485300D01*
X60722529Y-112487118D01*
X60910000Y-112505583D01*
X61115934Y-112485300D01*
X61313954Y-112425232D01*
X61496450Y-112327685D01*
X61656410Y-112196410D01*
X61787685Y-112036450D01*
X61885232Y-111853954D01*
X61945300Y-111655934D01*
X61965583Y-111450000D01*
X62394417Y-111450000D01*
X62414699Y-111655932D01*
X62441425Y-111744037D01*
X62474768Y-111853954D01*
X62572315Y-112036450D01*
X62572317Y-112036452D01*
X62703589Y-112196410D01*
X62772213Y-112252727D01*
X62863550Y-112327685D01*
X63046046Y-112425232D01*
X63244066Y-112485300D01*
X63244065Y-112485300D01*
X63262529Y-112487118D01*
X63450000Y-112505583D01*
X63655934Y-112485300D01*
X63853954Y-112425232D01*
X64036450Y-112327685D01*
X64196410Y-112196410D01*
X64327685Y-112036450D01*
X64425232Y-111853954D01*
X64485300Y-111655934D01*
X64505583Y-111450000D01*
X64485300Y-111244066D01*
X64425232Y-111046046D01*
X64327685Y-110863550D01*
X64267497Y-110790210D01*
X64196410Y-110703589D01*
X64036452Y-110572317D01*
X64036453Y-110572317D01*
X64036450Y-110572315D01*
X63853954Y-110474768D01*
X63655934Y-110414700D01*
X63655932Y-110414699D01*
X63655934Y-110414699D01*
X63450000Y-110394417D01*
X63244067Y-110414699D01*
X63046043Y-110474769D01*
X62944577Y-110529005D01*
X62863550Y-110572315D01*
X62863548Y-110572316D01*
X62863547Y-110572317D01*
X62703589Y-110703589D01*
X62586550Y-110846204D01*
X62572315Y-110863550D01*
X62569260Y-110869266D01*
X62474769Y-111046043D01*
X62414699Y-111244067D01*
X62394417Y-111450000D01*
X61965583Y-111450000D01*
X61945300Y-111244066D01*
X61885232Y-111046046D01*
X61787685Y-110863550D01*
X61727497Y-110790210D01*
X61656410Y-110703589D01*
X61496452Y-110572317D01*
X61496453Y-110572317D01*
X61496450Y-110572315D01*
X61313954Y-110474768D01*
X61115934Y-110414700D01*
X61115932Y-110414699D01*
X61115934Y-110414699D01*
X60910000Y-110394417D01*
X60704067Y-110414699D01*
X60506043Y-110474769D01*
X60404577Y-110529005D01*
X60323550Y-110572315D01*
X60323548Y-110572316D01*
X60323547Y-110572317D01*
X60163589Y-110703589D01*
X60046550Y-110846204D01*
X60032315Y-110863550D01*
X60029260Y-110869266D01*
X59934769Y-111046043D01*
X59874699Y-111244067D01*
X59854417Y-111450000D01*
X58305645Y-111450000D01*
X58285140Y-111281128D01*
X58285138Y-111281124D01*
X58224817Y-111122068D01*
X58187447Y-111067929D01*
X58128183Y-110982071D01*
X58000852Y-110869266D01*
X58000849Y-110869263D01*
X57850226Y-110790210D01*
X57685056Y-110749500D01*
X57514944Y-110749500D01*
X57349773Y-110790210D01*
X57199150Y-110869263D01*
X57071816Y-110982072D01*
X56975182Y-111122068D01*
X56975182Y-111122069D01*
X56914860Y-111281124D01*
X56914859Y-111281129D01*
X56909584Y-111324573D01*
X56881961Y-111388750D01*
X56874169Y-111397305D01*
X56159491Y-112111983D01*
X56159487Y-112111988D01*
X56088983Y-112234105D01*
X56088984Y-112234106D01*
X56087017Y-112237512D01*
X56087016Y-112237513D01*
X56071344Y-112296002D01*
X56049500Y-112377525D01*
X56049500Y-112377527D01*
X56049500Y-117320613D01*
X56029815Y-117387652D01*
X56013181Y-117408294D01*
X54359491Y-119061983D01*
X54359489Y-119061986D01*
X54303024Y-119159789D01*
X54303023Y-119159790D01*
X54287017Y-119187512D01*
X54287016Y-119187513D01*
X54279589Y-119215232D01*
X54249500Y-119327525D01*
X54249500Y-119327527D01*
X54249500Y-120254925D01*
X54229815Y-120321964D01*
X54177011Y-120367719D01*
X54107853Y-120377663D01*
X54044297Y-120348638D01*
X54032685Y-120337153D01*
X54028183Y-120332071D01*
X53900849Y-120219263D01*
X53750226Y-120140210D01*
X53585056Y-120099500D01*
X53417255Y-120099500D01*
X53350216Y-120079815D01*
X53329574Y-120063181D01*
X53245915Y-119979522D01*
X53245913Y-119979520D01*
X53178400Y-119940541D01*
X53154589Y-119926793D01*
X53063240Y-119902317D01*
X53052727Y-119899500D01*
X53052726Y-119899500D01*
X49677255Y-119899500D01*
X49610216Y-119879815D01*
X49589574Y-119863181D01*
X48426649Y-118700256D01*
X48393164Y-118638933D01*
X48395669Y-118576580D01*
X48408727Y-118533533D01*
X48435300Y-118445934D01*
X48455583Y-118240000D01*
X48435300Y-118034066D01*
X48375232Y-117836046D01*
X48277685Y-117653550D01*
X48175088Y-117528534D01*
X48146410Y-117493589D01*
X48017323Y-117387652D01*
X47986450Y-117362315D01*
X47803954Y-117264768D01*
X47605934Y-117204700D01*
X47605932Y-117204699D01*
X47605934Y-117204699D01*
X47400000Y-117184417D01*
X47194067Y-117204699D01*
X46996043Y-117264769D01*
X46891568Y-117320613D01*
X46813550Y-117362315D01*
X46813548Y-117362316D01*
X46813547Y-117362317D01*
X46653589Y-117493589D01*
X46526538Y-117648404D01*
X46522315Y-117653550D01*
X46493578Y-117707313D01*
X46424769Y-117836043D01*
X46364699Y-118034067D01*
X46344417Y-118240000D01*
X46364699Y-118445932D01*
X46381849Y-118502468D01*
X46424768Y-118643954D01*
X46522315Y-118826450D01*
X46556969Y-118868677D01*
X46653589Y-118986410D01*
X46745679Y-119061985D01*
X46813550Y-119117685D01*
X46996046Y-119215232D01*
X47194066Y-119275300D01*
X47194065Y-119275300D01*
X47212529Y-119277118D01*
X47400000Y-119295583D01*
X47605934Y-119275300D01*
X47736581Y-119235668D01*
X47806447Y-119235046D01*
X47860256Y-119266649D01*
X49214087Y-120620480D01*
X49305412Y-120673207D01*
X49407273Y-120700500D01*
X51652811Y-120700500D01*
X51719850Y-120720185D01*
X51765605Y-120772989D01*
X51775549Y-120842147D01*
X51765605Y-120876011D01*
X51739750Y-120932624D01*
X51739748Y-120932631D01*
X51735340Y-120963290D01*
X51706314Y-121026845D01*
X51700283Y-121033322D01*
X51140426Y-121593181D01*
X51079103Y-121626666D01*
X51052745Y-121629500D01*
X48323982Y-121629500D01*
X48256943Y-121609815D01*
X48211188Y-121557011D01*
X48201244Y-121487853D01*
X48228129Y-121426835D01*
X48268711Y-121377385D01*
X48277685Y-121366450D01*
X48375232Y-121183954D01*
X48435300Y-120985934D01*
X48455583Y-120780000D01*
X48435300Y-120574066D01*
X48375232Y-120376046D01*
X48277685Y-120193550D01*
X48225702Y-120130209D01*
X48146410Y-120033589D01*
X48008225Y-119920185D01*
X47986450Y-119902315D01*
X47803954Y-119804768D01*
X47605934Y-119744700D01*
X47605932Y-119744699D01*
X47605934Y-119744699D01*
X47400000Y-119724417D01*
X47194067Y-119744699D01*
X47113837Y-119769036D01*
X47063418Y-119784331D01*
X46993553Y-119784954D01*
X46939744Y-119753351D01*
X46365915Y-119179522D01*
X46365913Y-119179520D01*
X46320250Y-119153156D01*
X46274589Y-119126793D01*
X46223657Y-119113146D01*
X46172727Y-119099500D01*
X46172726Y-119099500D01*
X45775775Y-119099500D01*
X45708736Y-119079815D01*
X45662981Y-119027011D01*
X45653037Y-118957853D01*
X45679922Y-118896835D01*
X45691422Y-118882820D01*
X45737685Y-118826450D01*
X45835232Y-118643954D01*
X45895300Y-118445934D01*
X45915583Y-118240000D01*
X45895300Y-118034066D01*
X45835232Y-117836046D01*
X45737685Y-117653550D01*
X45635088Y-117528534D01*
X45606410Y-117493589D01*
X45477323Y-117387652D01*
X45446450Y-117362315D01*
X45263954Y-117264768D01*
X45065934Y-117204700D01*
X45065932Y-117204699D01*
X45065934Y-117204699D01*
X44860000Y-117184417D01*
X44654067Y-117204699D01*
X44456043Y-117264769D01*
X44351568Y-117320613D01*
X44273550Y-117362315D01*
X44273548Y-117362316D01*
X44273547Y-117362317D01*
X44113589Y-117493590D01*
X44020353Y-117607199D01*
X43962608Y-117646533D01*
X43892763Y-117648404D01*
X43832995Y-117612217D01*
X43802279Y-117549461D01*
X43800500Y-117528534D01*
X43800500Y-116863850D01*
X43820185Y-116796811D01*
X43872989Y-116751056D01*
X43942147Y-116741112D01*
X43948678Y-116742230D01*
X43976337Y-116747732D01*
X43990251Y-116750500D01*
X43990252Y-116750500D01*
X45729750Y-116750500D01*
X45729751Y-116750499D01*
X45744568Y-116747552D01*
X45788229Y-116738868D01*
X45788229Y-116738867D01*
X45788231Y-116738867D01*
X45854552Y-116694552D01*
X45898867Y-116628231D01*
X45898867Y-116628229D01*
X45898868Y-116628229D01*
X45910499Y-116569752D01*
X45910500Y-116569750D01*
X45910500Y-115700000D01*
X46344417Y-115700000D01*
X46364699Y-115905932D01*
X46364700Y-115905934D01*
X46424768Y-116103954D01*
X46522315Y-116286450D01*
X46522317Y-116286452D01*
X46653589Y-116446410D01*
X46750209Y-116525702D01*
X46813550Y-116577685D01*
X46996046Y-116675232D01*
X47194066Y-116735300D01*
X47194065Y-116735300D01*
X47212529Y-116737118D01*
X47400000Y-116755583D01*
X47605934Y-116735300D01*
X47803954Y-116675232D01*
X47986450Y-116577685D01*
X48146410Y-116446410D01*
X48277685Y-116286450D01*
X48375232Y-116103954D01*
X48435300Y-115905934D01*
X48455583Y-115700000D01*
X48435300Y-115494066D01*
X48375232Y-115296046D01*
X48277685Y-115113550D01*
X48198161Y-115016649D01*
X48146410Y-114953589D01*
X47996121Y-114830252D01*
X47986450Y-114822315D01*
X47803954Y-114724768D01*
X47605934Y-114664700D01*
X47605932Y-114664699D01*
X47605934Y-114664699D01*
X47400000Y-114644417D01*
X47194067Y-114664699D01*
X46996043Y-114724769D01*
X46908114Y-114771769D01*
X46813550Y-114822315D01*
X46813548Y-114822316D01*
X46813547Y-114822317D01*
X46653589Y-114953589D01*
X46522317Y-115113547D01*
X46424769Y-115296043D01*
X46364699Y-115494067D01*
X46344417Y-115700000D01*
X45910500Y-115700000D01*
X45910500Y-114830249D01*
X45910499Y-114830247D01*
X45898868Y-114771770D01*
X45898867Y-114771769D01*
X45854552Y-114705447D01*
X45788230Y-114661132D01*
X45788229Y-114661131D01*
X45729752Y-114649500D01*
X45729748Y-114649500D01*
X44016255Y-114649500D01*
X43949216Y-114629815D01*
X43903461Y-114577011D01*
X43893517Y-114507853D01*
X43922542Y-114444297D01*
X43928574Y-114437819D01*
X44780350Y-113586043D01*
X45920480Y-112445913D01*
X45973207Y-112354588D01*
X46000500Y-112252727D01*
X46000500Y-112147273D01*
X46000500Y-111836853D01*
X46020185Y-111769814D01*
X46042268Y-111744042D01*
X46128183Y-111667929D01*
X46224818Y-111527930D01*
X46285140Y-111368872D01*
X46305645Y-111200000D01*
X46290008Y-111071223D01*
X46301468Y-111002304D01*
X46348371Y-110950518D01*
X46415827Y-110932310D01*
X46482418Y-110953462D01*
X46515153Y-110985839D01*
X46571815Y-111067927D01*
X46699150Y-111180736D01*
X46849773Y-111259789D01*
X46849775Y-111259790D01*
X47014944Y-111300500D01*
X47185056Y-111300500D01*
X47350225Y-111259790D01*
X47464144Y-111200000D01*
X47500849Y-111180736D01*
X47500850Y-111180734D01*
X47500852Y-111180734D01*
X47628183Y-111067929D01*
X47724818Y-110927930D01*
X47785140Y-110768872D01*
X47792451Y-110708653D01*
X47820072Y-110644478D01*
X47878006Y-110605420D01*
X47947858Y-110603885D01*
X48007453Y-110640358D01*
X48017597Y-110653161D01*
X48101078Y-110774103D01*
X48098807Y-110775670D01*
X48123034Y-110827190D01*
X48124500Y-110846204D01*
X48124500Y-111159108D01*
X48124500Y-111290892D01*
X48133525Y-111324573D01*
X48158608Y-111418187D01*
X48176976Y-111450000D01*
X48224500Y-111532314D01*
X48224502Y-111532316D01*
X48926865Y-112234679D01*
X48960350Y-112296002D01*
X48955366Y-112365694D01*
X48946572Y-112384358D01*
X48933610Y-112406809D01*
X48933608Y-112406814D01*
X48899500Y-112534108D01*
X48899500Y-117465891D01*
X48933608Y-117593187D01*
X48964408Y-117646533D01*
X48999500Y-117707314D01*
X48999502Y-117707316D01*
X49764396Y-118472210D01*
X49797881Y-118533533D01*
X49799811Y-118544943D01*
X49814859Y-118668870D01*
X49814860Y-118668875D01*
X49875182Y-118827930D01*
X49875182Y-118827931D01*
X49918912Y-118891284D01*
X49971817Y-118967929D01*
X50077505Y-119061560D01*
X50099150Y-119080736D01*
X50249773Y-119159789D01*
X50249775Y-119159790D01*
X50414944Y-119200500D01*
X50585056Y-119200500D01*
X50750225Y-119159790D01*
X50865097Y-119099500D01*
X50900849Y-119080736D01*
X50900850Y-119080734D01*
X50900852Y-119080734D01*
X51028183Y-118967929D01*
X51124818Y-118827930D01*
X51185140Y-118668872D01*
X51205645Y-118500000D01*
X51185140Y-118331128D01*
X51124818Y-118172070D01*
X51028183Y-118032071D01*
X50933316Y-117948026D01*
X50900849Y-117919263D01*
X50750226Y-117840210D01*
X50585056Y-117799500D01*
X50558676Y-117799500D01*
X50491637Y-117779815D01*
X50470995Y-117763181D01*
X49936819Y-117229005D01*
X49903334Y-117167682D01*
X49900500Y-117141324D01*
X49900500Y-112924500D01*
X49920185Y-112857461D01*
X49972989Y-112811706D01*
X50024500Y-112800500D01*
X52865890Y-112800500D01*
X52865892Y-112800500D01*
X52993186Y-112766392D01*
X53107314Y-112700500D01*
X54800500Y-111007314D01*
X54866392Y-110893186D01*
X54900500Y-110765892D01*
X54900500Y-110634107D01*
X54900500Y-108015205D01*
X59760000Y-108015205D01*
X59760000Y-108660000D01*
X60476988Y-108660000D01*
X60444075Y-108717007D01*
X60410000Y-108844174D01*
X60410000Y-108975826D01*
X60444075Y-109102993D01*
X60476988Y-109160000D01*
X59760001Y-109160000D01*
X59760001Y-109804785D01*
X59760002Y-109804808D01*
X59762908Y-109829869D01*
X59762909Y-109829873D01*
X59808211Y-109932474D01*
X59808214Y-109932479D01*
X59887520Y-110011785D01*
X59887525Y-110011788D01*
X59990123Y-110057089D01*
X60015206Y-110059999D01*
X60659999Y-110059999D01*
X60660000Y-110059998D01*
X60660000Y-109343012D01*
X60717007Y-109375925D01*
X60844174Y-109410000D01*
X60975826Y-109410000D01*
X61102993Y-109375925D01*
X61160000Y-109343012D01*
X61160000Y-110059999D01*
X61804786Y-110059999D01*
X61804808Y-110059997D01*
X61829869Y-110057091D01*
X61829873Y-110057090D01*
X61932474Y-110011788D01*
X61932479Y-110011785D01*
X62011785Y-109932479D01*
X62011788Y-109932474D01*
X62057089Y-109829877D01*
X62057089Y-109829875D01*
X62059999Y-109804794D01*
X62060000Y-109804791D01*
X62060000Y-109160000D01*
X61343012Y-109160000D01*
X61375925Y-109102993D01*
X61410000Y-108975826D01*
X61410000Y-108910000D01*
X62394417Y-108910000D01*
X62414699Y-109115932D01*
X62414700Y-109115934D01*
X62474768Y-109313954D01*
X62572315Y-109496450D01*
X62572317Y-109496452D01*
X62703589Y-109656410D01*
X62780177Y-109719263D01*
X62863550Y-109787685D01*
X63046046Y-109885232D01*
X63244066Y-109945300D01*
X63244065Y-109945300D01*
X63262529Y-109947118D01*
X63450000Y-109965583D01*
X63655934Y-109945300D01*
X63853954Y-109885232D01*
X64036450Y-109787685D01*
X64196410Y-109656410D01*
X64327685Y-109496450D01*
X64425232Y-109313954D01*
X64485300Y-109115934D01*
X64505583Y-108910000D01*
X64485300Y-108704066D01*
X64425232Y-108506046D01*
X64327685Y-108323550D01*
X64275702Y-108260209D01*
X64196410Y-108163589D01*
X64036452Y-108032317D01*
X64036453Y-108032317D01*
X64036450Y-108032315D01*
X63853954Y-107934768D01*
X63655934Y-107874700D01*
X63655932Y-107874699D01*
X63655934Y-107874699D01*
X63450000Y-107854417D01*
X63244067Y-107874699D01*
X63046043Y-107934769D01*
X62942487Y-107990122D01*
X62863550Y-108032315D01*
X62863548Y-108032316D01*
X62863547Y-108032317D01*
X62703589Y-108163589D01*
X62572317Y-108323547D01*
X62474769Y-108506043D01*
X62414699Y-108704067D01*
X62394417Y-108910000D01*
X61410000Y-108910000D01*
X61410000Y-108844174D01*
X61375925Y-108717007D01*
X61343012Y-108660000D01*
X62059999Y-108660000D01*
X62059999Y-108015214D01*
X62059997Y-108015191D01*
X62057091Y-107990130D01*
X62057090Y-107990126D01*
X62011788Y-107887525D01*
X62011785Y-107887520D01*
X61932479Y-107808214D01*
X61932474Y-107808211D01*
X61829876Y-107762910D01*
X61804794Y-107760000D01*
X61160000Y-107760000D01*
X61160000Y-108476988D01*
X61102993Y-108444075D01*
X60975826Y-108410000D01*
X60844174Y-108410000D01*
X60717007Y-108444075D01*
X60660000Y-108476988D01*
X60660000Y-107760000D01*
X60015214Y-107760000D01*
X60015191Y-107760002D01*
X59990130Y-107762908D01*
X59990126Y-107762909D01*
X59887525Y-107808211D01*
X59887520Y-107808214D01*
X59808214Y-107887520D01*
X59808211Y-107887525D01*
X59762910Y-107990122D01*
X59762910Y-107990124D01*
X59760000Y-108015205D01*
X54900500Y-108015205D01*
X54900500Y-106746204D01*
X54920185Y-106679165D01*
X54923985Y-106674146D01*
X54923922Y-106674103D01*
X54956828Y-106626428D01*
X55024818Y-106527930D01*
X55085140Y-106368872D01*
X55105645Y-106200000D01*
X55085140Y-106031128D01*
X55024818Y-105872070D01*
X55024817Y-105872068D01*
X55024816Y-105872066D01*
X54978298Y-105804675D01*
X54956414Y-105738321D01*
X54973879Y-105670669D01*
X55025146Y-105623199D01*
X55093939Y-105610981D01*
X55158417Y-105637896D01*
X55168028Y-105646553D01*
X55540345Y-106018869D01*
X55811986Y-106290510D01*
X55937515Y-106362984D01*
X56077525Y-106400500D01*
X56077526Y-106400500D01*
X56222474Y-106400500D01*
X60667994Y-106400500D01*
X60735033Y-106420185D01*
X60747074Y-106429302D01*
X60749154Y-106430738D01*
X60899773Y-106509789D01*
X60899775Y-106509790D01*
X61064944Y-106550500D01*
X61235056Y-106550500D01*
X61400225Y-106509790D01*
X61479692Y-106468081D01*
X61550849Y-106430736D01*
X61550850Y-106430734D01*
X61550852Y-106430734D01*
X61678183Y-106317929D01*
X61774818Y-106177930D01*
X61835140Y-106018872D01*
X61855645Y-105850000D01*
X61835140Y-105681128D01*
X61831173Y-105670669D01*
X61806473Y-105605538D01*
X61774818Y-105522070D01*
X61678183Y-105382071D01*
X61583316Y-105298026D01*
X61550849Y-105269263D01*
X61400226Y-105190210D01*
X61235056Y-105149500D01*
X61064944Y-105149500D01*
X60899773Y-105190210D01*
X60749154Y-105269261D01*
X60742980Y-105273524D01*
X60742039Y-105272160D01*
X60686989Y-105298037D01*
X60667994Y-105299500D01*
X56429386Y-105299500D01*
X56362347Y-105279815D01*
X56341705Y-105263181D01*
X55586819Y-104508294D01*
X55553334Y-104446971D01*
X55550500Y-104420613D01*
X55550500Y-94265954D01*
X55554725Y-94233863D01*
X55559579Y-94215744D01*
X55575690Y-94155616D01*
X55607781Y-94100030D01*
X56197104Y-93510708D01*
X56197109Y-93510704D01*
X56207312Y-93500500D01*
X56207314Y-93500500D01*
X56300500Y-93407314D01*
X56366392Y-93293186D01*
X56400500Y-93165892D01*
X56400500Y-89446204D01*
X56420185Y-89379165D01*
X56423985Y-89374146D01*
X56423922Y-89374103D01*
X56492395Y-89274902D01*
X56524818Y-89227930D01*
X56585140Y-89068872D01*
X56605645Y-88900000D01*
X56585140Y-88731128D01*
X56524818Y-88572070D01*
X56428183Y-88432071D01*
X56300852Y-88319266D01*
X56300849Y-88319263D01*
X56150226Y-88240210D01*
X55985056Y-88199500D01*
X55814944Y-88199500D01*
X55649773Y-88240210D01*
X55499150Y-88319263D01*
X55371816Y-88432072D01*
X55275182Y-88572068D01*
X55214860Y-88731125D01*
X55214859Y-88731130D01*
X55194355Y-88900000D01*
X55214859Y-89068869D01*
X55214860Y-89068874D01*
X55275182Y-89227931D01*
X55376078Y-89374103D01*
X55373807Y-89375670D01*
X55398034Y-89427190D01*
X55399500Y-89446204D01*
X55399500Y-92841323D01*
X55379815Y-92908362D01*
X55363181Y-92929004D01*
X54599502Y-93692682D01*
X54594556Y-93699129D01*
X54594046Y-93698738D01*
X54582274Y-93714075D01*
X54559490Y-93736860D01*
X54559489Y-93736862D01*
X54519103Y-93806814D01*
X54504955Y-93831318D01*
X54487017Y-93862388D01*
X54487016Y-93862389D01*
X54468258Y-93932396D01*
X54449500Y-94002401D01*
X54449500Y-104627526D01*
X54449500Y-104772474D01*
X54487016Y-104912485D01*
X54559489Y-105038013D01*
X54559491Y-105038016D01*
X54940065Y-105418590D01*
X54973550Y-105479913D01*
X54968566Y-105549605D01*
X54926694Y-105605538D01*
X54861230Y-105629955D01*
X54794758Y-105616067D01*
X54650226Y-105540210D01*
X54485056Y-105499500D01*
X54314944Y-105499500D01*
X54149773Y-105540210D01*
X53999150Y-105619263D01*
X53871816Y-105732072D01*
X53775182Y-105872068D01*
X53714860Y-106031125D01*
X53714859Y-106031130D01*
X53694355Y-106200000D01*
X53714859Y-106368869D01*
X53714860Y-106368874D01*
X53775182Y-106527931D01*
X53876078Y-106674103D01*
X53873807Y-106675670D01*
X53898034Y-106727190D01*
X53899500Y-106746204D01*
X53899500Y-110441324D01*
X53879815Y-110508363D01*
X53863181Y-110529005D01*
X52629005Y-111763181D01*
X52567682Y-111796666D01*
X52541324Y-111799500D01*
X49958676Y-111799500D01*
X49891637Y-111779815D01*
X49870995Y-111763181D01*
X49161819Y-111054005D01*
X49128334Y-110992682D01*
X49125500Y-110966324D01*
X49125500Y-110846204D01*
X49145185Y-110779165D01*
X49148985Y-110774146D01*
X49148922Y-110774103D01*
X49197594Y-110703589D01*
X49249818Y-110627930D01*
X49310140Y-110468872D01*
X49330645Y-110300000D01*
X49310140Y-110131128D01*
X49249818Y-109972070D01*
X49245340Y-109965583D01*
X49197231Y-109895885D01*
X49153183Y-109832071D01*
X49025852Y-109719266D01*
X49025849Y-109719263D01*
X48875226Y-109640210D01*
X48710056Y-109599500D01*
X48539944Y-109599500D01*
X48374773Y-109640210D01*
X48224150Y-109719263D01*
X48096816Y-109832072D01*
X48000182Y-109972068D01*
X47939860Y-110131125D01*
X47939859Y-110131131D01*
X47932548Y-110191345D01*
X47904926Y-110255523D01*
X47846991Y-110294579D01*
X47777139Y-110296114D01*
X47717545Y-110259639D01*
X47707402Y-110246839D01*
X47628183Y-110132071D01*
X47500852Y-110019266D01*
X47500849Y-110019263D01*
X47350226Y-109940210D01*
X47303126Y-109928601D01*
X47245120Y-109895885D01*
X44186819Y-106837584D01*
X44153334Y-106776261D01*
X44150500Y-106749903D01*
X44150500Y-92714230D01*
X44170185Y-92647191D01*
X44222989Y-92601436D01*
X44292147Y-92591492D01*
X44339778Y-92608803D01*
X44485206Y-92698848D01*
X44485207Y-92698849D01*
X44683941Y-92775838D01*
X44750000Y-92788186D01*
X44750000Y-92098012D01*
X44807007Y-92130925D01*
X44934174Y-92165000D01*
X45065826Y-92165000D01*
X45192993Y-92130925D01*
X45250000Y-92098012D01*
X45250000Y-92788185D01*
X45316058Y-92775838D01*
X45514792Y-92698849D01*
X45514798Y-92698846D01*
X45695997Y-92586653D01*
X45695999Y-92586651D01*
X45853499Y-92443071D01*
X45981938Y-92272991D01*
X46076932Y-92082218D01*
X46076937Y-92082205D01*
X46124512Y-91915000D01*
X45433012Y-91915000D01*
X45465925Y-91857993D01*
X45500000Y-91730826D01*
X45500000Y-91599174D01*
X45465925Y-91472007D01*
X45433012Y-91415000D01*
X46124512Y-91415000D01*
X46124512Y-91414999D01*
X46076937Y-91247794D01*
X46076932Y-91247781D01*
X45981938Y-91057008D01*
X45853499Y-90886928D01*
X45695999Y-90743348D01*
X45695997Y-90743346D01*
X45514798Y-90631153D01*
X45514789Y-90631149D01*
X45316063Y-90554163D01*
X45316058Y-90554162D01*
X45250000Y-90541813D01*
X45250000Y-91231988D01*
X45192993Y-91199075D01*
X45065826Y-91165000D01*
X44934174Y-91165000D01*
X44807007Y-91199075D01*
X44750000Y-91231988D01*
X44750000Y-90541812D01*
X44748806Y-90540821D01*
X44683508Y-90534217D01*
X44628829Y-90490719D01*
X44606347Y-90424565D01*
X44623200Y-90356759D01*
X44642551Y-90331684D01*
X44762419Y-90211816D01*
X44823740Y-90178334D01*
X44850098Y-90175500D01*
X45869750Y-90175500D01*
X45869751Y-90175499D01*
X45884568Y-90172552D01*
X45928229Y-90163868D01*
X45928229Y-90163867D01*
X45928231Y-90163867D01*
X45994552Y-90119552D01*
X46038867Y-90053231D01*
X46038867Y-90053229D01*
X46038868Y-90053229D01*
X46050499Y-89994752D01*
X46050500Y-89994750D01*
X46050500Y-88255249D01*
X46050499Y-88255247D01*
X46038868Y-88196770D01*
X46038867Y-88196769D01*
X45994552Y-88130447D01*
X45928230Y-88086132D01*
X45928229Y-88086131D01*
X45869752Y-88074500D01*
X45869748Y-88074500D01*
X44130252Y-88074500D01*
X44130247Y-88074500D01*
X44071770Y-88086131D01*
X44071769Y-88086132D01*
X44005447Y-88130447D01*
X43961132Y-88196769D01*
X43961131Y-88196770D01*
X43949500Y-88255247D01*
X43949500Y-89274902D01*
X43929815Y-89341941D01*
X43913181Y-89362583D01*
X43212181Y-90063583D01*
X43150858Y-90097068D01*
X43081166Y-90092084D01*
X43025233Y-90050212D01*
X43000816Y-89984748D01*
X43000500Y-89975902D01*
X43000500Y-87824500D01*
X43020185Y-87757461D01*
X43072989Y-87711706D01*
X43124500Y-87700500D01*
X66875500Y-87700500D01*
X66942539Y-87720185D01*
G37*
%TD.AperFunction*%
%TA.AperFunction,Conductor*%
G36*
X43205703Y-107555384D02*
G01*
X43212181Y-107561416D01*
X45991250Y-110340485D01*
X46024735Y-110401808D01*
X46019751Y-110471500D01*
X45977879Y-110527433D01*
X45912415Y-110551850D01*
X45858131Y-110540509D01*
X45857237Y-110542869D01*
X45850227Y-110540210D01*
X45685056Y-110499500D01*
X45514944Y-110499500D01*
X45349773Y-110540210D01*
X45199150Y-110619263D01*
X45071816Y-110732072D01*
X44975182Y-110872068D01*
X44914860Y-111031125D01*
X44914859Y-111031130D01*
X44894355Y-111200000D01*
X44914859Y-111368869D01*
X44914860Y-111368874D01*
X44975182Y-111527931D01*
X44978209Y-111532316D01*
X45071817Y-111667929D01*
X45157728Y-111744040D01*
X45194853Y-111803226D01*
X45199500Y-111836853D01*
X45199500Y-111982745D01*
X45179815Y-112049784D01*
X45163181Y-112070426D01*
X43212181Y-114021426D01*
X43150858Y-114054911D01*
X43081166Y-114049927D01*
X43025233Y-114008055D01*
X43000816Y-113942591D01*
X43000500Y-113933745D01*
X43000500Y-107649097D01*
X43020185Y-107582058D01*
X43072989Y-107536303D01*
X43142147Y-107526359D01*
X43205703Y-107555384D01*
G37*
%TD.AperFunction*%
%TD*%
M02*
