%TF.GenerationSoftware,KiCad,Pcbnew,8.0.9-8.0.9-0~ubuntu24.04.1*%
%TF.CreationDate,2025-04-13T18:37:50+02:00*%
%TF.ProjectId,FastLapLights5V,46617374-4c61-4704-9c69-676874733556,MK4*%
%TF.SameCoordinates,Original*%
%TF.FileFunction,Legend,Bot*%
%TF.FilePolarity,Positive*%
%FSLAX46Y46*%
G04 Gerber Fmt 4.6, Leading zero omitted, Abs format (unit mm)*
G04 Created by KiCad (PCBNEW 8.0.9-8.0.9-0~ubuntu24.04.1) date 2025-04-13 18:37:50*
%MOMM*%
%LPD*%
G01*
G04 APERTURE LIST*
%ADD10C,0.150000*%
%ADD11C,0.120000*%
G04 APERTURE END LIST*
D10*
X62883333Y-122454819D02*
X62883333Y-123169104D01*
X62883333Y-123169104D02*
X62930952Y-123311961D01*
X62930952Y-123311961D02*
X63026190Y-123407200D01*
X63026190Y-123407200D02*
X63169047Y-123454819D01*
X63169047Y-123454819D02*
X63264285Y-123454819D01*
X62407142Y-123454819D02*
X62407142Y-122454819D01*
X62407142Y-122454819D02*
X62026190Y-122454819D01*
X62026190Y-122454819D02*
X61930952Y-122502438D01*
X61930952Y-122502438D02*
X61883333Y-122550057D01*
X61883333Y-122550057D02*
X61835714Y-122645295D01*
X61835714Y-122645295D02*
X61835714Y-122788152D01*
X61835714Y-122788152D02*
X61883333Y-122883390D01*
X61883333Y-122883390D02*
X61930952Y-122931009D01*
X61930952Y-122931009D02*
X62026190Y-122978628D01*
X62026190Y-122978628D02*
X62407142Y-122978628D01*
X60883333Y-123454819D02*
X61454761Y-123454819D01*
X61169047Y-123454819D02*
X61169047Y-122454819D01*
X61169047Y-122454819D02*
X61264285Y-122597676D01*
X61264285Y-122597676D02*
X61359523Y-122692914D01*
X61359523Y-122692914D02*
X61454761Y-122740533D01*
D11*
%TO.C,JP1*%
X60700000Y-125200000D02*
X60700000Y-124600000D01*
X61400000Y-123900000D02*
X62800000Y-123900000D01*
X62800000Y-125900000D02*
X61400000Y-125900000D01*
X63500000Y-124600000D02*
X63500000Y-125200000D01*
X60700000Y-124600000D02*
G75*
G02*
X61400000Y-123900000I700000J0D01*
G01*
X61400000Y-125900000D02*
G75*
G02*
X60700000Y-125200000I0J700000D01*
G01*
X62800000Y-123900000D02*
G75*
G02*
X63500000Y-124600000I1J-699999D01*
G01*
X63500000Y-125200000D02*
G75*
G02*
X62800000Y-125900000I-699999J-1D01*
G01*
%TD*%
M02*
