%TF.GenerationSoftware,KiCad,Pcbnew,8.0.9-8.0.9-0~ubuntu24.04.1*%
%TF.CreationDate,2025-04-13T18:37:49+02:00*%
%TF.ProjectId,FastLapLights5V,46617374-4c61-4704-9c69-676874733556,MK4*%
%TF.SameCoordinates,Original*%
%TF.FileFunction,Copper,L1,Top*%
%TF.FilePolarity,Positive*%
%FSLAX46Y46*%
G04 Gerber Fmt 4.6, Leading zero omitted, Abs format (unit mm)*
G04 Created by KiCad (PCBNEW 8.0.9-8.0.9-0~ubuntu24.04.1) date 2025-04-13 18:37:49*
%MOMM*%
%LPD*%
G01*
G04 APERTURE LIST*
G04 Aperture macros list*
%AMRoundRect*
0 Rectangle with rounded corners*
0 $1 Rounding radius*
0 $2 $3 $4 $5 $6 $7 $8 $9 X,Y pos of 4 corners*
0 Add a 4 corners polygon primitive as box body*
4,1,4,$2,$3,$4,$5,$6,$7,$8,$9,$2,$3,0*
0 Add four circle primitives for the rounded corners*
1,1,$1+$1,$2,$3*
1,1,$1+$1,$4,$5*
1,1,$1+$1,$6,$7*
1,1,$1+$1,$8,$9*
0 Add four rect primitives between the rounded corners*
20,1,$1+$1,$2,$3,$4,$5,0*
20,1,$1+$1,$4,$5,$6,$7,0*
20,1,$1+$1,$6,$7,$8,$9,0*
20,1,$1+$1,$8,$9,$2,$3,0*%
G04 Aperture macros list end*
%TA.AperFunction,ComponentPad*%
%ADD10R,1.700000X1.700000*%
%TD*%
%TA.AperFunction,ComponentPad*%
%ADD11O,1.700000X1.700000*%
%TD*%
%TA.AperFunction,SMDPad,CuDef*%
%ADD12RoundRect,0.225000X-0.250000X0.225000X-0.250000X-0.225000X0.250000X-0.225000X0.250000X0.225000X0*%
%TD*%
%TA.AperFunction,SMDPad,CuDef*%
%ADD13RoundRect,0.250000X-0.250000X-0.475000X0.250000X-0.475000X0.250000X0.475000X-0.250000X0.475000X0*%
%TD*%
%TA.AperFunction,SMDPad,CuDef*%
%ADD14RoundRect,0.150000X-0.512500X-0.150000X0.512500X-0.150000X0.512500X0.150000X-0.512500X0.150000X0*%
%TD*%
%TA.AperFunction,SMDPad,CuDef*%
%ADD15RoundRect,0.225000X-0.225000X-0.250000X0.225000X-0.250000X0.225000X0.250000X-0.225000X0.250000X0*%
%TD*%
%TA.AperFunction,SMDPad,CuDef*%
%ADD16RoundRect,0.250000X-0.850000X-0.350000X0.850000X-0.350000X0.850000X0.350000X-0.850000X0.350000X0*%
%TD*%
%TA.AperFunction,SMDPad,CuDef*%
%ADD17RoundRect,0.250000X-1.275000X-1.125000X1.275000X-1.125000X1.275000X1.125000X-1.275000X1.125000X0*%
%TD*%
%TA.AperFunction,SMDPad,CuDef*%
%ADD18RoundRect,0.249997X-2.950003X-2.650003X2.950003X-2.650003X2.950003X2.650003X-2.950003X2.650003X0*%
%TD*%
%TA.AperFunction,SMDPad,CuDef*%
%ADD19RoundRect,0.250000X-0.475000X0.250000X-0.475000X-0.250000X0.475000X-0.250000X0.475000X0.250000X0*%
%TD*%
%TA.AperFunction,SMDPad,CuDef*%
%ADD20RoundRect,0.225000X0.250000X-0.225000X0.250000X0.225000X-0.250000X0.225000X-0.250000X-0.225000X0*%
%TD*%
%TA.AperFunction,SMDPad,CuDef*%
%ADD21RoundRect,0.150000X0.150000X-0.512500X0.150000X0.512500X-0.150000X0.512500X-0.150000X-0.512500X0*%
%TD*%
%TA.AperFunction,SMDPad,CuDef*%
%ADD22RoundRect,0.200000X-0.275000X0.200000X-0.275000X-0.200000X0.275000X-0.200000X0.275000X0.200000X0*%
%TD*%
%TA.AperFunction,SMDPad,CuDef*%
%ADD23RoundRect,0.125000X-0.500000X0.125000X-0.500000X-0.125000X0.500000X-0.125000X0.500000X0.125000X0*%
%TD*%
%TA.AperFunction,SMDPad,CuDef*%
%ADD24RoundRect,0.220000X-0.880000X1.880000X-0.880000X-1.880000X0.880000X-1.880000X0.880000X1.880000X0*%
%TD*%
%TA.AperFunction,SMDPad,CuDef*%
%ADD25RoundRect,0.225000X0.225000X0.250000X-0.225000X0.250000X-0.225000X-0.250000X0.225000X-0.250000X0*%
%TD*%
%TA.AperFunction,SMDPad,CuDef*%
%ADD26RoundRect,0.250000X0.475000X-0.250000X0.475000X0.250000X-0.475000X0.250000X-0.475000X-0.250000X0*%
%TD*%
%TA.AperFunction,SMDPad,CuDef*%
%ADD27RoundRect,0.250000X0.250000X0.475000X-0.250000X0.475000X-0.250000X-0.475000X0.250000X-0.475000X0*%
%TD*%
%TA.AperFunction,SMDPad,CuDef*%
%ADD28RoundRect,0.225000X0.375000X-0.225000X0.375000X0.225000X-0.375000X0.225000X-0.375000X-0.225000X0*%
%TD*%
%TA.AperFunction,SMDPad,CuDef*%
%ADD29RoundRect,0.100000X-0.100000X0.637500X-0.100000X-0.637500X0.100000X-0.637500X0.100000X0.637500X0*%
%TD*%
%TA.AperFunction,SMDPad,CuDef*%
%ADD30RoundRect,0.400000X-1.250000X-0.400000X1.250000X-0.400000X1.250000X0.400000X-1.250000X0.400000X0*%
%TD*%
%TA.AperFunction,SMDPad,CuDef*%
%ADD31RoundRect,0.200000X0.200000X0.275000X-0.200000X0.275000X-0.200000X-0.275000X0.200000X-0.275000X0*%
%TD*%
%TA.AperFunction,ViaPad*%
%ADD32C,1.000000*%
%TD*%
%TA.AperFunction,ViaPad*%
%ADD33C,0.700000*%
%TD*%
%TA.AperFunction,ViaPad*%
%ADD34C,0.600000*%
%TD*%
%TA.AperFunction,Conductor*%
%ADD35C,0.600000*%
%TD*%
%TA.AperFunction,Conductor*%
%ADD36C,0.800000*%
%TD*%
%TA.AperFunction,Conductor*%
%ADD37C,0.400000*%
%TD*%
%TA.AperFunction,Conductor*%
%ADD38C,0.700000*%
%TD*%
%TA.AperFunction,Conductor*%
%ADD39C,0.200000*%
%TD*%
%TA.AperFunction,Conductor*%
%ADD40C,0.500000*%
%TD*%
%TA.AperFunction,Conductor*%
%ADD41C,1.000000*%
%TD*%
G04 APERTURE END LIST*
D10*
%TO.P,J4,1,Pin_1*%
%TO.N,+5V*%
X44860000Y-116620000D03*
D11*
%TO.P,J4,2,Pin_2*%
%TO.N,/START_LIGHTS_5V*%
X47400000Y-116620000D03*
%TO.P,J4,3,Pin_3*%
%TO.N,/TRACK_LIGHTS_G*%
X44860000Y-119160000D03*
%TO.P,J4,4,Pin_4*%
%TO.N,/TRACK_LIGHTS_R*%
X47400000Y-119160000D03*
%TO.P,J4,5,Pin_5*%
%TO.N,/IO_POWER_RAIL_INT*%
X44860000Y-121700000D03*
%TO.P,J4,6,Pin_6*%
%TO.N,/IO_POWER_RAIL_DATA*%
X47400000Y-121700000D03*
%TO.P,J4,7,Pin_7*%
%TO.N,GND*%
X44860000Y-124240000D03*
%TO.P,J4,8,Pin_8*%
%TO.N,+3.3V*%
X47400000Y-124240000D03*
%TD*%
D12*
%TO.P,C8,1*%
%TO.N,+3.3V*%
X54825000Y-109225000D03*
%TO.P,C8,2*%
%TO.N,GND*%
X54825000Y-110775000D03*
%TD*%
D10*
%TO.P,J1,1,Pin_1*%
%TO.N,VRAIL*%
X45000000Y-89125000D03*
D11*
%TO.P,J1,2,Pin_2*%
%TO.N,GND*%
X45000000Y-91665000D03*
%TD*%
D13*
%TO.P,C4,1*%
%TO.N,/VRAIL_CAP*%
X53075000Y-100750000D03*
%TO.P,C4,2*%
%TO.N,GND*%
X54975000Y-100750000D03*
%TD*%
D14*
%TO.P,U3,1,VIN*%
%TO.N,+5V*%
X50750000Y-109200000D03*
%TO.P,U3,2,GND*%
%TO.N,GND*%
X50750000Y-110150000D03*
%TO.P,U3,3,EN*%
%TO.N,+5V*%
X50750000Y-111100000D03*
%TO.P,U3,4,NC*%
%TO.N,unconnected-(U3-NC-Pad4)*%
X53025000Y-111100000D03*
%TO.P,U3,5,VOUT*%
%TO.N,+3.3V*%
X53025000Y-109200000D03*
%TD*%
D15*
%TO.P,C2,1*%
%TO.N,+3.3V*%
X56425000Y-117300000D03*
%TO.P,C2,2*%
%TO.N,GND*%
X57975000Y-117300000D03*
%TD*%
D16*
%TO.P,U4,1,VCC*%
%TO.N,/VRAIL_CAP*%
X59500000Y-106500000D03*
D17*
%TO.P,U4,2,GND*%
%TO.N,GND*%
X64125000Y-107255000D03*
X64125000Y-110305000D03*
D18*
X65800000Y-108780000D03*
D17*
X67475000Y-107255000D03*
X67475000Y-110305000D03*
D16*
%TO.P,U4,3,VO*%
%TO.N,+3.3V*%
X59500000Y-111060000D03*
%TD*%
D19*
%TO.P,C12,1*%
%TO.N,/VRAIL_CAP*%
X57000000Y-106400000D03*
%TO.P,C12,2*%
%TO.N,GND*%
X57000000Y-108300000D03*
%TD*%
D20*
%TO.P,C7,1*%
%TO.N,+5V*%
X48625000Y-109175000D03*
%TO.P,C7,2*%
%TO.N,GND*%
X48625000Y-107625000D03*
%TD*%
D15*
%TO.P,C14,1*%
%TO.N,+5V*%
X50625000Y-117000000D03*
%TO.P,C14,2*%
%TO.N,GND*%
X52175000Y-117000000D03*
%TD*%
D21*
%TO.P,U2,1,FB*%
%TO.N,+5V*%
X52650000Y-93000000D03*
%TO.P,U2,2,EN*%
%TO.N,/VRAIL_CAP*%
X53600000Y-93000000D03*
%TO.P,U2,3,IN*%
X54550000Y-93000000D03*
%TO.P,U2,4,GND*%
%TO.N,GND*%
X54550000Y-90725000D03*
%TO.P,U2,5,SW*%
%TO.N,Net-(U2-SW)*%
X53600000Y-90725000D03*
%TO.P,U2,6,BST*%
%TO.N,Net-(U2-BST)*%
X52650000Y-90725000D03*
%TD*%
D22*
%TO.P,R3,1*%
%TO.N,/IO_POWER_RAIL_DATA*%
X43600000Y-110775000D03*
%TO.P,R3,2*%
%TO.N,GND*%
X43600000Y-112425000D03*
%TD*%
D23*
%TO.P,IC1,1,~{OE}*%
%TO.N,GND*%
X54450000Y-114950000D03*
%TO.P,IC1,2,A*%
%TO.N,/START_LIGHTS*%
X54450000Y-114000000D03*
%TO.P,IC1,3,GND*%
%TO.N,GND*%
X54450000Y-113050000D03*
%TO.P,IC1,4,Y*%
%TO.N,/START_LIGHTS_5V*%
X51950000Y-113050000D03*
%TO.P,IC1,5,VCC*%
%TO.N,+5V*%
X51950000Y-114950000D03*
%TD*%
D24*
%TO.P,C3,1*%
%TO.N,/VRAIL_CAP*%
X47450000Y-96750000D03*
%TO.P,C3,2*%
%TO.N,GND*%
X47450000Y-104050000D03*
%TD*%
D25*
%TO.P,C10,1*%
%TO.N,+5V*%
X54875000Y-104600000D03*
%TO.P,C10,2*%
%TO.N,GND*%
X53325000Y-104600000D03*
%TD*%
%TO.P,C11,1*%
%TO.N,+5V*%
X54825000Y-106300000D03*
%TO.P,C11,2*%
%TO.N,GND*%
X53275000Y-106300000D03*
%TD*%
D26*
%TO.P,C9,1*%
%TO.N,/VRAIL_CAP*%
X57100000Y-95000000D03*
%TO.P,C9,2*%
%TO.N,GND*%
X57100000Y-93100000D03*
%TD*%
D13*
%TO.P,C6,1*%
%TO.N,/VRAIL_CAP*%
X53100000Y-96400000D03*
%TO.P,C6,2*%
%TO.N,GND*%
X55000000Y-96400000D03*
%TD*%
D27*
%TO.P,C5,1*%
%TO.N,Net-(U2-SW)*%
X54250000Y-88300000D03*
%TO.P,C5,2*%
%TO.N,Net-(U2-BST)*%
X52350000Y-88300000D03*
%TD*%
D28*
%TO.P,D1,1,K*%
%TO.N,/VRAIL_CAP*%
X48100000Y-92450000D03*
%TO.P,D1,2,A*%
%TO.N,VRAIL*%
X48100000Y-89150000D03*
%TD*%
D29*
%TO.P,U1,1,PB7*%
%TO.N,/I2C_SCL*%
X58350000Y-119275000D03*
%TO.P,U1,2,PC14*%
%TO.N,/I2C_SDA*%
X57700000Y-119275000D03*
%TO.P,U1,3,PC15*%
%TO.N,unconnected-(U1-PC15-Pad3)*%
X57050000Y-119275000D03*
%TO.P,U1,4,VDD*%
%TO.N,+3.3V*%
X56400000Y-119275000D03*
%TO.P,U1,5,VSS*%
%TO.N,GND*%
X55750000Y-119275000D03*
%TO.P,U1,6,PF2*%
%TO.N,/SWD_NRST*%
X55100000Y-119275000D03*
%TO.P,U1,7,PA0*%
%TO.N,/START_LIGHTS*%
X54450000Y-119275000D03*
%TO.P,U1,8,PA1*%
%TO.N,unconnected-(U1-PA1-Pad8)*%
X53800000Y-119275000D03*
%TO.P,U1,9,PA2*%
%TO.N,unconnected-(U1-PA2-Pad9)*%
X53150000Y-119275000D03*
%TO.P,U1,10,PA3*%
%TO.N,/IO_POWER_RAIL_INT*%
X52500000Y-119275000D03*
%TO.P,U1,11,PA4*%
%TO.N,/IO_POWER_RAIL_DATA*%
X52500000Y-125000000D03*
%TO.P,U1,12,PA5*%
%TO.N,unconnected-(U1-PA5-Pad12)*%
X53150000Y-125000000D03*
%TO.P,U1,13,PA6*%
%TO.N,/TRACK_LIGHTS_G*%
X53800000Y-125000000D03*
%TO.P,U1,14,PA7*%
%TO.N,/TRACK_LIGHTS_R*%
X54450000Y-125000000D03*
%TO.P,U1,15,PA8*%
%TO.N,unconnected-(U1-PA8-Pad15)*%
X55100000Y-125000000D03*
%TO.P,U1,16,PA9/PA11*%
%TO.N,unconnected-(U1-PA9{slash}PA11-Pad16)*%
X55750000Y-125000000D03*
%TO.P,U1,17,PA10/PA12*%
%TO.N,unconnected-(U1-PA10{slash}PA12-Pad17)*%
X56400000Y-125000000D03*
%TO.P,U1,18,PA13*%
%TO.N,/SWD_SWDIO*%
X57050000Y-125000000D03*
%TO.P,U1,19,PA14*%
%TO.N,/SWD_SWCLK*%
X57700000Y-125000000D03*
%TO.P,U1,20,PB6*%
%TO.N,Net-(JP1-B)*%
X58350000Y-125000000D03*
%TD*%
D10*
%TO.P,J3,1,Pin_1*%
%TO.N,/I2C_SDA*%
X67500000Y-124600000D03*
D11*
%TO.P,J3,2,Pin_2*%
%TO.N,/I2C_SCL*%
X67500000Y-122060000D03*
%TD*%
D15*
%TO.P,C1,1*%
%TO.N,+3.3V*%
X56425000Y-115600000D03*
%TO.P,C1,2*%
%TO.N,GND*%
X57975000Y-115600000D03*
%TD*%
D10*
%TO.P,J2,1,Pin_1*%
%TO.N,GND*%
X66740000Y-115760000D03*
D11*
%TO.P,J2,2,Pin_2*%
%TO.N,/SWD_SWCLK*%
X66740000Y-118300000D03*
%TO.P,J2,3,Pin_3*%
%TO.N,+3.3V*%
X64200000Y-115760000D03*
%TO.P,J2,4,Pin_4*%
%TO.N,/SWD_SWDIO*%
X64200000Y-118300000D03*
%TO.P,J2,5,Pin_5*%
%TO.N,+3.3V*%
X61660000Y-115760000D03*
%TO.P,J2,6,Pin_6*%
%TO.N,/SWD_NRST*%
X61660000Y-118300000D03*
%TD*%
D12*
%TO.P,C13,1*%
%TO.N,+3.3V*%
X57400000Y-111025000D03*
%TO.P,C13,2*%
%TO.N,GND*%
X57400000Y-112575000D03*
%TD*%
D30*
%TO.P,L1,1,1*%
%TO.N,Net-(U2-SW)*%
X64100000Y-90800000D03*
%TO.P,L1,2,2*%
%TO.N,+5V*%
X64100000Y-99700000D03*
%TD*%
D22*
%TO.P,R1,1*%
%TO.N,+3.3V*%
X64500000Y-122375000D03*
%TO.P,R1,2*%
%TO.N,Net-(JP1-A)*%
X64500000Y-124025000D03*
%TD*%
D31*
%TO.P,R2,1*%
%TO.N,VRAIL*%
X46825000Y-109400000D03*
%TO.P,R2,2*%
%TO.N,/IO_POWER_RAIL_DATA*%
X45175000Y-109400000D03*
%TD*%
D32*
%TO.N,GND*%
X53400000Y-117000000D03*
X45000000Y-107300000D03*
X54300000Y-98300000D03*
X64000000Y-104200000D03*
X45000000Y-93800000D03*
X68500000Y-104200000D03*
X50600000Y-125300000D03*
X50200000Y-107625000D03*
X62500000Y-104200000D03*
X61000000Y-113200000D03*
X57100000Y-91875000D03*
X61500000Y-108700000D03*
X55925000Y-90700000D03*
X54200000Y-121900000D03*
X61500000Y-110200000D03*
X67000000Y-104200000D03*
X52025000Y-110200000D03*
X56200000Y-120900000D03*
X54825000Y-111950000D03*
D33*
X55300000Y-117500000D03*
D32*
X65500000Y-104200000D03*
X56225000Y-96450000D03*
X64000000Y-113200000D03*
X68500000Y-113200000D03*
X53100000Y-114000000D03*
X56050000Y-100750000D03*
X62500000Y-113200000D03*
D34*
X48900000Y-122200000D03*
D32*
X55700000Y-123200000D03*
X59500000Y-118700000D03*
X58800000Y-112600000D03*
X57000000Y-109375000D03*
X59500000Y-117200000D03*
X46600000Y-107400000D03*
X50900000Y-119700000D03*
X58200000Y-103900000D03*
X67000000Y-113200000D03*
X65500000Y-113200000D03*
X61000000Y-104200000D03*
X61500000Y-107200000D03*
%TO.N,+3.3V*%
X66112792Y-120200000D03*
%TO.N,/I2C_SDA*%
X57800000Y-120900000D03*
%TO.N,/I2C_SCL*%
X59200000Y-121000000D03*
%TO.N,VRAIL*%
X47100000Y-110600000D03*
%TO.N,/IO_POWER_RAIL_DATA*%
X45600000Y-111200000D03*
%TO.N,/VRAIL_CAP*%
X53075000Y-99350000D03*
X57000000Y-104850000D03*
D34*
%TO.N,/IO_POWER_RAIL_INT*%
X53000000Y-120900000D03*
D32*
%TO.N,+5V*%
X51900000Y-94700000D03*
X50500000Y-118500000D03*
X48625000Y-110300000D03*
X59500000Y-102450000D03*
X54845000Y-107395000D03*
%TO.N,Net-(JP1-A)*%
X64500000Y-125300000D03*
%TO.N,Net-(JP1-B)*%
X59800000Y-124900000D03*
%TD*%
D35*
%TO.N,GND*%
X52025000Y-110200000D02*
X51975000Y-110150000D01*
D36*
X57100000Y-91875000D02*
X57100000Y-93125000D01*
X52175000Y-117000000D02*
X53400000Y-117000000D01*
X55925000Y-90700000D02*
X54675000Y-90700000D01*
D35*
X54825000Y-110775000D02*
X54825000Y-111950000D01*
D36*
X58775000Y-112575000D02*
X58800000Y-112600000D01*
X48625000Y-107625000D02*
X50200000Y-107625000D01*
D35*
X51975000Y-110150000D02*
X50750000Y-110150000D01*
D36*
X56225000Y-96450000D02*
X54975000Y-96450000D01*
X57000000Y-109375000D02*
X57000000Y-108125000D01*
X56050000Y-100750000D02*
X54800000Y-100750000D01*
X57400000Y-112575000D02*
X58775000Y-112575000D01*
D37*
%TO.N,/TRACK_LIGHTS_R*%
X48660000Y-119160000D02*
X47400000Y-119160000D01*
X52200000Y-121500000D02*
X51000000Y-121500000D01*
X54450000Y-123750000D02*
X52200000Y-121500000D01*
X51000000Y-121500000D02*
X48660000Y-119160000D01*
X54450000Y-125000000D02*
X54450000Y-123750000D01*
%TO.N,+3.3V*%
X56400000Y-119275000D02*
X56400000Y-118200000D01*
D36*
X61560000Y-115760000D02*
X61660000Y-115760000D01*
D38*
X56400000Y-117900000D02*
X56425000Y-117875000D01*
D36*
X57400000Y-111025000D02*
X59465000Y-111025000D01*
X59465000Y-111025000D02*
X59500000Y-111060000D01*
X56425000Y-115600000D02*
X56425000Y-117300000D01*
D38*
X56425000Y-117875000D02*
X56425000Y-117300000D01*
D36*
X59800000Y-114000000D02*
X61560000Y-115760000D01*
X56425000Y-114000000D02*
X59800000Y-114000000D01*
X54922960Y-109225000D02*
X55925000Y-110227040D01*
D39*
X64500000Y-122375000D02*
X64500000Y-121812792D01*
D36*
X55950000Y-111025000D02*
X55925000Y-111000000D01*
X55925000Y-113500000D02*
X56425000Y-114000000D01*
X56425000Y-115600000D02*
X56425000Y-114000000D01*
X55925000Y-110227040D02*
X55925000Y-111000000D01*
D39*
X64500000Y-121812792D02*
X66112792Y-120200000D01*
D36*
X57400000Y-111025000D02*
X55950000Y-111025000D01*
D35*
X54800000Y-109200000D02*
X54825000Y-109225000D01*
D36*
X55925000Y-111000000D02*
X55925000Y-113500000D01*
D38*
X56400000Y-118200000D02*
X56400000Y-117900000D01*
D35*
X53025000Y-109200000D02*
X54800000Y-109200000D01*
D36*
X54825000Y-109225000D02*
X54922960Y-109225000D01*
D40*
%TO.N,/START_LIGHTS*%
X54450000Y-116850000D02*
X55475000Y-115825000D01*
X55200000Y-114000000D02*
X54450000Y-114000000D01*
D37*
X54450000Y-119275000D02*
X54450000Y-116850000D01*
D40*
X55475000Y-115825000D02*
X55475000Y-114275000D01*
X55475000Y-114275000D02*
X55200000Y-114000000D01*
D37*
%TO.N,/SWD_NRST*%
X55800000Y-121900000D02*
X60000000Y-121900000D01*
X55100000Y-121200000D02*
X55800000Y-121900000D01*
X60000000Y-121900000D02*
X61660000Y-120240000D01*
X61660000Y-120240000D02*
X61660000Y-118300000D01*
X55100000Y-119275000D02*
X55100000Y-121200000D01*
%TO.N,/SWD_SWCLK*%
X57700000Y-124200000D02*
X58200000Y-123700000D01*
X57700000Y-125000000D02*
X57700000Y-124200000D01*
X62200000Y-122300000D02*
X62740000Y-122300000D01*
X58200000Y-123700000D02*
X60800000Y-123700000D01*
X60800000Y-123700000D02*
X62200000Y-122300000D01*
X62740000Y-122300000D02*
X66740000Y-118300000D01*
%TO.N,/SWD_SWDIO*%
X57050000Y-123650000D02*
X57800000Y-122900000D01*
X64200000Y-118851472D02*
X64200000Y-118300000D01*
X57050000Y-125000000D02*
X57050000Y-123650000D01*
X60151472Y-122900000D02*
X64200000Y-118851472D01*
X57800000Y-122900000D02*
X60151472Y-122900000D01*
%TO.N,/I2C_SDA*%
X57700000Y-119275000D02*
X57700000Y-120800000D01*
X57700000Y-120800000D02*
X57800000Y-120900000D01*
%TO.N,/I2C_SCL*%
X58350000Y-120150000D02*
X58350000Y-119275000D01*
X59200000Y-121000000D02*
X58350000Y-120150000D01*
D36*
%TO.N,VRAIL*%
X48075000Y-89125000D02*
X48100000Y-89150000D01*
X47100000Y-110600000D02*
X47100000Y-109675000D01*
X47100000Y-109675000D02*
X46825000Y-109400000D01*
X45000000Y-89125000D02*
X48075000Y-89125000D01*
D37*
%TO.N,/IO_POWER_RAIL_DATA*%
X52500000Y-125000000D02*
X52500000Y-124100000D01*
X44900000Y-110500000D02*
X45600000Y-111200000D01*
X49200000Y-123500000D02*
X47400000Y-121700000D01*
X51900000Y-123500000D02*
X49200000Y-123500000D01*
X44625000Y-110775000D02*
X43600000Y-110775000D01*
X52500000Y-124100000D02*
X51900000Y-123500000D01*
X45175000Y-110225000D02*
X44900000Y-110500000D01*
X45175000Y-109400000D02*
X45175000Y-110225000D01*
X44900000Y-110500000D02*
X44625000Y-110775000D01*
D38*
%TO.N,/VRAIL_CAP*%
X53075000Y-96425000D02*
X53100000Y-96400000D01*
X51600000Y-100750000D02*
X53075000Y-100750000D01*
D35*
X53600000Y-93000000D02*
X53600000Y-94150000D01*
D38*
X50300000Y-97800000D02*
X50300000Y-99450000D01*
X53075000Y-100750000D02*
X53075000Y-99350000D01*
X50300000Y-99450000D02*
X51600000Y-100750000D01*
X49250000Y-96750000D02*
X50300000Y-97800000D01*
X53075000Y-99350000D02*
X53075000Y-97775000D01*
D37*
X58000000Y-97700000D02*
X58000000Y-95700000D01*
D38*
X53100000Y-94720711D02*
X53135356Y-94685355D01*
X57000000Y-106400000D02*
X57000000Y-104850000D01*
X57092500Y-106492500D02*
X57000000Y-106400000D01*
D36*
X47450000Y-93950000D02*
X47450000Y-96750000D01*
D37*
X57100000Y-95000000D02*
X55300000Y-95000000D01*
D38*
X53075000Y-97775000D02*
X53100000Y-97750000D01*
X53100000Y-96400000D02*
X53100000Y-94720711D01*
D35*
X53600000Y-94150000D02*
X53100000Y-94650000D01*
D36*
X48100000Y-93300000D02*
X47450000Y-93950000D01*
D38*
X59500000Y-106492500D02*
X57092500Y-106492500D01*
D37*
X57300000Y-95000000D02*
X57100000Y-95000000D01*
X55300000Y-95000000D02*
X54550000Y-94250000D01*
D38*
X53100000Y-97750000D02*
X53100000Y-96400000D01*
D37*
X54550000Y-94250000D02*
X54550000Y-93000000D01*
X56350000Y-99350000D02*
X58000000Y-97700000D01*
X58000000Y-95700000D02*
X57300000Y-95000000D01*
X53075000Y-99350000D02*
X56350000Y-99350000D01*
D36*
X48100000Y-92450000D02*
X48100000Y-93300000D01*
D38*
X47450000Y-96750000D02*
X49250000Y-96750000D01*
D37*
%TO.N,/TRACK_LIGHTS_G*%
X53800000Y-124202622D02*
X51997378Y-122400000D01*
X48250000Y-120450000D02*
X46150000Y-120450000D01*
X50200000Y-122400000D02*
X48250000Y-120450000D01*
X51997378Y-122400000D02*
X50200000Y-122400000D01*
X53800000Y-125000000D02*
X53800000Y-124202622D01*
X46150000Y-120450000D02*
X44860000Y-119160000D01*
%TO.N,/IO_POWER_RAIL_INT*%
X52500000Y-120400000D02*
X53000000Y-120900000D01*
X52500000Y-119275000D02*
X52500000Y-120400000D01*
D35*
%TO.N,+5V*%
X50625000Y-115475000D02*
X50900000Y-115200000D01*
D40*
X50900000Y-115200000D02*
X51150000Y-114950000D01*
D38*
X59500000Y-102450000D02*
X62800000Y-102450000D01*
X55600000Y-104600000D02*
X57750000Y-102450000D01*
D35*
X50625000Y-117000000D02*
X50625000Y-115475000D01*
X50025000Y-111100000D02*
X49225000Y-110300000D01*
D36*
X47250000Y-112150000D02*
X44860000Y-114540000D01*
D35*
X48625000Y-110300000D02*
X48625000Y-109175000D01*
D36*
X44902960Y-116620000D02*
X44860000Y-116620000D01*
X54845000Y-107395000D02*
X54845000Y-106220000D01*
D38*
X57750000Y-102450000D02*
X59500000Y-102450000D01*
X54825000Y-104650000D02*
X54875000Y-104600000D01*
D35*
X50750000Y-109200000D02*
X48650000Y-109200000D01*
X49225000Y-110300000D02*
X48625000Y-110300000D01*
D38*
X54875000Y-104600000D02*
X55600000Y-104600000D01*
D35*
X50750000Y-111100000D02*
X50025000Y-111100000D01*
D38*
X62800000Y-102450000D02*
X64100000Y-101150000D01*
D35*
X52459314Y-94159315D02*
X51918629Y-94700000D01*
X51918629Y-94700000D02*
X51900000Y-94700000D01*
D36*
X44625000Y-116385000D02*
X44860000Y-116620000D01*
D40*
X51150000Y-114950000D02*
X51950000Y-114950000D01*
D36*
X44860000Y-114540000D02*
X44860000Y-116620000D01*
D38*
X64100000Y-101150000D02*
X64100000Y-99700000D01*
X54825000Y-106300000D02*
X54825000Y-104650000D01*
D35*
X48650000Y-109200000D02*
X48625000Y-109175000D01*
D36*
X48625000Y-110775000D02*
X47250000Y-112150000D01*
D35*
X52650000Y-93000000D02*
X52650000Y-93968629D01*
X50625000Y-118375000D02*
X50625000Y-117000000D01*
X52650000Y-93968629D02*
X52459314Y-94159315D01*
D36*
X48625000Y-110300000D02*
X48625000Y-110775000D01*
D35*
X50500000Y-118500000D02*
X50625000Y-118375000D01*
D39*
%TO.N,Net-(JP1-A)*%
X64500000Y-125300000D02*
X64500000Y-124025000D01*
%TO.N,Net-(JP1-B)*%
X59700000Y-125000000D02*
X59800000Y-124900000D01*
X58350000Y-125000000D02*
X59700000Y-125000000D01*
D40*
%TO.N,/START_LIGHTS_5V*%
X50650000Y-113050000D02*
X47400000Y-116300000D01*
X51950000Y-113050000D02*
X50650000Y-113050000D01*
X47400000Y-116300000D02*
X47400000Y-116620000D01*
D35*
%TO.N,Net-(U2-SW)*%
X53600000Y-90725000D02*
X53600000Y-90089106D01*
D41*
X64100000Y-89450000D02*
X64100000Y-90800000D01*
X54250000Y-88300000D02*
X62950000Y-88300000D01*
X62950000Y-88300000D02*
X64100000Y-89450000D01*
D35*
X54250000Y-89439106D02*
X54250000Y-88300000D01*
X53600000Y-90089106D02*
X54250000Y-89439106D01*
%TO.N,Net-(U2-BST)*%
X52650000Y-89900000D02*
X52350000Y-89600000D01*
X52350000Y-89600000D02*
X52350000Y-88300000D01*
X52650000Y-90725000D02*
X52650000Y-89900000D01*
%TD*%
%TA.AperFunction,Conductor*%
%TO.N,GND*%
G36*
X54175085Y-120163757D02*
G01*
X54280004Y-120210083D01*
X54280009Y-120210085D01*
X54305135Y-120213000D01*
X54575500Y-120212999D01*
X54642539Y-120232683D01*
X54688294Y-120285487D01*
X54699500Y-120336999D01*
X54699500Y-121147273D01*
X54699500Y-121252727D01*
X54703191Y-121266502D01*
X54726793Y-121354589D01*
X54750288Y-121395282D01*
X54779520Y-121445913D01*
X55479519Y-122145912D01*
X55479520Y-122145913D01*
X55554087Y-122220480D01*
X55645413Y-122273207D01*
X55747273Y-122300500D01*
X55747275Y-122300500D01*
X57574588Y-122300500D01*
X57641627Y-122320185D01*
X57687382Y-122372989D01*
X57697326Y-122442147D01*
X57668301Y-122505703D01*
X57636589Y-122531887D01*
X57554087Y-122579520D01*
X57554084Y-122579522D01*
X56729522Y-123404084D01*
X56729520Y-123404087D01*
X56677846Y-123493589D01*
X56676793Y-123495412D01*
X56655490Y-123574916D01*
X56653094Y-123583858D01*
X56649500Y-123597270D01*
X56649500Y-123938000D01*
X56629815Y-124005039D01*
X56577011Y-124050794D01*
X56525500Y-124062000D01*
X56255143Y-124062000D01*
X56255117Y-124062002D01*
X56230013Y-124064913D01*
X56211229Y-124073207D01*
X56139017Y-124105092D01*
X56125086Y-124111243D01*
X56055807Y-124120314D01*
X56024914Y-124111243D01*
X56022765Y-124110294D01*
X55919991Y-124064915D01*
X55894865Y-124062000D01*
X55605143Y-124062000D01*
X55605117Y-124062002D01*
X55580013Y-124064913D01*
X55561229Y-124073207D01*
X55489017Y-124105092D01*
X55475086Y-124111243D01*
X55405807Y-124120314D01*
X55374914Y-124111243D01*
X55372765Y-124110294D01*
X55269991Y-124064915D01*
X55263709Y-124064186D01*
X55244868Y-124062000D01*
X54974500Y-124062000D01*
X54907461Y-124042315D01*
X54861706Y-123989511D01*
X54850500Y-123938000D01*
X54850500Y-123812729D01*
X54850501Y-123812716D01*
X54850501Y-123697276D01*
X54850501Y-123697274D01*
X54823207Y-123595413D01*
X54796699Y-123549500D01*
X54770480Y-123504087D01*
X54695913Y-123429520D01*
X54691582Y-123425189D01*
X54691571Y-123425179D01*
X52878574Y-121612181D01*
X52845089Y-121550858D01*
X52850073Y-121481166D01*
X52891945Y-121425233D01*
X52957409Y-121400816D01*
X52966255Y-121400500D01*
X53071962Y-121400500D01*
X53071962Y-121400499D01*
X53210053Y-121359953D01*
X53331128Y-121282143D01*
X53425377Y-121173373D01*
X53485165Y-121042457D01*
X53505647Y-120900000D01*
X53485165Y-120757543D01*
X53425377Y-120626627D01*
X53331128Y-120517857D01*
X53212023Y-120441313D01*
X53166270Y-120388511D01*
X53156326Y-120319352D01*
X53185351Y-120255797D01*
X53244129Y-120218022D01*
X53279063Y-120212999D01*
X53294864Y-120212999D01*
X53294879Y-120212997D01*
X53294882Y-120212997D01*
X53319987Y-120210086D01*
X53319987Y-120210085D01*
X53319991Y-120210085D01*
X53422765Y-120164706D01*
X53422766Y-120164704D01*
X53424912Y-120163757D01*
X53494190Y-120154685D01*
X53525085Y-120163757D01*
X53630004Y-120210083D01*
X53630009Y-120210085D01*
X53655135Y-120213000D01*
X53944864Y-120212999D01*
X53944879Y-120212997D01*
X53944882Y-120212997D01*
X53969987Y-120210086D01*
X53969987Y-120210085D01*
X53969991Y-120210085D01*
X54072765Y-120164706D01*
X54072766Y-120164704D01*
X54074912Y-120163757D01*
X54144190Y-120154685D01*
X54175085Y-120163757D01*
G37*
%TD.AperFunction*%
%TA.AperFunction,Conductor*%
G36*
X48632355Y-121401263D02*
G01*
X48648410Y-121414803D01*
X49879519Y-122645912D01*
X49879520Y-122645913D01*
X49954087Y-122720480D01*
X50045413Y-122773207D01*
X50147273Y-122800500D01*
X51780123Y-122800500D01*
X51847162Y-122820185D01*
X51867804Y-122836819D01*
X51918804Y-122887819D01*
X51952289Y-122949142D01*
X51947305Y-123018834D01*
X51905433Y-123074767D01*
X51839969Y-123099184D01*
X51831123Y-123099500D01*
X49417255Y-123099500D01*
X49350216Y-123079815D01*
X49329574Y-123063181D01*
X48426649Y-122160256D01*
X48393164Y-122098933D01*
X48395669Y-122036580D01*
X48407013Y-121999184D01*
X48435300Y-121905934D01*
X48455583Y-121700000D01*
X48437326Y-121514637D01*
X48450345Y-121445992D01*
X48498410Y-121395282D01*
X48566260Y-121378607D01*
X48632355Y-121401263D01*
G37*
%TD.AperFunction*%
%TA.AperFunction,Conductor*%
G36*
X55743834Y-116295783D02*
G01*
X55799767Y-116337655D01*
X55824184Y-116403119D01*
X55824500Y-116411965D01*
X55824500Y-116819945D01*
X55810986Y-116876238D01*
X55790279Y-116916877D01*
X55774500Y-117016506D01*
X55774500Y-117583493D01*
X55790279Y-117683121D01*
X55790280Y-117683124D01*
X55790281Y-117683126D01*
X55835985Y-117772826D01*
X55849500Y-117829118D01*
X55849500Y-118272475D01*
X55887016Y-118412485D01*
X55933387Y-118492803D01*
X55950000Y-118554801D01*
X55950000Y-120301646D01*
X55950001Y-120301647D01*
X55975145Y-120297665D01*
X56088044Y-120240140D01*
X56088045Y-120240139D01*
X56092310Y-120235875D01*
X56153631Y-120202387D01*
X56223323Y-120207368D01*
X56229991Y-120210080D01*
X56230005Y-120210084D01*
X56230007Y-120210084D01*
X56230009Y-120210085D01*
X56255135Y-120213000D01*
X56544864Y-120212999D01*
X56544879Y-120212997D01*
X56544882Y-120212997D01*
X56569987Y-120210086D01*
X56569987Y-120210085D01*
X56569991Y-120210085D01*
X56672765Y-120164706D01*
X56672766Y-120164704D01*
X56674912Y-120163757D01*
X56744190Y-120154685D01*
X56775085Y-120163757D01*
X56880004Y-120210083D01*
X56880009Y-120210085D01*
X56905135Y-120213000D01*
X57175500Y-120212999D01*
X57242539Y-120232683D01*
X57288294Y-120285487D01*
X57299500Y-120336999D01*
X57299500Y-120353796D01*
X57279815Y-120420835D01*
X57276015Y-120425854D01*
X57276078Y-120425898D01*
X57175182Y-120572068D01*
X57114860Y-120731125D01*
X57114859Y-120731130D01*
X57094355Y-120900000D01*
X57114859Y-121068869D01*
X57114860Y-121068874D01*
X57175182Y-121227931D01*
X57228421Y-121305060D01*
X57250304Y-121371414D01*
X57232839Y-121439066D01*
X57181571Y-121486536D01*
X57126371Y-121499500D01*
X56017255Y-121499500D01*
X55950216Y-121479815D01*
X55929574Y-121463181D01*
X55536819Y-121070426D01*
X55503334Y-121009103D01*
X55500500Y-120982745D01*
X55500500Y-120401088D01*
X55520185Y-120334049D01*
X55543967Y-120306799D01*
X55550000Y-120301646D01*
X55550000Y-118248351D01*
X55524856Y-118252333D01*
X55411951Y-118309861D01*
X55407676Y-118314136D01*
X55346350Y-118347616D01*
X55276659Y-118342625D01*
X55270016Y-118339921D01*
X55269991Y-118339915D01*
X55244868Y-118337000D01*
X54974500Y-118337000D01*
X54907461Y-118317315D01*
X54861706Y-118264511D01*
X54850500Y-118213000D01*
X54850500Y-117137965D01*
X54870185Y-117070926D01*
X54886819Y-117050284D01*
X55612819Y-116324284D01*
X55674142Y-116290799D01*
X55743834Y-116295783D01*
G37*
%TD.AperFunction*%
%TA.AperFunction,Conductor*%
G36*
X54180084Y-94428465D02*
G01*
X54211252Y-94464273D01*
X54229520Y-94495913D01*
X54229522Y-94495915D01*
X54896926Y-95163319D01*
X54930411Y-95224642D01*
X54925427Y-95294334D01*
X54883555Y-95350267D01*
X54818091Y-95374684D01*
X54809245Y-95375000D01*
X54706946Y-95375000D01*
X54618556Y-95385613D01*
X54477904Y-95441079D01*
X54357435Y-95532435D01*
X54266079Y-95652904D01*
X54210613Y-95793556D01*
X54200000Y-95881946D01*
X54200000Y-96150000D01*
X55800000Y-96150000D01*
X55800000Y-95881946D01*
X55789386Y-95793556D01*
X55733919Y-95652902D01*
X55693366Y-95599425D01*
X55668543Y-95534114D01*
X55682971Y-95465750D01*
X55732068Y-95416039D01*
X55792170Y-95400500D01*
X56114520Y-95400500D01*
X56181559Y-95420185D01*
X56215031Y-95456628D01*
X56216689Y-95455405D01*
X56222206Y-95462881D01*
X56222207Y-95462882D01*
X56302850Y-95572150D01*
X56412118Y-95652793D01*
X56454845Y-95667744D01*
X56540299Y-95697646D01*
X56570730Y-95700500D01*
X56570734Y-95700500D01*
X57382745Y-95700500D01*
X57449784Y-95720185D01*
X57470426Y-95736819D01*
X57563181Y-95829574D01*
X57596666Y-95890897D01*
X57599500Y-95917255D01*
X57599500Y-97482745D01*
X57579815Y-97549784D01*
X57563181Y-97570426D01*
X56220426Y-98913181D01*
X56159103Y-98946666D01*
X56132745Y-98949500D01*
X53749500Y-98949500D01*
X53682461Y-98929815D01*
X53636706Y-98877011D01*
X53625500Y-98825500D01*
X53625500Y-97932100D01*
X53629725Y-97900006D01*
X53641895Y-97854587D01*
X53650500Y-97822475D01*
X53650500Y-97267288D01*
X53670185Y-97200249D01*
X53674730Y-97193655D01*
X53752790Y-97087886D01*
X53752789Y-97087886D01*
X53752793Y-97087882D01*
X53781290Y-97006443D01*
X53797646Y-96959701D01*
X53797646Y-96959699D01*
X53800500Y-96929269D01*
X53800500Y-96918053D01*
X54200000Y-96918053D01*
X54210613Y-97006443D01*
X54266079Y-97147095D01*
X54357435Y-97267564D01*
X54477904Y-97358920D01*
X54618556Y-97414386D01*
X54706946Y-97425000D01*
X54750000Y-97425000D01*
X55250000Y-97425000D01*
X55293054Y-97425000D01*
X55381443Y-97414386D01*
X55522095Y-97358920D01*
X55642564Y-97267564D01*
X55733920Y-97147095D01*
X55789386Y-97006443D01*
X55800000Y-96918053D01*
X55800000Y-96650000D01*
X55250000Y-96650000D01*
X55250000Y-97425000D01*
X54750000Y-97425000D01*
X54750000Y-96650000D01*
X54200000Y-96650000D01*
X54200000Y-96918053D01*
X53800500Y-96918053D01*
X53800500Y-95870730D01*
X53797646Y-95840300D01*
X53797646Y-95840298D01*
X53761436Y-95736819D01*
X53752793Y-95712118D01*
X53674729Y-95606344D01*
X53650759Y-95540715D01*
X53650500Y-95532711D01*
X53650500Y-94906102D01*
X53654725Y-94874010D01*
X53656102Y-94868872D01*
X53672084Y-94809221D01*
X53704175Y-94753637D01*
X54000500Y-94457314D01*
X54000504Y-94457305D01*
X54005448Y-94450865D01*
X54008337Y-94453082D01*
X54046557Y-94416314D01*
X54115104Y-94402786D01*
X54180084Y-94428465D01*
G37*
%TD.AperFunction*%
%TA.AperFunction,Conductor*%
G36*
X51877728Y-87220185D02*
G01*
X51923483Y-87272989D01*
X51933427Y-87342147D01*
X51904402Y-87405703D01*
X51884323Y-87424270D01*
X51777850Y-87502850D01*
X51697207Y-87612117D01*
X51697206Y-87612119D01*
X51652353Y-87740298D01*
X51652353Y-87740300D01*
X51649500Y-87770730D01*
X51649500Y-88829269D01*
X51652353Y-88859699D01*
X51652353Y-88859701D01*
X51697206Y-88987880D01*
X51697207Y-88987882D01*
X51777850Y-89097150D01*
X51799132Y-89112857D01*
X51841384Y-89168503D01*
X51849500Y-89212628D01*
X51849500Y-89534108D01*
X51849500Y-89665892D01*
X51853116Y-89679386D01*
X51883608Y-89793187D01*
X51893404Y-89810153D01*
X51949500Y-89907314D01*
X51949502Y-89907316D01*
X52113181Y-90070995D01*
X52146666Y-90132318D01*
X52149500Y-90158676D01*
X52149500Y-91270760D01*
X52159426Y-91338891D01*
X52210803Y-91443985D01*
X52293514Y-91526696D01*
X52293515Y-91526696D01*
X52293517Y-91526698D01*
X52398607Y-91578073D01*
X52432673Y-91583036D01*
X52466739Y-91588000D01*
X52466740Y-91588000D01*
X52833261Y-91588000D01*
X52855971Y-91584691D01*
X52901393Y-91578073D01*
X53006483Y-91526698D01*
X53008625Y-91524556D01*
X53037319Y-91495863D01*
X53098642Y-91462378D01*
X53168334Y-91467362D01*
X53212681Y-91495863D01*
X53243514Y-91526696D01*
X53243515Y-91526696D01*
X53243517Y-91526698D01*
X53348607Y-91578073D01*
X53382673Y-91583036D01*
X53416739Y-91588000D01*
X53416740Y-91588000D01*
X53783261Y-91588000D01*
X53817326Y-91583036D01*
X53851393Y-91578073D01*
X53936809Y-91536315D01*
X54005681Y-91524556D01*
X54069978Y-91551899D01*
X54077794Y-91558986D01*
X54187354Y-91639846D01*
X54300000Y-91679261D01*
X54300000Y-91679260D01*
X54800000Y-91679260D01*
X54912645Y-91639846D01*
X55021792Y-91559292D01*
X55102346Y-91450145D01*
X55147149Y-91322104D01*
X55147149Y-91322100D01*
X55150000Y-91291706D01*
X55150000Y-90975000D01*
X54800000Y-90975000D01*
X54800000Y-91679260D01*
X54300000Y-91679260D01*
X54300000Y-90849000D01*
X54319685Y-90781961D01*
X54372489Y-90736206D01*
X54424000Y-90725000D01*
X54550000Y-90725000D01*
X54550000Y-90599000D01*
X54569685Y-90531961D01*
X54622489Y-90486206D01*
X54674000Y-90475000D01*
X55149999Y-90475000D01*
X55149999Y-90158303D01*
X55147148Y-90127893D01*
X55102346Y-89999854D01*
X55021792Y-89890707D01*
X54912645Y-89810153D01*
X54798241Y-89770122D01*
X54741464Y-89729400D01*
X54715717Y-89664447D01*
X54719419Y-89620993D01*
X54750500Y-89504998D01*
X54750500Y-89373213D01*
X54750500Y-89212628D01*
X54770185Y-89145589D01*
X54800866Y-89112857D01*
X54822150Y-89097150D01*
X54856308Y-89050866D01*
X54911956Y-89008616D01*
X54956079Y-89000500D01*
X62608481Y-89000500D01*
X62675520Y-89020185D01*
X62696162Y-89036819D01*
X63247162Y-89587819D01*
X63280647Y-89649142D01*
X63275663Y-89718834D01*
X63233791Y-89774767D01*
X63168327Y-89799184D01*
X63159481Y-89799500D01*
X62810636Y-89799500D01*
X62693246Y-89814953D01*
X62693237Y-89814956D01*
X62547160Y-89875463D01*
X62421718Y-89971718D01*
X62325463Y-90097160D01*
X62264956Y-90243237D01*
X62264955Y-90243239D01*
X62249500Y-90360638D01*
X62249500Y-91239363D01*
X62264953Y-91356753D01*
X62264956Y-91356762D01*
X62322573Y-91495863D01*
X62325464Y-91502841D01*
X62421718Y-91628282D01*
X62547159Y-91724536D01*
X62693238Y-91785044D01*
X62810639Y-91800500D01*
X65389360Y-91800499D01*
X65389363Y-91800499D01*
X65506753Y-91785046D01*
X65506757Y-91785044D01*
X65506762Y-91785044D01*
X65652841Y-91724536D01*
X65778282Y-91628282D01*
X65874536Y-91502841D01*
X65935044Y-91356762D01*
X65950500Y-91239361D01*
X65950499Y-90360640D01*
X65950499Y-90360638D01*
X65950499Y-90360636D01*
X65935046Y-90243246D01*
X65935044Y-90243239D01*
X65935044Y-90243238D01*
X65874536Y-90097159D01*
X65778282Y-89971718D01*
X65652841Y-89875464D01*
X65590158Y-89849500D01*
X65506762Y-89814956D01*
X65506760Y-89814955D01*
X65389370Y-89799501D01*
X65389367Y-89799500D01*
X65389361Y-89799500D01*
X65389354Y-89799500D01*
X64924500Y-89799500D01*
X64857461Y-89779815D01*
X64811706Y-89727011D01*
X64800500Y-89675500D01*
X64800500Y-89381006D01*
X64793121Y-89343914D01*
X64793121Y-89343911D01*
X64773581Y-89245679D01*
X64773580Y-89245672D01*
X64767831Y-89231792D01*
X64720777Y-89118192D01*
X64644112Y-89003454D01*
X63396545Y-87755887D01*
X63281807Y-87679222D01*
X63154332Y-87626421D01*
X63154322Y-87626418D01*
X63018996Y-87599500D01*
X63018994Y-87599500D01*
X63018993Y-87599500D01*
X54956079Y-87599500D01*
X54889040Y-87579815D01*
X54856308Y-87549133D01*
X54822151Y-87502851D01*
X54822150Y-87502850D01*
X54715676Y-87424269D01*
X54673427Y-87368623D01*
X54667968Y-87298967D01*
X54701035Y-87237417D01*
X54762129Y-87203516D01*
X54789311Y-87200500D01*
X69175500Y-87200500D01*
X69242539Y-87220185D01*
X69288294Y-87272989D01*
X69299500Y-87324500D01*
X69299500Y-105606786D01*
X69279815Y-105673825D01*
X69227011Y-105719580D01*
X69157853Y-105729524D01*
X69100575Y-105705590D01*
X69022099Y-105646080D01*
X68881445Y-105590613D01*
X68793064Y-105580000D01*
X67725000Y-105580000D01*
X67725000Y-111980000D01*
X68793060Y-111980000D01*
X68860220Y-111971934D01*
X68860220Y-111971936D01*
X68860234Y-111971931D01*
X68881445Y-111969386D01*
X69022097Y-111913920D01*
X69100574Y-111854409D01*
X69165886Y-111829586D01*
X69234250Y-111844014D01*
X69283961Y-111893111D01*
X69299500Y-111953213D01*
X69299500Y-126075500D01*
X69279815Y-126142539D01*
X69227011Y-126188294D01*
X69175500Y-126199500D01*
X64794808Y-126199500D01*
X64727769Y-126179815D01*
X64682014Y-126127011D01*
X64672070Y-126057853D01*
X64701095Y-125994297D01*
X64744101Y-125964261D01*
X64743584Y-125963276D01*
X64900849Y-125880736D01*
X64900850Y-125880734D01*
X64900852Y-125880734D01*
X65028183Y-125767929D01*
X65124818Y-125627930D01*
X65185140Y-125468872D01*
X65205645Y-125300000D01*
X65185140Y-125131128D01*
X65124818Y-124972070D01*
X65028183Y-124832071D01*
X65028181Y-124832069D01*
X64959032Y-124770808D01*
X64921905Y-124711619D01*
X64922673Y-124641753D01*
X64961091Y-124583394D01*
X64984957Y-124567512D01*
X65013342Y-124553050D01*
X65103050Y-124463342D01*
X65160646Y-124350304D01*
X65160646Y-124350302D01*
X65160647Y-124350301D01*
X65175499Y-124256524D01*
X65175500Y-124256519D01*
X65175499Y-123793482D01*
X65165484Y-123730247D01*
X66449500Y-123730247D01*
X66449500Y-125469752D01*
X66461131Y-125528229D01*
X66461132Y-125528230D01*
X66505447Y-125594552D01*
X66571769Y-125638867D01*
X66571770Y-125638868D01*
X66630247Y-125650499D01*
X66630250Y-125650500D01*
X66630252Y-125650500D01*
X68369750Y-125650500D01*
X68369751Y-125650499D01*
X68384568Y-125647552D01*
X68428229Y-125638868D01*
X68428229Y-125638867D01*
X68428231Y-125638867D01*
X68494552Y-125594552D01*
X68538867Y-125528231D01*
X68538867Y-125528229D01*
X68538868Y-125528229D01*
X68550499Y-125469752D01*
X68550500Y-125469750D01*
X68550500Y-123730249D01*
X68550499Y-123730247D01*
X68538868Y-123671770D01*
X68538867Y-123671769D01*
X68494552Y-123605447D01*
X68428230Y-123561132D01*
X68428229Y-123561131D01*
X68369752Y-123549500D01*
X68369748Y-123549500D01*
X66630252Y-123549500D01*
X66630247Y-123549500D01*
X66571770Y-123561131D01*
X66571769Y-123561132D01*
X66505447Y-123605447D01*
X66461132Y-123671769D01*
X66461131Y-123671770D01*
X66449500Y-123730247D01*
X65165484Y-123730247D01*
X65160646Y-123699696D01*
X65103050Y-123586658D01*
X65103046Y-123586654D01*
X65103045Y-123586652D01*
X65013347Y-123496954D01*
X65013344Y-123496952D01*
X65013342Y-123496950D01*
X64929219Y-123454087D01*
X64900301Y-123439352D01*
X64806524Y-123424500D01*
X64193482Y-123424500D01*
X64112519Y-123437323D01*
X64099696Y-123439354D01*
X63986658Y-123496950D01*
X63986657Y-123496951D01*
X63986652Y-123496954D01*
X63896954Y-123586652D01*
X63896951Y-123586657D01*
X63896950Y-123586658D01*
X63887376Y-123605448D01*
X63839352Y-123699698D01*
X63824500Y-123793475D01*
X63824500Y-124256517D01*
X63830201Y-124292509D01*
X63839354Y-124350304D01*
X63896950Y-124463342D01*
X63896952Y-124463344D01*
X63896954Y-124463347D01*
X63986652Y-124553045D01*
X63986656Y-124553048D01*
X63986658Y-124553050D01*
X64015036Y-124567509D01*
X64065831Y-124615482D01*
X64082626Y-124683303D01*
X64060089Y-124749438D01*
X64040968Y-124770808D01*
X63971816Y-124832071D01*
X63875182Y-124972068D01*
X63814860Y-125131125D01*
X63814859Y-125131130D01*
X63794355Y-125300000D01*
X63814859Y-125468869D01*
X63814860Y-125468874D01*
X63875182Y-125627931D01*
X63930097Y-125707487D01*
X63971817Y-125767929D01*
X64019604Y-125810264D01*
X64099150Y-125880736D01*
X64256416Y-125963276D01*
X64255749Y-125964544D01*
X64304866Y-126001736D01*
X64328923Y-126067334D01*
X64313696Y-126135524D01*
X64264020Y-126184657D01*
X64205192Y-126199500D01*
X43124500Y-126199500D01*
X43057461Y-126179815D01*
X43011706Y-126127011D01*
X43000500Y-126075500D01*
X43000500Y-123989999D01*
X43735487Y-123989999D01*
X43735488Y-123990000D01*
X44426988Y-123990000D01*
X44394075Y-124047007D01*
X44360000Y-124174174D01*
X44360000Y-124305826D01*
X44394075Y-124432993D01*
X44426988Y-124490000D01*
X43735488Y-124490000D01*
X43783062Y-124657205D01*
X43783067Y-124657218D01*
X43878061Y-124847991D01*
X44006500Y-125018071D01*
X44164000Y-125161651D01*
X44164002Y-125161653D01*
X44345201Y-125273846D01*
X44345207Y-125273849D01*
X44543941Y-125350838D01*
X44610000Y-125363186D01*
X44610000Y-124673012D01*
X44667007Y-124705925D01*
X44794174Y-124740000D01*
X44925826Y-124740000D01*
X45052993Y-124705925D01*
X45110000Y-124673012D01*
X45110000Y-125363185D01*
X45176058Y-125350838D01*
X45374792Y-125273849D01*
X45374798Y-125273846D01*
X45555997Y-125161653D01*
X45555999Y-125161651D01*
X45713499Y-125018071D01*
X45841938Y-124847991D01*
X45936932Y-124657218D01*
X45936937Y-124657205D01*
X45984512Y-124490000D01*
X45293012Y-124490000D01*
X45325925Y-124432993D01*
X45360000Y-124305826D01*
X45360000Y-124240000D01*
X46344417Y-124240000D01*
X46364699Y-124445932D01*
X46369982Y-124463347D01*
X46424768Y-124643954D01*
X46522315Y-124826450D01*
X46526928Y-124832071D01*
X46653589Y-124986410D01*
X46692169Y-125018071D01*
X46813550Y-125117685D01*
X46996046Y-125215232D01*
X47194066Y-125275300D01*
X47194065Y-125275300D01*
X47212529Y-125277118D01*
X47400000Y-125295583D01*
X47605934Y-125275300D01*
X47803954Y-125215232D01*
X47986450Y-125117685D01*
X48146410Y-124986410D01*
X48277685Y-124826450D01*
X48375232Y-124643954D01*
X48435300Y-124445934D01*
X48455583Y-124240000D01*
X48435300Y-124034066D01*
X48375232Y-123836046D01*
X48277685Y-123653550D01*
X48225702Y-123590209D01*
X48146410Y-123493589D01*
X47986452Y-123362317D01*
X47986453Y-123362317D01*
X47986450Y-123362315D01*
X47803954Y-123264768D01*
X47605934Y-123204700D01*
X47605932Y-123204699D01*
X47605934Y-123204699D01*
X47400000Y-123184417D01*
X47194067Y-123204699D01*
X46996043Y-123264769D01*
X46895809Y-123318346D01*
X46813550Y-123362315D01*
X46813548Y-123362316D01*
X46813547Y-123362317D01*
X46653589Y-123493589D01*
X46522317Y-123653547D01*
X46424769Y-123836043D01*
X46364699Y-124034067D01*
X46344417Y-124240000D01*
X45360000Y-124240000D01*
X45360000Y-124174174D01*
X45325925Y-124047007D01*
X45293012Y-123990000D01*
X45984512Y-123990000D01*
X45984512Y-123989999D01*
X45936937Y-123822794D01*
X45936932Y-123822781D01*
X45841938Y-123632008D01*
X45713499Y-123461928D01*
X45555999Y-123318348D01*
X45555997Y-123318346D01*
X45374798Y-123206153D01*
X45374789Y-123206149D01*
X45176063Y-123129163D01*
X45176058Y-123129162D01*
X45110000Y-123116813D01*
X45110000Y-123806988D01*
X45052993Y-123774075D01*
X44925826Y-123740000D01*
X44794174Y-123740000D01*
X44667007Y-123774075D01*
X44610000Y-123806988D01*
X44610000Y-123116813D01*
X44543941Y-123129162D01*
X44543936Y-123129163D01*
X44345210Y-123206149D01*
X44345201Y-123206153D01*
X44164002Y-123318346D01*
X44164000Y-123318348D01*
X44006500Y-123461928D01*
X43878061Y-123632008D01*
X43783067Y-123822781D01*
X43783062Y-123822794D01*
X43735487Y-123989999D01*
X43000500Y-123989999D01*
X43000500Y-121700000D01*
X43804417Y-121700000D01*
X43824699Y-121905932D01*
X43842065Y-121963181D01*
X43884768Y-122103954D01*
X43982315Y-122286450D01*
X44016969Y-122328677D01*
X44113589Y-122446410D01*
X44185839Y-122505703D01*
X44273550Y-122577685D01*
X44456046Y-122675232D01*
X44654066Y-122735300D01*
X44654065Y-122735300D01*
X44669488Y-122736819D01*
X44860000Y-122755583D01*
X45065934Y-122735300D01*
X45263954Y-122675232D01*
X45446450Y-122577685D01*
X45606410Y-122446410D01*
X45737685Y-122286450D01*
X45835232Y-122103954D01*
X45895300Y-121905934D01*
X45915583Y-121700000D01*
X45895300Y-121494066D01*
X45835232Y-121296046D01*
X45737685Y-121113550D01*
X45664768Y-121024700D01*
X45606410Y-120953589D01*
X45480794Y-120850500D01*
X45446450Y-120822315D01*
X45263954Y-120724768D01*
X45065934Y-120664700D01*
X45065932Y-120664699D01*
X45065934Y-120664699D01*
X44860000Y-120644417D01*
X44654067Y-120664699D01*
X44456043Y-120724769D01*
X44351342Y-120780734D01*
X44273550Y-120822315D01*
X44273548Y-120822316D01*
X44273547Y-120822317D01*
X44113589Y-120953589D01*
X43994710Y-121098446D01*
X43982315Y-121113550D01*
X43964290Y-121147273D01*
X43884769Y-121296043D01*
X43824699Y-121494067D01*
X43804417Y-121700000D01*
X43000500Y-121700000D01*
X43000500Y-119160000D01*
X43804417Y-119160000D01*
X43824699Y-119365932D01*
X43842237Y-119423747D01*
X43884768Y-119563954D01*
X43982315Y-119746450D01*
X44016969Y-119788677D01*
X44113589Y-119906410D01*
X44208265Y-119984107D01*
X44273550Y-120037685D01*
X44456046Y-120135232D01*
X44654066Y-120195300D01*
X44654065Y-120195300D01*
X44672529Y-120197118D01*
X44860000Y-120215583D01*
X45065934Y-120195300D01*
X45196581Y-120155668D01*
X45266447Y-120155046D01*
X45320256Y-120186649D01*
X45829519Y-120695912D01*
X45829520Y-120695913D01*
X45904087Y-120770480D01*
X45995413Y-120823207D01*
X46097273Y-120850500D01*
X46202726Y-120850500D01*
X46476018Y-120850500D01*
X46543057Y-120870185D01*
X46588812Y-120922989D01*
X46598756Y-120992147D01*
X46571871Y-121053165D01*
X46522317Y-121113546D01*
X46424769Y-121296043D01*
X46364699Y-121494067D01*
X46344417Y-121700000D01*
X46364699Y-121905932D01*
X46382065Y-121963181D01*
X46424768Y-122103954D01*
X46522315Y-122286450D01*
X46556969Y-122328677D01*
X46653589Y-122446410D01*
X46725839Y-122505703D01*
X46813550Y-122577685D01*
X46996046Y-122675232D01*
X47194066Y-122735300D01*
X47194065Y-122735300D01*
X47209488Y-122736819D01*
X47400000Y-122755583D01*
X47605934Y-122735300D01*
X47736581Y-122695668D01*
X47806447Y-122695046D01*
X47860256Y-122726649D01*
X48879519Y-123745912D01*
X48879520Y-123745913D01*
X48954087Y-123820480D01*
X49045413Y-123873207D01*
X49147273Y-123900500D01*
X51682745Y-123900500D01*
X51749784Y-123920185D01*
X51770426Y-123936819D01*
X52063181Y-124229574D01*
X52096666Y-124290897D01*
X52099500Y-124317255D01*
X52099500Y-125682356D01*
X52099502Y-125682382D01*
X52102413Y-125707487D01*
X52102415Y-125707491D01*
X52147793Y-125810264D01*
X52147794Y-125810265D01*
X52227235Y-125889706D01*
X52330009Y-125935085D01*
X52355135Y-125938000D01*
X52644864Y-125937999D01*
X52644879Y-125937997D01*
X52644882Y-125937997D01*
X52669987Y-125935086D01*
X52669987Y-125935085D01*
X52669991Y-125935085D01*
X52772765Y-125889706D01*
X52772766Y-125889704D01*
X52774912Y-125888757D01*
X52844190Y-125879685D01*
X52875085Y-125888757D01*
X52980004Y-125935083D01*
X52980009Y-125935085D01*
X53005135Y-125938000D01*
X53294864Y-125937999D01*
X53294879Y-125937997D01*
X53294882Y-125937997D01*
X53319987Y-125935086D01*
X53319987Y-125935085D01*
X53319991Y-125935085D01*
X53422765Y-125889706D01*
X53422766Y-125889704D01*
X53424912Y-125888757D01*
X53494190Y-125879685D01*
X53525085Y-125888757D01*
X53630004Y-125935083D01*
X53630009Y-125935085D01*
X53655135Y-125938000D01*
X53944864Y-125937999D01*
X53944879Y-125937997D01*
X53944882Y-125937997D01*
X53969987Y-125935086D01*
X53969987Y-125935085D01*
X53969991Y-125935085D01*
X54072765Y-125889706D01*
X54072766Y-125889704D01*
X54074912Y-125888757D01*
X54144190Y-125879685D01*
X54175085Y-125888757D01*
X54280004Y-125935083D01*
X54280009Y-125935085D01*
X54305135Y-125938000D01*
X54594864Y-125937999D01*
X54594879Y-125937997D01*
X54594882Y-125937997D01*
X54619987Y-125935086D01*
X54619987Y-125935085D01*
X54619991Y-125935085D01*
X54722765Y-125889706D01*
X54722766Y-125889704D01*
X54724912Y-125888757D01*
X54794190Y-125879685D01*
X54825085Y-125888757D01*
X54930004Y-125935083D01*
X54930009Y-125935085D01*
X54955135Y-125938000D01*
X55244864Y-125937999D01*
X55244879Y-125937997D01*
X55244882Y-125937997D01*
X55269987Y-125935086D01*
X55269987Y-125935085D01*
X55269991Y-125935085D01*
X55372765Y-125889706D01*
X55372766Y-125889704D01*
X55374912Y-125888757D01*
X55444190Y-125879685D01*
X55475085Y-125888757D01*
X55580004Y-125935083D01*
X55580009Y-125935085D01*
X55605135Y-125938000D01*
X55894864Y-125937999D01*
X55894879Y-125937997D01*
X55894882Y-125937997D01*
X55919987Y-125935086D01*
X55919987Y-125935085D01*
X55919991Y-125935085D01*
X56022765Y-125889706D01*
X56022766Y-125889704D01*
X56024912Y-125888757D01*
X56094190Y-125879685D01*
X56125085Y-125888757D01*
X56230004Y-125935083D01*
X56230009Y-125935085D01*
X56255135Y-125938000D01*
X56544864Y-125937999D01*
X56544879Y-125937997D01*
X56544882Y-125937997D01*
X56569987Y-125935086D01*
X56569987Y-125935085D01*
X56569991Y-125935085D01*
X56672765Y-125889706D01*
X56672766Y-125889704D01*
X56674912Y-125888757D01*
X56744190Y-125879685D01*
X56775085Y-125888757D01*
X56880004Y-125935083D01*
X56880009Y-125935085D01*
X56905135Y-125938000D01*
X57194864Y-125937999D01*
X57194879Y-125937997D01*
X57194882Y-125937997D01*
X57219987Y-125935086D01*
X57219987Y-125935085D01*
X57219991Y-125935085D01*
X57322765Y-125889706D01*
X57322766Y-125889704D01*
X57324912Y-125888757D01*
X57394190Y-125879685D01*
X57425085Y-125888757D01*
X57530004Y-125935083D01*
X57530009Y-125935085D01*
X57555135Y-125938000D01*
X57844864Y-125937999D01*
X57844879Y-125937997D01*
X57844882Y-125937997D01*
X57869987Y-125935086D01*
X57869987Y-125935085D01*
X57869991Y-125935085D01*
X57972765Y-125889706D01*
X57972766Y-125889704D01*
X57974912Y-125888757D01*
X58044190Y-125879685D01*
X58075085Y-125888757D01*
X58180004Y-125935083D01*
X58180009Y-125935085D01*
X58205135Y-125938000D01*
X58494864Y-125937999D01*
X58494879Y-125937997D01*
X58494882Y-125937997D01*
X58519987Y-125935086D01*
X58519988Y-125935085D01*
X58519991Y-125935085D01*
X58622765Y-125889706D01*
X58702206Y-125810265D01*
X58747585Y-125707491D01*
X58750500Y-125682365D01*
X58750500Y-125424500D01*
X58770185Y-125357461D01*
X58822989Y-125311706D01*
X58874500Y-125300500D01*
X59160194Y-125300500D01*
X59227233Y-125320185D01*
X59262244Y-125354060D01*
X59271816Y-125367928D01*
X59399150Y-125480736D01*
X59549773Y-125559789D01*
X59549775Y-125559790D01*
X59714944Y-125600500D01*
X59885056Y-125600500D01*
X60050225Y-125559790D01*
X60129692Y-125518081D01*
X60200849Y-125480736D01*
X60200850Y-125480734D01*
X60200852Y-125480734D01*
X60328183Y-125367929D01*
X60424818Y-125227930D01*
X60485140Y-125068872D01*
X60505645Y-124900000D01*
X60485140Y-124731128D01*
X60480641Y-124719266D01*
X60439448Y-124610646D01*
X60424818Y-124572070D01*
X60421668Y-124567507D01*
X60349768Y-124463342D01*
X60328183Y-124432071D01*
X60200852Y-124319266D01*
X60200849Y-124319264D01*
X60198650Y-124317316D01*
X60161523Y-124258126D01*
X60162291Y-124188261D01*
X60200708Y-124129901D01*
X60264579Y-124101576D01*
X60280877Y-124100500D01*
X60852725Y-124100500D01*
X60852727Y-124100500D01*
X60954588Y-124073207D01*
X61045913Y-124020480D01*
X62329574Y-122736819D01*
X62390897Y-122703334D01*
X62417255Y-122700500D01*
X62792725Y-122700500D01*
X62792727Y-122700500D01*
X62894588Y-122673207D01*
X62985913Y-122620480D01*
X63622693Y-121983699D01*
X63684015Y-121950215D01*
X63753706Y-121955199D01*
X63809640Y-121997070D01*
X63834057Y-122062535D01*
X63832846Y-122090778D01*
X63824500Y-122143474D01*
X63824500Y-122606517D01*
X63826712Y-122620480D01*
X63839354Y-122700304D01*
X63896950Y-122813342D01*
X63896952Y-122813344D01*
X63896954Y-122813347D01*
X63986652Y-122903045D01*
X63986654Y-122903046D01*
X63986658Y-122903050D01*
X64099694Y-122960645D01*
X64099698Y-122960647D01*
X64193475Y-122975499D01*
X64193481Y-122975500D01*
X64806518Y-122975499D01*
X64900304Y-122960646D01*
X65013342Y-122903050D01*
X65103050Y-122813342D01*
X65160646Y-122700304D01*
X65160646Y-122700302D01*
X65160647Y-122700301D01*
X65175499Y-122606524D01*
X65175500Y-122606519D01*
X65175499Y-122143482D01*
X65162278Y-122060000D01*
X66444417Y-122060000D01*
X66464699Y-122265932D01*
X66494734Y-122364944D01*
X66524768Y-122463954D01*
X66622315Y-122646450D01*
X66622317Y-122646452D01*
X66753589Y-122806410D01*
X66850209Y-122885702D01*
X66913550Y-122937685D01*
X67096046Y-123035232D01*
X67294066Y-123095300D01*
X67294065Y-123095300D01*
X67312529Y-123097118D01*
X67500000Y-123115583D01*
X67705934Y-123095300D01*
X67903954Y-123035232D01*
X68086450Y-122937685D01*
X68246410Y-122806410D01*
X68377685Y-122646450D01*
X68475232Y-122463954D01*
X68535300Y-122265934D01*
X68555583Y-122060000D01*
X68535300Y-121854066D01*
X68475232Y-121656046D01*
X68377685Y-121473550D01*
X68317734Y-121400499D01*
X68246410Y-121313589D01*
X68086452Y-121182317D01*
X68086453Y-121182317D01*
X68086450Y-121182315D01*
X67903954Y-121084768D01*
X67705934Y-121024700D01*
X67705932Y-121024699D01*
X67705934Y-121024699D01*
X67500000Y-121004417D01*
X67294067Y-121024699D01*
X67096043Y-121084769D01*
X67017423Y-121126793D01*
X66913550Y-121182315D01*
X66913548Y-121182316D01*
X66913547Y-121182317D01*
X66753589Y-121313589D01*
X66622317Y-121473547D01*
X66622315Y-121473550D01*
X66600353Y-121514638D01*
X66524769Y-121656043D01*
X66464699Y-121854067D01*
X66444417Y-122060000D01*
X65162278Y-122060000D01*
X65160646Y-122049696D01*
X65103050Y-121936658D01*
X65103046Y-121936654D01*
X65103045Y-121936652D01*
X65039758Y-121873365D01*
X65006273Y-121812042D01*
X65011257Y-121742350D01*
X65039756Y-121698005D01*
X65825475Y-120912286D01*
X65886796Y-120878803D01*
X65942827Y-120879571D01*
X66027736Y-120900500D01*
X66197848Y-120900500D01*
X66363017Y-120859790D01*
X66442484Y-120818081D01*
X66513641Y-120780736D01*
X66513642Y-120780734D01*
X66513644Y-120780734D01*
X66640975Y-120667929D01*
X66737610Y-120527930D01*
X66797932Y-120368872D01*
X66818437Y-120200000D01*
X66797932Y-120031128D01*
X66737610Y-119872070D01*
X66720191Y-119846835D01*
X66650902Y-119746453D01*
X66640975Y-119732071D01*
X66546108Y-119648026D01*
X66513641Y-119619263D01*
X66363287Y-119540351D01*
X66313074Y-119491766D01*
X66297100Y-119423747D01*
X66320435Y-119357890D01*
X66375672Y-119315103D01*
X66445272Y-119308971D01*
X66456890Y-119311889D01*
X66534066Y-119335300D01*
X66740000Y-119355583D01*
X66945934Y-119335300D01*
X67143954Y-119275232D01*
X67326450Y-119177685D01*
X67486410Y-119046410D01*
X67617685Y-118886450D01*
X67715232Y-118703954D01*
X67775300Y-118505934D01*
X67795583Y-118300000D01*
X67775300Y-118094066D01*
X67715232Y-117896046D01*
X67617685Y-117713550D01*
X67547156Y-117627610D01*
X67486410Y-117553589D01*
X67326452Y-117422317D01*
X67326453Y-117422317D01*
X67326450Y-117422315D01*
X67143954Y-117324768D01*
X66945934Y-117264700D01*
X66945932Y-117264699D01*
X66945934Y-117264699D01*
X66740000Y-117244417D01*
X66534067Y-117264699D01*
X66336043Y-117324769D01*
X66264016Y-117363269D01*
X66153550Y-117422315D01*
X66153548Y-117422316D01*
X66153547Y-117422317D01*
X65993589Y-117553589D01*
X65862317Y-117713547D01*
X65764769Y-117896043D01*
X65704699Y-118094067D01*
X65684417Y-118300000D01*
X65704699Y-118505932D01*
X65744330Y-118636579D01*
X65744953Y-118706446D01*
X65713350Y-118760255D01*
X62610426Y-121863181D01*
X62549103Y-121896666D01*
X62522745Y-121899500D01*
X62147273Y-121899500D01*
X62045408Y-121926794D01*
X62045404Y-121926795D01*
X62022718Y-121939894D01*
X61954818Y-121956367D01*
X61888791Y-121933514D01*
X61845601Y-121878593D01*
X61838960Y-121809039D01*
X61870976Y-121746937D01*
X61873011Y-121744852D01*
X64237714Y-119380149D01*
X64299035Y-119346666D01*
X64313234Y-119344429D01*
X64405934Y-119335300D01*
X64603954Y-119275232D01*
X64786450Y-119177685D01*
X64946410Y-119046410D01*
X65077685Y-118886450D01*
X65175232Y-118703954D01*
X65235300Y-118505934D01*
X65255583Y-118300000D01*
X65235300Y-118094066D01*
X65175232Y-117896046D01*
X65077685Y-117713550D01*
X65007156Y-117627610D01*
X64946410Y-117553589D01*
X64786452Y-117422317D01*
X64786453Y-117422317D01*
X64786450Y-117422315D01*
X64603954Y-117324768D01*
X64405934Y-117264700D01*
X64405932Y-117264699D01*
X64405934Y-117264699D01*
X64200000Y-117244417D01*
X63994067Y-117264699D01*
X63796043Y-117324769D01*
X63724016Y-117363269D01*
X63613550Y-117422315D01*
X63613548Y-117422316D01*
X63613547Y-117422317D01*
X63453589Y-117553589D01*
X63322317Y-117713547D01*
X63224769Y-117896043D01*
X63164699Y-118094067D01*
X63144417Y-118300000D01*
X63164699Y-118505932D01*
X63179523Y-118554801D01*
X63224768Y-118703954D01*
X63297231Y-118839522D01*
X63322317Y-118886453D01*
X63375566Y-118951337D01*
X63402879Y-119015647D01*
X63391088Y-119084515D01*
X63367394Y-119117683D01*
X62272181Y-120212897D01*
X62210858Y-120246382D01*
X62141166Y-120241398D01*
X62085233Y-120199526D01*
X62060816Y-120134062D01*
X62060500Y-120125216D01*
X62060500Y-119351400D01*
X62080185Y-119284361D01*
X62126046Y-119242042D01*
X62246450Y-119177685D01*
X62406410Y-119046410D01*
X62537685Y-118886450D01*
X62635232Y-118703954D01*
X62695300Y-118505934D01*
X62715583Y-118300000D01*
X62695300Y-118094066D01*
X62635232Y-117896046D01*
X62537685Y-117713550D01*
X62467156Y-117627610D01*
X62406410Y-117553589D01*
X62246452Y-117422317D01*
X62246453Y-117422317D01*
X62246450Y-117422315D01*
X62063954Y-117324768D01*
X61865934Y-117264700D01*
X61865932Y-117264699D01*
X61865934Y-117264699D01*
X61660000Y-117244417D01*
X61454067Y-117264699D01*
X61256043Y-117324769D01*
X61184016Y-117363269D01*
X61073550Y-117422315D01*
X61073548Y-117422316D01*
X61073547Y-117422317D01*
X60913589Y-117553589D01*
X60782317Y-117713547D01*
X60684769Y-117896043D01*
X60624699Y-118094067D01*
X60604417Y-118300000D01*
X60624699Y-118505932D01*
X60639523Y-118554801D01*
X60684768Y-118703954D01*
X60782315Y-118886450D01*
X60816969Y-118928677D01*
X60913589Y-119046410D01*
X61073548Y-119177684D01*
X61073550Y-119177685D01*
X61193953Y-119242042D01*
X61243798Y-119291004D01*
X61259500Y-119351400D01*
X61259500Y-120022745D01*
X61239815Y-120089784D01*
X61223181Y-120110426D01*
X60100589Y-121233017D01*
X60039266Y-121266502D01*
X59969574Y-121261518D01*
X59913641Y-121219646D01*
X59889224Y-121154182D01*
X59889811Y-121130396D01*
X59905645Y-121000000D01*
X59885140Y-120831128D01*
X59881798Y-120822317D01*
X59824817Y-120672068D01*
X59790476Y-120622318D01*
X59728183Y-120532071D01*
X59624309Y-120440047D01*
X59600849Y-120419263D01*
X59450226Y-120340210D01*
X59285056Y-120299500D01*
X59117254Y-120299500D01*
X59050215Y-120279815D01*
X59029573Y-120263181D01*
X58786819Y-120020426D01*
X58753334Y-119959103D01*
X58750500Y-119932745D01*
X58750500Y-119212284D01*
X58750499Y-119212270D01*
X58750499Y-118592643D01*
X58750499Y-118592636D01*
X58750497Y-118592617D01*
X58747586Y-118567512D01*
X58747585Y-118567510D01*
X58747585Y-118567509D01*
X58702206Y-118464735D01*
X58622765Y-118385294D01*
X58599499Y-118375021D01*
X58519992Y-118339915D01*
X58494865Y-118337000D01*
X58205143Y-118337000D01*
X58205117Y-118337002D01*
X58180013Y-118339913D01*
X58112021Y-118369934D01*
X58077238Y-118385293D01*
X58075086Y-118386243D01*
X58005807Y-118395314D01*
X57974914Y-118386243D01*
X57972765Y-118385294D01*
X57869991Y-118339915D01*
X57844865Y-118337000D01*
X57555143Y-118337000D01*
X57555117Y-118337002D01*
X57530013Y-118339913D01*
X57462021Y-118369934D01*
X57427238Y-118385293D01*
X57425086Y-118386243D01*
X57355807Y-118395314D01*
X57324914Y-118386243D01*
X57322765Y-118385294D01*
X57219991Y-118339915D01*
X57213709Y-118339186D01*
X57194868Y-118337000D01*
X57194865Y-118337000D01*
X57074500Y-118337000D01*
X57007461Y-118317315D01*
X56961706Y-118264511D01*
X56950500Y-118213000D01*
X56950500Y-118057098D01*
X56954724Y-118025009D01*
X56975500Y-117947475D01*
X56975500Y-117875205D01*
X56995185Y-117808166D01*
X56998414Y-117803441D01*
X56998525Y-117803222D01*
X56998528Y-117803220D01*
X57035397Y-117730859D01*
X57083370Y-117680065D01*
X57151191Y-117663269D01*
X57217326Y-117685806D01*
X57260778Y-117740521D01*
X57261235Y-117741665D01*
X57288074Y-117809723D01*
X57288077Y-117809729D01*
X57375278Y-117924721D01*
X57490270Y-118011922D01*
X57624532Y-118064868D01*
X57708898Y-118075000D01*
X57725000Y-118075000D01*
X58225000Y-118075000D01*
X58241102Y-118075000D01*
X58325467Y-118064868D01*
X58325468Y-118064868D01*
X58459729Y-118011922D01*
X58574721Y-117924721D01*
X58661922Y-117809729D01*
X58714868Y-117675468D01*
X58714868Y-117675467D01*
X58725000Y-117591102D01*
X58725000Y-117550000D01*
X58225000Y-117550000D01*
X58225000Y-118075000D01*
X57725000Y-118075000D01*
X57725000Y-116514457D01*
X57704196Y-116476358D01*
X57709180Y-116406666D01*
X57722756Y-116385542D01*
X58225000Y-116385542D01*
X58245804Y-116423642D01*
X58240820Y-116493334D01*
X58225000Y-116517949D01*
X58225000Y-117050000D01*
X58725000Y-117050000D01*
X58725000Y-117008897D01*
X58714868Y-116924532D01*
X58714868Y-116924531D01*
X58661922Y-116790270D01*
X58574721Y-116675278D01*
X58459729Y-116588077D01*
X58459727Y-116588076D01*
X58402109Y-116565355D01*
X58346964Y-116522449D01*
X58323771Y-116456542D01*
X58339891Y-116388557D01*
X58390208Y-116340080D01*
X58402109Y-116334645D01*
X58459727Y-116311923D01*
X58459729Y-116311922D01*
X58574721Y-116224721D01*
X58661922Y-116109729D01*
X58714868Y-115975468D01*
X58714868Y-115975467D01*
X58725000Y-115891102D01*
X58725000Y-115850000D01*
X58225000Y-115850000D01*
X58225000Y-116385542D01*
X57722756Y-116385542D01*
X57725000Y-116382050D01*
X57725000Y-115724000D01*
X57744685Y-115656961D01*
X57797489Y-115611206D01*
X57849000Y-115600000D01*
X57975000Y-115600000D01*
X57975000Y-115474000D01*
X57994685Y-115406961D01*
X58047489Y-115361206D01*
X58099000Y-115350000D01*
X58725000Y-115350000D01*
X58725000Y-115308897D01*
X58714868Y-115224532D01*
X58714868Y-115224531D01*
X58661922Y-115090270D01*
X58574721Y-114975278D01*
X58459729Y-114888077D01*
X58337445Y-114839855D01*
X58282301Y-114796949D01*
X58259108Y-114731041D01*
X58275228Y-114663057D01*
X58325545Y-114614580D01*
X58382935Y-114600500D01*
X59499903Y-114600500D01*
X59566942Y-114620185D01*
X59587584Y-114636819D01*
X60572481Y-115621716D01*
X60605966Y-115683039D01*
X60608203Y-115721548D01*
X60604417Y-115759997D01*
X60604417Y-115759999D01*
X60624699Y-115965932D01*
X60638067Y-116010000D01*
X60684768Y-116163954D01*
X60782315Y-116346450D01*
X60807839Y-116377551D01*
X60913589Y-116506410D01*
X60985415Y-116565355D01*
X61073550Y-116637685D01*
X61256046Y-116735232D01*
X61454066Y-116795300D01*
X61454065Y-116795300D01*
X61472529Y-116797118D01*
X61660000Y-116815583D01*
X61865934Y-116795300D01*
X62063954Y-116735232D01*
X62246450Y-116637685D01*
X62406410Y-116506410D01*
X62537685Y-116346450D01*
X62635232Y-116163954D01*
X62695300Y-115965934D01*
X62715583Y-115760000D01*
X63144417Y-115760000D01*
X63164699Y-115965932D01*
X63178067Y-116010000D01*
X63224768Y-116163954D01*
X63322315Y-116346450D01*
X63347839Y-116377551D01*
X63453589Y-116506410D01*
X63525415Y-116565355D01*
X63613550Y-116637685D01*
X63796046Y-116735232D01*
X63994066Y-116795300D01*
X63994065Y-116795300D01*
X64012529Y-116797118D01*
X64200000Y-116815583D01*
X64405934Y-116795300D01*
X64603954Y-116735232D01*
X64786450Y-116637685D01*
X64946410Y-116506410D01*
X65077685Y-116346450D01*
X65175232Y-116163954D01*
X65235300Y-115965934D01*
X65255583Y-115760000D01*
X65235300Y-115554066D01*
X65175232Y-115356046D01*
X65077685Y-115173550D01*
X65025702Y-115110209D01*
X64946410Y-115013589D01*
X64786452Y-114882317D01*
X64786453Y-114882317D01*
X64786450Y-114882315D01*
X64754440Y-114865205D01*
X65590000Y-114865205D01*
X65590000Y-115510000D01*
X66306988Y-115510000D01*
X66274075Y-115567007D01*
X66240000Y-115694174D01*
X66240000Y-115825826D01*
X66274075Y-115952993D01*
X66306988Y-116010000D01*
X65590001Y-116010000D01*
X65590001Y-116654785D01*
X65590002Y-116654808D01*
X65592908Y-116679869D01*
X65592909Y-116679873D01*
X65638211Y-116782474D01*
X65638214Y-116782479D01*
X65717520Y-116861785D01*
X65717525Y-116861788D01*
X65820123Y-116907089D01*
X65845206Y-116909999D01*
X66489999Y-116909999D01*
X66490000Y-116909998D01*
X66490000Y-116193012D01*
X66547007Y-116225925D01*
X66674174Y-116260000D01*
X66805826Y-116260000D01*
X66932993Y-116225925D01*
X66990000Y-116193012D01*
X66990000Y-116909999D01*
X67634786Y-116909999D01*
X67634808Y-116909997D01*
X67659869Y-116907091D01*
X67659873Y-116907090D01*
X67762474Y-116861788D01*
X67762479Y-116861785D01*
X67841785Y-116782479D01*
X67841788Y-116782474D01*
X67887089Y-116679877D01*
X67887089Y-116679875D01*
X67889999Y-116654794D01*
X67890000Y-116654791D01*
X67890000Y-116010000D01*
X67173012Y-116010000D01*
X67205925Y-115952993D01*
X67240000Y-115825826D01*
X67240000Y-115694174D01*
X67205925Y-115567007D01*
X67173012Y-115510000D01*
X67889999Y-115510000D01*
X67889999Y-114865214D01*
X67889997Y-114865191D01*
X67887091Y-114840130D01*
X67887090Y-114840126D01*
X67841788Y-114737525D01*
X67841785Y-114737520D01*
X67762479Y-114658214D01*
X67762474Y-114658211D01*
X67659876Y-114612910D01*
X67634794Y-114610000D01*
X66990000Y-114610000D01*
X66990000Y-115326988D01*
X66932993Y-115294075D01*
X66805826Y-115260000D01*
X66674174Y-115260000D01*
X66547007Y-115294075D01*
X66490000Y-115326988D01*
X66490000Y-114610000D01*
X65845214Y-114610000D01*
X65845191Y-114610002D01*
X65820130Y-114612908D01*
X65820126Y-114612909D01*
X65717525Y-114658211D01*
X65717520Y-114658214D01*
X65638214Y-114737520D01*
X65638211Y-114737525D01*
X65592910Y-114840122D01*
X65592910Y-114840124D01*
X65590000Y-114865205D01*
X64754440Y-114865205D01*
X64603954Y-114784768D01*
X64405934Y-114724700D01*
X64405932Y-114724699D01*
X64405934Y-114724699D01*
X64200000Y-114704417D01*
X63994067Y-114724699D01*
X63796043Y-114784769D01*
X63692986Y-114839855D01*
X63613550Y-114882315D01*
X63613548Y-114882316D01*
X63613547Y-114882317D01*
X63453589Y-115013589D01*
X63327127Y-115167686D01*
X63322315Y-115173550D01*
X63299158Y-115216874D01*
X63224769Y-115356043D01*
X63164699Y-115554067D01*
X63144417Y-115760000D01*
X62715583Y-115760000D01*
X62695300Y-115554066D01*
X62635232Y-115356046D01*
X62537685Y-115173550D01*
X62485702Y-115110209D01*
X62406410Y-115013589D01*
X62246452Y-114882317D01*
X62246453Y-114882317D01*
X62246450Y-114882315D01*
X62063954Y-114784768D01*
X61865934Y-114724700D01*
X61865932Y-114724699D01*
X61865934Y-114724699D01*
X61660000Y-114704417D01*
X61454058Y-114724700D01*
X61452221Y-114725066D01*
X61451240Y-114724978D01*
X61448004Y-114725297D01*
X61447943Y-114724682D01*
X61382630Y-114718831D01*
X61340362Y-114691127D01*
X60287590Y-113638355D01*
X60287588Y-113638352D01*
X60168717Y-113519481D01*
X60168712Y-113519477D01*
X60041006Y-113445747D01*
X60041004Y-113445746D01*
X60031785Y-113440423D01*
X59879057Y-113399499D01*
X59720943Y-113399499D01*
X59713347Y-113399499D01*
X59713331Y-113399500D01*
X58097042Y-113399500D01*
X58030003Y-113379815D01*
X57984248Y-113327011D01*
X57974304Y-113257853D01*
X58003329Y-113194297D01*
X58022118Y-113176695D01*
X58024721Y-113174720D01*
X58111922Y-113059729D01*
X58164868Y-112925468D01*
X58164868Y-112925467D01*
X58175000Y-112841102D01*
X58175000Y-112825000D01*
X57524000Y-112825000D01*
X57456961Y-112805315D01*
X57411206Y-112752511D01*
X57400000Y-112701000D01*
X57400000Y-112449000D01*
X57419685Y-112381961D01*
X57472489Y-112336206D01*
X57524000Y-112325000D01*
X58175000Y-112325000D01*
X58175000Y-112308897D01*
X58164868Y-112224532D01*
X58164868Y-112224531D01*
X58111922Y-112090270D01*
X58024721Y-111975278D01*
X57909729Y-111888077D01*
X57850841Y-111864855D01*
X57795697Y-111821949D01*
X57772504Y-111756041D01*
X57788624Y-111688056D01*
X57838941Y-111639580D01*
X57896331Y-111625500D01*
X58186541Y-111625500D01*
X58253580Y-111645185D01*
X58286309Y-111675864D01*
X58327850Y-111732150D01*
X58437118Y-111812793D01*
X58465048Y-111822566D01*
X58565299Y-111857646D01*
X58595730Y-111860500D01*
X58595734Y-111860500D01*
X60404270Y-111860500D01*
X60434699Y-111857646D01*
X60434701Y-111857646D01*
X60514890Y-111829586D01*
X60562882Y-111812793D01*
X60672150Y-111732150D01*
X60752793Y-111622882D01*
X60786018Y-111527930D01*
X60797646Y-111494701D01*
X60797646Y-111494699D01*
X60799676Y-111473053D01*
X62300000Y-111473053D01*
X62308065Y-111540217D01*
X62308065Y-111540218D01*
X62310614Y-111561445D01*
X62366080Y-111702099D01*
X62457433Y-111822566D01*
X62577900Y-111913919D01*
X62718554Y-111969386D01*
X62790018Y-111977968D01*
X62797778Y-111980000D01*
X62799521Y-111980000D01*
X62810211Y-111980639D01*
X62817631Y-111980000D01*
X63875000Y-111980000D01*
X64375000Y-111980000D01*
X65453050Y-111980000D01*
X65453062Y-111979999D01*
X65550000Y-111979999D01*
X66050000Y-111979999D01*
X66150806Y-111979999D01*
X66150826Y-111980000D01*
X67225000Y-111980000D01*
X67225000Y-110555000D01*
X66050000Y-110555000D01*
X66050000Y-111979999D01*
X65550000Y-111979999D01*
X65550000Y-110555000D01*
X64375000Y-110555000D01*
X64375000Y-111980000D01*
X63875000Y-111980000D01*
X63875000Y-110555000D01*
X62300000Y-110555000D01*
X62300000Y-111473053D01*
X60799676Y-111473053D01*
X60800500Y-111464269D01*
X60800500Y-110655730D01*
X60797646Y-110625300D01*
X60797646Y-110625298D01*
X60757020Y-110509199D01*
X60752793Y-110497118D01*
X60672150Y-110387850D01*
X60562882Y-110307207D01*
X60562880Y-110307206D01*
X60434700Y-110262353D01*
X60404270Y-110259500D01*
X60404266Y-110259500D01*
X58595734Y-110259500D01*
X58595730Y-110259500D01*
X58565300Y-110262353D01*
X58565298Y-110262353D01*
X58437119Y-110307206D01*
X58437117Y-110307207D01*
X58327848Y-110387851D01*
X58327512Y-110388188D01*
X58327053Y-110388438D01*
X58320374Y-110393368D01*
X58319698Y-110392453D01*
X58266186Y-110421668D01*
X58239837Y-110424500D01*
X57880055Y-110424500D01*
X57823762Y-110410986D01*
X57783122Y-110390279D01*
X57683493Y-110374500D01*
X57683488Y-110374500D01*
X57116512Y-110374500D01*
X57116507Y-110374500D01*
X57016877Y-110390279D01*
X56976238Y-110410986D01*
X56919945Y-110424500D01*
X56649501Y-110424500D01*
X56582462Y-110404815D01*
X56536707Y-110352011D01*
X56525501Y-110300500D01*
X56525501Y-110147984D01*
X56522433Y-110136533D01*
X56500586Y-110055000D01*
X62300000Y-110055000D01*
X63875000Y-110055000D01*
X64375000Y-110055000D01*
X65550000Y-110055000D01*
X66050000Y-110055000D01*
X67225000Y-110055000D01*
X67225000Y-107505000D01*
X66050000Y-107505000D01*
X66050000Y-110055000D01*
X65550000Y-110055000D01*
X65550000Y-109030000D01*
X64375000Y-109030000D01*
X64375000Y-110055000D01*
X63875000Y-110055000D01*
X63875000Y-109030000D01*
X62300000Y-109030000D01*
X62300000Y-110055000D01*
X56500586Y-110055000D01*
X56484577Y-109995256D01*
X56459136Y-109951191D01*
X56405524Y-109858330D01*
X56405518Y-109858322D01*
X55526503Y-108979308D01*
X55493018Y-108917985D01*
X55491716Y-108911057D01*
X55484719Y-108866874D01*
X55423528Y-108746780D01*
X55423526Y-108746778D01*
X55423523Y-108746774D01*
X55328225Y-108651476D01*
X55328221Y-108651473D01*
X55328220Y-108651472D01*
X55213566Y-108593053D01*
X55975000Y-108593053D01*
X55985613Y-108681443D01*
X56041079Y-108822095D01*
X56132435Y-108942564D01*
X56252904Y-109033920D01*
X56393556Y-109089386D01*
X56481946Y-109100000D01*
X56750000Y-109100000D01*
X57250000Y-109100000D01*
X57518054Y-109100000D01*
X57606443Y-109089386D01*
X57747095Y-109033920D01*
X57867564Y-108942564D01*
X57958920Y-108822095D01*
X58014386Y-108681443D01*
X58025000Y-108593053D01*
X58025000Y-108550000D01*
X57250000Y-108550000D01*
X57250000Y-109100000D01*
X56750000Y-109100000D01*
X56750000Y-108550000D01*
X55975000Y-108550000D01*
X55975000Y-108593053D01*
X55213566Y-108593053D01*
X55208126Y-108590281D01*
X55208124Y-108590280D01*
X55208121Y-108590279D01*
X55108493Y-108574500D01*
X55108488Y-108574500D01*
X54541512Y-108574500D01*
X54541507Y-108574500D01*
X54441878Y-108590279D01*
X54441874Y-108590280D01*
X54441874Y-108590281D01*
X54419903Y-108601476D01*
X54321778Y-108651473D01*
X54321774Y-108651476D01*
X54310070Y-108663181D01*
X54248747Y-108696666D01*
X54222389Y-108699500D01*
X52479239Y-108699500D01*
X52411108Y-108709426D01*
X52306014Y-108760803D01*
X52223303Y-108843514D01*
X52171926Y-108948608D01*
X52162000Y-109016739D01*
X52162000Y-109383260D01*
X52171926Y-109451391D01*
X52223303Y-109556485D01*
X52306014Y-109639196D01*
X52306015Y-109639196D01*
X52306017Y-109639198D01*
X52411107Y-109690573D01*
X52440139Y-109694803D01*
X52479239Y-109700500D01*
X52479240Y-109700500D01*
X52959108Y-109700500D01*
X54172390Y-109700500D01*
X54239429Y-109720185D01*
X54260066Y-109736814D01*
X54321780Y-109798528D01*
X54394140Y-109835397D01*
X54444935Y-109883370D01*
X54461730Y-109951191D01*
X54439193Y-110017326D01*
X54384478Y-110060778D01*
X54383335Y-110061235D01*
X54315274Y-110088075D01*
X54315270Y-110088077D01*
X54200278Y-110175278D01*
X54113077Y-110290270D01*
X54060131Y-110424531D01*
X54060131Y-110424532D01*
X54050000Y-110508897D01*
X54050000Y-110525000D01*
X54701000Y-110525000D01*
X54768039Y-110544685D01*
X54813794Y-110597489D01*
X54825000Y-110649000D01*
X54825000Y-110775000D01*
X54951000Y-110775000D01*
X55018039Y-110794685D01*
X55063794Y-110847489D01*
X55075000Y-110899000D01*
X55075000Y-111525000D01*
X55116100Y-111525000D01*
X55185713Y-111516639D01*
X55254621Y-111528188D01*
X55306347Y-111575159D01*
X55324500Y-111639754D01*
X55324500Y-112436478D01*
X55304815Y-112503517D01*
X55252011Y-112549272D01*
X55182853Y-112559216D01*
X55144206Y-112546963D01*
X55082969Y-112515761D01*
X55082966Y-112515760D01*
X54983456Y-112500000D01*
X54700000Y-112500000D01*
X54700000Y-112926000D01*
X54680315Y-112993039D01*
X54627511Y-113038794D01*
X54576000Y-113050000D01*
X54450000Y-113050000D01*
X54450000Y-113176000D01*
X54430315Y-113243039D01*
X54377511Y-113288794D01*
X54326000Y-113300000D01*
X53539500Y-113300000D01*
X53540762Y-113307970D01*
X53540763Y-113307973D01*
X53601881Y-113427921D01*
X53601886Y-113427928D01*
X53681635Y-113507677D01*
X53715120Y-113569000D01*
X53710136Y-113638692D01*
X53681635Y-113683039D01*
X53679253Y-113685420D01*
X53630740Y-113789456D01*
X53624500Y-113836859D01*
X53624500Y-114163132D01*
X53624501Y-114163138D01*
X53630741Y-114210545D01*
X53679253Y-114314579D01*
X53681639Y-114316965D01*
X53684171Y-114321603D01*
X53685475Y-114323465D01*
X53685267Y-114323610D01*
X53715121Y-114378290D01*
X53710133Y-114447981D01*
X53681635Y-114492323D01*
X53601883Y-114572075D01*
X53601881Y-114572078D01*
X53540763Y-114692026D01*
X53540762Y-114692029D01*
X53539500Y-114700000D01*
X54326000Y-114700000D01*
X54393039Y-114719685D01*
X54438794Y-114772489D01*
X54450000Y-114824000D01*
X54450000Y-114950000D01*
X54576000Y-114950000D01*
X54643039Y-114969685D01*
X54688794Y-115022489D01*
X54700000Y-115074000D01*
X54700000Y-115499999D01*
X54863536Y-115499999D01*
X54930575Y-115519684D01*
X54976330Y-115572488D01*
X54986274Y-115641646D01*
X54957249Y-115705202D01*
X54951217Y-115711680D01*
X54089513Y-116573383D01*
X54089511Y-116573386D01*
X54030199Y-116676114D01*
X53999501Y-116790689D01*
X53999501Y-116909310D01*
X54030201Y-117023888D01*
X54032884Y-117028534D01*
X54049500Y-117090539D01*
X54049500Y-118213000D01*
X54029815Y-118280039D01*
X53977011Y-118325794D01*
X53925500Y-118337000D01*
X53655143Y-118337000D01*
X53655117Y-118337002D01*
X53630013Y-118339913D01*
X53562021Y-118369934D01*
X53527238Y-118385293D01*
X53525086Y-118386243D01*
X53455807Y-118395314D01*
X53424914Y-118386243D01*
X53422765Y-118385294D01*
X53319991Y-118339915D01*
X53294865Y-118337000D01*
X53005143Y-118337000D01*
X53005117Y-118337002D01*
X52980013Y-118339913D01*
X52912021Y-118369934D01*
X52877238Y-118385293D01*
X52875086Y-118386243D01*
X52805807Y-118395314D01*
X52774914Y-118386243D01*
X52772765Y-118385294D01*
X52669991Y-118339915D01*
X52644865Y-118337000D01*
X52355143Y-118337000D01*
X52355117Y-118337002D01*
X52330012Y-118339913D01*
X52330008Y-118339915D01*
X52227235Y-118385293D01*
X52147794Y-118464734D01*
X52102415Y-118567506D01*
X52102415Y-118567508D01*
X52099500Y-118592631D01*
X52099500Y-120452726D01*
X52126793Y-120554589D01*
X52130195Y-120560481D01*
X52179520Y-120645913D01*
X52445107Y-120911499D01*
X52478591Y-120972820D01*
X52473607Y-121042512D01*
X52431736Y-121098446D01*
X52366272Y-121122863D01*
X52325333Y-121118954D01*
X52252728Y-121099500D01*
X52252727Y-121099500D01*
X51217254Y-121099500D01*
X51150215Y-121079815D01*
X51129573Y-121063181D01*
X50025495Y-119959103D01*
X48905913Y-118839520D01*
X48860250Y-118813156D01*
X48814589Y-118786793D01*
X48763657Y-118773146D01*
X48712727Y-118759500D01*
X48712726Y-118759500D01*
X48451401Y-118759500D01*
X48384362Y-118739815D01*
X48342043Y-118693954D01*
X48328636Y-118668872D01*
X48277685Y-118573550D01*
X48222193Y-118505932D01*
X48217325Y-118500000D01*
X49794355Y-118500000D01*
X49814859Y-118668869D01*
X49814860Y-118668874D01*
X49875182Y-118827931D01*
X49915577Y-118886452D01*
X49971817Y-118967929D01*
X50025680Y-119015647D01*
X50099150Y-119080736D01*
X50249773Y-119159789D01*
X50249775Y-119159790D01*
X50414944Y-119200500D01*
X50585056Y-119200500D01*
X50750225Y-119159790D01*
X50830452Y-119117683D01*
X50900849Y-119080736D01*
X50900850Y-119080734D01*
X50900852Y-119080734D01*
X51028183Y-118967929D01*
X51124818Y-118827930D01*
X51185140Y-118668872D01*
X51205645Y-118500000D01*
X51185140Y-118331128D01*
X51133557Y-118195115D01*
X51125500Y-118151145D01*
X51125500Y-117627610D01*
X51145185Y-117560571D01*
X51161820Y-117539928D01*
X51198524Y-117503224D01*
X51198528Y-117503220D01*
X51235397Y-117430859D01*
X51283370Y-117380065D01*
X51351191Y-117363269D01*
X51417326Y-117385806D01*
X51460778Y-117440521D01*
X51461235Y-117441665D01*
X51488074Y-117509723D01*
X51488077Y-117509729D01*
X51575278Y-117624721D01*
X51690270Y-117711922D01*
X51824532Y-117764868D01*
X51908898Y-117775000D01*
X51925000Y-117775000D01*
X52425000Y-117775000D01*
X52441102Y-117775000D01*
X52525467Y-117764868D01*
X52525468Y-117764868D01*
X52659729Y-117711922D01*
X52774721Y-117624721D01*
X52861922Y-117509729D01*
X52914868Y-117375468D01*
X52914868Y-117375467D01*
X52925000Y-117291102D01*
X52925000Y-117250000D01*
X52425000Y-117250000D01*
X52425000Y-117775000D01*
X51925000Y-117775000D01*
X51925000Y-116750000D01*
X52425000Y-116750000D01*
X52925000Y-116750000D01*
X52925000Y-116708897D01*
X52914868Y-116624532D01*
X52914868Y-116624531D01*
X52861922Y-116490270D01*
X52774721Y-116375278D01*
X52659729Y-116288077D01*
X52525467Y-116235131D01*
X52441102Y-116225000D01*
X52425000Y-116225000D01*
X52425000Y-116750000D01*
X51925000Y-116750000D01*
X51925000Y-116225000D01*
X51908898Y-116225000D01*
X51824532Y-116235131D01*
X51824531Y-116235131D01*
X51690270Y-116288077D01*
X51575278Y-116375278D01*
X51488077Y-116490270D01*
X51488075Y-116490274D01*
X51461235Y-116558335D01*
X51418329Y-116613479D01*
X51352421Y-116636671D01*
X51284436Y-116620550D01*
X51235960Y-116570233D01*
X51235463Y-116569269D01*
X51198528Y-116496780D01*
X51198526Y-116496778D01*
X51198523Y-116496774D01*
X51161819Y-116460070D01*
X51128334Y-116398747D01*
X51125500Y-116372389D01*
X51125500Y-115733676D01*
X51145185Y-115666637D01*
X51161819Y-115645995D01*
X51226683Y-115581131D01*
X51300500Y-115507314D01*
X51326373Y-115462499D01*
X51376940Y-115414284D01*
X51433760Y-115400500D01*
X52023743Y-115400500D01*
X52023751Y-115400499D01*
X52488133Y-115400499D01*
X52488138Y-115400499D01*
X52535545Y-115394259D01*
X52639579Y-115345747D01*
X52720747Y-115264579D01*
X52750861Y-115200000D01*
X53539500Y-115200000D01*
X53540762Y-115207970D01*
X53540763Y-115207973D01*
X53601881Y-115327921D01*
X53601886Y-115327928D01*
X53697071Y-115423113D01*
X53697076Y-115423116D01*
X53817034Y-115484239D01*
X53817033Y-115484239D01*
X53916543Y-115499999D01*
X54199999Y-115499999D01*
X54200000Y-115499998D01*
X54200000Y-115200000D01*
X53539500Y-115200000D01*
X52750861Y-115200000D01*
X52769259Y-115160545D01*
X52775500Y-115113139D01*
X52775499Y-114786862D01*
X52769259Y-114739455D01*
X52720747Y-114635421D01*
X52639579Y-114554253D01*
X52535545Y-114505741D01*
X52535543Y-114505740D01*
X52535544Y-114505740D01*
X52488140Y-114499500D01*
X52488139Y-114499500D01*
X52009310Y-114499500D01*
X52009309Y-114499500D01*
X51090691Y-114499500D01*
X50985505Y-114527684D01*
X50976110Y-114530202D01*
X50939025Y-114551614D01*
X50873389Y-114589508D01*
X50873384Y-114589512D01*
X50761007Y-114701888D01*
X50713774Y-114729158D01*
X50714328Y-114730495D01*
X50706816Y-114733606D01*
X50592689Y-114799498D01*
X50592683Y-114799502D01*
X50224502Y-115167683D01*
X50224500Y-115167686D01*
X50158608Y-115281812D01*
X50124500Y-115409108D01*
X50124500Y-116372389D01*
X50104815Y-116439428D01*
X50088181Y-116460070D01*
X50051476Y-116496774D01*
X50051473Y-116496778D01*
X49990279Y-116616878D01*
X49974500Y-116716506D01*
X49974500Y-117283493D01*
X49990279Y-117383121D01*
X49990280Y-117383124D01*
X49990281Y-117383126D01*
X50048652Y-117497685D01*
X50051473Y-117503221D01*
X50051475Y-117503224D01*
X50088180Y-117539928D01*
X50121666Y-117601251D01*
X50124500Y-117627610D01*
X50124500Y-117840998D01*
X50104815Y-117908037D01*
X50082727Y-117933813D01*
X49971818Y-118032069D01*
X49875182Y-118172068D01*
X49814860Y-118331125D01*
X49814859Y-118331130D01*
X49794355Y-118500000D01*
X48217325Y-118500000D01*
X48146410Y-118413589D01*
X47986452Y-118282317D01*
X47986453Y-118282317D01*
X47986450Y-118282315D01*
X47803954Y-118184768D01*
X47605934Y-118124700D01*
X47605932Y-118124699D01*
X47605934Y-118124699D01*
X47400000Y-118104417D01*
X47194067Y-118124699D01*
X46996043Y-118184769D01*
X46943228Y-118213000D01*
X46813550Y-118282315D01*
X46813548Y-118282316D01*
X46813547Y-118282317D01*
X46653589Y-118413589D01*
X46527270Y-118567512D01*
X46522315Y-118573550D01*
X46488625Y-118636579D01*
X46424769Y-118756043D01*
X46364699Y-118954067D01*
X46344417Y-119160000D01*
X46364699Y-119365932D01*
X46382237Y-119423747D01*
X46424768Y-119563954D01*
X46514629Y-119732071D01*
X46522317Y-119746453D01*
X46604698Y-119846835D01*
X46632011Y-119911145D01*
X46620220Y-119980013D01*
X46573067Y-120031573D01*
X46508845Y-120049500D01*
X46367255Y-120049500D01*
X46300216Y-120029815D01*
X46279574Y-120013181D01*
X45886649Y-119620256D01*
X45853164Y-119558933D01*
X45855669Y-119496580D01*
X45895300Y-119365934D01*
X45915583Y-119160000D01*
X45895300Y-118954066D01*
X45835232Y-118756046D01*
X45737685Y-118573550D01*
X45682193Y-118505932D01*
X45606410Y-118413589D01*
X45446452Y-118282317D01*
X45446453Y-118282317D01*
X45446450Y-118282315D01*
X45263954Y-118184768D01*
X45065934Y-118124700D01*
X45065932Y-118124699D01*
X45065934Y-118124699D01*
X44860000Y-118104417D01*
X44654067Y-118124699D01*
X44456043Y-118184769D01*
X44403228Y-118213000D01*
X44273550Y-118282315D01*
X44273548Y-118282316D01*
X44273547Y-118282317D01*
X44113589Y-118413589D01*
X43987270Y-118567512D01*
X43982315Y-118573550D01*
X43948625Y-118636579D01*
X43884769Y-118756043D01*
X43824699Y-118954067D01*
X43804417Y-119160000D01*
X43000500Y-119160000D01*
X43000500Y-113216209D01*
X43020185Y-113149170D01*
X43072989Y-113103415D01*
X43142147Y-113093471D01*
X43167834Y-113100027D01*
X43217623Y-113118597D01*
X43217627Y-113118598D01*
X43277155Y-113124999D01*
X43277172Y-113125000D01*
X43350000Y-113125000D01*
X43850000Y-113125000D01*
X43922828Y-113125000D01*
X43922844Y-113124999D01*
X43982372Y-113118598D01*
X43982379Y-113118596D01*
X44117086Y-113068354D01*
X44117093Y-113068350D01*
X44232187Y-112982190D01*
X44232190Y-112982187D01*
X44318350Y-112867093D01*
X44318354Y-112867086D01*
X44368598Y-112732375D01*
X44374766Y-112675000D01*
X43850000Y-112675000D01*
X43850000Y-113125000D01*
X43350000Y-113125000D01*
X43350000Y-112175000D01*
X43850000Y-112175000D01*
X44374765Y-112175000D01*
X44368598Y-112117624D01*
X44318354Y-111982913D01*
X44318350Y-111982906D01*
X44232190Y-111867812D01*
X44232187Y-111867809D01*
X44117093Y-111781649D01*
X44117086Y-111781645D01*
X43982379Y-111731403D01*
X43982372Y-111731401D01*
X43922844Y-111725000D01*
X43850000Y-111725000D01*
X43850000Y-112175000D01*
X43350000Y-112175000D01*
X43350000Y-111725000D01*
X43277155Y-111725000D01*
X43217627Y-111731401D01*
X43217616Y-111731404D01*
X43167832Y-111749972D01*
X43098140Y-111754956D01*
X43036818Y-111721470D01*
X43003333Y-111660146D01*
X43000500Y-111633790D01*
X43000500Y-111461500D01*
X43020185Y-111394461D01*
X43072989Y-111348706D01*
X43142147Y-111338762D01*
X43180792Y-111351014D01*
X43199696Y-111360646D01*
X43199697Y-111360646D01*
X43199699Y-111360647D01*
X43199698Y-111360647D01*
X43293475Y-111375499D01*
X43293481Y-111375500D01*
X43906518Y-111375499D01*
X44000304Y-111360646D01*
X44113342Y-111303050D01*
X44156602Y-111259790D01*
X44204574Y-111211819D01*
X44265897Y-111178334D01*
X44292255Y-111175500D01*
X44677725Y-111175500D01*
X44677727Y-111175500D01*
X44746677Y-111157025D01*
X44816526Y-111158688D01*
X44874388Y-111197851D01*
X44901865Y-111261853D01*
X44914859Y-111368868D01*
X44914860Y-111368874D01*
X44975182Y-111527931D01*
X45025273Y-111600499D01*
X45071817Y-111667929D01*
X45143465Y-111731403D01*
X45199150Y-111780736D01*
X45339522Y-111854409D01*
X45349775Y-111859790D01*
X45514944Y-111900500D01*
X45685056Y-111900500D01*
X45850225Y-111859790D01*
X45999109Y-111781649D01*
X46000849Y-111780736D01*
X46000850Y-111780734D01*
X46000852Y-111780734D01*
X46128183Y-111667929D01*
X46224818Y-111527930D01*
X46285140Y-111368872D01*
X46305645Y-111200000D01*
X46290008Y-111071223D01*
X46301468Y-111002304D01*
X46348371Y-110950518D01*
X46415827Y-110932310D01*
X46482418Y-110953462D01*
X46515153Y-110985839D01*
X46571815Y-111067927D01*
X46571816Y-111067928D01*
X46571817Y-111067929D01*
X46592538Y-111086286D01*
X46699150Y-111180736D01*
X46849774Y-111259790D01*
X46849773Y-111259790D01*
X46918931Y-111276835D01*
X46990263Y-111294416D01*
X47050643Y-111329572D01*
X47082432Y-111391791D01*
X47075536Y-111461319D01*
X47048270Y-111502494D01*
X46989320Y-111561445D01*
X46881284Y-111669481D01*
X44491286Y-114059478D01*
X44379481Y-114171282D01*
X44379479Y-114171284D01*
X44363547Y-114198880D01*
X44356813Y-114210545D01*
X44300423Y-114308215D01*
X44259499Y-114460943D01*
X44259499Y-114460945D01*
X44259499Y-114629046D01*
X44259500Y-114629059D01*
X44259500Y-115445500D01*
X44239815Y-115512539D01*
X44187011Y-115558294D01*
X44135500Y-115569500D01*
X43990247Y-115569500D01*
X43931770Y-115581131D01*
X43931769Y-115581132D01*
X43865447Y-115625447D01*
X43821132Y-115691769D01*
X43821131Y-115691770D01*
X43809500Y-115750247D01*
X43809500Y-117489752D01*
X43821131Y-117548229D01*
X43821132Y-117548230D01*
X43865447Y-117614552D01*
X43931769Y-117658867D01*
X43931770Y-117658868D01*
X43990247Y-117670499D01*
X43990250Y-117670500D01*
X43990252Y-117670500D01*
X45729750Y-117670500D01*
X45729751Y-117670499D01*
X45744568Y-117667552D01*
X45788229Y-117658868D01*
X45788229Y-117658867D01*
X45788231Y-117658867D01*
X45854552Y-117614552D01*
X45898867Y-117548231D01*
X45898867Y-117548229D01*
X45898868Y-117548229D01*
X45910499Y-117489752D01*
X45910500Y-117489750D01*
X45910500Y-116620000D01*
X46344417Y-116620000D01*
X46364699Y-116825932D01*
X46390618Y-116911376D01*
X46424768Y-117023954D01*
X46522315Y-117206450D01*
X46522317Y-117206452D01*
X46653589Y-117366410D01*
X46721711Y-117422315D01*
X46813550Y-117497685D01*
X46996046Y-117595232D01*
X47194066Y-117655300D01*
X47194065Y-117655300D01*
X47212529Y-117657118D01*
X47400000Y-117675583D01*
X47605934Y-117655300D01*
X47803954Y-117595232D01*
X47986450Y-117497685D01*
X48146410Y-117366410D01*
X48277685Y-117206450D01*
X48375232Y-117023954D01*
X48435300Y-116825934D01*
X48455583Y-116620000D01*
X48435300Y-116414066D01*
X48375232Y-116216046D01*
X48330046Y-116131511D01*
X48315805Y-116063109D01*
X48340805Y-115997865D01*
X48351716Y-115985385D01*
X50800284Y-113536819D01*
X50861607Y-113503334D01*
X50887965Y-113500500D01*
X52023743Y-113500500D01*
X52023751Y-113500499D01*
X52488133Y-113500499D01*
X52488138Y-113500499D01*
X52535545Y-113494259D01*
X52639579Y-113445747D01*
X52720747Y-113364579D01*
X52769259Y-113260545D01*
X52775500Y-113213139D01*
X52775499Y-112886862D01*
X52769259Y-112839455D01*
X52750861Y-112800000D01*
X53539500Y-112800000D01*
X54200000Y-112800000D01*
X54200000Y-112500000D01*
X53916550Y-112500000D01*
X53817032Y-112515762D01*
X53697076Y-112576883D01*
X53697071Y-112576886D01*
X53601886Y-112672071D01*
X53601881Y-112672078D01*
X53540763Y-112792026D01*
X53540762Y-112792029D01*
X53539500Y-112800000D01*
X52750861Y-112800000D01*
X52720747Y-112735421D01*
X52639579Y-112654253D01*
X52535545Y-112605741D01*
X52535543Y-112605740D01*
X52535544Y-112605740D01*
X52488140Y-112599500D01*
X52488139Y-112599500D01*
X52009310Y-112599500D01*
X52009309Y-112599500D01*
X50590691Y-112599500D01*
X50500325Y-112623713D01*
X50500324Y-112623712D01*
X50476116Y-112630199D01*
X50476113Y-112630200D01*
X50373386Y-112689511D01*
X50373383Y-112689513D01*
X47531119Y-115531776D01*
X47469796Y-115565261D01*
X47431285Y-115567498D01*
X47400000Y-115564417D01*
X47194067Y-115584699D01*
X46996043Y-115644769D01*
X46908114Y-115691769D01*
X46813550Y-115742315D01*
X46813548Y-115742316D01*
X46813547Y-115742317D01*
X46653589Y-115873589D01*
X46525810Y-116029291D01*
X46522315Y-116033550D01*
X46513305Y-116050407D01*
X46424769Y-116216043D01*
X46424768Y-116216045D01*
X46424768Y-116216046D01*
X46422052Y-116225000D01*
X46364699Y-116414067D01*
X46344417Y-116620000D01*
X45910500Y-116620000D01*
X45910500Y-115750249D01*
X45910499Y-115750247D01*
X45898868Y-115691770D01*
X45898867Y-115691769D01*
X45854552Y-115625447D01*
X45788230Y-115581132D01*
X45788229Y-115581131D01*
X45729752Y-115569500D01*
X45729748Y-115569500D01*
X45584500Y-115569500D01*
X45517461Y-115549815D01*
X45471706Y-115497011D01*
X45460500Y-115445500D01*
X45460500Y-114840097D01*
X45480185Y-114773058D01*
X45496819Y-114752416D01*
X47789078Y-112460157D01*
X47789090Y-112460143D01*
X49105520Y-111143716D01*
X49118195Y-111121762D01*
X49168759Y-111073545D01*
X49237366Y-111060320D01*
X49302232Y-111086286D01*
X49313264Y-111096078D01*
X49624500Y-111407314D01*
X49717686Y-111500500D01*
X49816521Y-111557563D01*
X49823245Y-111561445D01*
X49831814Y-111566392D01*
X49959108Y-111600500D01*
X49959110Y-111600500D01*
X51295761Y-111600500D01*
X51318471Y-111597191D01*
X51363893Y-111590573D01*
X51468983Y-111539198D01*
X51551698Y-111456483D01*
X51603073Y-111351393D01*
X51613000Y-111283260D01*
X51613000Y-110916740D01*
X51613000Y-110916739D01*
X52162000Y-110916739D01*
X52162000Y-111283260D01*
X52171926Y-111351391D01*
X52223303Y-111456485D01*
X52306014Y-111539196D01*
X52306015Y-111539196D01*
X52306017Y-111539198D01*
X52411107Y-111590573D01*
X52445173Y-111595536D01*
X52479239Y-111600500D01*
X52479240Y-111600500D01*
X53570761Y-111600500D01*
X53593471Y-111597191D01*
X53638893Y-111590573D01*
X53743983Y-111539198D01*
X53826698Y-111456483D01*
X53878073Y-111351393D01*
X53884583Y-111306707D01*
X53913726Y-111243209D01*
X53972574Y-111205545D01*
X54042444Y-111205675D01*
X54101151Y-111243559D01*
X54107825Y-111253063D01*
X54107951Y-111252969D01*
X54200278Y-111374721D01*
X54315270Y-111461922D01*
X54449532Y-111514868D01*
X54533898Y-111525000D01*
X54575000Y-111525000D01*
X54575000Y-111025000D01*
X54011016Y-111025000D01*
X53943977Y-111005315D01*
X53898222Y-110952511D01*
X53888312Y-110918878D01*
X53878073Y-110848608D01*
X53851712Y-110794685D01*
X53826698Y-110743517D01*
X53826696Y-110743515D01*
X53826696Y-110743514D01*
X53743985Y-110660803D01*
X53638891Y-110609426D01*
X53570761Y-110599500D01*
X53570760Y-110599500D01*
X52479240Y-110599500D01*
X52479239Y-110599500D01*
X52411108Y-110609426D01*
X52306014Y-110660803D01*
X52223303Y-110743514D01*
X52171926Y-110848608D01*
X52162000Y-110916739D01*
X51613000Y-110916739D01*
X51603073Y-110848607D01*
X51561314Y-110763188D01*
X51549556Y-110694317D01*
X51576900Y-110630020D01*
X51583991Y-110622199D01*
X51664846Y-110512645D01*
X51704262Y-110400000D01*
X50874000Y-110400000D01*
X50806961Y-110380315D01*
X50761206Y-110327511D01*
X50750000Y-110276000D01*
X50750000Y-110024000D01*
X50769685Y-109956961D01*
X50822489Y-109911206D01*
X50874000Y-109900000D01*
X51704261Y-109900000D01*
X51664846Y-109787354D01*
X51578774Y-109670731D01*
X51580037Y-109669798D01*
X51551550Y-109617627D01*
X51556534Y-109547935D01*
X51561316Y-109536808D01*
X51563116Y-109533126D01*
X51603073Y-109451393D01*
X51613000Y-109383260D01*
X51613000Y-109016740D01*
X51603073Y-108948607D01*
X51551698Y-108843517D01*
X51551696Y-108843515D01*
X51551696Y-108843514D01*
X51468985Y-108760803D01*
X51363891Y-108709426D01*
X51295761Y-108699500D01*
X51295760Y-108699500D01*
X50815892Y-108699500D01*
X49277610Y-108699500D01*
X49210571Y-108679815D01*
X49189933Y-108663185D01*
X49128220Y-108601472D01*
X49055859Y-108564602D01*
X49019222Y-108530000D01*
X62300000Y-108530000D01*
X63875000Y-108530000D01*
X64375000Y-108530000D01*
X65550000Y-108530000D01*
X65550000Y-107505000D01*
X64375000Y-107505000D01*
X64375000Y-108530000D01*
X63875000Y-108530000D01*
X63875000Y-107505000D01*
X62300000Y-107505000D01*
X62300000Y-108530000D01*
X49019222Y-108530000D01*
X49005064Y-108516628D01*
X48988269Y-108448807D01*
X49010807Y-108382672D01*
X49065522Y-108339221D01*
X49066666Y-108338763D01*
X49134727Y-108311923D01*
X49134729Y-108311922D01*
X49249721Y-108224721D01*
X49336922Y-108109729D01*
X49389868Y-107975468D01*
X49389868Y-107975467D01*
X49400000Y-107891102D01*
X49400000Y-107875000D01*
X47850000Y-107875000D01*
X47850000Y-107891102D01*
X47860131Y-107975467D01*
X47860131Y-107975468D01*
X47913077Y-108109729D01*
X48000278Y-108224721D01*
X48115270Y-108311922D01*
X48183334Y-108338763D01*
X48238478Y-108381669D01*
X48261671Y-108447577D01*
X48245551Y-108515561D01*
X48195234Y-108564038D01*
X48194140Y-108564602D01*
X48121781Y-108601471D01*
X48121774Y-108601476D01*
X48026476Y-108696774D01*
X48026473Y-108696778D01*
X47965279Y-108816878D01*
X47949500Y-108916506D01*
X47949500Y-109433493D01*
X47965279Y-109533121D01*
X47965280Y-109533124D01*
X47965281Y-109533126D01*
X48026472Y-109653220D01*
X48026473Y-109653221D01*
X48026476Y-109653225D01*
X48068054Y-109694803D01*
X48101539Y-109756126D01*
X48096555Y-109825818D01*
X48082423Y-109852924D01*
X48000182Y-109972068D01*
X48000182Y-109972069D01*
X47940442Y-110129593D01*
X47898264Y-110185296D01*
X47832667Y-110209353D01*
X47764476Y-110194126D01*
X47715343Y-110144450D01*
X47700500Y-110085622D01*
X47700500Y-109764060D01*
X47700501Y-109764047D01*
X47700501Y-109595944D01*
X47683669Y-109533126D01*
X47659577Y-109443216D01*
X47659573Y-109443209D01*
X47580524Y-109306290D01*
X47580518Y-109306282D01*
X47461818Y-109187582D01*
X47428333Y-109126259D01*
X47425499Y-109099901D01*
X47425499Y-109093482D01*
X47424850Y-109089386D01*
X47410646Y-108999696D01*
X47353050Y-108886658D01*
X47353046Y-108886654D01*
X47353045Y-108886652D01*
X47263347Y-108796954D01*
X47263344Y-108796952D01*
X47263342Y-108796950D01*
X47186517Y-108757805D01*
X47150301Y-108739352D01*
X47056524Y-108724500D01*
X46593482Y-108724500D01*
X46512519Y-108737323D01*
X46499696Y-108739354D01*
X46386658Y-108796950D01*
X46386657Y-108796951D01*
X46386652Y-108796954D01*
X46296954Y-108886652D01*
X46296951Y-108886657D01*
X46239352Y-108999698D01*
X46224500Y-109093475D01*
X46224500Y-109315807D01*
X46224499Y-109315833D01*
X46224499Y-109484166D01*
X46224500Y-109484191D01*
X46224500Y-109706517D01*
X46232030Y-109754058D01*
X46239354Y-109800304D01*
X46296950Y-109913342D01*
X46296952Y-109913344D01*
X46296954Y-109913347D01*
X46386652Y-110003045D01*
X46386654Y-110003046D01*
X46386658Y-110003050D01*
X46431796Y-110026049D01*
X46482591Y-110074023D01*
X46499500Y-110136533D01*
X46499500Y-110198199D01*
X46479815Y-110265238D01*
X46477551Y-110268638D01*
X46475182Y-110272069D01*
X46414860Y-110431125D01*
X46414859Y-110431130D01*
X46399819Y-110555000D01*
X46394355Y-110600000D01*
X46401738Y-110660802D01*
X46409991Y-110728772D01*
X46398531Y-110797696D01*
X46351627Y-110849482D01*
X46284171Y-110867689D01*
X46217580Y-110846537D01*
X46184845Y-110814160D01*
X46128183Y-110732071D01*
X46000852Y-110619266D01*
X46000849Y-110619263D01*
X45850226Y-110540210D01*
X45685056Y-110499500D01*
X45677677Y-110499500D01*
X45610638Y-110479815D01*
X45564883Y-110427011D01*
X45554939Y-110357853D01*
X45557902Y-110343408D01*
X45559710Y-110336660D01*
X45559710Y-110336658D01*
X45562161Y-110327511D01*
X45575501Y-110277727D01*
X45575501Y-110172273D01*
X45575501Y-110164678D01*
X45575500Y-110164660D01*
X45575500Y-110092254D01*
X45595185Y-110025215D01*
X45611819Y-110004572D01*
X45613339Y-110003051D01*
X45613342Y-110003050D01*
X45703050Y-109913342D01*
X45760646Y-109800304D01*
X45760646Y-109800302D01*
X45760647Y-109800301D01*
X45771282Y-109733147D01*
X45775500Y-109706519D01*
X45775499Y-109093482D01*
X45760646Y-108999696D01*
X45703050Y-108886658D01*
X45703046Y-108886654D01*
X45703045Y-108886652D01*
X45613347Y-108796954D01*
X45613344Y-108796952D01*
X45613342Y-108796950D01*
X45536517Y-108757805D01*
X45500301Y-108739352D01*
X45406524Y-108724500D01*
X44943482Y-108724500D01*
X44862519Y-108737323D01*
X44849696Y-108739354D01*
X44736658Y-108796950D01*
X44736657Y-108796951D01*
X44736652Y-108796954D01*
X44646954Y-108886652D01*
X44646951Y-108886657D01*
X44589352Y-108999698D01*
X44574500Y-109093475D01*
X44574500Y-109706517D01*
X44582030Y-109754058D01*
X44589354Y-109800304D01*
X44646950Y-109913342D01*
X44646951Y-109913343D01*
X44646953Y-109913346D01*
X44695924Y-109962316D01*
X44729410Y-110023639D01*
X44724426Y-110093331D01*
X44695926Y-110137679D01*
X44636647Y-110196959D01*
X44636646Y-110196958D01*
X44636644Y-110196962D01*
X44495425Y-110338181D01*
X44434102Y-110371666D01*
X44407744Y-110374500D01*
X44292255Y-110374500D01*
X44225216Y-110354815D01*
X44204574Y-110338181D01*
X44113347Y-110246954D01*
X44113344Y-110246952D01*
X44113342Y-110246950D01*
X44019206Y-110198985D01*
X44000301Y-110189352D01*
X43906524Y-110174500D01*
X43293482Y-110174500D01*
X43199695Y-110189354D01*
X43180794Y-110198985D01*
X43112124Y-110211881D01*
X43047384Y-110185604D01*
X43007128Y-110128497D01*
X43000500Y-110088500D01*
X43000500Y-107358897D01*
X47850000Y-107358897D01*
X47850000Y-107375000D01*
X48375000Y-107375000D01*
X48875000Y-107375000D01*
X49400000Y-107375000D01*
X49400000Y-107358897D01*
X49389868Y-107274532D01*
X49389868Y-107274531D01*
X49336922Y-107140270D01*
X49249721Y-107025278D01*
X49134729Y-106938077D01*
X49000467Y-106885131D01*
X48916102Y-106875000D01*
X48875000Y-106875000D01*
X48875000Y-107375000D01*
X48375000Y-107375000D01*
X48375000Y-106875000D01*
X48333898Y-106875000D01*
X48249532Y-106885131D01*
X48249531Y-106885131D01*
X48115270Y-106938077D01*
X48000278Y-107025278D01*
X47913077Y-107140270D01*
X47860131Y-107274531D01*
X47860131Y-107274532D01*
X47850000Y-107358897D01*
X43000500Y-107358897D01*
X43000500Y-106591102D01*
X52525000Y-106591102D01*
X52535131Y-106675467D01*
X52535131Y-106675468D01*
X52588077Y-106809729D01*
X52675278Y-106924721D01*
X52790270Y-107011922D01*
X52924532Y-107064868D01*
X53008898Y-107075000D01*
X53025000Y-107075000D01*
X53025000Y-106550000D01*
X52525000Y-106550000D01*
X52525000Y-106591102D01*
X43000500Y-106591102D01*
X43000500Y-105970712D01*
X46050000Y-105970712D01*
X46060035Y-106054274D01*
X46060036Y-106054279D01*
X46112473Y-106187249D01*
X46112476Y-106187255D01*
X46198847Y-106301152D01*
X46312744Y-106387523D01*
X46312750Y-106387526D01*
X46445720Y-106439963D01*
X46445725Y-106439964D01*
X46529287Y-106450000D01*
X47200000Y-106450000D01*
X47700000Y-106450000D01*
X48370713Y-106450000D01*
X48454274Y-106439964D01*
X48454279Y-106439963D01*
X48587249Y-106387526D01*
X48587255Y-106387523D01*
X48701152Y-106301152D01*
X48787523Y-106187255D01*
X48787526Y-106187249D01*
X48839963Y-106054279D01*
X48839964Y-106054274D01*
X48845414Y-106008897D01*
X52525000Y-106008897D01*
X52525000Y-106050000D01*
X53025000Y-106050000D01*
X53025000Y-105525000D01*
X53525000Y-105525000D01*
X53525000Y-107075000D01*
X53541102Y-107075000D01*
X53625467Y-107064868D01*
X53625468Y-107064868D01*
X53759729Y-107011922D01*
X53874721Y-106924721D01*
X53961922Y-106809729D01*
X53961923Y-106809727D01*
X53988763Y-106741666D01*
X54031669Y-106686522D01*
X54097576Y-106663328D01*
X54165561Y-106679448D01*
X54214038Y-106729765D01*
X54214602Y-106730860D01*
X54230984Y-106763011D01*
X54244500Y-106819306D01*
X54244500Y-106993199D01*
X54224815Y-107060238D01*
X54222551Y-107063638D01*
X54220182Y-107067069D01*
X54159860Y-107226125D01*
X54159859Y-107226130D01*
X54139355Y-107395000D01*
X54159859Y-107563869D01*
X54159860Y-107563874D01*
X54220182Y-107722931D01*
X54258128Y-107777904D01*
X54316817Y-107862929D01*
X54422505Y-107956560D01*
X54444150Y-107975736D01*
X54594773Y-108054789D01*
X54594775Y-108054790D01*
X54759944Y-108095500D01*
X54930056Y-108095500D01*
X55095225Y-108054790D01*
X55186383Y-108006946D01*
X55975000Y-108006946D01*
X55975000Y-108050000D01*
X56750000Y-108050000D01*
X57250000Y-108050000D01*
X58025000Y-108050000D01*
X58025000Y-108006946D01*
X58014386Y-107918556D01*
X57958920Y-107777904D01*
X57867564Y-107657435D01*
X57747095Y-107566079D01*
X57606443Y-107510613D01*
X57518054Y-107500000D01*
X57250000Y-107500000D01*
X57250000Y-108050000D01*
X56750000Y-108050000D01*
X56750000Y-107500000D01*
X56481946Y-107500000D01*
X56393556Y-107510613D01*
X56252904Y-107566079D01*
X56132435Y-107657435D01*
X56041079Y-107777904D01*
X55985613Y-107918556D01*
X55975000Y-108006946D01*
X55186383Y-108006946D01*
X55245849Y-107975736D01*
X55245850Y-107975734D01*
X55245852Y-107975734D01*
X55373183Y-107862929D01*
X55469818Y-107722930D01*
X55530140Y-107563872D01*
X55550645Y-107395000D01*
X55530140Y-107226128D01*
X55469818Y-107067070D01*
X55467448Y-107063637D01*
X55466489Y-107060727D01*
X55466331Y-107060426D01*
X55466381Y-107060399D01*
X55445567Y-106997283D01*
X55445500Y-106993199D01*
X55445500Y-106740802D01*
X55457088Y-106692530D01*
X55456704Y-106692405D01*
X55458292Y-106687516D01*
X55459015Y-106684507D01*
X55459719Y-106683126D01*
X55459719Y-106683124D01*
X55459720Y-106683123D01*
X55475500Y-106583493D01*
X55475500Y-106016506D01*
X55459720Y-105916878D01*
X55459719Y-105916876D01*
X55459719Y-105916874D01*
X55398528Y-105796780D01*
X55398526Y-105796778D01*
X55394097Y-105788085D01*
X55395501Y-105787369D01*
X55375702Y-105731863D01*
X55375500Y-105724794D01*
X55375500Y-105274500D01*
X55395185Y-105207461D01*
X55447989Y-105161706D01*
X55499500Y-105150500D01*
X55672472Y-105150500D01*
X55672474Y-105150500D01*
X55672475Y-105150500D01*
X55812485Y-105112984D01*
X55841792Y-105096063D01*
X55841794Y-105096063D01*
X55938008Y-105040514D01*
X55938007Y-105040514D01*
X55938015Y-105040510D01*
X56096322Y-104882202D01*
X56157643Y-104848719D01*
X56227334Y-104853703D01*
X56283268Y-104895574D01*
X56307097Y-104954938D01*
X56314859Y-105018869D01*
X56314860Y-105018874D01*
X56375182Y-105177931D01*
X56427550Y-105253798D01*
X56449433Y-105320152D01*
X56449500Y-105324238D01*
X56449500Y-105611152D01*
X56429815Y-105678191D01*
X56377011Y-105723946D01*
X56366456Y-105728193D01*
X56312117Y-105747207D01*
X56202850Y-105827850D01*
X56122207Y-105937117D01*
X56122206Y-105937119D01*
X56077353Y-106065298D01*
X56077353Y-106065300D01*
X56074500Y-106095730D01*
X56074500Y-106704269D01*
X56077353Y-106734699D01*
X56077353Y-106734701D01*
X56122206Y-106862880D01*
X56122207Y-106862882D01*
X56202850Y-106972150D01*
X56312118Y-107052793D01*
X56354845Y-107067744D01*
X56440299Y-107097646D01*
X56470730Y-107100500D01*
X56470734Y-107100500D01*
X57529270Y-107100500D01*
X57559699Y-107097646D01*
X57559701Y-107097646D01*
X57695981Y-107049959D01*
X57736936Y-107043000D01*
X58169935Y-107043000D01*
X58236974Y-107062685D01*
X58269705Y-107093366D01*
X58327850Y-107172150D01*
X58437118Y-107252793D01*
X58479845Y-107267744D01*
X58565299Y-107297646D01*
X58595730Y-107300500D01*
X58595734Y-107300500D01*
X60404270Y-107300500D01*
X60434699Y-107297646D01*
X60434701Y-107297646D01*
X60500758Y-107274531D01*
X60562882Y-107252793D01*
X60672150Y-107172150D01*
X60752793Y-107062882D01*
X60777176Y-106993199D01*
X60797646Y-106934701D01*
X60797646Y-106934699D01*
X60800500Y-106904269D01*
X60800500Y-106095730D01*
X60799675Y-106086936D01*
X62300000Y-106086936D01*
X62300000Y-107005000D01*
X63875000Y-107005000D01*
X64375000Y-107005000D01*
X65550000Y-107005000D01*
X66050000Y-107005000D01*
X67225000Y-107005000D01*
X67225000Y-105580000D01*
X66050000Y-105580000D01*
X66050000Y-107005000D01*
X65550000Y-107005000D01*
X65550000Y-105580000D01*
X64375000Y-105580000D01*
X64375000Y-107005000D01*
X63875000Y-107005000D01*
X63875000Y-105580000D01*
X62806946Y-105580000D01*
X62739782Y-105588065D01*
X62718554Y-105590614D01*
X62577900Y-105646080D01*
X62457433Y-105737433D01*
X62366080Y-105857900D01*
X62310613Y-105998554D01*
X62300000Y-106086936D01*
X60799675Y-106086936D01*
X60797646Y-106065300D01*
X60797646Y-106065298D01*
X60752793Y-105937119D01*
X60752792Y-105937117D01*
X60672150Y-105827850D01*
X60562882Y-105747207D01*
X60562880Y-105747206D01*
X60434700Y-105702353D01*
X60404270Y-105699500D01*
X60404266Y-105699500D01*
X58595734Y-105699500D01*
X58595730Y-105699500D01*
X58565300Y-105702353D01*
X58565298Y-105702353D01*
X58437119Y-105747206D01*
X58437117Y-105747207D01*
X58327848Y-105827851D01*
X58280776Y-105891633D01*
X58225129Y-105933884D01*
X58181006Y-105942000D01*
X57943994Y-105942000D01*
X57876955Y-105922315D01*
X57844224Y-105891633D01*
X57797151Y-105827851D01*
X57746230Y-105790270D01*
X57687882Y-105747207D01*
X57687879Y-105747206D01*
X57633544Y-105728193D01*
X57576768Y-105687471D01*
X57551022Y-105622518D01*
X57550500Y-105611152D01*
X57550500Y-105324238D01*
X57570185Y-105257199D01*
X57572450Y-105253798D01*
X57592520Y-105224721D01*
X57624818Y-105177930D01*
X57685140Y-105018872D01*
X57705645Y-104850000D01*
X57685140Y-104681128D01*
X57624818Y-104522070D01*
X57528183Y-104382071D01*
X57400852Y-104269266D01*
X57400849Y-104269263D01*
X57250226Y-104190210D01*
X57093120Y-104151487D01*
X57032739Y-104116331D01*
X57000951Y-104054111D01*
X57007847Y-103984583D01*
X57035111Y-103943412D01*
X57941706Y-103036819D01*
X58003029Y-103003334D01*
X58029387Y-103000500D01*
X59017994Y-103000500D01*
X59085033Y-103020185D01*
X59097074Y-103029302D01*
X59099154Y-103030738D01*
X59249773Y-103109789D01*
X59249775Y-103109790D01*
X59414944Y-103150500D01*
X59585056Y-103150500D01*
X59750225Y-103109790D01*
X59839547Y-103062909D01*
X59900845Y-103030738D01*
X59900846Y-103030736D01*
X59900852Y-103030734D01*
X59900856Y-103030730D01*
X59907020Y-103026476D01*
X59907960Y-103027839D01*
X59963011Y-103001963D01*
X59982006Y-103000500D01*
X62872472Y-103000500D01*
X62872474Y-103000500D01*
X62872475Y-103000500D01*
X63012485Y-102962984D01*
X63138015Y-102890510D01*
X64540510Y-101488014D01*
X64612984Y-101362485D01*
X64635283Y-101279266D01*
X64650500Y-101222475D01*
X64650500Y-100824499D01*
X64670185Y-100757460D01*
X64722989Y-100711705D01*
X64774500Y-100700499D01*
X65389363Y-100700499D01*
X65506753Y-100685046D01*
X65506757Y-100685044D01*
X65506762Y-100685044D01*
X65652841Y-100624536D01*
X65778282Y-100528282D01*
X65874536Y-100402841D01*
X65935044Y-100256762D01*
X65950500Y-100139361D01*
X65950499Y-99260640D01*
X65950499Y-99260638D01*
X65950499Y-99260636D01*
X65935046Y-99143246D01*
X65935044Y-99143239D01*
X65935044Y-99143238D01*
X65874536Y-98997159D01*
X65778282Y-98871718D01*
X65652841Y-98775464D01*
X65506762Y-98714956D01*
X65506760Y-98714955D01*
X65389370Y-98699501D01*
X65389367Y-98699500D01*
X65389361Y-98699500D01*
X65389354Y-98699500D01*
X62810636Y-98699500D01*
X62693246Y-98714953D01*
X62693237Y-98714956D01*
X62547160Y-98775463D01*
X62421718Y-98871718D01*
X62325463Y-98997160D01*
X62264956Y-99143237D01*
X62264955Y-99143239D01*
X62249500Y-99260638D01*
X62249500Y-100139363D01*
X62264953Y-100256753D01*
X62264956Y-100256762D01*
X62325464Y-100402841D01*
X62421718Y-100528282D01*
X62547159Y-100624536D01*
X62693238Y-100685044D01*
X62810639Y-100700500D01*
X63425500Y-100700499D01*
X63492539Y-100720183D01*
X63538294Y-100772987D01*
X63549500Y-100824499D01*
X63549500Y-100870613D01*
X63529815Y-100937652D01*
X63513181Y-100958294D01*
X62608294Y-101863181D01*
X62546971Y-101896666D01*
X62520613Y-101899500D01*
X59982006Y-101899500D01*
X59914967Y-101879815D01*
X59902925Y-101870697D01*
X59900845Y-101869261D01*
X59750226Y-101790210D01*
X59585056Y-101749500D01*
X59414944Y-101749500D01*
X59249773Y-101790210D01*
X59099154Y-101869261D01*
X59092980Y-101873524D01*
X59092039Y-101872160D01*
X59036989Y-101898037D01*
X59017994Y-101899500D01*
X57677525Y-101899500D01*
X57572517Y-101927637D01*
X57537514Y-101937016D01*
X57411986Y-102009489D01*
X57411983Y-102009491D01*
X55461164Y-103960309D01*
X55399841Y-103993794D01*
X55330149Y-103988810D01*
X55317189Y-103983113D01*
X55233123Y-103940279D01*
X55133493Y-103924500D01*
X55133488Y-103924500D01*
X54616512Y-103924500D01*
X54616507Y-103924500D01*
X54516878Y-103940279D01*
X54396778Y-104001473D01*
X54396774Y-104001476D01*
X54301476Y-104096774D01*
X54301471Y-104096781D01*
X54264602Y-104169140D01*
X54216627Y-104219935D01*
X54148806Y-104236730D01*
X54082672Y-104214192D01*
X54039221Y-104159477D01*
X54038763Y-104158334D01*
X54011922Y-104090270D01*
X53924721Y-103975278D01*
X53809729Y-103888077D01*
X53675467Y-103835131D01*
X53591102Y-103825000D01*
X53575000Y-103825000D01*
X53575000Y-105423638D01*
X53555315Y-105490677D01*
X53538681Y-105511319D01*
X53525000Y-105525000D01*
X53025000Y-105525000D01*
X53025000Y-105476362D01*
X53044685Y-105409323D01*
X53061319Y-105388681D01*
X53075000Y-105375000D01*
X53075000Y-104850000D01*
X52575000Y-104850000D01*
X52575000Y-104891102D01*
X52585131Y-104975467D01*
X52585131Y-104975468D01*
X52638077Y-105109729D01*
X52725278Y-105224721D01*
X52840270Y-105311922D01*
X52840272Y-105311923D01*
X52872890Y-105324786D01*
X52928034Y-105367692D01*
X52951228Y-105433599D01*
X52935108Y-105501584D01*
X52884791Y-105550061D01*
X52872891Y-105555495D01*
X52790276Y-105588074D01*
X52790270Y-105588077D01*
X52675278Y-105675278D01*
X52588077Y-105790270D01*
X52535131Y-105924531D01*
X52535131Y-105924532D01*
X52525000Y-106008897D01*
X48845414Y-106008897D01*
X48850000Y-105970712D01*
X48850000Y-104308897D01*
X52575000Y-104308897D01*
X52575000Y-104350000D01*
X53075000Y-104350000D01*
X53075000Y-103825000D01*
X53058898Y-103825000D01*
X52974532Y-103835131D01*
X52974531Y-103835131D01*
X52840270Y-103888077D01*
X52725278Y-103975278D01*
X52638077Y-104090270D01*
X52585131Y-104224531D01*
X52585131Y-104224532D01*
X52575000Y-104308897D01*
X48850000Y-104308897D01*
X48850000Y-104300000D01*
X47700000Y-104300000D01*
X47700000Y-106450000D01*
X47200000Y-106450000D01*
X47200000Y-104300000D01*
X46050000Y-104300000D01*
X46050000Y-105970712D01*
X43000500Y-105970712D01*
X43000500Y-102129287D01*
X46050000Y-102129287D01*
X46050000Y-103800000D01*
X47200000Y-103800000D01*
X47700000Y-103800000D01*
X48850000Y-103800000D01*
X48850000Y-102129287D01*
X48839964Y-102045725D01*
X48839963Y-102045720D01*
X48787526Y-101912750D01*
X48787523Y-101912744D01*
X48701152Y-101798847D01*
X48587255Y-101712476D01*
X48587249Y-101712473D01*
X48454279Y-101660036D01*
X48454274Y-101660035D01*
X48370713Y-101650000D01*
X47700000Y-101650000D01*
X47700000Y-103800000D01*
X47200000Y-103800000D01*
X47200000Y-101650000D01*
X46529287Y-101650000D01*
X46445725Y-101660035D01*
X46445720Y-101660036D01*
X46312750Y-101712473D01*
X46312744Y-101712476D01*
X46198847Y-101798847D01*
X46112476Y-101912744D01*
X46112473Y-101912750D01*
X46060036Y-102045720D01*
X46060035Y-102045725D01*
X46050000Y-102129287D01*
X43000500Y-102129287D01*
X43000500Y-94836897D01*
X46149500Y-94836897D01*
X46149500Y-98663095D01*
X46165095Y-98761563D01*
X46172178Y-98775463D01*
X46225567Y-98880245D01*
X46225569Y-98880247D01*
X46225571Y-98880250D01*
X46319749Y-98974428D01*
X46319753Y-98974431D01*
X46319755Y-98974433D01*
X46438438Y-99034905D01*
X46438439Y-99034905D01*
X46438441Y-99034906D01*
X46536897Y-99050499D01*
X46536903Y-99050500D01*
X48363096Y-99050499D01*
X48461562Y-99034905D01*
X48580245Y-98974433D01*
X48674433Y-98880245D01*
X48734905Y-98761562D01*
X48742287Y-98714955D01*
X48750500Y-98663102D01*
X48750500Y-97424500D01*
X48770185Y-97357461D01*
X48822989Y-97311706D01*
X48874500Y-97300500D01*
X48970613Y-97300500D01*
X49037652Y-97320185D01*
X49058294Y-97336819D01*
X49713181Y-97991706D01*
X49746666Y-98053029D01*
X49749500Y-98079387D01*
X49749500Y-99377526D01*
X49749500Y-99522474D01*
X49787016Y-99662485D01*
X49859490Y-99788015D01*
X51261986Y-101190510D01*
X51387515Y-101262984D01*
X51527525Y-101300500D01*
X51527526Y-101300500D01*
X51672474Y-101300500D01*
X52286153Y-101300500D01*
X52353192Y-101320185D01*
X52398947Y-101372989D01*
X52403187Y-101383528D01*
X52422207Y-101437882D01*
X52502850Y-101547150D01*
X52612118Y-101627793D01*
X52654845Y-101642744D01*
X52740299Y-101672646D01*
X52770730Y-101675500D01*
X52770734Y-101675500D01*
X53379270Y-101675500D01*
X53409699Y-101672646D01*
X53409701Y-101672646D01*
X53474418Y-101650000D01*
X53537882Y-101627793D01*
X53647150Y-101547150D01*
X53727793Y-101437882D01*
X53750500Y-101372989D01*
X53772646Y-101309701D01*
X53772646Y-101309699D01*
X53775500Y-101279265D01*
X53775500Y-101268053D01*
X54175000Y-101268053D01*
X54185613Y-101356443D01*
X54241079Y-101497095D01*
X54332435Y-101617564D01*
X54452904Y-101708920D01*
X54593556Y-101764386D01*
X54681946Y-101775000D01*
X54725000Y-101775000D01*
X55225000Y-101775000D01*
X55268054Y-101775000D01*
X55356443Y-101764386D01*
X55497095Y-101708920D01*
X55617564Y-101617564D01*
X55708920Y-101497095D01*
X55764386Y-101356443D01*
X55775000Y-101268053D01*
X55775000Y-101000000D01*
X55225000Y-101000000D01*
X55225000Y-101775000D01*
X54725000Y-101775000D01*
X54725000Y-101000000D01*
X54175000Y-101000000D01*
X54175000Y-101268053D01*
X53775500Y-101268053D01*
X53775500Y-100220730D01*
X53772646Y-100190300D01*
X53772646Y-100190298D01*
X53727793Y-100062119D01*
X53727793Y-100062118D01*
X53649729Y-99956344D01*
X53625759Y-99890715D01*
X53625500Y-99882711D01*
X53625500Y-99874500D01*
X53645185Y-99807461D01*
X53697989Y-99761706D01*
X53749500Y-99750500D01*
X54182830Y-99750500D01*
X54249869Y-99770185D01*
X54295624Y-99822989D01*
X54305568Y-99892147D01*
X54281634Y-99949425D01*
X54241080Y-100002902D01*
X54185613Y-100143556D01*
X54175000Y-100231946D01*
X54175000Y-100500000D01*
X55775000Y-100500000D01*
X55775000Y-100231946D01*
X55764386Y-100143556D01*
X55708919Y-100002902D01*
X55668366Y-99949425D01*
X55643543Y-99884114D01*
X55657971Y-99815750D01*
X55707068Y-99766039D01*
X55767170Y-99750500D01*
X56402725Y-99750500D01*
X56402727Y-99750500D01*
X56504588Y-99723207D01*
X56595913Y-99670480D01*
X58320480Y-97945913D01*
X58373206Y-97854588D01*
X58373207Y-97854587D01*
X58400500Y-97752727D01*
X58400500Y-95647273D01*
X58373207Y-95545413D01*
X58320480Y-95454087D01*
X58245913Y-95379520D01*
X58061819Y-95195426D01*
X58028334Y-95134103D01*
X58025500Y-95107745D01*
X58025500Y-94695730D01*
X58022646Y-94665300D01*
X58022646Y-94665298D01*
X57977793Y-94537119D01*
X57977792Y-94537117D01*
X57897150Y-94427850D01*
X57787882Y-94347207D01*
X57787880Y-94347206D01*
X57659700Y-94302353D01*
X57629270Y-94299500D01*
X57629266Y-94299500D01*
X56570734Y-94299500D01*
X56570730Y-94299500D01*
X56540300Y-94302353D01*
X56540298Y-94302353D01*
X56412119Y-94347206D01*
X56412117Y-94347207D01*
X56334369Y-94404588D01*
X56302850Y-94427850D01*
X56226627Y-94531130D01*
X56216689Y-94544595D01*
X56214714Y-94543137D01*
X56175420Y-94583515D01*
X56114520Y-94599500D01*
X55517255Y-94599500D01*
X55450216Y-94579815D01*
X55429574Y-94563181D01*
X54986819Y-94120426D01*
X54953334Y-94059103D01*
X54950500Y-94032745D01*
X54950500Y-93809043D01*
X54970185Y-93742004D01*
X54986818Y-93721362D01*
X54989198Y-93718983D01*
X55040573Y-93613893D01*
X55050500Y-93545760D01*
X55050500Y-93393053D01*
X56075000Y-93393053D01*
X56085613Y-93481443D01*
X56141079Y-93622095D01*
X56232435Y-93742564D01*
X56352904Y-93833920D01*
X56493556Y-93889386D01*
X56581946Y-93900000D01*
X56850000Y-93900000D01*
X57350000Y-93900000D01*
X57618054Y-93900000D01*
X57706443Y-93889386D01*
X57847095Y-93833920D01*
X57967564Y-93742564D01*
X58058920Y-93622095D01*
X58114386Y-93481443D01*
X58125000Y-93393053D01*
X58125000Y-93350000D01*
X57350000Y-93350000D01*
X57350000Y-93900000D01*
X56850000Y-93900000D01*
X56850000Y-93350000D01*
X56075000Y-93350000D01*
X56075000Y-93393053D01*
X55050500Y-93393053D01*
X55050500Y-92806946D01*
X56075000Y-92806946D01*
X56075000Y-92850000D01*
X56850000Y-92850000D01*
X57350000Y-92850000D01*
X58125000Y-92850000D01*
X58125000Y-92806946D01*
X58114386Y-92718556D01*
X58058920Y-92577904D01*
X57967564Y-92457435D01*
X57847095Y-92366079D01*
X57706443Y-92310613D01*
X57618054Y-92300000D01*
X57350000Y-92300000D01*
X57350000Y-92850000D01*
X56850000Y-92850000D01*
X56850000Y-92300000D01*
X56581946Y-92300000D01*
X56493556Y-92310613D01*
X56352904Y-92366079D01*
X56232435Y-92457435D01*
X56141079Y-92577904D01*
X56085613Y-92718556D01*
X56075000Y-92806946D01*
X55050500Y-92806946D01*
X55050500Y-92454240D01*
X55040573Y-92386107D01*
X54989198Y-92281017D01*
X54989196Y-92281015D01*
X54989196Y-92281014D01*
X54906485Y-92198303D01*
X54801391Y-92146926D01*
X54733261Y-92137000D01*
X54733260Y-92137000D01*
X54366740Y-92137000D01*
X54366739Y-92137000D01*
X54298608Y-92146926D01*
X54193514Y-92198303D01*
X54162681Y-92229137D01*
X54101358Y-92262622D01*
X54031666Y-92257638D01*
X53987319Y-92229137D01*
X53956485Y-92198303D01*
X53851391Y-92146926D01*
X53783261Y-92137000D01*
X53783260Y-92137000D01*
X53416740Y-92137000D01*
X53416739Y-92137000D01*
X53348608Y-92146926D01*
X53243514Y-92198303D01*
X53212681Y-92229137D01*
X53151358Y-92262622D01*
X53081666Y-92257638D01*
X53037319Y-92229137D01*
X53006485Y-92198303D01*
X52901391Y-92146926D01*
X52833261Y-92137000D01*
X52833260Y-92137000D01*
X52466740Y-92137000D01*
X52466739Y-92137000D01*
X52398608Y-92146926D01*
X52293514Y-92198303D01*
X52210803Y-92281014D01*
X52159426Y-92386108D01*
X52149500Y-92454239D01*
X52149500Y-93709953D01*
X52129815Y-93776992D01*
X52113181Y-93797634D01*
X51947634Y-93963181D01*
X51886311Y-93996666D01*
X51859953Y-93999500D01*
X51814944Y-93999500D01*
X51649773Y-94040210D01*
X51499150Y-94119263D01*
X51371816Y-94232072D01*
X51275182Y-94372068D01*
X51214860Y-94531125D01*
X51214859Y-94531130D01*
X51194355Y-94700000D01*
X51214859Y-94868869D01*
X51214860Y-94868874D01*
X51275182Y-95027931D01*
X51330275Y-95107745D01*
X51371817Y-95167929D01*
X51433543Y-95222613D01*
X51499150Y-95280736D01*
X51649773Y-95359789D01*
X51649775Y-95359790D01*
X51814944Y-95400500D01*
X51985056Y-95400500D01*
X52150225Y-95359790D01*
X52274940Y-95294334D01*
X52300849Y-95280736D01*
X52300850Y-95280734D01*
X52300852Y-95280734D01*
X52343275Y-95243150D01*
X52406505Y-95213431D01*
X52475768Y-95222613D01*
X52529072Y-95267785D01*
X52549493Y-95334604D01*
X52549500Y-95335967D01*
X52549500Y-95532711D01*
X52529815Y-95599750D01*
X52525271Y-95606344D01*
X52447207Y-95712118D01*
X52447206Y-95712119D01*
X52402353Y-95840298D01*
X52402353Y-95840300D01*
X52399500Y-95870730D01*
X52399500Y-96929269D01*
X52402353Y-96959699D01*
X52402353Y-96959701D01*
X52447206Y-97087880D01*
X52447209Y-97087886D01*
X52525270Y-97193655D01*
X52549241Y-97259284D01*
X52549500Y-97267288D01*
X52549500Y-97592898D01*
X52545275Y-97624991D01*
X52524500Y-97702525D01*
X52524500Y-98875761D01*
X52504815Y-98942800D01*
X52502550Y-98946201D01*
X52450183Y-99022068D01*
X52450182Y-99022068D01*
X52389860Y-99181125D01*
X52389859Y-99181130D01*
X52369355Y-99350000D01*
X52389859Y-99518869D01*
X52389860Y-99518874D01*
X52450182Y-99677931D01*
X52502550Y-99753798D01*
X52524433Y-99820152D01*
X52524500Y-99824238D01*
X52524500Y-99882711D01*
X52504815Y-99949750D01*
X52500271Y-99956344D01*
X52422207Y-100062118D01*
X52403193Y-100116456D01*
X52362473Y-100173231D01*
X52297520Y-100198978D01*
X52286153Y-100199500D01*
X51879386Y-100199500D01*
X51812347Y-100179815D01*
X51791705Y-100163181D01*
X50886819Y-99258294D01*
X50853334Y-99196971D01*
X50850500Y-99170613D01*
X50850500Y-97727527D01*
X50850500Y-97727525D01*
X50812984Y-97587515D01*
X50798550Y-97562515D01*
X50740510Y-97461985D01*
X49588015Y-96309490D01*
X49462485Y-96237016D01*
X49462486Y-96237016D01*
X49427482Y-96227637D01*
X49322475Y-96199500D01*
X49322472Y-96199500D01*
X48874499Y-96199500D01*
X48807460Y-96179815D01*
X48761705Y-96127011D01*
X48750499Y-96075500D01*
X48750499Y-94836904D01*
X48734905Y-94738441D01*
X48734905Y-94738438D01*
X48674433Y-94619755D01*
X48674429Y-94619751D01*
X48674428Y-94619749D01*
X48580250Y-94525571D01*
X48580246Y-94525568D01*
X48580245Y-94525567D01*
X48461562Y-94465095D01*
X48461561Y-94465094D01*
X48461558Y-94465093D01*
X48363102Y-94449500D01*
X48363097Y-94449500D01*
X48174500Y-94449500D01*
X48107461Y-94429815D01*
X48061706Y-94377011D01*
X48050500Y-94325500D01*
X48050500Y-94250096D01*
X48070185Y-94183057D01*
X48086815Y-94162419D01*
X48458506Y-93790727D01*
X48458511Y-93790724D01*
X48468714Y-93780520D01*
X48468716Y-93780520D01*
X48580520Y-93668716D01*
X48630998Y-93581284D01*
X48659577Y-93531785D01*
X48700501Y-93379057D01*
X48700501Y-93220943D01*
X48700501Y-93213348D01*
X48700500Y-93213330D01*
X48700500Y-93102611D01*
X48720185Y-93035572D01*
X48736819Y-93014930D01*
X48823523Y-92928225D01*
X48823528Y-92928220D01*
X48884719Y-92808126D01*
X48887877Y-92788186D01*
X48900500Y-92708493D01*
X48900500Y-92191506D01*
X48884720Y-92091878D01*
X48884719Y-92091876D01*
X48884719Y-92091874D01*
X48823528Y-91971780D01*
X48823526Y-91971778D01*
X48823523Y-91971774D01*
X48728225Y-91876476D01*
X48728221Y-91876473D01*
X48728220Y-91876472D01*
X48608126Y-91815281D01*
X48608124Y-91815280D01*
X48608121Y-91815279D01*
X48508493Y-91799500D01*
X48508488Y-91799500D01*
X47691512Y-91799500D01*
X47691507Y-91799500D01*
X47591878Y-91815279D01*
X47471778Y-91876473D01*
X47471774Y-91876476D01*
X47376476Y-91971774D01*
X47376473Y-91971778D01*
X47315279Y-92091878D01*
X47299500Y-92191506D01*
X47299500Y-92708493D01*
X47315279Y-92808121D01*
X47315280Y-92808124D01*
X47315281Y-92808126D01*
X47336617Y-92850000D01*
X47376473Y-92928221D01*
X47376476Y-92928225D01*
X47411826Y-92963575D01*
X47445311Y-93024898D01*
X47440327Y-93094590D01*
X47411826Y-93138937D01*
X47081286Y-93469478D01*
X46969481Y-93581282D01*
X46969479Y-93581284D01*
X46950653Y-93613893D01*
X46930096Y-93649500D01*
X46890423Y-93718215D01*
X46849499Y-93870943D01*
X46849499Y-93870945D01*
X46849499Y-94039046D01*
X46849500Y-94039059D01*
X46849500Y-94325500D01*
X46829815Y-94392539D01*
X46777011Y-94438294D01*
X46725501Y-94449500D01*
X46536904Y-94449500D01*
X46438436Y-94465095D01*
X46377956Y-94495912D01*
X46319755Y-94525567D01*
X46319754Y-94525568D01*
X46319749Y-94525571D01*
X46225571Y-94619749D01*
X46225568Y-94619753D01*
X46165093Y-94738441D01*
X46149500Y-94836897D01*
X43000500Y-94836897D01*
X43000500Y-91414999D01*
X43875487Y-91414999D01*
X43875488Y-91415000D01*
X44566988Y-91415000D01*
X44534075Y-91472007D01*
X44500000Y-91599174D01*
X44500000Y-91730826D01*
X44534075Y-91857993D01*
X44566988Y-91915000D01*
X43875488Y-91915000D01*
X43923062Y-92082205D01*
X43923067Y-92082218D01*
X44018061Y-92272991D01*
X44146500Y-92443071D01*
X44304000Y-92586651D01*
X44304002Y-92586653D01*
X44485201Y-92698846D01*
X44485207Y-92698849D01*
X44683941Y-92775838D01*
X44750000Y-92788186D01*
X44750000Y-92098012D01*
X44807007Y-92130925D01*
X44934174Y-92165000D01*
X45065826Y-92165000D01*
X45192993Y-92130925D01*
X45250000Y-92098012D01*
X45250000Y-92788185D01*
X45316058Y-92775838D01*
X45514792Y-92698849D01*
X45514798Y-92698846D01*
X45695997Y-92586653D01*
X45695999Y-92586651D01*
X45853499Y-92443071D01*
X45981938Y-92272991D01*
X46076932Y-92082218D01*
X46076937Y-92082205D01*
X46124512Y-91915000D01*
X45433012Y-91915000D01*
X45465925Y-91857993D01*
X45500000Y-91730826D01*
X45500000Y-91599174D01*
X45465925Y-91472007D01*
X45433012Y-91415000D01*
X46124512Y-91415000D01*
X46124512Y-91414999D01*
X46076937Y-91247794D01*
X46076932Y-91247781D01*
X45981938Y-91057008D01*
X45853499Y-90886928D01*
X45695999Y-90743348D01*
X45695997Y-90743346D01*
X45514798Y-90631153D01*
X45514789Y-90631149D01*
X45316063Y-90554163D01*
X45316058Y-90554162D01*
X45250000Y-90541813D01*
X45250000Y-91231988D01*
X45192993Y-91199075D01*
X45065826Y-91165000D01*
X44934174Y-91165000D01*
X44807007Y-91199075D01*
X44750000Y-91231988D01*
X44750000Y-90541813D01*
X44683941Y-90554162D01*
X44683936Y-90554163D01*
X44485210Y-90631149D01*
X44485201Y-90631153D01*
X44304002Y-90743346D01*
X44304000Y-90743348D01*
X44146500Y-90886928D01*
X44018061Y-91057008D01*
X43923067Y-91247781D01*
X43923062Y-91247794D01*
X43875487Y-91414999D01*
X43000500Y-91414999D01*
X43000500Y-88255247D01*
X43949500Y-88255247D01*
X43949500Y-89994752D01*
X43961131Y-90053229D01*
X43961132Y-90053230D01*
X44005447Y-90119552D01*
X44071769Y-90163867D01*
X44071770Y-90163868D01*
X44130247Y-90175499D01*
X44130250Y-90175500D01*
X44130252Y-90175500D01*
X45869750Y-90175500D01*
X45869751Y-90175499D01*
X45884568Y-90172552D01*
X45928229Y-90163868D01*
X45928229Y-90163867D01*
X45928231Y-90163867D01*
X45994552Y-90119552D01*
X46038867Y-90053231D01*
X46038867Y-90053229D01*
X46038868Y-90053229D01*
X46050499Y-89994752D01*
X46050500Y-89994750D01*
X46050500Y-89849500D01*
X46070185Y-89782461D01*
X46122989Y-89736706D01*
X46174500Y-89725500D01*
X47445880Y-89725500D01*
X47502174Y-89739015D01*
X47591876Y-89784720D01*
X47691507Y-89800500D01*
X47691512Y-89800500D01*
X48508493Y-89800500D01*
X48608121Y-89784720D01*
X48608121Y-89784719D01*
X48608126Y-89784719D01*
X48728220Y-89723528D01*
X48823528Y-89628220D01*
X48884719Y-89508126D01*
X48884720Y-89508121D01*
X48900500Y-89408493D01*
X48900500Y-88891506D01*
X48884720Y-88791878D01*
X48884719Y-88791876D01*
X48884719Y-88791874D01*
X48823528Y-88671780D01*
X48823526Y-88671778D01*
X48823523Y-88671774D01*
X48728225Y-88576476D01*
X48728221Y-88576473D01*
X48728220Y-88576472D01*
X48608126Y-88515281D01*
X48608124Y-88515280D01*
X48608121Y-88515279D01*
X48508493Y-88499500D01*
X48508488Y-88499500D01*
X47691512Y-88499500D01*
X47691507Y-88499500D01*
X47591876Y-88515279D01*
X47582595Y-88518296D01*
X47581673Y-88515458D01*
X47544011Y-88524500D01*
X46174500Y-88524500D01*
X46107461Y-88504815D01*
X46061706Y-88452011D01*
X46050500Y-88400500D01*
X46050500Y-88255249D01*
X46050499Y-88255247D01*
X46038868Y-88196770D01*
X46038867Y-88196769D01*
X45994552Y-88130447D01*
X45928230Y-88086132D01*
X45928229Y-88086131D01*
X45869752Y-88074500D01*
X45869748Y-88074500D01*
X44130252Y-88074500D01*
X44130247Y-88074500D01*
X44071770Y-88086131D01*
X44071769Y-88086132D01*
X44005447Y-88130447D01*
X43961132Y-88196769D01*
X43961131Y-88196770D01*
X43949500Y-88255247D01*
X43000500Y-88255247D01*
X43000500Y-87324500D01*
X43020185Y-87257461D01*
X43072989Y-87211706D01*
X43124500Y-87200500D01*
X51810689Y-87200500D01*
X51877728Y-87220185D01*
G37*
%TD.AperFunction*%
%TD*%
M02*
