%TF.GenerationSoftware,KiCad,Pcbnew,8.0.9-8.0.9-0~ubuntu24.04.1*%
%TF.CreationDate,2025-10-14T09:48:11+02:00*%
%TF.ProjectId,FastLapLights5V,46617374-4c61-4704-9c69-676874733556,MK7*%
%TF.SameCoordinates,Original*%
%TF.FileFunction,Legend,Bot*%
%TF.FilePolarity,Positive*%
%FSLAX46Y46*%
G04 Gerber Fmt 4.6, Leading zero omitted, Abs format (unit mm)*
G04 Created by KiCad (PCBNEW 8.0.9-8.0.9-0~ubuntu24.04.1) date 2025-10-14 09:48:11*
%MOMM*%
%LPD*%
G01*
G04 APERTURE LIST*
%ADD10C,0.150000*%
%ADD11C,0.120000*%
G04 APERTURE END LIST*
D10*
X62733333Y-121554819D02*
X62733333Y-122269104D01*
X62733333Y-122269104D02*
X62780952Y-122411961D01*
X62780952Y-122411961D02*
X62876190Y-122507200D01*
X62876190Y-122507200D02*
X63019047Y-122554819D01*
X63019047Y-122554819D02*
X63114285Y-122554819D01*
X62257142Y-122554819D02*
X62257142Y-121554819D01*
X62257142Y-121554819D02*
X61876190Y-121554819D01*
X61876190Y-121554819D02*
X61780952Y-121602438D01*
X61780952Y-121602438D02*
X61733333Y-121650057D01*
X61733333Y-121650057D02*
X61685714Y-121745295D01*
X61685714Y-121745295D02*
X61685714Y-121888152D01*
X61685714Y-121888152D02*
X61733333Y-121983390D01*
X61733333Y-121983390D02*
X61780952Y-122031009D01*
X61780952Y-122031009D02*
X61876190Y-122078628D01*
X61876190Y-122078628D02*
X62257142Y-122078628D01*
X60733333Y-122554819D02*
X61304761Y-122554819D01*
X61019047Y-122554819D02*
X61019047Y-121554819D01*
X61019047Y-121554819D02*
X61114285Y-121697676D01*
X61114285Y-121697676D02*
X61209523Y-121792914D01*
X61209523Y-121792914D02*
X61304761Y-121840533D01*
X54354819Y-118116666D02*
X55069104Y-118116666D01*
X55069104Y-118116666D02*
X55211961Y-118069047D01*
X55211961Y-118069047D02*
X55307200Y-117973809D01*
X55307200Y-117973809D02*
X55354819Y-117830952D01*
X55354819Y-117830952D02*
X55354819Y-117735714D01*
X55354819Y-118592857D02*
X54354819Y-118592857D01*
X54354819Y-118592857D02*
X54354819Y-118973809D01*
X54354819Y-118973809D02*
X54402438Y-119069047D01*
X54402438Y-119069047D02*
X54450057Y-119116666D01*
X54450057Y-119116666D02*
X54545295Y-119164285D01*
X54545295Y-119164285D02*
X54688152Y-119164285D01*
X54688152Y-119164285D02*
X54783390Y-119116666D01*
X54783390Y-119116666D02*
X54831009Y-119069047D01*
X54831009Y-119069047D02*
X54878628Y-118973809D01*
X54878628Y-118973809D02*
X54878628Y-118592857D01*
X54450057Y-119545238D02*
X54402438Y-119592857D01*
X54402438Y-119592857D02*
X54354819Y-119688095D01*
X54354819Y-119688095D02*
X54354819Y-119926190D01*
X54354819Y-119926190D02*
X54402438Y-120021428D01*
X54402438Y-120021428D02*
X54450057Y-120069047D01*
X54450057Y-120069047D02*
X54545295Y-120116666D01*
X54545295Y-120116666D02*
X54640533Y-120116666D01*
X54640533Y-120116666D02*
X54783390Y-120069047D01*
X54783390Y-120069047D02*
X55354819Y-119497619D01*
X55354819Y-119497619D02*
X55354819Y-120116666D01*
D11*
%TO.C,JP1*%
X60500000Y-124400000D02*
X60500000Y-123800000D01*
X61200000Y-123100000D02*
X62600000Y-123100000D01*
X62600000Y-125100000D02*
X61200000Y-125100000D01*
X63300000Y-123800000D02*
X63300000Y-124400000D01*
X60500000Y-123800000D02*
G75*
G02*
X61200000Y-123100000I699999J1D01*
G01*
X61200000Y-125100000D02*
G75*
G02*
X60500000Y-124400000I-1J699999D01*
G01*
X62600000Y-123100000D02*
G75*
G02*
X63300000Y-123800000I0J-700000D01*
G01*
X63300000Y-124400000D02*
G75*
G02*
X62600000Y-125100000I-700000J0D01*
G01*
%TO.C,JP2*%
X52100000Y-119650000D02*
X52100000Y-118250000D01*
X52800000Y-117550000D02*
X53400000Y-117550000D01*
X53400000Y-120350000D02*
X52800000Y-120350000D01*
X54100000Y-118250000D02*
X54100000Y-119650000D01*
X52100000Y-118250000D02*
G75*
G02*
X52800000Y-117550000I700000J0D01*
G01*
X52800000Y-120350000D02*
G75*
G02*
X52100000Y-119650000I-1J699999D01*
G01*
X53400000Y-117550000D02*
G75*
G02*
X54100000Y-118250000I0J-700000D01*
G01*
X54100000Y-119650000D02*
G75*
G02*
X53400000Y-120350000I-699999J-1D01*
G01*
%TD*%
M02*
