%TF.GenerationSoftware,KiCad,Pcbnew,8.0.9-8.0.9-0~ubuntu24.04.1*%
%TF.CreationDate,2025-05-14T18:23:07+02:00*%
%TF.ProjectId,FastLapLights5V,46617374-4c61-4704-9c69-676874733556,MK6*%
%TF.SameCoordinates,Original*%
%TF.FileFunction,Legend,Bot*%
%TF.FilePolarity,Positive*%
%FSLAX46Y46*%
G04 Gerber Fmt 4.6, Leading zero omitted, Abs format (unit mm)*
G04 Created by KiCad (PCBNEW 8.0.9-8.0.9-0~ubuntu24.04.1) date 2025-05-14 18:23:07*
%MOMM*%
%LPD*%
G01*
G04 APERTURE LIST*
%ADD10C,0.150000*%
%ADD11C,0.120000*%
G04 APERTURE END LIST*
D10*
X62733333Y-121554819D02*
X62733333Y-122269104D01*
X62733333Y-122269104D02*
X62780952Y-122411961D01*
X62780952Y-122411961D02*
X62876190Y-122507200D01*
X62876190Y-122507200D02*
X63019047Y-122554819D01*
X63019047Y-122554819D02*
X63114285Y-122554819D01*
X62257142Y-122554819D02*
X62257142Y-121554819D01*
X62257142Y-121554819D02*
X61876190Y-121554819D01*
X61876190Y-121554819D02*
X61780952Y-121602438D01*
X61780952Y-121602438D02*
X61733333Y-121650057D01*
X61733333Y-121650057D02*
X61685714Y-121745295D01*
X61685714Y-121745295D02*
X61685714Y-121888152D01*
X61685714Y-121888152D02*
X61733333Y-121983390D01*
X61733333Y-121983390D02*
X61780952Y-122031009D01*
X61780952Y-122031009D02*
X61876190Y-122078628D01*
X61876190Y-122078628D02*
X62257142Y-122078628D01*
X60733333Y-122554819D02*
X61304761Y-122554819D01*
X61019047Y-122554819D02*
X61019047Y-121554819D01*
X61019047Y-121554819D02*
X61114285Y-121697676D01*
X61114285Y-121697676D02*
X61209523Y-121792914D01*
X61209523Y-121792914D02*
X61304761Y-121840533D01*
D11*
%TO.C,JP1*%
X60500000Y-124400000D02*
X60500000Y-123800000D01*
X61200000Y-123100000D02*
X62600000Y-123100000D01*
X62600000Y-125100000D02*
X61200000Y-125100000D01*
X63300000Y-123800000D02*
X63300000Y-124400000D01*
X60500000Y-123800000D02*
G75*
G02*
X61200000Y-123100000I699999J1D01*
G01*
X61200000Y-125100000D02*
G75*
G02*
X60500000Y-124400000I-1J699999D01*
G01*
X62600000Y-123100000D02*
G75*
G02*
X63300000Y-123800000I0J-700000D01*
G01*
X63300000Y-124400000D02*
G75*
G02*
X62600000Y-125100000I-700000J0D01*
G01*
%TD*%
M02*
