%TF.GenerationSoftware,KiCad,Pcbnew,8.0.9-8.0.9-0~ubuntu24.04.1*%
%TF.CreationDate,2025-04-14T22:12:55+02:00*%
%TF.ProjectId,FastLapLights5V,46617374-4c61-4704-9c69-676874733556,MK6*%
%TF.SameCoordinates,Original*%
%TF.FileFunction,Legend,Bot*%
%TF.FilePolarity,Positive*%
%FSLAX46Y46*%
G04 Gerber Fmt 4.6, Leading zero omitted, Abs format (unit mm)*
G04 Created by KiCad (PCBNEW 8.0.9-8.0.9-0~ubuntu24.04.1) date 2025-04-14 22:12:55*
%MOMM*%
%LPD*%
G01*
G04 APERTURE LIST*
%ADD10C,0.150000*%
%ADD11C,0.120000*%
G04 APERTURE END LIST*
D10*
X62683333Y-121654819D02*
X62683333Y-122369104D01*
X62683333Y-122369104D02*
X62730952Y-122511961D01*
X62730952Y-122511961D02*
X62826190Y-122607200D01*
X62826190Y-122607200D02*
X62969047Y-122654819D01*
X62969047Y-122654819D02*
X63064285Y-122654819D01*
X62207142Y-122654819D02*
X62207142Y-121654819D01*
X62207142Y-121654819D02*
X61826190Y-121654819D01*
X61826190Y-121654819D02*
X61730952Y-121702438D01*
X61730952Y-121702438D02*
X61683333Y-121750057D01*
X61683333Y-121750057D02*
X61635714Y-121845295D01*
X61635714Y-121845295D02*
X61635714Y-121988152D01*
X61635714Y-121988152D02*
X61683333Y-122083390D01*
X61683333Y-122083390D02*
X61730952Y-122131009D01*
X61730952Y-122131009D02*
X61826190Y-122178628D01*
X61826190Y-122178628D02*
X62207142Y-122178628D01*
X60683333Y-122654819D02*
X61254761Y-122654819D01*
X60969047Y-122654819D02*
X60969047Y-121654819D01*
X60969047Y-121654819D02*
X61064285Y-121797676D01*
X61064285Y-121797676D02*
X61159523Y-121892914D01*
X61159523Y-121892914D02*
X61254761Y-121940533D01*
D11*
%TO.C,JP1*%
X60500000Y-124400000D02*
X60500000Y-123800000D01*
X61200000Y-123100000D02*
X62600000Y-123100000D01*
X62600000Y-125100000D02*
X61200000Y-125100000D01*
X63300000Y-123800000D02*
X63300000Y-124400000D01*
X60500000Y-123800000D02*
G75*
G02*
X61200000Y-123100000I700000J0D01*
G01*
X61200000Y-125100000D02*
G75*
G02*
X60500000Y-124400000I0J700000D01*
G01*
X62600000Y-123100000D02*
G75*
G02*
X63300000Y-123800000I1J-699999D01*
G01*
X63300000Y-124400000D02*
G75*
G02*
X62600000Y-125100000I-699999J-1D01*
G01*
%TD*%
M02*
