%TF.GenerationSoftware,KiCad,Pcbnew,8.0.9-8.0.9-0~ubuntu24.04.1*%
%TF.CreationDate,2025-04-14T20:32:45+02:00*%
%TF.ProjectId,FastLapLights5V,46617374-4c61-4704-9c69-676874733556,MK6*%
%TF.SameCoordinates,Original*%
%TF.FileFunction,Drillmap*%
%TF.FilePolarity,Positive*%
%FSLAX45Y45*%
G04 Gerber Fmt 4.5, Leading zero omitted, Abs format (unit mm)*
G04 Created by KiCad (PCBNEW 8.0.9-8.0.9-0~ubuntu24.04.1) date 2025-04-14 20:32:45*
%MOMM*%
%LPD*%
G01*
G04 APERTURE LIST*
%ADD10C,0.050000*%
%ADD11C,0.200000*%
G04 APERTURE END LIST*
D10*
X4250000Y-8720000D02*
X6750000Y-8720000D01*
X6750000Y-12640000D01*
X4250000Y-12640000D01*
X4250000Y-8720000D01*
D11*
X4508277Y-12953984D02*
X4508277Y-12753984D01*
X4508277Y-12753984D02*
X4555896Y-12753984D01*
X4555896Y-12753984D02*
X4584467Y-12763508D01*
X4584467Y-12763508D02*
X4603515Y-12782555D01*
X4603515Y-12782555D02*
X4613039Y-12801603D01*
X4613039Y-12801603D02*
X4622563Y-12839698D01*
X4622563Y-12839698D02*
X4622563Y-12868269D01*
X4622563Y-12868269D02*
X4613039Y-12906365D01*
X4613039Y-12906365D02*
X4603515Y-12925412D01*
X4603515Y-12925412D02*
X4584467Y-12944460D01*
X4584467Y-12944460D02*
X4555896Y-12953984D01*
X4555896Y-12953984D02*
X4508277Y-12953984D01*
X4708277Y-12953984D02*
X4708277Y-12820650D01*
X4708277Y-12858746D02*
X4717801Y-12839698D01*
X4717801Y-12839698D02*
X4727324Y-12830174D01*
X4727324Y-12830174D02*
X4746372Y-12820650D01*
X4746372Y-12820650D02*
X4765420Y-12820650D01*
X4832086Y-12953984D02*
X4832086Y-12820650D01*
X4832086Y-12753984D02*
X4822563Y-12763508D01*
X4822563Y-12763508D02*
X4832086Y-12773031D01*
X4832086Y-12773031D02*
X4841610Y-12763508D01*
X4841610Y-12763508D02*
X4832086Y-12753984D01*
X4832086Y-12753984D02*
X4832086Y-12773031D01*
X4955896Y-12953984D02*
X4936848Y-12944460D01*
X4936848Y-12944460D02*
X4927324Y-12925412D01*
X4927324Y-12925412D02*
X4927324Y-12753984D01*
X5060658Y-12953984D02*
X5041610Y-12944460D01*
X5041610Y-12944460D02*
X5032086Y-12925412D01*
X5032086Y-12925412D02*
X5032086Y-12753984D01*
X5289229Y-12953984D02*
X5289229Y-12753984D01*
X5289229Y-12753984D02*
X5355896Y-12896841D01*
X5355896Y-12896841D02*
X5422563Y-12753984D01*
X5422563Y-12753984D02*
X5422563Y-12953984D01*
X5603515Y-12953984D02*
X5603515Y-12849222D01*
X5603515Y-12849222D02*
X5593991Y-12830174D01*
X5593991Y-12830174D02*
X5574944Y-12820650D01*
X5574944Y-12820650D02*
X5536848Y-12820650D01*
X5536848Y-12820650D02*
X5517801Y-12830174D01*
X5603515Y-12944460D02*
X5584467Y-12953984D01*
X5584467Y-12953984D02*
X5536848Y-12953984D01*
X5536848Y-12953984D02*
X5517801Y-12944460D01*
X5517801Y-12944460D02*
X5508277Y-12925412D01*
X5508277Y-12925412D02*
X5508277Y-12906365D01*
X5508277Y-12906365D02*
X5517801Y-12887317D01*
X5517801Y-12887317D02*
X5536848Y-12877793D01*
X5536848Y-12877793D02*
X5584467Y-12877793D01*
X5584467Y-12877793D02*
X5603515Y-12868269D01*
X5698753Y-12820650D02*
X5698753Y-13020650D01*
X5698753Y-12830174D02*
X5717801Y-12820650D01*
X5717801Y-12820650D02*
X5755896Y-12820650D01*
X5755896Y-12820650D02*
X5774943Y-12830174D01*
X5774943Y-12830174D02*
X5784467Y-12839698D01*
X5784467Y-12839698D02*
X5793991Y-12858746D01*
X5793991Y-12858746D02*
X5793991Y-12915888D01*
X5793991Y-12915888D02*
X5784467Y-12934936D01*
X5784467Y-12934936D02*
X5774943Y-12944460D01*
X5774943Y-12944460D02*
X5755896Y-12953984D01*
X5755896Y-12953984D02*
X5717801Y-12953984D01*
X5717801Y-12953984D02*
X5698753Y-12944460D01*
X5879705Y-12934936D02*
X5889229Y-12944460D01*
X5889229Y-12944460D02*
X5879705Y-12953984D01*
X5879705Y-12953984D02*
X5870182Y-12944460D01*
X5870182Y-12944460D02*
X5879705Y-12934936D01*
X5879705Y-12934936D02*
X5879705Y-12953984D01*
X5879705Y-12830174D02*
X5889229Y-12839698D01*
X5889229Y-12839698D02*
X5879705Y-12849222D01*
X5879705Y-12849222D02*
X5870182Y-12839698D01*
X5870182Y-12839698D02*
X5879705Y-12830174D01*
X5879705Y-12830174D02*
X5879705Y-12849222D01*
M02*
