%TF.GenerationSoftware,KiCad,Pcbnew,8.0.9-8.0.9-0~ubuntu24.04.1*%
%TF.CreationDate,2025-04-14T20:38:35+02:00*%
%TF.ProjectId,FastLapLights5V,46617374-4c61-4704-9c69-676874733556,MK6*%
%TF.SameCoordinates,Original*%
%TF.FileFunction,Copper,L1,Top*%
%TF.FilePolarity,Positive*%
%FSLAX46Y46*%
G04 Gerber Fmt 4.6, Leading zero omitted, Abs format (unit mm)*
G04 Created by KiCad (PCBNEW 8.0.9-8.0.9-0~ubuntu24.04.1) date 2025-04-14 20:38:35*
%MOMM*%
%LPD*%
G01*
G04 APERTURE LIST*
G04 Aperture macros list*
%AMRoundRect*
0 Rectangle with rounded corners*
0 $1 Rounding radius*
0 $2 $3 $4 $5 $6 $7 $8 $9 X,Y pos of 4 corners*
0 Add a 4 corners polygon primitive as box body*
4,1,4,$2,$3,$4,$5,$6,$7,$8,$9,$2,$3,0*
0 Add four circle primitives for the rounded corners*
1,1,$1+$1,$2,$3*
1,1,$1+$1,$4,$5*
1,1,$1+$1,$6,$7*
1,1,$1+$1,$8,$9*
0 Add four rect primitives between the rounded corners*
20,1,$1+$1,$2,$3,$4,$5,0*
20,1,$1+$1,$4,$5,$6,$7,0*
20,1,$1+$1,$6,$7,$8,$9,0*
20,1,$1+$1,$8,$9,$2,$3,0*%
G04 Aperture macros list end*
%TA.AperFunction,SMDPad,CuDef*%
%ADD10RoundRect,0.225000X-0.250000X0.225000X-0.250000X-0.225000X0.250000X-0.225000X0.250000X0.225000X0*%
%TD*%
%TA.AperFunction,SMDPad,CuDef*%
%ADD11RoundRect,0.225000X0.250000X-0.225000X0.250000X0.225000X-0.250000X0.225000X-0.250000X-0.225000X0*%
%TD*%
%TA.AperFunction,ComponentPad*%
%ADD12R,1.700000X1.700000*%
%TD*%
%TA.AperFunction,ComponentPad*%
%ADD13O,1.700000X1.700000*%
%TD*%
%TA.AperFunction,SMDPad,CuDef*%
%ADD14RoundRect,0.250000X-0.475000X0.250000X-0.475000X-0.250000X0.475000X-0.250000X0.475000X0.250000X0*%
%TD*%
%TA.AperFunction,SMDPad,CuDef*%
%ADD15RoundRect,0.225000X-0.225000X-0.250000X0.225000X-0.250000X0.225000X0.250000X-0.225000X0.250000X0*%
%TD*%
%TA.AperFunction,SMDPad,CuDef*%
%ADD16RoundRect,0.150000X-0.512500X-0.150000X0.512500X-0.150000X0.512500X0.150000X-0.512500X0.150000X0*%
%TD*%
%TA.AperFunction,SMDPad,CuDef*%
%ADD17RoundRect,0.200000X-0.275000X0.200000X-0.275000X-0.200000X0.275000X-0.200000X0.275000X0.200000X0*%
%TD*%
%TA.AperFunction,SMDPad,CuDef*%
%ADD18RoundRect,0.125000X-0.500000X0.125000X-0.500000X-0.125000X0.500000X-0.125000X0.500000X0.125000X0*%
%TD*%
%TA.AperFunction,SMDPad,CuDef*%
%ADD19RoundRect,0.220000X-0.880000X1.880000X-0.880000X-1.880000X0.880000X-1.880000X0.880000X1.880000X0*%
%TD*%
%TA.AperFunction,SMDPad,CuDef*%
%ADD20RoundRect,0.225000X0.375000X-0.225000X0.375000X0.225000X-0.375000X0.225000X-0.375000X-0.225000X0*%
%TD*%
%TA.AperFunction,SMDPad,CuDef*%
%ADD21RoundRect,0.100000X-0.100000X0.637500X-0.100000X-0.637500X0.100000X-0.637500X0.100000X0.637500X0*%
%TD*%
%TA.AperFunction,SMDPad,CuDef*%
%ADD22RoundRect,0.400000X-1.250000X-0.400000X1.250000X-0.400000X1.250000X0.400000X-1.250000X0.400000X0*%
%TD*%
%TA.AperFunction,SMDPad,CuDef*%
%ADD23RoundRect,0.200000X0.200000X0.275000X-0.200000X0.275000X-0.200000X-0.275000X0.200000X-0.275000X0*%
%TD*%
%TA.AperFunction,ViaPad*%
%ADD24C,1.000000*%
%TD*%
%TA.AperFunction,ViaPad*%
%ADD25C,0.700000*%
%TD*%
%TA.AperFunction,ViaPad*%
%ADD26C,0.600000*%
%TD*%
%TA.AperFunction,Conductor*%
%ADD27C,0.800000*%
%TD*%
%TA.AperFunction,Conductor*%
%ADD28C,0.700000*%
%TD*%
%TA.AperFunction,Conductor*%
%ADD29C,0.400000*%
%TD*%
%TA.AperFunction,Conductor*%
%ADD30C,0.600000*%
%TD*%
%TA.AperFunction,Conductor*%
%ADD31C,0.500000*%
%TD*%
%TA.AperFunction,Conductor*%
%ADD32C,0.200000*%
%TD*%
%TA.AperFunction,Conductor*%
%ADD33C,0.300000*%
%TD*%
%TA.AperFunction,Conductor*%
%ADD34C,1.000000*%
%TD*%
G04 APERTURE END LIST*
D10*
%TO.P,C7,1*%
%TO.N,/VRAIL_CAP*%
X53800000Y-95500000D03*
%TO.P,C7,2*%
%TO.N,GND*%
X53800000Y-97050000D03*
%TD*%
%TO.P,C6,1*%
%TO.N,/VRAIL_CAP*%
X54200000Y-90025000D03*
%TO.P,C6,2*%
%TO.N,GND*%
X54200000Y-91575000D03*
%TD*%
D11*
%TO.P,C5,1*%
%TO.N,Net-(U2-SW)*%
X62362500Y-90525000D03*
%TO.P,C5,2*%
%TO.N,Net-(U2-BST)*%
X62362500Y-88975000D03*
%TD*%
D12*
%TO.P,J4,1,Pin_1*%
%TO.N,+5V*%
X44860000Y-115700000D03*
D13*
%TO.P,J4,2,Pin_2*%
%TO.N,/START_LIGHTS_5V*%
X47400000Y-115700000D03*
%TO.P,J4,3,Pin_3*%
%TO.N,/TRACK_LIGHTS_G*%
X44860000Y-118240000D03*
%TO.P,J4,4,Pin_4*%
%TO.N,/TRACK_LIGHTS_R*%
X47400000Y-118240000D03*
%TO.P,J4,5,Pin_5*%
%TO.N,/IO_POWER_RAIL_INT*%
X44860000Y-120780000D03*
%TO.P,J4,6,Pin_6*%
%TO.N,/IO_POWER_RAIL_DATA*%
X47400000Y-120780000D03*
%TO.P,J4,7,Pin_7*%
%TO.N,GND*%
X44860000Y-123320000D03*
%TO.P,J4,8,Pin_8*%
%TO.N,+3.3V*%
X47400000Y-123320000D03*
%TD*%
D12*
%TO.P,J1,1,Pin_1*%
%TO.N,VRAIL*%
X45000000Y-89125000D03*
D13*
%TO.P,J1,2,Pin_2*%
%TO.N,GND*%
X45000000Y-91665000D03*
%TD*%
D10*
%TO.P,C11,1*%
%TO.N,+3.3V*%
X54800000Y-109225000D03*
%TO.P,C11,2*%
%TO.N,GND*%
X54800000Y-110775000D03*
%TD*%
D14*
%TO.P,C4,1*%
%TO.N,/VRAIL_CAP*%
X52050000Y-90050000D03*
%TO.P,C4,2*%
%TO.N,GND*%
X52050000Y-91950000D03*
%TD*%
D15*
%TO.P,C2,1*%
%TO.N,+3.3V*%
X56425000Y-116300000D03*
%TO.P,C2,2*%
%TO.N,GND*%
X57975000Y-116300000D03*
%TD*%
D11*
%TO.P,C10,1*%
%TO.N,+5V*%
X48600000Y-109175000D03*
%TO.P,C10,2*%
%TO.N,GND*%
X48600000Y-107625000D03*
%TD*%
D15*
%TO.P,C12,1*%
%TO.N,+5V*%
X50525000Y-116700000D03*
%TO.P,C12,2*%
%TO.N,GND*%
X52075000Y-116700000D03*
%TD*%
D16*
%TO.P,U2,1,FB*%
%TO.N,+5V*%
X57662500Y-89100000D03*
%TO.P,U2,2,EN*%
%TO.N,/VRAIL_CAP*%
X57662500Y-90050000D03*
%TO.P,U2,3,IN*%
X57662500Y-91000000D03*
%TO.P,U2,4,GND*%
%TO.N,GND*%
X59937500Y-91000000D03*
%TO.P,U2,5,SW*%
%TO.N,Net-(U2-SW)*%
X59937500Y-90050000D03*
%TO.P,U2,6,BST*%
%TO.N,Net-(U2-BST)*%
X59937500Y-89100000D03*
%TD*%
D17*
%TO.P,R3,1*%
%TO.N,/IO_POWER_RAIL_DATA*%
X43600000Y-110775000D03*
%TO.P,R3,2*%
%TO.N,GND*%
X43600000Y-112425000D03*
%TD*%
D18*
%TO.P,IC1,1,~{OE}*%
%TO.N,GND*%
X53850000Y-114950000D03*
%TO.P,IC1,2,A*%
%TO.N,/START_LIGHTS*%
X53850000Y-114000000D03*
%TO.P,IC1,3,GND*%
%TO.N,GND*%
X53850000Y-113050000D03*
%TO.P,IC1,4,Y*%
%TO.N,/START_LIGHTS_5V*%
X51350000Y-113050000D03*
%TO.P,IC1,5,VCC*%
%TO.N,+5V*%
X51350000Y-114950000D03*
%TD*%
D19*
%TO.P,C3,1*%
%TO.N,/VRAIL_CAP*%
X47700000Y-96750000D03*
%TO.P,C3,2*%
%TO.N,GND*%
X47700000Y-104050000D03*
%TD*%
D10*
%TO.P,C8,1*%
%TO.N,+5V*%
X56400000Y-106125000D03*
%TO.P,C8,2*%
%TO.N,GND*%
X56400000Y-107675000D03*
%TD*%
%TO.P,C9,1*%
%TO.N,+5V*%
X58100000Y-106125000D03*
%TO.P,C9,2*%
%TO.N,GND*%
X58100000Y-107675000D03*
%TD*%
D20*
%TO.P,D1,1,K*%
%TO.N,/VRAIL_CAP*%
X48100000Y-92450000D03*
%TO.P,D1,2,A*%
%TO.N,VRAIL*%
X48100000Y-89150000D03*
%TD*%
D21*
%TO.P,U1,1,PB7*%
%TO.N,/I2C_SCL*%
X58375000Y-118737500D03*
%TO.P,U1,2,PC14*%
%TO.N,/I2C_SDA*%
X57725000Y-118737500D03*
%TO.P,U1,3,PC15*%
%TO.N,unconnected-(U1-PC15-Pad3)*%
X57075000Y-118737500D03*
%TO.P,U1,4,VDD*%
%TO.N,+3.3V*%
X56425000Y-118737500D03*
%TO.P,U1,5,VSS*%
%TO.N,GND*%
X55775000Y-118737500D03*
%TO.P,U1,6,PF2*%
%TO.N,/SWD_NRST*%
X55125000Y-118737500D03*
%TO.P,U1,7,PA0*%
%TO.N,/START_LIGHTS*%
X54475000Y-118737500D03*
%TO.P,U1,8,PA1*%
%TO.N,unconnected-(U1-PA1-Pad8)*%
X53825000Y-118737500D03*
%TO.P,U1,9,PA2*%
%TO.N,unconnected-(U1-PA2-Pad9)*%
X53175000Y-118737500D03*
%TO.P,U1,10,PA3*%
%TO.N,/IO_POWER_RAIL_INT*%
X52525000Y-118737500D03*
%TO.P,U1,11,PA4*%
%TO.N,/IO_POWER_RAIL_DATA*%
X52525000Y-124462500D03*
%TO.P,U1,12,PA5*%
%TO.N,unconnected-(U1-PA5-Pad12)*%
X53175000Y-124462500D03*
%TO.P,U1,13,PA6*%
%TO.N,/TRACK_LIGHTS_G*%
X53825000Y-124462500D03*
%TO.P,U1,14,PA7*%
%TO.N,/TRACK_LIGHTS_R*%
X54475000Y-124462500D03*
%TO.P,U1,15,PA8*%
%TO.N,unconnected-(U1-PA8-Pad15)*%
X55125000Y-124462500D03*
%TO.P,U1,16,PA9/PA11*%
%TO.N,unconnected-(U1-PA9{slash}PA11-Pad16)*%
X55775000Y-124462500D03*
%TO.P,U1,17,PA10/PA12*%
%TO.N,unconnected-(U1-PA10{slash}PA12-Pad17)*%
X56425000Y-124462500D03*
%TO.P,U1,18,PA13*%
%TO.N,/SWD_SWDIO*%
X57075000Y-124462500D03*
%TO.P,U1,19,PA14*%
%TO.N,/SWD_SWCLK*%
X57725000Y-124462500D03*
%TO.P,U1,20,PB6*%
%TO.N,Net-(JP1-B)*%
X58375000Y-124462500D03*
%TD*%
D12*
%TO.P,J3,1,Pin_1*%
%TO.N,/I2C_SDA*%
X63500000Y-117600000D03*
D13*
%TO.P,J3,2,Pin_2*%
%TO.N,/I2C_SCL*%
X60960000Y-117600000D03*
%TD*%
D15*
%TO.P,C1,1*%
%TO.N,+3.3V*%
X56425000Y-114700000D03*
%TO.P,C1,2*%
%TO.N,GND*%
X57975000Y-114700000D03*
%TD*%
D12*
%TO.P,J2,1,Pin_1*%
%TO.N,GND*%
X60910000Y-108910000D03*
D13*
%TO.P,J2,2,Pin_2*%
%TO.N,/SWD_SWCLK*%
X63450000Y-108910000D03*
%TO.P,J2,3,Pin_3*%
%TO.N,+3.3V*%
X60910000Y-111450000D03*
%TO.P,J2,4,Pin_4*%
%TO.N,/SWD_SWDIO*%
X63450000Y-111450000D03*
%TO.P,J2,5,Pin_5*%
%TO.N,+3.3V*%
X60910000Y-113990000D03*
%TO.P,J2,6,Pin_6*%
%TO.N,/SWD_NRST*%
X63450000Y-113990000D03*
%TD*%
D16*
%TO.P,U3,1,VIN*%
%TO.N,+5V*%
X50750000Y-109200000D03*
%TO.P,U3,2,GND*%
%TO.N,GND*%
X50750000Y-110150000D03*
%TO.P,U3,3,EN*%
%TO.N,+5V*%
X50750000Y-111100000D03*
%TO.P,U3,4,NC*%
%TO.N,unconnected-(U3-NC-Pad4)*%
X53025000Y-111100000D03*
%TO.P,U3,5,VOUT*%
%TO.N,+3.3V*%
X53025000Y-109200000D03*
%TD*%
D22*
%TO.P,L1,1,1*%
%TO.N,Net-(U2-SW)*%
X61500000Y-94850000D03*
%TO.P,L1,2,2*%
%TO.N,+5V*%
X61500000Y-103750000D03*
%TD*%
D17*
%TO.P,R1,1*%
%TO.N,+3.3V*%
X66050000Y-123275000D03*
%TO.P,R1,2*%
%TO.N,Net-(JP1-A)*%
X66050000Y-124925000D03*
%TD*%
D23*
%TO.P,R2,1*%
%TO.N,VRAIL*%
X46825000Y-109400000D03*
%TO.P,R2,2*%
%TO.N,/IO_POWER_RAIL_DATA*%
X45175000Y-109400000D03*
%TD*%
D24*
%TO.N,GND*%
X53200000Y-116700000D03*
X45000000Y-93800000D03*
X50500000Y-124100000D03*
X50200000Y-107625000D03*
X63000000Y-120700000D03*
X53800000Y-98450000D03*
X59962500Y-92375000D03*
X64000000Y-88700000D03*
X52025000Y-110200000D03*
X57400000Y-121000000D03*
X54825000Y-111950000D03*
D25*
X55225686Y-117205686D03*
D24*
X54200000Y-92900000D03*
X52400000Y-114000000D03*
X58000000Y-113200000D03*
X52050000Y-93300000D03*
X59400000Y-116300000D03*
X56200000Y-120400000D03*
X47000000Y-107300000D03*
X66000000Y-88700000D03*
X66000000Y-109700000D03*
X51500000Y-119300000D03*
X43600000Y-109100000D03*
%TO.N,/TRACK_LIGHTS_R*%
X53500000Y-120800000D03*
%TO.N,+3.3V*%
X66000000Y-121900000D03*
X57600000Y-111450000D03*
%TO.N,/SWD_NRST*%
X56000000Y-121900000D03*
%TO.N,VRAIL*%
X47100000Y-110600000D03*
%TO.N,/IO_POWER_RAIL_DATA*%
X45600000Y-111200000D03*
D26*
%TO.N,/IO_POWER_RAIL_INT*%
X52224914Y-121075086D03*
D24*
%TO.N,+5V*%
X55900000Y-88900000D03*
X50500000Y-118500000D03*
X61150000Y-105850000D03*
X48625000Y-110300000D03*
X54400000Y-106200000D03*
%TO.N,Net-(JP1-A)*%
X64200000Y-123900000D03*
%TO.N,Net-(JP1-B)*%
X59550000Y-124250000D03*
%TD*%
D27*
%TO.N,+3.3V*%
X56425000Y-114700000D02*
X56425000Y-114000000D01*
X56425000Y-114000000D02*
X55925000Y-113500000D01*
X55925000Y-113500000D02*
X55925000Y-111000000D01*
X56425000Y-114700000D02*
X56425000Y-116300000D01*
D28*
%TO.N,GND*%
X57975000Y-114700000D02*
X57975000Y-113225000D01*
X57975000Y-113225000D02*
X58000000Y-113200000D01*
%TO.N,+5V*%
X61150000Y-105850000D02*
X60875000Y-106125000D01*
X60875000Y-106125000D02*
X58100000Y-106125000D01*
X58100000Y-106125000D02*
X56400000Y-106125000D01*
D27*
%TO.N,GND*%
X54200000Y-92900000D02*
X54200000Y-91950000D01*
D29*
X55775000Y-118737500D02*
X55775000Y-117806370D01*
D30*
X52025000Y-110200000D02*
X51975000Y-110150000D01*
D27*
X53800000Y-98450000D02*
X53800000Y-97200000D01*
D29*
X55775000Y-117806370D02*
X55225686Y-117257056D01*
D27*
X59962500Y-92375000D02*
X59962500Y-91125000D01*
D30*
X54825000Y-110775000D02*
X54825000Y-111950000D01*
D29*
X55775000Y-118737500D02*
X55775000Y-119975000D01*
D27*
X48625000Y-107625000D02*
X50200000Y-107625000D01*
X52050000Y-93300000D02*
X52050000Y-91950000D01*
D30*
X51975000Y-110150000D02*
X50750000Y-110150000D01*
D29*
X55775000Y-119975000D02*
X56200000Y-120400000D01*
X55225686Y-117257056D02*
X55225686Y-117205686D01*
D28*
X57975000Y-116300000D02*
X59400000Y-116300000D01*
D27*
X53200000Y-116700000D02*
X52075000Y-116700000D01*
D29*
%TO.N,/TRACK_LIGHTS_R*%
X54475000Y-124462500D02*
X54475000Y-121775000D01*
X54475000Y-121775000D02*
X53500000Y-120800000D01*
D27*
%TO.N,+3.3V*%
X56425000Y-117275000D02*
X56400000Y-117300000D01*
D29*
X56400000Y-117300000D02*
X56425000Y-117325000D01*
D27*
X56375000Y-111450000D02*
X57600000Y-111450000D01*
X60910000Y-111450000D02*
X60910000Y-113990000D01*
D29*
X66050000Y-121950000D02*
X66050000Y-123275000D01*
D27*
X56425000Y-116300000D02*
X56425000Y-117275000D01*
D29*
X66000000Y-121900000D02*
X66050000Y-121950000D01*
D27*
X55925000Y-111000000D02*
X56375000Y-111450000D01*
X54922960Y-109225000D02*
X55925000Y-110227040D01*
X55925000Y-110227040D02*
X55925000Y-111000000D01*
D29*
X56425000Y-117325000D02*
X56425000Y-118737500D01*
D27*
X57600000Y-111450000D02*
X60910000Y-111450000D01*
D30*
X54800000Y-109200000D02*
X54825000Y-109225000D01*
X53025000Y-109200000D02*
X54800000Y-109200000D01*
D27*
X54825000Y-109225000D02*
X54922960Y-109225000D01*
D29*
%TO.N,/START_LIGHTS*%
X54470000Y-116870000D02*
X54450000Y-116850000D01*
D31*
X54450000Y-116850000D02*
X55400000Y-115900000D01*
D29*
X54475000Y-118737500D02*
X54470000Y-118732500D01*
D31*
X55400000Y-115900000D02*
X55400000Y-114700000D01*
X55400000Y-114700000D02*
X54700000Y-114000000D01*
D29*
X54470000Y-118732500D02*
X54470000Y-116870000D01*
D31*
X54700000Y-114000000D02*
X53850000Y-114000000D01*
D29*
%TO.N,/SWD_NRST*%
X55125000Y-121025000D02*
X56000000Y-121900000D01*
X55125000Y-118737500D02*
X55125000Y-121025000D01*
%TO.N,/SWD_SWCLK*%
X58190122Y-123200000D02*
X63400000Y-123200000D01*
X57725000Y-123665122D02*
X58190122Y-123200000D01*
X57725000Y-124462500D02*
X57725000Y-123665122D01*
X66000000Y-120600000D02*
X66000000Y-111460000D01*
X66000000Y-111460000D02*
X63450000Y-108910000D01*
X63400000Y-123200000D02*
X66000000Y-120600000D01*
%TO.N,/SWD_SWDIO*%
X57075000Y-123225000D02*
X58200000Y-122100000D01*
X64800000Y-112800000D02*
X63450000Y-111450000D01*
X62872793Y-122100000D02*
X64800000Y-120172793D01*
X58200000Y-122100000D02*
X62872793Y-122100000D01*
X64800000Y-120172793D02*
X64800000Y-112800000D01*
X57075000Y-124462500D02*
X57075000Y-123225000D01*
%TO.N,/I2C_SDA*%
X57725000Y-119975000D02*
X58650000Y-120900000D01*
X61275000Y-120900000D02*
X63500000Y-118675000D01*
X63500000Y-118675000D02*
X63500000Y-117600000D01*
X58650000Y-120900000D02*
X61275000Y-120900000D01*
X57725000Y-118737500D02*
X57725000Y-119975000D01*
%TO.N,/I2C_SCL*%
X60960000Y-119390000D02*
X60960000Y-117600000D01*
X60250000Y-120100000D02*
X60960000Y-119390000D01*
X58800000Y-120100000D02*
X60250000Y-120100000D01*
X58375000Y-118737500D02*
X58375000Y-119675000D01*
X58375000Y-119675000D02*
X58800000Y-120100000D01*
D27*
%TO.N,VRAIL*%
X48075000Y-89125000D02*
X48100000Y-89150000D01*
X47100000Y-110600000D02*
X47100000Y-109675000D01*
X47100000Y-109675000D02*
X46825000Y-109400000D01*
X45000000Y-89125000D02*
X48075000Y-89125000D01*
D29*
%TO.N,/IO_POWER_RAIL_DATA*%
X52525000Y-123425000D02*
X49880000Y-120780000D01*
X44900000Y-110500000D02*
X45600000Y-111200000D01*
X52525000Y-124462500D02*
X52525000Y-123425000D01*
X44625000Y-110775000D02*
X43600000Y-110775000D01*
X45175000Y-110225000D02*
X44900000Y-110500000D01*
X45175000Y-109400000D02*
X45175000Y-110225000D01*
X49880000Y-120780000D02*
X47400000Y-120780000D01*
X44900000Y-110500000D02*
X44625000Y-110775000D01*
D27*
%TO.N,/VRAIL_CAP*%
X48100000Y-93300000D02*
X47700000Y-93700000D01*
X48100000Y-92450000D02*
X48100000Y-93300000D01*
X47700000Y-96750000D02*
X49350000Y-96750000D01*
D29*
X50175000Y-95325000D02*
X50100000Y-95400000D01*
X54875000Y-95325000D02*
X53800000Y-95325000D01*
X55500000Y-94700000D02*
X54875000Y-95325000D01*
D27*
X47700000Y-93700000D02*
X47700000Y-96750000D01*
D29*
X55500000Y-91900000D02*
X55500000Y-94700000D01*
X55650000Y-91750000D02*
X55500000Y-91900000D01*
D27*
X50100000Y-96000000D02*
X50100000Y-95400000D01*
X50100000Y-91000000D02*
X51050000Y-90050000D01*
X51050000Y-90050000D02*
X52050000Y-90050000D01*
D29*
X55662500Y-91750000D02*
X56412500Y-91000000D01*
D27*
X49350000Y-96750000D02*
X50100000Y-96000000D01*
D29*
X56412500Y-91000000D02*
X57662500Y-91000000D01*
D30*
X57662500Y-90050000D02*
X54200000Y-90050000D01*
D27*
X50100000Y-95400000D02*
X50100000Y-91000000D01*
D29*
X53800000Y-95325000D02*
X50175000Y-95325000D01*
D27*
X52050000Y-90050000D02*
X54200000Y-90050000D01*
D29*
%TO.N,/TRACK_LIGHTS_G*%
X46120000Y-119500000D02*
X44860000Y-118240000D01*
X49659878Y-119500000D02*
X46120000Y-119500000D01*
X53825000Y-124462500D02*
X53825000Y-123665122D01*
X53825000Y-123665122D02*
X49659878Y-119500000D01*
%TO.N,/IO_POWER_RAIL_INT*%
X52525000Y-120775000D02*
X52525000Y-118737500D01*
X52224914Y-121075086D02*
X52525000Y-120775000D01*
D30*
%TO.N,+5V*%
X56600000Y-88900000D02*
X56800000Y-89100000D01*
D27*
X44902960Y-115742960D02*
X44860000Y-115700000D01*
D28*
X56400000Y-106125000D02*
X54475000Y-106125000D01*
D30*
X50025000Y-111100000D02*
X49225000Y-110300000D01*
X48625000Y-110300000D02*
X48625000Y-109175000D01*
D27*
X47400000Y-113100000D02*
X46000000Y-113100000D01*
D30*
X50750000Y-109200000D02*
X48650000Y-109200000D01*
D27*
X48625000Y-111875000D02*
X47400000Y-113100000D01*
D30*
X49225000Y-110300000D02*
X48625000Y-110300000D01*
X50750000Y-111100000D02*
X50025000Y-111100000D01*
D27*
X48625000Y-110300000D02*
X48625000Y-111875000D01*
D30*
X55900000Y-88900000D02*
X56600000Y-88900000D01*
D28*
X61500000Y-105500000D02*
X61150000Y-105850000D01*
X61500000Y-103750000D02*
X61500000Y-105500000D01*
D30*
X50500000Y-118500000D02*
X50525000Y-118475000D01*
X48650000Y-109200000D02*
X48625000Y-109175000D01*
X56800000Y-89100000D02*
X57662500Y-89100000D01*
D28*
X54475000Y-106125000D02*
X54400000Y-106200000D01*
D27*
X46000000Y-113100000D02*
X44860000Y-114240000D01*
X44860000Y-114240000D02*
X44860000Y-115700000D01*
D30*
X50525000Y-118475000D02*
X50525000Y-116700000D01*
D27*
X44860000Y-116150000D02*
X44860000Y-115700000D01*
D32*
%TO.N,Net-(JP1-A)*%
X65025000Y-123900000D02*
X66050000Y-124925000D01*
X64200000Y-123900000D02*
X65025000Y-123900000D01*
D33*
%TO.N,Net-(JP1-B)*%
X59550000Y-124250000D02*
X59337500Y-124462500D01*
X59337500Y-124462500D02*
X58375000Y-124462500D01*
D31*
%TO.N,/START_LIGHTS_5V*%
X51350000Y-113050000D02*
X50650000Y-113050000D01*
X50650000Y-113050000D02*
X48000000Y-115700000D01*
X48000000Y-115700000D02*
X47400000Y-115700000D01*
D34*
%TO.N,Net-(U2-SW)*%
X62362500Y-92337500D02*
X61500000Y-93200000D01*
D30*
X59937500Y-90050000D02*
X60573394Y-90050000D01*
D34*
X61500000Y-93200000D02*
X61500000Y-94850000D01*
X62362500Y-90700000D02*
X62362500Y-92337500D01*
D30*
X61223394Y-90700000D02*
X62362500Y-90700000D01*
X60573394Y-90050000D02*
X61223394Y-90700000D01*
%TO.N,Net-(U2-BST)*%
X60762500Y-89100000D02*
X61062500Y-88800000D01*
X61062500Y-88800000D02*
X62362500Y-88800000D01*
X59937500Y-89100000D02*
X60762500Y-89100000D01*
%TD*%
%TA.AperFunction,Conductor*%
%TO.N,+5V*%
G36*
X51815677Y-114519685D02*
G01*
X51836319Y-114536319D01*
X52163681Y-114863681D01*
X52197166Y-114925004D01*
X52200000Y-114951362D01*
X52200000Y-115048638D01*
X52180315Y-115115677D01*
X52163681Y-115136319D01*
X51200000Y-116099999D01*
X51200000Y-116848638D01*
X51180315Y-116915677D01*
X51163681Y-116936319D01*
X50836319Y-117263681D01*
X50774996Y-117297166D01*
X50748638Y-117300000D01*
X50251362Y-117300000D01*
X50184323Y-117280315D01*
X50163681Y-117263681D01*
X49836319Y-116936319D01*
X49802834Y-116874996D01*
X49800000Y-116848638D01*
X49800000Y-115162000D01*
X49819685Y-115094961D01*
X49849600Y-115062800D01*
X50115092Y-114863681D01*
X50566933Y-114524799D01*
X50632375Y-114500324D01*
X50641333Y-114500000D01*
X51748638Y-114500000D01*
X51815677Y-114519685D01*
G37*
%TD.AperFunction*%
%TD*%
%TA.AperFunction,Conductor*%
%TO.N,GND*%
G36*
X55693834Y-116345783D02*
G01*
X55749767Y-116387655D01*
X55774184Y-116453119D01*
X55774500Y-116461965D01*
X55774500Y-116583493D01*
X55790279Y-116683123D01*
X55810985Y-116723759D01*
X55824500Y-116780054D01*
X55824500Y-117111313D01*
X55820275Y-117143406D01*
X55799499Y-117220943D01*
X55799499Y-117379054D01*
X55799498Y-117379054D01*
X55833724Y-117506784D01*
X55840423Y-117531785D01*
X55919481Y-117668716D01*
X55919483Y-117668718D01*
X55938681Y-117687916D01*
X55972166Y-117749239D01*
X55975000Y-117775597D01*
X55975000Y-119764146D01*
X55975001Y-119764147D01*
X56000145Y-119760165D01*
X56113044Y-119702640D01*
X56113045Y-119702639D01*
X56117310Y-119698375D01*
X56178631Y-119664887D01*
X56248323Y-119669868D01*
X56254991Y-119672580D01*
X56255005Y-119672584D01*
X56255007Y-119672584D01*
X56255009Y-119672585D01*
X56280135Y-119675500D01*
X56569864Y-119675499D01*
X56569879Y-119675497D01*
X56569882Y-119675497D01*
X56594987Y-119672586D01*
X56594987Y-119672585D01*
X56594991Y-119672585D01*
X56697765Y-119627206D01*
X56697766Y-119627204D01*
X56699912Y-119626257D01*
X56769190Y-119617185D01*
X56800085Y-119626257D01*
X56905004Y-119672583D01*
X56905009Y-119672585D01*
X56930135Y-119675500D01*
X57200500Y-119675499D01*
X57267539Y-119695183D01*
X57313294Y-119747987D01*
X57324500Y-119799499D01*
X57324500Y-119922273D01*
X57324500Y-120027727D01*
X57328364Y-120042147D01*
X57351793Y-120129589D01*
X57361670Y-120146696D01*
X57404520Y-120220913D01*
X57404521Y-120220914D01*
X57404522Y-120220915D01*
X58325179Y-121141571D01*
X58325189Y-121141582D01*
X58329519Y-121145912D01*
X58329520Y-121145913D01*
X58404087Y-121220480D01*
X58469794Y-121258416D01*
X58495413Y-121273207D01*
X58597273Y-121300501D01*
X58597275Y-121300501D01*
X58710323Y-121300501D01*
X58710339Y-121300500D01*
X61327725Y-121300500D01*
X61327727Y-121300500D01*
X61429588Y-121273207D01*
X61520913Y-121220480D01*
X63820480Y-118920913D01*
X63873207Y-118829588D01*
X63896567Y-118742405D01*
X63932930Y-118682747D01*
X63995777Y-118652217D01*
X64016341Y-118650500D01*
X64275500Y-118650500D01*
X64342539Y-118670185D01*
X64388294Y-118722989D01*
X64399500Y-118774500D01*
X64399500Y-119955538D01*
X64379815Y-120022577D01*
X64363181Y-120043219D01*
X62743219Y-121663181D01*
X62681896Y-121696666D01*
X62655538Y-121699500D01*
X58147273Y-121699500D01*
X58045410Y-121726793D01*
X57954087Y-121779520D01*
X57954084Y-121779522D01*
X56754522Y-122979084D01*
X56754518Y-122979090D01*
X56701792Y-123070412D01*
X56701793Y-123070413D01*
X56674500Y-123172273D01*
X56674500Y-123400500D01*
X56654815Y-123467539D01*
X56602011Y-123513294D01*
X56550500Y-123524500D01*
X56280143Y-123524500D01*
X56280117Y-123524502D01*
X56255013Y-123527413D01*
X56150086Y-123573743D01*
X56080807Y-123582814D01*
X56049914Y-123573743D01*
X56041437Y-123570000D01*
X55944991Y-123527415D01*
X55919865Y-123524500D01*
X55630143Y-123524500D01*
X55630117Y-123524502D01*
X55605013Y-123527413D01*
X55500086Y-123573743D01*
X55430807Y-123582814D01*
X55399914Y-123573743D01*
X55391437Y-123570000D01*
X55294991Y-123527415D01*
X55288709Y-123526686D01*
X55269868Y-123524500D01*
X54999500Y-123524500D01*
X54932461Y-123504815D01*
X54886706Y-123452011D01*
X54875500Y-123400500D01*
X54875500Y-121722275D01*
X54875500Y-121722273D01*
X54856045Y-121649665D01*
X54857708Y-121579819D01*
X54896870Y-121521956D01*
X54961099Y-121494452D01*
X55030001Y-121506038D01*
X55063501Y-121529894D01*
X55266739Y-121733132D01*
X55300224Y-121794455D01*
X55302154Y-121835757D01*
X55294355Y-121899997D01*
X55294355Y-121899999D01*
X55314859Y-122068869D01*
X55314860Y-122068874D01*
X55375182Y-122227931D01*
X55437475Y-122318177D01*
X55471817Y-122367929D01*
X55536822Y-122425518D01*
X55599150Y-122480736D01*
X55715742Y-122541928D01*
X55749775Y-122559790D01*
X55914944Y-122600500D01*
X56085056Y-122600500D01*
X56250225Y-122559790D01*
X56357792Y-122503334D01*
X56400849Y-122480736D01*
X56400850Y-122480734D01*
X56400852Y-122480734D01*
X56528183Y-122367929D01*
X56624818Y-122227930D01*
X56685140Y-122068872D01*
X56705645Y-121900000D01*
X56685140Y-121731128D01*
X56672070Y-121696666D01*
X56627757Y-121579819D01*
X56624818Y-121572070D01*
X56592214Y-121524836D01*
X56547315Y-121459789D01*
X56528183Y-121432071D01*
X56400852Y-121319266D01*
X56400849Y-121319263D01*
X56250226Y-121240210D01*
X56085056Y-121199500D01*
X55917255Y-121199500D01*
X55850216Y-121179815D01*
X55829574Y-121163181D01*
X55561819Y-120895426D01*
X55528334Y-120834103D01*
X55525500Y-120807745D01*
X55525500Y-119863588D01*
X55545185Y-119796549D01*
X55568967Y-119769299D01*
X55575000Y-119764146D01*
X55575000Y-117710851D01*
X55549856Y-117714833D01*
X55436951Y-117772361D01*
X55432676Y-117776636D01*
X55371350Y-117810116D01*
X55301659Y-117805125D01*
X55295016Y-117802421D01*
X55294991Y-117802415D01*
X55269868Y-117799500D01*
X54994500Y-117799500D01*
X54927461Y-117779815D01*
X54881706Y-117727011D01*
X54870500Y-117675500D01*
X54870500Y-117117965D01*
X54890185Y-117050926D01*
X54906819Y-117030284D01*
X55562819Y-116374284D01*
X55624142Y-116340799D01*
X55693834Y-116345783D01*
G37*
%TD.AperFunction*%
%TA.AperFunction,Conductor*%
G36*
X56063284Y-90570185D02*
G01*
X56109039Y-90622989D01*
X56118983Y-90692147D01*
X56089958Y-90755703D01*
X56083926Y-90762181D01*
X55445205Y-91400900D01*
X55419531Y-91420602D01*
X55404085Y-91429520D01*
X55404084Y-91429521D01*
X55179522Y-91654084D01*
X55179520Y-91654087D01*
X55126791Y-91745414D01*
X55125533Y-91748453D01*
X55123784Y-91750622D01*
X55122729Y-91752451D01*
X55122443Y-91752286D01*
X55081692Y-91802856D01*
X55015397Y-91824921D01*
X55010972Y-91825000D01*
X54450000Y-91825000D01*
X54450000Y-92325000D01*
X54491102Y-92325000D01*
X54575467Y-92314868D01*
X54575468Y-92314868D01*
X54709729Y-92261922D01*
X54824721Y-92174721D01*
X54876696Y-92106182D01*
X54932888Y-92064659D01*
X55002610Y-92060107D01*
X55063724Y-92093972D01*
X55096827Y-92155501D01*
X55099500Y-92181107D01*
X55099500Y-94482745D01*
X55079815Y-94549784D01*
X55063181Y-94570426D01*
X54745426Y-94888181D01*
X54684103Y-94921666D01*
X54657745Y-94924500D01*
X54329120Y-94924500D01*
X54272826Y-94910985D01*
X54183123Y-94865279D01*
X54083493Y-94849500D01*
X54083488Y-94849500D01*
X53516512Y-94849500D01*
X53516507Y-94849500D01*
X53416876Y-94865279D01*
X53327174Y-94910985D01*
X53270880Y-94924500D01*
X50824500Y-94924500D01*
X50757461Y-94904815D01*
X50711706Y-94852011D01*
X50700500Y-94800500D01*
X50700500Y-92243053D01*
X51025000Y-92243053D01*
X51035613Y-92331443D01*
X51091079Y-92472095D01*
X51182435Y-92592564D01*
X51302904Y-92683920D01*
X51443556Y-92739386D01*
X51531946Y-92750000D01*
X51800000Y-92750000D01*
X52300000Y-92750000D01*
X52568054Y-92750000D01*
X52656443Y-92739386D01*
X52797095Y-92683920D01*
X52917564Y-92592564D01*
X53008920Y-92472095D01*
X53064386Y-92331443D01*
X53075000Y-92243053D01*
X53075000Y-92200000D01*
X52300000Y-92200000D01*
X52300000Y-92750000D01*
X51800000Y-92750000D01*
X51800000Y-92200000D01*
X51025000Y-92200000D01*
X51025000Y-92243053D01*
X50700500Y-92243053D01*
X50700500Y-91841102D01*
X53425000Y-91841102D01*
X53435131Y-91925467D01*
X53435131Y-91925468D01*
X53488077Y-92059729D01*
X53575278Y-92174721D01*
X53690270Y-92261922D01*
X53824532Y-92314868D01*
X53908898Y-92325000D01*
X53950000Y-92325000D01*
X53950000Y-91825000D01*
X53425000Y-91825000D01*
X53425000Y-91841102D01*
X50700500Y-91841102D01*
X50700500Y-91656946D01*
X51025000Y-91656946D01*
X51025000Y-91700000D01*
X51800000Y-91700000D01*
X52300000Y-91700000D01*
X53075000Y-91700000D01*
X53075000Y-91656946D01*
X53064386Y-91568556D01*
X53008920Y-91427904D01*
X52917564Y-91307435D01*
X52797095Y-91216079D01*
X52656443Y-91160613D01*
X52568054Y-91150000D01*
X52300000Y-91150000D01*
X52300000Y-91700000D01*
X51800000Y-91700000D01*
X51800000Y-91150000D01*
X51531946Y-91150000D01*
X51443556Y-91160613D01*
X51302904Y-91216079D01*
X51182435Y-91307435D01*
X51091079Y-91427904D01*
X51035613Y-91568556D01*
X51025000Y-91656946D01*
X50700500Y-91656946D01*
X50700500Y-91300096D01*
X50720185Y-91233057D01*
X50736815Y-91212419D01*
X51221729Y-90727504D01*
X51283050Y-90694021D01*
X51352741Y-90699005D01*
X51357874Y-90701308D01*
X51490299Y-90747646D01*
X51520730Y-90750500D01*
X51520734Y-90750500D01*
X52579270Y-90750500D01*
X52609699Y-90747646D01*
X52609701Y-90747646D01*
X52680165Y-90722989D01*
X52737882Y-90702793D01*
X52762754Y-90684437D01*
X52775907Y-90674730D01*
X52841536Y-90650759D01*
X52849540Y-90650500D01*
X53640273Y-90650500D01*
X53707312Y-90670185D01*
X53753067Y-90722989D01*
X53763011Y-90792147D01*
X53733986Y-90855703D01*
X53696662Y-90882136D01*
X53697665Y-90883920D01*
X53690270Y-90888077D01*
X53575278Y-90975278D01*
X53488077Y-91090270D01*
X53435131Y-91224531D01*
X53435131Y-91224532D01*
X53425000Y-91308897D01*
X53425000Y-91325000D01*
X54975000Y-91325000D01*
X54975000Y-91308897D01*
X54964868Y-91224532D01*
X54964868Y-91224531D01*
X54911922Y-91090270D01*
X54824721Y-90975278D01*
X54709729Y-90888077D01*
X54709723Y-90888074D01*
X54641665Y-90861235D01*
X54586521Y-90818329D01*
X54563328Y-90752421D01*
X54579449Y-90684437D01*
X54629766Y-90635961D01*
X54630739Y-90635458D01*
X54703220Y-90598528D01*
X54703225Y-90598523D01*
X54714930Y-90586819D01*
X54776253Y-90553334D01*
X54802611Y-90550500D01*
X55996245Y-90550500D01*
X56063284Y-90570185D01*
G37*
%TD.AperFunction*%
%TA.AperFunction,Conductor*%
G36*
X66942539Y-87720185D02*
G01*
X66988294Y-87772989D01*
X66999500Y-87824500D01*
X66999500Y-125775500D01*
X66979815Y-125842539D01*
X66927011Y-125888294D01*
X66875500Y-125899500D01*
X43124500Y-125899500D01*
X43057461Y-125879815D01*
X43011706Y-125827011D01*
X43000500Y-125775500D01*
X43000500Y-123069999D01*
X43735487Y-123069999D01*
X43735488Y-123070000D01*
X44426988Y-123070000D01*
X44394075Y-123127007D01*
X44360000Y-123254174D01*
X44360000Y-123385826D01*
X44394075Y-123512993D01*
X44426988Y-123570000D01*
X43735488Y-123570000D01*
X43783062Y-123737205D01*
X43783067Y-123737218D01*
X43878061Y-123927991D01*
X44006500Y-124098071D01*
X44164000Y-124241651D01*
X44164002Y-124241653D01*
X44345201Y-124353846D01*
X44345207Y-124353849D01*
X44543941Y-124430838D01*
X44610000Y-124443186D01*
X44610000Y-123753012D01*
X44667007Y-123785925D01*
X44794174Y-123820000D01*
X44925826Y-123820000D01*
X45052993Y-123785925D01*
X45110000Y-123753012D01*
X45110000Y-124443185D01*
X45176058Y-124430838D01*
X45374792Y-124353849D01*
X45374798Y-124353846D01*
X45555997Y-124241653D01*
X45555999Y-124241651D01*
X45713499Y-124098071D01*
X45841938Y-123927991D01*
X45936932Y-123737218D01*
X45936937Y-123737205D01*
X45984512Y-123570000D01*
X45293012Y-123570000D01*
X45325925Y-123512993D01*
X45360000Y-123385826D01*
X45360000Y-123320000D01*
X46344417Y-123320000D01*
X46364699Y-123525932D01*
X46387016Y-123599500D01*
X46424768Y-123723954D01*
X46522315Y-123906450D01*
X46535134Y-123922070D01*
X46653589Y-124066410D01*
X46750209Y-124145702D01*
X46813550Y-124197685D01*
X46996046Y-124295232D01*
X47194066Y-124355300D01*
X47194065Y-124355300D01*
X47212529Y-124357118D01*
X47400000Y-124375583D01*
X47605934Y-124355300D01*
X47803954Y-124295232D01*
X47986450Y-124197685D01*
X48146410Y-124066410D01*
X48277685Y-123906450D01*
X48375232Y-123723954D01*
X48435300Y-123525934D01*
X48455583Y-123320000D01*
X48435300Y-123114066D01*
X48375232Y-122916046D01*
X48277685Y-122733550D01*
X48225702Y-122670209D01*
X48146410Y-122573589D01*
X47986452Y-122442317D01*
X47986453Y-122442317D01*
X47986450Y-122442315D01*
X47803954Y-122344768D01*
X47605934Y-122284700D01*
X47605932Y-122284699D01*
X47605934Y-122284699D01*
X47400000Y-122264417D01*
X47194067Y-122284699D01*
X46996043Y-122344769D01*
X46885898Y-122403643D01*
X46813550Y-122442315D01*
X46813548Y-122442316D01*
X46813547Y-122442317D01*
X46653589Y-122573589D01*
X46530193Y-122723950D01*
X46522315Y-122733550D01*
X46487064Y-122799500D01*
X46424769Y-122916043D01*
X46364699Y-123114067D01*
X46344417Y-123320000D01*
X45360000Y-123320000D01*
X45360000Y-123254174D01*
X45325925Y-123127007D01*
X45293012Y-123070000D01*
X45984512Y-123070000D01*
X45984512Y-123069999D01*
X45936937Y-122902794D01*
X45936932Y-122902781D01*
X45841938Y-122712008D01*
X45713499Y-122541928D01*
X45555999Y-122398348D01*
X45555997Y-122398346D01*
X45374798Y-122286153D01*
X45374789Y-122286149D01*
X45176063Y-122209163D01*
X45176058Y-122209162D01*
X45110000Y-122196813D01*
X45110000Y-122886988D01*
X45052993Y-122854075D01*
X44925826Y-122820000D01*
X44794174Y-122820000D01*
X44667007Y-122854075D01*
X44610000Y-122886988D01*
X44610000Y-122196813D01*
X44543941Y-122209162D01*
X44543936Y-122209163D01*
X44345210Y-122286149D01*
X44345201Y-122286153D01*
X44164002Y-122398346D01*
X44164000Y-122398348D01*
X44006500Y-122541928D01*
X43878061Y-122712008D01*
X43783067Y-122902781D01*
X43783062Y-122902794D01*
X43735487Y-123069999D01*
X43000500Y-123069999D01*
X43000500Y-120780000D01*
X43804417Y-120780000D01*
X43824699Y-120985932D01*
X43824700Y-120985934D01*
X43884768Y-121183954D01*
X43982315Y-121366450D01*
X43982317Y-121366452D01*
X44113589Y-121526410D01*
X44169227Y-121572070D01*
X44273550Y-121657685D01*
X44456046Y-121755232D01*
X44654066Y-121815300D01*
X44654065Y-121815300D01*
X44672529Y-121817118D01*
X44860000Y-121835583D01*
X45065934Y-121815300D01*
X45263954Y-121755232D01*
X45446450Y-121657685D01*
X45606410Y-121526410D01*
X45737685Y-121366450D01*
X45835232Y-121183954D01*
X45895300Y-120985934D01*
X45915583Y-120780000D01*
X45895300Y-120574066D01*
X45835232Y-120376046D01*
X45737685Y-120193550D01*
X45660501Y-120099500D01*
X45606410Y-120033589D01*
X45468225Y-119920185D01*
X45446450Y-119902315D01*
X45263954Y-119804768D01*
X45065934Y-119744700D01*
X45065932Y-119744699D01*
X45065934Y-119744699D01*
X44860000Y-119724417D01*
X44654067Y-119744699D01*
X44456043Y-119804769D01*
X44346002Y-119863588D01*
X44273550Y-119902315D01*
X44273548Y-119902316D01*
X44273547Y-119902317D01*
X44113589Y-120033589D01*
X43982317Y-120193547D01*
X43982315Y-120193550D01*
X43967690Y-120220912D01*
X43884769Y-120376043D01*
X43884768Y-120376045D01*
X43884768Y-120376046D01*
X43877898Y-120398692D01*
X43824699Y-120574067D01*
X43804417Y-120780000D01*
X43000500Y-120780000D01*
X43000500Y-118240000D01*
X43804417Y-118240000D01*
X43824699Y-118445932D01*
X43849664Y-118528229D01*
X43884768Y-118643954D01*
X43982315Y-118826450D01*
X44016969Y-118868677D01*
X44113589Y-118986410D01*
X44207136Y-119063181D01*
X44273550Y-119117685D01*
X44456046Y-119215232D01*
X44654066Y-119275300D01*
X44654065Y-119275300D01*
X44672529Y-119277118D01*
X44860000Y-119295583D01*
X45065934Y-119275300D01*
X45196581Y-119235668D01*
X45266447Y-119235046D01*
X45320256Y-119266649D01*
X45874087Y-119820480D01*
X45965412Y-119873207D01*
X46067273Y-119900500D01*
X46500638Y-119900500D01*
X46567677Y-119920185D01*
X46613432Y-119972989D01*
X46623376Y-120042147D01*
X46596492Y-120103164D01*
X46543432Y-120167819D01*
X46522315Y-120193550D01*
X46507690Y-120220912D01*
X46424769Y-120376043D01*
X46424768Y-120376045D01*
X46424768Y-120376046D01*
X46417898Y-120398692D01*
X46364699Y-120574067D01*
X46344417Y-120780000D01*
X46364699Y-120985932D01*
X46364700Y-120985934D01*
X46424768Y-121183954D01*
X46522315Y-121366450D01*
X46522317Y-121366452D01*
X46653589Y-121526410D01*
X46709227Y-121572070D01*
X46813550Y-121657685D01*
X46996046Y-121755232D01*
X47194066Y-121815300D01*
X47194065Y-121815300D01*
X47212529Y-121817118D01*
X47400000Y-121835583D01*
X47605934Y-121815300D01*
X47803954Y-121755232D01*
X47986450Y-121657685D01*
X48146410Y-121526410D01*
X48277685Y-121366450D01*
X48342043Y-121246046D01*
X48391006Y-121196202D01*
X48451401Y-121180500D01*
X49662745Y-121180500D01*
X49729784Y-121200185D01*
X49750426Y-121216819D01*
X52088181Y-123554574D01*
X52121666Y-123615897D01*
X52124500Y-123642255D01*
X52124500Y-125144856D01*
X52124502Y-125144882D01*
X52127413Y-125169987D01*
X52127415Y-125169991D01*
X52172793Y-125272764D01*
X52172794Y-125272765D01*
X52252235Y-125352206D01*
X52355009Y-125397585D01*
X52380135Y-125400500D01*
X52669864Y-125400499D01*
X52669879Y-125400497D01*
X52669882Y-125400497D01*
X52694987Y-125397586D01*
X52694987Y-125397585D01*
X52694991Y-125397585D01*
X52797765Y-125352206D01*
X52797766Y-125352204D01*
X52799912Y-125351257D01*
X52869190Y-125342185D01*
X52900085Y-125351257D01*
X53005004Y-125397583D01*
X53005009Y-125397585D01*
X53030135Y-125400500D01*
X53319864Y-125400499D01*
X53319879Y-125400497D01*
X53319882Y-125400497D01*
X53344987Y-125397586D01*
X53344987Y-125397585D01*
X53344991Y-125397585D01*
X53447765Y-125352206D01*
X53447766Y-125352204D01*
X53449912Y-125351257D01*
X53519190Y-125342185D01*
X53550085Y-125351257D01*
X53655004Y-125397583D01*
X53655009Y-125397585D01*
X53680135Y-125400500D01*
X53969864Y-125400499D01*
X53969879Y-125400497D01*
X53969882Y-125400497D01*
X53994987Y-125397586D01*
X53994987Y-125397585D01*
X53994991Y-125397585D01*
X54097765Y-125352206D01*
X54097766Y-125352204D01*
X54099912Y-125351257D01*
X54169190Y-125342185D01*
X54200085Y-125351257D01*
X54305004Y-125397583D01*
X54305009Y-125397585D01*
X54330135Y-125400500D01*
X54619864Y-125400499D01*
X54619879Y-125400497D01*
X54619882Y-125400497D01*
X54644987Y-125397586D01*
X54644987Y-125397585D01*
X54644991Y-125397585D01*
X54747765Y-125352206D01*
X54747766Y-125352204D01*
X54749912Y-125351257D01*
X54819190Y-125342185D01*
X54850085Y-125351257D01*
X54955004Y-125397583D01*
X54955009Y-125397585D01*
X54980135Y-125400500D01*
X55269864Y-125400499D01*
X55269879Y-125400497D01*
X55269882Y-125400497D01*
X55294987Y-125397586D01*
X55294987Y-125397585D01*
X55294991Y-125397585D01*
X55397765Y-125352206D01*
X55397766Y-125352204D01*
X55399912Y-125351257D01*
X55469190Y-125342185D01*
X55500085Y-125351257D01*
X55605004Y-125397583D01*
X55605009Y-125397585D01*
X55630135Y-125400500D01*
X55919864Y-125400499D01*
X55919879Y-125400497D01*
X55919882Y-125400497D01*
X55944987Y-125397586D01*
X55944987Y-125397585D01*
X55944991Y-125397585D01*
X56047765Y-125352206D01*
X56047766Y-125352204D01*
X56049912Y-125351257D01*
X56119190Y-125342185D01*
X56150085Y-125351257D01*
X56255004Y-125397583D01*
X56255009Y-125397585D01*
X56280135Y-125400500D01*
X56569864Y-125400499D01*
X56569879Y-125400497D01*
X56569882Y-125400497D01*
X56594987Y-125397586D01*
X56594987Y-125397585D01*
X56594991Y-125397585D01*
X56697765Y-125352206D01*
X56697766Y-125352204D01*
X56699912Y-125351257D01*
X56769190Y-125342185D01*
X56800085Y-125351257D01*
X56905004Y-125397583D01*
X56905009Y-125397585D01*
X56930135Y-125400500D01*
X57219864Y-125400499D01*
X57219879Y-125400497D01*
X57219882Y-125400497D01*
X57244987Y-125397586D01*
X57244987Y-125397585D01*
X57244991Y-125397585D01*
X57347765Y-125352206D01*
X57347766Y-125352204D01*
X57349912Y-125351257D01*
X57419190Y-125342185D01*
X57450085Y-125351257D01*
X57555004Y-125397583D01*
X57555009Y-125397585D01*
X57580135Y-125400500D01*
X57869864Y-125400499D01*
X57869879Y-125400497D01*
X57869882Y-125400497D01*
X57894987Y-125397586D01*
X57894987Y-125397585D01*
X57894991Y-125397585D01*
X57997765Y-125352206D01*
X57997766Y-125352204D01*
X57999912Y-125351257D01*
X58069190Y-125342185D01*
X58100085Y-125351257D01*
X58205004Y-125397583D01*
X58205009Y-125397585D01*
X58230135Y-125400500D01*
X58519864Y-125400499D01*
X58519879Y-125400497D01*
X58519882Y-125400497D01*
X58544987Y-125397586D01*
X58544988Y-125397585D01*
X58544991Y-125397585D01*
X58647765Y-125352206D01*
X58727206Y-125272765D01*
X58772585Y-125169991D01*
X58775500Y-125144865D01*
X58775500Y-124937000D01*
X58795185Y-124869961D01*
X58847989Y-124824206D01*
X58899500Y-124813000D01*
X59084816Y-124813000D01*
X59141283Y-124829580D01*
X59142507Y-124827249D01*
X59299773Y-124909789D01*
X59299775Y-124909790D01*
X59464944Y-124950500D01*
X59635056Y-124950500D01*
X59800225Y-124909790D01*
X59879692Y-124868081D01*
X59950849Y-124830736D01*
X59950850Y-124830734D01*
X59950852Y-124830734D01*
X60078183Y-124717929D01*
X60174818Y-124577930D01*
X60235140Y-124418872D01*
X60255645Y-124250000D01*
X60235140Y-124081128D01*
X60174818Y-123922070D01*
X60164036Y-123906450D01*
X60087066Y-123794940D01*
X60065183Y-123728586D01*
X60082648Y-123660934D01*
X60133916Y-123613464D01*
X60189116Y-123600500D01*
X63390754Y-123600500D01*
X63457793Y-123620185D01*
X63503548Y-123672989D01*
X63513849Y-123739446D01*
X63497495Y-123874143D01*
X63494355Y-123900000D01*
X63514859Y-124068869D01*
X63514860Y-124068874D01*
X63575182Y-124227931D01*
X63628252Y-124304815D01*
X63671817Y-124367929D01*
X63742827Y-124430838D01*
X63799150Y-124480736D01*
X63949773Y-124559789D01*
X63949775Y-124559790D01*
X64114944Y-124600500D01*
X64285056Y-124600500D01*
X64450225Y-124559790D01*
X64535132Y-124515227D01*
X64600849Y-124480736D01*
X64600850Y-124480734D01*
X64600852Y-124480734D01*
X64728183Y-124367929D01*
X64782416Y-124289358D01*
X64836699Y-124245369D01*
X64906148Y-124237709D01*
X64968712Y-124268812D01*
X64972147Y-124272118D01*
X65338181Y-124638152D01*
X65371666Y-124699475D01*
X65374500Y-124725833D01*
X65374500Y-125156517D01*
X65385292Y-125224657D01*
X65389354Y-125250304D01*
X65446950Y-125363342D01*
X65446952Y-125363344D01*
X65446954Y-125363347D01*
X65536652Y-125453045D01*
X65536654Y-125453046D01*
X65536658Y-125453050D01*
X65649694Y-125510645D01*
X65649698Y-125510647D01*
X65743475Y-125525499D01*
X65743481Y-125525500D01*
X66356518Y-125525499D01*
X66450304Y-125510646D01*
X66563342Y-125453050D01*
X66653050Y-125363342D01*
X66710646Y-125250304D01*
X66710646Y-125250302D01*
X66710647Y-125250301D01*
X66725499Y-125156524D01*
X66725500Y-125156519D01*
X66725499Y-124693482D01*
X66710646Y-124599696D01*
X66653050Y-124486658D01*
X66653046Y-124486654D01*
X66653045Y-124486652D01*
X66563347Y-124396954D01*
X66563344Y-124396952D01*
X66563342Y-124396950D01*
X66478746Y-124353846D01*
X66450301Y-124339352D01*
X66356524Y-124324500D01*
X66356519Y-124324500D01*
X65925833Y-124324500D01*
X65858794Y-124304815D01*
X65838152Y-124288181D01*
X65635479Y-124085508D01*
X65601994Y-124024185D01*
X65606978Y-123954493D01*
X65648850Y-123898560D01*
X65714314Y-123874143D01*
X65738611Y-123875185D01*
X65738617Y-123875118D01*
X65740526Y-123875268D01*
X65742571Y-123875355D01*
X65743481Y-123875500D01*
X66356518Y-123875499D01*
X66450304Y-123860646D01*
X66563342Y-123803050D01*
X66653050Y-123713342D01*
X66710646Y-123600304D01*
X66710646Y-123600302D01*
X66710647Y-123600301D01*
X66722652Y-123524500D01*
X66725500Y-123506519D01*
X66725499Y-123043482D01*
X66710646Y-122949696D01*
X66653050Y-122836658D01*
X66653046Y-122836654D01*
X66653045Y-122836652D01*
X66563343Y-122746950D01*
X66518204Y-122723950D01*
X66467409Y-122675975D01*
X66450500Y-122613466D01*
X66450500Y-122492557D01*
X66470185Y-122425518D01*
X66492270Y-122399744D01*
X66528183Y-122367929D01*
X66624818Y-122227930D01*
X66685140Y-122068872D01*
X66705645Y-121900000D01*
X66685140Y-121731128D01*
X66672070Y-121696666D01*
X66627757Y-121579819D01*
X66624818Y-121572070D01*
X66592214Y-121524836D01*
X66547315Y-121459789D01*
X66528183Y-121432071D01*
X66400852Y-121319266D01*
X66400849Y-121319263D01*
X66250227Y-121240210D01*
X66203726Y-121228749D01*
X66143346Y-121193592D01*
X66111558Y-121131373D01*
X66118454Y-121061844D01*
X66145719Y-121020673D01*
X66320480Y-120845913D01*
X66373207Y-120754588D01*
X66400500Y-120652727D01*
X66400500Y-120547273D01*
X66400500Y-111522729D01*
X66400501Y-111522716D01*
X66400501Y-111407274D01*
X66391778Y-111374721D01*
X66373207Y-111305413D01*
X66355359Y-111274499D01*
X66320480Y-111214087D01*
X66245913Y-111139520D01*
X66245912Y-111139519D01*
X66241582Y-111135189D01*
X66241571Y-111135179D01*
X64476649Y-109370256D01*
X64443164Y-109308933D01*
X64445669Y-109246580D01*
X64463566Y-109187582D01*
X64485300Y-109115934D01*
X64505583Y-108910000D01*
X64485300Y-108704066D01*
X64425232Y-108506046D01*
X64327685Y-108323550D01*
X64246579Y-108224721D01*
X64196410Y-108163589D01*
X64036452Y-108032317D01*
X64036453Y-108032317D01*
X64036450Y-108032315D01*
X63853954Y-107934768D01*
X63655934Y-107874700D01*
X63655932Y-107874699D01*
X63655934Y-107874699D01*
X63450000Y-107854417D01*
X63244067Y-107874699D01*
X63046043Y-107934769D01*
X62969904Y-107975467D01*
X62863550Y-108032315D01*
X62863548Y-108032316D01*
X62863547Y-108032317D01*
X62703589Y-108163589D01*
X62572317Y-108323547D01*
X62572315Y-108323550D01*
X62540713Y-108382672D01*
X62474769Y-108506043D01*
X62414699Y-108704067D01*
X62394417Y-108910000D01*
X62414699Y-109115932D01*
X62414700Y-109115934D01*
X62472443Y-109306290D01*
X62474769Y-109313956D01*
X62478504Y-109320943D01*
X62572315Y-109496450D01*
X62572317Y-109496452D01*
X62703589Y-109656410D01*
X62788688Y-109726248D01*
X62863550Y-109787685D01*
X63046046Y-109885232D01*
X63244066Y-109945300D01*
X63244065Y-109945300D01*
X63262529Y-109947118D01*
X63450000Y-109965583D01*
X63655934Y-109945300D01*
X63786581Y-109905668D01*
X63856447Y-109905046D01*
X63910256Y-109936649D01*
X65563181Y-111589573D01*
X65596666Y-111650896D01*
X65599500Y-111677254D01*
X65599500Y-120382745D01*
X65579815Y-120449784D01*
X65563181Y-120470426D01*
X63270426Y-122763181D01*
X63209103Y-122796666D01*
X63182745Y-122799500D01*
X58366255Y-122799500D01*
X58299216Y-122779815D01*
X58253461Y-122727011D01*
X58243517Y-122657853D01*
X58272542Y-122594297D01*
X58278574Y-122587819D01*
X58329574Y-122536819D01*
X58390897Y-122503334D01*
X58417255Y-122500500D01*
X62925518Y-122500500D01*
X62925520Y-122500500D01*
X63027381Y-122473207D01*
X63118706Y-122420480D01*
X65120480Y-120418706D01*
X65173207Y-120327381D01*
X65200500Y-120225520D01*
X65200500Y-120120066D01*
X65200500Y-112747273D01*
X65173207Y-112645413D01*
X65120480Y-112554087D01*
X65045913Y-112479520D01*
X64476649Y-111910256D01*
X64443164Y-111848933D01*
X64445669Y-111786580D01*
X64447442Y-111780736D01*
X64485300Y-111655934D01*
X64505583Y-111450000D01*
X64485300Y-111244066D01*
X64425232Y-111046046D01*
X64327685Y-110863550D01*
X64265342Y-110787584D01*
X64196410Y-110703589D01*
X64036452Y-110572317D01*
X64036453Y-110572317D01*
X64036450Y-110572315D01*
X63853954Y-110474768D01*
X63655934Y-110414700D01*
X63655932Y-110414699D01*
X63655934Y-110414699D01*
X63450000Y-110394417D01*
X63244067Y-110414699D01*
X63068692Y-110467898D01*
X63058755Y-110470913D01*
X63046043Y-110474769D01*
X62952069Y-110525000D01*
X62863550Y-110572315D01*
X62863548Y-110572316D01*
X62863547Y-110572317D01*
X62703589Y-110703589D01*
X62583860Y-110849482D01*
X62572315Y-110863550D01*
X62543885Y-110916739D01*
X62474769Y-111046043D01*
X62414699Y-111244067D01*
X62394417Y-111450000D01*
X62414699Y-111655932D01*
X62421167Y-111677254D01*
X62474768Y-111853954D01*
X62572315Y-112036450D01*
X62606969Y-112078677D01*
X62703589Y-112196410D01*
X62761234Y-112243717D01*
X62863550Y-112327685D01*
X63046046Y-112425232D01*
X63244066Y-112485300D01*
X63244065Y-112485300D01*
X63262529Y-112487118D01*
X63450000Y-112505583D01*
X63655934Y-112485300D01*
X63786581Y-112445668D01*
X63856447Y-112445046D01*
X63910256Y-112476649D01*
X64363181Y-112929574D01*
X64396666Y-112990897D01*
X64399500Y-113017255D01*
X64399500Y-113148085D01*
X64379815Y-113215124D01*
X64327011Y-113260879D01*
X64257853Y-113270823D01*
X64196836Y-113243939D01*
X64060724Y-113132236D01*
X64036450Y-113112315D01*
X63853954Y-113014768D01*
X63655934Y-112954700D01*
X63655932Y-112954699D01*
X63655934Y-112954699D01*
X63450000Y-112934417D01*
X63244067Y-112954699D01*
X63046043Y-113014769D01*
X62935898Y-113073643D01*
X62863550Y-113112315D01*
X62863548Y-113112316D01*
X62863547Y-113112317D01*
X62703589Y-113243589D01*
X62572317Y-113403547D01*
X62572315Y-113403550D01*
X62559285Y-113427928D01*
X62474769Y-113586043D01*
X62414699Y-113784067D01*
X62394417Y-113990000D01*
X62414699Y-114195932D01*
X62414700Y-114195934D01*
X62474768Y-114393954D01*
X62572315Y-114576450D01*
X62585519Y-114592539D01*
X62703589Y-114736410D01*
X62800209Y-114815702D01*
X62863550Y-114867685D01*
X63046046Y-114965232D01*
X63244066Y-115025300D01*
X63244065Y-115025300D01*
X63262529Y-115027118D01*
X63450000Y-115045583D01*
X63655934Y-115025300D01*
X63853954Y-114965232D01*
X64036450Y-114867685D01*
X64196410Y-114736410D01*
X64196410Y-114736409D01*
X64196835Y-114736061D01*
X64261145Y-114708748D01*
X64330013Y-114720539D01*
X64381573Y-114767691D01*
X64399500Y-114831914D01*
X64399500Y-116425500D01*
X64379815Y-116492539D01*
X64327011Y-116538294D01*
X64275500Y-116549500D01*
X62630247Y-116549500D01*
X62571770Y-116561131D01*
X62571769Y-116561132D01*
X62505447Y-116605447D01*
X62461132Y-116671769D01*
X62461131Y-116671770D01*
X62449500Y-116730247D01*
X62449500Y-118469752D01*
X62461131Y-118528229D01*
X62461132Y-118528230D01*
X62505447Y-118594552D01*
X62571769Y-118638867D01*
X62571770Y-118638868D01*
X62630247Y-118650499D01*
X62630250Y-118650500D01*
X62630252Y-118650500D01*
X62658745Y-118650500D01*
X62725784Y-118670185D01*
X62771539Y-118722989D01*
X62781483Y-118792147D01*
X62752458Y-118855703D01*
X62746426Y-118862181D01*
X61145426Y-120463181D01*
X61084103Y-120496666D01*
X61057745Y-120499500D01*
X60716255Y-120499500D01*
X60649216Y-120479815D01*
X60603461Y-120427011D01*
X60593517Y-120357853D01*
X60622542Y-120294297D01*
X60628574Y-120287819D01*
X60909492Y-120006900D01*
X61195703Y-119720687D01*
X61195708Y-119720684D01*
X61205911Y-119710480D01*
X61205913Y-119710480D01*
X61280480Y-119635913D01*
X61333207Y-119544587D01*
X61339685Y-119520412D01*
X61360501Y-119442727D01*
X61360501Y-119337273D01*
X61360501Y-119329678D01*
X61360500Y-119329660D01*
X61360500Y-118651400D01*
X61380185Y-118584361D01*
X61426046Y-118542042D01*
X61546450Y-118477685D01*
X61706410Y-118346410D01*
X61837685Y-118186450D01*
X61935232Y-118003954D01*
X61995300Y-117805934D01*
X62015583Y-117600000D01*
X61995300Y-117394066D01*
X61935232Y-117196046D01*
X61837685Y-117013550D01*
X61785531Y-116950000D01*
X61706410Y-116853589D01*
X61580794Y-116750500D01*
X61546450Y-116722315D01*
X61363954Y-116624768D01*
X61165934Y-116564700D01*
X61165932Y-116564699D01*
X61165934Y-116564699D01*
X60960000Y-116544417D01*
X60754067Y-116564699D01*
X60556043Y-116624769D01*
X60461639Y-116675230D01*
X60373550Y-116722315D01*
X60373548Y-116722316D01*
X60373547Y-116722317D01*
X60213589Y-116853589D01*
X60115121Y-116973575D01*
X60082315Y-117013550D01*
X60070954Y-117034805D01*
X59984769Y-117196043D01*
X59984768Y-117196045D01*
X59984768Y-117196046D01*
X59980617Y-117209729D01*
X59924699Y-117394067D01*
X59904417Y-117600000D01*
X59924699Y-117805932D01*
X59937398Y-117847794D01*
X59984768Y-118003954D01*
X60082315Y-118186450D01*
X60082317Y-118186452D01*
X60213589Y-118346410D01*
X60373548Y-118477684D01*
X60373550Y-118477685D01*
X60493953Y-118542042D01*
X60543798Y-118591004D01*
X60559500Y-118651400D01*
X60559500Y-119172745D01*
X60539815Y-119239784D01*
X60523181Y-119260426D01*
X60120426Y-119663181D01*
X60059103Y-119696666D01*
X60032745Y-119699500D01*
X59017254Y-119699500D01*
X58950215Y-119679815D01*
X58929578Y-119663185D01*
X58811817Y-119545424D01*
X58778334Y-119484103D01*
X58775500Y-119457745D01*
X58775500Y-118674784D01*
X58775499Y-118674770D01*
X58775499Y-118055143D01*
X58775499Y-118055136D01*
X58773056Y-118034067D01*
X58772586Y-118030012D01*
X58772585Y-118030010D01*
X58772585Y-118030009D01*
X58727206Y-117927235D01*
X58647765Y-117847794D01*
X58647763Y-117847793D01*
X58544992Y-117802415D01*
X58519865Y-117799500D01*
X58230143Y-117799500D01*
X58230117Y-117799502D01*
X58205013Y-117802413D01*
X58137021Y-117832434D01*
X58102238Y-117847793D01*
X58100086Y-117848743D01*
X58030807Y-117857814D01*
X57999914Y-117848743D01*
X57997765Y-117847794D01*
X57894991Y-117802415D01*
X57869865Y-117799500D01*
X57580143Y-117799500D01*
X57580117Y-117799502D01*
X57555013Y-117802413D01*
X57487021Y-117832434D01*
X57452238Y-117847793D01*
X57450086Y-117848743D01*
X57380807Y-117857814D01*
X57349914Y-117848743D01*
X57347765Y-117847794D01*
X57244991Y-117802415D01*
X57238709Y-117801686D01*
X57219868Y-117799500D01*
X57030351Y-117799500D01*
X56963312Y-117779815D01*
X56917557Y-117727011D01*
X56907613Y-117657853D01*
X56922962Y-117613504D01*
X56984577Y-117506784D01*
X57019158Y-117377727D01*
X57025500Y-117354058D01*
X57025500Y-117195943D01*
X57025500Y-116796330D01*
X57045185Y-116729291D01*
X57097989Y-116683536D01*
X57167147Y-116673592D01*
X57230703Y-116702617D01*
X57264855Y-116750841D01*
X57288076Y-116809727D01*
X57288077Y-116809729D01*
X57375278Y-116924721D01*
X57490270Y-117011922D01*
X57624532Y-117064868D01*
X57708898Y-117075000D01*
X57725000Y-117075000D01*
X58225000Y-117075000D01*
X58241102Y-117075000D01*
X58325467Y-117064868D01*
X58325468Y-117064868D01*
X58459729Y-117011922D01*
X58574721Y-116924721D01*
X58661922Y-116809729D01*
X58714868Y-116675468D01*
X58714868Y-116675467D01*
X58725000Y-116591102D01*
X58725000Y-116550000D01*
X58225000Y-116550000D01*
X58225000Y-117075000D01*
X57725000Y-117075000D01*
X57725000Y-116050000D01*
X58225000Y-116050000D01*
X58725000Y-116050000D01*
X58725000Y-116008897D01*
X58714868Y-115924532D01*
X58714868Y-115924531D01*
X58661922Y-115790270D01*
X58574721Y-115675278D01*
X58473874Y-115598804D01*
X58432350Y-115542612D01*
X58427799Y-115472890D01*
X58461664Y-115411776D01*
X58473874Y-115401196D01*
X58574721Y-115324721D01*
X58661922Y-115209729D01*
X58714868Y-115075468D01*
X58714868Y-115075467D01*
X58725000Y-114991102D01*
X58725000Y-114950000D01*
X58225000Y-114950000D01*
X58225000Y-116050000D01*
X57725000Y-116050000D01*
X57725000Y-114450000D01*
X58225000Y-114450000D01*
X58725000Y-114450000D01*
X58725000Y-114408897D01*
X58714868Y-114324532D01*
X58714868Y-114324531D01*
X58661922Y-114190270D01*
X58574721Y-114075278D01*
X58459729Y-113988077D01*
X58325467Y-113935131D01*
X58241102Y-113925000D01*
X58225000Y-113925000D01*
X58225000Y-114450000D01*
X57725000Y-114450000D01*
X57725000Y-113925000D01*
X57708898Y-113925000D01*
X57624532Y-113935131D01*
X57624531Y-113935131D01*
X57490270Y-113988077D01*
X57375278Y-114075278D01*
X57288077Y-114190270D01*
X57264855Y-114249159D01*
X57221949Y-114304303D01*
X57156041Y-114327496D01*
X57088056Y-114311376D01*
X57039580Y-114261059D01*
X57025500Y-114203669D01*
X57025500Y-114089060D01*
X57025501Y-114089047D01*
X57025501Y-113920944D01*
X57025501Y-113920943D01*
X56984577Y-113768216D01*
X56936775Y-113685420D01*
X56905524Y-113631290D01*
X56905518Y-113631282D01*
X56561819Y-113287583D01*
X56528334Y-113226260D01*
X56525500Y-113199902D01*
X56525500Y-112174500D01*
X56545185Y-112107461D01*
X56597989Y-112061706D01*
X56649500Y-112050500D01*
X57206246Y-112050500D01*
X57263871Y-112064703D01*
X57349775Y-112109790D01*
X57514944Y-112150500D01*
X57685056Y-112150500D01*
X57850225Y-112109790D01*
X57936128Y-112064703D01*
X57993754Y-112050500D01*
X59985197Y-112050500D01*
X60052236Y-112070185D01*
X60081050Y-112095835D01*
X60163587Y-112196407D01*
X60163588Y-112196408D01*
X60163590Y-112196410D01*
X60264165Y-112278949D01*
X60303499Y-112336692D01*
X60309500Y-112374801D01*
X60309500Y-113065197D01*
X60289815Y-113132236D01*
X60264165Y-113161050D01*
X60163590Y-113243589D01*
X60032317Y-113403547D01*
X60032315Y-113403550D01*
X60019285Y-113427928D01*
X59934769Y-113586043D01*
X59874699Y-113784067D01*
X59854417Y-113990000D01*
X59874699Y-114195932D01*
X59874700Y-114195934D01*
X59934768Y-114393954D01*
X60032315Y-114576450D01*
X60045519Y-114592539D01*
X60163589Y-114736410D01*
X60260209Y-114815702D01*
X60323550Y-114867685D01*
X60506046Y-114965232D01*
X60704066Y-115025300D01*
X60704065Y-115025300D01*
X60722529Y-115027118D01*
X60910000Y-115045583D01*
X61115934Y-115025300D01*
X61313954Y-114965232D01*
X61496450Y-114867685D01*
X61656410Y-114736410D01*
X61787685Y-114576450D01*
X61885232Y-114393954D01*
X61945300Y-114195934D01*
X61965583Y-113990000D01*
X61945300Y-113784066D01*
X61885232Y-113586046D01*
X61787685Y-113403550D01*
X61656410Y-113243590D01*
X61656409Y-113243589D01*
X61555835Y-113161050D01*
X61516501Y-113103305D01*
X61510500Y-113065197D01*
X61510500Y-112374801D01*
X61530185Y-112307762D01*
X61555832Y-112278951D01*
X61656410Y-112196410D01*
X61787685Y-112036450D01*
X61885232Y-111853954D01*
X61945300Y-111655934D01*
X61965583Y-111450000D01*
X61945300Y-111244066D01*
X61885232Y-111046046D01*
X61787685Y-110863550D01*
X61725342Y-110787584D01*
X61656410Y-110703589D01*
X61496452Y-110572317D01*
X61496453Y-110572317D01*
X61496450Y-110572315D01*
X61313954Y-110474768D01*
X61115934Y-110414700D01*
X61115932Y-110414699D01*
X61115934Y-110414699D01*
X60910000Y-110394417D01*
X60704067Y-110414699D01*
X60528692Y-110467898D01*
X60518755Y-110470913D01*
X60506043Y-110474769D01*
X60412069Y-110525000D01*
X60323550Y-110572315D01*
X60323548Y-110572316D01*
X60323547Y-110572317D01*
X60163589Y-110703590D01*
X60081050Y-110804165D01*
X60023305Y-110843499D01*
X59985197Y-110849500D01*
X57993754Y-110849500D01*
X57936128Y-110835296D01*
X57876814Y-110804165D01*
X57850224Y-110790209D01*
X57685056Y-110749500D01*
X57514944Y-110749500D01*
X57349775Y-110790209D01*
X57303729Y-110814377D01*
X57263871Y-110835296D01*
X57206246Y-110849500D01*
X56675097Y-110849500D01*
X56608058Y-110829815D01*
X56587416Y-110813181D01*
X56561819Y-110787584D01*
X56528334Y-110726261D01*
X56525500Y-110699903D01*
X56525500Y-110316100D01*
X56525501Y-110316087D01*
X56525501Y-110147984D01*
X56522433Y-110136533D01*
X56484577Y-109995256D01*
X56471190Y-109972068D01*
X56405524Y-109858330D01*
X56405518Y-109858322D01*
X55496799Y-108949604D01*
X55463314Y-108888281D01*
X55462006Y-108881318D01*
X55459719Y-108866874D01*
X55398528Y-108746780D01*
X55398526Y-108746778D01*
X55398523Y-108746774D01*
X55303225Y-108651476D01*
X55303221Y-108651473D01*
X55303220Y-108651472D01*
X55183126Y-108590281D01*
X55183124Y-108590280D01*
X55183121Y-108590279D01*
X55083493Y-108574500D01*
X55083488Y-108574500D01*
X54516512Y-108574500D01*
X54516507Y-108574500D01*
X54416878Y-108590279D01*
X54416874Y-108590280D01*
X54416874Y-108590281D01*
X54394903Y-108601476D01*
X54296778Y-108651473D01*
X54296774Y-108651476D01*
X54285070Y-108663181D01*
X54223747Y-108696666D01*
X54197389Y-108699500D01*
X52479239Y-108699500D01*
X52411108Y-108709426D01*
X52306014Y-108760803D01*
X52223303Y-108843514D01*
X52171926Y-108948608D01*
X52162000Y-109016739D01*
X52162000Y-109383260D01*
X52171926Y-109451391D01*
X52223303Y-109556485D01*
X52306014Y-109639196D01*
X52306015Y-109639196D01*
X52306017Y-109639198D01*
X52411107Y-109690573D01*
X52445173Y-109695536D01*
X52479239Y-109700500D01*
X52479240Y-109700500D01*
X52959108Y-109700500D01*
X54147390Y-109700500D01*
X54214429Y-109720185D01*
X54235066Y-109736814D01*
X54296780Y-109798528D01*
X54369140Y-109835397D01*
X54419935Y-109883370D01*
X54436730Y-109951191D01*
X54414193Y-110017326D01*
X54359478Y-110060778D01*
X54358335Y-110061235D01*
X54290274Y-110088075D01*
X54290270Y-110088077D01*
X54175278Y-110175278D01*
X54088077Y-110290270D01*
X54035131Y-110424531D01*
X54035131Y-110424532D01*
X54025000Y-110508897D01*
X54025000Y-110525000D01*
X54676000Y-110525000D01*
X54743039Y-110544685D01*
X54788794Y-110597489D01*
X54800000Y-110649000D01*
X54800000Y-110775000D01*
X54926000Y-110775000D01*
X54993039Y-110794685D01*
X55038794Y-110847489D01*
X55050000Y-110899000D01*
X55050000Y-111525000D01*
X55091102Y-111525000D01*
X55183364Y-111513920D01*
X55183703Y-111516744D01*
X55239897Y-111518865D01*
X55297209Y-111558829D01*
X55323816Y-111623434D01*
X55324500Y-111636440D01*
X55324500Y-113413330D01*
X55324499Y-113413348D01*
X55324499Y-113579056D01*
X55354187Y-113689854D01*
X55352524Y-113759704D01*
X55313361Y-113817566D01*
X55249133Y-113845070D01*
X55180231Y-113833483D01*
X55146731Y-113809628D01*
X54976616Y-113639513D01*
X54976614Y-113639511D01*
X54915546Y-113604253D01*
X54873888Y-113580201D01*
X54861780Y-113576957D01*
X54849673Y-113573713D01*
X54849670Y-113573712D01*
X54798873Y-113560101D01*
X54739212Y-113523736D01*
X54708683Y-113460889D01*
X54716978Y-113391514D01*
X54720482Y-113384029D01*
X54759237Y-113307970D01*
X54760500Y-113300000D01*
X52939500Y-113300000D01*
X52940762Y-113307970D01*
X52940763Y-113307973D01*
X53001881Y-113427921D01*
X53001886Y-113427928D01*
X53081635Y-113507677D01*
X53115120Y-113569000D01*
X53110136Y-113638692D01*
X53081635Y-113683039D01*
X53079253Y-113685420D01*
X53030740Y-113789456D01*
X53024500Y-113836859D01*
X53024500Y-114163132D01*
X53024501Y-114163138D01*
X53030741Y-114210545D01*
X53079253Y-114314579D01*
X53081548Y-114316874D01*
X53081639Y-114316965D01*
X53084171Y-114321603D01*
X53085475Y-114323465D01*
X53085267Y-114323610D01*
X53115121Y-114378290D01*
X53110133Y-114447981D01*
X53081635Y-114492323D01*
X53001883Y-114572075D01*
X53001881Y-114572078D01*
X52940763Y-114692026D01*
X52940762Y-114692029D01*
X52939500Y-114700000D01*
X53726000Y-114700000D01*
X53793039Y-114719685D01*
X53838794Y-114772489D01*
X53850000Y-114824000D01*
X53850000Y-114950000D01*
X53976000Y-114950000D01*
X54043039Y-114969685D01*
X54088794Y-115022489D01*
X54100000Y-115074000D01*
X54100000Y-115499999D01*
X54383449Y-115499999D01*
X54482967Y-115484237D01*
X54602923Y-115423116D01*
X54602928Y-115423113D01*
X54698113Y-115327928D01*
X54698118Y-115327921D01*
X54715015Y-115294760D01*
X54762989Y-115243963D01*
X54830810Y-115227168D01*
X54896945Y-115249705D01*
X54940397Y-115304420D01*
X54949500Y-115351054D01*
X54949500Y-115662035D01*
X54929815Y-115729074D01*
X54913181Y-115749716D01*
X54089513Y-116573383D01*
X54089511Y-116573386D01*
X54030199Y-116676114D01*
X53999501Y-116790689D01*
X53999501Y-116909310D01*
X54030200Y-117023888D01*
X54052886Y-117063179D01*
X54069500Y-117125180D01*
X54069500Y-117675500D01*
X54049815Y-117742539D01*
X53997011Y-117788294D01*
X53945500Y-117799500D01*
X53680143Y-117799500D01*
X53680117Y-117799502D01*
X53655013Y-117802413D01*
X53587021Y-117832434D01*
X53552238Y-117847793D01*
X53550086Y-117848743D01*
X53480807Y-117857814D01*
X53449914Y-117848743D01*
X53447765Y-117847794D01*
X53344991Y-117802415D01*
X53319865Y-117799500D01*
X53030143Y-117799500D01*
X53030117Y-117799502D01*
X53005013Y-117802413D01*
X52937021Y-117832434D01*
X52902238Y-117847793D01*
X52900086Y-117848743D01*
X52830807Y-117857814D01*
X52799914Y-117848743D01*
X52797765Y-117847794D01*
X52694991Y-117802415D01*
X52669865Y-117799500D01*
X52380143Y-117799500D01*
X52380117Y-117799502D01*
X52355012Y-117802413D01*
X52355008Y-117802415D01*
X52252235Y-117847793D01*
X52172794Y-117927234D01*
X52127415Y-118030006D01*
X52127415Y-118030008D01*
X52124500Y-118055131D01*
X52124500Y-120490114D01*
X52104815Y-120557153D01*
X52052011Y-120602908D01*
X52035437Y-120609091D01*
X52014861Y-120615132D01*
X51893787Y-120692942D01*
X51799537Y-120801712D01*
X51799535Y-120801716D01*
X51788591Y-120825679D01*
X51742835Y-120878482D01*
X51675795Y-120898165D01*
X51608756Y-120878479D01*
X51588117Y-120861846D01*
X50060420Y-119334149D01*
X50026935Y-119272826D01*
X50031919Y-119203134D01*
X50073791Y-119147201D01*
X50139255Y-119122784D01*
X50205727Y-119136672D01*
X50249773Y-119159789D01*
X50249775Y-119159790D01*
X50414944Y-119200500D01*
X50585056Y-119200500D01*
X50750225Y-119159790D01*
X50865097Y-119099500D01*
X50900849Y-119080736D01*
X50900850Y-119080734D01*
X50900852Y-119080734D01*
X51028183Y-118967929D01*
X51124818Y-118827930D01*
X51185140Y-118668872D01*
X51205645Y-118500000D01*
X51185140Y-118331128D01*
X51124818Y-118172070D01*
X51124817Y-118172068D01*
X51047450Y-118059983D01*
X51025567Y-117993629D01*
X51025500Y-117989543D01*
X51025500Y-117416482D01*
X51045185Y-117349443D01*
X51061813Y-117328806D01*
X51198168Y-117192451D01*
X51259487Y-117158969D01*
X51329179Y-117163953D01*
X51384650Y-117205209D01*
X51475280Y-117324722D01*
X51590270Y-117411922D01*
X51724532Y-117464868D01*
X51808898Y-117475000D01*
X51825000Y-117475000D01*
X52325000Y-117475000D01*
X52341102Y-117475000D01*
X52425467Y-117464868D01*
X52425468Y-117464868D01*
X52559729Y-117411922D01*
X52674721Y-117324721D01*
X52761922Y-117209729D01*
X52814868Y-117075468D01*
X52814868Y-117075467D01*
X52825000Y-116991102D01*
X52825000Y-116950000D01*
X52325000Y-116950000D01*
X52325000Y-117475000D01*
X51825000Y-117475000D01*
X51825000Y-116450000D01*
X52325000Y-116450000D01*
X52825000Y-116450000D01*
X52825000Y-116408897D01*
X52814868Y-116324532D01*
X52814868Y-116324531D01*
X52761922Y-116190270D01*
X52674721Y-116075278D01*
X52559729Y-115988077D01*
X52425467Y-115935131D01*
X52341102Y-115925000D01*
X52325000Y-115925000D01*
X52325000Y-116450000D01*
X51825000Y-116450000D01*
X51825000Y-115918356D01*
X51799506Y-115871668D01*
X51804490Y-115801976D01*
X51832991Y-115757629D01*
X51861547Y-115729074D01*
X52308991Y-115281630D01*
X52323693Y-115265262D01*
X52323698Y-115265254D01*
X52323704Y-115265249D01*
X52340325Y-115244623D01*
X52340325Y-115244622D01*
X52340327Y-115244620D01*
X52363667Y-115200000D01*
X52939500Y-115200000D01*
X52940762Y-115207970D01*
X52940763Y-115207973D01*
X53001881Y-115327921D01*
X53001886Y-115327928D01*
X53097071Y-115423113D01*
X53097076Y-115423116D01*
X53217034Y-115484239D01*
X53217033Y-115484239D01*
X53316543Y-115499999D01*
X53599999Y-115499999D01*
X53600000Y-115499998D01*
X53600000Y-115200000D01*
X52939500Y-115200000D01*
X52363667Y-115200000D01*
X52377490Y-115173575D01*
X52380889Y-115162000D01*
X52397173Y-115106543D01*
X52397173Y-115106542D01*
X52397175Y-115106536D01*
X52405500Y-115048638D01*
X52405500Y-114951362D01*
X52404322Y-114929393D01*
X52403617Y-114922839D01*
X52401488Y-114903034D01*
X52401487Y-114903032D01*
X52387197Y-114857395D01*
X52377529Y-114826518D01*
X52344044Y-114765195D01*
X52308991Y-114718371D01*
X52162695Y-114572075D01*
X51981634Y-114391013D01*
X51981633Y-114391012D01*
X51965283Y-114376325D01*
X51965269Y-114376313D01*
X51944620Y-114359672D01*
X51873575Y-114322509D01*
X51806543Y-114302826D01*
X51805894Y-114302732D01*
X51748638Y-114294500D01*
X50641333Y-114294500D01*
X50641100Y-114294504D01*
X50633899Y-114294633D01*
X50624949Y-114294957D01*
X50560384Y-114307846D01*
X50494948Y-114332319D01*
X50443633Y-114360398D01*
X49991792Y-114699281D01*
X49991790Y-114699282D01*
X49971756Y-114714307D01*
X49906314Y-114738782D01*
X49838028Y-114723991D01*
X49788579Y-114674629D01*
X49773666Y-114606370D01*
X49798025Y-114540884D01*
X49809673Y-114527429D01*
X50800284Y-113536819D01*
X50861607Y-113503334D01*
X50887965Y-113500500D01*
X51423743Y-113500500D01*
X51423751Y-113500499D01*
X51888133Y-113500499D01*
X51888138Y-113500499D01*
X51935545Y-113494259D01*
X52039579Y-113445747D01*
X52120747Y-113364579D01*
X52169259Y-113260545D01*
X52175500Y-113213139D01*
X52175499Y-112886862D01*
X52169259Y-112839455D01*
X52150861Y-112800000D01*
X52939500Y-112800000D01*
X53600000Y-112800000D01*
X54100000Y-112800000D01*
X54760499Y-112800000D01*
X54759237Y-112792029D01*
X54759236Y-112792026D01*
X54698118Y-112672078D01*
X54698113Y-112672071D01*
X54602928Y-112576886D01*
X54602923Y-112576883D01*
X54482965Y-112515760D01*
X54482966Y-112515760D01*
X54383456Y-112500000D01*
X54100000Y-112500000D01*
X54100000Y-112800000D01*
X53600000Y-112800000D01*
X53600000Y-112500000D01*
X53316550Y-112500000D01*
X53217032Y-112515762D01*
X53097076Y-112576883D01*
X53097071Y-112576886D01*
X53001886Y-112672071D01*
X53001881Y-112672078D01*
X52940763Y-112792026D01*
X52940762Y-112792029D01*
X52939500Y-112800000D01*
X52150861Y-112800000D01*
X52120747Y-112735421D01*
X52039579Y-112654253D01*
X51935545Y-112605741D01*
X51935543Y-112605740D01*
X51935544Y-112605740D01*
X51888140Y-112599500D01*
X51888139Y-112599500D01*
X51409310Y-112599500D01*
X51409309Y-112599500D01*
X50590691Y-112599500D01*
X50500325Y-112623713D01*
X50500324Y-112623712D01*
X50476116Y-112630199D01*
X50476113Y-112630200D01*
X50373386Y-112689511D01*
X50373383Y-112689513D01*
X48205500Y-114857395D01*
X48144177Y-114890880D01*
X48074485Y-114885896D01*
X48039155Y-114865568D01*
X47986450Y-114822315D01*
X47986444Y-114822310D01*
X47803958Y-114724769D01*
X47696017Y-114692026D01*
X47605934Y-114664700D01*
X47605932Y-114664699D01*
X47605934Y-114664699D01*
X47400000Y-114644417D01*
X47194067Y-114664699D01*
X47059736Y-114705448D01*
X46998608Y-114723991D01*
X46996043Y-114724769D01*
X46920426Y-114765188D01*
X46813550Y-114822315D01*
X46813548Y-114822316D01*
X46813547Y-114822317D01*
X46653589Y-114953589D01*
X46528071Y-115106536D01*
X46522315Y-115113550D01*
X46496418Y-115162000D01*
X46424769Y-115296043D01*
X46364699Y-115494067D01*
X46344417Y-115700000D01*
X46364699Y-115905932D01*
X46394734Y-116004944D01*
X46424768Y-116103954D01*
X46522315Y-116286450D01*
X46522317Y-116286452D01*
X46653589Y-116446410D01*
X46750209Y-116525702D01*
X46813550Y-116577685D01*
X46996046Y-116675232D01*
X47194066Y-116735300D01*
X47194065Y-116735300D01*
X47212529Y-116737118D01*
X47400000Y-116755583D01*
X47605934Y-116735300D01*
X47803954Y-116675232D01*
X47986450Y-116577685D01*
X48146410Y-116446410D01*
X48277685Y-116286450D01*
X48375232Y-116103954D01*
X48428083Y-115929724D01*
X48459063Y-115878039D01*
X48935906Y-115401196D01*
X49413026Y-114924076D01*
X49474346Y-114890593D01*
X49544037Y-114895577D01*
X49599971Y-114937449D01*
X49624388Y-115002913D01*
X49619681Y-115046694D01*
X49602827Y-115104092D01*
X49602826Y-115104098D01*
X49602825Y-115104102D01*
X49596185Y-115150284D01*
X49594500Y-115162003D01*
X49594500Y-116848638D01*
X49595678Y-116870618D01*
X49598511Y-116896965D01*
X49598512Y-116896967D01*
X49622470Y-116973478D01*
X49622471Y-116973483D01*
X49632092Y-116991102D01*
X49655956Y-117034805D01*
X49655958Y-117034808D01*
X49655960Y-117034811D01*
X49690998Y-117081615D01*
X49691002Y-117081619D01*
X49691009Y-117081629D01*
X49691016Y-117081636D01*
X49988181Y-117378801D01*
X50021666Y-117440124D01*
X50024500Y-117466482D01*
X50024500Y-117929590D01*
X50004815Y-117996629D01*
X49982727Y-118022405D01*
X49971818Y-118032069D01*
X49875182Y-118172068D01*
X49814860Y-118331125D01*
X49814859Y-118331130D01*
X49794355Y-118500000D01*
X49814859Y-118668869D01*
X49814860Y-118668874D01*
X49875182Y-118827931D01*
X49950532Y-118937093D01*
X49972415Y-119003447D01*
X49954950Y-119071099D01*
X49903682Y-119118569D01*
X49834889Y-119130786D01*
X49816390Y-119127308D01*
X49712606Y-119099500D01*
X49712605Y-119099500D01*
X48315775Y-119099500D01*
X48248736Y-119079815D01*
X48202981Y-119027011D01*
X48193037Y-118957853D01*
X48219922Y-118896835D01*
X48231422Y-118882820D01*
X48277685Y-118826450D01*
X48375232Y-118643954D01*
X48435300Y-118445934D01*
X48455583Y-118240000D01*
X48435300Y-118034066D01*
X48375232Y-117836046D01*
X48277685Y-117653550D01*
X48157240Y-117506786D01*
X48146410Y-117493589D01*
X48006850Y-117379057D01*
X47986450Y-117362315D01*
X47803954Y-117264768D01*
X47605934Y-117204700D01*
X47605932Y-117204699D01*
X47605934Y-117204699D01*
X47400000Y-117184417D01*
X47194067Y-117204699D01*
X46996043Y-117264769D01*
X46885898Y-117323643D01*
X46813550Y-117362315D01*
X46813548Y-117362316D01*
X46813547Y-117362317D01*
X46653589Y-117493589D01*
X46522317Y-117653547D01*
X46522315Y-117653550D01*
X46503946Y-117687916D01*
X46424769Y-117836043D01*
X46364699Y-118034067D01*
X46344417Y-118240000D01*
X46364699Y-118445932D01*
X46389664Y-118528229D01*
X46424768Y-118643954D01*
X46502954Y-118790229D01*
X46522317Y-118826453D01*
X46580078Y-118896835D01*
X46607391Y-118961145D01*
X46595600Y-119030013D01*
X46548448Y-119081573D01*
X46484225Y-119099500D01*
X46337255Y-119099500D01*
X46270216Y-119079815D01*
X46249574Y-119063181D01*
X45886649Y-118700256D01*
X45853164Y-118638933D01*
X45855669Y-118576580D01*
X45895300Y-118445934D01*
X45915583Y-118240000D01*
X45895300Y-118034066D01*
X45835232Y-117836046D01*
X45737685Y-117653550D01*
X45617240Y-117506786D01*
X45606410Y-117493589D01*
X45466850Y-117379057D01*
X45446450Y-117362315D01*
X45263954Y-117264768D01*
X45065934Y-117204700D01*
X45065932Y-117204699D01*
X45065934Y-117204699D01*
X44860000Y-117184417D01*
X44654067Y-117204699D01*
X44456043Y-117264769D01*
X44345898Y-117323643D01*
X44273550Y-117362315D01*
X44273548Y-117362316D01*
X44273547Y-117362317D01*
X44113589Y-117493589D01*
X43982317Y-117653547D01*
X43982315Y-117653550D01*
X43963946Y-117687916D01*
X43884769Y-117836043D01*
X43824699Y-118034067D01*
X43804417Y-118240000D01*
X43000500Y-118240000D01*
X43000500Y-113216209D01*
X43020185Y-113149170D01*
X43072989Y-113103415D01*
X43142147Y-113093471D01*
X43167834Y-113100027D01*
X43217623Y-113118597D01*
X43217627Y-113118598D01*
X43277155Y-113124999D01*
X43277172Y-113125000D01*
X43350000Y-113125000D01*
X43850000Y-113125000D01*
X43922828Y-113125000D01*
X43922844Y-113124999D01*
X43982372Y-113118598D01*
X43982379Y-113118596D01*
X44117086Y-113068354D01*
X44117093Y-113068350D01*
X44232187Y-112982190D01*
X44232190Y-112982187D01*
X44318350Y-112867093D01*
X44318354Y-112867086D01*
X44368598Y-112732375D01*
X44374766Y-112675000D01*
X43850000Y-112675000D01*
X43850000Y-113125000D01*
X43350000Y-113125000D01*
X43350000Y-112175000D01*
X43850000Y-112175000D01*
X44374765Y-112175000D01*
X44368598Y-112117624D01*
X44318354Y-111982913D01*
X44318350Y-111982906D01*
X44232190Y-111867812D01*
X44232187Y-111867809D01*
X44117093Y-111781649D01*
X44117086Y-111781645D01*
X43982379Y-111731403D01*
X43982372Y-111731401D01*
X43922844Y-111725000D01*
X43850000Y-111725000D01*
X43850000Y-112175000D01*
X43350000Y-112175000D01*
X43350000Y-111725000D01*
X43277155Y-111725000D01*
X43217627Y-111731401D01*
X43217616Y-111731404D01*
X43167832Y-111749972D01*
X43098140Y-111754956D01*
X43036818Y-111721470D01*
X43003333Y-111660146D01*
X43000500Y-111633790D01*
X43000500Y-111461500D01*
X43020185Y-111394461D01*
X43072989Y-111348706D01*
X43142147Y-111338762D01*
X43180792Y-111351014D01*
X43199696Y-111360646D01*
X43199697Y-111360646D01*
X43199699Y-111360647D01*
X43199698Y-111360647D01*
X43293475Y-111375499D01*
X43293481Y-111375500D01*
X43906518Y-111375499D01*
X44000304Y-111360646D01*
X44113342Y-111303050D01*
X44156603Y-111259789D01*
X44204574Y-111211819D01*
X44265897Y-111178334D01*
X44292255Y-111175500D01*
X44677725Y-111175500D01*
X44677727Y-111175500D01*
X44746677Y-111157025D01*
X44816526Y-111158688D01*
X44874388Y-111197851D01*
X44901865Y-111261853D01*
X44914859Y-111368868D01*
X44914860Y-111368874D01*
X44975182Y-111527931D01*
X45025273Y-111600499D01*
X45071817Y-111667929D01*
X45143465Y-111731403D01*
X45199150Y-111780736D01*
X45338659Y-111853956D01*
X45349775Y-111859790D01*
X45514944Y-111900500D01*
X45685056Y-111900500D01*
X45850225Y-111859790D01*
X45986347Y-111788347D01*
X46000849Y-111780736D01*
X46000850Y-111780734D01*
X46000852Y-111780734D01*
X46128183Y-111667929D01*
X46224818Y-111527930D01*
X46285140Y-111368872D01*
X46305645Y-111200000D01*
X46290008Y-111071223D01*
X46301468Y-111002304D01*
X46348371Y-110950518D01*
X46415827Y-110932310D01*
X46482418Y-110953462D01*
X46515153Y-110985839D01*
X46571815Y-111067927D01*
X46571816Y-111067928D01*
X46571817Y-111067929D01*
X46602916Y-111095480D01*
X46699150Y-111180736D01*
X46849773Y-111259789D01*
X46849775Y-111259790D01*
X47014944Y-111300500D01*
X47185056Y-111300500D01*
X47350225Y-111259790D01*
X47473896Y-111194882D01*
X47500849Y-111180736D01*
X47500850Y-111180734D01*
X47500852Y-111180734D01*
X47628183Y-111067929D01*
X47724818Y-110927930D01*
X47784558Y-110770405D01*
X47826736Y-110714704D01*
X47892333Y-110690646D01*
X47960523Y-110705873D01*
X48009657Y-110755548D01*
X48024500Y-110814377D01*
X48024500Y-111574902D01*
X48004815Y-111641941D01*
X47988181Y-111662583D01*
X47187584Y-112463181D01*
X47126261Y-112496666D01*
X47099903Y-112499500D01*
X45920940Y-112499500D01*
X45880019Y-112510464D01*
X45880019Y-112510465D01*
X45860251Y-112515762D01*
X45768214Y-112540423D01*
X45768209Y-112540426D01*
X45631290Y-112619475D01*
X45631282Y-112619481D01*
X44379479Y-113871284D01*
X44359328Y-113906188D01*
X44350810Y-113920943D01*
X44300423Y-114008215D01*
X44259499Y-114160943D01*
X44259499Y-114160945D01*
X44259499Y-114329046D01*
X44259500Y-114329059D01*
X44259500Y-114525500D01*
X44239815Y-114592539D01*
X44187011Y-114638294D01*
X44135500Y-114649500D01*
X43990247Y-114649500D01*
X43931770Y-114661131D01*
X43931769Y-114661132D01*
X43865447Y-114705447D01*
X43821132Y-114771769D01*
X43821131Y-114771770D01*
X43809500Y-114830247D01*
X43809500Y-116569752D01*
X43821131Y-116628229D01*
X43821132Y-116628230D01*
X43865447Y-116694552D01*
X43931769Y-116738867D01*
X43931770Y-116738868D01*
X43990247Y-116750499D01*
X43990250Y-116750500D01*
X43990252Y-116750500D01*
X45729750Y-116750500D01*
X45729751Y-116750499D01*
X45744568Y-116747552D01*
X45788229Y-116738868D01*
X45788229Y-116738867D01*
X45788231Y-116738867D01*
X45854552Y-116694552D01*
X45898867Y-116628231D01*
X45898867Y-116628229D01*
X45898868Y-116628229D01*
X45910499Y-116569752D01*
X45910500Y-116569750D01*
X45910500Y-114830249D01*
X45910499Y-114830247D01*
X45898868Y-114771770D01*
X45898867Y-114771769D01*
X45854552Y-114705447D01*
X45788230Y-114661132D01*
X45788229Y-114661131D01*
X45729752Y-114649500D01*
X45729748Y-114649500D01*
X45599097Y-114649500D01*
X45532058Y-114629815D01*
X45486303Y-114577011D01*
X45476359Y-114507853D01*
X45505384Y-114444297D01*
X45511416Y-114437819D01*
X46212416Y-113736819D01*
X46273739Y-113703334D01*
X46300097Y-113700500D01*
X47313331Y-113700500D01*
X47313347Y-113700501D01*
X47320943Y-113700501D01*
X47479054Y-113700501D01*
X47479057Y-113700501D01*
X47631785Y-113659577D01*
X47681904Y-113630639D01*
X47768716Y-113580520D01*
X47880520Y-113468716D01*
X47880520Y-113468714D01*
X47890728Y-113458507D01*
X47890729Y-113458504D01*
X49105520Y-112243716D01*
X49184577Y-112106784D01*
X49225501Y-111954057D01*
X49225501Y-111795942D01*
X49225501Y-111788347D01*
X49225500Y-111788329D01*
X49225500Y-111307676D01*
X49245185Y-111240637D01*
X49297989Y-111194882D01*
X49367147Y-111184938D01*
X49430703Y-111213963D01*
X49437181Y-111219995D01*
X49624500Y-111407314D01*
X49717686Y-111500500D01*
X49784713Y-111539198D01*
X49818714Y-111558829D01*
X49831814Y-111566392D01*
X49959108Y-111600500D01*
X49959110Y-111600500D01*
X51295761Y-111600500D01*
X51318471Y-111597191D01*
X51363893Y-111590573D01*
X51468983Y-111539198D01*
X51551698Y-111456483D01*
X51603073Y-111351393D01*
X51613000Y-111283260D01*
X51613000Y-110916740D01*
X51613000Y-110916739D01*
X52162000Y-110916739D01*
X52162000Y-111283260D01*
X52171926Y-111351391D01*
X52223303Y-111456485D01*
X52306014Y-111539196D01*
X52306015Y-111539196D01*
X52306017Y-111539198D01*
X52411107Y-111590573D01*
X52445173Y-111595536D01*
X52479239Y-111600500D01*
X52479240Y-111600500D01*
X53570761Y-111600500D01*
X53593471Y-111597191D01*
X53638893Y-111590573D01*
X53743983Y-111539198D01*
X53826698Y-111456483D01*
X53878073Y-111351393D01*
X53880449Y-111335078D01*
X53909594Y-111271580D01*
X53968442Y-111233916D01*
X54038312Y-111234047D01*
X54097019Y-111271931D01*
X54101958Y-111278033D01*
X54175278Y-111374721D01*
X54290270Y-111461922D01*
X54424532Y-111514868D01*
X54508898Y-111525000D01*
X54550000Y-111525000D01*
X54550000Y-111025000D01*
X54011016Y-111025000D01*
X53943977Y-111005315D01*
X53898222Y-110952511D01*
X53888312Y-110918878D01*
X53878073Y-110848608D01*
X53877061Y-110846537D01*
X53826698Y-110743517D01*
X53826696Y-110743515D01*
X53826696Y-110743514D01*
X53743985Y-110660803D01*
X53638891Y-110609426D01*
X53570761Y-110599500D01*
X53570760Y-110599500D01*
X52479240Y-110599500D01*
X52479239Y-110599500D01*
X52411108Y-110609426D01*
X52306014Y-110660803D01*
X52223303Y-110743514D01*
X52171926Y-110848608D01*
X52162000Y-110916739D01*
X51613000Y-110916739D01*
X51603073Y-110848607D01*
X51561314Y-110763188D01*
X51549556Y-110694317D01*
X51576900Y-110630020D01*
X51583991Y-110622199D01*
X51664846Y-110512645D01*
X51704262Y-110400000D01*
X50874000Y-110400000D01*
X50806961Y-110380315D01*
X50761206Y-110327511D01*
X50750000Y-110276000D01*
X50750000Y-110024000D01*
X50769685Y-109956961D01*
X50822489Y-109911206D01*
X50874000Y-109900000D01*
X51704261Y-109900000D01*
X51664846Y-109787354D01*
X51578774Y-109670731D01*
X51580037Y-109669798D01*
X51551550Y-109617627D01*
X51556534Y-109547935D01*
X51561316Y-109536808D01*
X51563116Y-109533126D01*
X51603073Y-109451393D01*
X51613000Y-109383260D01*
X51613000Y-109016740D01*
X51603073Y-108948607D01*
X51551698Y-108843517D01*
X51551696Y-108843515D01*
X51551696Y-108843514D01*
X51468985Y-108760803D01*
X51363891Y-108709426D01*
X51295761Y-108699500D01*
X51295760Y-108699500D01*
X50815892Y-108699500D01*
X49252610Y-108699500D01*
X49185571Y-108679815D01*
X49164933Y-108663185D01*
X49103220Y-108601472D01*
X49030859Y-108564602D01*
X48980064Y-108516628D01*
X48963269Y-108448807D01*
X48985807Y-108382672D01*
X49040522Y-108339221D01*
X49041666Y-108338763D01*
X49109727Y-108311923D01*
X49109729Y-108311922D01*
X49224721Y-108224721D01*
X49311922Y-108109729D01*
X49364868Y-107975468D01*
X49364868Y-107975467D01*
X49368995Y-107941102D01*
X55625000Y-107941102D01*
X55635131Y-108025467D01*
X55635131Y-108025468D01*
X55688077Y-108159729D01*
X55775278Y-108274721D01*
X55890270Y-108361922D01*
X56024532Y-108414868D01*
X56108898Y-108425000D01*
X56150000Y-108425000D01*
X56650000Y-108425000D01*
X56691102Y-108425000D01*
X56775467Y-108414868D01*
X56775468Y-108414868D01*
X56909729Y-108361922D01*
X57024721Y-108274721D01*
X57111922Y-108159729D01*
X57111923Y-108159727D01*
X57134645Y-108102109D01*
X57177551Y-108046964D01*
X57243458Y-108023771D01*
X57311443Y-108039891D01*
X57359920Y-108090208D01*
X57365355Y-108102109D01*
X57388076Y-108159727D01*
X57388077Y-108159729D01*
X57475278Y-108274721D01*
X57590270Y-108361922D01*
X57724532Y-108414868D01*
X57808898Y-108425000D01*
X57850000Y-108425000D01*
X58350000Y-108425000D01*
X58391102Y-108425000D01*
X58475467Y-108414868D01*
X58475468Y-108414868D01*
X58609729Y-108361922D01*
X58724721Y-108274721D01*
X58811922Y-108159729D01*
X58864868Y-108025468D01*
X58864868Y-108025467D01*
X58866100Y-108015205D01*
X59760000Y-108015205D01*
X59760000Y-108660000D01*
X60476988Y-108660000D01*
X60444075Y-108717007D01*
X60410000Y-108844174D01*
X60410000Y-108975826D01*
X60444075Y-109102993D01*
X60476988Y-109160000D01*
X59760001Y-109160000D01*
X59760001Y-109804785D01*
X59760002Y-109804808D01*
X59762908Y-109829869D01*
X59762909Y-109829873D01*
X59808211Y-109932474D01*
X59808214Y-109932479D01*
X59887520Y-110011785D01*
X59887525Y-110011788D01*
X59990123Y-110057089D01*
X60015206Y-110059999D01*
X60659999Y-110059999D01*
X60660000Y-110059998D01*
X60660000Y-109343012D01*
X60717007Y-109375925D01*
X60844174Y-109410000D01*
X60975826Y-109410000D01*
X61102993Y-109375925D01*
X61160000Y-109343012D01*
X61160000Y-110059999D01*
X61804786Y-110059999D01*
X61804808Y-110059997D01*
X61829869Y-110057091D01*
X61829873Y-110057090D01*
X61932474Y-110011788D01*
X61932479Y-110011785D01*
X62011785Y-109932479D01*
X62011788Y-109932474D01*
X62057089Y-109829877D01*
X62057089Y-109829875D01*
X62059999Y-109804794D01*
X62060000Y-109804791D01*
X62060000Y-109160000D01*
X61343012Y-109160000D01*
X61375925Y-109102993D01*
X61410000Y-108975826D01*
X61410000Y-108844174D01*
X61375925Y-108717007D01*
X61343012Y-108660000D01*
X62059999Y-108660000D01*
X62059999Y-108015214D01*
X62059997Y-108015191D01*
X62057091Y-107990130D01*
X62057090Y-107990126D01*
X62011788Y-107887525D01*
X62011785Y-107887520D01*
X61932479Y-107808214D01*
X61932474Y-107808211D01*
X61829876Y-107762910D01*
X61804794Y-107760000D01*
X61160000Y-107760000D01*
X61160000Y-108476988D01*
X61102993Y-108444075D01*
X60975826Y-108410000D01*
X60844174Y-108410000D01*
X60717007Y-108444075D01*
X60660000Y-108476988D01*
X60660000Y-107760000D01*
X60015214Y-107760000D01*
X60015191Y-107760002D01*
X59990130Y-107762908D01*
X59990126Y-107762909D01*
X59887525Y-107808211D01*
X59887520Y-107808214D01*
X59808214Y-107887520D01*
X59808211Y-107887525D01*
X59762910Y-107990122D01*
X59762910Y-107990124D01*
X59760000Y-108015205D01*
X58866100Y-108015205D01*
X58875000Y-107941102D01*
X58875000Y-107925000D01*
X58350000Y-107925000D01*
X58350000Y-108425000D01*
X57850000Y-108425000D01*
X57850000Y-107925000D01*
X57314458Y-107925000D01*
X57276358Y-107945804D01*
X57206666Y-107940820D01*
X57182050Y-107925000D01*
X56650000Y-107925000D01*
X56650000Y-108425000D01*
X56150000Y-108425000D01*
X56150000Y-107925000D01*
X55625000Y-107925000D01*
X55625000Y-107941102D01*
X49368995Y-107941102D01*
X49375000Y-107891102D01*
X49375000Y-107875000D01*
X47825000Y-107875000D01*
X47825000Y-107891102D01*
X47835131Y-107975467D01*
X47835131Y-107975468D01*
X47888077Y-108109729D01*
X47975278Y-108224721D01*
X48090270Y-108311922D01*
X48158334Y-108338763D01*
X48213478Y-108381669D01*
X48236671Y-108447577D01*
X48220551Y-108515561D01*
X48170234Y-108564038D01*
X48169140Y-108564602D01*
X48096781Y-108601471D01*
X48096774Y-108601476D01*
X48001476Y-108696774D01*
X48001473Y-108696778D01*
X47940279Y-108816878D01*
X47924500Y-108916506D01*
X47924500Y-109433493D01*
X47940279Y-109533121D01*
X47940280Y-109533124D01*
X47940281Y-109533126D01*
X48001472Y-109653220D01*
X48001473Y-109653221D01*
X48001476Y-109653225D01*
X48057844Y-109709593D01*
X48091329Y-109770916D01*
X48086345Y-109840608D01*
X48072213Y-109867714D01*
X48000183Y-109972068D01*
X48000182Y-109972069D01*
X47940442Y-110129593D01*
X47898264Y-110185296D01*
X47832667Y-110209353D01*
X47764476Y-110194126D01*
X47715343Y-110144450D01*
X47700500Y-110085622D01*
X47700500Y-109764060D01*
X47700501Y-109764047D01*
X47700501Y-109595944D01*
X47700158Y-109593344D01*
X47698851Y-109589787D01*
X47683668Y-109533126D01*
X47659577Y-109443216D01*
X47659573Y-109443209D01*
X47580524Y-109306290D01*
X47580518Y-109306282D01*
X47461818Y-109187582D01*
X47428333Y-109126259D01*
X47425499Y-109099901D01*
X47425499Y-109093482D01*
X47425498Y-109093475D01*
X47410646Y-108999696D01*
X47353050Y-108886658D01*
X47353046Y-108886654D01*
X47353045Y-108886652D01*
X47263347Y-108796954D01*
X47263344Y-108796952D01*
X47263342Y-108796950D01*
X47186517Y-108757805D01*
X47150301Y-108739352D01*
X47056524Y-108724500D01*
X46593482Y-108724500D01*
X46512519Y-108737323D01*
X46499696Y-108739354D01*
X46386658Y-108796950D01*
X46386657Y-108796951D01*
X46386652Y-108796954D01*
X46296954Y-108886652D01*
X46296951Y-108886657D01*
X46296950Y-108886658D01*
X46285057Y-108910000D01*
X46239352Y-108999698D01*
X46224500Y-109093475D01*
X46224500Y-109315807D01*
X46224499Y-109315833D01*
X46224499Y-109484166D01*
X46224500Y-109484191D01*
X46224500Y-109706517D01*
X46231154Y-109748528D01*
X46239354Y-109800304D01*
X46296950Y-109913342D01*
X46296952Y-109913344D01*
X46296954Y-109913347D01*
X46386652Y-110003045D01*
X46386654Y-110003046D01*
X46386658Y-110003050D01*
X46431796Y-110026049D01*
X46482591Y-110074023D01*
X46499500Y-110136533D01*
X46499500Y-110198199D01*
X46479815Y-110265238D01*
X46477551Y-110268638D01*
X46475182Y-110272069D01*
X46414860Y-110431125D01*
X46414859Y-110431130D01*
X46397716Y-110572317D01*
X46394355Y-110600000D01*
X46408283Y-110714704D01*
X46409991Y-110728772D01*
X46398531Y-110797696D01*
X46351627Y-110849482D01*
X46284171Y-110867689D01*
X46217580Y-110846537D01*
X46184845Y-110814160D01*
X46128183Y-110732071D01*
X46000852Y-110619266D01*
X46000849Y-110619263D01*
X45850226Y-110540210D01*
X45685056Y-110499500D01*
X45677677Y-110499500D01*
X45610638Y-110479815D01*
X45564883Y-110427011D01*
X45554939Y-110357853D01*
X45557902Y-110343408D01*
X45559710Y-110336660D01*
X45559710Y-110336658D01*
X45562161Y-110327511D01*
X45575501Y-110277727D01*
X45575501Y-110172273D01*
X45575501Y-110164678D01*
X45575500Y-110164660D01*
X45575500Y-110092254D01*
X45595185Y-110025215D01*
X45611819Y-110004572D01*
X45613339Y-110003051D01*
X45613342Y-110003050D01*
X45703050Y-109913342D01*
X45760646Y-109800304D01*
X45760646Y-109800302D01*
X45760647Y-109800301D01*
X45772375Y-109726248D01*
X45775500Y-109706519D01*
X45775499Y-109093482D01*
X45760646Y-108999696D01*
X45703050Y-108886658D01*
X45703046Y-108886654D01*
X45703045Y-108886652D01*
X45613347Y-108796954D01*
X45613344Y-108796952D01*
X45613342Y-108796950D01*
X45536517Y-108757805D01*
X45500301Y-108739352D01*
X45406524Y-108724500D01*
X44943482Y-108724500D01*
X44862519Y-108737323D01*
X44849696Y-108739354D01*
X44736658Y-108796950D01*
X44736657Y-108796951D01*
X44736652Y-108796954D01*
X44646954Y-108886652D01*
X44646951Y-108886657D01*
X44646950Y-108886658D01*
X44635057Y-108910000D01*
X44589352Y-108999698D01*
X44574500Y-109093475D01*
X44574500Y-109706517D01*
X44581154Y-109748528D01*
X44589354Y-109800304D01*
X44646950Y-109913342D01*
X44646951Y-109913343D01*
X44646953Y-109913346D01*
X44695924Y-109962316D01*
X44729410Y-110023639D01*
X44724426Y-110093331D01*
X44695926Y-110137679D01*
X44636647Y-110196959D01*
X44636646Y-110196958D01*
X44636644Y-110196962D01*
X44495425Y-110338181D01*
X44434102Y-110371666D01*
X44407744Y-110374500D01*
X44292255Y-110374500D01*
X44225216Y-110354815D01*
X44204574Y-110338181D01*
X44113347Y-110246954D01*
X44113344Y-110246952D01*
X44113342Y-110246950D01*
X44019206Y-110198985D01*
X44000301Y-110189352D01*
X43906524Y-110174500D01*
X43293482Y-110174500D01*
X43199695Y-110189354D01*
X43180794Y-110198985D01*
X43112124Y-110211881D01*
X43047384Y-110185604D01*
X43007128Y-110128497D01*
X43000500Y-110088500D01*
X43000500Y-107358897D01*
X47825000Y-107358897D01*
X47825000Y-107375000D01*
X48350000Y-107375000D01*
X48850000Y-107375000D01*
X49375000Y-107375000D01*
X49375000Y-107358897D01*
X49364868Y-107274532D01*
X49364868Y-107274531D01*
X49311922Y-107140270D01*
X49224721Y-107025278D01*
X49109729Y-106938077D01*
X48975467Y-106885131D01*
X48891102Y-106875000D01*
X48850000Y-106875000D01*
X48850000Y-107375000D01*
X48350000Y-107375000D01*
X48350000Y-106875000D01*
X48308898Y-106875000D01*
X48224532Y-106885131D01*
X48224531Y-106885131D01*
X48090270Y-106938077D01*
X47975278Y-107025278D01*
X47888077Y-107140270D01*
X47835131Y-107274531D01*
X47835131Y-107274532D01*
X47825000Y-107358897D01*
X43000500Y-107358897D01*
X43000500Y-105970712D01*
X46300000Y-105970712D01*
X46310035Y-106054274D01*
X46310036Y-106054279D01*
X46362473Y-106187249D01*
X46362476Y-106187255D01*
X46448847Y-106301152D01*
X46562744Y-106387523D01*
X46562750Y-106387526D01*
X46695720Y-106439963D01*
X46695725Y-106439964D01*
X46779287Y-106450000D01*
X47450000Y-106450000D01*
X47950000Y-106450000D01*
X48620713Y-106450000D01*
X48704274Y-106439964D01*
X48704279Y-106439963D01*
X48837249Y-106387526D01*
X48837255Y-106387523D01*
X48951152Y-106301152D01*
X49027858Y-106200000D01*
X53694355Y-106200000D01*
X53714859Y-106368869D01*
X53714860Y-106368874D01*
X53775182Y-106527931D01*
X53837475Y-106618177D01*
X53871817Y-106667929D01*
X53915564Y-106706685D01*
X53999150Y-106780736D01*
X54149773Y-106859789D01*
X54149775Y-106859790D01*
X54314944Y-106900500D01*
X54485056Y-106900500D01*
X54650225Y-106859790D01*
X54800852Y-106780734D01*
X54884436Y-106706684D01*
X54947668Y-106676963D01*
X54966663Y-106675500D01*
X55824795Y-106675500D01*
X55891834Y-106695185D01*
X55896555Y-106698412D01*
X55896777Y-106698525D01*
X55896780Y-106698528D01*
X55969140Y-106735397D01*
X56019935Y-106783370D01*
X56036730Y-106851191D01*
X56014193Y-106917326D01*
X55959478Y-106960778D01*
X55958335Y-106961235D01*
X55890274Y-106988075D01*
X55890270Y-106988077D01*
X55775278Y-107075278D01*
X55688077Y-107190270D01*
X55635131Y-107324531D01*
X55635131Y-107324532D01*
X55625000Y-107408897D01*
X55625000Y-107425000D01*
X57185542Y-107425000D01*
X57223642Y-107404196D01*
X57293334Y-107409180D01*
X57317950Y-107425000D01*
X58875000Y-107425000D01*
X58875000Y-107408897D01*
X58864868Y-107324532D01*
X58864868Y-107324531D01*
X58811922Y-107190270D01*
X58724721Y-107075278D01*
X58609729Y-106988077D01*
X58609723Y-106988074D01*
X58541665Y-106961235D01*
X58486521Y-106918329D01*
X58463328Y-106852421D01*
X58479449Y-106784437D01*
X58529766Y-106735961D01*
X58530739Y-106735458D01*
X58603220Y-106698528D01*
X58603220Y-106698527D01*
X58611916Y-106694097D01*
X58612631Y-106695502D01*
X58668128Y-106675702D01*
X58675205Y-106675500D01*
X60947472Y-106675500D01*
X60947474Y-106675500D01*
X60947475Y-106675500D01*
X61087485Y-106637984D01*
X61213015Y-106565510D01*
X61213015Y-106565509D01*
X61220054Y-106561446D01*
X61220649Y-106562478D01*
X61256611Y-106545187D01*
X61400225Y-106509790D01*
X61550849Y-106430736D01*
X61550850Y-106430734D01*
X61550852Y-106430734D01*
X61678183Y-106317929D01*
X61774818Y-106177930D01*
X61835140Y-106018872D01*
X61840414Y-105975431D01*
X61868034Y-105911253D01*
X61875830Y-105902694D01*
X61940510Y-105838015D01*
X62012984Y-105712485D01*
X62039905Y-105612016D01*
X62050500Y-105572475D01*
X62050500Y-104874499D01*
X62070185Y-104807460D01*
X62122989Y-104761705D01*
X62174500Y-104750499D01*
X62789363Y-104750499D01*
X62906753Y-104735046D01*
X62906757Y-104735044D01*
X62906762Y-104735044D01*
X63052841Y-104674536D01*
X63178282Y-104578282D01*
X63274536Y-104452841D01*
X63335044Y-104306762D01*
X63350500Y-104189361D01*
X63350499Y-103310640D01*
X63350499Y-103310638D01*
X63350499Y-103310636D01*
X63335046Y-103193246D01*
X63335044Y-103193239D01*
X63335044Y-103193238D01*
X63274536Y-103047159D01*
X63178282Y-102921718D01*
X63052841Y-102825464D01*
X62906762Y-102764956D01*
X62906760Y-102764955D01*
X62789370Y-102749501D01*
X62789367Y-102749500D01*
X62789361Y-102749500D01*
X62789354Y-102749500D01*
X60210636Y-102749500D01*
X60093246Y-102764953D01*
X60093237Y-102764956D01*
X59947160Y-102825463D01*
X59821718Y-102921718D01*
X59725463Y-103047160D01*
X59664956Y-103193237D01*
X59664955Y-103193239D01*
X59649500Y-103310638D01*
X59649500Y-104189363D01*
X59664953Y-104306753D01*
X59664956Y-104306762D01*
X59725464Y-104452841D01*
X59821718Y-104578282D01*
X59947159Y-104674536D01*
X60093238Y-104735044D01*
X60210639Y-104750500D01*
X60825500Y-104750499D01*
X60892539Y-104770183D01*
X60938294Y-104822987D01*
X60949500Y-104874499D01*
X60949500Y-105089151D01*
X60929815Y-105156190D01*
X60883127Y-105198947D01*
X60749149Y-105269265D01*
X60621816Y-105382072D01*
X60525962Y-105520940D01*
X60471679Y-105564930D01*
X60423912Y-105574500D01*
X58675205Y-105574500D01*
X58608166Y-105554815D01*
X58603444Y-105551587D01*
X58603221Y-105551473D01*
X58603220Y-105551472D01*
X58483126Y-105490281D01*
X58483124Y-105490280D01*
X58483121Y-105490279D01*
X58383493Y-105474500D01*
X58383488Y-105474500D01*
X57816512Y-105474500D01*
X57816507Y-105474500D01*
X57716878Y-105490279D01*
X57716874Y-105490280D01*
X57716874Y-105490281D01*
X57596780Y-105551472D01*
X57596778Y-105551473D01*
X57588085Y-105555903D01*
X57587368Y-105554497D01*
X57531872Y-105574298D01*
X57524795Y-105574500D01*
X56975205Y-105574500D01*
X56908166Y-105554815D01*
X56903444Y-105551587D01*
X56903221Y-105551473D01*
X56903220Y-105551472D01*
X56783126Y-105490281D01*
X56783124Y-105490280D01*
X56783121Y-105490279D01*
X56683493Y-105474500D01*
X56683488Y-105474500D01*
X56116512Y-105474500D01*
X56116507Y-105474500D01*
X56016878Y-105490279D01*
X56016874Y-105490280D01*
X56016874Y-105490281D01*
X55896780Y-105551472D01*
X55896778Y-105551473D01*
X55888085Y-105555903D01*
X55887368Y-105554497D01*
X55831872Y-105574298D01*
X55824795Y-105574500D01*
X54746121Y-105574500D01*
X54688495Y-105560296D01*
X54668314Y-105549704D01*
X54650224Y-105540209D01*
X54485056Y-105499500D01*
X54314944Y-105499500D01*
X54149773Y-105540210D01*
X53999150Y-105619263D01*
X53871816Y-105732072D01*
X53775182Y-105872068D01*
X53714860Y-106031125D01*
X53714859Y-106031130D01*
X53694355Y-106200000D01*
X49027858Y-106200000D01*
X49037523Y-106187255D01*
X49037526Y-106187249D01*
X49089963Y-106054279D01*
X49089964Y-106054274D01*
X49100000Y-105970712D01*
X49100000Y-104300000D01*
X47950000Y-104300000D01*
X47950000Y-106450000D01*
X47450000Y-106450000D01*
X47450000Y-104300000D01*
X46300000Y-104300000D01*
X46300000Y-105970712D01*
X43000500Y-105970712D01*
X43000500Y-102129287D01*
X46300000Y-102129287D01*
X46300000Y-103800000D01*
X47450000Y-103800000D01*
X47950000Y-103800000D01*
X49100000Y-103800000D01*
X49100000Y-102129287D01*
X49089964Y-102045725D01*
X49089963Y-102045720D01*
X49037526Y-101912750D01*
X49037523Y-101912744D01*
X48951152Y-101798847D01*
X48837255Y-101712476D01*
X48837249Y-101712473D01*
X48704279Y-101660036D01*
X48704274Y-101660035D01*
X48620713Y-101650000D01*
X47950000Y-101650000D01*
X47950000Y-103800000D01*
X47450000Y-103800000D01*
X47450000Y-101650000D01*
X46779287Y-101650000D01*
X46695725Y-101660035D01*
X46695720Y-101660036D01*
X46562750Y-101712473D01*
X46562744Y-101712476D01*
X46448847Y-101798847D01*
X46362476Y-101912744D01*
X46362473Y-101912750D01*
X46310036Y-102045720D01*
X46310035Y-102045725D01*
X46300000Y-102129287D01*
X43000500Y-102129287D01*
X43000500Y-94836897D01*
X46399500Y-94836897D01*
X46399500Y-98663095D01*
X46415095Y-98761563D01*
X46435507Y-98801622D01*
X46475567Y-98880245D01*
X46475569Y-98880247D01*
X46475571Y-98880250D01*
X46569749Y-98974428D01*
X46569753Y-98974431D01*
X46569755Y-98974433D01*
X46688438Y-99034905D01*
X46688439Y-99034905D01*
X46688441Y-99034906D01*
X46786897Y-99050499D01*
X46786903Y-99050500D01*
X48613096Y-99050499D01*
X48711562Y-99034905D01*
X48830245Y-98974433D01*
X48924433Y-98880245D01*
X48984905Y-98761562D01*
X48984906Y-98761558D01*
X49000500Y-98663102D01*
X49000500Y-97474500D01*
X49020185Y-97407461D01*
X49072989Y-97361706D01*
X49124500Y-97350500D01*
X49263331Y-97350500D01*
X49263347Y-97350501D01*
X49270943Y-97350501D01*
X49429054Y-97350501D01*
X49429057Y-97350501D01*
X49557434Y-97316102D01*
X53025000Y-97316102D01*
X53035131Y-97400467D01*
X53035131Y-97400468D01*
X53088077Y-97534729D01*
X53175278Y-97649721D01*
X53290270Y-97736922D01*
X53424532Y-97789868D01*
X53508898Y-97800000D01*
X53550000Y-97800000D01*
X54050000Y-97800000D01*
X54091102Y-97800000D01*
X54175467Y-97789868D01*
X54175468Y-97789868D01*
X54309729Y-97736922D01*
X54424721Y-97649721D01*
X54511922Y-97534729D01*
X54564868Y-97400468D01*
X54564868Y-97400467D01*
X54575000Y-97316102D01*
X54575000Y-97300000D01*
X54050000Y-97300000D01*
X54050000Y-97800000D01*
X53550000Y-97800000D01*
X53550000Y-97300000D01*
X53025000Y-97300000D01*
X53025000Y-97316102D01*
X49557434Y-97316102D01*
X49581785Y-97309577D01*
X49631904Y-97280639D01*
X49718716Y-97230520D01*
X49830520Y-97118716D01*
X49830520Y-97118714D01*
X49840728Y-97108507D01*
X49840730Y-97108504D01*
X50468713Y-96480521D01*
X50468716Y-96480520D01*
X50580520Y-96368716D01*
X50630639Y-96281904D01*
X50659577Y-96231785D01*
X50700500Y-96079057D01*
X50700500Y-95920943D01*
X50700500Y-95849500D01*
X50720185Y-95782461D01*
X50772989Y-95736706D01*
X50824500Y-95725500D01*
X53013369Y-95725500D01*
X53080408Y-95745185D01*
X53126163Y-95797989D01*
X53135842Y-95830103D01*
X53140279Y-95858121D01*
X53140280Y-95858124D01*
X53140281Y-95858126D01*
X53201472Y-95978220D01*
X53201473Y-95978221D01*
X53201476Y-95978225D01*
X53296774Y-96073523D01*
X53296778Y-96073526D01*
X53296780Y-96073528D01*
X53369140Y-96110397D01*
X53419935Y-96158370D01*
X53436730Y-96226191D01*
X53414193Y-96292326D01*
X53359478Y-96335778D01*
X53358335Y-96336235D01*
X53290274Y-96363075D01*
X53290270Y-96363077D01*
X53175278Y-96450278D01*
X53088077Y-96565270D01*
X53035131Y-96699531D01*
X53035131Y-96699532D01*
X53025000Y-96783897D01*
X53025000Y-96800000D01*
X54575000Y-96800000D01*
X54575000Y-96783897D01*
X54564868Y-96699532D01*
X54564868Y-96699531D01*
X54511922Y-96565270D01*
X54424721Y-96450278D01*
X54309729Y-96363077D01*
X54309723Y-96363074D01*
X54241665Y-96336235D01*
X54186521Y-96293329D01*
X54163328Y-96227421D01*
X54179449Y-96159437D01*
X54229766Y-96110961D01*
X54230739Y-96110458D01*
X54303220Y-96073528D01*
X54398528Y-95978220D01*
X54459719Y-95858126D01*
X54460927Y-95850498D01*
X54464158Y-95830103D01*
X54494087Y-95766968D01*
X54553398Y-95730036D01*
X54586631Y-95725500D01*
X54927725Y-95725500D01*
X54927727Y-95725500D01*
X55029588Y-95698207D01*
X55120913Y-95645480D01*
X55820480Y-94945913D01*
X55836022Y-94918993D01*
X55873207Y-94854587D01*
X55900500Y-94752727D01*
X55900500Y-92129755D01*
X55920185Y-92062716D01*
X55936819Y-92042074D01*
X56542074Y-91436819D01*
X56603397Y-91403334D01*
X56629755Y-91400500D01*
X56853456Y-91400500D01*
X56920495Y-91420185D01*
X56941137Y-91436819D01*
X56943514Y-91439196D01*
X56943515Y-91439196D01*
X56943517Y-91439198D01*
X57048607Y-91490573D01*
X57082673Y-91495536D01*
X57116739Y-91500500D01*
X57116740Y-91500500D01*
X58208261Y-91500500D01*
X58230971Y-91497191D01*
X58276393Y-91490573D01*
X58381483Y-91439198D01*
X58464198Y-91356483D01*
X58515573Y-91251393D01*
X58515776Y-91250000D01*
X58983238Y-91250000D01*
X59022653Y-91362645D01*
X59103207Y-91471792D01*
X59212354Y-91552346D01*
X59340397Y-91597149D01*
X59370792Y-91599999D01*
X59687499Y-91599999D01*
X59687500Y-91599998D01*
X59687500Y-91250000D01*
X58983238Y-91250000D01*
X58515776Y-91250000D01*
X58525500Y-91183260D01*
X58525500Y-90816740D01*
X58515776Y-90750000D01*
X58983238Y-90750000D01*
X59813500Y-90750000D01*
X59880539Y-90769685D01*
X59926294Y-90822489D01*
X59937500Y-90874000D01*
X59937500Y-91000000D01*
X60063500Y-91000000D01*
X60130539Y-91019685D01*
X60176294Y-91072489D01*
X60187500Y-91124000D01*
X60187500Y-91599999D01*
X60504196Y-91599999D01*
X60534606Y-91597148D01*
X60662645Y-91552346D01*
X60771792Y-91471792D01*
X60852346Y-91362645D01*
X60892377Y-91248241D01*
X60933098Y-91191465D01*
X60998051Y-91165717D01*
X61041506Y-91169419D01*
X61157502Y-91200500D01*
X61289287Y-91200500D01*
X61538000Y-91200500D01*
X61605039Y-91220185D01*
X61650794Y-91272989D01*
X61662000Y-91324500D01*
X61662000Y-91995980D01*
X61642315Y-92063019D01*
X61625681Y-92083661D01*
X60955888Y-92753453D01*
X60955887Y-92753454D01*
X60879222Y-92868192D01*
X60826421Y-92995667D01*
X60826418Y-92995677D01*
X60799500Y-93131004D01*
X60799500Y-93725500D01*
X60779815Y-93792539D01*
X60727011Y-93838294D01*
X60675500Y-93849500D01*
X60210636Y-93849500D01*
X60093246Y-93864953D01*
X60093237Y-93864956D01*
X59947160Y-93925463D01*
X59821718Y-94021718D01*
X59725463Y-94147160D01*
X59664956Y-94293237D01*
X59664955Y-94293239D01*
X59649500Y-94410638D01*
X59649500Y-95289363D01*
X59664953Y-95406753D01*
X59664956Y-95406762D01*
X59725464Y-95552841D01*
X59821718Y-95678282D01*
X59947159Y-95774536D01*
X60093238Y-95835044D01*
X60210639Y-95850500D01*
X62789360Y-95850499D01*
X62789363Y-95850499D01*
X62906753Y-95835046D01*
X62906757Y-95835044D01*
X62906762Y-95835044D01*
X63052841Y-95774536D01*
X63178282Y-95678282D01*
X63274536Y-95552841D01*
X63335044Y-95406762D01*
X63350500Y-95289361D01*
X63350499Y-94410640D01*
X63350499Y-94410638D01*
X63350499Y-94410636D01*
X63335046Y-94293246D01*
X63335044Y-94293239D01*
X63335044Y-94293238D01*
X63274536Y-94147159D01*
X63178282Y-94021718D01*
X63052841Y-93925464D01*
X63021340Y-93912416D01*
X62906762Y-93864956D01*
X62906760Y-93864955D01*
X62789370Y-93849501D01*
X62789367Y-93849500D01*
X62789361Y-93849500D01*
X62789354Y-93849500D01*
X62324500Y-93849500D01*
X62257461Y-93829815D01*
X62211706Y-93777011D01*
X62200500Y-93725500D01*
X62200500Y-93541519D01*
X62220185Y-93474480D01*
X62236819Y-93453838D01*
X62906612Y-92784045D01*
X62906614Y-92784043D01*
X62983275Y-92669311D01*
X63036080Y-92541829D01*
X63044500Y-92499500D01*
X63063000Y-92406493D01*
X63063000Y-90631007D01*
X63063000Y-90631004D01*
X63040383Y-90517304D01*
X63038000Y-90493112D01*
X63038000Y-90266506D01*
X63022220Y-90166878D01*
X63022219Y-90166876D01*
X63022219Y-90166874D01*
X62961028Y-90046780D01*
X62961026Y-90046778D01*
X62961023Y-90046774D01*
X62865725Y-89951476D01*
X62865721Y-89951473D01*
X62865720Y-89951472D01*
X62745626Y-89890281D01*
X62745624Y-89890280D01*
X62745621Y-89890279D01*
X62645993Y-89874500D01*
X62645988Y-89874500D01*
X62079012Y-89874500D01*
X62079007Y-89874500D01*
X61979378Y-89890279D01*
X61859278Y-89951473D01*
X61859274Y-89951476D01*
X61763976Y-90046774D01*
X61763974Y-90046778D01*
X61763972Y-90046780D01*
X61726893Y-90119552D01*
X61720655Y-90131795D01*
X61672680Y-90182591D01*
X61610170Y-90199500D01*
X61482070Y-90199500D01*
X61415031Y-90179815D01*
X61394389Y-90163181D01*
X60969731Y-89738523D01*
X60936246Y-89677200D01*
X60941230Y-89607508D01*
X60983102Y-89551575D01*
X60995394Y-89543466D01*
X61069814Y-89500500D01*
X61233495Y-89336819D01*
X61294818Y-89303334D01*
X61321176Y-89300500D01*
X61610170Y-89300500D01*
X61677209Y-89320185D01*
X61720654Y-89368204D01*
X61763972Y-89453220D01*
X61763974Y-89453222D01*
X61763976Y-89453225D01*
X61859274Y-89548523D01*
X61859278Y-89548526D01*
X61859280Y-89548528D01*
X61979374Y-89609719D01*
X61979376Y-89609719D01*
X61979378Y-89609720D01*
X62079007Y-89625500D01*
X62079012Y-89625500D01*
X62645993Y-89625500D01*
X62745621Y-89609720D01*
X62745621Y-89609719D01*
X62745626Y-89609719D01*
X62865720Y-89548528D01*
X62961028Y-89453220D01*
X63022219Y-89333126D01*
X63026938Y-89303334D01*
X63038000Y-89233493D01*
X63038000Y-88716506D01*
X63022220Y-88616878D01*
X63022219Y-88616876D01*
X63022219Y-88616874D01*
X62961028Y-88496780D01*
X62961026Y-88496778D01*
X62961023Y-88496774D01*
X62865725Y-88401476D01*
X62865721Y-88401473D01*
X62865720Y-88401472D01*
X62745626Y-88340281D01*
X62745624Y-88340280D01*
X62745621Y-88340279D01*
X62645993Y-88324500D01*
X62645988Y-88324500D01*
X62538019Y-88324500D01*
X62505926Y-88320275D01*
X62502149Y-88319263D01*
X62428392Y-88299500D01*
X61128392Y-88299500D01*
X60996607Y-88299500D01*
X60869312Y-88333608D01*
X60755186Y-88399500D01*
X60755183Y-88399502D01*
X60591505Y-88563181D01*
X60530182Y-88596666D01*
X60503824Y-88599500D01*
X59391739Y-88599500D01*
X59323608Y-88609426D01*
X59218514Y-88660803D01*
X59135803Y-88743514D01*
X59084426Y-88848608D01*
X59074500Y-88916739D01*
X59074500Y-89283260D01*
X59084426Y-89351391D01*
X59135803Y-89456485D01*
X59166637Y-89487319D01*
X59200122Y-89548642D01*
X59195138Y-89618334D01*
X59166637Y-89662681D01*
X59135803Y-89693514D01*
X59084426Y-89798608D01*
X59074500Y-89866739D01*
X59074500Y-90233260D01*
X59084426Y-90301391D01*
X59126184Y-90386809D01*
X59137942Y-90455682D01*
X59110599Y-90519979D01*
X59103511Y-90527796D01*
X59022653Y-90637354D01*
X58983238Y-90750000D01*
X58515776Y-90750000D01*
X58515573Y-90748607D01*
X58464198Y-90643517D01*
X58464196Y-90643515D01*
X58464196Y-90643514D01*
X58433363Y-90612681D01*
X58399878Y-90551358D01*
X58404862Y-90481666D01*
X58433363Y-90437319D01*
X58464196Y-90406485D01*
X58464198Y-90406483D01*
X58515573Y-90301393D01*
X58525500Y-90233260D01*
X58525500Y-89866740D01*
X58515573Y-89798607D01*
X58464198Y-89693517D01*
X58464196Y-89693515D01*
X58464196Y-89693514D01*
X58433363Y-89662681D01*
X58399878Y-89601358D01*
X58404862Y-89531666D01*
X58433363Y-89487319D01*
X58464196Y-89456485D01*
X58464198Y-89456483D01*
X58515573Y-89351393D01*
X58525500Y-89283260D01*
X58525500Y-88916740D01*
X58515573Y-88848607D01*
X58464198Y-88743517D01*
X58464196Y-88743515D01*
X58464196Y-88743514D01*
X58381485Y-88660803D01*
X58276391Y-88609426D01*
X58208261Y-88599500D01*
X58208260Y-88599500D01*
X57728392Y-88599500D01*
X57058676Y-88599500D01*
X56991637Y-88579815D01*
X56970995Y-88563181D01*
X56907316Y-88499502D01*
X56907314Y-88499500D01*
X56825061Y-88452011D01*
X56793187Y-88433608D01*
X56729539Y-88416554D01*
X56665892Y-88399500D01*
X56665891Y-88399500D01*
X56438445Y-88399500D01*
X56371406Y-88379815D01*
X56356218Y-88368316D01*
X56324573Y-88340281D01*
X56300852Y-88319266D01*
X56300850Y-88319265D01*
X56300849Y-88319264D01*
X56150226Y-88240210D01*
X55985056Y-88199500D01*
X55814944Y-88199500D01*
X55649773Y-88240210D01*
X55499150Y-88319263D01*
X55371816Y-88432072D01*
X55275182Y-88572068D01*
X55214860Y-88731125D01*
X55214859Y-88731130D01*
X55194355Y-88900000D01*
X55214859Y-89068869D01*
X55214860Y-89068874D01*
X55275182Y-89227931D01*
X55362934Y-89355060D01*
X55384817Y-89421414D01*
X55367352Y-89489066D01*
X55316084Y-89536536D01*
X55260884Y-89549500D01*
X54852610Y-89549500D01*
X54785571Y-89529815D01*
X54764933Y-89513185D01*
X54703220Y-89451472D01*
X54583126Y-89390281D01*
X54583124Y-89390280D01*
X54583121Y-89390279D01*
X54483493Y-89374500D01*
X54483488Y-89374500D01*
X53916512Y-89374500D01*
X53916507Y-89374500D01*
X53816876Y-89390279D01*
X53727174Y-89435985D01*
X53670880Y-89449500D01*
X52849540Y-89449500D01*
X52782501Y-89429815D01*
X52775907Y-89425270D01*
X52737886Y-89397209D01*
X52737880Y-89397206D01*
X52609700Y-89352353D01*
X52579270Y-89349500D01*
X52579266Y-89349500D01*
X51520734Y-89349500D01*
X51520730Y-89349500D01*
X51490300Y-89352353D01*
X51490298Y-89352353D01*
X51362119Y-89397206D01*
X51362113Y-89397209D01*
X51324093Y-89425270D01*
X51258464Y-89449241D01*
X51250460Y-89449500D01*
X51136669Y-89449500D01*
X51136653Y-89449499D01*
X51129057Y-89449499D01*
X50970943Y-89449499D01*
X50856397Y-89480192D01*
X50818214Y-89490423D01*
X50787553Y-89508126D01*
X50787552Y-89508126D01*
X50681287Y-89569477D01*
X50681282Y-89569481D01*
X49619481Y-90631282D01*
X49619475Y-90631290D01*
X49578195Y-90702791D01*
X49578195Y-90702793D01*
X49540423Y-90768214D01*
X49540423Y-90768215D01*
X49499499Y-90920943D01*
X49499499Y-90920945D01*
X49499499Y-91089046D01*
X49499500Y-91089059D01*
X49499500Y-95699903D01*
X49479815Y-95766942D01*
X49463181Y-95787584D01*
X49212180Y-96038585D01*
X49150857Y-96072070D01*
X49081165Y-96067086D01*
X49025232Y-96025214D01*
X49000815Y-95959750D01*
X49000499Y-95950904D01*
X49000499Y-94836904D01*
X49000498Y-94836897D01*
X48984905Y-94738438D01*
X48924433Y-94619755D01*
X48924429Y-94619751D01*
X48924428Y-94619749D01*
X48830250Y-94525571D01*
X48830246Y-94525568D01*
X48830245Y-94525567D01*
X48711562Y-94465095D01*
X48711561Y-94465094D01*
X48711558Y-94465093D01*
X48613102Y-94449500D01*
X48613097Y-94449500D01*
X48424500Y-94449500D01*
X48357461Y-94429815D01*
X48311706Y-94377011D01*
X48300500Y-94325500D01*
X48300500Y-94000097D01*
X48320185Y-93933058D01*
X48336814Y-93912420D01*
X48458506Y-93790727D01*
X48458510Y-93790725D01*
X48468714Y-93780520D01*
X48468716Y-93780520D01*
X48580520Y-93668716D01*
X48659577Y-93531784D01*
X48700500Y-93379057D01*
X48700500Y-93102611D01*
X48720185Y-93035572D01*
X48736819Y-93014930D01*
X48823523Y-92928225D01*
X48823528Y-92928220D01*
X48884719Y-92808126D01*
X48887877Y-92788186D01*
X48900500Y-92708493D01*
X48900500Y-92191506D01*
X48884720Y-92091878D01*
X48884719Y-92091876D01*
X48884719Y-92091874D01*
X48823528Y-91971780D01*
X48823526Y-91971778D01*
X48823523Y-91971774D01*
X48728225Y-91876476D01*
X48728221Y-91876473D01*
X48728220Y-91876472D01*
X48608126Y-91815281D01*
X48608124Y-91815280D01*
X48608121Y-91815279D01*
X48508493Y-91799500D01*
X48508488Y-91799500D01*
X47691512Y-91799500D01*
X47691507Y-91799500D01*
X47591878Y-91815279D01*
X47591874Y-91815280D01*
X47591874Y-91815281D01*
X47529086Y-91847273D01*
X47471778Y-91876473D01*
X47471774Y-91876476D01*
X47376476Y-91971774D01*
X47376473Y-91971778D01*
X47315279Y-92091878D01*
X47299500Y-92191506D01*
X47299500Y-92708493D01*
X47315279Y-92808121D01*
X47315280Y-92808124D01*
X47315281Y-92808126D01*
X47376472Y-92928220D01*
X47376473Y-92928221D01*
X47376476Y-92928225D01*
X47411826Y-92963575D01*
X47445311Y-93024898D01*
X47440327Y-93094590D01*
X47411827Y-93138937D01*
X47331286Y-93219478D01*
X47219481Y-93331282D01*
X47219479Y-93331285D01*
X47169361Y-93418094D01*
X47169359Y-93418096D01*
X47140425Y-93468209D01*
X47140424Y-93468210D01*
X47124544Y-93527472D01*
X47099499Y-93620943D01*
X47099499Y-93620945D01*
X47099499Y-93789046D01*
X47099500Y-93789059D01*
X47099500Y-94325500D01*
X47079815Y-94392539D01*
X47027011Y-94438294D01*
X46975501Y-94449500D01*
X46786904Y-94449500D01*
X46688436Y-94465095D01*
X46608316Y-94505919D01*
X46569755Y-94525567D01*
X46569754Y-94525568D01*
X46569749Y-94525571D01*
X46475571Y-94619749D01*
X46475568Y-94619753D01*
X46415093Y-94738441D01*
X46399500Y-94836897D01*
X43000500Y-94836897D01*
X43000500Y-91414999D01*
X43875487Y-91414999D01*
X43875488Y-91415000D01*
X44566988Y-91415000D01*
X44534075Y-91472007D01*
X44500000Y-91599174D01*
X44500000Y-91730826D01*
X44534075Y-91857993D01*
X44566988Y-91915000D01*
X43875488Y-91915000D01*
X43923062Y-92082205D01*
X43923067Y-92082218D01*
X44018061Y-92272991D01*
X44146500Y-92443071D01*
X44304000Y-92586651D01*
X44304002Y-92586653D01*
X44485201Y-92698846D01*
X44485207Y-92698849D01*
X44683941Y-92775838D01*
X44750000Y-92788186D01*
X44750000Y-92098012D01*
X44807007Y-92130925D01*
X44934174Y-92165000D01*
X45065826Y-92165000D01*
X45192993Y-92130925D01*
X45250000Y-92098012D01*
X45250000Y-92788185D01*
X45316058Y-92775838D01*
X45514792Y-92698849D01*
X45514798Y-92698846D01*
X45695997Y-92586653D01*
X45695999Y-92586651D01*
X45853499Y-92443071D01*
X45981938Y-92272991D01*
X46076932Y-92082218D01*
X46076937Y-92082205D01*
X46124512Y-91915000D01*
X45433012Y-91915000D01*
X45465925Y-91857993D01*
X45500000Y-91730826D01*
X45500000Y-91599174D01*
X45465925Y-91472007D01*
X45433012Y-91415000D01*
X46124512Y-91415000D01*
X46124512Y-91414999D01*
X46076937Y-91247794D01*
X46076932Y-91247781D01*
X45981938Y-91057008D01*
X45853499Y-90886928D01*
X45695999Y-90743348D01*
X45695997Y-90743346D01*
X45514798Y-90631153D01*
X45514789Y-90631149D01*
X45316063Y-90554163D01*
X45316058Y-90554162D01*
X45250000Y-90541813D01*
X45250000Y-91231988D01*
X45192993Y-91199075D01*
X45065826Y-91165000D01*
X44934174Y-91165000D01*
X44807007Y-91199075D01*
X44750000Y-91231988D01*
X44750000Y-90541813D01*
X44683941Y-90554162D01*
X44683936Y-90554163D01*
X44485210Y-90631149D01*
X44485201Y-90631153D01*
X44304002Y-90743346D01*
X44304000Y-90743348D01*
X44146500Y-90886928D01*
X44018061Y-91057008D01*
X43923067Y-91247781D01*
X43923062Y-91247794D01*
X43875487Y-91414999D01*
X43000500Y-91414999D01*
X43000500Y-88255247D01*
X43949500Y-88255247D01*
X43949500Y-89994752D01*
X43961131Y-90053229D01*
X43961132Y-90053230D01*
X44005447Y-90119552D01*
X44071769Y-90163867D01*
X44071770Y-90163868D01*
X44130247Y-90175499D01*
X44130250Y-90175500D01*
X44130252Y-90175500D01*
X45869750Y-90175500D01*
X45869751Y-90175499D01*
X45884568Y-90172552D01*
X45928229Y-90163868D01*
X45928229Y-90163867D01*
X45928231Y-90163867D01*
X45994552Y-90119552D01*
X46038867Y-90053231D01*
X46038867Y-90053229D01*
X46038868Y-90053229D01*
X46050499Y-89994752D01*
X46050500Y-89994750D01*
X46050500Y-89849500D01*
X46070185Y-89782461D01*
X46122989Y-89736706D01*
X46174500Y-89725500D01*
X47445880Y-89725500D01*
X47502174Y-89739015D01*
X47591876Y-89784720D01*
X47691507Y-89800500D01*
X47691512Y-89800500D01*
X48508493Y-89800500D01*
X48608121Y-89784720D01*
X48608121Y-89784719D01*
X48608126Y-89784719D01*
X48728220Y-89723528D01*
X48823528Y-89628220D01*
X48884719Y-89508126D01*
X48885927Y-89500499D01*
X48900500Y-89408493D01*
X48900500Y-88891506D01*
X48884720Y-88791878D01*
X48884719Y-88791876D01*
X48884719Y-88791874D01*
X48823528Y-88671780D01*
X48823526Y-88671778D01*
X48823523Y-88671774D01*
X48728225Y-88576476D01*
X48728221Y-88576473D01*
X48728220Y-88576472D01*
X48608126Y-88515281D01*
X48608124Y-88515280D01*
X48608121Y-88515279D01*
X48508493Y-88499500D01*
X48508488Y-88499500D01*
X47691512Y-88499500D01*
X47691507Y-88499500D01*
X47591876Y-88515279D01*
X47582595Y-88518296D01*
X47581673Y-88515458D01*
X47544011Y-88524500D01*
X46174500Y-88524500D01*
X46107461Y-88504815D01*
X46061706Y-88452011D01*
X46050500Y-88400500D01*
X46050500Y-88255249D01*
X46050499Y-88255247D01*
X46038868Y-88196770D01*
X46038867Y-88196769D01*
X45994552Y-88130447D01*
X45928230Y-88086132D01*
X45928229Y-88086131D01*
X45869752Y-88074500D01*
X45869748Y-88074500D01*
X44130252Y-88074500D01*
X44130247Y-88074500D01*
X44071770Y-88086131D01*
X44071769Y-88086132D01*
X44005447Y-88130447D01*
X43961132Y-88196769D01*
X43961131Y-88196770D01*
X43949500Y-88255247D01*
X43000500Y-88255247D01*
X43000500Y-87824500D01*
X43020185Y-87757461D01*
X43072989Y-87711706D01*
X43124500Y-87700500D01*
X66875500Y-87700500D01*
X66942539Y-87720185D01*
G37*
%TD.AperFunction*%
%TD*%
M02*
