%TF.GenerationSoftware,KiCad,Pcbnew,8.0.9-8.0.9-0~ubuntu24.04.1*%
%TF.CreationDate,2025-04-13T18:37:50+02:00*%
%TF.ProjectId,FastLapLights5V,46617374-4c61-4704-9c69-676874733556,MK4*%
%TF.SameCoordinates,Original*%
%TF.FileFunction,Legend,Top*%
%TF.FilePolarity,Positive*%
%FSLAX46Y46*%
G04 Gerber Fmt 4.6, Leading zero omitted, Abs format (unit mm)*
G04 Created by KiCad (PCBNEW 8.0.9-8.0.9-0~ubuntu24.04.1) date 2025-04-13 18:37:50*
%MOMM*%
%LPD*%
G01*
G04 APERTURE LIST*
%ADD10C,0.150000*%
%ADD11C,0.254000*%
%ADD12C,0.120000*%
%ADD13C,0.200000*%
%ADD14C,0.100000*%
G04 APERTURE END LIST*
D10*
X43366666Y-113554819D02*
X43366666Y-114269104D01*
X43366666Y-114269104D02*
X43319047Y-114411961D01*
X43319047Y-114411961D02*
X43223809Y-114507200D01*
X43223809Y-114507200D02*
X43080952Y-114554819D01*
X43080952Y-114554819D02*
X42985714Y-114554819D01*
X44271428Y-113888152D02*
X44271428Y-114554819D01*
X44033333Y-113507200D02*
X43795238Y-114221485D01*
X43795238Y-114221485D02*
X44414285Y-114221485D01*
X56359580Y-110166666D02*
X56407200Y-110214285D01*
X56407200Y-110214285D02*
X56454819Y-110357142D01*
X56454819Y-110357142D02*
X56454819Y-110452380D01*
X56454819Y-110452380D02*
X56407200Y-110595237D01*
X56407200Y-110595237D02*
X56311961Y-110690475D01*
X56311961Y-110690475D02*
X56216723Y-110738094D01*
X56216723Y-110738094D02*
X56026247Y-110785713D01*
X56026247Y-110785713D02*
X55883390Y-110785713D01*
X55883390Y-110785713D02*
X55692914Y-110738094D01*
X55692914Y-110738094D02*
X55597676Y-110690475D01*
X55597676Y-110690475D02*
X55502438Y-110595237D01*
X55502438Y-110595237D02*
X55454819Y-110452380D01*
X55454819Y-110452380D02*
X55454819Y-110357142D01*
X55454819Y-110357142D02*
X55502438Y-110214285D01*
X55502438Y-110214285D02*
X55550057Y-110166666D01*
X55883390Y-109595237D02*
X55835771Y-109690475D01*
X55835771Y-109690475D02*
X55788152Y-109738094D01*
X55788152Y-109738094D02*
X55692914Y-109785713D01*
X55692914Y-109785713D02*
X55645295Y-109785713D01*
X55645295Y-109785713D02*
X55550057Y-109738094D01*
X55550057Y-109738094D02*
X55502438Y-109690475D01*
X55502438Y-109690475D02*
X55454819Y-109595237D01*
X55454819Y-109595237D02*
X55454819Y-109404761D01*
X55454819Y-109404761D02*
X55502438Y-109309523D01*
X55502438Y-109309523D02*
X55550057Y-109261904D01*
X55550057Y-109261904D02*
X55645295Y-109214285D01*
X55645295Y-109214285D02*
X55692914Y-109214285D01*
X55692914Y-109214285D02*
X55788152Y-109261904D01*
X55788152Y-109261904D02*
X55835771Y-109309523D01*
X55835771Y-109309523D02*
X55883390Y-109404761D01*
X55883390Y-109404761D02*
X55883390Y-109595237D01*
X55883390Y-109595237D02*
X55931009Y-109690475D01*
X55931009Y-109690475D02*
X55978628Y-109738094D01*
X55978628Y-109738094D02*
X56073866Y-109785713D01*
X56073866Y-109785713D02*
X56264342Y-109785713D01*
X56264342Y-109785713D02*
X56359580Y-109738094D01*
X56359580Y-109738094D02*
X56407200Y-109690475D01*
X56407200Y-109690475D02*
X56454819Y-109595237D01*
X56454819Y-109595237D02*
X56454819Y-109404761D01*
X56454819Y-109404761D02*
X56407200Y-109309523D01*
X56407200Y-109309523D02*
X56359580Y-109261904D01*
X56359580Y-109261904D02*
X56264342Y-109214285D01*
X56264342Y-109214285D02*
X56073866Y-109214285D01*
X56073866Y-109214285D02*
X55978628Y-109261904D01*
X55978628Y-109261904D02*
X55931009Y-109309523D01*
X55931009Y-109309523D02*
X55883390Y-109404761D01*
X43966666Y-93754819D02*
X43966666Y-94469104D01*
X43966666Y-94469104D02*
X43919047Y-94611961D01*
X43919047Y-94611961D02*
X43823809Y-94707200D01*
X43823809Y-94707200D02*
X43680952Y-94754819D01*
X43680952Y-94754819D02*
X43585714Y-94754819D01*
X44966666Y-94754819D02*
X44395238Y-94754819D01*
X44680952Y-94754819D02*
X44680952Y-93754819D01*
X44680952Y-93754819D02*
X44585714Y-93897676D01*
X44585714Y-93897676D02*
X44490476Y-93992914D01*
X44490476Y-93992914D02*
X44395238Y-94040533D01*
X56833333Y-101209580D02*
X56785714Y-101257200D01*
X56785714Y-101257200D02*
X56642857Y-101304819D01*
X56642857Y-101304819D02*
X56547619Y-101304819D01*
X56547619Y-101304819D02*
X56404762Y-101257200D01*
X56404762Y-101257200D02*
X56309524Y-101161961D01*
X56309524Y-101161961D02*
X56261905Y-101066723D01*
X56261905Y-101066723D02*
X56214286Y-100876247D01*
X56214286Y-100876247D02*
X56214286Y-100733390D01*
X56214286Y-100733390D02*
X56261905Y-100542914D01*
X56261905Y-100542914D02*
X56309524Y-100447676D01*
X56309524Y-100447676D02*
X56404762Y-100352438D01*
X56404762Y-100352438D02*
X56547619Y-100304819D01*
X56547619Y-100304819D02*
X56642857Y-100304819D01*
X56642857Y-100304819D02*
X56785714Y-100352438D01*
X56785714Y-100352438D02*
X56833333Y-100400057D01*
X57690476Y-100638152D02*
X57690476Y-101304819D01*
X57452381Y-100257200D02*
X57214286Y-100971485D01*
X57214286Y-100971485D02*
X57833333Y-100971485D01*
X50938095Y-107354819D02*
X50938095Y-108164342D01*
X50938095Y-108164342D02*
X50985714Y-108259580D01*
X50985714Y-108259580D02*
X51033333Y-108307200D01*
X51033333Y-108307200D02*
X51128571Y-108354819D01*
X51128571Y-108354819D02*
X51319047Y-108354819D01*
X51319047Y-108354819D02*
X51414285Y-108307200D01*
X51414285Y-108307200D02*
X51461904Y-108259580D01*
X51461904Y-108259580D02*
X51509523Y-108164342D01*
X51509523Y-108164342D02*
X51509523Y-107354819D01*
X51890476Y-107354819D02*
X52509523Y-107354819D01*
X52509523Y-107354819D02*
X52176190Y-107735771D01*
X52176190Y-107735771D02*
X52319047Y-107735771D01*
X52319047Y-107735771D02*
X52414285Y-107783390D01*
X52414285Y-107783390D02*
X52461904Y-107831009D01*
X52461904Y-107831009D02*
X52509523Y-107926247D01*
X52509523Y-107926247D02*
X52509523Y-108164342D01*
X52509523Y-108164342D02*
X52461904Y-108259580D01*
X52461904Y-108259580D02*
X52414285Y-108307200D01*
X52414285Y-108307200D02*
X52319047Y-108354819D01*
X52319047Y-108354819D02*
X52033333Y-108354819D01*
X52033333Y-108354819D02*
X51938095Y-108307200D01*
X51938095Y-108307200D02*
X51890476Y-108259580D01*
X59333333Y-117659580D02*
X59285714Y-117707200D01*
X59285714Y-117707200D02*
X59142857Y-117754819D01*
X59142857Y-117754819D02*
X59047619Y-117754819D01*
X59047619Y-117754819D02*
X58904762Y-117707200D01*
X58904762Y-117707200D02*
X58809524Y-117611961D01*
X58809524Y-117611961D02*
X58761905Y-117516723D01*
X58761905Y-117516723D02*
X58714286Y-117326247D01*
X58714286Y-117326247D02*
X58714286Y-117183390D01*
X58714286Y-117183390D02*
X58761905Y-116992914D01*
X58761905Y-116992914D02*
X58809524Y-116897676D01*
X58809524Y-116897676D02*
X58904762Y-116802438D01*
X58904762Y-116802438D02*
X59047619Y-116754819D01*
X59047619Y-116754819D02*
X59142857Y-116754819D01*
X59142857Y-116754819D02*
X59285714Y-116802438D01*
X59285714Y-116802438D02*
X59333333Y-116850057D01*
X59714286Y-116850057D02*
X59761905Y-116802438D01*
X59761905Y-116802438D02*
X59857143Y-116754819D01*
X59857143Y-116754819D02*
X60095238Y-116754819D01*
X60095238Y-116754819D02*
X60190476Y-116802438D01*
X60190476Y-116802438D02*
X60238095Y-116850057D01*
X60238095Y-116850057D02*
X60285714Y-116945295D01*
X60285714Y-116945295D02*
X60285714Y-117040533D01*
X60285714Y-117040533D02*
X60238095Y-117183390D01*
X60238095Y-117183390D02*
X59666667Y-117754819D01*
X59666667Y-117754819D02*
X60285714Y-117754819D01*
X63778095Y-103734819D02*
X63778095Y-104544342D01*
X63778095Y-104544342D02*
X63825714Y-104639580D01*
X63825714Y-104639580D02*
X63873333Y-104687200D01*
X63873333Y-104687200D02*
X63968571Y-104734819D01*
X63968571Y-104734819D02*
X64159047Y-104734819D01*
X64159047Y-104734819D02*
X64254285Y-104687200D01*
X64254285Y-104687200D02*
X64301904Y-104639580D01*
X64301904Y-104639580D02*
X64349523Y-104544342D01*
X64349523Y-104544342D02*
X64349523Y-103734819D01*
X65254285Y-104068152D02*
X65254285Y-104734819D01*
X65016190Y-103687200D02*
X64778095Y-104401485D01*
X64778095Y-104401485D02*
X65397142Y-104401485D01*
X59039580Y-107992857D02*
X59087200Y-108040476D01*
X59087200Y-108040476D02*
X59134819Y-108183333D01*
X59134819Y-108183333D02*
X59134819Y-108278571D01*
X59134819Y-108278571D02*
X59087200Y-108421428D01*
X59087200Y-108421428D02*
X58991961Y-108516666D01*
X58991961Y-108516666D02*
X58896723Y-108564285D01*
X58896723Y-108564285D02*
X58706247Y-108611904D01*
X58706247Y-108611904D02*
X58563390Y-108611904D01*
X58563390Y-108611904D02*
X58372914Y-108564285D01*
X58372914Y-108564285D02*
X58277676Y-108516666D01*
X58277676Y-108516666D02*
X58182438Y-108421428D01*
X58182438Y-108421428D02*
X58134819Y-108278571D01*
X58134819Y-108278571D02*
X58134819Y-108183333D01*
X58134819Y-108183333D02*
X58182438Y-108040476D01*
X58182438Y-108040476D02*
X58230057Y-107992857D01*
X59134819Y-107040476D02*
X59134819Y-107611904D01*
X59134819Y-107326190D02*
X58134819Y-107326190D01*
X58134819Y-107326190D02*
X58277676Y-107421428D01*
X58277676Y-107421428D02*
X58372914Y-107516666D01*
X58372914Y-107516666D02*
X58420533Y-107611904D01*
X58230057Y-106659523D02*
X58182438Y-106611904D01*
X58182438Y-106611904D02*
X58134819Y-106516666D01*
X58134819Y-106516666D02*
X58134819Y-106278571D01*
X58134819Y-106278571D02*
X58182438Y-106183333D01*
X58182438Y-106183333D02*
X58230057Y-106135714D01*
X58230057Y-106135714D02*
X58325295Y-106088095D01*
X58325295Y-106088095D02*
X58420533Y-106088095D01*
X58420533Y-106088095D02*
X58563390Y-106135714D01*
X58563390Y-106135714D02*
X59134819Y-106707142D01*
X59134819Y-106707142D02*
X59134819Y-106088095D01*
X47958333Y-110959580D02*
X47910714Y-111007200D01*
X47910714Y-111007200D02*
X47767857Y-111054819D01*
X47767857Y-111054819D02*
X47672619Y-111054819D01*
X47672619Y-111054819D02*
X47529762Y-111007200D01*
X47529762Y-111007200D02*
X47434524Y-110911961D01*
X47434524Y-110911961D02*
X47386905Y-110816723D01*
X47386905Y-110816723D02*
X47339286Y-110626247D01*
X47339286Y-110626247D02*
X47339286Y-110483390D01*
X47339286Y-110483390D02*
X47386905Y-110292914D01*
X47386905Y-110292914D02*
X47434524Y-110197676D01*
X47434524Y-110197676D02*
X47529762Y-110102438D01*
X47529762Y-110102438D02*
X47672619Y-110054819D01*
X47672619Y-110054819D02*
X47767857Y-110054819D01*
X47767857Y-110054819D02*
X47910714Y-110102438D01*
X47910714Y-110102438D02*
X47958333Y-110150057D01*
X48291667Y-110054819D02*
X48958333Y-110054819D01*
X48958333Y-110054819D02*
X48529762Y-111054819D01*
X50359580Y-119842857D02*
X50407200Y-119890476D01*
X50407200Y-119890476D02*
X50454819Y-120033333D01*
X50454819Y-120033333D02*
X50454819Y-120128571D01*
X50454819Y-120128571D02*
X50407200Y-120271428D01*
X50407200Y-120271428D02*
X50311961Y-120366666D01*
X50311961Y-120366666D02*
X50216723Y-120414285D01*
X50216723Y-120414285D02*
X50026247Y-120461904D01*
X50026247Y-120461904D02*
X49883390Y-120461904D01*
X49883390Y-120461904D02*
X49692914Y-120414285D01*
X49692914Y-120414285D02*
X49597676Y-120366666D01*
X49597676Y-120366666D02*
X49502438Y-120271428D01*
X49502438Y-120271428D02*
X49454819Y-120128571D01*
X49454819Y-120128571D02*
X49454819Y-120033333D01*
X49454819Y-120033333D02*
X49502438Y-119890476D01*
X49502438Y-119890476D02*
X49550057Y-119842857D01*
X50454819Y-118890476D02*
X50454819Y-119461904D01*
X50454819Y-119176190D02*
X49454819Y-119176190D01*
X49454819Y-119176190D02*
X49597676Y-119271428D01*
X49597676Y-119271428D02*
X49692914Y-119366666D01*
X49692914Y-119366666D02*
X49740533Y-119461904D01*
X49788152Y-118033333D02*
X50454819Y-118033333D01*
X49407200Y-118271428D02*
X50121485Y-118509523D01*
X50121485Y-118509523D02*
X50121485Y-117890476D01*
X50654819Y-92624404D02*
X51464342Y-92624404D01*
X51464342Y-92624404D02*
X51559580Y-92576785D01*
X51559580Y-92576785D02*
X51607200Y-92529166D01*
X51607200Y-92529166D02*
X51654819Y-92433928D01*
X51654819Y-92433928D02*
X51654819Y-92243452D01*
X51654819Y-92243452D02*
X51607200Y-92148214D01*
X51607200Y-92148214D02*
X51559580Y-92100595D01*
X51559580Y-92100595D02*
X51464342Y-92052976D01*
X51464342Y-92052976D02*
X50654819Y-92052976D01*
X50750057Y-91624404D02*
X50702438Y-91576785D01*
X50702438Y-91576785D02*
X50654819Y-91481547D01*
X50654819Y-91481547D02*
X50654819Y-91243452D01*
X50654819Y-91243452D02*
X50702438Y-91148214D01*
X50702438Y-91148214D02*
X50750057Y-91100595D01*
X50750057Y-91100595D02*
X50845295Y-91052976D01*
X50845295Y-91052976D02*
X50940533Y-91052976D01*
X50940533Y-91052976D02*
X51083390Y-91100595D01*
X51083390Y-91100595D02*
X51654819Y-91672023D01*
X51654819Y-91672023D02*
X51654819Y-91052976D01*
X43954819Y-109266666D02*
X43478628Y-109599999D01*
X43954819Y-109838094D02*
X42954819Y-109838094D01*
X42954819Y-109838094D02*
X42954819Y-109457142D01*
X42954819Y-109457142D02*
X43002438Y-109361904D01*
X43002438Y-109361904D02*
X43050057Y-109314285D01*
X43050057Y-109314285D02*
X43145295Y-109266666D01*
X43145295Y-109266666D02*
X43288152Y-109266666D01*
X43288152Y-109266666D02*
X43383390Y-109314285D01*
X43383390Y-109314285D02*
X43431009Y-109361904D01*
X43431009Y-109361904D02*
X43478628Y-109457142D01*
X43478628Y-109457142D02*
X43478628Y-109838094D01*
X42954819Y-108933332D02*
X42954819Y-108314285D01*
X42954819Y-108314285D02*
X43335771Y-108647618D01*
X43335771Y-108647618D02*
X43335771Y-108504761D01*
X43335771Y-108504761D02*
X43383390Y-108409523D01*
X43383390Y-108409523D02*
X43431009Y-108361904D01*
X43431009Y-108361904D02*
X43526247Y-108314285D01*
X43526247Y-108314285D02*
X43764342Y-108314285D01*
X43764342Y-108314285D02*
X43859580Y-108361904D01*
X43859580Y-108361904D02*
X43907200Y-108409523D01*
X43907200Y-108409523D02*
X43954819Y-108504761D01*
X43954819Y-108504761D02*
X43954819Y-108790475D01*
X43954819Y-108790475D02*
X43907200Y-108885713D01*
X43907200Y-108885713D02*
X43859580Y-108933332D01*
D11*
X48460237Y-114374318D02*
X48460237Y-113104318D01*
X49790714Y-114253365D02*
X49730238Y-114313842D01*
X49730238Y-114313842D02*
X49548809Y-114374318D01*
X49548809Y-114374318D02*
X49427857Y-114374318D01*
X49427857Y-114374318D02*
X49246428Y-114313842D01*
X49246428Y-114313842D02*
X49125476Y-114192889D01*
X49125476Y-114192889D02*
X49064999Y-114071937D01*
X49064999Y-114071937D02*
X49004523Y-113830032D01*
X49004523Y-113830032D02*
X49004523Y-113648603D01*
X49004523Y-113648603D02*
X49064999Y-113406699D01*
X49064999Y-113406699D02*
X49125476Y-113285746D01*
X49125476Y-113285746D02*
X49246428Y-113164794D01*
X49246428Y-113164794D02*
X49427857Y-113104318D01*
X49427857Y-113104318D02*
X49548809Y-113104318D01*
X49548809Y-113104318D02*
X49730238Y-113164794D01*
X49730238Y-113164794D02*
X49790714Y-113225270D01*
X51000238Y-114374318D02*
X50274523Y-114374318D01*
X50637380Y-114374318D02*
X50637380Y-113104318D01*
X50637380Y-113104318D02*
X50516428Y-113285746D01*
X50516428Y-113285746D02*
X50395476Y-113406699D01*
X50395476Y-113406699D02*
X50274523Y-113467175D01*
D10*
X50809580Y-100566666D02*
X50857200Y-100614285D01*
X50857200Y-100614285D02*
X50904819Y-100757142D01*
X50904819Y-100757142D02*
X50904819Y-100852380D01*
X50904819Y-100852380D02*
X50857200Y-100995237D01*
X50857200Y-100995237D02*
X50761961Y-101090475D01*
X50761961Y-101090475D02*
X50666723Y-101138094D01*
X50666723Y-101138094D02*
X50476247Y-101185713D01*
X50476247Y-101185713D02*
X50333390Y-101185713D01*
X50333390Y-101185713D02*
X50142914Y-101138094D01*
X50142914Y-101138094D02*
X50047676Y-101090475D01*
X50047676Y-101090475D02*
X49952438Y-100995237D01*
X49952438Y-100995237D02*
X49904819Y-100852380D01*
X49904819Y-100852380D02*
X49904819Y-100757142D01*
X49904819Y-100757142D02*
X49952438Y-100614285D01*
X49952438Y-100614285D02*
X50000057Y-100566666D01*
X49904819Y-100233332D02*
X49904819Y-99614285D01*
X49904819Y-99614285D02*
X50285771Y-99947618D01*
X50285771Y-99947618D02*
X50285771Y-99804761D01*
X50285771Y-99804761D02*
X50333390Y-99709523D01*
X50333390Y-99709523D02*
X50381009Y-99661904D01*
X50381009Y-99661904D02*
X50476247Y-99614285D01*
X50476247Y-99614285D02*
X50714342Y-99614285D01*
X50714342Y-99614285D02*
X50809580Y-99661904D01*
X50809580Y-99661904D02*
X50857200Y-99709523D01*
X50857200Y-99709523D02*
X50904819Y-99804761D01*
X50904819Y-99804761D02*
X50904819Y-100090475D01*
X50904819Y-100090475D02*
X50857200Y-100185713D01*
X50857200Y-100185713D02*
X50809580Y-100233332D01*
X53282142Y-103509580D02*
X53234523Y-103557200D01*
X53234523Y-103557200D02*
X53091666Y-103604819D01*
X53091666Y-103604819D02*
X52996428Y-103604819D01*
X52996428Y-103604819D02*
X52853571Y-103557200D01*
X52853571Y-103557200D02*
X52758333Y-103461961D01*
X52758333Y-103461961D02*
X52710714Y-103366723D01*
X52710714Y-103366723D02*
X52663095Y-103176247D01*
X52663095Y-103176247D02*
X52663095Y-103033390D01*
X52663095Y-103033390D02*
X52710714Y-102842914D01*
X52710714Y-102842914D02*
X52758333Y-102747676D01*
X52758333Y-102747676D02*
X52853571Y-102652438D01*
X52853571Y-102652438D02*
X52996428Y-102604819D01*
X52996428Y-102604819D02*
X53091666Y-102604819D01*
X53091666Y-102604819D02*
X53234523Y-102652438D01*
X53234523Y-102652438D02*
X53282142Y-102700057D01*
X54234523Y-103604819D02*
X53663095Y-103604819D01*
X53948809Y-103604819D02*
X53948809Y-102604819D01*
X53948809Y-102604819D02*
X53853571Y-102747676D01*
X53853571Y-102747676D02*
X53758333Y-102842914D01*
X53758333Y-102842914D02*
X53663095Y-102890533D01*
X54853571Y-102604819D02*
X54948809Y-102604819D01*
X54948809Y-102604819D02*
X55044047Y-102652438D01*
X55044047Y-102652438D02*
X55091666Y-102700057D01*
X55091666Y-102700057D02*
X55139285Y-102795295D01*
X55139285Y-102795295D02*
X55186904Y-102985771D01*
X55186904Y-102985771D02*
X55186904Y-103223866D01*
X55186904Y-103223866D02*
X55139285Y-103414342D01*
X55139285Y-103414342D02*
X55091666Y-103509580D01*
X55091666Y-103509580D02*
X55044047Y-103557200D01*
X55044047Y-103557200D02*
X54948809Y-103604819D01*
X54948809Y-103604819D02*
X54853571Y-103604819D01*
X54853571Y-103604819D02*
X54758333Y-103557200D01*
X54758333Y-103557200D02*
X54710714Y-103509580D01*
X54710714Y-103509580D02*
X54663095Y-103414342D01*
X54663095Y-103414342D02*
X54615476Y-103223866D01*
X54615476Y-103223866D02*
X54615476Y-102985771D01*
X54615476Y-102985771D02*
X54663095Y-102795295D01*
X54663095Y-102795295D02*
X54710714Y-102700057D01*
X54710714Y-102700057D02*
X54758333Y-102652438D01*
X54758333Y-102652438D02*
X54853571Y-102604819D01*
X50957142Y-106659580D02*
X50909523Y-106707200D01*
X50909523Y-106707200D02*
X50766666Y-106754819D01*
X50766666Y-106754819D02*
X50671428Y-106754819D01*
X50671428Y-106754819D02*
X50528571Y-106707200D01*
X50528571Y-106707200D02*
X50433333Y-106611961D01*
X50433333Y-106611961D02*
X50385714Y-106516723D01*
X50385714Y-106516723D02*
X50338095Y-106326247D01*
X50338095Y-106326247D02*
X50338095Y-106183390D01*
X50338095Y-106183390D02*
X50385714Y-105992914D01*
X50385714Y-105992914D02*
X50433333Y-105897676D01*
X50433333Y-105897676D02*
X50528571Y-105802438D01*
X50528571Y-105802438D02*
X50671428Y-105754819D01*
X50671428Y-105754819D02*
X50766666Y-105754819D01*
X50766666Y-105754819D02*
X50909523Y-105802438D01*
X50909523Y-105802438D02*
X50957142Y-105850057D01*
X51909523Y-106754819D02*
X51338095Y-106754819D01*
X51623809Y-106754819D02*
X51623809Y-105754819D01*
X51623809Y-105754819D02*
X51528571Y-105897676D01*
X51528571Y-105897676D02*
X51433333Y-105992914D01*
X51433333Y-105992914D02*
X51338095Y-106040533D01*
X52861904Y-106754819D02*
X52290476Y-106754819D01*
X52576190Y-106754819D02*
X52576190Y-105754819D01*
X52576190Y-105754819D02*
X52480952Y-105897676D01*
X52480952Y-105897676D02*
X52385714Y-105992914D01*
X52385714Y-105992914D02*
X52290476Y-106040533D01*
X56159580Y-94166666D02*
X56207200Y-94214285D01*
X56207200Y-94214285D02*
X56254819Y-94357142D01*
X56254819Y-94357142D02*
X56254819Y-94452380D01*
X56254819Y-94452380D02*
X56207200Y-94595237D01*
X56207200Y-94595237D02*
X56111961Y-94690475D01*
X56111961Y-94690475D02*
X56016723Y-94738094D01*
X56016723Y-94738094D02*
X55826247Y-94785713D01*
X55826247Y-94785713D02*
X55683390Y-94785713D01*
X55683390Y-94785713D02*
X55492914Y-94738094D01*
X55492914Y-94738094D02*
X55397676Y-94690475D01*
X55397676Y-94690475D02*
X55302438Y-94595237D01*
X55302438Y-94595237D02*
X55254819Y-94452380D01*
X55254819Y-94452380D02*
X55254819Y-94357142D01*
X55254819Y-94357142D02*
X55302438Y-94214285D01*
X55302438Y-94214285D02*
X55350057Y-94166666D01*
X56254819Y-93690475D02*
X56254819Y-93499999D01*
X56254819Y-93499999D02*
X56207200Y-93404761D01*
X56207200Y-93404761D02*
X56159580Y-93357142D01*
X56159580Y-93357142D02*
X56016723Y-93261904D01*
X56016723Y-93261904D02*
X55826247Y-93214285D01*
X55826247Y-93214285D02*
X55445295Y-93214285D01*
X55445295Y-93214285D02*
X55350057Y-93261904D01*
X55350057Y-93261904D02*
X55302438Y-93309523D01*
X55302438Y-93309523D02*
X55254819Y-93404761D01*
X55254819Y-93404761D02*
X55254819Y-93595237D01*
X55254819Y-93595237D02*
X55302438Y-93690475D01*
X55302438Y-93690475D02*
X55350057Y-93738094D01*
X55350057Y-93738094D02*
X55445295Y-93785713D01*
X55445295Y-93785713D02*
X55683390Y-93785713D01*
X55683390Y-93785713D02*
X55778628Y-93738094D01*
X55778628Y-93738094D02*
X55826247Y-93690475D01*
X55826247Y-93690475D02*
X55873866Y-93595237D01*
X55873866Y-93595237D02*
X55873866Y-93404761D01*
X55873866Y-93404761D02*
X55826247Y-93309523D01*
X55826247Y-93309523D02*
X55778628Y-93261904D01*
X55778628Y-93261904D02*
X55683390Y-93214285D01*
X56733333Y-96809580D02*
X56685714Y-96857200D01*
X56685714Y-96857200D02*
X56542857Y-96904819D01*
X56542857Y-96904819D02*
X56447619Y-96904819D01*
X56447619Y-96904819D02*
X56304762Y-96857200D01*
X56304762Y-96857200D02*
X56209524Y-96761961D01*
X56209524Y-96761961D02*
X56161905Y-96666723D01*
X56161905Y-96666723D02*
X56114286Y-96476247D01*
X56114286Y-96476247D02*
X56114286Y-96333390D01*
X56114286Y-96333390D02*
X56161905Y-96142914D01*
X56161905Y-96142914D02*
X56209524Y-96047676D01*
X56209524Y-96047676D02*
X56304762Y-95952438D01*
X56304762Y-95952438D02*
X56447619Y-95904819D01*
X56447619Y-95904819D02*
X56542857Y-95904819D01*
X56542857Y-95904819D02*
X56685714Y-95952438D01*
X56685714Y-95952438D02*
X56733333Y-96000057D01*
X57590476Y-95904819D02*
X57400000Y-95904819D01*
X57400000Y-95904819D02*
X57304762Y-95952438D01*
X57304762Y-95952438D02*
X57257143Y-96000057D01*
X57257143Y-96000057D02*
X57161905Y-96142914D01*
X57161905Y-96142914D02*
X57114286Y-96333390D01*
X57114286Y-96333390D02*
X57114286Y-96714342D01*
X57114286Y-96714342D02*
X57161905Y-96809580D01*
X57161905Y-96809580D02*
X57209524Y-96857200D01*
X57209524Y-96857200D02*
X57304762Y-96904819D01*
X57304762Y-96904819D02*
X57495238Y-96904819D01*
X57495238Y-96904819D02*
X57590476Y-96857200D01*
X57590476Y-96857200D02*
X57638095Y-96809580D01*
X57638095Y-96809580D02*
X57685714Y-96714342D01*
X57685714Y-96714342D02*
X57685714Y-96476247D01*
X57685714Y-96476247D02*
X57638095Y-96381009D01*
X57638095Y-96381009D02*
X57590476Y-96333390D01*
X57590476Y-96333390D02*
X57495238Y-96285771D01*
X57495238Y-96285771D02*
X57304762Y-96285771D01*
X57304762Y-96285771D02*
X57209524Y-96333390D01*
X57209524Y-96333390D02*
X57161905Y-96381009D01*
X57161905Y-96381009D02*
X57114286Y-96476247D01*
X56083333Y-88609580D02*
X56035714Y-88657200D01*
X56035714Y-88657200D02*
X55892857Y-88704819D01*
X55892857Y-88704819D02*
X55797619Y-88704819D01*
X55797619Y-88704819D02*
X55654762Y-88657200D01*
X55654762Y-88657200D02*
X55559524Y-88561961D01*
X55559524Y-88561961D02*
X55511905Y-88466723D01*
X55511905Y-88466723D02*
X55464286Y-88276247D01*
X55464286Y-88276247D02*
X55464286Y-88133390D01*
X55464286Y-88133390D02*
X55511905Y-87942914D01*
X55511905Y-87942914D02*
X55559524Y-87847676D01*
X55559524Y-87847676D02*
X55654762Y-87752438D01*
X55654762Y-87752438D02*
X55797619Y-87704819D01*
X55797619Y-87704819D02*
X55892857Y-87704819D01*
X55892857Y-87704819D02*
X56035714Y-87752438D01*
X56035714Y-87752438D02*
X56083333Y-87800057D01*
X56988095Y-87704819D02*
X56511905Y-87704819D01*
X56511905Y-87704819D02*
X56464286Y-88181009D01*
X56464286Y-88181009D02*
X56511905Y-88133390D01*
X56511905Y-88133390D02*
X56607143Y-88085771D01*
X56607143Y-88085771D02*
X56845238Y-88085771D01*
X56845238Y-88085771D02*
X56940476Y-88133390D01*
X56940476Y-88133390D02*
X56988095Y-88181009D01*
X56988095Y-88181009D02*
X57035714Y-88276247D01*
X57035714Y-88276247D02*
X57035714Y-88514342D01*
X57035714Y-88514342D02*
X56988095Y-88609580D01*
X56988095Y-88609580D02*
X56940476Y-88657200D01*
X56940476Y-88657200D02*
X56845238Y-88704819D01*
X56845238Y-88704819D02*
X56607143Y-88704819D01*
X56607143Y-88704819D02*
X56511905Y-88657200D01*
X56511905Y-88657200D02*
X56464286Y-88609580D01*
X47861905Y-94354819D02*
X47861905Y-93354819D01*
X47861905Y-93354819D02*
X48100000Y-93354819D01*
X48100000Y-93354819D02*
X48242857Y-93402438D01*
X48242857Y-93402438D02*
X48338095Y-93497676D01*
X48338095Y-93497676D02*
X48385714Y-93592914D01*
X48385714Y-93592914D02*
X48433333Y-93783390D01*
X48433333Y-93783390D02*
X48433333Y-93926247D01*
X48433333Y-93926247D02*
X48385714Y-94116723D01*
X48385714Y-94116723D02*
X48338095Y-94211961D01*
X48338095Y-94211961D02*
X48242857Y-94307200D01*
X48242857Y-94307200D02*
X48100000Y-94354819D01*
X48100000Y-94354819D02*
X47861905Y-94354819D01*
X49385714Y-94354819D02*
X48814286Y-94354819D01*
X49100000Y-94354819D02*
X49100000Y-93354819D01*
X49100000Y-93354819D02*
X49004762Y-93497676D01*
X49004762Y-93497676D02*
X48909524Y-93592914D01*
X48909524Y-93592914D02*
X48814286Y-93640533D01*
X59079819Y-122899404D02*
X59889342Y-122899404D01*
X59889342Y-122899404D02*
X59984580Y-122851785D01*
X59984580Y-122851785D02*
X60032200Y-122804166D01*
X60032200Y-122804166D02*
X60079819Y-122708928D01*
X60079819Y-122708928D02*
X60079819Y-122518452D01*
X60079819Y-122518452D02*
X60032200Y-122423214D01*
X60032200Y-122423214D02*
X59984580Y-122375595D01*
X59984580Y-122375595D02*
X59889342Y-122327976D01*
X59889342Y-122327976D02*
X59079819Y-122327976D01*
X60079819Y-121327976D02*
X60079819Y-121899404D01*
X60079819Y-121613690D02*
X59079819Y-121613690D01*
X59079819Y-121613690D02*
X59222676Y-121708928D01*
X59222676Y-121708928D02*
X59317914Y-121804166D01*
X59317914Y-121804166D02*
X59365533Y-121899404D01*
X68054819Y-120333333D02*
X68769104Y-120333333D01*
X68769104Y-120333333D02*
X68911961Y-120380952D01*
X68911961Y-120380952D02*
X69007200Y-120476190D01*
X69007200Y-120476190D02*
X69054819Y-120619047D01*
X69054819Y-120619047D02*
X69054819Y-120714285D01*
X68054819Y-119952380D02*
X68054819Y-119333333D01*
X68054819Y-119333333D02*
X68435771Y-119666666D01*
X68435771Y-119666666D02*
X68435771Y-119523809D01*
X68435771Y-119523809D02*
X68483390Y-119428571D01*
X68483390Y-119428571D02*
X68531009Y-119380952D01*
X68531009Y-119380952D02*
X68626247Y-119333333D01*
X68626247Y-119333333D02*
X68864342Y-119333333D01*
X68864342Y-119333333D02*
X68959580Y-119380952D01*
X68959580Y-119380952D02*
X69007200Y-119428571D01*
X69007200Y-119428571D02*
X69054819Y-119523809D01*
X69054819Y-119523809D02*
X69054819Y-119809523D01*
X69054819Y-119809523D02*
X69007200Y-119904761D01*
X69007200Y-119904761D02*
X68959580Y-119952380D01*
X59433333Y-115959580D02*
X59385714Y-116007200D01*
X59385714Y-116007200D02*
X59242857Y-116054819D01*
X59242857Y-116054819D02*
X59147619Y-116054819D01*
X59147619Y-116054819D02*
X59004762Y-116007200D01*
X59004762Y-116007200D02*
X58909524Y-115911961D01*
X58909524Y-115911961D02*
X58861905Y-115816723D01*
X58861905Y-115816723D02*
X58814286Y-115626247D01*
X58814286Y-115626247D02*
X58814286Y-115483390D01*
X58814286Y-115483390D02*
X58861905Y-115292914D01*
X58861905Y-115292914D02*
X58909524Y-115197676D01*
X58909524Y-115197676D02*
X59004762Y-115102438D01*
X59004762Y-115102438D02*
X59147619Y-115054819D01*
X59147619Y-115054819D02*
X59242857Y-115054819D01*
X59242857Y-115054819D02*
X59385714Y-115102438D01*
X59385714Y-115102438D02*
X59433333Y-115150057D01*
X60385714Y-116054819D02*
X59814286Y-116054819D01*
X60100000Y-116054819D02*
X60100000Y-115054819D01*
X60100000Y-115054819D02*
X60004762Y-115197676D01*
X60004762Y-115197676D02*
X59909524Y-115292914D01*
X59909524Y-115292914D02*
X59814286Y-115340533D01*
X64266666Y-113154819D02*
X64266666Y-113869104D01*
X64266666Y-113869104D02*
X64219047Y-114011961D01*
X64219047Y-114011961D02*
X64123809Y-114107200D01*
X64123809Y-114107200D02*
X63980952Y-114154819D01*
X63980952Y-114154819D02*
X63885714Y-114154819D01*
X64695238Y-113250057D02*
X64742857Y-113202438D01*
X64742857Y-113202438D02*
X64838095Y-113154819D01*
X64838095Y-113154819D02*
X65076190Y-113154819D01*
X65076190Y-113154819D02*
X65171428Y-113202438D01*
X65171428Y-113202438D02*
X65219047Y-113250057D01*
X65219047Y-113250057D02*
X65266666Y-113345295D01*
X65266666Y-113345295D02*
X65266666Y-113440533D01*
X65266666Y-113440533D02*
X65219047Y-113583390D01*
X65219047Y-113583390D02*
X64647619Y-114154819D01*
X64647619Y-114154819D02*
X65266666Y-114154819D01*
X56857142Y-114259580D02*
X56809523Y-114307200D01*
X56809523Y-114307200D02*
X56666666Y-114354819D01*
X56666666Y-114354819D02*
X56571428Y-114354819D01*
X56571428Y-114354819D02*
X56428571Y-114307200D01*
X56428571Y-114307200D02*
X56333333Y-114211961D01*
X56333333Y-114211961D02*
X56285714Y-114116723D01*
X56285714Y-114116723D02*
X56238095Y-113926247D01*
X56238095Y-113926247D02*
X56238095Y-113783390D01*
X56238095Y-113783390D02*
X56285714Y-113592914D01*
X56285714Y-113592914D02*
X56333333Y-113497676D01*
X56333333Y-113497676D02*
X56428571Y-113402438D01*
X56428571Y-113402438D02*
X56571428Y-113354819D01*
X56571428Y-113354819D02*
X56666666Y-113354819D01*
X56666666Y-113354819D02*
X56809523Y-113402438D01*
X56809523Y-113402438D02*
X56857142Y-113450057D01*
X57809523Y-114354819D02*
X57238095Y-114354819D01*
X57523809Y-114354819D02*
X57523809Y-113354819D01*
X57523809Y-113354819D02*
X57428571Y-113497676D01*
X57428571Y-113497676D02*
X57333333Y-113592914D01*
X57333333Y-113592914D02*
X57238095Y-113640533D01*
X58142857Y-113354819D02*
X58761904Y-113354819D01*
X58761904Y-113354819D02*
X58428571Y-113735771D01*
X58428571Y-113735771D02*
X58571428Y-113735771D01*
X58571428Y-113735771D02*
X58666666Y-113783390D01*
X58666666Y-113783390D02*
X58714285Y-113831009D01*
X58714285Y-113831009D02*
X58761904Y-113926247D01*
X58761904Y-113926247D02*
X58761904Y-114164342D01*
X58761904Y-114164342D02*
X58714285Y-114259580D01*
X58714285Y-114259580D02*
X58666666Y-114307200D01*
X58666666Y-114307200D02*
X58571428Y-114354819D01*
X58571428Y-114354819D02*
X58285714Y-114354819D01*
X58285714Y-114354819D02*
X58190476Y-114307200D01*
X58190476Y-114307200D02*
X58142857Y-114259580D01*
X63933333Y-89804819D02*
X63457143Y-89804819D01*
X63457143Y-89804819D02*
X63457143Y-88804819D01*
X64790476Y-89804819D02*
X64219048Y-89804819D01*
X64504762Y-89804819D02*
X64504762Y-88804819D01*
X64504762Y-88804819D02*
X64409524Y-88947676D01*
X64409524Y-88947676D02*
X64314286Y-89042914D01*
X64314286Y-89042914D02*
X64219048Y-89090533D01*
X63454819Y-122666666D02*
X62978628Y-122999999D01*
X63454819Y-123238094D02*
X62454819Y-123238094D01*
X62454819Y-123238094D02*
X62454819Y-122857142D01*
X62454819Y-122857142D02*
X62502438Y-122761904D01*
X62502438Y-122761904D02*
X62550057Y-122714285D01*
X62550057Y-122714285D02*
X62645295Y-122666666D01*
X62645295Y-122666666D02*
X62788152Y-122666666D01*
X62788152Y-122666666D02*
X62883390Y-122714285D01*
X62883390Y-122714285D02*
X62931009Y-122761904D01*
X62931009Y-122761904D02*
X62978628Y-122857142D01*
X62978628Y-122857142D02*
X62978628Y-123238094D01*
X63454819Y-121714285D02*
X63454819Y-122285713D01*
X63454819Y-121999999D02*
X62454819Y-121999999D01*
X62454819Y-121999999D02*
X62597676Y-122095237D01*
X62597676Y-122095237D02*
X62692914Y-122190475D01*
X62692914Y-122190475D02*
X62740533Y-122285713D01*
X45333333Y-108354819D02*
X45000000Y-107878628D01*
X44761905Y-108354819D02*
X44761905Y-107354819D01*
X44761905Y-107354819D02*
X45142857Y-107354819D01*
X45142857Y-107354819D02*
X45238095Y-107402438D01*
X45238095Y-107402438D02*
X45285714Y-107450057D01*
X45285714Y-107450057D02*
X45333333Y-107545295D01*
X45333333Y-107545295D02*
X45333333Y-107688152D01*
X45333333Y-107688152D02*
X45285714Y-107783390D01*
X45285714Y-107783390D02*
X45238095Y-107831009D01*
X45238095Y-107831009D02*
X45142857Y-107878628D01*
X45142857Y-107878628D02*
X44761905Y-107878628D01*
X45714286Y-107450057D02*
X45761905Y-107402438D01*
X45761905Y-107402438D02*
X45857143Y-107354819D01*
X45857143Y-107354819D02*
X46095238Y-107354819D01*
X46095238Y-107354819D02*
X46190476Y-107402438D01*
X46190476Y-107402438D02*
X46238095Y-107450057D01*
X46238095Y-107450057D02*
X46285714Y-107545295D01*
X46285714Y-107545295D02*
X46285714Y-107640533D01*
X46285714Y-107640533D02*
X46238095Y-107783390D01*
X46238095Y-107783390D02*
X45666667Y-108354819D01*
X45666667Y-108354819D02*
X46285714Y-108354819D01*
D12*
%TO.C,J4*%
X43530000Y-115290000D02*
X44860000Y-115290000D01*
X43530000Y-116620000D02*
X43530000Y-115290000D01*
X43530000Y-117890000D02*
X43530000Y-125570000D01*
X43530000Y-117890000D02*
X46130000Y-117890000D01*
X43530000Y-125570000D02*
X48730000Y-125570000D01*
X46130000Y-115290000D02*
X48730000Y-115290000D01*
X46130000Y-117890000D02*
X46130000Y-115290000D01*
X48730000Y-115290000D02*
X48730000Y-125570000D01*
%TO.C,C8*%
X54315000Y-109859420D02*
X54315000Y-110140580D01*
X55335000Y-109859420D02*
X55335000Y-110140580D01*
%TO.C,J1*%
X43670000Y-87795000D02*
X43670000Y-92995000D01*
X43730000Y-87795000D02*
X43670000Y-87795000D01*
X43730000Y-87795000D02*
X43730000Y-90395000D01*
X43730000Y-90395000D02*
X46330000Y-90395000D01*
X45000000Y-87795000D02*
X46330000Y-87795000D01*
X46330000Y-87795000D02*
X46330000Y-89125000D01*
X46330000Y-90395000D02*
X46330000Y-92995000D01*
X46330000Y-92995000D02*
X43670000Y-92995000D01*
%TO.C,C4*%
X53763748Y-100015000D02*
X54286252Y-100015000D01*
X53763748Y-101485000D02*
X54286252Y-101485000D01*
%TO.C,U3*%
X51887500Y-108590000D02*
X51087500Y-108590000D01*
X51887500Y-108590000D02*
X52687500Y-108590000D01*
X51887500Y-111710000D02*
X51087500Y-111710000D01*
X51887500Y-111710000D02*
X52687500Y-111710000D01*
X50587500Y-108640000D02*
X50347500Y-108310000D01*
X50827500Y-108310000D01*
X50587500Y-108640000D01*
G36*
X50587500Y-108640000D02*
G01*
X50347500Y-108310000D01*
X50827500Y-108310000D01*
X50587500Y-108640000D01*
G37*
%TO.C,C2*%
X57059420Y-116790000D02*
X57340580Y-116790000D01*
X57059420Y-117810000D02*
X57340580Y-117810000D01*
%TO.C,U4*%
X61230000Y-105330000D02*
X61230000Y-105600000D01*
X61230000Y-112230000D02*
X61230000Y-111960000D01*
X67650000Y-105330000D02*
X61230000Y-105330000D01*
X67650000Y-112230000D02*
X61230000Y-112230000D01*
X59500000Y-105640000D02*
X59160000Y-105170000D01*
X59840000Y-105170000D01*
X59500000Y-105640000D01*
G36*
X59500000Y-105640000D02*
G01*
X59160000Y-105170000D01*
X59840000Y-105170000D01*
X59500000Y-105640000D01*
G37*
%TO.C,C12*%
X56265000Y-107088748D02*
X56265000Y-107611252D01*
X57735000Y-107088748D02*
X57735000Y-107611252D01*
%TO.C,C7*%
X48115000Y-108540580D02*
X48115000Y-108259420D01*
X49135000Y-108540580D02*
X49135000Y-108259420D01*
%TO.C,C14*%
X51259420Y-116490000D02*
X51540580Y-116490000D01*
X51259420Y-117510000D02*
X51540580Y-117510000D01*
%TO.C,U2*%
X52040000Y-91862500D02*
X52040000Y-91062500D01*
X52040000Y-91862500D02*
X52040000Y-92662500D01*
X55160000Y-91862500D02*
X55160000Y-91062500D01*
X55160000Y-91862500D02*
X55160000Y-92662500D01*
X52090000Y-93162500D02*
X51760000Y-93402500D01*
X51760000Y-92922500D01*
X52090000Y-93162500D01*
G36*
X52090000Y-93162500D02*
G01*
X51760000Y-93402500D01*
X51760000Y-92922500D01*
X52090000Y-93162500D01*
G37*
%TO.C,R3*%
X43077500Y-111362742D02*
X43077500Y-111837258D01*
X44122500Y-111362742D02*
X44122500Y-111837258D01*
D13*
%TO.C,IC1*%
X52925000Y-112550000D02*
X53475000Y-112550000D01*
X52925000Y-115450000D02*
X52925000Y-112550000D01*
X53475000Y-112550000D02*
X53475000Y-115450000D01*
X53475000Y-115450000D02*
X52925000Y-115450000D01*
X55075000Y-115450000D02*
X53825000Y-115450000D01*
D12*
%TO.C,C3*%
X43200000Y-95800000D02*
X43200000Y-105000000D01*
X43200000Y-95800000D02*
X45940000Y-95800000D01*
X43200000Y-105000000D02*
X45940000Y-105000000D01*
X50210000Y-94375000D02*
X50210000Y-95625000D01*
X50835000Y-95000000D02*
X49585000Y-95000000D01*
X51700000Y-95800000D02*
X48960000Y-95800000D01*
X51700000Y-95800000D02*
X51700000Y-105000000D01*
X51700000Y-105000000D02*
X48960000Y-105000000D01*
%TO.C,C10*%
X54240580Y-104090000D02*
X53959420Y-104090000D01*
X54240580Y-105110000D02*
X53959420Y-105110000D01*
%TO.C,C11*%
X54190580Y-105790000D02*
X53909420Y-105790000D01*
X54190580Y-106810000D02*
X53909420Y-106810000D01*
%TO.C,C9*%
X56365000Y-94311252D02*
X56365000Y-93788748D01*
X57835000Y-94311252D02*
X57835000Y-93788748D01*
%TO.C,C6*%
X53788748Y-95665000D02*
X54311252Y-95665000D01*
X53788748Y-97135000D02*
X54311252Y-97135000D01*
%TO.C,C5*%
X53561252Y-87565000D02*
X53038748Y-87565000D01*
X53561252Y-89035000D02*
X53038748Y-89035000D01*
%TO.C,D1*%
X47100000Y-93160000D02*
X47100000Y-89150000D01*
X47100000Y-93160000D02*
X49100000Y-93160000D01*
X49100000Y-93160000D02*
X49100000Y-89150000D01*
%TO.C,U1*%
X52040000Y-122137500D02*
X52040000Y-119937500D01*
X52040000Y-122137500D02*
X52040000Y-124337500D01*
X58810000Y-122137500D02*
X58810000Y-119937500D01*
X58810000Y-122137500D02*
X58810000Y-124337500D01*
X58350000Y-118277500D02*
X58110000Y-117947500D01*
X58590000Y-117947500D01*
X58350000Y-118277500D01*
G36*
X58350000Y-118277500D02*
G01*
X58110000Y-117947500D01*
X58590000Y-117947500D01*
X58350000Y-118277500D01*
G37*
%TO.C,J3*%
X66170000Y-123330000D02*
X66170000Y-120730000D01*
X68830000Y-120730000D02*
X66170000Y-120730000D01*
X68830000Y-123330000D02*
X66170000Y-123330000D01*
X68830000Y-123330000D02*
X68830000Y-120730000D01*
X68830000Y-124600000D02*
X68830000Y-125930000D01*
X68830000Y-125930000D02*
X67500000Y-125930000D01*
%TO.C,C1*%
X57059420Y-115090000D02*
X57340580Y-115090000D01*
X57059420Y-116110000D02*
X57340580Y-116110000D01*
%TO.C,J2*%
X60330000Y-114430000D02*
X60330000Y-119630000D01*
X65470000Y-114430000D02*
X60330000Y-114430000D01*
X65470000Y-114430000D02*
X65470000Y-117030000D01*
X65470000Y-117030000D02*
X68070000Y-117030000D01*
X66740000Y-114430000D02*
X68070000Y-114430000D01*
X68070000Y-114430000D02*
X68070000Y-115760000D01*
X68070000Y-117030000D02*
X68070000Y-119630000D01*
X68070000Y-119630000D02*
X60330000Y-119630000D01*
%TO.C,C13*%
X56890000Y-111659420D02*
X56890000Y-111940580D01*
X57910000Y-111659420D02*
X57910000Y-111940580D01*
%TO.C,L1*%
D14*
X58800000Y-89850000D02*
X69400000Y-89850000D01*
X69400000Y-100650000D01*
X58800000Y-100650000D01*
X58800000Y-89850000D01*
D12*
%TO.C,R1*%
X63977500Y-122962742D02*
X63977500Y-123437258D01*
X65022500Y-122962742D02*
X65022500Y-123437258D01*
%TO.C,R2*%
X46237258Y-108877500D02*
X45762742Y-108877500D01*
X46237258Y-109922500D02*
X45762742Y-109922500D01*
%TD*%
M02*
